G04*
G04 #@! TF.GenerationSoftware,Altium Limited,Altium Designer,20.0.13 (296)*
G04*
G04 Layer_Color=65535*
%FSLAX25Y25*%
%MOIN*%
G70*
G01*
G75*
%ADD10C,0.00984*%
%ADD11C,0.02362*%
%ADD12C,0.00591*%
%ADD13C,0.00787*%
G36*
X40157Y-4134D02*
X33071D01*
Y-591D01*
X40157D01*
Y-4134D01*
D02*
G37*
G36*
X56102Y28150D02*
X48622D01*
Y31693D01*
X56102D01*
Y28150D01*
D02*
G37*
G36*
X57284Y18307D02*
X49803D01*
Y21850D01*
X57284D01*
Y18307D01*
D02*
G37*
G36*
X-12992Y26181D02*
X-16787D01*
Y55709D01*
X-12992D01*
Y26181D01*
D02*
G37*
G36*
X-16787D02*
X-20079D01*
Y55709D01*
X-16787D01*
Y26181D01*
D02*
G37*
G36*
X58465Y8465D02*
X50984D01*
Y12008D01*
X58465D01*
Y8465D01*
D02*
G37*
%LPC*%
G36*
X36134Y-1102D02*
X35795D01*
X35115Y-2934D01*
X35088Y-3011D01*
X35061Y-3084D01*
X35036Y-3155D01*
X35017Y-3218D01*
X35009Y-3245D01*
X35001Y-3270D01*
X34995Y-3292D01*
X34990Y-3311D01*
X34984Y-3325D01*
X34982Y-3338D01*
X34979Y-3344D01*
Y-3346D01*
X34957Y-3273D01*
X34935Y-3199D01*
X34913Y-3131D01*
X34894Y-3068D01*
X34883Y-3038D01*
X34875Y-3013D01*
X34867Y-2991D01*
X34861Y-2972D01*
X34856Y-2956D01*
X34851Y-2945D01*
X34848Y-2937D01*
Y-2934D01*
X34193Y-1102D01*
X33830D01*
X34807Y-3622D01*
X35151D01*
X36134Y-1102D01*
D02*
G37*
G36*
X39393D02*
X37409D01*
Y-3622D01*
X39393D01*
Y-1102D01*
D02*
G37*
G36*
X36824D02*
X36491D01*
Y-3622D01*
X36824D01*
Y-1102D01*
D02*
G37*
%LPD*%
G36*
X39074Y-3082D02*
X37750Y-1102D01*
X39074D01*
Y-3082D01*
D02*
G37*
G36*
X39049Y-3622D02*
X37728D01*
Y-1646D01*
X39049Y-3622D01*
D02*
G37*
%LPC*%
G36*
X55619Y31181D02*
X53626D01*
Y30884D01*
X54456D01*
Y28661D01*
X55619D01*
Y31181D01*
D02*
G37*
G36*
X53550D02*
X51194D01*
D01*
X52157D01*
X51194Y28661D01*
X51546D01*
X51819Y29423D01*
X52878D01*
X53170Y28661D01*
X53550D01*
X52518Y31181D01*
X53550D01*
D01*
D02*
G37*
G36*
X51008D02*
X49105D01*
Y28661D01*
X51008D01*
Y29439D01*
Y29431D01*
X51003Y29469D01*
X50989Y29543D01*
X50967Y29609D01*
X50945Y29663D01*
X50934Y29688D01*
X50924Y29710D01*
X50913Y29729D01*
X50902Y29745D01*
X50893Y29756D01*
X50888Y29764D01*
X50885Y29770D01*
X50883Y29772D01*
X50833Y29830D01*
X50776Y29876D01*
X50719Y29917D01*
X50661Y29947D01*
X50612Y29972D01*
X50590Y29980D01*
X50571Y29988D01*
X50555Y29994D01*
X50544Y29999D01*
X50536Y30002D01*
X50533D01*
X50596Y30037D01*
X50648Y30075D01*
X50694Y30114D01*
X50730Y30149D01*
X50760Y30182D01*
X50779Y30207D01*
X50787Y30217D01*
X50792Y30226D01*
X50795Y30228D01*
Y30231D01*
X50825Y30286D01*
X50847Y30338D01*
X50863Y30389D01*
X50874Y30436D01*
X50880Y30477D01*
X50885Y30507D01*
Y30518D01*
Y30526D01*
Y30531D01*
Y30534D01*
X50880Y30600D01*
X50869Y30660D01*
X50853Y30717D01*
X50836Y30766D01*
X50817Y30807D01*
X50809Y30826D01*
X50801Y30840D01*
X50792Y30851D01*
X50790Y30859D01*
X50784Y30865D01*
Y30867D01*
X50743Y30922D01*
X50700Y30971D01*
X50656Y31012D01*
X50612Y31045D01*
X50571Y31069D01*
X50541Y31088D01*
X50528Y31094D01*
X50520Y31099D01*
X50514Y31102D01*
X50511D01*
X50440Y31129D01*
X50367Y31148D01*
X50287Y31162D01*
X50216Y31170D01*
X50181Y31176D01*
X50151Y31178D01*
X50121D01*
X50096Y31181D01*
X51008D01*
D02*
G37*
%LPD*%
G36*
X55619Y28661D02*
X54789D01*
Y30884D01*
X55619D01*
Y28661D01*
D02*
G37*
G36*
X52354Y30837D02*
X52384Y30750D01*
X52414Y30663D01*
X52441Y30578D01*
X52455Y30540D01*
X52469Y30504D01*
X52480Y30471D01*
X52491Y30447D01*
X52499Y30422D01*
X52504Y30406D01*
X52510Y30395D01*
Y30392D01*
X52774Y29693D01*
X51915D01*
X52193Y30433D01*
X52223Y30523D01*
X52250Y30611D01*
X52275Y30692D01*
X52286Y30731D01*
X52294Y30766D01*
X52302Y30799D01*
X52310Y30829D01*
X52316Y30854D01*
X52321Y30878D01*
X52324Y30895D01*
X52327Y30908D01*
X52329Y30916D01*
Y30919D01*
X52354Y30837D01*
D02*
G37*
G36*
X50036Y30881D02*
X50077D01*
X50115Y30878D01*
X50151Y30875D01*
X50181Y30873D01*
X50211Y30870D01*
X50235Y30867D01*
X50255Y30862D01*
X50274Y30859D01*
X50290Y30856D01*
X50301Y30854D01*
X50312Y30851D01*
X50317D01*
X50323Y30848D01*
X50364Y30832D01*
X50397Y30813D01*
X50427Y30791D01*
X50451Y30769D01*
X50470Y30750D01*
X50484Y30733D01*
X50492Y30722D01*
X50495Y30717D01*
X50517Y30682D01*
X50530Y30643D01*
X50541Y30605D01*
X50550Y30570D01*
X50555Y30540D01*
X50558Y30518D01*
Y30501D01*
Y30499D01*
Y30496D01*
X50555Y30447D01*
X50547Y30406D01*
X50536Y30368D01*
X50525Y30335D01*
X50514Y30310D01*
X50503Y30291D01*
X50495Y30280D01*
X50492Y30275D01*
X50465Y30245D01*
X50435Y30217D01*
X50402Y30196D01*
X50372Y30179D01*
X50345Y30166D01*
X50323Y30157D01*
X50306Y30152D01*
X50304Y30149D01*
X50301D01*
X50282Y30144D01*
X50260Y30141D01*
X50211Y30133D01*
X50156Y30127D01*
X50104Y30125D01*
X50058D01*
X50036Y30122D01*
X49438D01*
Y30884D01*
X49990D01*
X50036Y30881D01*
D02*
G37*
G36*
X50104Y29822D02*
X50178Y29819D01*
X50211Y29813D01*
X50241Y29811D01*
X50268Y29808D01*
X50296Y29803D01*
X50317Y29800D01*
X50336Y29794D01*
X50350Y29792D01*
X50364Y29789D01*
X50375Y29786D01*
X50383Y29783D01*
X50386Y29781D01*
X50388D01*
X50435Y29762D01*
X50473Y29740D01*
X50508Y29718D01*
X50539Y29693D01*
X50560Y29671D01*
X50577Y29652D01*
X50588Y29641D01*
X50590Y29636D01*
X50615Y29595D01*
X50634Y29554D01*
X50645Y29513D01*
X50656Y29475D01*
X50661Y29439D01*
X50664Y29415D01*
Y29404D01*
Y29396D01*
Y29393D01*
Y29390D01*
X50661Y29347D01*
X50656Y29306D01*
X50648Y29270D01*
X50640Y29240D01*
X50629Y29213D01*
X50621Y29194D01*
X50615Y29183D01*
X50612Y29177D01*
X50593Y29145D01*
X50571Y29117D01*
X50550Y29093D01*
X50530Y29074D01*
X50511Y29057D01*
X50498Y29046D01*
X50487Y29041D01*
X50484Y29038D01*
X50454Y29022D01*
X50421Y29008D01*
X50391Y28994D01*
X50361Y28986D01*
X50334Y28978D01*
X50312Y28973D01*
X50298Y28970D01*
X50293D01*
X50266Y28967D01*
X50230Y28964D01*
X50192Y28962D01*
X50156D01*
X50121Y28959D01*
X49438D01*
Y29824D01*
X50020D01*
X50104Y29822D01*
D02*
G37*
G36*
X51008Y28661D02*
X50064D01*
X50151Y28664D01*
X50230Y28667D01*
X50298Y28675D01*
X50331Y28678D01*
X50358Y28683D01*
X50383Y28686D01*
X50405Y28689D01*
X50424Y28694D01*
X50440Y28697D01*
X50454Y28700D01*
X50462D01*
X50468Y28702D01*
X50470D01*
X50530Y28719D01*
X50585Y28738D01*
X50631Y28760D01*
X50670Y28779D01*
X50702Y28798D01*
X50727Y28811D01*
X50741Y28822D01*
X50746Y28825D01*
X50787Y28861D01*
X50823Y28899D01*
X50855Y28937D01*
X50880Y28975D01*
X50902Y29008D01*
X50918Y29035D01*
X50924Y29046D01*
X50929Y29054D01*
X50932Y29057D01*
Y29060D01*
X50956Y29117D01*
X50975Y29177D01*
X50989Y29232D01*
X51000Y29284D01*
X51005Y29327D01*
Y29344D01*
X51008Y29360D01*
Y28661D01*
D02*
G37*
%LPC*%
G36*
X56520Y21365D02*
Y19623D01*
X56515Y19667D01*
X56501Y19746D01*
X56479Y19814D01*
X56468Y19844D01*
X56458Y19871D01*
X56447Y19899D01*
X56436Y19920D01*
X56425Y19940D01*
X56414Y19953D01*
X56406Y19967D01*
X56400Y19975D01*
X56397Y19981D01*
X56395Y19983D01*
X56346Y20041D01*
X56288Y20087D01*
X56231Y20122D01*
X56176Y20152D01*
X56125Y20174D01*
X56103Y20182D01*
X56086Y20188D01*
X56070Y20193D01*
X56059Y20196D01*
X56051Y20199D01*
X56048D01*
X56108Y20232D01*
X56160Y20264D01*
X56206Y20300D01*
X56242Y20335D01*
X56272Y20365D01*
X56291Y20390D01*
X56305Y20406D01*
X56307Y20409D01*
Y20412D01*
X56337Y20464D01*
X56359Y20516D01*
X56376Y20565D01*
X56387Y20611D01*
X56392Y20649D01*
X56397Y20682D01*
Y20693D01*
Y20701D01*
Y20707D01*
Y20709D01*
X56395Y20772D01*
X56384Y20832D01*
X56367Y20887D01*
X56351Y20936D01*
X56335Y20977D01*
X56327Y20993D01*
X56318Y21007D01*
X56313Y21018D01*
X56307Y21029D01*
X56305Y21032D01*
Y21034D01*
X56266Y21089D01*
X56223Y21135D01*
X56179Y21176D01*
X56135Y21212D01*
X56097Y21239D01*
X56067Y21258D01*
X56054Y21266D01*
X56045Y21272D01*
X56040Y21274D01*
X56037D01*
X55972Y21305D01*
X55906Y21326D01*
X55841Y21343D01*
X55783Y21354D01*
X55731Y21359D01*
X55712Y21362D01*
X55693Y21365D01*
X55658D01*
X55603Y21362D01*
X55551Y21356D01*
X55502Y21348D01*
X55453Y21337D01*
X55409Y21324D01*
X55368Y21310D01*
X55330Y21294D01*
X55297Y21280D01*
X55265Y21264D01*
X55237Y21247D01*
X55215Y21234D01*
X55194Y21220D01*
X55180Y21209D01*
X55166Y21201D01*
X55161Y21195D01*
X55158Y21193D01*
X55123Y21160D01*
X55090Y21122D01*
X55060Y21083D01*
X55032Y21045D01*
X55008Y21004D01*
X54989Y20966D01*
X54953Y20887D01*
X54940Y20851D01*
X54929Y20819D01*
X54921Y20788D01*
X54912Y20764D01*
X54907Y20742D01*
X54904Y20726D01*
X54901Y20715D01*
Y20712D01*
X55210Y20658D01*
X55226Y20737D01*
X55248Y20805D01*
X55273Y20865D01*
X55300Y20911D01*
X55322Y20950D01*
X55344Y20974D01*
X55357Y20991D01*
X55363Y20996D01*
X55412Y21034D01*
X55461Y21061D01*
X55513Y21083D01*
X55559Y21097D01*
X55603Y21105D01*
X55620Y21108D01*
X55636D01*
X55650Y21111D01*
X55666D01*
X55731Y21105D01*
X55789Y21094D01*
X55841Y21075D01*
X55884Y21056D01*
X55917Y21034D01*
X55942Y21015D01*
X55958Y21004D01*
X55963Y20999D01*
X55985Y20977D01*
X56002Y20955D01*
X56032Y20906D01*
X56054Y20859D01*
X56067Y20816D01*
X56075Y20775D01*
X56078Y20745D01*
X56081Y20731D01*
Y20723D01*
Y20718D01*
Y20715D01*
X56078Y20677D01*
X56073Y20641D01*
X56067Y20606D01*
X56056Y20576D01*
X56029Y20521D01*
X56002Y20477D01*
X55972Y20442D01*
X55944Y20417D01*
X55933Y20409D01*
X55928Y20404D01*
X55923Y20398D01*
X55920D01*
X55860Y20363D01*
X55797Y20338D01*
X55737Y20319D01*
X55682Y20308D01*
X55636Y20300D01*
X55617Y20297D01*
X55598D01*
X55584Y20294D01*
X55549D01*
X55532Y20297D01*
X55519Y20300D01*
X55513D01*
X55480Y20030D01*
X55527Y20041D01*
X55570Y20049D01*
X55606Y20054D01*
X55639Y20060D01*
X55663D01*
X55682Y20062D01*
X55699D01*
X55737Y20060D01*
X55775Y20057D01*
X55843Y20041D01*
X55903Y20019D01*
X55955Y19994D01*
X55996Y19967D01*
X56013Y19956D01*
X56026Y19945D01*
X56037Y19937D01*
X56045Y19929D01*
X56048Y19926D01*
X56051Y19923D01*
X56075Y19896D01*
X56097Y19869D01*
X56116Y19841D01*
X56133Y19811D01*
X56157Y19754D01*
X56176Y19696D01*
X56185Y19647D01*
X56187Y19628D01*
X56190Y19609D01*
X56193Y19595D01*
Y19582D01*
Y19576D01*
Y19574D01*
X56190Y19533D01*
X56187Y19494D01*
X56168Y19421D01*
X56146Y19358D01*
X56119Y19303D01*
X56103Y19279D01*
X56089Y19260D01*
X56078Y19241D01*
X56067Y19227D01*
X56056Y19216D01*
X56048Y19208D01*
X56045Y19202D01*
X56043Y19200D01*
X56013Y19172D01*
X55983Y19150D01*
X55953Y19131D01*
X55923Y19112D01*
X55860Y19085D01*
X55800Y19069D01*
X55751Y19058D01*
X55726Y19055D01*
X55710Y19052D01*
X55693Y19049D01*
X55671D01*
X55606Y19055D01*
X55543Y19069D01*
X55491Y19085D01*
X55445Y19107D01*
X55406Y19129D01*
X55379Y19145D01*
X55371Y19153D01*
X55363Y19159D01*
X55360Y19164D01*
X55357D01*
X55336Y19189D01*
X55314Y19213D01*
X55275Y19271D01*
X55246Y19333D01*
X55221Y19396D01*
X55202Y19454D01*
X55196Y19478D01*
X55191Y19500D01*
X55185Y19519D01*
X55183Y19533D01*
X55180Y19541D01*
Y19544D01*
X54871Y19503D01*
D01*
X54880Y19445D01*
X54891Y19391D01*
X54907Y19339D01*
X54923Y19290D01*
X54942Y19243D01*
X54964Y19202D01*
X54986Y19162D01*
X55008Y19129D01*
X55030Y19096D01*
X55049Y19069D01*
X55068Y19044D01*
X55084Y19025D01*
X55101Y19009D01*
X55112Y18998D01*
X55117Y18992D01*
X55120Y18990D01*
X55161Y18954D01*
X55207Y18924D01*
X55251Y18899D01*
X55297Y18875D01*
X55344Y18856D01*
X55390Y18842D01*
X55434Y18828D01*
X55477Y18817D01*
X55519Y18809D01*
X55554Y18804D01*
X55587Y18798D01*
X55617Y18796D01*
X55639D01*
X55658Y18793D01*
X54871D01*
D01*
X56520D01*
Y21365D01*
D02*
G37*
G36*
X52215D02*
Y19623D01*
X52210Y19667D01*
X52196Y19746D01*
X52174Y19814D01*
X52163Y19844D01*
X52152Y19871D01*
X52141Y19899D01*
X52131Y19920D01*
X52120Y19940D01*
X52109Y19953D01*
X52100Y19967D01*
X52095Y19975D01*
X52092Y19981D01*
X52090Y19983D01*
X52040Y20041D01*
X51983Y20087D01*
X51926Y20122D01*
X51871Y20152D01*
X51819Y20174D01*
X51797Y20182D01*
X51781Y20188D01*
X51765Y20193D01*
X51754Y20196D01*
X51746Y20199D01*
X51743D01*
X51803Y20232D01*
X51855Y20264D01*
X51901Y20300D01*
X51937Y20335D01*
X51967Y20365D01*
X51986Y20390D01*
X51999Y20406D01*
X52002Y20409D01*
Y20412D01*
X52032Y20464D01*
X52054Y20516D01*
X52070Y20565D01*
X52081Y20611D01*
X52087Y20649D01*
X52092Y20682D01*
Y20693D01*
Y20701D01*
Y20707D01*
Y20709D01*
X52090Y20772D01*
X52079Y20832D01*
X52062Y20887D01*
X52046Y20936D01*
X52030Y20977D01*
X52021Y20993D01*
X52013Y21007D01*
X52008Y21018D01*
X52002Y21029D01*
X51999Y21032D01*
Y21034D01*
X51961Y21089D01*
X51918Y21135D01*
X51874Y21176D01*
X51830Y21212D01*
X51792Y21239D01*
X51762Y21258D01*
X51748Y21266D01*
X51740Y21272D01*
X51735Y21274D01*
X51732D01*
X51666Y21305D01*
X51601Y21326D01*
X51535Y21343D01*
X51478Y21354D01*
X51426Y21359D01*
X51407Y21362D01*
X51388Y21365D01*
X50566D01*
X51353D01*
X51298Y21362D01*
X51246Y21356D01*
X51197Y21348D01*
X51148Y21337D01*
X51104Y21324D01*
X51063Y21310D01*
X51025Y21294D01*
X50992Y21280D01*
X50959Y21264D01*
X50932Y21247D01*
X50910Y21234D01*
X50888Y21220D01*
X50875Y21209D01*
X50861Y21201D01*
X50856Y21195D01*
X50853Y21193D01*
X50817Y21160D01*
X50785Y21122D01*
X50755Y21083D01*
X50727Y21045D01*
X50703Y21004D01*
X50684Y20966D01*
X50648Y20887D01*
X50634Y20851D01*
X50624Y20819D01*
X50615Y20788D01*
X50607Y20764D01*
X50602Y20742D01*
X50599Y20726D01*
X50596Y20715D01*
Y20712D01*
X50905Y20658D01*
X50921Y20737D01*
X50943Y20805D01*
X50968Y20865D01*
X50995Y20911D01*
X51017Y20950D01*
X51038Y20974D01*
X51052Y20991D01*
X51058Y20996D01*
X51107Y21034D01*
X51156Y21061D01*
X51208Y21083D01*
X51254Y21097D01*
X51298Y21105D01*
X51314Y21108D01*
X51331D01*
X51344Y21111D01*
X51361D01*
X51426Y21105D01*
X51484Y21094D01*
X51535Y21075D01*
X51579Y21056D01*
X51612Y21034D01*
X51636Y21015D01*
X51653Y21004D01*
X51658Y20999D01*
X51680Y20977D01*
X51696Y20955D01*
X51727Y20906D01*
X51748Y20859D01*
X51762Y20816D01*
X51770Y20775D01*
X51773Y20745D01*
X51776Y20731D01*
Y20723D01*
Y20718D01*
Y20715D01*
X51773Y20677D01*
X51767Y20641D01*
X51762Y20606D01*
X51751Y20576D01*
X51724Y20521D01*
X51696Y20477D01*
X51666Y20442D01*
X51639Y20417D01*
X51628Y20409D01*
X51623Y20404D01*
X51617Y20398D01*
X51615D01*
X51555Y20363D01*
X51492Y20338D01*
X51432Y20319D01*
X51377Y20308D01*
X51331Y20300D01*
X51311Y20297D01*
X51292D01*
X51279Y20294D01*
X51243D01*
X51227Y20297D01*
X51213Y20300D01*
X51208D01*
X51175Y20030D01*
X51222Y20041D01*
X51265Y20049D01*
X51301Y20054D01*
X51333Y20060D01*
X51358D01*
X51377Y20062D01*
X51393D01*
X51432Y20060D01*
X51470Y20057D01*
X51538Y20041D01*
X51598Y20019D01*
X51650Y19994D01*
X51691Y19967D01*
X51707Y19956D01*
X51721Y19945D01*
X51732Y19937D01*
X51740Y19929D01*
X51743Y19926D01*
X51746Y19923D01*
X51770Y19896D01*
X51792Y19869D01*
X51811Y19841D01*
X51828Y19811D01*
X51852Y19754D01*
X51871Y19696D01*
X51879Y19647D01*
X51882Y19628D01*
X51885Y19609D01*
X51888Y19595D01*
Y19582D01*
Y19576D01*
Y19574D01*
X51885Y19533D01*
X51882Y19494D01*
X51863Y19421D01*
X51841Y19358D01*
X51814Y19303D01*
X51797Y19279D01*
X51784Y19260D01*
X51773Y19241D01*
X51762Y19227D01*
X51751Y19216D01*
X51743Y19208D01*
X51740Y19202D01*
X51737Y19200D01*
X51707Y19172D01*
X51677Y19150D01*
X51647Y19131D01*
X51617Y19112D01*
X51555Y19085D01*
X51494Y19069D01*
X51445Y19058D01*
X51421Y19055D01*
X51404Y19052D01*
X51388Y19049D01*
X51366D01*
X51301Y19055D01*
X51238Y19069D01*
X51186Y19085D01*
X51140Y19107D01*
X51101Y19129D01*
X51074Y19145D01*
X51066Y19153D01*
X51058Y19159D01*
X51055Y19164D01*
X51052D01*
X51030Y19189D01*
X51008Y19213D01*
X50970Y19271D01*
X50940Y19333D01*
X50916Y19396D01*
X50897Y19454D01*
X50891Y19478D01*
X50886Y19500D01*
X50880Y19519D01*
X50877Y19533D01*
X50875Y19541D01*
Y19544D01*
X50566Y19503D01*
D01*
X50574Y19445D01*
X50585Y19391D01*
X50602Y19339D01*
X50618Y19290D01*
X50637Y19243D01*
X50659Y19202D01*
X50681Y19162D01*
X50703Y19129D01*
X50725Y19096D01*
X50744Y19069D01*
X50763Y19044D01*
X50779Y19025D01*
X50796Y19009D01*
X50806Y18998D01*
X50812Y18992D01*
X50815Y18990D01*
X50856Y18954D01*
X50902Y18924D01*
X50946Y18899D01*
X50992Y18875D01*
X51038Y18856D01*
X51085Y18842D01*
X51129Y18828D01*
X51172Y18817D01*
X51213Y18809D01*
X51249Y18804D01*
X51281Y18798D01*
X51311Y18796D01*
X51333D01*
X51353Y18793D01*
X51366D01*
X51434Y18796D01*
X51497Y18804D01*
X51557Y18815D01*
X51615Y18828D01*
X51669Y18845D01*
X51718Y18864D01*
X51765Y18886D01*
X51806Y18908D01*
X51844Y18927D01*
X51877Y18948D01*
X51907Y18968D01*
X51929Y18984D01*
X51948Y18998D01*
X51961Y19009D01*
X51969Y19017D01*
X51972Y19019D01*
X52016Y19063D01*
X52051Y19110D01*
X52084Y19156D01*
X52111Y19205D01*
X52136Y19252D01*
X52155Y19298D01*
X52171Y19342D01*
X52185Y19385D01*
X52196Y19426D01*
X52201Y19462D01*
X52207Y19494D01*
X52212Y19524D01*
Y19546D01*
X52215Y19566D01*
Y18793D01*
D01*
D01*
Y21365D01*
D02*
G37*
G36*
X54694Y21356D02*
X54356D01*
X53676Y19524D01*
X53648Y19448D01*
X53621Y19374D01*
X53597Y19303D01*
X53577Y19241D01*
X53569Y19213D01*
X53561Y19189D01*
X53556Y19167D01*
X53550Y19148D01*
X53545Y19134D01*
X53542Y19120D01*
X53539Y19115D01*
Y19112D01*
X53517Y19186D01*
X53496Y19260D01*
X53474Y19328D01*
X53455Y19391D01*
X53444Y19421D01*
X53435Y19445D01*
X53427Y19467D01*
X53422Y19486D01*
X53416Y19503D01*
X53411Y19514D01*
X53408Y19522D01*
Y19524D01*
X52753Y21356D01*
X52390D01*
X53367Y18837D01*
X52390D01*
D01*
X54694D01*
D01*
X53711D01*
X54694Y21356D01*
D02*
G37*
%LPD*%
G36*
X56520Y18793D02*
X55671D01*
X55740Y18796D01*
X55802Y18804D01*
X55862Y18815D01*
X55920Y18828D01*
X55974Y18845D01*
X56024Y18864D01*
X56070Y18886D01*
X56111Y18908D01*
X56149Y18927D01*
X56182Y18948D01*
X56212Y18968D01*
X56234Y18984D01*
X56253Y18998D01*
X56266Y19009D01*
X56275Y19017D01*
X56277Y19019D01*
X56321Y19063D01*
X56357Y19110D01*
X56389Y19156D01*
X56417Y19205D01*
X56441Y19252D01*
X56460Y19298D01*
X56477Y19342D01*
X56490Y19385D01*
X56501Y19426D01*
X56507Y19462D01*
X56512Y19494D01*
X56518Y19524D01*
Y19546D01*
X56520Y19566D01*
Y18793D01*
D02*
G37*
%LPC*%
G36*
X-13682Y51373D02*
D01*
Y50696D01*
Y51373D01*
D02*
G37*
G36*
X-14891D02*
X-15033D01*
X-15099Y51371D01*
X-15159Y51368D01*
X-15216Y51365D01*
X-15268Y51360D01*
X-15317Y51354D01*
X-15361Y51349D01*
X-15402Y51346D01*
X-15437Y51341D01*
X-15467Y51335D01*
X-15495Y51330D01*
X-15516Y51324D01*
X-15535Y51322D01*
X-15546Y51319D01*
X-15554Y51316D01*
X-15557D01*
X-15636Y51294D01*
X-15710Y51267D01*
X-15773Y51242D01*
X-15827Y51218D01*
X-15849Y51204D01*
X-15871Y51196D01*
X-15890Y51185D01*
X-15904Y51177D01*
X-15915Y51169D01*
X-15923Y51166D01*
X-15929Y51161D01*
X-15931D01*
X-15986Y51122D01*
X-16035Y51079D01*
X-16076Y51038D01*
X-16109Y50997D01*
X-16136Y50961D01*
X-16152Y50934D01*
X-16161Y50923D01*
X-16166Y50915D01*
X-16169Y50909D01*
Y50907D01*
X-16196Y50847D01*
X-16215Y50787D01*
X-16232Y50726D01*
X-16240Y50672D01*
X-16245Y50623D01*
X-16248Y50604D01*
X-16251Y50585D01*
Y49733D01*
X-13682D01*
Y50552D01*
X-13684Y50604D01*
X-13687Y50650D01*
X-13695Y50696D01*
X-13704Y50740D01*
X-13717Y50781D01*
X-13728Y50817D01*
X-13742Y50852D01*
X-13756Y50882D01*
X-13769Y50912D01*
X-13783Y50937D01*
X-13796Y50959D01*
X-13807Y50975D01*
X-13815Y50989D01*
X-13824Y50999D01*
X-13826Y51005D01*
X-13829Y51008D01*
X-13859Y51040D01*
X-13889Y51073D01*
X-13958Y51128D01*
X-14026Y51174D01*
X-14094Y51212D01*
X-14127Y51229D01*
X-14157Y51242D01*
X-14181Y51253D01*
X-14206Y51264D01*
X-14222Y51272D01*
X-14239Y51275D01*
X-14247Y51281D01*
X-14250D01*
X-14301Y51297D01*
X-14359Y51311D01*
X-14476Y51335D01*
X-14596Y51352D01*
X-14654Y51357D01*
X-14711Y51363D01*
X-14763Y51365D01*
X-14812Y51368D01*
X-14853Y51371D01*
X-14891Y51373D01*
D02*
G37*
G36*
X-13723Y49400D02*
X-14020D01*
Y48158D01*
X-14080Y48201D01*
X-14108Y48223D01*
X-14132Y48245D01*
X-14154Y48264D01*
X-14170Y48278D01*
X-14181Y48289D01*
X-14184Y48291D01*
X-14200Y48308D01*
X-14222Y48329D01*
X-14244Y48354D01*
X-14269Y48381D01*
X-14323Y48439D01*
X-14375Y48499D01*
X-14424Y48556D01*
X-14446Y48581D01*
X-14465Y48605D01*
X-14482Y48622D01*
X-14493Y48638D01*
X-14501Y48646D01*
X-14503Y48649D01*
X-14555Y48709D01*
X-14604Y48766D01*
X-14648Y48818D01*
X-14692Y48865D01*
X-14730Y48908D01*
X-14768Y48946D01*
X-14801Y48982D01*
X-14831Y49015D01*
X-14856Y49042D01*
X-14880Y49064D01*
X-14899Y49083D01*
X-14916Y49099D01*
X-14929Y49110D01*
X-14938Y49121D01*
X-14943Y49124D01*
X-14946Y49127D01*
X-15006Y49179D01*
X-15060Y49220D01*
X-15112Y49255D01*
X-15159Y49285D01*
X-15197Y49307D01*
X-15227Y49323D01*
X-15238Y49329D01*
X-15246Y49331D01*
X-15249Y49334D01*
X-15251D01*
X-15306Y49356D01*
X-15361Y49370D01*
X-15410Y49381D01*
X-15456Y49389D01*
X-15495Y49394D01*
X-15525Y49397D01*
X-15535D01*
X-15544D01*
X-15546D01*
X-15549D01*
X-15604Y49394D01*
X-15655Y49389D01*
X-15705Y49378D01*
X-15754Y49364D01*
X-15798Y49348D01*
X-15838Y49329D01*
X-15877Y49310D01*
X-15909Y49290D01*
X-15942Y49271D01*
X-15969Y49252D01*
X-15994Y49233D01*
X-16013Y49217D01*
X-16027Y49203D01*
X-16040Y49192D01*
X-16046Y49187D01*
X-16049Y49184D01*
X-16084Y49143D01*
X-16114Y49099D01*
X-16141Y49053D01*
X-16166Y49004D01*
X-16185Y48957D01*
X-16202Y48908D01*
X-16215Y48862D01*
X-16226Y48816D01*
X-16234Y48774D01*
X-16240Y48734D01*
X-16245Y48698D01*
X-16248Y48668D01*
X-16251Y48643D01*
Y48608D01*
X-16248Y48542D01*
X-16242Y48480D01*
X-16234Y48422D01*
X-16221Y48368D01*
X-16207Y48316D01*
X-16191Y48270D01*
X-16174Y48226D01*
X-16158Y48188D01*
X-16139Y48152D01*
X-16122Y48122D01*
X-16106Y48095D01*
X-16092Y48073D01*
X-16079Y48057D01*
X-16071Y48046D01*
X-16065Y48037D01*
X-16062Y48035D01*
X-16027Y47997D01*
X-15986Y47964D01*
X-15945Y47934D01*
X-15899Y47906D01*
X-15855Y47885D01*
X-15811Y47863D01*
X-15765Y47846D01*
X-15724Y47833D01*
X-15683Y47819D01*
X-15645Y47811D01*
X-15609Y47803D01*
X-15579Y47797D01*
X-15554Y47794D01*
X-15538Y47792D01*
X-15527Y47789D01*
X-15522D01*
X-15489Y48106D01*
X-15533Y48108D01*
X-15574Y48111D01*
X-15645Y48127D01*
X-15710Y48149D01*
X-15737Y48160D01*
X-15762Y48174D01*
X-15784Y48185D01*
X-15803Y48199D01*
X-15819Y48209D01*
X-15833Y48218D01*
X-15844Y48228D01*
X-15852Y48234D01*
X-15855Y48237D01*
X-15858Y48239D01*
X-15882Y48267D01*
X-15904Y48294D01*
X-15920Y48324D01*
X-15937Y48354D01*
X-15961Y48414D01*
X-15978Y48472D01*
X-15986Y48521D01*
X-15991Y48542D01*
Y48562D01*
X-15994Y48578D01*
Y48638D01*
X-15989Y48676D01*
X-15975Y48744D01*
X-15953Y48802D01*
X-15931Y48854D01*
X-15907Y48892D01*
X-15896Y48908D01*
X-15885Y48922D01*
X-15877Y48933D01*
X-15871Y48941D01*
X-15868Y48944D01*
X-15866Y48946D01*
X-15841Y48971D01*
X-15817Y48990D01*
X-15792Y49009D01*
X-15765Y49023D01*
X-15713Y49047D01*
X-15664Y49064D01*
X-15623Y49072D01*
X-15604Y49077D01*
X-15587D01*
X-15576Y49080D01*
X-15565D01*
X-15560D01*
X-15557D01*
X-15525Y49077D01*
X-15492Y49075D01*
X-15426Y49058D01*
X-15363Y49034D01*
X-15306Y49007D01*
X-15257Y48979D01*
X-15238Y48968D01*
X-15219Y48955D01*
X-15205Y48946D01*
X-15194Y48938D01*
X-15189Y48936D01*
X-15186Y48933D01*
X-15148Y48903D01*
X-15107Y48867D01*
X-15063Y48826D01*
X-15020Y48783D01*
X-14929Y48693D01*
X-14845Y48600D01*
X-14804Y48556D01*
X-14768Y48512D01*
X-14736Y48474D01*
X-14708Y48441D01*
X-14684Y48414D01*
X-14667Y48395D01*
X-14654Y48381D01*
X-14651Y48376D01*
X-14610Y48327D01*
X-14572Y48283D01*
X-14536Y48239D01*
X-14501Y48201D01*
X-14468Y48163D01*
X-14435Y48130D01*
X-14408Y48100D01*
X-14381Y48073D01*
X-14356Y48048D01*
X-14334Y48029D01*
X-14315Y48010D01*
X-14301Y47997D01*
X-14288Y47983D01*
X-14280Y47975D01*
X-14274Y47972D01*
X-14271Y47969D01*
X-14211Y47920D01*
X-14151Y47879D01*
X-14094Y47844D01*
X-14042Y47816D01*
X-13998Y47794D01*
X-13979Y47786D01*
X-13966Y47778D01*
X-13952Y47773D01*
X-13944Y47770D01*
X-13938Y47767D01*
X-13936D01*
X-13897Y47754D01*
X-13859Y47745D01*
X-13824Y47737D01*
X-13791Y47734D01*
X-13764Y47732D01*
X-16251D01*
D01*
X-13723D01*
Y49400D01*
D02*
G37*
G36*
X-13679Y47631D02*
Y46899D01*
X-16283Y47631D01*
D01*
Y47382D01*
X-13679Y46651D01*
X-16283D01*
D01*
X-13679D01*
Y47631D01*
D02*
G37*
G36*
X-13682Y46490D02*
D01*
Y45698D01*
X-13687Y45780D01*
X-13698Y45856D01*
X-13714Y45927D01*
X-13736Y45987D01*
X-13745Y46012D01*
X-13756Y46036D01*
X-13764Y46055D01*
X-13772Y46072D01*
X-13777Y46086D01*
X-13783Y46096D01*
X-13788Y46102D01*
Y46105D01*
X-13832Y46167D01*
X-13884Y46225D01*
X-13936Y46274D01*
X-13985Y46312D01*
X-14031Y46345D01*
X-14050Y46356D01*
X-14067Y46367D01*
X-14080Y46375D01*
X-14091Y46380D01*
X-14097Y46386D01*
X-14099D01*
X-14179Y46421D01*
X-14255Y46446D01*
X-14329Y46465D01*
X-14397Y46476D01*
X-14427Y46481D01*
X-14457Y46484D01*
X-14482Y46487D01*
X-14501D01*
X-14520Y46490D01*
X-14542D01*
X-14607Y46487D01*
X-14670Y46481D01*
X-14730Y46470D01*
X-14785Y46457D01*
X-14837Y46438D01*
X-14886Y46421D01*
X-14929Y46399D01*
X-14970Y46380D01*
X-15006Y46361D01*
X-15039Y46339D01*
X-15066Y46323D01*
X-15088Y46307D01*
X-15107Y46290D01*
X-15118Y46279D01*
X-15126Y46274D01*
X-15129Y46271D01*
X-15170Y46230D01*
X-15205Y46187D01*
X-15235Y46143D01*
X-15262Y46096D01*
X-15284Y46053D01*
X-15303Y46009D01*
X-15317Y45965D01*
X-15331Y45927D01*
X-15339Y45889D01*
X-15347Y45853D01*
X-15350Y45823D01*
X-15355Y45796D01*
Y45774D01*
X-15358Y45758D01*
Y45744D01*
X-15355Y45679D01*
X-15344Y45616D01*
X-15331Y45559D01*
X-15317Y45507D01*
X-15301Y45463D01*
X-15292Y45447D01*
X-15287Y45430D01*
X-15281Y45419D01*
X-15276Y45411D01*
X-15273Y45406D01*
Y45403D01*
X-15238Y45346D01*
X-15200Y45294D01*
X-15159Y45247D01*
X-15118Y45206D01*
X-15079Y45176D01*
X-15049Y45152D01*
X-15039Y45144D01*
X-15030Y45138D01*
X-15025Y45133D01*
X-15022Y45133D01*
X-15025D01*
X-15025Y45133D01*
X-15090Y45135D01*
X-15156Y45138D01*
X-15216Y45141D01*
X-15271Y45146D01*
X-15323Y45155D01*
X-15372Y45163D01*
X-15415Y45168D01*
X-15453Y45176D01*
X-15486Y45185D01*
X-15516Y45193D01*
X-15544Y45201D01*
X-15563Y45206D01*
X-15579Y45212D01*
X-15593Y45217D01*
X-15598Y45220D01*
X-15601D01*
X-15672Y45256D01*
X-15735Y45291D01*
X-15789Y45329D01*
X-15833Y45368D01*
X-15868Y45400D01*
X-15893Y45425D01*
X-15901Y45436D01*
X-15907Y45444D01*
X-15912Y45447D01*
Y45449D01*
X-15939Y45493D01*
X-15961Y45537D01*
X-15975Y45580D01*
X-15986Y45621D01*
X-15991Y45657D01*
X-15997Y45687D01*
Y45711D01*
X-15994Y45744D01*
X-15991Y45777D01*
X-15975Y45837D01*
X-15956Y45892D01*
X-15931Y45935D01*
X-15907Y45974D01*
X-15885Y46001D01*
X-15877Y46009D01*
X-15868Y46017D01*
X-15866Y46020D01*
X-15863Y46023D01*
X-15827Y46050D01*
X-15787Y46072D01*
X-15743Y46094D01*
X-15699Y46110D01*
X-15661Y46124D01*
X-15628Y46132D01*
X-15615Y46135D01*
X-15606Y46137D01*
X-15601Y46140D01*
X-15598D01*
X-15623Y46449D01*
X-15677Y46440D01*
X-15726Y46427D01*
X-15773Y46413D01*
X-15817Y46397D01*
X-15858Y46378D01*
X-15896Y46358D01*
X-15931Y46339D01*
X-15961Y46320D01*
X-15989Y46301D01*
X-16013Y46282D01*
X-16035Y46266D01*
X-16051Y46249D01*
X-16065Y46238D01*
X-16073Y46227D01*
X-16079Y46222D01*
X-16081Y46219D01*
X-16112Y46181D01*
X-16136Y46143D01*
X-16161Y46105D01*
X-16180Y46064D01*
X-16196Y46020D01*
X-16210Y45982D01*
X-16229Y45903D01*
X-16237Y45867D01*
X-16242Y45834D01*
X-16245Y45804D01*
X-16248Y45780D01*
X-16251Y45761D01*
Y45731D01*
X-16248Y45657D01*
X-16237Y45589D01*
X-16223Y45523D01*
X-16204Y45463D01*
X-16182Y45406D01*
X-16158Y45354D01*
X-16133Y45305D01*
X-16106Y45261D01*
X-16079Y45223D01*
X-16054Y45190D01*
X-16030Y45160D01*
X-16008Y45138D01*
X-15989Y45119D01*
X-15975Y45105D01*
X-15964Y45097D01*
X-15961Y45094D01*
X-15896Y45048D01*
X-15822Y45004D01*
X-15740Y44969D01*
X-15655Y44939D01*
X-15568Y44912D01*
X-15481Y44890D01*
X-15394Y44873D01*
X-15306Y44857D01*
X-15224Y44846D01*
X-15148Y44838D01*
X-15079Y44832D01*
X-15020Y44830D01*
X-14992Y44827D01*
X-14970D01*
X-14949Y44824D01*
X-16251D01*
D01*
X-13682D01*
Y46490D01*
D02*
G37*
G36*
Y44524D02*
D01*
Y43702D01*
X-13684Y43754D01*
X-13687Y43801D01*
X-13695Y43847D01*
X-13704Y43891D01*
X-13717Y43931D01*
X-13728Y43967D01*
X-13742Y44003D01*
X-13756Y44032D01*
X-13769Y44063D01*
X-13783Y44087D01*
X-13796Y44109D01*
X-13807Y44125D01*
X-13815Y44139D01*
X-13824Y44150D01*
X-13826Y44155D01*
X-13829Y44158D01*
X-13859Y44191D01*
X-13889Y44224D01*
X-13958Y44278D01*
X-14026Y44325D01*
X-14094Y44363D01*
X-14127Y44379D01*
X-14157Y44393D01*
X-14181Y44404D01*
X-14206Y44415D01*
X-14222Y44423D01*
X-14239Y44426D01*
X-14247Y44431D01*
X-14250D01*
X-14301Y44447D01*
X-14359Y44461D01*
X-14476Y44486D01*
X-14596Y44502D01*
X-14654Y44508D01*
X-14711Y44513D01*
X-14763Y44516D01*
X-14812Y44518D01*
X-14853Y44521D01*
X-14891Y44524D01*
X-15033D01*
X-15099Y44521D01*
X-15159Y44518D01*
X-15216Y44516D01*
X-15268Y44510D01*
X-15317Y44505D01*
X-15361Y44499D01*
X-15402Y44497D01*
X-15437Y44491D01*
X-15467Y44486D01*
X-15495Y44480D01*
X-15516Y44475D01*
X-15535Y44472D01*
X-15546Y44469D01*
X-15554Y44467D01*
X-15557D01*
X-15636Y44445D01*
X-15710Y44417D01*
X-15773Y44393D01*
X-15827Y44368D01*
X-15849Y44355D01*
X-15871Y44346D01*
X-15890Y44335D01*
X-15904Y44327D01*
X-15915Y44319D01*
X-15923Y44316D01*
X-15929Y44311D01*
X-15931D01*
X-15986Y44273D01*
X-16035Y44229D01*
X-16076Y44188D01*
X-16109Y44147D01*
X-16136Y44112D01*
X-16152Y44084D01*
X-16161Y44074D01*
X-16166Y44065D01*
X-16169Y44060D01*
Y44057D01*
X-16196Y43997D01*
X-16215Y43937D01*
X-16232Y43877D01*
X-16240Y43822D01*
X-16245Y43773D01*
X-16248Y43754D01*
X-16251Y43735D01*
Y43702D01*
X-16248Y43653D01*
X-16245Y43604D01*
X-16237Y43558D01*
X-16229Y43514D01*
X-16218Y43476D01*
X-16204Y43437D01*
X-16191Y43402D01*
X-16177Y43372D01*
X-16163Y43342D01*
X-16150Y43317D01*
X-16139Y43295D01*
X-16125Y43279D01*
X-16117Y43265D01*
X-16109Y43255D01*
X-16106Y43249D01*
X-16103Y43246D01*
X-16073Y43213D01*
X-16043Y43183D01*
X-15975Y43129D01*
X-15907Y43080D01*
X-15838Y43042D01*
X-15806Y43025D01*
X-15778Y43012D01*
X-15751Y43001D01*
X-15729Y42990D01*
X-15710Y42984D01*
X-15694Y42979D01*
X-15686Y42973D01*
X-15683D01*
X-15631Y42957D01*
X-15574Y42943D01*
X-15456Y42921D01*
X-15336Y42905D01*
X-15279Y42900D01*
X-15222Y42894D01*
X-15170Y42891D01*
X-15121Y42889D01*
X-15077Y42886D01*
X-15039D01*
X-15009Y42883D01*
X-16251D01*
D01*
X-13682D01*
Y44524D01*
D02*
G37*
G36*
Y41611D02*
D01*
Y40797D01*
X-13684Y40855D01*
X-13687Y40912D01*
X-13695Y40964D01*
X-13706Y41013D01*
X-13717Y41059D01*
X-13731Y41100D01*
X-13745Y41141D01*
X-13758Y41177D01*
X-13772Y41210D01*
X-13785Y41237D01*
X-13799Y41262D01*
X-13810Y41283D01*
X-13821Y41297D01*
X-13829Y41311D01*
X-13832Y41316D01*
X-13835Y41319D01*
X-13865Y41357D01*
X-13897Y41390D01*
X-13933Y41420D01*
X-13968Y41450D01*
X-14042Y41499D01*
X-14110Y41537D01*
X-14143Y41551D01*
X-14173Y41565D01*
X-14200Y41576D01*
X-14225Y41584D01*
X-14244Y41592D01*
X-14258Y41597D01*
X-14269Y41600D01*
X-14271D01*
X-14312Y41278D01*
X-14244Y41251D01*
X-14184Y41218D01*
X-14132Y41185D01*
X-14094Y41155D01*
X-14061Y41128D01*
X-14039Y41106D01*
X-14029Y41092D01*
X-14023Y41090D01*
Y41087D01*
X-13993Y41040D01*
X-13974Y40991D01*
X-13958Y40942D01*
X-13947Y40898D01*
X-13941Y40857D01*
X-13938Y40825D01*
X-13936Y40814D01*
Y40797D01*
X-13938Y40756D01*
X-13944Y40716D01*
X-13949Y40677D01*
X-13960Y40642D01*
X-13985Y40576D01*
X-14015Y40522D01*
X-14029Y40497D01*
X-14045Y40475D01*
X-14059Y40459D01*
X-14069Y40442D01*
X-14080Y40432D01*
X-14088Y40423D01*
X-14091Y40418D01*
X-14094Y40415D01*
X-14127Y40388D01*
X-14160Y40363D01*
X-14198Y40344D01*
X-14233Y40325D01*
X-14312Y40295D01*
X-14386Y40273D01*
X-14422Y40265D01*
X-14454Y40260D01*
X-14482Y40254D01*
X-14509Y40251D01*
X-14528Y40249D01*
X-14544Y40246D01*
X-14555D01*
X-14558D01*
Y41608D01*
X-14594Y41611D01*
X-14640D01*
X-14722Y41608D01*
X-14798Y41600D01*
X-14872Y41589D01*
X-14940Y41576D01*
X-15003Y41556D01*
X-15060Y41537D01*
X-15112Y41515D01*
X-15159Y41496D01*
X-15200Y41475D01*
X-15238Y41453D01*
X-15268Y41434D01*
X-15292Y41414D01*
X-15314Y41401D01*
X-15328Y41390D01*
X-15336Y41382D01*
X-15339Y41379D01*
X-15383Y41335D01*
X-15421Y41286D01*
X-15456Y41237D01*
X-15484Y41188D01*
X-15508Y41139D01*
X-15530Y41087D01*
X-15546Y41040D01*
X-15560Y40994D01*
X-15568Y40950D01*
X-15576Y40909D01*
X-15582Y40874D01*
X-15587Y40841D01*
Y40817D01*
X-15590Y40797D01*
Y40781D01*
X-15587Y40713D01*
X-15579Y40645D01*
X-15565Y40584D01*
X-15549Y40525D01*
X-15530Y40470D01*
X-15508Y40418D01*
X-15486Y40372D01*
X-15462Y40331D01*
X-15437Y40292D01*
X-15415Y40260D01*
X-15394Y40230D01*
X-15374Y40208D01*
X-15358Y40189D01*
X-15344Y40175D01*
X-15336Y40167D01*
X-15333Y40164D01*
X-15284Y40123D01*
X-15230Y40088D01*
X-15172Y40055D01*
X-15115Y40028D01*
X-15055Y40006D01*
X-14995Y39987D01*
X-14938Y39970D01*
X-14880Y39959D01*
X-14828Y39948D01*
X-14776Y39943D01*
X-14733Y39937D01*
X-14695Y39932D01*
X-14662D01*
X-14637Y39929D01*
X-15590D01*
D01*
X-13682D01*
Y41611D01*
D02*
G37*
G36*
X-14640Y39656D02*
X-14662D01*
X-14736Y39654D01*
X-14804Y39648D01*
X-14867Y39637D01*
X-14921Y39629D01*
X-14946Y39624D01*
X-14968Y39618D01*
X-14987Y39613D01*
X-15003Y39607D01*
X-15017Y39604D01*
X-15025Y39602D01*
X-15030Y39599D01*
X-15033D01*
X-15096Y39577D01*
X-15153Y39553D01*
X-15205Y39528D01*
X-15249Y39503D01*
X-15281Y39479D01*
X-15309Y39463D01*
X-15325Y39452D01*
X-15331Y39446D01*
X-15374Y39408D01*
X-15413Y39367D01*
X-15445Y39326D01*
X-15473Y39288D01*
X-15495Y39252D01*
X-15508Y39225D01*
X-15514Y39214D01*
X-15519Y39206D01*
X-15522Y39203D01*
Y39200D01*
X-15544Y39143D01*
X-15560Y39088D01*
X-15574Y39034D01*
X-15582Y38985D01*
X-15587Y38944D01*
Y38925D01*
X-15590Y38911D01*
Y38881D01*
X-15587Y38826D01*
X-15579Y38772D01*
X-15568Y38723D01*
X-15552Y38673D01*
X-15533Y38630D01*
X-15514Y38589D01*
X-15489Y38551D01*
X-15467Y38518D01*
X-15445Y38485D01*
X-15424Y38458D01*
X-15402Y38436D01*
X-15383Y38417D01*
X-15366Y38401D01*
X-15355Y38390D01*
X-15347Y38384D01*
X-15344Y38381D01*
X-16242D01*
Y38073D01*
X-13682D01*
Y38865D01*
X-13684Y38925D01*
X-13693Y38982D01*
X-13706Y39037D01*
X-13723Y39088D01*
X-13742Y39138D01*
X-13761Y39184D01*
X-13785Y39225D01*
X-13810Y39266D01*
X-13832Y39299D01*
X-13857Y39331D01*
X-13876Y39359D01*
X-13897Y39381D01*
X-13911Y39397D01*
X-13925Y39411D01*
X-13933Y39419D01*
X-13936Y39421D01*
X-13987Y39463D01*
X-14039Y39498D01*
X-14097Y39531D01*
X-14157Y39558D01*
X-14217Y39580D01*
X-14280Y39599D01*
X-14337Y39615D01*
X-14394Y39626D01*
X-14449Y39637D01*
X-14501Y39643D01*
X-14544Y39648D01*
X-14585Y39654D01*
X-14618D01*
X-14640Y39656D01*
D02*
G37*
G36*
X-13723Y37590D02*
X-15549D01*
Y36110D01*
X-13682D01*
X-14348D01*
X-14288Y36113D01*
X-14239Y36116D01*
X-14198Y36118D01*
X-14168Y36121D01*
X-14143Y36124D01*
X-14132Y36126D01*
X-14127D01*
X-14078Y36140D01*
X-14034Y36154D01*
X-13996Y36170D01*
X-13963Y36187D01*
X-13936Y36200D01*
X-13914Y36211D01*
X-13903Y36219D01*
X-13897Y36222D01*
X-13865Y36249D01*
X-13835Y36282D01*
X-13807Y36318D01*
X-13785Y36350D01*
X-13766Y36383D01*
X-13753Y36408D01*
X-13745Y36424D01*
X-13742Y36427D01*
Y36430D01*
X-13723Y36484D01*
X-13706Y36536D01*
X-13695Y36588D01*
X-13690Y36634D01*
X-13684Y36675D01*
X-13682Y36705D01*
Y36733D01*
X-13684Y36801D01*
X-13695Y36863D01*
X-13709Y36921D01*
X-13731Y36978D01*
X-13753Y37030D01*
X-13780Y37077D01*
X-13807Y37120D01*
X-13837Y37161D01*
X-13865Y37197D01*
X-13892Y37227D01*
X-13919Y37254D01*
X-13941Y37276D01*
X-13963Y37292D01*
X-13977Y37303D01*
X-13987Y37311D01*
X-13990Y37314D01*
X-13723D01*
Y37590D01*
D02*
G37*
G36*
X-14348Y35853D02*
X-14351D01*
X-14392Y35550D01*
X-14348Y35542D01*
X-14310Y35534D01*
X-14271Y35523D01*
X-14239Y35512D01*
X-14206Y35498D01*
X-14179Y35488D01*
X-14154Y35474D01*
X-14130Y35460D01*
X-14110Y35447D01*
X-14094Y35436D01*
X-14067Y35414D01*
X-14050Y35400D01*
X-14048Y35397D01*
X-14045Y35395D01*
X-14009Y35346D01*
X-13982Y35296D01*
X-13963Y35245D01*
X-13949Y35198D01*
X-13941Y35155D01*
X-13938Y35138D01*
Y35122D01*
X-13936Y35108D01*
Y35092D01*
X-13938Y35051D01*
X-13944Y35010D01*
X-13952Y34974D01*
X-13963Y34939D01*
X-13987Y34876D01*
X-14020Y34822D01*
X-14034Y34800D01*
X-14050Y34780D01*
X-14064Y34764D01*
X-14078Y34748D01*
X-14086Y34737D01*
X-14094Y34729D01*
X-14099Y34726D01*
X-14102Y34723D01*
X-14135Y34699D01*
X-14173Y34677D01*
X-14214Y34658D01*
X-14255Y34644D01*
X-14345Y34617D01*
X-14433Y34600D01*
X-14473Y34595D01*
X-14512Y34592D01*
X-14547Y34589D01*
X-14577Y34587D01*
X-14602Y34584D01*
X-14621D01*
X-14635D01*
X-14637D01*
X-14703Y34587D01*
X-14766Y34589D01*
X-14820Y34598D01*
X-14872Y34606D01*
X-14921Y34617D01*
X-14965Y34630D01*
X-15003Y34644D01*
X-15039Y34658D01*
X-15069Y34669D01*
X-15096Y34682D01*
X-15118Y34696D01*
X-15134Y34707D01*
X-15150Y34715D01*
X-15159Y34723D01*
X-15164Y34726D01*
X-15167Y34729D01*
X-15197Y34756D01*
X-15222Y34786D01*
X-15246Y34819D01*
X-15265Y34849D01*
X-15281Y34881D01*
X-15295Y34912D01*
X-15314Y34972D01*
X-15328Y35026D01*
X-15331Y35048D01*
X-15333Y35070D01*
X-15336Y35086D01*
Y35108D01*
X-15333Y35163D01*
X-15323Y35215D01*
X-15306Y35258D01*
X-15290Y35296D01*
X-15271Y35326D01*
X-15257Y35351D01*
X-15246Y35365D01*
X-15241Y35370D01*
X-15202Y35408D01*
X-15159Y35441D01*
X-15112Y35466D01*
X-15069Y35488D01*
X-15028Y35504D01*
X-14995Y35515D01*
X-14981Y35518D01*
X-14973Y35520D01*
X-14968Y35523D01*
X-14965D01*
X-15011Y35823D01*
X-15060Y35813D01*
X-15110Y35796D01*
X-15153Y35780D01*
X-15194Y35763D01*
X-15232Y35744D01*
X-15268Y35722D01*
X-15298Y35703D01*
X-15328Y35681D01*
X-15352Y35662D01*
X-15374Y35643D01*
X-15394Y35627D01*
X-15410Y35610D01*
X-15421Y35599D01*
X-15429Y35589D01*
X-15434Y35583D01*
X-15437Y35580D01*
X-15464Y35545D01*
X-15489Y35507D01*
X-15508Y35466D01*
X-15525Y35425D01*
X-15552Y35343D01*
X-15571Y35267D01*
X-15576Y35231D01*
X-15582Y35198D01*
X-15585Y35168D01*
X-15587Y35144D01*
X-15590Y35124D01*
Y35094D01*
X-15585Y35010D01*
X-15574Y34928D01*
X-15554Y34854D01*
X-15544Y34822D01*
X-15535Y34789D01*
X-15525Y34761D01*
X-15514Y34737D01*
X-15505Y34715D01*
X-15495Y34696D01*
X-15489Y34679D01*
X-15484Y34669D01*
X-15478Y34663D01*
Y34660D01*
X-15432Y34589D01*
X-15380Y34529D01*
X-15323Y34477D01*
X-15271Y34437D01*
X-15222Y34404D01*
X-15200Y34393D01*
X-15180Y34382D01*
X-15167Y34374D01*
X-15156Y34368D01*
X-15148Y34363D01*
X-15145D01*
X-15060Y34330D01*
X-14970Y34308D01*
X-14883Y34292D01*
X-14804Y34278D01*
X-14766Y34275D01*
X-14733Y34273D01*
X-14703Y34270D01*
X-14675D01*
X-14656Y34267D01*
X-15590D01*
Y35094D01*
Y34267D01*
D01*
X-13682D01*
X-14626D01*
X-14544Y34270D01*
X-14465Y34278D01*
X-14392Y34289D01*
X-14323Y34303D01*
X-14261Y34319D01*
X-14203Y34338D01*
X-14151Y34360D01*
X-14105Y34382D01*
X-14064Y34401D01*
X-14026Y34423D01*
X-13996Y34442D01*
X-13971Y34458D01*
X-13949Y34472D01*
X-13936Y34483D01*
X-13927Y34491D01*
X-13925Y34494D01*
X-13881Y34538D01*
X-13846Y34584D01*
X-13813Y34633D01*
X-13785Y34682D01*
X-13761Y34734D01*
X-13742Y34783D01*
X-13725Y34832D01*
X-13712Y34879D01*
X-13701Y34923D01*
X-13695Y34963D01*
X-13690Y35002D01*
X-13684Y35032D01*
Y35059D01*
X-13682Y35078D01*
Y35094D01*
X-13684Y35149D01*
X-13690Y35201D01*
X-13698Y35250D01*
X-13709Y35299D01*
X-13723Y35343D01*
X-13739Y35384D01*
X-13753Y35422D01*
X-13772Y35458D01*
X-13788Y35488D01*
X-13802Y35518D01*
X-13818Y35539D01*
X-13832Y35561D01*
X-13843Y35575D01*
X-13851Y35589D01*
X-13857Y35594D01*
X-13859Y35597D01*
X-13895Y35632D01*
X-13930Y35668D01*
X-13971Y35698D01*
X-14012Y35722D01*
X-14053Y35747D01*
X-14094Y35769D01*
X-14170Y35802D01*
X-14209Y35815D01*
X-14241Y35826D01*
X-14271Y35834D01*
X-14299Y35842D01*
X-14321Y35848D01*
X-14337Y35851D01*
X-14348Y35853D01*
D02*
G37*
G36*
X-13723Y33940D02*
X-14020D01*
Y32697D01*
X-14080Y32741D01*
X-14108Y32763D01*
X-14132Y32785D01*
X-14154Y32804D01*
X-14170Y32818D01*
X-14181Y32829D01*
X-14184Y32831D01*
X-14200Y32848D01*
X-14222Y32869D01*
X-14244Y32894D01*
X-14269Y32921D01*
X-14323Y32979D01*
X-14375Y33039D01*
X-14424Y33096D01*
X-14446Y33121D01*
X-14465Y33145D01*
X-14482Y33162D01*
X-14493Y33178D01*
X-14501Y33186D01*
X-14503Y33189D01*
X-14555Y33249D01*
X-14604Y33306D01*
X-14648Y33358D01*
X-14692Y33405D01*
X-14730Y33448D01*
X-14768Y33487D01*
X-14801Y33522D01*
X-14831Y33555D01*
X-14856Y33582D01*
X-14880Y33604D01*
X-14899Y33623D01*
X-14916Y33639D01*
X-14929Y33650D01*
X-14938Y33661D01*
X-14943Y33664D01*
X-14946Y33667D01*
X-15006Y33719D01*
X-15060Y33759D01*
X-15112Y33795D01*
X-15159Y33825D01*
X-15197Y33847D01*
X-15227Y33863D01*
X-15238Y33869D01*
X-15246Y33871D01*
X-15249Y33874D01*
X-15251D01*
X-15306Y33896D01*
X-15361Y33910D01*
X-15410Y33921D01*
X-15456Y33929D01*
X-15495Y33934D01*
X-15525Y33937D01*
X-15535D01*
X-15544D01*
X-15546D01*
X-15549D01*
X-15604Y33934D01*
X-15655Y33929D01*
X-15705Y33918D01*
X-15754Y33904D01*
X-15798Y33888D01*
X-15838Y33869D01*
X-15877Y33850D01*
X-15909Y33830D01*
X-15942Y33811D01*
X-15969Y33792D01*
X-15994Y33773D01*
X-16013Y33757D01*
X-16027Y33743D01*
X-16040Y33732D01*
X-16046Y33727D01*
X-16049Y33724D01*
X-16084Y33683D01*
X-16114Y33639D01*
X-16141Y33593D01*
X-16166Y33544D01*
X-16185Y33497D01*
X-16202Y33448D01*
X-16215Y33402D01*
X-16226Y33356D01*
X-16234Y33314D01*
X-16240Y33274D01*
X-16245Y33238D01*
X-16248Y33208D01*
X-16251Y33184D01*
Y33148D01*
X-16248Y33083D01*
X-16242Y33020D01*
X-16234Y32962D01*
X-16221Y32908D01*
X-16207Y32856D01*
X-16191Y32809D01*
X-16174Y32766D01*
X-16158Y32728D01*
X-16139Y32692D01*
X-16122Y32662D01*
X-16106Y32635D01*
X-16092Y32613D01*
X-16079Y32596D01*
X-16071Y32586D01*
X-16065Y32577D01*
X-16062Y32575D01*
X-16027Y32537D01*
X-15986Y32504D01*
X-15945Y32474D01*
X-15899Y32446D01*
X-15855Y32425D01*
X-15811Y32403D01*
X-15765Y32386D01*
X-15724Y32373D01*
X-15683Y32359D01*
X-15645Y32351D01*
X-15609Y32343D01*
X-15579Y32337D01*
X-15554Y32334D01*
X-15538Y32332D01*
X-15527Y32329D01*
X-15522D01*
X-15489Y32646D01*
X-15533Y32648D01*
X-15574Y32651D01*
X-15645Y32667D01*
X-15710Y32689D01*
X-15737Y32700D01*
X-15762Y32714D01*
X-15784Y32725D01*
X-15803Y32739D01*
X-15819Y32749D01*
X-15833Y32758D01*
X-15844Y32768D01*
X-15852Y32774D01*
X-15855Y32777D01*
X-15858Y32779D01*
X-15882Y32807D01*
X-15904Y32834D01*
X-15920Y32864D01*
X-15937Y32894D01*
X-15961Y32954D01*
X-15978Y33011D01*
X-15986Y33061D01*
X-15991Y33083D01*
Y33102D01*
X-15994Y33118D01*
Y33178D01*
X-15989Y33216D01*
X-15975Y33285D01*
X-15953Y33342D01*
X-15931Y33394D01*
X-15907Y33432D01*
X-15896Y33448D01*
X-15885Y33462D01*
X-15877Y33473D01*
X-15871Y33481D01*
X-15868Y33484D01*
X-15866Y33487D01*
X-15841Y33511D01*
X-15817Y33530D01*
X-15792Y33549D01*
X-15765Y33563D01*
X-15713Y33588D01*
X-15664Y33604D01*
X-15623Y33612D01*
X-15604Y33617D01*
X-15587D01*
X-15576Y33620D01*
X-15565D01*
X-15560D01*
X-15557D01*
X-15525Y33617D01*
X-15492Y33615D01*
X-15426Y33598D01*
X-15363Y33574D01*
X-15306Y33547D01*
X-15257Y33519D01*
X-15238Y33508D01*
X-15219Y33495D01*
X-15205Y33487D01*
X-15194Y33478D01*
X-15189Y33476D01*
X-15186Y33473D01*
X-15148Y33443D01*
X-15107Y33407D01*
X-15063Y33366D01*
X-15020Y33323D01*
X-14929Y33233D01*
X-14845Y33140D01*
X-14804Y33096D01*
X-14768Y33052D01*
X-14736Y33014D01*
X-14708Y32982D01*
X-14684Y32954D01*
X-14667Y32935D01*
X-14654Y32921D01*
X-14651Y32916D01*
X-14610Y32867D01*
X-14572Y32823D01*
X-14536Y32779D01*
X-14501Y32741D01*
X-14468Y32703D01*
X-14435Y32670D01*
X-14408Y32640D01*
X-14381Y32613D01*
X-14356Y32588D01*
X-14334Y32569D01*
X-14315Y32550D01*
X-14301Y32537D01*
X-14288Y32523D01*
X-14280Y32515D01*
X-14274Y32512D01*
X-14271Y32509D01*
X-14211Y32460D01*
X-14151Y32419D01*
X-14094Y32384D01*
X-14042Y32356D01*
X-13998Y32334D01*
X-13979Y32326D01*
X-13966Y32318D01*
X-13952Y32313D01*
X-13944Y32310D01*
X-13938Y32307D01*
X-13936D01*
X-13897Y32293D01*
X-13859Y32285D01*
X-13824Y32277D01*
X-13791Y32274D01*
X-13764Y32272D01*
X-16251D01*
D01*
X-13723D01*
Y33940D01*
D02*
G37*
G36*
X-14231Y32034D02*
X-14258D01*
X-14315Y32031D01*
X-14367Y32023D01*
X-14411Y32010D01*
X-14449Y31996D01*
X-14482Y31982D01*
X-14503Y31969D01*
X-14517Y31960D01*
X-14523Y31958D01*
X-14561Y31928D01*
X-14594Y31895D01*
X-14621Y31859D01*
X-14643Y31827D01*
X-14662Y31799D01*
X-14673Y31775D01*
X-14681Y31758D01*
X-14684Y31756D01*
Y31753D01*
X-14695Y31726D01*
X-14706Y31696D01*
X-14719Y31663D01*
X-14730Y31627D01*
X-14755Y31554D01*
X-14776Y31477D01*
X-14787Y31442D01*
X-14798Y31406D01*
X-14807Y31376D01*
X-14815Y31352D01*
X-14820Y31327D01*
X-14826Y31311D01*
X-14828Y31300D01*
Y31297D01*
X-14839Y31256D01*
X-14850Y31221D01*
X-14858Y31188D01*
X-14867Y31158D01*
X-14875Y31133D01*
X-14880Y31111D01*
X-14886Y31092D01*
X-14891Y31076D01*
X-14899Y31051D01*
X-14905Y31035D01*
X-14908Y31027D01*
Y31024D01*
X-14921Y30997D01*
X-14935Y30972D01*
X-14949Y30950D01*
X-14962Y30934D01*
X-14973Y30920D01*
X-14981Y30912D01*
X-14987Y30907D01*
X-14989Y30904D01*
X-15009Y30893D01*
X-15028Y30885D01*
X-15063Y30874D01*
X-15077Y30871D01*
X-15088Y30868D01*
X-15096D01*
X-15099D01*
X-15134Y30871D01*
X-15164Y30882D01*
X-15194Y30896D01*
X-15219Y30915D01*
X-15238Y30931D01*
X-15251Y30945D01*
X-15262Y30956D01*
X-15265Y30959D01*
X-15279Y30978D01*
X-15290Y30997D01*
X-15306Y31043D01*
X-15320Y31095D01*
X-15328Y31144D01*
X-15333Y31191D01*
Y31210D01*
X-15336Y31226D01*
Y31262D01*
X-15333Y31327D01*
X-15323Y31382D01*
X-15312Y31431D01*
X-15295Y31472D01*
X-15281Y31502D01*
X-15268Y31524D01*
X-15257Y31537D01*
X-15254Y31543D01*
X-15222Y31576D01*
X-15186Y31603D01*
X-15150Y31625D01*
X-15115Y31641D01*
X-15085Y31652D01*
X-15058Y31657D01*
X-15041Y31663D01*
X-15039D01*
X-15036D01*
X-15077Y31966D01*
X-15140Y31952D01*
X-15194Y31936D01*
X-15243Y31920D01*
X-15284Y31900D01*
X-15314Y31884D01*
X-15339Y31870D01*
X-15352Y31859D01*
X-15358Y31857D01*
X-15396Y31824D01*
X-15429Y31786D01*
X-15459Y31747D01*
X-15484Y31709D01*
X-15503Y31671D01*
X-15516Y31644D01*
X-15522Y31633D01*
X-15525Y31625D01*
X-15527Y31619D01*
Y31617D01*
X-15549Y31554D01*
X-15563Y31491D01*
X-15574Y31425D01*
X-15582Y31368D01*
X-15587Y31316D01*
Y31294D01*
X-15590Y31275D01*
Y32034D01*
D01*
Y30516D01*
X-13682D01*
X-15590D01*
Y31240D01*
X-15587Y31188D01*
X-15585Y31139D01*
X-15579Y31092D01*
X-15571Y31054D01*
X-15563Y31019D01*
X-15557Y30994D01*
X-15554Y30978D01*
X-15552Y30975D01*
Y30972D01*
X-15538Y30929D01*
X-15522Y30887D01*
X-15505Y30855D01*
X-15492Y30828D01*
X-15481Y30806D01*
X-15470Y30789D01*
X-15464Y30778D01*
X-15462Y30776D01*
X-15434Y30740D01*
X-15407Y30710D01*
X-15377Y30683D01*
X-15350Y30664D01*
X-15325Y30645D01*
X-15306Y30634D01*
X-15295Y30626D01*
X-15290Y30623D01*
X-15251Y30604D01*
X-15211Y30590D01*
X-15172Y30582D01*
X-15137Y30576D01*
X-15107Y30571D01*
X-15085Y30568D01*
X-15069D01*
X-15066D01*
X-15063D01*
X-15014Y30571D01*
X-14968Y30579D01*
X-14927Y30590D01*
X-14891Y30601D01*
X-14861Y30612D01*
X-14837Y30623D01*
X-14823Y30631D01*
X-14817Y30634D01*
X-14779Y30661D01*
X-14744Y30694D01*
X-14716Y30727D01*
X-14692Y30759D01*
X-14670Y30789D01*
X-14656Y30811D01*
X-14648Y30828D01*
X-14645Y30830D01*
Y30833D01*
X-14635Y30860D01*
X-14621Y30893D01*
X-14607Y30926D01*
X-14596Y30964D01*
X-14572Y31043D01*
X-14547Y31120D01*
X-14536Y31158D01*
X-14525Y31193D01*
X-14517Y31226D01*
X-14509Y31253D01*
X-14503Y31275D01*
X-14498Y31294D01*
X-14495Y31305D01*
Y31308D01*
X-14484Y31352D01*
X-14473Y31393D01*
X-14462Y31431D01*
X-14452Y31464D01*
X-14443Y31494D01*
X-14435Y31518D01*
X-14427Y31540D01*
X-14419Y31562D01*
X-14413Y31578D01*
X-14408Y31592D01*
X-14400Y31611D01*
X-14394Y31622D01*
X-14392Y31625D01*
X-14367Y31655D01*
X-14340Y31679D01*
X-14312Y31696D01*
X-14285Y31707D01*
X-14263Y31712D01*
X-14241Y31718D01*
X-14231D01*
X-14225D01*
X-14181Y31712D01*
X-14143Y31701D01*
X-14108Y31685D01*
X-14078Y31666D01*
X-14053Y31646D01*
X-14037Y31630D01*
X-14023Y31619D01*
X-14020Y31614D01*
X-13993Y31570D01*
X-13971Y31521D01*
X-13958Y31466D01*
X-13947Y31414D01*
X-13941Y31368D01*
X-13938Y31349D01*
Y31330D01*
X-13936Y31316D01*
Y31294D01*
X-13941Y31221D01*
X-13952Y31155D01*
X-13966Y31098D01*
X-13985Y31051D01*
X-14001Y31013D01*
X-14017Y30986D01*
X-14029Y30970D01*
X-14031Y30967D01*
Y30964D01*
X-14072Y30923D01*
X-14116Y30893D01*
X-14165Y30868D01*
X-14211Y30849D01*
X-14252Y30836D01*
X-14269Y30830D01*
X-14285Y30828D01*
X-14299Y30825D01*
X-14307D01*
X-14312Y30822D01*
X-14315D01*
X-14266Y30516D01*
X-14214Y30527D01*
X-14162Y30541D01*
X-14116Y30557D01*
X-14075Y30574D01*
X-14034Y30593D01*
X-13998Y30612D01*
X-13966Y30631D01*
X-13936Y30653D01*
X-13911Y30672D01*
X-13889Y30691D01*
X-13870Y30707D01*
X-13854Y30721D01*
X-13843Y30735D01*
X-13835Y30743D01*
X-13829Y30748D01*
X-13826Y30751D01*
X-13802Y30789D01*
X-13780Y30828D01*
X-13758Y30871D01*
X-13742Y30915D01*
X-13717Y31008D01*
X-13701Y31095D01*
X-13693Y31136D01*
X-13690Y31174D01*
X-13687Y31210D01*
X-13684Y31237D01*
X-13682Y31262D01*
Y31297D01*
X-13684Y31376D01*
X-13693Y31447D01*
X-13706Y31513D01*
X-13720Y31570D01*
X-13725Y31595D01*
X-13731Y31617D01*
X-13739Y31636D01*
X-13745Y31652D01*
X-13750Y31666D01*
X-13753Y31674D01*
X-13756Y31679D01*
Y31682D01*
X-13785Y31742D01*
X-13818Y31794D01*
X-13854Y31838D01*
X-13889Y31876D01*
X-13919Y31903D01*
X-13944Y31925D01*
X-13960Y31936D01*
X-13963Y31941D01*
X-13966D01*
X-14017Y31971D01*
X-14069Y31996D01*
X-14119Y32012D01*
X-14162Y32023D01*
X-14200Y32029D01*
X-14231Y32034D01*
D02*
G37*
%LPD*%
G36*
X-14853Y51054D02*
X-14752Y51051D01*
X-14659Y51043D01*
X-14574Y51035D01*
X-14498Y51024D01*
X-14433Y51010D01*
X-14372Y50997D01*
X-14321Y50983D01*
X-14277Y50969D01*
X-14239Y50956D01*
X-14206Y50945D01*
X-14181Y50931D01*
X-14162Y50923D01*
X-14151Y50915D01*
X-14143Y50912D01*
X-14140Y50909D01*
X-14105Y50882D01*
X-14072Y50852D01*
X-14045Y50822D01*
X-14023Y50792D01*
X-14001Y50762D01*
X-13985Y50732D01*
X-13971Y50705D01*
X-13960Y50677D01*
X-13947Y50628D01*
X-13941Y50606D01*
X-13938Y50587D01*
Y50574D01*
X-13936Y50560D01*
Y50552D01*
X-13938Y50513D01*
X-13944Y50475D01*
X-13955Y50440D01*
X-13968Y50407D01*
X-13998Y50344D01*
X-14037Y50292D01*
X-14075Y50251D01*
X-14091Y50235D01*
X-14105Y50221D01*
X-14119Y50208D01*
X-14130Y50200D01*
X-14135Y50197D01*
X-14138Y50194D01*
X-14181Y50169D01*
X-14233Y50148D01*
X-14290Y50126D01*
X-14353Y50109D01*
X-14422Y50096D01*
X-14490Y50085D01*
X-14629Y50068D01*
X-14695Y50060D01*
X-14757Y50058D01*
X-14815Y50055D01*
X-14864Y50052D01*
X-14905Y50049D01*
X-14924D01*
X-14938D01*
X-14949D01*
X-14957D01*
X-14962D01*
X-14965D01*
X-15077Y50052D01*
X-15178Y50058D01*
X-15273Y50063D01*
X-15358Y50074D01*
X-15434Y50085D01*
X-15505Y50099D01*
X-15565Y50115D01*
X-15620Y50129D01*
X-15669Y50142D01*
X-15707Y50159D01*
X-15740Y50172D01*
X-15767Y50183D01*
X-15789Y50194D01*
X-15803Y50202D01*
X-15811Y50205D01*
X-15814Y50208D01*
X-15847Y50232D01*
X-15874Y50260D01*
X-15899Y50287D01*
X-15918Y50314D01*
X-15937Y50344D01*
X-15950Y50372D01*
X-15972Y50426D01*
X-15986Y50475D01*
X-15989Y50497D01*
X-15991Y50513D01*
X-15994Y50530D01*
Y50549D01*
X-15991Y50590D01*
X-15986Y50625D01*
X-15975Y50664D01*
X-15961Y50696D01*
X-15929Y50759D01*
X-15893Y50811D01*
X-15874Y50833D01*
X-15855Y50852D01*
X-15836Y50868D01*
X-15822Y50885D01*
X-15808Y50896D01*
X-15798Y50904D01*
X-15792Y50907D01*
X-15789Y50909D01*
X-15746Y50937D01*
X-15697Y50959D01*
X-15636Y50978D01*
X-15574Y50994D01*
X-15508Y51008D01*
X-15440Y51021D01*
X-15301Y51038D01*
X-15235Y51046D01*
X-15172Y51049D01*
X-15115Y51051D01*
X-15066Y51054D01*
X-15022Y51057D01*
X-15006D01*
X-14992D01*
X-14981D01*
X-14973D01*
X-14968D01*
X-14965D01*
X-14853Y51054D01*
D02*
G37*
G36*
X-13682Y49733D02*
X-14965D01*
X-14837Y49736D01*
X-14716Y49744D01*
X-14607Y49755D01*
X-14506Y49771D01*
X-14413Y49790D01*
X-14329Y49812D01*
X-14255Y49834D01*
X-14187Y49858D01*
X-14130Y49880D01*
X-14078Y49902D01*
X-14037Y49924D01*
X-14001Y49943D01*
X-13974Y49959D01*
X-13955Y49970D01*
X-13944Y49978D01*
X-13941Y49981D01*
X-13895Y50022D01*
X-13857Y50066D01*
X-13821Y50112D01*
X-13791Y50159D01*
X-13766Y50205D01*
X-13745Y50254D01*
X-13728Y50301D01*
X-13714Y50344D01*
X-13704Y50388D01*
X-13695Y50426D01*
X-13690Y50462D01*
X-13687Y50492D01*
X-13684Y50516D01*
X-13682Y50535D01*
Y49733D01*
D02*
G37*
G36*
X-16248Y50503D02*
X-16245Y50454D01*
X-16237Y50407D01*
X-16229Y50363D01*
X-16218Y50325D01*
X-16204Y50287D01*
X-16191Y50251D01*
X-16177Y50221D01*
X-16163Y50191D01*
X-16150Y50167D01*
X-16139Y50145D01*
X-16125Y50129D01*
X-16117Y50115D01*
X-16109Y50104D01*
X-16106Y50099D01*
X-16103Y50096D01*
X-16073Y50063D01*
X-16043Y50033D01*
X-15975Y49978D01*
X-15907Y49929D01*
X-15838Y49891D01*
X-15806Y49875D01*
X-15778Y49861D01*
X-15751Y49850D01*
X-15729Y49839D01*
X-15710Y49834D01*
X-15694Y49828D01*
X-15686Y49823D01*
X-15683D01*
X-15631Y49806D01*
X-15574Y49793D01*
X-15456Y49771D01*
X-15336Y49755D01*
X-15279Y49749D01*
X-15222Y49744D01*
X-15170Y49741D01*
X-15121Y49738D01*
X-15077Y49736D01*
X-15039D01*
X-15009Y49733D01*
X-16251D01*
Y50552D01*
X-16248Y50503D01*
D02*
G37*
G36*
X-14473Y46170D02*
X-14427Y46167D01*
X-14381Y46159D01*
X-14340Y46151D01*
X-14301Y46140D01*
X-14266Y46129D01*
X-14233Y46115D01*
X-14206Y46102D01*
X-14179Y46088D01*
X-14157Y46075D01*
X-14138Y46064D01*
X-14121Y46053D01*
X-14108Y46044D01*
X-14099Y46036D01*
X-14094Y46034D01*
X-14091Y46031D01*
X-14064Y46004D01*
X-14039Y45976D01*
X-14020Y45949D01*
X-14001Y45919D01*
X-13987Y45892D01*
X-13974Y45862D01*
X-13955Y45810D01*
X-13944Y45763D01*
X-13941Y45744D01*
X-13938Y45725D01*
X-13936Y45711D01*
Y45692D01*
X-13938Y45643D01*
X-13947Y45594D01*
X-13960Y45550D01*
X-13974Y45512D01*
X-13987Y45479D01*
X-14001Y45455D01*
X-14009Y45439D01*
X-14012Y45436D01*
Y45433D01*
X-14045Y45389D01*
X-14080Y45354D01*
X-14116Y45321D01*
X-14151Y45294D01*
X-14184Y45272D01*
X-14209Y45258D01*
X-14220Y45253D01*
X-14228Y45247D01*
X-14231Y45245D01*
X-14233D01*
X-14288Y45223D01*
X-14342Y45206D01*
X-14394Y45195D01*
X-14441Y45187D01*
X-14482Y45182D01*
X-14498D01*
X-14512Y45179D01*
X-14523D01*
X-14531D01*
X-14536D01*
X-14539D01*
X-14583Y45182D01*
X-14626Y45185D01*
X-14703Y45201D01*
X-14771Y45226D01*
X-14801Y45239D01*
X-14826Y45253D01*
X-14850Y45264D01*
X-14872Y45277D01*
X-14891Y45291D01*
X-14905Y45302D01*
X-14916Y45310D01*
X-14924Y45318D01*
X-14929Y45321D01*
X-14932Y45324D01*
X-14959Y45351D01*
X-14984Y45381D01*
X-15003Y45411D01*
X-15020Y45441D01*
X-15047Y45501D01*
X-15066Y45559D01*
X-15077Y45608D01*
X-15079Y45630D01*
X-15082Y45646D01*
X-15085Y45662D01*
Y45681D01*
X-15082Y45720D01*
X-15079Y45758D01*
X-15060Y45826D01*
X-15036Y45886D01*
X-15009Y45938D01*
X-14981Y45979D01*
X-14968Y45995D01*
X-14957Y46009D01*
X-14946Y46020D01*
X-14938Y46028D01*
X-14935Y46031D01*
X-14932Y46034D01*
X-14902Y46058D01*
X-14872Y46080D01*
X-14839Y46099D01*
X-14804Y46115D01*
X-14736Y46140D01*
X-14670Y46156D01*
X-14640Y46162D01*
X-14613Y46165D01*
X-14588Y46167D01*
X-14566Y46170D01*
X-14547Y46173D01*
X-14534D01*
X-14525D01*
X-14523D01*
X-14473Y46170D01*
D02*
G37*
G36*
X-13682Y44824D02*
X-14899D01*
X-14782Y44827D01*
X-14673Y44835D01*
X-14572Y44846D01*
X-14479Y44862D01*
X-14394Y44881D01*
X-14318Y44901D01*
X-14250Y44923D01*
X-14189Y44947D01*
X-14135Y44969D01*
X-14088Y44991D01*
X-14050Y45010D01*
X-14020Y45029D01*
X-13996Y45045D01*
X-13979Y45056D01*
X-13968Y45064D01*
X-13966Y45067D01*
X-13916Y45114D01*
X-13873Y45165D01*
X-13835Y45215D01*
X-13802Y45269D01*
X-13775Y45321D01*
X-13750Y45373D01*
X-13734Y45425D01*
X-13717Y45474D01*
X-13706Y45520D01*
X-13698Y45561D01*
X-13690Y45599D01*
X-13687Y45632D01*
X-13684Y45660D01*
X-13682Y45681D01*
Y44824D01*
D02*
G37*
G36*
X-14853Y44205D02*
X-14752Y44202D01*
X-14659Y44194D01*
X-14574Y44185D01*
X-14498Y44175D01*
X-14433Y44161D01*
X-14372Y44147D01*
X-14321Y44133D01*
X-14277Y44120D01*
X-14239Y44106D01*
X-14206Y44095D01*
X-14181Y44082D01*
X-14162Y44074D01*
X-14151Y44065D01*
X-14143Y44063D01*
X-14140Y44060D01*
X-14105Y44032D01*
X-14072Y44003D01*
X-14045Y43972D01*
X-14023Y43942D01*
X-14001Y43912D01*
X-13985Y43882D01*
X-13971Y43855D01*
X-13960Y43828D01*
X-13947Y43779D01*
X-13941Y43757D01*
X-13938Y43738D01*
Y43724D01*
X-13936Y43710D01*
Y43702D01*
X-13938Y43664D01*
X-13944Y43626D01*
X-13955Y43590D01*
X-13968Y43558D01*
X-13998Y43495D01*
X-14037Y43443D01*
X-14075Y43402D01*
X-14091Y43385D01*
X-14105Y43372D01*
X-14119Y43358D01*
X-14130Y43350D01*
X-14135Y43347D01*
X-14138Y43345D01*
X-14181Y43320D01*
X-14233Y43298D01*
X-14290Y43276D01*
X-14353Y43260D01*
X-14422Y43246D01*
X-14490Y43235D01*
X-14629Y43219D01*
X-14695Y43211D01*
X-14757Y43208D01*
X-14815Y43205D01*
X-14864Y43203D01*
X-14905Y43200D01*
X-14924D01*
X-14938D01*
X-14949D01*
X-14957D01*
X-14962D01*
X-14965D01*
X-15077Y43203D01*
X-15178Y43208D01*
X-15273Y43213D01*
X-15358Y43224D01*
X-15434Y43235D01*
X-15505Y43249D01*
X-15565Y43265D01*
X-15620Y43279D01*
X-15669Y43293D01*
X-15707Y43309D01*
X-15740Y43323D01*
X-15767Y43334D01*
X-15789Y43345D01*
X-15803Y43353D01*
X-15811Y43356D01*
X-15814Y43358D01*
X-15847Y43383D01*
X-15874Y43410D01*
X-15899Y43437D01*
X-15918Y43465D01*
X-15937Y43495D01*
X-15950Y43522D01*
X-15972Y43577D01*
X-15986Y43626D01*
X-15989Y43648D01*
X-15991Y43664D01*
X-15994Y43680D01*
Y43699D01*
X-15991Y43740D01*
X-15986Y43776D01*
X-15975Y43814D01*
X-15961Y43847D01*
X-15929Y43910D01*
X-15893Y43962D01*
X-15874Y43983D01*
X-15855Y44003D01*
X-15836Y44019D01*
X-15822Y44035D01*
X-15808Y44046D01*
X-15798Y44054D01*
X-15792Y44057D01*
X-15789Y44060D01*
X-15746Y44087D01*
X-15697Y44109D01*
X-15636Y44128D01*
X-15574Y44144D01*
X-15508Y44158D01*
X-15440Y44172D01*
X-15301Y44188D01*
X-15235Y44196D01*
X-15172Y44199D01*
X-15115Y44202D01*
X-15066Y44205D01*
X-15022Y44207D01*
X-15006D01*
X-14992D01*
X-14981D01*
X-14973D01*
X-14968D01*
X-14965D01*
X-14853Y44205D01*
D02*
G37*
G36*
X-13682Y42883D02*
X-14965D01*
X-14837Y42886D01*
X-14716Y42894D01*
X-14607Y42905D01*
X-14506Y42921D01*
X-14413Y42941D01*
X-14329Y42962D01*
X-14255Y42984D01*
X-14187Y43009D01*
X-14130Y43031D01*
X-14078Y43052D01*
X-14037Y43074D01*
X-14001Y43093D01*
X-13974Y43110D01*
X-13955Y43121D01*
X-13944Y43129D01*
X-13941Y43132D01*
X-13895Y43173D01*
X-13857Y43216D01*
X-13821Y43263D01*
X-13791Y43309D01*
X-13766Y43356D01*
X-13745Y43405D01*
X-13728Y43451D01*
X-13714Y43495D01*
X-13704Y43538D01*
X-13695Y43577D01*
X-13690Y43612D01*
X-13687Y43642D01*
X-13684Y43667D01*
X-13682Y43686D01*
Y42883D01*
D02*
G37*
G36*
X-14812Y40262D02*
X-14856Y40268D01*
X-14897Y40273D01*
X-14970Y40292D01*
X-15036Y40320D01*
X-15066Y40333D01*
X-15090Y40347D01*
X-15115Y40361D01*
X-15134Y40374D01*
X-15150Y40388D01*
X-15167Y40399D01*
X-15178Y40407D01*
X-15186Y40415D01*
X-15189Y40418D01*
X-15191Y40421D01*
X-15216Y40448D01*
X-15241Y40478D01*
X-15260Y40508D01*
X-15276Y40538D01*
X-15301Y40601D01*
X-15317Y40655D01*
X-15328Y40707D01*
X-15331Y40727D01*
X-15333Y40746D01*
X-15336Y40759D01*
Y40781D01*
X-15333Y40825D01*
X-15328Y40866D01*
X-15320Y40904D01*
X-15309Y40939D01*
X-15279Y41005D01*
X-15262Y41035D01*
X-15246Y41062D01*
X-15230Y41084D01*
X-15213Y41106D01*
X-15197Y41125D01*
X-15183Y41139D01*
X-15172Y41150D01*
X-15164Y41161D01*
X-15159Y41163D01*
X-15156Y41166D01*
X-15110Y41199D01*
X-15055Y41226D01*
X-14998Y41245D01*
X-14940Y41262D01*
X-14891Y41273D01*
X-14869Y41275D01*
X-14850Y41278D01*
X-14834Y41281D01*
X-14823Y41283D01*
X-14815D01*
X-14812D01*
Y40262D01*
D02*
G37*
G36*
X-13682Y39929D02*
X-14618D01*
X-14536Y39932D01*
X-14460Y39940D01*
X-14389Y39951D01*
X-14323Y39965D01*
X-14261Y39984D01*
X-14203Y40003D01*
X-14151Y40025D01*
X-14105Y40047D01*
X-14064Y40066D01*
X-14029Y40088D01*
X-13998Y40107D01*
X-13974Y40126D01*
X-13952Y40139D01*
X-13938Y40150D01*
X-13930Y40159D01*
X-13927Y40161D01*
X-13884Y40208D01*
X-13846Y40257D01*
X-13813Y40306D01*
X-13785Y40361D01*
X-13761Y40413D01*
X-13742Y40467D01*
X-13725Y40519D01*
X-13712Y40568D01*
X-13704Y40615D01*
X-13695Y40658D01*
X-13690Y40696D01*
X-13684Y40732D01*
Y40759D01*
X-13682Y40781D01*
Y39929D01*
D02*
G37*
G36*
X-14574Y39337D02*
X-14514Y39334D01*
X-14460Y39326D01*
X-14408Y39315D01*
X-14362Y39304D01*
X-14318Y39293D01*
X-14277Y39280D01*
X-14244Y39266D01*
X-14211Y39250D01*
X-14184Y39236D01*
X-14162Y39225D01*
X-14143Y39214D01*
X-14130Y39203D01*
X-14119Y39195D01*
X-14113Y39192D01*
X-14110Y39189D01*
X-14080Y39162D01*
X-14053Y39132D01*
X-14029Y39102D01*
X-14009Y39072D01*
X-13993Y39042D01*
X-13979Y39015D01*
X-13958Y38960D01*
X-13944Y38911D01*
X-13941Y38892D01*
X-13938Y38873D01*
X-13936Y38859D01*
Y38840D01*
X-13938Y38794D01*
X-13947Y38753D01*
X-13958Y38712D01*
X-13974Y38673D01*
X-13990Y38638D01*
X-14012Y38605D01*
X-14031Y38575D01*
X-14056Y38548D01*
X-14078Y38526D01*
X-14099Y38504D01*
X-14119Y38485D01*
X-14135Y38471D01*
X-14151Y38461D01*
X-14162Y38452D01*
X-14170Y38447D01*
X-14173Y38444D01*
X-14203Y38428D01*
X-14236Y38414D01*
X-14271Y38403D01*
X-14310Y38395D01*
X-14389Y38379D01*
X-14465Y38368D01*
X-14503Y38365D01*
X-14536Y38362D01*
X-14569Y38360D01*
X-14594D01*
X-14618Y38357D01*
X-14635D01*
X-14645D01*
X-14648D01*
X-14708Y38360D01*
X-14766Y38362D01*
X-14820Y38370D01*
X-14869Y38379D01*
X-14913Y38392D01*
X-14957Y38403D01*
X-14995Y38417D01*
X-15028Y38431D01*
X-15058Y38444D01*
X-15085Y38458D01*
X-15107Y38471D01*
X-15126Y38482D01*
X-15140Y38491D01*
X-15150Y38499D01*
X-15156Y38502D01*
X-15159Y38504D01*
X-15189Y38532D01*
X-15216Y38562D01*
X-15241Y38592D01*
X-15262Y38622D01*
X-15279Y38652D01*
X-15292Y38679D01*
X-15314Y38734D01*
X-15328Y38783D01*
X-15331Y38802D01*
X-15333Y38821D01*
X-15336Y38835D01*
Y38854D01*
X-15333Y38892D01*
X-15328Y38927D01*
X-15320Y38960D01*
X-15309Y38993D01*
X-15281Y39050D01*
X-15251Y39102D01*
X-15219Y39143D01*
X-15205Y39159D01*
X-15191Y39173D01*
X-15180Y39184D01*
X-15172Y39192D01*
X-15167Y39195D01*
X-15164Y39198D01*
X-15131Y39222D01*
X-15093Y39244D01*
X-15052Y39263D01*
X-15011Y39280D01*
X-14924Y39304D01*
X-14837Y39323D01*
X-14798Y39329D01*
X-14760Y39331D01*
X-14725Y39334D01*
X-14695Y39337D01*
X-14673Y39340D01*
X-14654D01*
X-14643D01*
X-14637D01*
X-14574Y39337D01*
D02*
G37*
G36*
X-13682Y38073D02*
X-13723D01*
Y38360D01*
X-13949D01*
X-13903Y38395D01*
X-13862Y38433D01*
X-13826Y38474D01*
X-13794Y38515D01*
X-13769Y38559D01*
X-13747Y38600D01*
X-13728Y38641D01*
X-13714Y38682D01*
X-13704Y38717D01*
X-13695Y38753D01*
X-13690Y38785D01*
X-13687Y38813D01*
X-13684Y38835D01*
X-13682Y38851D01*
Y38073D01*
D02*
G37*
G36*
X-14487Y37279D02*
X-14416Y37273D01*
X-14356Y37265D01*
X-14304Y37257D01*
X-14282Y37251D01*
X-14266Y37246D01*
X-14250Y37240D01*
X-14236Y37238D01*
X-14228Y37235D01*
X-14220Y37232D01*
X-14217Y37229D01*
X-14214D01*
X-14170Y37207D01*
X-14132Y37180D01*
X-14099Y37150D01*
X-14072Y37123D01*
X-14050Y37096D01*
X-14034Y37074D01*
X-14023Y37060D01*
X-14020Y37057D01*
Y37055D01*
X-13996Y37008D01*
X-13979Y36964D01*
X-13966Y36921D01*
X-13958Y36880D01*
X-13952Y36844D01*
X-13949Y36820D01*
Y36795D01*
X-13952Y36746D01*
X-13960Y36700D01*
X-13971Y36659D01*
X-13985Y36626D01*
X-13996Y36599D01*
X-14007Y36577D01*
X-14015Y36566D01*
X-14017Y36560D01*
X-14045Y36528D01*
X-14078Y36500D01*
X-14108Y36479D01*
X-14138Y36462D01*
X-14165Y36449D01*
X-14189Y36440D01*
X-14203Y36438D01*
X-14209Y36435D01*
X-14225Y36432D01*
X-14247Y36430D01*
X-14296Y36427D01*
X-14351Y36421D01*
X-14405D01*
X-14454Y36419D01*
X-14476D01*
X-14498D01*
X-14514D01*
X-14525D01*
X-14534D01*
X-14536D01*
X-15549D01*
Y37281D01*
X-14569D01*
X-14487Y37279D01*
D02*
G37*
%LPC*%
G36*
X-16828Y54557D02*
X-17126D01*
Y53315D01*
X-17186Y53358D01*
X-17213Y53380D01*
X-17238Y53402D01*
X-17260Y53421D01*
X-17276Y53435D01*
X-17287Y53446D01*
X-17290Y53448D01*
X-17306Y53465D01*
X-17328Y53487D01*
X-17350Y53511D01*
X-17374Y53538D01*
X-17429Y53596D01*
X-17481Y53656D01*
X-17530Y53713D01*
X-17552Y53738D01*
X-17571Y53762D01*
X-17587Y53779D01*
X-17598Y53795D01*
X-17606Y53803D01*
X-17609Y53806D01*
X-17661Y53866D01*
X-17710Y53923D01*
X-17754Y53975D01*
X-17797Y54022D01*
X-17836Y54065D01*
X-17874Y54103D01*
X-17907Y54139D01*
X-17937Y54172D01*
X-17961Y54199D01*
X-17986Y54221D01*
X-18005Y54240D01*
X-18021Y54256D01*
X-18035Y54267D01*
X-18043Y54278D01*
X-18049Y54281D01*
X-18051Y54284D01*
X-18112Y54335D01*
X-18166Y54377D01*
X-18218Y54412D01*
X-18264Y54442D01*
X-18303Y54464D01*
X-18333Y54480D01*
X-18343Y54486D01*
X-18352Y54488D01*
X-18354Y54491D01*
X-18357D01*
X-18412Y54513D01*
X-18466Y54527D01*
X-18516Y54537D01*
X-18562Y54546D01*
X-18600Y54551D01*
X-18630Y54554D01*
X-18641D01*
X-18649D01*
X-18652D01*
X-18655D01*
X-18709Y54551D01*
X-18761Y54546D01*
X-18810Y54535D01*
X-18859Y54521D01*
X-18903Y54505D01*
X-18944Y54486D01*
X-18982Y54467D01*
X-19015Y54448D01*
X-19048Y54428D01*
X-19075Y54409D01*
X-19100Y54390D01*
X-19119Y54374D01*
X-19132Y54360D01*
X-19146Y54349D01*
X-19152Y54344D01*
X-19154Y54341D01*
X-19190Y54300D01*
X-19220Y54256D01*
X-19247Y54210D01*
X-19272Y54161D01*
X-19291Y54114D01*
X-19307Y54065D01*
X-19321Y54019D01*
X-19332Y53972D01*
X-19340Y53931D01*
X-19345Y53891D01*
X-19351Y53855D01*
X-19354Y53825D01*
X-19356Y53800D01*
Y53765D01*
X-19354Y53699D01*
X-19348Y53637D01*
X-19340Y53579D01*
X-19326Y53525D01*
X-19313Y53473D01*
X-19296Y53426D01*
X-19280Y53383D01*
X-19263Y53345D01*
X-19244Y53309D01*
X-19228Y53279D01*
X-19212Y53252D01*
X-19198Y53230D01*
X-19184Y53214D01*
X-19176Y53203D01*
X-19171Y53194D01*
X-19168Y53192D01*
X-19132Y53153D01*
X-19092Y53121D01*
X-19051Y53091D01*
X-19004Y53063D01*
X-18960Y53041D01*
X-18917Y53020D01*
X-18870Y53003D01*
X-18829Y52990D01*
X-18789Y52976D01*
X-18750Y52968D01*
X-18715Y52960D01*
X-18685Y52954D01*
X-18660Y52951D01*
X-18644Y52949D01*
X-18633Y52946D01*
X-18627D01*
X-18595Y53263D01*
X-18638Y53265D01*
X-18679Y53268D01*
X-18750Y53285D01*
X-18816Y53306D01*
X-18843Y53317D01*
X-18868Y53331D01*
X-18890Y53342D01*
X-18909Y53355D01*
X-18925Y53366D01*
X-18939Y53375D01*
X-18950Y53386D01*
X-18958Y53391D01*
X-18960Y53394D01*
X-18963Y53396D01*
X-18988Y53424D01*
X-19010Y53451D01*
X-19026Y53481D01*
X-19042Y53511D01*
X-19067Y53571D01*
X-19083Y53628D01*
X-19092Y53678D01*
X-19097Y53699D01*
Y53719D01*
X-19100Y53735D01*
Y53795D01*
X-19094Y53833D01*
X-19081Y53901D01*
X-19059Y53959D01*
X-19037Y54011D01*
X-19012Y54049D01*
X-19001Y54065D01*
X-18991Y54079D01*
X-18982Y54090D01*
X-18977Y54098D01*
X-18974Y54101D01*
X-18971Y54103D01*
X-18947Y54128D01*
X-18922Y54147D01*
X-18898Y54166D01*
X-18870Y54180D01*
X-18819Y54204D01*
X-18769Y54221D01*
X-18728Y54229D01*
X-18709Y54234D01*
X-18693D01*
X-18682Y54237D01*
X-18671D01*
X-18666D01*
X-18663D01*
X-18630Y54234D01*
X-18597Y54232D01*
X-18532Y54215D01*
X-18469Y54191D01*
X-18412Y54163D01*
X-18363Y54136D01*
X-18343Y54125D01*
X-18324Y54112D01*
X-18311Y54103D01*
X-18300Y54095D01*
X-18294Y54093D01*
X-18292Y54090D01*
X-18253Y54060D01*
X-18213Y54024D01*
X-18169Y53983D01*
X-18125Y53940D01*
X-18035Y53850D01*
X-17950Y53757D01*
X-17909Y53713D01*
X-17874Y53669D01*
X-17841Y53631D01*
X-17814Y53598D01*
X-17789Y53571D01*
X-17773Y53552D01*
X-17759Y53538D01*
X-17757Y53533D01*
X-17716Y53484D01*
X-17677Y53440D01*
X-17642Y53396D01*
X-17606Y53358D01*
X-17574Y53320D01*
X-17541Y53287D01*
X-17514Y53257D01*
X-17486Y53230D01*
X-17462Y53205D01*
X-17440Y53186D01*
X-17421Y53167D01*
X-17407Y53153D01*
X-17393Y53140D01*
X-17385Y53132D01*
X-17380Y53129D01*
X-17377Y53126D01*
X-17317Y53077D01*
X-17257Y53036D01*
X-17200Y53000D01*
X-17148Y52973D01*
X-17104Y52951D01*
X-17085Y52943D01*
X-17071Y52935D01*
X-17058Y52930D01*
X-17050Y52927D01*
X-17044Y52924D01*
X-17041D01*
X-17003Y52911D01*
X-16965Y52902D01*
X-16929Y52894D01*
X-16897Y52891D01*
X-16869Y52889D01*
X-19356D01*
X-16828D01*
Y54557D01*
D02*
G37*
G36*
Y52479D02*
X-17180D01*
Y52127D01*
X-16828D01*
Y52479D01*
D02*
G37*
G36*
X-16787Y51638D02*
X-19356D01*
Y49998D01*
D01*
Y50817D01*
X-19354Y50767D01*
X-19351Y50718D01*
X-19343Y50672D01*
X-19334Y50628D01*
X-19324Y50590D01*
X-19310Y50552D01*
X-19296Y50516D01*
X-19283Y50486D01*
X-19269Y50456D01*
X-19255Y50432D01*
X-19244Y50410D01*
X-19231Y50393D01*
X-19223Y50380D01*
X-19214Y50369D01*
X-19212Y50363D01*
X-19209Y50361D01*
X-19179Y50328D01*
X-19149Y50298D01*
X-19081Y50243D01*
X-19012Y50194D01*
X-18944Y50156D01*
X-18911Y50139D01*
X-18884Y50126D01*
X-18857Y50115D01*
X-18835Y50104D01*
X-18816Y50099D01*
X-18799Y50093D01*
X-18791Y50088D01*
X-18789D01*
X-18737Y50071D01*
X-18679Y50058D01*
X-18562Y50036D01*
X-18442Y50019D01*
X-18384Y50014D01*
X-18327Y50008D01*
X-18275Y50006D01*
X-18226Y50003D01*
X-18182Y50000D01*
X-18144D01*
X-18114Y49998D01*
X-18070D01*
X-17942Y50000D01*
X-17822Y50008D01*
X-17713Y50019D01*
X-17612Y50036D01*
X-17519Y50055D01*
X-17434Y50077D01*
X-17361Y50099D01*
X-17292Y50123D01*
X-17235Y50145D01*
X-17183Y50167D01*
X-17142Y50189D01*
X-17107Y50208D01*
X-17079Y50224D01*
X-17060Y50235D01*
X-17050Y50243D01*
X-17047Y50246D01*
X-17000Y50287D01*
X-16962Y50331D01*
X-16927Y50377D01*
X-16897Y50423D01*
X-16872Y50470D01*
X-16850Y50519D01*
X-16834Y50565D01*
X-16820Y50609D01*
X-16809Y50653D01*
X-16801Y50691D01*
X-16796Y50726D01*
X-16793Y50757D01*
X-16790Y50781D01*
X-16787Y50800D01*
Y50817D01*
X-16790Y50868D01*
X-16793Y50915D01*
X-16801Y50961D01*
X-16809Y51005D01*
X-16823Y51046D01*
X-16834Y51081D01*
X-16848Y51117D01*
X-16861Y51147D01*
X-16875Y51177D01*
X-16888Y51201D01*
X-16902Y51223D01*
X-16913Y51240D01*
X-16921Y51253D01*
X-16929Y51264D01*
X-16932Y51270D01*
X-16935Y51272D01*
X-16965Y51305D01*
X-16995Y51338D01*
X-17063Y51393D01*
X-17131Y51439D01*
X-17200Y51477D01*
X-17232Y51494D01*
X-17262Y51507D01*
X-17287Y51518D01*
X-17312Y51529D01*
X-17328Y51537D01*
X-17344Y51540D01*
X-17353Y51546D01*
X-17355D01*
X-17407Y51562D01*
X-17464Y51575D01*
X-17582Y51600D01*
X-17702Y51616D01*
X-17759Y51622D01*
X-17817Y51627D01*
X-17868Y51630D01*
X-17918Y51633D01*
X-17959Y51636D01*
X-17997Y51638D01*
X-16787D01*
D01*
D02*
G37*
G36*
X-16828Y49820D02*
X-19348D01*
Y47516D01*
D01*
X-16828Y48493D01*
Y48837D01*
X-19348Y49820D01*
X-16828D01*
D02*
G37*
G36*
X-18595Y46574D02*
X-18627Y46514D01*
X-18652Y46454D01*
X-18671Y46402D01*
X-18682Y46353D01*
X-18690Y46312D01*
X-18693Y46296D01*
Y46282D01*
X-18696Y46271D01*
Y45583D01*
D01*
Y46255D01*
X-18693Y46216D01*
X-18685Y46178D01*
X-18677Y46145D01*
X-18666Y46115D01*
X-18652Y46094D01*
X-18644Y46075D01*
X-18636Y46064D01*
X-18633Y46058D01*
X-18619Y46042D01*
X-18603Y46023D01*
X-18567Y45990D01*
X-18524Y45957D01*
X-18480Y45927D01*
X-18442Y45900D01*
X-18406Y45881D01*
X-18395Y45873D01*
X-18384Y45867D01*
X-18379Y45862D01*
X-18655D01*
Y45583D01*
X-18696D01*
X-16828D01*
Y45916D01*
Y45892D01*
X-17784D01*
X-17855Y45894D01*
X-17923Y45900D01*
X-17983Y45908D01*
X-18038Y45916D01*
X-18081Y45924D01*
X-18101Y45930D01*
X-18117Y45933D01*
X-18128Y45935D01*
X-18136Y45938D01*
X-18142Y45941D01*
X-18144D01*
X-18182Y45957D01*
X-18218Y45974D01*
X-18245Y45993D01*
X-18270Y46012D01*
X-18289Y46028D01*
X-18303Y46042D01*
X-18311Y46053D01*
X-18314Y46055D01*
X-18335Y46088D01*
X-18349Y46118D01*
X-18360Y46148D01*
X-18368Y46178D01*
X-18373Y46203D01*
X-18376Y46222D01*
Y46238D01*
X-18373Y46282D01*
X-18365Y46323D01*
X-18354Y46361D01*
X-18343Y46394D01*
X-18330Y46424D01*
X-18319Y46446D01*
X-18311Y46459D01*
X-18308Y46465D01*
X-18595Y46574D01*
D02*
G37*
G36*
X-16787Y45206D02*
X-18696D01*
X-17746D01*
X-17828Y45204D01*
X-17904Y45195D01*
X-17978Y45185D01*
X-18046Y45171D01*
X-18109Y45152D01*
X-18166Y45133D01*
X-18218Y45111D01*
X-18264Y45092D01*
X-18305Y45070D01*
X-18343Y45048D01*
X-18373Y45029D01*
X-18398Y45010D01*
X-18420Y44996D01*
X-18434Y44985D01*
X-18442Y44977D01*
X-18444Y44974D01*
X-18488Y44931D01*
X-18526Y44881D01*
X-18562Y44832D01*
X-18589Y44783D01*
X-18614Y44734D01*
X-18636Y44682D01*
X-18652Y44636D01*
X-18666Y44589D01*
X-18674Y44546D01*
X-18682Y44505D01*
X-18688Y44469D01*
X-18693Y44436D01*
Y44412D01*
X-18696Y44393D01*
Y44404D01*
Y44377D01*
X-18693Y44308D01*
X-18685Y44240D01*
X-18671Y44180D01*
X-18655Y44120D01*
X-18636Y44065D01*
X-18614Y44013D01*
X-18592Y43967D01*
X-18567Y43926D01*
X-18543Y43888D01*
X-18521Y43855D01*
X-18499Y43825D01*
X-18480Y43803D01*
X-18464Y43784D01*
X-18450Y43770D01*
X-18442Y43762D01*
X-18439Y43760D01*
X-18390Y43718D01*
X-18335Y43683D01*
X-18278Y43650D01*
X-18221Y43623D01*
X-18161Y43601D01*
X-18101Y43582D01*
X-18043Y43566D01*
X-17986Y43555D01*
X-17934Y43544D01*
X-17882Y43538D01*
X-17839Y43533D01*
X-17800Y43527D01*
X-17767D01*
X-17743Y43525D01*
X-18696D01*
X-16787D01*
X-17724D01*
X-17642Y43527D01*
X-17566Y43536D01*
X-17494Y43547D01*
X-17429Y43560D01*
X-17366Y43579D01*
X-17309Y43598D01*
X-17257Y43620D01*
X-17211Y43642D01*
X-17170Y43661D01*
X-17134Y43683D01*
X-17104Y43702D01*
X-17079Y43721D01*
X-17058Y43735D01*
X-17044Y43746D01*
X-17036Y43754D01*
X-17033Y43757D01*
X-16989Y43803D01*
X-16951Y43852D01*
X-16918Y43902D01*
X-16891Y43956D01*
X-16867Y44008D01*
X-16848Y44063D01*
X-16831Y44114D01*
X-16817Y44164D01*
X-16809Y44210D01*
X-16801Y44254D01*
X-16796Y44292D01*
X-16790Y44327D01*
Y44355D01*
X-16787Y44377D01*
Y44393D01*
X-16790Y44450D01*
X-16793Y44508D01*
X-16801Y44559D01*
X-16812Y44609D01*
X-16823Y44655D01*
X-16837Y44696D01*
X-16850Y44737D01*
X-16864Y44772D01*
X-16878Y44805D01*
X-16891Y44832D01*
X-16905Y44857D01*
X-16916Y44879D01*
X-16927Y44892D01*
X-16935Y44906D01*
X-16938Y44912D01*
X-16940Y44914D01*
X-16970Y44952D01*
X-17003Y44985D01*
X-17039Y45015D01*
X-17074Y45045D01*
X-17148Y45094D01*
X-17216Y45133D01*
X-17249Y45146D01*
X-17279Y45160D01*
X-17306Y45171D01*
X-17331Y45179D01*
X-17350Y45187D01*
X-17363Y45193D01*
X-17374Y45195D01*
X-17377D01*
X-17418Y44873D01*
X-17350Y44846D01*
X-17290Y44813D01*
X-17238Y44780D01*
X-17200Y44750D01*
X-17167Y44723D01*
X-17145Y44701D01*
X-17134Y44688D01*
X-17129Y44685D01*
Y44682D01*
X-17099Y44636D01*
X-17079Y44587D01*
X-17063Y44537D01*
X-17052Y44494D01*
X-17047Y44453D01*
X-17044Y44420D01*
X-17041Y44409D01*
Y44393D01*
X-17044Y44352D01*
X-17050Y44311D01*
X-17055Y44273D01*
X-17066Y44237D01*
X-17090Y44172D01*
X-17120Y44117D01*
X-17134Y44093D01*
X-17151Y44071D01*
X-17164Y44054D01*
X-17175Y44038D01*
X-17186Y44027D01*
X-17194Y44019D01*
X-17197Y44013D01*
X-17200Y44011D01*
X-17232Y43983D01*
X-17265Y43959D01*
X-17303Y43940D01*
X-17339Y43921D01*
X-17418Y43891D01*
X-17492Y43869D01*
X-17527Y43861D01*
X-17560Y43855D01*
X-17587Y43850D01*
X-17615Y43847D01*
X-17634Y43844D01*
X-17650Y43841D01*
X-17661D01*
X-17664D01*
Y45204D01*
X-17699Y45206D01*
X-16787D01*
D02*
G37*
G36*
X-18696Y44210D02*
Y43525D01*
D01*
Y44210D01*
D02*
G37*
G36*
X-18655Y41636D02*
Y41625D01*
D01*
Y41636D01*
D02*
G37*
G36*
Y41614D02*
Y41608D01*
D01*
Y41614D01*
D02*
G37*
G36*
Y41597D02*
Y41595D01*
D01*
Y41597D01*
D02*
G37*
G36*
Y41589D02*
Y41586D01*
D01*
Y41589D01*
D02*
G37*
G36*
Y41576D02*
Y41556D01*
D01*
Y41576D01*
D02*
G37*
G36*
Y41537D02*
Y41515D01*
D01*
Y41537D01*
D02*
G37*
G36*
Y41420D02*
Y41401D01*
D01*
Y41420D01*
D02*
G37*
G36*
Y41319D02*
Y41316D01*
D01*
Y41319D01*
D02*
G37*
G36*
Y41286D02*
Y41283D01*
D01*
Y41286D01*
D02*
G37*
G36*
Y41281D02*
Y41275D01*
D01*
Y41281D01*
D02*
G37*
G36*
Y41273D02*
Y41262D01*
D01*
Y41273D01*
D02*
G37*
G36*
Y41251D02*
Y41237D01*
D01*
Y41251D01*
D02*
G37*
G36*
Y41210D02*
Y41199D01*
D01*
Y41210D01*
D02*
G37*
G36*
Y43369D02*
Y43069D01*
X-17598Y42752D01*
X-17246Y42648D01*
X-17593Y42558D01*
X-18655Y42283D01*
Y41969D01*
X-17582Y41677D01*
X-17522Y41660D01*
X-17467Y41647D01*
X-17418Y41636D01*
X-17377Y41625D01*
X-17342Y41614D01*
X-17312Y41605D01*
X-17287Y41600D01*
X-17265Y41595D01*
X-17249Y41592D01*
X-17235Y41586D01*
X-17224D01*
X-17219Y41584D01*
X-17211Y41581D01*
X-17208D01*
X-17598Y41475D01*
X-18655Y41185D01*
Y40863D01*
X-16828Y41414D01*
Y41739D01*
X-18232Y42113D01*
X-17920Y42184D01*
X-16828Y42476D01*
Y42793D01*
X-18655Y43369D01*
D02*
G37*
G36*
X-17732Y40724D02*
X-17765D01*
X-17844Y40721D01*
X-17920Y40713D01*
X-17991Y40702D01*
X-18057Y40685D01*
X-18117Y40669D01*
X-18171Y40647D01*
X-18223Y40626D01*
X-18270Y40604D01*
X-18311Y40582D01*
X-18346Y40560D01*
X-18376Y40538D01*
X-18401Y40522D01*
X-18423Y40505D01*
X-18436Y40494D01*
X-18444Y40486D01*
X-18447Y40483D01*
X-18491Y40437D01*
X-18529Y40388D01*
X-18562Y40339D01*
X-18592Y40287D01*
X-18614Y40235D01*
X-18636Y40186D01*
X-18652Y40134D01*
X-18666Y40088D01*
X-18674Y40041D01*
X-18682Y40000D01*
X-18688Y39965D01*
X-18693Y39932D01*
Y39905D01*
X-18696Y39886D01*
Y39891D01*
Y39869D01*
X-18693Y39807D01*
X-18688Y39746D01*
X-18677Y39692D01*
X-18663Y39637D01*
X-18649Y39585D01*
X-18630Y39539D01*
X-18614Y39495D01*
X-18595Y39457D01*
X-18576Y39419D01*
X-18556Y39389D01*
X-18537Y39362D01*
X-18524Y39337D01*
X-18510Y39320D01*
X-18499Y39307D01*
X-18494Y39299D01*
X-18491Y39296D01*
X-18442Y39247D01*
X-18390Y39203D01*
X-18333Y39165D01*
X-18272Y39132D01*
X-18210Y39108D01*
X-18147Y39083D01*
X-18084Y39064D01*
X-18024Y39050D01*
X-17967Y39039D01*
X-17915Y39028D01*
X-17866Y39023D01*
X-17822Y39020D01*
X-17789Y39018D01*
X-17762Y39015D01*
X-18696D01*
X-16787D01*
X-17740D01*
X-17655Y39018D01*
X-17576Y39026D01*
X-17503Y39037D01*
X-17434Y39050D01*
X-17372Y39069D01*
X-17314Y39088D01*
X-17262Y39110D01*
X-17213Y39132D01*
X-17172Y39154D01*
X-17134Y39176D01*
X-17104Y39195D01*
X-17079Y39214D01*
X-17058Y39228D01*
X-17044Y39239D01*
X-17036Y39247D01*
X-17033Y39250D01*
X-16989Y39296D01*
X-16951Y39345D01*
X-16918Y39394D01*
X-16891Y39446D01*
X-16867Y39498D01*
X-16848Y39550D01*
X-16831Y39599D01*
X-16817Y39648D01*
X-16809Y39694D01*
X-16801Y39735D01*
X-16796Y39774D01*
X-16790Y39807D01*
Y39834D01*
X-16787Y39853D01*
Y39869D01*
X-16793Y39957D01*
X-16804Y40038D01*
X-16823Y40112D01*
X-16831Y40148D01*
X-16842Y40178D01*
X-16853Y40208D01*
X-16861Y40232D01*
X-16872Y40254D01*
X-16880Y40273D01*
X-16886Y40290D01*
X-16891Y40301D01*
X-16897Y40306D01*
Y40309D01*
X-16943Y40380D01*
X-16992Y40442D01*
X-17044Y40494D01*
X-17096Y40538D01*
X-17140Y40574D01*
X-17161Y40587D01*
X-17178Y40598D01*
X-17191Y40606D01*
X-17202Y40612D01*
X-17208Y40617D01*
X-17211D01*
X-17252Y40636D01*
X-17292Y40653D01*
X-17383Y40680D01*
X-17475Y40699D01*
X-17563Y40710D01*
X-17604Y40716D01*
X-17642Y40718D01*
X-17677Y40721D01*
X-17707D01*
X-17732Y40724D01*
D02*
G37*
G36*
X-18586Y38745D02*
X-18617D01*
X-18685Y38742D01*
X-18750Y38734D01*
X-18808Y38720D01*
X-18859Y38706D01*
X-18900Y38690D01*
X-18920Y38684D01*
X-18933Y38679D01*
X-18944Y38673D01*
X-18952Y38668D01*
X-18958Y38665D01*
X-18960D01*
X-19018Y38635D01*
X-19064Y38603D01*
X-19108Y38567D01*
X-19141Y38537D01*
X-19168Y38507D01*
X-19187Y38485D01*
X-19201Y38469D01*
X-19204Y38466D01*
Y38463D01*
X-19233Y38414D01*
X-19258Y38362D01*
X-19280Y38310D01*
X-19296Y38261D01*
X-19310Y38218D01*
X-19313Y38199D01*
X-19318Y38182D01*
X-19321Y38171D01*
Y38160D01*
X-19324Y38155D01*
Y38152D01*
X-19329Y38127D01*
X-19332Y38098D01*
X-19337Y38037D01*
X-19343Y37975D01*
X-19345Y37912D01*
X-19348Y37857D01*
Y38745D01*
D01*
Y36820D01*
X-16828D01*
Y37153D01*
X-17852D01*
Y37797D01*
X-17855Y37896D01*
X-17863Y37983D01*
X-17874Y38065D01*
X-17888Y38141D01*
X-17904Y38207D01*
X-17923Y38269D01*
X-17942Y38321D01*
X-17964Y38370D01*
X-17983Y38411D01*
X-18002Y38447D01*
X-18021Y38477D01*
X-18038Y38499D01*
X-18054Y38518D01*
X-18065Y38529D01*
X-18070Y38537D01*
X-18073Y38540D01*
X-18117Y38575D01*
X-18161Y38608D01*
X-18207Y38635D01*
X-18253Y38657D01*
X-18300Y38679D01*
X-18343Y38695D01*
X-18387Y38709D01*
X-18428Y38720D01*
X-18469Y38728D01*
X-18505Y38734D01*
X-18535Y38739D01*
X-18562Y38742D01*
X-18586Y38745D01*
D02*
G37*
G36*
X-16787Y35425D02*
X-18696D01*
Y33743D01*
D01*
Y34595D01*
X-18693Y34527D01*
X-18685Y34458D01*
X-18671Y34398D01*
X-18655Y34338D01*
X-18636Y34284D01*
X-18614Y34232D01*
X-18592Y34185D01*
X-18567Y34144D01*
X-18543Y34106D01*
X-18521Y34073D01*
X-18499Y34043D01*
X-18480Y34022D01*
X-18464Y34003D01*
X-18450Y33989D01*
X-18442Y33981D01*
X-18439Y33978D01*
X-18390Y33937D01*
X-18335Y33902D01*
X-18278Y33869D01*
X-18221Y33841D01*
X-18161Y33820D01*
X-18101Y33801D01*
X-18043Y33784D01*
X-17986Y33773D01*
X-17934Y33762D01*
X-17882Y33757D01*
X-17839Y33751D01*
X-17800Y33746D01*
X-17767D01*
X-17743Y33743D01*
X-18696D01*
X-16787D01*
X-17724D01*
X-17642Y33746D01*
X-17566Y33754D01*
X-17494Y33765D01*
X-17429Y33779D01*
X-17366Y33798D01*
X-17309Y33817D01*
X-17257Y33839D01*
X-17211Y33860D01*
X-17170Y33880D01*
X-17134Y33902D01*
X-17104Y33921D01*
X-17079Y33940D01*
X-17058Y33953D01*
X-17044Y33964D01*
X-17036Y33972D01*
X-17033Y33975D01*
X-16989Y34022D01*
X-16951Y34071D01*
X-16918Y34120D01*
X-16891Y34174D01*
X-16867Y34226D01*
X-16848Y34281D01*
X-16831Y34333D01*
X-16817Y34382D01*
X-16809Y34428D01*
X-16801Y34472D01*
X-16796Y34510D01*
X-16790Y34546D01*
Y34573D01*
X-16787Y34595D01*
Y34611D01*
X-16790Y34669D01*
X-16793Y34726D01*
X-16801Y34778D01*
X-16812Y34827D01*
X-16823Y34873D01*
X-16837Y34914D01*
X-16850Y34955D01*
X-16864Y34991D01*
X-16878Y35023D01*
X-16891Y35051D01*
X-16905Y35075D01*
X-16916Y35097D01*
X-16927Y35111D01*
X-16935Y35124D01*
X-16938Y35130D01*
X-16940Y35133D01*
X-16970Y35171D01*
X-17003Y35204D01*
X-17039Y35234D01*
X-17074Y35264D01*
X-17148Y35313D01*
X-17216Y35351D01*
X-17249Y35365D01*
X-17279Y35378D01*
X-17306Y35389D01*
X-17331Y35397D01*
X-17350Y35406D01*
X-17363Y35411D01*
X-17374Y35414D01*
X-17377D01*
X-17418Y35092D01*
X-17350Y35064D01*
X-17290Y35032D01*
X-17238Y34999D01*
X-17200Y34969D01*
X-17167Y34942D01*
X-17145Y34920D01*
X-17134Y34906D01*
X-17129Y34903D01*
Y34901D01*
X-17099Y34854D01*
X-17079Y34805D01*
X-17063Y34756D01*
X-17052Y34712D01*
X-17047Y34671D01*
X-17044Y34639D01*
X-17041Y34628D01*
Y34611D01*
X-17044Y34570D01*
X-17050Y34529D01*
X-17055Y34491D01*
X-17066Y34456D01*
X-17090Y34390D01*
X-17120Y34336D01*
X-17134Y34311D01*
X-17151Y34289D01*
X-17164Y34273D01*
X-17175Y34256D01*
X-17186Y34245D01*
X-17194Y34237D01*
X-17197Y34232D01*
X-17200Y34229D01*
X-17232Y34202D01*
X-17265Y34177D01*
X-17303Y34158D01*
X-17339Y34139D01*
X-17418Y34109D01*
X-17492Y34087D01*
X-17527Y34079D01*
X-17560Y34073D01*
X-17587Y34068D01*
X-17615Y34065D01*
X-17634Y34062D01*
X-17650Y34060D01*
X-17661D01*
X-17664D01*
Y35422D01*
X-17699Y35425D01*
X-16787D01*
D02*
G37*
G36*
X-17746Y33470D02*
X-17767D01*
X-17841Y33467D01*
X-17909Y33462D01*
X-17972Y33451D01*
X-18027Y33443D01*
X-18051Y33437D01*
X-18073Y33432D01*
X-18092Y33426D01*
X-18109Y33421D01*
X-18122Y33418D01*
X-18131Y33415D01*
X-18136Y33413D01*
X-18139D01*
X-18202Y33391D01*
X-18259Y33366D01*
X-18311Y33342D01*
X-18354Y33317D01*
X-18387Y33293D01*
X-18415Y33276D01*
X-18431Y33265D01*
X-18436Y33260D01*
X-18480Y33222D01*
X-18518Y33181D01*
X-18551Y33140D01*
X-18578Y33102D01*
X-18600Y33066D01*
X-18614Y33039D01*
X-18619Y33028D01*
X-18625Y33020D01*
X-18627Y33017D01*
Y33014D01*
X-18649Y32957D01*
X-18666Y32902D01*
X-18679Y32848D01*
X-18688Y32799D01*
X-18693Y32758D01*
Y32739D01*
X-18696Y32725D01*
Y32695D01*
X-18693Y32640D01*
X-18685Y32586D01*
X-18674Y32537D01*
X-18657Y32487D01*
X-18638Y32444D01*
X-18619Y32403D01*
X-18595Y32364D01*
X-18573Y32332D01*
X-18551Y32299D01*
X-18529Y32272D01*
X-18507Y32250D01*
X-18488Y32231D01*
X-18472Y32214D01*
X-18461Y32203D01*
X-18453Y32198D01*
X-18450Y32195D01*
X-19348D01*
Y33470D01*
D01*
Y31887D01*
X-16787D01*
X-16828D01*
Y32173D01*
X-17055D01*
X-17008Y32209D01*
X-16968Y32247D01*
X-16932Y32288D01*
X-16899Y32329D01*
X-16875Y32373D01*
X-16853Y32414D01*
X-16834Y32455D01*
X-16820Y32495D01*
X-16809Y32531D01*
X-16801Y32566D01*
X-16796Y32599D01*
X-16793Y32627D01*
X-16790Y32648D01*
X-16787Y32665D01*
Y32678D01*
X-16790Y32739D01*
X-16798Y32796D01*
X-16812Y32850D01*
X-16828Y32902D01*
X-16848Y32951D01*
X-16867Y32998D01*
X-16891Y33039D01*
X-16916Y33080D01*
X-16938Y33112D01*
X-16962Y33145D01*
X-16981Y33173D01*
X-17003Y33194D01*
X-17017Y33211D01*
X-17030Y33224D01*
X-17039Y33233D01*
X-17041Y33235D01*
X-17093Y33276D01*
X-17145Y33312D01*
X-17202Y33345D01*
X-17262Y33372D01*
X-17323Y33394D01*
X-17385Y33413D01*
X-17443Y33429D01*
X-17500Y33440D01*
X-17555Y33451D01*
X-17606Y33457D01*
X-17650Y33462D01*
X-17691Y33467D01*
X-17724D01*
X-17746Y33470D01*
D02*
G37*
G36*
X-16828Y31403D02*
X-18655D01*
Y29924D01*
X-17454D01*
D01*
X-16787D01*
X-17454D01*
X-17393Y29927D01*
X-17344Y29929D01*
X-17303Y29932D01*
X-17273Y29935D01*
X-17249Y29937D01*
X-17238Y29940D01*
X-17232D01*
X-17183Y29954D01*
X-17140Y29967D01*
X-17101Y29984D01*
X-17069Y30000D01*
X-17041Y30014D01*
X-17019Y30025D01*
X-17008Y30033D01*
X-17003Y30036D01*
X-16970Y30063D01*
X-16940Y30096D01*
X-16913Y30131D01*
X-16891Y30164D01*
X-16872Y30197D01*
X-16858Y30221D01*
X-16850Y30238D01*
X-16848Y30240D01*
Y30243D01*
X-16828Y30298D01*
X-16812Y30350D01*
X-16801Y30402D01*
X-16796Y30448D01*
X-16790Y30489D01*
X-16787Y30519D01*
Y30546D01*
X-16790Y30615D01*
X-16801Y30677D01*
X-16815Y30735D01*
X-16837Y30792D01*
X-16858Y30844D01*
X-16886Y30890D01*
X-16913Y30934D01*
X-16943Y30975D01*
X-16970Y31010D01*
X-16998Y31040D01*
X-17025Y31068D01*
X-17047Y31090D01*
X-17069Y31106D01*
X-17082Y31117D01*
X-17093Y31125D01*
X-17096Y31128D01*
X-16828D01*
Y31403D01*
D02*
G37*
G36*
X-17623Y29561D02*
X-17628D01*
X-17713Y29228D01*
X-17655Y29214D01*
X-17601Y29195D01*
X-17549Y29176D01*
X-17503Y29157D01*
X-17459Y29135D01*
X-17421Y29113D01*
X-17385Y29091D01*
X-17353Y29069D01*
X-17325Y29048D01*
X-17301Y29028D01*
X-17279Y29009D01*
X-17262Y28996D01*
X-17249Y28982D01*
X-17241Y28971D01*
X-17235Y28966D01*
X-17232Y28963D01*
X-17205Y28925D01*
X-17180Y28887D01*
X-17159Y28848D01*
X-17140Y28807D01*
X-17123Y28766D01*
X-17109Y28728D01*
X-17090Y28652D01*
X-17085Y28619D01*
X-17079Y28586D01*
X-17077Y28559D01*
X-17074Y28534D01*
X-17071Y28515D01*
Y28488D01*
X-17074Y28444D01*
X-17077Y28403D01*
X-17090Y28324D01*
X-17109Y28250D01*
X-17131Y28188D01*
X-17142Y28160D01*
X-17151Y28136D01*
X-17161Y28114D01*
X-17170Y28095D01*
X-17178Y28078D01*
X-17183Y28067D01*
X-17189Y28062D01*
Y28059D01*
X-17213Y28024D01*
X-17238Y27991D01*
X-17295Y27931D01*
X-17353Y27882D01*
X-17413Y27841D01*
X-17464Y27811D01*
X-17486Y27797D01*
X-17508Y27786D01*
X-17525Y27781D01*
X-17535Y27775D01*
X-17544Y27770D01*
X-17546D01*
X-17639Y27740D01*
X-17735Y27715D01*
X-17830Y27699D01*
X-17874Y27694D01*
X-17918Y27688D01*
X-17959Y27685D01*
X-17994Y27683D01*
X-18027Y27680D01*
X-18054D01*
X-18079Y27677D01*
X-18095D01*
X-18106D01*
X-18109D01*
X-18202Y27680D01*
X-18289Y27688D01*
X-18371Y27702D01*
X-18409Y27707D01*
X-18444Y27715D01*
X-18474Y27724D01*
X-18505Y27729D01*
X-18529Y27737D01*
X-18551Y27743D01*
X-18567Y27745D01*
X-18581Y27751D01*
X-18589Y27753D01*
X-18592D01*
X-18677Y27789D01*
X-18750Y27830D01*
X-18813Y27874D01*
X-18840Y27898D01*
X-18868Y27920D01*
X-18890Y27942D01*
X-18909Y27961D01*
X-18928Y27980D01*
X-18941Y27994D01*
X-18952Y28007D01*
X-18960Y28018D01*
X-18963Y28024D01*
X-18966Y28027D01*
X-18991Y28065D01*
X-19012Y28103D01*
X-19031Y28144D01*
X-19048Y28185D01*
X-19072Y28267D01*
X-19092Y28346D01*
X-19097Y28379D01*
X-19100Y28411D01*
X-19102Y28442D01*
X-19105Y28466D01*
X-19108Y28488D01*
Y28562D01*
X-19102Y28605D01*
X-19089Y28687D01*
X-19067Y28758D01*
X-19056Y28788D01*
X-19045Y28818D01*
X-19034Y28846D01*
X-19023Y28867D01*
X-19012Y28887D01*
X-19001Y28903D01*
X-18993Y28916D01*
X-18988Y28925D01*
X-18985Y28930D01*
X-18982Y28933D01*
X-18958Y28963D01*
X-18930Y28993D01*
X-18868Y29042D01*
X-18799Y29089D01*
X-18734Y29124D01*
X-18674Y29151D01*
X-18649Y29165D01*
X-18627Y29173D01*
X-18608Y29181D01*
X-18592Y29184D01*
X-18584Y29190D01*
X-18581D01*
X-18657Y29517D01*
X-18720Y29495D01*
X-18780Y29471D01*
X-18838Y29446D01*
X-18890Y29416D01*
X-18939Y29389D01*
X-18982Y29359D01*
X-19023Y29329D01*
X-19059Y29299D01*
X-19092Y29269D01*
X-19119Y29244D01*
X-19143Y29219D01*
X-19162Y29198D01*
X-19179Y29181D01*
X-19190Y29168D01*
X-19195Y29160D01*
X-19198Y29157D01*
X-19233Y29108D01*
X-19261Y29056D01*
X-19288Y29004D01*
X-19310Y28949D01*
X-19329Y28895D01*
X-19345Y28843D01*
X-19356Y28791D01*
X-19367Y28742D01*
X-19376Y28695D01*
X-19381Y28654D01*
X-19386Y28616D01*
X-19389Y28583D01*
X-19392Y28556D01*
Y29561D01*
D01*
D01*
Y27333D01*
D01*
Y28521D01*
X-19389Y28458D01*
X-19386Y28398D01*
X-19367Y28286D01*
X-19356Y28231D01*
X-19343Y28182D01*
X-19329Y28133D01*
X-19315Y28089D01*
X-19302Y28051D01*
X-19288Y28016D01*
X-19274Y27983D01*
X-19263Y27958D01*
X-19253Y27936D01*
X-19244Y27923D01*
X-19242Y27912D01*
X-19239Y27909D01*
X-19209Y27860D01*
X-19176Y27811D01*
X-19141Y27767D01*
X-19105Y27726D01*
X-19067Y27688D01*
X-19031Y27652D01*
X-18993Y27623D01*
X-18960Y27592D01*
X-18925Y27568D01*
X-18895Y27546D01*
X-18868Y27527D01*
X-18843Y27510D01*
X-18821Y27500D01*
X-18808Y27491D01*
X-18797Y27486D01*
X-18794Y27483D01*
X-18739Y27456D01*
X-18679Y27434D01*
X-18622Y27415D01*
X-18565Y27396D01*
X-18447Y27369D01*
X-18393Y27360D01*
X-18341Y27352D01*
X-18292Y27347D01*
X-18248Y27341D01*
X-18207Y27338D01*
X-18171Y27336D01*
X-18144Y27333D01*
X-18106D01*
X-18041Y27336D01*
X-17975Y27338D01*
X-17849Y27355D01*
X-17789Y27363D01*
X-17735Y27374D01*
X-17683Y27388D01*
X-17634Y27399D01*
X-17590Y27412D01*
X-17549Y27423D01*
X-17516Y27434D01*
X-17486Y27445D01*
X-17464Y27453D01*
X-17445Y27459D01*
X-17434Y27461D01*
X-17432Y27464D01*
X-17374Y27491D01*
X-17320Y27519D01*
X-17271Y27549D01*
X-17224Y27582D01*
X-17180Y27614D01*
X-17142Y27644D01*
X-17107Y27677D01*
X-17074Y27707D01*
X-17044Y27737D01*
X-17019Y27764D01*
X-17000Y27789D01*
X-16981Y27811D01*
X-16968Y27827D01*
X-16959Y27841D01*
X-16954Y27849D01*
X-16951Y27852D01*
X-16921Y27901D01*
X-16897Y27953D01*
X-16875Y28007D01*
X-16856Y28065D01*
X-16842Y28119D01*
X-16828Y28174D01*
X-16817Y28229D01*
X-16809Y28280D01*
X-16801Y28330D01*
X-16796Y28373D01*
X-16793Y28414D01*
X-16790Y28447D01*
X-16787Y28477D01*
Y28515D01*
X-16790Y28589D01*
X-16796Y28657D01*
X-16806Y28723D01*
X-16820Y28785D01*
X-16837Y28846D01*
X-16856Y28900D01*
X-16875Y28949D01*
X-16894Y28996D01*
X-16913Y29039D01*
X-16932Y29075D01*
X-16951Y29108D01*
X-16968Y29132D01*
X-16981Y29154D01*
X-16992Y29168D01*
X-16998Y29179D01*
X-17000Y29181D01*
X-17044Y29230D01*
X-17090Y29277D01*
X-17140Y29318D01*
X-17189Y29356D01*
X-17241Y29392D01*
X-17295Y29421D01*
X-17344Y29449D01*
X-17396Y29473D01*
X-17443Y29495D01*
X-17486Y29512D01*
X-17527Y29528D01*
X-17560Y29539D01*
X-17590Y29550D01*
X-17609Y29555D01*
X-17623Y29561D01*
D02*
G37*
%LPD*%
G36*
X-18204Y51636D02*
X-18264Y51633D01*
X-18322Y51630D01*
X-18373Y51625D01*
X-18423Y51619D01*
X-18466Y51614D01*
X-18507Y51611D01*
X-18543Y51605D01*
X-18573Y51600D01*
X-18600Y51595D01*
X-18622Y51589D01*
X-18641Y51586D01*
X-18652Y51584D01*
X-18660Y51581D01*
X-18663D01*
X-18742Y51559D01*
X-18816Y51532D01*
X-18879Y51507D01*
X-18933Y51483D01*
X-18955Y51469D01*
X-18977Y51461D01*
X-18996Y51450D01*
X-19010Y51442D01*
X-19021Y51433D01*
X-19029Y51431D01*
X-19034Y51425D01*
X-19037D01*
X-19092Y51387D01*
X-19141Y51343D01*
X-19182Y51302D01*
X-19214Y51262D01*
X-19242Y51226D01*
X-19258Y51199D01*
X-19266Y51188D01*
X-19272Y51180D01*
X-19274Y51174D01*
Y51171D01*
X-19302Y51111D01*
X-19321Y51051D01*
X-19337Y50991D01*
X-19345Y50937D01*
X-19351Y50888D01*
X-19354Y50868D01*
X-19356Y50849D01*
Y51638D01*
X-18139D01*
X-18204Y51636D01*
D02*
G37*
G36*
X-17959Y51319D02*
X-17858Y51316D01*
X-17765Y51308D01*
X-17680Y51300D01*
X-17604Y51289D01*
X-17538Y51275D01*
X-17478Y51262D01*
X-17426Y51248D01*
X-17383Y51234D01*
X-17344Y51221D01*
X-17312Y51210D01*
X-17287Y51196D01*
X-17268Y51188D01*
X-17257Y51180D01*
X-17249Y51177D01*
X-17246Y51174D01*
X-17211Y51147D01*
X-17178Y51117D01*
X-17151Y51087D01*
X-17129Y51057D01*
X-17107Y51027D01*
X-17090Y50997D01*
X-17077Y50969D01*
X-17066Y50942D01*
X-17052Y50893D01*
X-17047Y50871D01*
X-17044Y50852D01*
Y50838D01*
X-17041Y50825D01*
Y50817D01*
X-17044Y50778D01*
X-17050Y50740D01*
X-17060Y50705D01*
X-17074Y50672D01*
X-17104Y50609D01*
X-17142Y50557D01*
X-17180Y50516D01*
X-17197Y50500D01*
X-17211Y50486D01*
X-17224Y50473D01*
X-17235Y50464D01*
X-17241Y50462D01*
X-17243Y50459D01*
X-17287Y50434D01*
X-17339Y50412D01*
X-17396Y50391D01*
X-17459Y50374D01*
X-17527Y50361D01*
X-17595Y50350D01*
X-17735Y50333D01*
X-17800Y50325D01*
X-17863Y50322D01*
X-17920Y50320D01*
X-17969Y50317D01*
X-18011Y50314D01*
X-18030D01*
X-18043D01*
X-18054D01*
X-18062D01*
X-18068D01*
X-18070D01*
X-18182Y50317D01*
X-18283Y50322D01*
X-18379Y50328D01*
X-18464Y50339D01*
X-18540Y50350D01*
X-18611Y50363D01*
X-18671Y50380D01*
X-18726Y50393D01*
X-18775Y50407D01*
X-18813Y50423D01*
X-18846Y50437D01*
X-18873Y50448D01*
X-18895Y50459D01*
X-18909Y50467D01*
X-18917Y50470D01*
X-18920Y50473D01*
X-18952Y50497D01*
X-18980Y50524D01*
X-19004Y50552D01*
X-19023Y50579D01*
X-19042Y50609D01*
X-19056Y50636D01*
X-19078Y50691D01*
X-19092Y50740D01*
X-19094Y50762D01*
X-19097Y50778D01*
X-19100Y50795D01*
Y50814D01*
X-19097Y50855D01*
X-19092Y50890D01*
X-19081Y50928D01*
X-19067Y50961D01*
X-19034Y51024D01*
X-18999Y51076D01*
X-18980Y51098D01*
X-18960Y51117D01*
X-18941Y51133D01*
X-18928Y51150D01*
X-18914Y51161D01*
X-18903Y51169D01*
X-18898Y51171D01*
X-18895Y51174D01*
X-18851Y51201D01*
X-18802Y51223D01*
X-18742Y51242D01*
X-18679Y51259D01*
X-18614Y51272D01*
X-18545Y51286D01*
X-18406Y51302D01*
X-18341Y51311D01*
X-18278Y51313D01*
X-18221Y51316D01*
X-18171Y51319D01*
X-18128Y51322D01*
X-18112D01*
X-18098D01*
X-18087D01*
X-18079D01*
X-18073D01*
X-18070D01*
X-17959Y51319D01*
D02*
G37*
G36*
X-17516Y48802D02*
X-17440Y48774D01*
X-17366Y48747D01*
X-17295Y48723D01*
X-17232Y48704D01*
X-17205Y48695D01*
X-17180Y48687D01*
X-17159Y48682D01*
X-17140Y48676D01*
X-17126Y48671D01*
X-17112Y48668D01*
X-17107Y48665D01*
X-17104D01*
X-17178Y48643D01*
X-17252Y48622D01*
X-17320Y48600D01*
X-17383Y48581D01*
X-17413Y48570D01*
X-17437Y48562D01*
X-17459Y48553D01*
X-17478Y48548D01*
X-17494Y48542D01*
X-17505Y48537D01*
X-17514Y48534D01*
X-17516D01*
X-19348Y47879D01*
Y49482D01*
X-17516Y48802D01*
D02*
G37*
G36*
X-17918Y43858D02*
X-17961Y43863D01*
X-18002Y43869D01*
X-18076Y43888D01*
X-18142Y43915D01*
X-18171Y43929D01*
X-18196Y43942D01*
X-18221Y43956D01*
X-18240Y43970D01*
X-18256Y43983D01*
X-18272Y43994D01*
X-18283Y44003D01*
X-18292Y44011D01*
X-18294Y44013D01*
X-18297Y44016D01*
X-18322Y44043D01*
X-18346Y44074D01*
X-18365Y44104D01*
X-18382Y44133D01*
X-18406Y44196D01*
X-18423Y44251D01*
X-18434Y44303D01*
X-18436Y44322D01*
X-18439Y44341D01*
X-18442Y44355D01*
Y44377D01*
X-18439Y44420D01*
X-18434Y44461D01*
X-18425Y44499D01*
X-18415Y44535D01*
X-18384Y44600D01*
X-18368Y44630D01*
X-18352Y44658D01*
X-18335Y44679D01*
X-18319Y44701D01*
X-18303Y44721D01*
X-18289Y44734D01*
X-18278Y44745D01*
X-18270Y44756D01*
X-18264Y44759D01*
X-18262Y44761D01*
X-18215Y44794D01*
X-18161Y44822D01*
X-18103Y44841D01*
X-18046Y44857D01*
X-17997Y44868D01*
X-17975Y44871D01*
X-17956Y44873D01*
X-17940Y44876D01*
X-17929Y44879D01*
X-17920D01*
X-17918D01*
Y43858D01*
D02*
G37*
G36*
X-17686Y40404D02*
X-17626Y40402D01*
X-17568Y40393D01*
X-17516Y40383D01*
X-17467Y40372D01*
X-17424Y40358D01*
X-17383Y40344D01*
X-17350Y40331D01*
X-17317Y40314D01*
X-17290Y40301D01*
X-17268Y40287D01*
X-17249Y40276D01*
X-17235Y40265D01*
X-17224Y40257D01*
X-17219Y40254D01*
X-17216Y40251D01*
X-17186Y40221D01*
X-17159Y40191D01*
X-17134Y40159D01*
X-17115Y40129D01*
X-17099Y40096D01*
X-17085Y40063D01*
X-17063Y40003D01*
X-17050Y39951D01*
X-17047Y39927D01*
X-17044Y39908D01*
X-17041Y39891D01*
Y39869D01*
X-17044Y39826D01*
X-17050Y39787D01*
X-17058Y39746D01*
X-17069Y39711D01*
X-17096Y39645D01*
X-17129Y39591D01*
X-17142Y39566D01*
X-17159Y39544D01*
X-17172Y39528D01*
X-17186Y39512D01*
X-17197Y39501D01*
X-17205Y39492D01*
X-17211Y39487D01*
X-17213Y39484D01*
X-17249Y39457D01*
X-17287Y39435D01*
X-17328Y39413D01*
X-17369Y39397D01*
X-17456Y39370D01*
X-17544Y39351D01*
X-17582Y39345D01*
X-17620Y39340D01*
X-17653Y39337D01*
X-17683Y39334D01*
X-17707Y39331D01*
X-17724D01*
X-17738D01*
X-17740D01*
X-17803Y39334D01*
X-17863Y39337D01*
X-17918Y39345D01*
X-17969Y39356D01*
X-18016Y39367D01*
X-18060Y39381D01*
X-18098Y39394D01*
X-18133Y39408D01*
X-18163Y39421D01*
X-18191Y39435D01*
X-18213Y39449D01*
X-18232Y39460D01*
X-18245Y39471D01*
X-18256Y39479D01*
X-18262Y39482D01*
X-18264Y39484D01*
X-18294Y39514D01*
X-18322Y39544D01*
X-18346Y39577D01*
X-18365Y39610D01*
X-18382Y39643D01*
X-18395Y39673D01*
X-18417Y39735D01*
X-18431Y39787D01*
X-18434Y39812D01*
X-18436Y39831D01*
X-18439Y39847D01*
Y39869D01*
X-18436Y39910D01*
X-18431Y39951D01*
X-18423Y39989D01*
X-18412Y40025D01*
X-18384Y40090D01*
X-18352Y40148D01*
X-18335Y40170D01*
X-18319Y40191D01*
X-18305Y40208D01*
X-18292Y40224D01*
X-18281Y40235D01*
X-18272Y40243D01*
X-18267Y40249D01*
X-18264Y40251D01*
X-18229Y40279D01*
X-18193Y40303D01*
X-18152Y40322D01*
X-18112Y40341D01*
X-18068Y40358D01*
X-18024Y40369D01*
X-17942Y40388D01*
X-17904Y40393D01*
X-17868Y40399D01*
X-17836Y40402D01*
X-17806Y40404D01*
X-17784Y40407D01*
X-17765D01*
X-17754D01*
X-17751D01*
X-17686Y40404D01*
D02*
G37*
G36*
X-18567Y38398D02*
X-18532Y38395D01*
X-18464Y38379D01*
X-18406Y38357D01*
X-18357Y38332D01*
X-18319Y38308D01*
X-18292Y38286D01*
X-18283Y38278D01*
X-18275Y38269D01*
X-18272Y38267D01*
X-18270Y38264D01*
X-18248Y38237D01*
X-18232Y38204D01*
X-18215Y38171D01*
X-18202Y38136D01*
X-18180Y38059D01*
X-18166Y37983D01*
X-18161Y37947D01*
X-18155Y37912D01*
X-18152Y37882D01*
Y37854D01*
X-18150Y37833D01*
Y37153D01*
X-19051D01*
Y37876D01*
X-19048Y37909D01*
Y37942D01*
X-19045Y37969D01*
X-19042Y37997D01*
X-19040Y38018D01*
Y38037D01*
X-19034Y38070D01*
X-19029Y38092D01*
X-19026Y38106D01*
Y38108D01*
X-19010Y38155D01*
X-18988Y38196D01*
X-18963Y38231D01*
X-18939Y38264D01*
X-18917Y38286D01*
X-18898Y38305D01*
X-18884Y38316D01*
X-18879Y38319D01*
X-18835Y38346D01*
X-18789Y38365D01*
X-18745Y38381D01*
X-18701Y38390D01*
X-18666Y38395D01*
X-18636Y38401D01*
X-18625D01*
X-18617D01*
X-18611D01*
X-18608D01*
X-18567Y38398D01*
D02*
G37*
G36*
X-17828Y35422D02*
X-17904Y35414D01*
X-17978Y35403D01*
X-18046Y35389D01*
X-18109Y35370D01*
X-18166Y35351D01*
X-18218Y35329D01*
X-18264Y35310D01*
X-18305Y35288D01*
X-18343Y35267D01*
X-18373Y35247D01*
X-18398Y35228D01*
X-18420Y35215D01*
X-18434Y35204D01*
X-18442Y35195D01*
X-18444Y35193D01*
X-18488Y35149D01*
X-18526Y35100D01*
X-18562Y35051D01*
X-18589Y35002D01*
X-18614Y34953D01*
X-18636Y34901D01*
X-18652Y34854D01*
X-18666Y34808D01*
X-18674Y34764D01*
X-18682Y34723D01*
X-18688Y34688D01*
X-18693Y34655D01*
Y34630D01*
X-18696Y34611D01*
Y35425D01*
X-17746D01*
X-17828Y35422D01*
D02*
G37*
G36*
X-17918Y34076D02*
X-17961Y34082D01*
X-18002Y34087D01*
X-18076Y34106D01*
X-18142Y34133D01*
X-18171Y34147D01*
X-18196Y34161D01*
X-18221Y34174D01*
X-18240Y34188D01*
X-18256Y34202D01*
X-18272Y34213D01*
X-18283Y34221D01*
X-18292Y34229D01*
X-18294Y34232D01*
X-18297Y34234D01*
X-18322Y34262D01*
X-18346Y34292D01*
X-18365Y34322D01*
X-18382Y34352D01*
X-18406Y34415D01*
X-18423Y34469D01*
X-18434Y34521D01*
X-18436Y34540D01*
X-18439Y34559D01*
X-18442Y34573D01*
Y34595D01*
X-18439Y34639D01*
X-18434Y34679D01*
X-18425Y34718D01*
X-18415Y34753D01*
X-18384Y34819D01*
X-18368Y34849D01*
X-18352Y34876D01*
X-18335Y34898D01*
X-18319Y34920D01*
X-18303Y34939D01*
X-18289Y34953D01*
X-18278Y34963D01*
X-18270Y34974D01*
X-18264Y34977D01*
X-18262Y34980D01*
X-18215Y35013D01*
X-18161Y35040D01*
X-18103Y35059D01*
X-18046Y35075D01*
X-17997Y35086D01*
X-17975Y35089D01*
X-17956Y35092D01*
X-17940Y35094D01*
X-17929Y35097D01*
X-17920D01*
X-17918D01*
Y34076D01*
D02*
G37*
G36*
X-17680Y33151D02*
X-17620Y33148D01*
X-17566Y33140D01*
X-17514Y33129D01*
X-17467Y33118D01*
X-17424Y33107D01*
X-17383Y33093D01*
X-17350Y33080D01*
X-17317Y33063D01*
X-17290Y33050D01*
X-17268Y33039D01*
X-17249Y33028D01*
X-17235Y33017D01*
X-17224Y33009D01*
X-17219Y33006D01*
X-17216Y33003D01*
X-17186Y32976D01*
X-17159Y32946D01*
X-17134Y32916D01*
X-17115Y32886D01*
X-17099Y32856D01*
X-17085Y32829D01*
X-17063Y32774D01*
X-17050Y32725D01*
X-17047Y32706D01*
X-17044Y32687D01*
X-17041Y32673D01*
Y32654D01*
X-17044Y32607D01*
X-17052Y32566D01*
X-17063Y32526D01*
X-17079Y32487D01*
X-17096Y32452D01*
X-17118Y32419D01*
X-17137Y32389D01*
X-17161Y32362D01*
X-17183Y32340D01*
X-17205Y32318D01*
X-17224Y32299D01*
X-17241Y32285D01*
X-17257Y32274D01*
X-17268Y32266D01*
X-17276Y32261D01*
X-17279Y32258D01*
X-17309Y32242D01*
X-17342Y32228D01*
X-17377Y32217D01*
X-17415Y32209D01*
X-17494Y32193D01*
X-17571Y32182D01*
X-17609Y32179D01*
X-17642Y32176D01*
X-17675Y32173D01*
X-17699D01*
X-17724Y32171D01*
X-17740D01*
X-17751D01*
X-17754D01*
X-17814Y32173D01*
X-17871Y32176D01*
X-17926Y32184D01*
X-17975Y32193D01*
X-18019Y32206D01*
X-18062Y32217D01*
X-18101Y32231D01*
X-18133Y32244D01*
X-18163Y32258D01*
X-18191Y32272D01*
X-18213Y32285D01*
X-18232Y32296D01*
X-18245Y32304D01*
X-18256Y32313D01*
X-18262Y32315D01*
X-18264Y32318D01*
X-18294Y32345D01*
X-18322Y32375D01*
X-18346Y32405D01*
X-18368Y32436D01*
X-18384Y32465D01*
X-18398Y32493D01*
X-18420Y32547D01*
X-18434Y32596D01*
X-18436Y32616D01*
X-18439Y32635D01*
X-18442Y32648D01*
Y32667D01*
X-18439Y32706D01*
X-18434Y32741D01*
X-18425Y32774D01*
X-18415Y32807D01*
X-18387Y32864D01*
X-18357Y32916D01*
X-18324Y32957D01*
X-18311Y32973D01*
X-18297Y32987D01*
X-18286Y32998D01*
X-18278Y33006D01*
X-18272Y33009D01*
X-18270Y33011D01*
X-18237Y33036D01*
X-18199Y33058D01*
X-18158Y33077D01*
X-18117Y33093D01*
X-18030Y33118D01*
X-17942Y33137D01*
X-17904Y33143D01*
X-17866Y33145D01*
X-17830Y33148D01*
X-17800Y33151D01*
X-17778Y33153D01*
X-17759D01*
X-17748D01*
X-17743D01*
X-17680Y33151D01*
D02*
G37*
G36*
X-17593Y31092D02*
X-17522Y31087D01*
X-17462Y31079D01*
X-17410Y31071D01*
X-17388Y31065D01*
X-17372Y31060D01*
X-17355Y31054D01*
X-17342Y31051D01*
X-17333Y31049D01*
X-17325Y31046D01*
X-17323Y31043D01*
X-17320D01*
X-17276Y31021D01*
X-17238Y30994D01*
X-17205Y30964D01*
X-17178Y30937D01*
X-17156Y30909D01*
X-17140Y30887D01*
X-17129Y30874D01*
X-17126Y30871D01*
Y30868D01*
X-17101Y30822D01*
X-17085Y30778D01*
X-17071Y30735D01*
X-17063Y30694D01*
X-17058Y30658D01*
X-17055Y30634D01*
Y30609D01*
X-17058Y30560D01*
X-17066Y30514D01*
X-17077Y30473D01*
X-17090Y30440D01*
X-17101Y30413D01*
X-17112Y30391D01*
X-17120Y30380D01*
X-17123Y30374D01*
X-17151Y30342D01*
X-17183Y30314D01*
X-17213Y30292D01*
X-17243Y30276D01*
X-17271Y30262D01*
X-17295Y30254D01*
X-17309Y30252D01*
X-17314Y30249D01*
X-17331Y30246D01*
X-17353Y30243D01*
X-17402Y30240D01*
X-17456Y30235D01*
X-17511D01*
X-17560Y30232D01*
X-17582D01*
X-17604D01*
X-17620D01*
X-17631D01*
X-17639D01*
X-17642D01*
X-18655D01*
Y31095D01*
X-17675D01*
X-17593Y31092D01*
D02*
G37*
%LPC*%
G36*
X52307Y11538D02*
X51002D01*
X52261D01*
X52192Y11536D01*
X52124Y11533D01*
X52059Y11525D01*
X51999Y11514D01*
X51938Y11503D01*
X51884Y11489D01*
X51832Y11476D01*
X51786Y11462D01*
X51745Y11446D01*
X51706Y11432D01*
X51674Y11418D01*
X51646Y11407D01*
X51625Y11396D01*
X51608Y11388D01*
X51597Y11386D01*
X51595Y11383D01*
X51543Y11353D01*
X51494Y11317D01*
X51447Y11282D01*
X51406Y11244D01*
X51365Y11203D01*
X51330Y11164D01*
X51297Y11126D01*
X51267Y11088D01*
X51242Y11050D01*
X51218Y11017D01*
X51199Y10987D01*
X51182Y10960D01*
X51171Y10938D01*
X51163Y10921D01*
X51158Y10910D01*
X51155Y10908D01*
X51128Y10848D01*
X51106Y10788D01*
X51084Y10728D01*
X51068Y10668D01*
X51040Y10553D01*
X51029Y10498D01*
X51021Y10446D01*
X51016Y10400D01*
X51010Y10356D01*
X51007Y10318D01*
X51005Y10285D01*
X51002Y10258D01*
Y10261D01*
Y8934D01*
Y10223D01*
X51005Y10154D01*
X51007Y10086D01*
X51016Y10023D01*
X51027Y9961D01*
X51038Y9903D01*
X51051Y9846D01*
X51065Y9794D01*
X51078Y9747D01*
X51092Y9704D01*
X51106Y9666D01*
X51120Y9633D01*
X51130Y9603D01*
X51141Y9581D01*
X51149Y9565D01*
X51152Y9554D01*
X51155Y9551D01*
X51185Y9496D01*
X51221Y9444D01*
X51256Y9398D01*
X51291Y9352D01*
X51330Y9311D01*
X51368Y9275D01*
X51406Y9240D01*
X51442Y9210D01*
X51477Y9182D01*
X51510Y9158D01*
X51540Y9139D01*
X51564Y9122D01*
X51584Y9109D01*
X51600Y9100D01*
X51611Y9095D01*
X51614Y9092D01*
X51671Y9065D01*
X51731Y9041D01*
X51788Y9019D01*
X51846Y9002D01*
X51906Y8986D01*
X51960Y8972D01*
X52015Y8961D01*
X52064Y8953D01*
X52110Y8948D01*
X52154Y8942D01*
X52192Y8940D01*
X52225Y8937D01*
X52252Y8934D01*
X51002D01*
X52288D01*
X52389Y8940D01*
X52487Y8950D01*
X52577Y8964D01*
X52618Y8975D01*
X52659Y8983D01*
X52695Y8991D01*
X52725Y9002D01*
X52755Y9010D01*
X52777Y9016D01*
X52798Y9024D01*
X52812Y9027D01*
X52820Y9032D01*
X52823D01*
X52921Y9073D01*
X53014Y9120D01*
X53099Y9169D01*
X53140Y9193D01*
X53175Y9215D01*
X53208Y9237D01*
X53238Y9259D01*
X53265Y9275D01*
X53287Y9292D01*
X53306Y9305D01*
X53320Y9316D01*
X53328Y9322D01*
X53331Y9324D01*
Y9032D01*
Y10261D01*
X52263D01*
Y9963D01*
X53003D01*
Y9491D01*
X52960Y9455D01*
X52910Y9425D01*
X52859Y9395D01*
X52807Y9368D01*
X52760Y9346D01*
X52741Y9335D01*
X52725Y9327D01*
X52708Y9322D01*
X52697Y9316D01*
X52692Y9313D01*
X52689D01*
X52613Y9286D01*
X52536Y9267D01*
X52465Y9251D01*
X52403Y9243D01*
X52372Y9240D01*
X52348Y9237D01*
X52326Y9234D01*
X52307D01*
X52291Y9232D01*
X52269D01*
X52176Y9237D01*
X52089Y9248D01*
X52009Y9267D01*
X51971Y9275D01*
X51938Y9286D01*
X51908Y9297D01*
X51881Y9305D01*
X51857Y9316D01*
X51835Y9324D01*
X51818Y9330D01*
X51807Y9335D01*
X51799Y9341D01*
X51797D01*
X51755Y9363D01*
X51717Y9387D01*
X51652Y9439D01*
X51595Y9496D01*
X51545Y9551D01*
X51510Y9600D01*
X51494Y9622D01*
X51482Y9638D01*
X51472Y9655D01*
X51466Y9666D01*
X51463Y9674D01*
X51461Y9677D01*
X51423Y9767D01*
X51395Y9862D01*
X51373Y9955D01*
X51360Y10045D01*
X51357Y10086D01*
X51351Y10124D01*
X51349Y10157D01*
Y10187D01*
X51346Y10209D01*
Y10228D01*
Y10239D01*
Y10242D01*
X51351Y10343D01*
X51362Y10438D01*
X51376Y10523D01*
X51384Y10564D01*
X51395Y10599D01*
X51403Y10632D01*
X51412Y10662D01*
X51420Y10687D01*
X51428Y10708D01*
X51433Y10728D01*
X51439Y10739D01*
X51442Y10747D01*
Y10750D01*
X51463Y10799D01*
X51488Y10845D01*
X51515Y10889D01*
X51540Y10924D01*
X51562Y10954D01*
X51581Y10979D01*
X51592Y10992D01*
X51597Y10998D01*
X51638Y11039D01*
X51685Y11074D01*
X51728Y11107D01*
X51772Y11134D01*
X51810Y11156D01*
X51840Y11170D01*
X51851Y11175D01*
X51859Y11181D01*
X51865Y11184D01*
X51868D01*
X51933Y11208D01*
X51999Y11225D01*
X52067Y11238D01*
X52127Y11246D01*
X52157Y11249D01*
X52181Y11252D01*
X52206D01*
X52225Y11254D01*
X52263D01*
X52332Y11252D01*
X52397Y11244D01*
X52454Y11233D01*
X52506Y11222D01*
X52547Y11208D01*
X52566Y11203D01*
X52580Y11197D01*
X52591Y11192D01*
X52599Y11189D01*
X52605Y11186D01*
X52607D01*
X52662Y11159D01*
X52711Y11132D01*
X52752Y11102D01*
X52788Y11074D01*
X52812Y11047D01*
X52831Y11028D01*
X52845Y11014D01*
X52847Y11009D01*
X52878Y10965D01*
X52905Y10916D01*
X52929Y10867D01*
X52951Y10818D01*
X52968Y10774D01*
X52973Y10755D01*
X52979Y10741D01*
X52984Y10728D01*
X52987Y10717D01*
X52990Y10711D01*
Y10708D01*
X53293Y10790D01*
X53265Y10881D01*
X53235Y10962D01*
X53219Y10998D01*
X53202Y11033D01*
X53189Y11063D01*
X53172Y11091D01*
X53159Y11118D01*
X53145Y11140D01*
X53132Y11159D01*
X53123Y11175D01*
X53112Y11186D01*
X53107Y11195D01*
X53104Y11200D01*
X53101Y11203D01*
X53050Y11260D01*
X52995Y11309D01*
X52938Y11350D01*
X52880Y11386D01*
X52831Y11413D01*
X52809Y11424D01*
X52790Y11432D01*
X52777Y11440D01*
X52766Y11446D01*
X52757Y11448D01*
X52755D01*
X52670Y11478D01*
X52586Y11500D01*
X52501Y11517D01*
X52424Y11528D01*
X52389Y11530D01*
X52359Y11533D01*
X52332Y11536D01*
X52307Y11538D01*
D02*
G37*
G36*
X58447Y11495D02*
X56364D01*
Y8975D01*
X58447D01*
Y9035D01*
Y8975D01*
X57273D01*
X57355Y8978D01*
X57431Y8980D01*
X57499Y8989D01*
X57560Y8997D01*
X57584Y8999D01*
X57606Y9002D01*
X57628Y9008D01*
X57644Y9010D01*
X57658Y9013D01*
X57666D01*
X57671Y9016D01*
X57674D01*
X57737Y9035D01*
X57797Y9054D01*
X57849Y9076D01*
X57893Y9095D01*
X57928Y9114D01*
X57955Y9128D01*
X57972Y9139D01*
X57974Y9142D01*
X57977D01*
X58024Y9177D01*
X58067Y9212D01*
X58105Y9251D01*
X58138Y9289D01*
X58168Y9322D01*
X58187Y9346D01*
X58196Y9357D01*
X58201Y9365D01*
X58206Y9368D01*
Y9371D01*
X58245Y9428D01*
X58277Y9488D01*
X58307Y9551D01*
X58332Y9608D01*
X58351Y9660D01*
X58359Y9682D01*
X58368Y9701D01*
X58370Y9715D01*
X58376Y9726D01*
X58378Y9734D01*
Y9737D01*
X58400Y9824D01*
X58417Y9911D01*
X58430Y9996D01*
X58439Y10075D01*
X58441Y10111D01*
X58444Y10143D01*
Y10173D01*
X58447Y10198D01*
Y9035D01*
Y10198D01*
Y10247D01*
X58441Y10370D01*
X58439Y10427D01*
X58430Y10482D01*
X58422Y10534D01*
X58414Y10583D01*
X58406Y10629D01*
X58398Y10673D01*
X58387Y10711D01*
X58378Y10744D01*
X58370Y10774D01*
X58362Y10799D01*
X58354Y10818D01*
X58351Y10834D01*
X58346Y10842D01*
Y10845D01*
X58305Y10938D01*
X58258Y11022D01*
X58234Y11061D01*
X58209Y11096D01*
X58185Y11129D01*
X58160Y11159D01*
X58138Y11186D01*
X58116Y11208D01*
X58097Y11230D01*
X58081Y11246D01*
X58067Y11260D01*
X58056Y11268D01*
X58051Y11274D01*
X58048Y11276D01*
X57988Y11323D01*
X57925Y11361D01*
X57865Y11391D01*
X57808Y11416D01*
X57756Y11435D01*
X57734Y11440D01*
X57715Y11446D01*
X57701Y11451D01*
X57691Y11454D01*
X57682Y11456D01*
X57680D01*
X57650Y11462D01*
X57617Y11470D01*
X57543Y11478D01*
X57469Y11487D01*
X57396Y11489D01*
X57363Y11492D01*
X57330D01*
X57303Y11495D01*
X58447D01*
D02*
G37*
G36*
X55804D02*
X53819D01*
Y8975D01*
X55804D01*
Y11495D01*
D02*
G37*
%LPD*%
G36*
X57328Y11195D02*
X57374Y11192D01*
X57418Y11189D01*
X57456Y11186D01*
X57491Y11181D01*
X57524Y11175D01*
X57551Y11173D01*
X57576Y11167D01*
X57598Y11162D01*
X57614Y11156D01*
X57630Y11153D01*
X57641Y11151D01*
X57650Y11148D01*
X57652Y11145D01*
X57655D01*
X57691Y11129D01*
X57723Y11113D01*
X57783Y11069D01*
X57838Y11022D01*
X57884Y10973D01*
X57920Y10930D01*
X57936Y10910D01*
X57947Y10894D01*
X57958Y10878D01*
X57966Y10867D01*
X57969Y10861D01*
X57972Y10859D01*
X57994Y10818D01*
X58015Y10771D01*
X58048Y10676D01*
X58070Y10575D01*
X58086Y10476D01*
X58092Y10430D01*
X58097Y10389D01*
X58100Y10351D01*
Y10318D01*
X58103Y10291D01*
Y10269D01*
Y10258D01*
Y10253D01*
X58100Y10149D01*
X58092Y10056D01*
X58086Y10012D01*
X58081Y9974D01*
X58075Y9936D01*
X58070Y9903D01*
X58062Y9873D01*
X58056Y9846D01*
X58051Y9821D01*
X58046Y9802D01*
X58040Y9786D01*
X58037Y9775D01*
X58034Y9769D01*
Y9767D01*
X58007Y9696D01*
X57977Y9633D01*
X57947Y9578D01*
X57920Y9532D01*
X57893Y9496D01*
X57871Y9469D01*
X57857Y9453D01*
X57854Y9450D01*
X57852Y9447D01*
X57819Y9417D01*
X57781Y9390D01*
X57742Y9368D01*
X57707Y9349D01*
X57674Y9335D01*
X57650Y9324D01*
X57639Y9322D01*
X57630Y9319D01*
X57628Y9316D01*
X57625D01*
X57568Y9303D01*
X57505Y9292D01*
X57439Y9284D01*
X57377Y9278D01*
X57322Y9275D01*
X57297D01*
X57276Y9273D01*
X56697D01*
Y11197D01*
X57278D01*
X57328Y11195D01*
D02*
G37*
G36*
X55485Y9516D02*
X54161Y11495D01*
X55485D01*
Y9516D01*
D02*
G37*
G36*
X55460Y8975D02*
X54139D01*
Y10951D01*
X55460Y8975D01*
D02*
G37*
D10*
X54823Y5512D02*
X54085Y5938D01*
Y5086D01*
X54823Y5512D01*
X2559Y40846D02*
X1821Y41273D01*
Y40420D01*
X2559Y40846D01*
X-11614Y29134D02*
X-12352Y29560D01*
Y28708D01*
X-11614Y29134D01*
X31004Y60728D02*
X30266Y61155D01*
Y60302D01*
X31004Y60728D01*
D11*
X-6102Y37402D02*
X-6547Y38325D01*
X-7546Y38553D01*
X-8348Y37914D01*
Y36889D01*
X-7546Y36250D01*
X-6547Y36478D01*
X-6102Y37402D01*
D12*
X51575Y8661D02*
X67716D01*
X51181Y8268D02*
X51575Y8661D01*
X50394Y18504D02*
X66535D01*
X50000Y18110D02*
X50394Y18504D01*
X48819Y27953D02*
X49213Y28346D01*
X65354D01*
X-1969Y60433D02*
Y62402D01*
X-2953Y61417D02*
X-984D01*
X55512Y-32480D02*
Y-30512D01*
X54527Y-31496D02*
X56496D01*
X-3543Y-43504D02*
Y-41535D01*
X-4528Y-42520D02*
X-2559D01*
X43504Y-17126D02*
Y-8465D01*
X47441D01*
Y-17126D02*
Y-8465D01*
X43504Y-17126D02*
X47441D01*
X24409Y-14961D02*
X33071D01*
X24409D02*
Y-10236D01*
X33071D01*
Y-14961D02*
Y-10236D01*
X24409Y-10236D02*
X33071D01*
X24409D02*
Y-6299D01*
X33071D01*
Y-10236D02*
Y-6299D01*
X10630Y-43701D02*
X14567D01*
X2953Y59646D02*
X11614D01*
X2953D02*
Y63583D01*
X11614D01*
Y59646D02*
Y63583D01*
X6791Y33661D02*
X15453D01*
X6791D02*
Y37598D01*
X15453D01*
Y33661D02*
Y37598D01*
X16929Y-43701D02*
X20866D01*
X2953Y54921D02*
X11614D01*
X2953D02*
Y59646D01*
X11614D01*
Y54921D02*
Y59646D01*
X51378Y-17126D02*
Y-8465D01*
X47441Y-17126D02*
X51378D01*
X47441D02*
Y-8465D01*
X51378D01*
X-15748Y-56299D02*
X-7087D01*
X-15748D02*
Y-51575D01*
X-7087D01*
Y-56299D02*
Y-51575D01*
X57874Y-16535D02*
X66535D01*
Y-21260D02*
Y-16535D01*
X57874Y-21260D02*
X66535D01*
X57874D02*
Y-16535D01*
X-13681Y61811D02*
Y70472D01*
X-8957D01*
Y61811D02*
Y70472D01*
X-13681Y61811D02*
X-8957D01*
X35039Y50295D02*
Y58957D01*
X30315Y50295D02*
X35039D01*
X30315D02*
Y58957D01*
X35039D01*
X16339Y54921D02*
Y63583D01*
X11614Y54921D02*
X16339D01*
X11614D02*
Y63583D01*
X16339D01*
D13*
X53347Y-1969D02*
Y1969D01*
X41142Y-1969D02*
Y1969D01*
X53347D01*
X41142Y-1969D02*
X53347D01*
X3051Y44488D02*
Y48031D01*
X15256Y44488D02*
Y48031D01*
X3051Y44488D02*
X15256D01*
X3051Y48031D02*
X15256D01*
X591Y33465D02*
Y48031D01*
X-11220Y33465D02*
Y48031D01*
X591D01*
X-11220Y33465D02*
X591D01*
X17224Y53248D02*
X20472D01*
X17224D02*
Y57185D01*
X26181Y53248D02*
X29429D01*
Y57185D01*
M02*
