M48
;Layer_Color=9474304
;FILE_FORMAT=2:5
INCH,TZ
;TYPE=PLATED
T1F00S00C0.00787
T2F00S00C0.01181
%
T01
X-11885Y-38976
T02
X-15729Y-34800
X-7087Y-36122
X-1580Y-34703
X-2362Y-40551
X2362Y-38780
X17317Y-34703
X15464Y-29528
X20467Y-28404
X23617
X25191Y-25255
X22042
X20467Y-22105
X23617
X25191Y-18955
X22042Y-31554
X-2362Y-29528
X-7677Y-32382
X-15754Y-31554
X-18903
X-15748Y-27165
X-11122Y-24409
X-24508Y-28543
X-28352Y-25255
X-33071Y-18799
X-34350Y-14370
X-28051Y-11614
X-24508Y-10138
X-36614Y-6299
X-39548Y-8038
X-37801Y6242
X-39376Y9391
X-36226
X-37801Y12541
X-36226Y15690
X-33077
X-31502Y18840
X-28352
X-25203
X-26777Y21990
X-23628
X-22053Y25139
X-18903
X-20478Y28289
X-17328
X-14179
X-12604Y31438
X-9454
X-6305
X-7880Y34588
X-11029
X-14179
X-17328
X-20478
X-18903Y31438
X-15754
X-22053
X-25203
X-26777Y28289
X-23628
X-25203Y25139
X-28352
X-31502
X-33077Y21990
X-29927
X-34651Y18840
X-27067Y15650
Y8760
X-12604Y37738
X-9454
X-6Y31438
X7868Y28289
X11018
X14168
X17317
X20467
X23617
X25191Y25139
X28341
X26766Y21990
X29916
X31490Y18840
X28341
X25191
X23617Y21990
X20467
X22042Y25139
X18892
X15742
Y31438
X18892
X22042
X12992Y37006
X7874Y37992
X26766Y15690
X29916
X33065
X34640Y12541
X31490
X28341
X29916Y9391
X33065
X36215
X31490Y6242
X29916Y3092
Y-3207
X37790Y-6357
M30
