M48
;Layer_Color=9474304
;FILE_FORMAT=2:5
INCH,TZ
;TYPE=PLATED
T1F00S00C0.01181
T2F00S00C0.01575
T3F00S00C0.03150
%
T01
X-16118Y-70275
X-12968
X-9819
X-6669
X-3519
X-5094Y-73425
X-8244
X2780Y-70275
X5930
X9079
X12229
X15378
X18528
X21678
X20103Y-60826
X23252
X26402
X27977Y-57677
X31126
X24827
X21678
X18528
X15378
X12229
X9079
X5930
X2780
X-370
X-3519
X-1945Y-54527
X1205
X4355
X7504
X5930Y-51378
X2780
X-370
X-3519
X-1945Y-48228
X1205
X4355
X7504
X5930Y-45079
X2780
X-370
X-1945Y-41929
X1205
X4355
X7504
X10654
X13804
X12229Y-38779
X13804Y-35630
X12229Y-32480
X13804Y-29330
X12229Y-26181
X13804Y-23031
X16953
X18528Y-19882
X15378
X20103Y-16732
X22835Y-12598
X40945Y-12795
X37598Y-5610
Y886
X37426Y5315
X35851Y8465
X39000
X40575Y11614
X37426
X34276
X31126
X27977
X24827
X21678
X20103Y14764
X23252
X26402
X29552
X32701
X35851
X39000
X40575Y17914
X37426
X34276
X31126
X27977
X24827
X21678
X18528
X16953Y21063
X20103
X23252
X21678Y24213
X18528
X15378
X12229
X9079
X5930
X2780
X-370
X-5315Y25197
Y34646
X4355Y33662
X5930Y30512
X2780
X4355Y27363
X7504
X10654
X13804
X16953
X18528Y30512
X16953Y33662
X18528Y36811
X13091Y31693
X13804Y21063
X42150
X45300
X48449
X51599
X54748
X53174Y24213
X50024
X46874
X48449Y27363
X51599
X50024Y30512
Y36811
X53174Y11614
X56323
X54748Y8465
X56323Y5315
X59473
X62622
X65772
X64197Y2166
X61048
X57898
X54748
X56323Y-984
X59473
X62622
X65772
X61048Y-4134
X57898
X59473Y-7283
X57898Y-10433
X61048
X69193Y-11024
X53937Y-12795
X54748Y-16732
X49508Y-18406
X51599Y-23031
X53174Y-26181
Y-32480
X54748Y-35630
X16953Y-60826
X13804
X10654
X7504
X4355
X1205
X-1945
X7504Y-73425
X-17693Y-67126
X-5315Y37795
X16953Y39961
X18528Y43111
X21678
X20103Y46260
X16953
X18528Y49410
X16535Y54921
X23327Y55413
X27977Y49410
X36417Y52658
X42150Y52559
X43725Y49410
X40575
X42150Y46260
X45300
X48449
X50024Y43111
X46874
X48449Y39961
T02
X47244Y10925
T03
X-14961Y-46850
X-7874
X28346Y-2362
Y4724
X63386Y11811
X62205Y21654
X61024Y31496
X58661Y-25984
X65748
X-5413Y66142
X-17224
M30
