G04*
G04 #@! TF.GenerationSoftware,Altium Limited,Altium Designer,20.0.13 (296)*
G04*
G04 Layer_Physical_Order=2*
G04 Layer_Color=16711680*
%FSLAX25Y25*%
%MOIN*%
G70*
G01*
G75*
%ADD11C,0.00591*%
G04:AMPARAMS|DCode=15|XSize=21.65mil|YSize=21.65mil|CornerRadius=5.41mil|HoleSize=0mil|Usage=FLASHONLY|Rotation=90.000|XOffset=0mil|YOffset=0mil|HoleType=Round|Shape=RoundedRectangle|*
%AMROUNDEDRECTD15*
21,1,0.02165,0.01083,0,0,90.0*
21,1,0.01083,0.02165,0,0,90.0*
1,1,0.01083,0.00541,0.00541*
1,1,0.01083,0.00541,-0.00541*
1,1,0.01083,-0.00541,-0.00541*
1,1,0.01083,-0.00541,0.00541*
%
%ADD15ROUNDEDRECTD15*%
%ADD17R,0.03740X0.03819*%
%ADD18R,0.04528X0.03819*%
%ADD19R,0.03740X0.03347*%
%ADD20R,0.04528X0.03347*%
%ADD39C,0.02362*%
%ADD40C,0.01575*%
G36*
X-34843Y-3892D02*
Y-4744D01*
X-33285D01*
Y-6349D01*
X-33365Y-6365D01*
X-33739Y-6615D01*
X-33989Y-6989D01*
X-34077Y-7431D01*
Y-8514D01*
X-33989Y-8955D01*
X-33739Y-9330D01*
X-33365Y-9580D01*
X-32923Y-9668D01*
X-31841D01*
X-31399Y-9580D01*
X-31025Y-9330D01*
X-30837Y-9049D01*
X-30413Y-8998D01*
X-29990Y-9049D01*
X-29802Y-9330D01*
X-29752Y-9363D01*
X-29623Y-10257D01*
X-30022Y-10711D01*
X-38119D01*
X-38473Y-10475D01*
X-39010Y-10368D01*
X-39548Y-10475D01*
X-39566Y-10487D01*
X-40479Y-10181D01*
X-40519Y-10046D01*
X-41271Y-6279D01*
X-41442Y-4650D01*
X-41403Y-4569D01*
X-40905Y-4015D01*
X-40828Y-3968D01*
X-37402D01*
X-37323Y-3952D01*
X-37244Y-3960D01*
X-36860Y-3922D01*
X-36634Y-3854D01*
X-36403Y-3808D01*
X-35693Y-3514D01*
X-35630Y-3471D01*
X-34843Y-3892D01*
D02*
G37*
G36*
X35173Y-3166D02*
X35173Y-3166D01*
X35693Y-3514D01*
X35693Y-3514D01*
X36403Y-3808D01*
X36634Y-3854D01*
X36860Y-3922D01*
X37244Y-3960D01*
X37323Y-3952D01*
X37402Y-3968D01*
X40828D01*
X40905Y-4015D01*
X41403Y-4569D01*
X41442Y-4650D01*
X41394Y-5111D01*
X41185Y-6587D01*
X40923Y-8055D01*
X40609Y-9514D01*
X40426Y-10236D01*
X40426Y-10236D01*
X40411Y-10295D01*
X40345Y-10397D01*
X40249Y-10471D01*
X40134Y-10510D01*
X31920D01*
X31277Y-10299D01*
X31086Y-9822D01*
X31065Y-9681D01*
X33906Y-6839D01*
X33906Y-6839D01*
X34102Y-6546D01*
X34171Y-6201D01*
X34171Y-6201D01*
Y-3278D01*
X34958Y-2952D01*
X35173Y-3166D01*
D02*
G37*
G36*
X-22262Y-11868D02*
X-21702Y-12916D01*
X-21651Y-12977D01*
X-21621Y-13051D01*
X-20331Y-14981D01*
X-20275Y-15037D01*
X-20237Y-15107D01*
X-18765Y-16901D01*
X-18703Y-16952D01*
X-18659Y-17018D01*
X-17018Y-18659D01*
X-16952Y-18703D01*
X-16901Y-18765D01*
X-15107Y-20237D01*
X-15037Y-20275D01*
X-14981Y-20331D01*
X-13051Y-21621D01*
X-12977Y-21651D01*
X-12916Y-21702D01*
X-12212Y-22078D01*
X-12182Y-22987D01*
X-12399Y-23132D01*
X-12743Y-23646D01*
X-12887Y-23737D01*
X-13625Y-23877D01*
X-23605Y-13898D01*
Y-11903D01*
X-23134Y-11631D01*
X-22262Y-11868D01*
D02*
G37*
G36*
X5719Y41352D02*
X9478Y40655D01*
X12603Y39774D01*
X12735Y39564D01*
X12356Y38685D01*
X12301Y38674D01*
X11715Y38283D01*
X11323Y37697D01*
X11186Y37006D01*
X11323Y36314D01*
X11715Y35728D01*
X12301Y35337D01*
X12992Y35199D01*
X13683Y35337D01*
X14269Y35728D01*
X14519Y36102D01*
X16709D01*
X18775Y35125D01*
X22127Y33116D01*
X25267Y30787D01*
X28163Y28163D01*
X30787Y25267D01*
X33116Y22127D01*
X35125Y18775D01*
X36796Y15242D01*
X38113Y11562D01*
X39063Y7770D01*
X39089Y7591D01*
X37716Y6218D01*
X35138D01*
X34792Y6149D01*
X34499Y5954D01*
X32629Y4084D01*
X32433Y3791D01*
X32365Y3445D01*
Y-5827D01*
X27078Y-11113D01*
X26882Y-11406D01*
X26814Y-11752D01*
Y-29838D01*
X25479Y-31047D01*
X22314Y-33395D01*
X18933Y-35421D01*
X15370Y-37106D01*
X11659Y-38434D01*
X7835Y-39392D01*
X4696Y-39857D01*
X4588Y-39795D01*
X4095Y-39151D01*
X4169Y-38780D01*
X4031Y-38088D01*
X3639Y-37502D01*
X3053Y-37111D01*
X2362Y-36973D01*
X1671Y-37111D01*
X1085Y-37502D01*
X835Y-37876D01*
X-837D01*
X-867Y-37846D01*
X-1160Y-37650D01*
X-1506Y-37581D01*
X-7697D01*
X-9401Y-35877D01*
X-9694Y-35681D01*
X-10039Y-35613D01*
X-11043D01*
X-12495Y-34161D01*
X-12788Y-33965D01*
X-13134Y-33896D01*
X-14201D01*
X-14451Y-33522D01*
X-15037Y-33131D01*
X-15729Y-32993D01*
X-16420Y-33131D01*
X-17006Y-33522D01*
X-17398Y-34108D01*
X-17450Y-34372D01*
X-18265Y-34857D01*
X-18558Y-34719D01*
X-21871Y-32733D01*
X-24974Y-30432D01*
X-27837Y-27837D01*
X-30432Y-24974D01*
X-32733Y-21871D01*
X-34719Y-18558D01*
X-36371Y-15065D01*
X-37052Y-13161D01*
X-36599Y-12517D01*
X-29578D01*
X-29329Y-12891D01*
X-28742Y-13283D01*
X-28051Y-13420D01*
X-27360Y-13283D01*
X-26774Y-12891D01*
X-26382Y-12305D01*
X-25579Y-12304D01*
X-25411Y-12416D01*
Y-14272D01*
X-25342Y-14617D01*
X-25146Y-14910D01*
X-12548Y-27509D01*
X-12255Y-27705D01*
X-11909Y-27773D01*
X-11909Y-27773D01*
X-7953D01*
X-5726Y-30000D01*
Y-30610D01*
X-5657Y-30956D01*
X-5461Y-31249D01*
X-4280Y-32430D01*
X-3987Y-32626D01*
X-3642Y-32695D01*
X-3642Y-32695D01*
X-886D01*
X-540Y-32626D01*
X-247Y-32430D01*
X737Y-31446D01*
X933Y-31153D01*
X1002Y-30807D01*
Y-28327D01*
X1032Y-28296D01*
X1032Y-28296D01*
X1228Y-28003D01*
X1277Y-27756D01*
X2638Y-26395D01*
X7579D01*
X7924Y-26327D01*
X8217Y-26131D01*
X9823Y-24525D01*
X11142D01*
X12187Y-25571D01*
Y-30610D01*
X12256Y-30956D01*
X12452Y-31249D01*
X13633Y-32430D01*
X13926Y-32626D01*
X14272Y-32695D01*
X14272Y-32695D01*
X16437D01*
X16783Y-32626D01*
X17076Y-32430D01*
X18454Y-31052D01*
X18649Y-30759D01*
X18718Y-30413D01*
Y-20611D01*
X19718Y-19718D01*
X21801Y-17386D01*
X23611Y-14836D01*
X25123Y-12099D01*
X26320Y-9210D01*
X27186Y-6205D01*
X27710Y-3122D01*
X27885Y0D01*
X27710Y3122D01*
X27186Y6205D01*
X26320Y9210D01*
X25123Y12099D01*
X23611Y14836D01*
X21801Y17386D01*
X19718Y19718D01*
X17386Y21801D01*
X14836Y23611D01*
X12099Y25123D01*
X9210Y26320D01*
X6205Y27186D01*
X3122Y27710D01*
X0Y27885D01*
X-3122Y27710D01*
X-6205Y27186D01*
X-9210Y26320D01*
X-12099Y25123D01*
X-14836Y23611D01*
X-17386Y21801D01*
X-19718Y19718D01*
X-21801Y17386D01*
X-22333Y16637D01*
X-25596D01*
X-25790Y16927D01*
X-26376Y17319D01*
X-27067Y17456D01*
X-27758Y17319D01*
X-28344Y16927D01*
X-28736Y16341D01*
X-28873Y15650D01*
X-28736Y14958D01*
X-28344Y14372D01*
X-27970Y14122D01*
Y10287D01*
X-28344Y10037D01*
X-28736Y9451D01*
X-28873Y8760D01*
X-28736Y8069D01*
X-28344Y7483D01*
X-27758Y7091D01*
X-27067Y6954D01*
X-26376Y7091D01*
X-26319Y7129D01*
X-25642Y6634D01*
X-25853Y5901D01*
X-26057Y4705D01*
X-29512D01*
Y5114D01*
X-31882D01*
Y2205D01*
X-32882D01*
Y5114D01*
X-35252D01*
Y4166D01*
X-35323Y4061D01*
X-36039Y3657D01*
X-36403Y3808D01*
X-36634Y3854D01*
X-36860Y3922D01*
X-37244Y3960D01*
X-37323Y3952D01*
X-37402Y3968D01*
X-40828D01*
X-40905Y4016D01*
X-41403Y4569D01*
X-41442Y4650D01*
X-41272Y6270D01*
X-40525Y10019D01*
X-39439Y13685D01*
X-38021Y17235D01*
X-36285Y20642D01*
X-34244Y23875D01*
X-31916Y26908D01*
X-29321Y29715D01*
X-26479Y32272D01*
X-23416Y34560D01*
X-20156Y36557D01*
X-16727Y38248D01*
X-13158Y39617D01*
X-9478Y40655D01*
X-5719Y41352D01*
X-1911Y41701D01*
X1911D01*
X5719Y41352D01*
D02*
G37*
D11*
X17847Y-20201D02*
X18582Y-19527D01*
X19291Y-18826D01*
X19974Y-18100D01*
X20630Y-17349D01*
X21257Y-16575D01*
X21855Y-15777D01*
X22424Y-14958D01*
X22962Y-14119D01*
X23468Y-13261D01*
X23942Y-12384D01*
X24384Y-11490D01*
X24792Y-10581D01*
X25166Y-9657D01*
X25506Y-8720D01*
X25811Y-7771D01*
X26081Y-6811D01*
X26315Y-5842D01*
X26513Y-4865D01*
X26674Y-3881D01*
X26800Y-2892D01*
X26888Y-1899D01*
X26940Y-904D01*
X26955Y93D01*
X26933Y1089D01*
X26875Y2084D01*
X26779Y3077D01*
X26647Y4065D01*
X26478Y5047D01*
X26274Y6023D01*
X26033Y6990D01*
X25757Y7948D01*
X25445Y8895D01*
X25099Y9830D01*
X24718Y10751D01*
X24304Y11658D01*
X23856Y12548D01*
X23376Y13422D01*
X22864Y14277D01*
X22320Y15112D01*
X21746Y15927D01*
X21142Y16721D01*
X20510Y17491D01*
X19849Y18237D01*
X19161Y18959D01*
X18447Y19654D01*
X17708Y20323D01*
X16944Y20964D01*
X16157Y21576D01*
X15349Y22159D01*
X14519Y22711D01*
X13669Y23232D01*
X12801Y23722D01*
X11915Y24179D01*
X11013Y24603D01*
X10096Y24993D01*
X9165Y25350D01*
X8221Y25671D01*
X7266Y25957D01*
X6301Y26208D01*
X5328Y26423D01*
X4347Y26602D01*
X3361Y26745D01*
X2370Y26851D01*
X1375Y26920D01*
X379Y26953D01*
X-618Y26948D01*
X-1614Y26907D01*
X-2608Y26829D01*
X-3598Y26714D01*
X-4583Y26563D01*
X-5562Y26375D01*
X-6534Y26151D01*
X-7496Y25892D01*
X-8448Y25597D01*
X-9389Y25267D01*
X-10317Y24903D01*
X-11231Y24504D01*
X-12129Y24072D01*
X-13011Y23607D01*
X-13875Y23110D01*
X-14720Y22581D01*
X-15545Y22022D01*
X-16348Y21432D01*
X-17129Y20813D01*
X-17887Y20165D01*
X-18621Y19490D01*
X-19329Y18788D01*
X-20010Y18060D01*
X-20664Y17308D01*
X-21290Y16532D01*
X-21887Y15734D01*
X888Y-41041D02*
X1872Y-41008D01*
X2855Y-40951D01*
X3836Y-40871D01*
X4815Y-40767D01*
X5792Y-40640D01*
X6765Y-40490D01*
X7734Y-40316D01*
X8699Y-40119D01*
X9658Y-39898D01*
X10612Y-39655D01*
X11561Y-39389D01*
X12502Y-39101D01*
X13436Y-38790D01*
X14363Y-38456D01*
X15281Y-38101D01*
X16190Y-37723D01*
X17090Y-37324D01*
X17980Y-36904D01*
X18860Y-36462D01*
X19729Y-35999D01*
X20587Y-35515D01*
X21433Y-35011D01*
X22267Y-34487D01*
X23087Y-33943D01*
X23895Y-33380D01*
X24689Y-32797D01*
X25468Y-32196D01*
X26233Y-31576D01*
X26983Y-30937D01*
X27717Y-30281D01*
X15464Y-20389D02*
X16247Y-19771D01*
X17006Y-19123D01*
X17738Y-18446D01*
X18443Y-17740D01*
X19121Y-17008D01*
X19769Y-16250D01*
X20388Y-15467D01*
X20975Y-14660D01*
X21531Y-13832D01*
X22053Y-12982D01*
X22543Y-12112D01*
X22998Y-11225D01*
X23417Y-10320D01*
X23802Y-9399D01*
X24150Y-8464D01*
X24462Y-7517D01*
X24736Y-6557D01*
X24973Y-5588D01*
X25172Y-4611D01*
X25332Y-3626D01*
X25454Y-2636D01*
X25538Y-1642D01*
X25582Y-645D01*
X25588Y352D01*
X25555Y1350D01*
X25483Y2345D01*
X25372Y3336D01*
X25223Y4322D01*
X25035Y5302D01*
X24810Y6274D01*
X24546Y7236D01*
X24246Y8187D01*
X23908Y9126D01*
X23534Y10051D01*
X23124Y10961D01*
X22680Y11854D01*
X22200Y12729D01*
X21687Y13584D01*
X21141Y14419D01*
X20563Y15232D01*
X19954Y16022D01*
X19314Y16788D01*
X18645Y17528D01*
X17948Y18241D01*
X17223Y18927D01*
X16473Y19584D01*
X15697Y20211D01*
X14897Y20808D01*
X14075Y21372D01*
X13231Y21905D01*
X12367Y22404D01*
X11485Y22869D01*
X10584Y23299D01*
X9668Y23694D01*
X8738Y24053D01*
X7793Y24375D01*
X6837Y24660D01*
X5871Y24908D01*
X4896Y25118D01*
X3913Y25290D01*
X2924Y25423D01*
X1931Y25518D01*
X935Y25574D01*
X-62Y25591D01*
X-1060Y25569D01*
X-2056Y25508D01*
X-3048Y25408D01*
X-4036Y25270D01*
X-5018Y25094D01*
X-5992Y24879D01*
X-6957Y24627D01*
X-7912Y24337D01*
X-8855Y24010D01*
X-9784Y23647D01*
X-10698Y23247D01*
X-11596Y22813D01*
X-12476Y22343D01*
X-13338Y21840D01*
X-14179Y21304D01*
X-14998Y20735D01*
X-15795Y20134D01*
X-16568Y19503D01*
X-17315Y18843D01*
X-18037Y18154D01*
X-18731Y17437D01*
X-19396Y16693D01*
X-20032Y15925D01*
X-20637Y15132D01*
X-21212Y14316D01*
X-21753Y13478D01*
X-22262Y12620D01*
X-22737Y11743D01*
X-23178Y10848D01*
X-23583Y9936D01*
X-23952Y9010D01*
X-24285Y8069D01*
X-24581Y7117D01*
X-24840Y6153D01*
X-25061Y5180D01*
X-25244Y4199D01*
X-25388Y3212D01*
X-25494Y2221D01*
X40059Y7283D02*
X39867Y8268D01*
X39652Y9247D01*
X39412Y10221D01*
X39148Y11189D01*
X38861Y12150D01*
X38550Y13103D01*
X38215Y14049D01*
X37858Y14986D01*
X37477Y15914D01*
X37074Y16832D01*
X36648Y17740D01*
X36200Y18638D01*
X35730Y19524D01*
X35238Y20398D01*
X34725Y21260D01*
X34191Y22108D01*
X33636Y22944D01*
X33060Y23765D01*
X32465Y24573D01*
X31850Y25365D01*
X31215Y26142D01*
X30562Y26902D01*
X29890Y27647D01*
X29200Y28375D01*
X28492Y29086D01*
X27767Y29779D01*
X27025Y30453D01*
X26267Y31110D01*
X25493Y31747D01*
X24703Y32366D01*
X23898Y32964D01*
X23079Y33543D01*
X22246Y34101D01*
X21399Y34639D01*
X20539Y35155D01*
X19667Y35651D01*
X18783Y36124D01*
X17888Y36576D01*
X16981Y37006D01*
X-13134Y-34800D02*
X-11417Y-36516D01*
X-10039D02*
X-8071Y-38484D01*
X-15729Y-34800D02*
X-13134D01*
X-38976Y-11614D02*
X-28051D01*
X-11417Y-36516D02*
X-10039D01*
X-28445Y-7972D02*
X-28248Y-8169D01*
Y-11417D02*
Y-8169D01*
Y-11417D02*
X-28051Y-11614D01*
X-26983Y15734D02*
X-21887D01*
X-27067Y15650D02*
X-26983Y15734D01*
X17815Y-20233D02*
X17847Y-20201D01*
X17815Y-30413D02*
Y-20233D01*
X16437Y-31791D02*
X17815Y-30413D01*
X14272Y-31791D02*
X16437D01*
X13091Y-30610D02*
X14272Y-31791D01*
X11516Y-23622D02*
X13091Y-25197D01*
Y-30610D02*
Y-25197D01*
X9449Y-23622D02*
X11516D01*
X7579Y-25492D02*
X9449Y-23622D01*
X2264Y-25492D02*
X7579D01*
X394Y-27362D02*
X2264Y-25492D01*
X394Y-27657D02*
Y-27362D01*
X98Y-27953D02*
X394Y-27657D01*
X98Y-30807D02*
Y-27953D01*
X15464Y-29528D02*
Y-20389D01*
X-3642Y-31791D02*
X-886D01*
X98Y-30807D01*
X-2559Y-29331D02*
X-2362Y-29528D01*
X-4823Y-30610D02*
X-3642Y-31791D01*
X-4823Y-30610D02*
Y-29626D01*
X-2559Y-29331D02*
Y-27461D01*
X-7579Y-26870D02*
X-4823Y-29626D01*
X-11909Y-26870D02*
X-7579D01*
X-24508Y-14272D02*
X-11909Y-26870D01*
X-11122Y-24409D02*
X-7981D01*
X-6800Y-25591D02*
X-4429D01*
X-7981Y-24409D02*
X-6800Y-25591D01*
X-4429D02*
X-2559Y-27461D01*
X-24508Y-14272D02*
Y-10138D01*
X-27067Y-5479D02*
Y-2480D01*
Y-5479D02*
X-24508Y-8038D01*
Y-10138D02*
Y-8038D01*
X-8071Y-38484D02*
X-1506D01*
X-1211Y-38780D01*
X2362D01*
X-2362Y-40551D02*
X398D01*
X888Y-41041D01*
X-27067Y8760D02*
Y15650D01*
X12992Y37006D02*
X16981D01*
X27717Y-30281D02*
Y-11752D01*
X35138Y5315D02*
X38091D01*
X40059Y7283D01*
X33268Y3445D02*
X35138Y5315D01*
X33268Y-6201D02*
Y3445D01*
X27717Y-11752D02*
X33268Y-6201D01*
X-32382Y-7972D02*
Y-2480D01*
D15*
X-28445Y-7972D02*
D03*
X-32382D02*
D03*
D17*
Y2205D02*
D03*
D18*
X-27067D02*
D03*
D19*
X-32382Y-2480D02*
D03*
D20*
X-27067D02*
D03*
D39*
X-7677Y-32382D02*
D03*
X-24508Y-28543D02*
D03*
X-39548Y-8038D02*
D03*
X-34350Y-14370D02*
D03*
X36215Y9391D02*
D03*
X37790Y-6357D02*
D03*
X33065Y15690D02*
D03*
X34640Y12541D02*
D03*
X33065Y9391D02*
D03*
X29916Y21990D02*
D03*
X31490Y18840D02*
D03*
X29916Y15690D02*
D03*
X31490Y12541D02*
D03*
X29916Y9391D02*
D03*
X31490Y6242D02*
D03*
X29916Y3092D02*
D03*
Y-3207D02*
D03*
X28341Y25139D02*
D03*
X26766Y21990D02*
D03*
X28341Y18840D02*
D03*
X26766Y15690D02*
D03*
X28341Y12541D02*
D03*
X23617Y28289D02*
D03*
X25191Y25139D02*
D03*
X23617Y21990D02*
D03*
X25191Y18840D02*
D03*
Y-18955D02*
D03*
X23617Y-22105D02*
D03*
X25191Y-25255D02*
D03*
X23617Y-28404D02*
D03*
X22042Y31438D02*
D03*
X20467Y28289D02*
D03*
X22042Y25139D02*
D03*
X20467Y21990D02*
D03*
Y-22105D02*
D03*
X22042Y-25255D02*
D03*
X20467Y-28404D02*
D03*
X22042Y-31554D02*
D03*
X18892Y31438D02*
D03*
X17317Y28289D02*
D03*
X18892Y25139D02*
D03*
X17317Y-34703D02*
D03*
X15742Y31438D02*
D03*
X14168Y28289D02*
D03*
X15742Y25139D02*
D03*
X11018Y28289D02*
D03*
X7868D02*
D03*
X-6Y31438D02*
D03*
X-1580Y-34703D02*
D03*
X-7880Y34588D02*
D03*
X-6305Y31438D02*
D03*
X-9454Y37738D02*
D03*
X-11029Y34588D02*
D03*
X-9454Y31438D02*
D03*
X-12604Y37738D02*
D03*
X-14179Y34588D02*
D03*
X-12604Y31438D02*
D03*
X-14179Y28289D02*
D03*
X-17328Y34588D02*
D03*
X-15754Y31438D02*
D03*
X-17328Y28289D02*
D03*
X-15754Y-31554D02*
D03*
X-20478Y34588D02*
D03*
X-18903Y31438D02*
D03*
X-20478Y28289D02*
D03*
X-18903Y25139D02*
D03*
Y-31554D02*
D03*
X-22053Y31438D02*
D03*
X-23628Y28289D02*
D03*
X-22053Y25139D02*
D03*
X-23628Y21990D02*
D03*
X-25203Y31438D02*
D03*
X-26777Y28289D02*
D03*
X-25203Y25139D02*
D03*
X-26777Y21990D02*
D03*
X-25203Y18840D02*
D03*
X-28352Y25139D02*
D03*
X-29927Y21990D02*
D03*
X-28352Y18840D02*
D03*
Y-25255D02*
D03*
X-31502Y25139D02*
D03*
X-33077Y21990D02*
D03*
X-31502Y18840D02*
D03*
X-33077Y15690D02*
D03*
X-34651Y18840D02*
D03*
X-36226Y15690D02*
D03*
Y9391D02*
D03*
X-37801Y12541D02*
D03*
X-39376Y9391D02*
D03*
X-37801Y6242D02*
D03*
X-33071Y-18799D02*
D03*
X-15729Y-34800D02*
D03*
X-28051Y-11614D02*
D03*
X-2362Y-29528D02*
D03*
X-11122Y-24409D02*
D03*
X-15748Y-27165D02*
D03*
X-24508Y-10138D02*
D03*
X-7087Y-36122D02*
D03*
X2362Y-38780D02*
D03*
X-2362Y-40551D02*
D03*
X15464Y-29528D02*
D03*
X-27067Y8760D02*
D03*
Y15650D02*
D03*
X12992Y37006D02*
D03*
X-11885Y-38976D02*
D03*
X7874Y37992D02*
D03*
X-36614Y-6299D02*
D03*
D40*
X-39010Y-11773D02*
X-38710Y-12727D01*
X-38386Y-13673D01*
X-38039Y-14611D01*
X-37668Y-15540D01*
X-37276Y-16460D01*
X-36861Y-17369D01*
X-36423Y-18269D01*
X-35964Y-19157D01*
X-35483Y-20034D01*
X-34981Y-20899D01*
X-34457Y-21751D01*
X-33913Y-22590D01*
X-33349Y-23415D01*
X-32764Y-24227D01*
X-32159Y-25023D01*
X-31536Y-25805D01*
X-30893Y-26571D01*
X-30231Y-27321D01*
X-29552Y-28055D01*
X-28854Y-28772D01*
X-28140Y-29471D01*
X-27408Y-30153D01*
X-26660Y-30817D01*
X-25895Y-31462D01*
X-25115Y-32088D01*
X-24320Y-32694D01*
X-23511Y-33281D01*
X-22687Y-33848D01*
X-21849Y-34395D01*
X-20999Y-34921D01*
X-20135Y-35425D01*
X-19260Y-35909D01*
X-18373Y-36371D01*
X-17475Y-36811D01*
X-16566Y-37229D01*
X-15648Y-37624D01*
X-14720Y-37997D01*
X-13783Y-38346D01*
X-12837Y-38673D01*
X-11885Y-38976D01*
M02*
