G04*
G04 #@! TF.GenerationSoftware,Altium Limited,Altium Designer,20.0.13 (296)*
G04*
G04 Layer_Color=16711935*
%FSLAX25Y25*%
%MOIN*%
G70*
G01*
G75*
%ADD41C,0.03150*%
D41*
X-43069Y-4537D02*
X-42953Y-5527D01*
X-42814Y-6514D01*
X-42653Y-7497D01*
X-42469Y-8477D01*
X-42263Y-9452D01*
X-42034Y-10422D01*
X-41783Y-11387D01*
X-41510Y-12345D01*
X-41215Y-13297D01*
X-40898Y-14242D01*
X-40560Y-15180D01*
X-40200Y-16109D01*
X-39818Y-17030D01*
X-39416Y-17942D01*
X-38992Y-18844D01*
X-38548Y-19736D01*
X-38084Y-20618D01*
X-37599Y-21489D01*
X-37095Y-22349D01*
X-36571Y-23197D01*
X-36027Y-24032D01*
X-35465Y-24855D01*
X-34883Y-25664D01*
X-34283Y-26460D01*
X-33665Y-27242D01*
X-33030Y-28010D01*
X-32376Y-28763D01*
X-31706Y-29500D01*
X-31018Y-30222D01*
X-30315Y-30928D01*
X-29595Y-31617D01*
X-28860Y-32290D01*
X-28109Y-32945D01*
X-27343Y-33584D01*
X-26563Y-34204D01*
X-25769Y-34806D01*
X-24961Y-35390D01*
X-24140Y-35955D01*
X-23306Y-36501D01*
X-22460Y-37028D01*
X-21602Y-37535D01*
X-20732Y-38022D01*
X-19852Y-38489D01*
X-18961Y-38936D01*
X-18060Y-39362D01*
X-17149Y-39767D01*
X-16230Y-40151D01*
X-15301Y-40514D01*
X-14365Y-40855D01*
X-13421Y-41175D01*
X-12470Y-41473D01*
X-11512Y-41749D01*
X-10548Y-42003D01*
X-9579Y-42234D01*
X-8604Y-42444D01*
X-7625Y-42630D01*
X-6642Y-42795D01*
X-5656Y-42936D01*
X-4666Y-43055D01*
X-3674Y-43151D01*
X-2680Y-43224D01*
X-1685Y-43274D01*
X-688Y-43302D01*
X308Y-43306D01*
X1305Y-43287D01*
X2301Y-43246D01*
X3295Y-43181D01*
X4288Y-43094D01*
X5279Y-42984D01*
X6267Y-42851D01*
X7251Y-42696D01*
X8232Y-42518D01*
X9208Y-42317D01*
X10179Y-42094D01*
X11145Y-41848D01*
X12105Y-41581D01*
X13059Y-41291D01*
X14006Y-40980D01*
X14945Y-40647D01*
X15877Y-40292D01*
X16800Y-39916D01*
X17714Y-39519D01*
X18619Y-39101D01*
X19513Y-38662D01*
X20398Y-38202D01*
X21272Y-37723D01*
X22134Y-37223D01*
X22985Y-36704D01*
X23824Y-36165D01*
X24650Y-35608D01*
X25462Y-35031D01*
X26262Y-34436D01*
X27048Y-33822D01*
X27819Y-33191D01*
X28575Y-32542D01*
X29316Y-31876D01*
X43069Y4537D02*
X42953Y5530D01*
X42814Y6520D01*
X42652Y7506D01*
X42467Y8489D01*
X42260Y9467D01*
X42030Y10440D01*
X41778Y11407D01*
X41503Y12368D01*
X41207Y13323D01*
X40888Y14271D01*
X40548Y15211D01*
X40186Y16142D01*
X39803Y17066D01*
X39398Y17980D01*
X38973Y18884D01*
X38526Y19779D01*
X38060Y20663D01*
X37573Y21536D01*
X37066Y22398D01*
X36539Y23247D01*
X35992Y24084D01*
X35427Y24909D01*
X34843Y25720D01*
X34240Y26517D01*
X33618Y27300D01*
X32979Y28069D01*
X32322Y28823D01*
X31649Y29561D01*
X30958Y30284D01*
X30251Y30990D01*
X29527Y31680D01*
X28788Y32353D01*
X28034Y33009D01*
X27264Y33648D01*
X26480Y34268D01*
X25682Y34870D01*
X24871Y35454D01*
X24046Y36018D01*
X23208Y36564D01*
X22358Y37090D01*
X21496Y37596D01*
X20622Y38082D01*
X19738Y38548D01*
X18843Y38993D01*
X17937Y39418D01*
X17023Y39821D01*
X16099Y40203D01*
X15167Y40564D01*
X14227Y40904D01*
X13279Y41221D01*
X12324Y41517D01*
X11362Y41790D01*
X10394Y42041D01*
X9421Y42270D01*
X8443Y42476D01*
X7460Y42660D01*
X6474Y42821D01*
X5484Y42959D01*
X4491Y43074D01*
X3495Y43166D01*
X2498Y43235D01*
X1499Y43281D01*
X500Y43304D01*
X-500Y43304D01*
X-1499Y43281D01*
X-2498Y43235D01*
X-3495Y43166D01*
X-4491Y43074D01*
X-5484Y42959D01*
X-6474Y42821D01*
X-7461Y42660D01*
X-8443Y42476D01*
X-9421Y42270D01*
X-10395Y42041D01*
X-11362Y41790D01*
X-12324Y41517D01*
X-13279Y41221D01*
X-14227Y40904D01*
X-15167Y40564D01*
X-16099Y40203D01*
X-17023Y39821D01*
X-17938Y39418D01*
X-18843Y38993D01*
X-19738Y38548D01*
X-20622Y38082D01*
X-21496Y37596D01*
X-22358Y37090D01*
X-23208Y36564D01*
X-24046Y36018D01*
X-24871Y35454D01*
X-25682Y34870D01*
X-26480Y34268D01*
X-27264Y33648D01*
X-28034Y33009D01*
X-28788Y32353D01*
X-29527Y31680D01*
X-30251Y30990D01*
X-30958Y30284D01*
X-31649Y29561D01*
X-32323Y28823D01*
X-32979Y28069D01*
X-33618Y27300D01*
X-34240Y26517D01*
X-34843Y25720D01*
X-35427Y24909D01*
X-35992Y24084D01*
X-36539Y23247D01*
X-37066Y22398D01*
X-37573Y21536D01*
X-38060Y20663D01*
X-38526Y19779D01*
X-38973Y18884D01*
X-39398Y17980D01*
X-39803Y17066D01*
X-40186Y16142D01*
X-40548Y15211D01*
X-40888Y14271D01*
X-41207Y13323D01*
X-41503Y12368D01*
X-41778Y11407D01*
X-42030Y10440D01*
X-42260Y9467D01*
X-42467Y8489D01*
X-42652Y7506D01*
X-42814Y6520D01*
X-42953Y5530D01*
X-43069Y4537D01*
X41982Y-10631D02*
X42224Y-9627D01*
X42441Y-8617D01*
X42634Y-7603D01*
X42804Y-6585D01*
X42948Y-5562D01*
X43069Y-4537D01*
X29316Y-31876D02*
X29786Y-31218D01*
X29952Y-30427D01*
X31920Y-12116D02*
X30936Y-12380D01*
X30216Y-13100D01*
X29952Y-14084D01*
X40074Y-12116D02*
X40914Y-11928D01*
X41593Y-11399D01*
X41982Y-10631D01*
X43069Y-4537D02*
X42880Y-3468D01*
X42154Y-2661D01*
X41111Y-2362D01*
X35433Y-394D02*
X35697Y-1378D01*
X36417Y-2098D01*
X37402Y-2362D01*
Y2362D02*
X36417Y2098D01*
X35697Y1378D01*
X35433Y394D01*
X41111Y2362D02*
X42154Y2661D01*
X42880Y3468D01*
X43069Y4537D01*
X-43069D02*
X-42880Y3468D01*
X-42154Y2661D01*
X-41111Y2362D01*
X-35433Y394D02*
X-35697Y1378D01*
X-36417Y2098D01*
X-37402Y2362D01*
Y-2362D02*
X-36417Y-2098D01*
X-35697Y-1378D01*
X-35433Y-394D01*
X-41111Y-2362D02*
X-42154Y-2661D01*
X-42880Y-3468D01*
X-43069Y-4537D01*
X23622Y0D02*
X23601Y1003D01*
X23537Y2003D01*
X23431Y3000D01*
X23282Y3992D01*
X23092Y4977D01*
X22860Y5952D01*
X22587Y6917D01*
X22273Y7869D01*
X21919Y8808D01*
X21525Y9730D01*
X21093Y10635D01*
X20622Y11520D01*
X20115Y12385D01*
X19571Y13228D01*
X18992Y14047D01*
X18379Y14840D01*
X17732Y15607D01*
X17054Y16345D01*
X16345Y17054D01*
X15607Y17732D01*
X14840Y18379D01*
X14046Y18992D01*
X13228Y19571D01*
X12385Y20115D01*
X11520Y20622D01*
X10635Y21093D01*
X9730Y21525D01*
X8808Y21919D01*
X7869Y22273D01*
X6917Y22587D01*
X5952Y22860D01*
X4977Y23092D01*
X3992Y23282D01*
X3000Y23431D01*
X2003Y23537D01*
X1003Y23601D01*
X-0Y23622D01*
X-1003Y23601D01*
X-2003Y23537D01*
X-3000Y23431D01*
X-3992Y23282D01*
X-4977Y23092D01*
X-5952Y22860D01*
X-6917Y22587D01*
X-7869Y22273D01*
X-8808Y21919D01*
X-9730Y21525D01*
X-10635Y21093D01*
X-11520Y20622D01*
X-12385Y20115D01*
X-13228Y19571D01*
X-14047Y18992D01*
X-14840Y18379D01*
X-15607Y17732D01*
X-16345Y17054D01*
X-17054Y16345D01*
X-17732Y15607D01*
X-18379Y14840D01*
X-18992Y14046D01*
X-19571Y13228D01*
X-20115Y12385D01*
X-20622Y11520D01*
X-21093Y10635D01*
X-21525Y9730D01*
X-21919Y8808D01*
X-22273Y7869D01*
X-22587Y6917D01*
X-22860Y5952D01*
X-23092Y4977D01*
X-23282Y3992D01*
X-23431Y3000D01*
X-23537Y2003D01*
X-23601Y1003D01*
X-23622Y-0D01*
X-23601Y-1003D01*
X-23537Y-2003D01*
X-23431Y-3001D01*
X-23282Y-3992D01*
X-23092Y-4977D01*
X-22860Y-5952D01*
X-22587Y-6917D01*
X-22273Y-7869D01*
X-21919Y-8808D01*
X-21525Y-9730D01*
X-21093Y-10635D01*
X-20622Y-11520D01*
X-20115Y-12385D01*
X-19571Y-13228D01*
X-18992Y-14047D01*
X-18379Y-14840D01*
X-17732Y-15607D01*
X-17054Y-16345D01*
X-16345Y-17054D01*
X-15607Y-17732D01*
X-14840Y-18379D01*
X-14046Y-18992D01*
X-13228Y-19571D01*
X-12385Y-20115D01*
X-11520Y-20622D01*
X-10635Y-21093D01*
X-9730Y-21525D01*
X-8808Y-21919D01*
X-7869Y-22273D01*
X-6917Y-22587D01*
X-5952Y-22860D01*
X-4977Y-23092D01*
X-3992Y-23282D01*
X-3000Y-23431D01*
X-2003Y-23537D01*
X-1003Y-23601D01*
X0Y-23622D01*
X1003Y-23601D01*
X2003Y-23537D01*
X3001Y-23431D01*
X3992Y-23282D01*
X4977Y-23092D01*
X5952Y-22860D01*
X6917Y-22587D01*
X7869Y-22273D01*
X8808Y-21919D01*
X9730Y-21525D01*
X10635Y-21093D01*
X11520Y-20622D01*
X12385Y-20115D01*
X13228Y-19571D01*
X14047Y-18992D01*
X14840Y-18379D01*
X15607Y-17732D01*
X16345Y-17054D01*
X17054Y-16345D01*
X17732Y-15606D01*
X18379Y-14840D01*
X18992Y-14046D01*
X19571Y-13228D01*
X20115Y-12385D01*
X20622Y-11520D01*
X21093Y-10635D01*
X21525Y-9730D01*
X21919Y-8808D01*
X22273Y-7869D01*
X22587Y-6917D01*
X22860Y-5952D01*
X23092Y-4977D01*
X23282Y-3992D01*
X23431Y-3000D01*
X23537Y-2003D01*
X23601Y-1003D01*
X23622Y0D01*
X29952Y-30427D02*
Y-14084D01*
X31920Y-12116D02*
X40074D01*
X37402Y-2362D02*
X41111D01*
X35433Y-394D02*
Y394D01*
X37402Y2362D02*
X41111D01*
X-41111D02*
X-37402D01*
X-35433Y-394D02*
Y394D01*
X-41111Y-2362D02*
X-37402D01*
M02*
