G04*
G04 #@! TF.GenerationSoftware,Altium Limited,Altium Designer,20.0.13 (296)*
G04*
G04 Layer_Physical_Order=1*
G04 Layer_Color=255*
%FSLAX25Y25*%
%MOIN*%
G70*
G01*
G75*
%ADD10C,0.00787*%
%ADD11C,0.00591*%
G04:AMPARAMS|DCode=12|XSize=21.65mil|YSize=21.65mil|CornerRadius=5.41mil|HoleSize=0mil|Usage=FLASHONLY|Rotation=180.000|XOffset=0mil|YOffset=0mil|HoleType=Round|Shape=RoundedRectangle|*
%AMROUNDEDRECTD12*
21,1,0.02165,0.01083,0,0,180.0*
21,1,0.01083,0.02165,0,0,180.0*
1,1,0.01083,-0.00541,0.00541*
1,1,0.01083,0.00541,0.00541*
1,1,0.01083,0.00541,-0.00541*
1,1,0.01083,-0.00541,-0.00541*
%
%ADD12ROUNDEDRECTD12*%
G04:AMPARAMS|DCode=13|XSize=21.65mil|YSize=21.65mil|CornerRadius=5.41mil|HoleSize=0mil|Usage=FLASHONLY|Rotation=135.000|XOffset=0mil|YOffset=0mil|HoleType=Round|Shape=RoundedRectangle|*
%AMROUNDEDRECTD13*
21,1,0.02165,0.01083,0,0,135.0*
21,1,0.01083,0.02165,0,0,135.0*
1,1,0.01083,0.00000,0.00766*
1,1,0.01083,0.00766,0.00000*
1,1,0.01083,0.00000,-0.00766*
1,1,0.01083,-0.00766,0.00000*
%
%ADD13ROUNDEDRECTD13*%
%ADD14R,0.03347X0.01772*%
G04:AMPARAMS|DCode=15|XSize=21.65mil|YSize=21.65mil|CornerRadius=5.41mil|HoleSize=0mil|Usage=FLASHONLY|Rotation=90.000|XOffset=0mil|YOffset=0mil|HoleType=Round|Shape=RoundedRectangle|*
%AMROUNDEDRECTD15*
21,1,0.02165,0.01083,0,0,90.0*
21,1,0.01083,0.02165,0,0,90.0*
1,1,0.01083,0.00541,0.00541*
1,1,0.01083,0.00541,-0.00541*
1,1,0.01083,-0.00541,-0.00541*
1,1,0.01083,-0.00541,0.00541*
%
%ADD15ROUNDEDRECTD15*%
G04:AMPARAMS|DCode=16|XSize=23.62mil|YSize=47.24mil|CornerRadius=5.91mil|HoleSize=0mil|Usage=FLASHONLY|Rotation=180.000|XOffset=0mil|YOffset=0mil|HoleType=Round|Shape=RoundedRectangle|*
%AMROUNDEDRECTD16*
21,1,0.02362,0.03543,0,0,180.0*
21,1,0.01181,0.04724,0,0,180.0*
1,1,0.01181,-0.00591,0.01772*
1,1,0.01181,0.00591,0.01772*
1,1,0.01181,0.00591,-0.01772*
1,1,0.01181,-0.00591,-0.01772*
%
%ADD16ROUNDEDRECTD16*%
%ADD17R,0.03740X0.03819*%
%ADD18R,0.04528X0.03819*%
%ADD19R,0.03740X0.03347*%
%ADD20R,0.04528X0.03347*%
G04:AMPARAMS|DCode=21|XSize=33.47mil|YSize=45.28mil|CornerRadius=0mil|HoleSize=0mil|Usage=FLASHONLY|Rotation=315.000|XOffset=0mil|YOffset=0mil|HoleType=Round|Shape=Rectangle|*
%AMROTATEDRECTD21*
4,1,4,-0.02784,-0.00418,0.00418,0.02784,0.02784,0.00418,-0.00418,-0.02784,-0.02784,-0.00418,0.0*
%
%ADD21ROTATEDRECTD21*%

G04:AMPARAMS|DCode=22|XSize=33.47mil|YSize=37.4mil|CornerRadius=0mil|HoleSize=0mil|Usage=FLASHONLY|Rotation=315.000|XOffset=0mil|YOffset=0mil|HoleType=Round|Shape=Rectangle|*
%AMROTATEDRECTD22*
4,1,4,-0.02506,-0.00139,0.00139,0.02506,0.02506,0.00139,-0.00139,-0.02506,-0.02506,-0.00139,0.0*
%
%ADD22ROTATEDRECTD22*%

G04:AMPARAMS|DCode=23|XSize=38.19mil|YSize=45.28mil|CornerRadius=0mil|HoleSize=0mil|Usage=FLASHONLY|Rotation=315.000|XOffset=0mil|YOffset=0mil|HoleType=Round|Shape=Rectangle|*
%AMROTATEDRECTD23*
4,1,4,-0.02951,-0.00251,0.00251,0.02951,0.02951,0.00251,-0.00251,-0.02951,-0.02951,-0.00251,0.0*
%
%ADD23ROTATEDRECTD23*%

G04:AMPARAMS|DCode=24|XSize=37.4mil|YSize=38.19mil|CornerRadius=0mil|HoleSize=0mil|Usage=FLASHONLY|Rotation=225.000|XOffset=0mil|YOffset=0mil|HoleType=Round|Shape=Rectangle|*
%AMROTATEDRECTD24*
4,1,4,-0.00028,0.02673,0.02673,-0.00028,0.00028,-0.02673,-0.02673,0.00028,-0.00028,0.02673,0.0*
%
%ADD24ROTATEDRECTD24*%

%ADD38C,0.01968*%
%ADD39C,0.02362*%
G36*
X5719Y41352D02*
X9478Y40655D01*
X12603Y39774D01*
X12735Y39564D01*
X12356Y38685D01*
X12301Y38674D01*
X11715Y38283D01*
X11323Y37697D01*
X11186Y37006D01*
X11323Y36314D01*
X11715Y35728D01*
X12089Y35478D01*
Y34497D01*
X12009Y34482D01*
X11635Y34231D01*
X11447Y33950D01*
X11024Y33900D01*
X10600Y33950D01*
X10413Y34231D01*
X10038Y34482D01*
X9596Y34569D01*
X8514D01*
X8072Y34482D01*
X7698Y34231D01*
X7448Y33857D01*
X7432Y33777D01*
X5906D01*
Y34350D01*
X1378D01*
Y31398D01*
X5906D01*
Y31971D01*
X7432D01*
X7448Y31891D01*
X7698Y31517D01*
X8072Y31266D01*
X8514Y31179D01*
X9596D01*
X10038Y31266D01*
X10413Y31517D01*
X10600Y31798D01*
X11024Y31848D01*
X11447Y31798D01*
X11635Y31517D01*
X12009Y31266D01*
X12451Y31179D01*
X13533D01*
X13975Y31266D01*
X14349Y31517D01*
X14600Y31891D01*
X14687Y32333D01*
Y33415D01*
X14600Y33857D01*
X14349Y34231D01*
X13975Y34482D01*
X13895Y34497D01*
Y35478D01*
X14269Y35728D01*
X14661Y36314D01*
X14798Y37006D01*
X14661Y37697D01*
X14269Y38283D01*
X14042Y38434D01*
X14407Y39138D01*
X16727Y38248D01*
X20156Y36557D01*
X23416Y34560D01*
X26479Y32272D01*
X29321Y29715D01*
X31916Y26908D01*
X34244Y23875D01*
X36285Y20642D01*
X38021Y17235D01*
X39439Y13685D01*
X40525Y10019D01*
X41272Y6270D01*
X41442Y4650D01*
X41403Y4569D01*
X40905Y4016D01*
X40828Y3968D01*
X37402D01*
X37323Y3952D01*
X37244Y3960D01*
X36860Y3922D01*
X36634Y3854D01*
X36403Y3808D01*
X35693Y3514D01*
X35173Y3166D01*
X34629Y2623D01*
X34629Y2623D01*
X34281Y2102D01*
X34281Y2102D01*
X33988Y1392D01*
X33942Y1161D01*
X33873Y935D01*
X33835Y551D01*
X33843Y472D01*
X33827Y394D01*
Y-394D01*
X33843Y-472D01*
X33835Y-551D01*
X33873Y-935D01*
X33942Y-1161D01*
X33988Y-1392D01*
X34281Y-2102D01*
X34629Y-2623D01*
X35173Y-3166D01*
X35173Y-3166D01*
X35693Y-3514D01*
X35693Y-3514D01*
X36403Y-3808D01*
X36634Y-3854D01*
X36860Y-3922D01*
X37244Y-3960D01*
X37323Y-3952D01*
X37402Y-3968D01*
X40828D01*
X40905Y-4015D01*
X41403Y-4569D01*
X41442Y-4650D01*
X41394Y-5111D01*
X41185Y-6587D01*
X40923Y-8055D01*
X40609Y-9514D01*
X40426Y-10236D01*
X40426Y-10236D01*
X40411Y-10295D01*
X40345Y-10397D01*
X40249Y-10471D01*
X40134Y-10510D01*
X31920D01*
X31842Y-10526D01*
X31763Y-10518D01*
X31379Y-10556D01*
X31153Y-10624D01*
X30922Y-10670D01*
X30213Y-10964D01*
X29692Y-11312D01*
X29149Y-11855D01*
X29149Y-11855D01*
X28800Y-12376D01*
X28800Y-12376D01*
X28506Y-13086D01*
X28460Y-13317D01*
X28392Y-13543D01*
X28354Y-13927D01*
X28362Y-14006D01*
X28346Y-14084D01*
Y-30465D01*
X28331Y-30538D01*
X28301Y-30607D01*
X28257Y-30669D01*
X26815Y-31994D01*
X23761Y-34324D01*
X20504Y-36363D01*
X17075Y-38094D01*
X14330Y-39176D01*
X13964Y-38975D01*
X13606Y-38615D01*
Y-35236D01*
X13514Y-34775D01*
X13253Y-34385D01*
X12862Y-34124D01*
X12714Y-34094D01*
Y-31151D01*
X12794Y-31135D01*
X13168Y-30885D01*
X13259Y-30749D01*
X14054Y-30710D01*
X14142Y-30737D01*
X14187Y-30805D01*
X14773Y-31196D01*
X15464Y-31334D01*
X16156Y-31196D01*
X16742Y-30805D01*
X17133Y-30219D01*
X17271Y-29528D01*
X17133Y-28836D01*
X16742Y-28250D01*
X16156Y-27859D01*
X15464Y-27721D01*
X14773Y-27859D01*
X14187Y-28250D01*
X14142Y-28318D01*
X14054Y-28345D01*
X13259Y-28306D01*
X13168Y-28170D01*
X12887Y-27982D01*
X12837Y-27559D01*
X12887Y-27136D01*
X13168Y-26948D01*
X13419Y-26574D01*
X13506Y-26132D01*
Y-25049D01*
X13419Y-24608D01*
X14068Y-24163D01*
X14895Y-23706D01*
X17456Y-21889D01*
X19797Y-19797D01*
X21889Y-17456D01*
X23706Y-14895D01*
X25224Y-12147D01*
X26426Y-9247D01*
X27295Y-6230D01*
X27821Y-3135D01*
X27997Y0D01*
X27821Y3135D01*
X27295Y6230D01*
X26426Y9247D01*
X25224Y12147D01*
X23706Y14895D01*
X21889Y17456D01*
X19797Y19797D01*
X17456Y21889D01*
X14895Y23706D01*
X12147Y25224D01*
X9247Y26426D01*
X6230Y27295D01*
X3135Y27821D01*
X0Y27997D01*
X-3135Y27821D01*
X-4651Y27563D01*
X-5030Y28297D01*
X-3003Y30324D01*
X-2807Y30617D01*
X-2739Y30963D01*
Y33957D01*
X-1378D01*
Y36909D01*
X-5906D01*
Y33957D01*
X-4545D01*
Y31337D01*
X-7095Y28787D01*
X-9800Y28008D01*
X-12875Y26734D01*
X-15787Y25125D01*
X-18501Y23199D01*
X-20982Y20982D01*
X-23125Y18583D01*
Y18583D01*
X-23124Y18559D01*
X-24853Y16830D01*
X-25773Y16902D01*
X-25790Y16927D01*
X-26376Y17319D01*
X-27067Y17456D01*
X-27758Y17319D01*
X-28344Y16927D01*
X-28736Y16341D01*
X-28873Y15650D01*
X-28736Y14958D01*
X-28495Y14598D01*
X-28787Y13874D01*
X-28844Y13810D01*
X-31396D01*
X-31399Y13812D01*
X-31841Y13900D01*
X-32923D01*
X-33365Y13812D01*
X-33739Y13562D01*
X-33989Y13188D01*
X-34077Y12746D01*
Y11663D01*
X-33989Y11222D01*
X-33739Y10847D01*
X-33458Y10660D01*
X-33408Y10236D01*
X-33458Y9813D01*
X-33739Y9625D01*
X-33989Y9251D01*
X-34077Y8809D01*
Y7726D01*
X-33989Y7285D01*
X-33739Y6910D01*
X-33365Y6660D01*
X-33285Y6644D01*
Y4744D01*
X-34843D01*
Y3892D01*
X-34969Y3754D01*
X-35630Y3471D01*
X-35693Y3514D01*
X-35694Y3514D01*
X-36403Y3808D01*
X-36634Y3854D01*
X-36860Y3922D01*
X-37244Y3960D01*
X-37323Y3952D01*
X-37402Y3968D01*
X-40828D01*
X-40905Y4016D01*
X-41403Y4569D01*
X-41442Y4650D01*
X-41272Y6270D01*
X-40525Y10019D01*
X-39439Y13685D01*
X-38021Y17235D01*
X-36285Y20642D01*
X-34244Y23875D01*
X-31916Y26908D01*
X-29321Y29715D01*
X-26479Y32272D01*
X-23416Y34560D01*
X-20156Y36557D01*
X-16727Y38248D01*
X-13158Y39617D01*
X-9478Y40655D01*
X-5719Y41352D01*
X-1911Y41701D01*
X1911D01*
X5719Y41352D01*
D02*
G37*
G36*
X-31882Y-5114D02*
X-29512D01*
Y-4705D01*
X-27970D01*
Y-6319D01*
X-28887Y-7235D01*
X-28887Y-7235D01*
X-31544Y-9893D01*
X-31740Y-10186D01*
X-31809Y-10531D01*
Y-25750D01*
X-32596Y-26019D01*
X-34186Y-23959D01*
X-36244Y-20715D01*
X-37995Y-17295D01*
X-39424Y-13729D01*
X-40519Y-10046D01*
X-41271Y-6279D01*
X-41442Y-4650D01*
X-41403Y-4569D01*
X-40905Y-4015D01*
X-40828Y-3968D01*
X-37402D01*
X-37323Y-3952D01*
X-37244Y-3960D01*
X-36860Y-3922D01*
X-36634Y-3854D01*
X-36403Y-3808D01*
X-36039Y-3657D01*
X-35252Y-4101D01*
Y-5114D01*
X-32882D01*
Y-2205D01*
X-31882D01*
Y-5114D01*
D02*
G37*
G36*
X-28999Y-19070D02*
X-28557Y-19158D01*
X-28116Y-19070D01*
X-28048Y-19025D01*
X-26891Y-20182D01*
X-27992Y-21283D01*
X-25136Y-24139D01*
X-25425Y-24429D01*
X-23721Y-26132D01*
X-21692Y-24103D01*
X-21339Y-24456D01*
X-20985Y-24103D01*
X-18928Y-26160D01*
X-17252Y-24484D01*
X-17541Y-24195D01*
X-16451Y-23105D01*
X-14508Y-25048D01*
X-14215Y-25244D01*
X-13869Y-25313D01*
X-12649D01*
X-12399Y-25687D01*
X-11813Y-26078D01*
X-11122Y-26216D01*
X-10431Y-26078D01*
X-10291Y-25985D01*
X-9789Y-26597D01*
X-12946Y-29754D01*
X-13295Y-30275D01*
X-13417Y-30889D01*
X-13417Y-30889D01*
Y-33654D01*
X-14204Y-33892D01*
X-14451Y-33522D01*
X-15037Y-33131D01*
X-15729Y-32993D01*
X-16420Y-33131D01*
X-17006Y-33522D01*
X-17398Y-34108D01*
X-17535Y-34800D01*
X-18226Y-35205D01*
X-19690D01*
X-23785Y-31110D01*
X-24078Y-30915D01*
X-24423Y-30846D01*
X-25062D01*
X-30002Y-25905D01*
Y-19188D01*
X-29215Y-18926D01*
X-28999Y-19070D01*
D02*
G37*
G36*
X-4082Y-27752D02*
X-3790Y-28476D01*
X-4031Y-28836D01*
X-4169Y-29528D01*
X-4031Y-30219D01*
X-3639Y-30805D01*
X-3053Y-31196D01*
X-2362Y-31334D01*
X-1671Y-31196D01*
X-1085Y-30805D01*
X-835Y-30431D01*
X-32D01*
X667Y-30955D01*
Y-32037D01*
X755Y-32479D01*
X1005Y-32853D01*
X1379Y-33104D01*
X1459Y-33119D01*
Y-36063D01*
X1311Y-36092D01*
X920Y-36353D01*
X659Y-36744D01*
X567Y-37205D01*
Y-38721D01*
X556Y-38780D01*
X567Y-38838D01*
Y-40748D01*
X2Y-41068D01*
X-78Y-41022D01*
X-334Y-40806D01*
X-429Y-40697D01*
X-567Y-40398D01*
Y-37205D01*
X-659Y-36744D01*
X-920Y-36353D01*
X-1311Y-36092D01*
X-1772Y-36000D01*
X-2953D01*
X-3414Y-36092D01*
X-3804Y-36353D01*
X-4065Y-36744D01*
X-4087Y-36853D01*
X-4874Y-36775D01*
Y-36417D01*
X-4998Y-35797D01*
X-5349Y-35271D01*
X-5875Y-34919D01*
X-6496Y-34796D01*
X-6587D01*
Y-38189D01*
X-7587D01*
Y-34796D01*
X-7677D01*
X-8298Y-34919D01*
X-8824Y-35271D01*
X-9175Y-35797D01*
X-9229Y-36065D01*
X-10016Y-35988D01*
Y-35236D01*
X-10108Y-34775D01*
X-10205Y-34629D01*
Y-31554D01*
X-6339Y-27688D01*
X-4139D01*
X-4082Y-27752D01*
D02*
G37*
%LPC*%
G36*
X6315Y39878D02*
X4142D01*
Y38492D01*
X6315D01*
Y39878D01*
D02*
G37*
G36*
X3142D02*
X969D01*
Y38492D01*
X3142D01*
Y39878D01*
D02*
G37*
G36*
X6315Y37492D02*
X4142D01*
Y36106D01*
X6315D01*
Y37492D01*
D02*
G37*
G36*
X3142D02*
X969D01*
Y36106D01*
X3142D01*
Y37492D01*
D02*
G37*
G36*
X-21339Y-25163D02*
X-23014Y-26839D01*
X-21311Y-28543D01*
X-19635Y-26867D01*
X-21339Y-25163D01*
D02*
G37*
%LPD*%
D10*
X-18630Y-27165D02*
X-15748D01*
X7684Y-26568D02*
Y-25386D01*
X12409Y-24993D02*
Y-23812D01*
X3642Y37992D02*
X7874D01*
X3642Y37992D02*
X3642Y37992D01*
X7087Y-27165D02*
X7684Y-26568D01*
Y-25386D02*
X7874Y-25197D01*
X11811Y-25591D02*
X12409Y-24993D01*
Y-23812D02*
X12598Y-23622D01*
X-21339Y-24456D02*
X-21339D01*
X-18630Y-27165D01*
X-32382Y-2244D02*
Y-2205D01*
X-36437Y-6299D02*
X-32382Y-2244D01*
X-36614Y-6299D02*
X-36437D01*
D11*
X-6715Y27945D02*
X-7678Y27696D01*
X-8633Y27413D01*
X-9577Y27098D01*
X-10509Y26750D01*
X-11429Y26370D01*
X-12336Y25958D01*
X-13227Y25515D01*
X-14103Y25042D01*
X-14962Y24539D01*
X-15802Y24006D01*
X-16624Y23444D01*
X-17426Y22855D01*
X-18207Y22238D01*
X-18966Y21594D01*
X-19702Y20924D01*
X-20415Y20229D01*
X-21103Y19510D01*
X-21766Y18768D01*
X-22403Y18003D01*
X-16035Y-34800D02*
X-15729D01*
X-17344Y-36108D02*
X-16035Y-34800D01*
X-24423Y-31749D02*
X-20064Y-36108D01*
X-17344D01*
X-30906Y-26280D02*
X-25436Y-31749D01*
X-24423D01*
X-30906Y-26280D02*
Y-10531D01*
X-28248Y-7874D01*
X-28248D01*
X-27067Y-6693D01*
X-25689Y-14370D02*
Y-14258D01*
X-28051Y-11895D02*
X-25689Y-14258D01*
X-28051Y-11895D02*
Y-11614D01*
X-24756Y15650D02*
X-22403Y18003D01*
X-2362Y-29528D02*
X5512D01*
X-13869Y-24409D02*
X-11122D01*
X-17580Y-20698D02*
X-13869Y-24409D01*
X-20893Y-17385D02*
Y-17385D01*
X-23018Y-15260D02*
X-20893Y-17385D01*
X-23018Y-15260D02*
Y-11627D01*
X-24508Y-10138D02*
X-23018Y-11627D01*
X2362Y-38780D02*
Y-31496D01*
Y-38976D02*
Y-38780D01*
X-27067Y-6693D02*
Y-2205D01*
X5512Y-29528D02*
X7087Y-31102D01*
X-17580Y-20698D02*
X-17580D01*
X11811Y-29528D02*
X15464D01*
X-27067Y2480D02*
Y8760D01*
X-6630Y27975D02*
X-3642Y30963D01*
Y35433D01*
X-27067Y15650D02*
X-24756D01*
X12992Y32874D02*
Y37006D01*
X11811Y-37008D02*
Y-29528D01*
X7087Y-38189D02*
Y-31102D01*
X-28557Y-17238D02*
X-28557D01*
X-24652Y-21144D01*
X-24651D01*
X3642Y32874D02*
X9055D01*
X3642Y32874D02*
X3642Y32874D01*
X-32382Y2480D02*
Y8268D01*
D12*
X11811Y-25591D02*
D03*
Y-29528D02*
D03*
X7087Y-27165D02*
D03*
Y-31102D02*
D03*
X-32382Y12205D02*
D03*
Y8268D02*
D03*
X2362Y-27559D02*
D03*
Y-31496D02*
D03*
D13*
X-25773Y-14455D02*
D03*
X-28557Y-17238D02*
D03*
D14*
X3642Y32874D02*
D03*
X3642Y37992D02*
D03*
X-3642Y35433D02*
D03*
D15*
X12992Y32874D02*
D03*
X9055D02*
D03*
D16*
X-11811Y-37008D02*
D03*
X-7087Y-38189D02*
D03*
X-2362Y-38976D02*
D03*
X2362D02*
D03*
X7087Y-38189D02*
D03*
X11811Y-37008D02*
D03*
D17*
X-32382Y-2205D02*
D03*
D18*
X-27067D02*
D03*
D19*
X-32382Y2480D02*
D03*
D20*
X-27067D02*
D03*
D21*
X-20893Y-17385D02*
D03*
D22*
X-24651Y-21144D02*
D03*
D23*
X-17580Y-20698D02*
D03*
D24*
X-21339Y-24456D02*
D03*
D38*
X3346Y-26165D02*
X4334Y-26019D01*
X5316Y-25837D01*
X6290Y-25617D01*
X7254Y-25361D01*
X8209Y-25068D01*
X9152Y-24739D01*
X10081Y-24375D01*
X10996Y-23977D01*
X11896Y-23543D01*
X12778Y-23076D01*
X13642Y-22576D01*
X14487Y-22044D01*
X15311Y-21480D01*
X16113Y-20885D01*
X16891Y-20260D01*
X17646Y-19607D01*
X18375Y-18925D01*
X19078Y-18216D01*
X19754Y-17481D01*
X20401Y-16721D01*
X21019Y-15937D01*
X21607Y-15130D01*
X22164Y-14302D01*
X22690Y-13453D01*
X23183Y-12584D01*
X23642Y-11698D01*
X24068Y-10795D01*
X24459Y-9877D01*
X24815Y-8944D01*
X25136Y-7998D01*
X25421Y-7041D01*
X25669Y-6075D01*
X25881Y-5099D01*
X26055Y-4116D01*
X26192Y-3127D01*
X26291Y-2134D01*
X26353Y-1137D01*
X26378Y-139D01*
X26364Y859D01*
X26313Y1856D01*
X26223Y2851D01*
X26097Y3841D01*
X25933Y4826D01*
X25732Y5804D01*
X25493Y6773D01*
X25219Y7733D01*
X24908Y8682D01*
X24562Y9618D01*
X24180Y10541D01*
X23764Y11448D01*
X23314Y12339D01*
X22830Y13213D01*
X22314Y14067D01*
X21766Y14901D01*
X21186Y15714D01*
X20576Y16505D01*
X19937Y17272D01*
X19269Y18014D01*
X18574Y18730D01*
X17852Y19420D01*
X17104Y20081D01*
X16332Y20714D01*
X15536Y21317D01*
X14718Y21890D01*
X13880Y22431D01*
X13021Y22940D01*
X12143Y23416D01*
X11249Y23859D01*
X10338Y24268D01*
X9412Y24642D01*
X8473Y24980D01*
X7521Y25283D01*
X6559Y25549D01*
X5588Y25779D01*
X4608Y25972D01*
X3622Y26128D01*
X2631Y26246D01*
X1636Y26327D01*
X638Y26370D01*
X-360Y26375D01*
X-1358Y26343D01*
X-2354Y26273D01*
X-3346Y26165D01*
X-4334Y26019D01*
X-5316Y25837D01*
X-6289Y25617D01*
X-7254Y25361D01*
X-8209Y25068D01*
X-9151Y24740D01*
X-10081Y24375D01*
X-10996Y23977D01*
X-11896Y23543D01*
X-12778Y23076D01*
X-13642Y22576D01*
X-14487Y22044D01*
X-15311Y21480D01*
X-16112Y20885D01*
X-16891Y20260D01*
X-17646Y19607D01*
X-18375Y18925D01*
X-19078Y18216D01*
X-19754Y17481D01*
X-20401Y16721D01*
X-21019Y15937D01*
X-21607Y15130D01*
X-21608Y15130D01*
X-21608Y15130D02*
X-21608Y15130D01*
X-7004Y-26083D02*
X3295D01*
X-24533Y12205D02*
X-21608Y15130D01*
X-32382Y12205D02*
X-24533D01*
X-11811Y-37008D02*
Y-30889D01*
X-7004Y-26083D01*
D39*
X-7677Y-32382D02*
D03*
X-24508Y-28543D02*
D03*
X-39548Y-8038D02*
D03*
X-34350Y-14370D02*
D03*
X36215Y9391D02*
D03*
X37790Y-6357D02*
D03*
X33065Y15690D02*
D03*
X34640Y12541D02*
D03*
X33065Y9391D02*
D03*
X29916Y21990D02*
D03*
X31490Y18840D02*
D03*
X29916Y15690D02*
D03*
X31490Y12541D02*
D03*
X29916Y9391D02*
D03*
X31490Y6242D02*
D03*
X29916Y3092D02*
D03*
Y-3207D02*
D03*
X28341Y25139D02*
D03*
X26766Y21990D02*
D03*
X28341Y18840D02*
D03*
X26766Y15690D02*
D03*
X28341Y12541D02*
D03*
X23617Y28289D02*
D03*
X25191Y25139D02*
D03*
X23617Y21990D02*
D03*
X25191Y18840D02*
D03*
Y-18955D02*
D03*
X23617Y-22105D02*
D03*
X25191Y-25255D02*
D03*
X23617Y-28404D02*
D03*
X22042Y31438D02*
D03*
X20467Y28289D02*
D03*
X22042Y25139D02*
D03*
X20467Y21990D02*
D03*
Y-22105D02*
D03*
X22042Y-25255D02*
D03*
X20467Y-28404D02*
D03*
X22042Y-31554D02*
D03*
X18892Y31438D02*
D03*
X17317Y28289D02*
D03*
X18892Y25139D02*
D03*
X17317Y-34703D02*
D03*
X15742Y31438D02*
D03*
X14168Y28289D02*
D03*
X15742Y25139D02*
D03*
X11018Y28289D02*
D03*
X7868D02*
D03*
X-6Y31438D02*
D03*
X-1580Y-34703D02*
D03*
X-7880Y34588D02*
D03*
X-6305Y31438D02*
D03*
X-9454Y37738D02*
D03*
X-11029Y34588D02*
D03*
X-9454Y31438D02*
D03*
X-12604Y37738D02*
D03*
X-14179Y34588D02*
D03*
X-12604Y31438D02*
D03*
X-14179Y28289D02*
D03*
X-17328Y34588D02*
D03*
X-15754Y31438D02*
D03*
X-17328Y28289D02*
D03*
X-15754Y-31554D02*
D03*
X-20478Y34588D02*
D03*
X-18903Y31438D02*
D03*
X-20478Y28289D02*
D03*
X-18903Y25139D02*
D03*
Y-31554D02*
D03*
X-22053Y31438D02*
D03*
X-23628Y28289D02*
D03*
X-22053Y25139D02*
D03*
X-23628Y21990D02*
D03*
X-25203Y31438D02*
D03*
X-26777Y28289D02*
D03*
X-25203Y25139D02*
D03*
X-26777Y21990D02*
D03*
X-25203Y18840D02*
D03*
X-28352Y25139D02*
D03*
X-29927Y21990D02*
D03*
X-28352Y18840D02*
D03*
Y-25255D02*
D03*
X-31502Y25139D02*
D03*
X-33077Y21990D02*
D03*
X-31502Y18840D02*
D03*
X-33077Y15690D02*
D03*
X-34651Y18840D02*
D03*
X-36226Y15690D02*
D03*
Y9391D02*
D03*
X-37801Y12541D02*
D03*
X-39376Y9391D02*
D03*
X-37801Y6242D02*
D03*
X-33071Y-18799D02*
D03*
X-15729Y-34800D02*
D03*
X-28051Y-11614D02*
D03*
X-2362Y-29528D02*
D03*
X-11122Y-24409D02*
D03*
X-15748Y-27165D02*
D03*
X-24508Y-10138D02*
D03*
X-7087Y-36122D02*
D03*
X2362Y-38780D02*
D03*
X-2362Y-40551D02*
D03*
X15464Y-29528D02*
D03*
X-27067Y8760D02*
D03*
Y15650D02*
D03*
X12992Y37006D02*
D03*
X-11885Y-38976D02*
D03*
X7874Y37992D02*
D03*
X-36614Y-6299D02*
D03*
M02*
