G04*
G04 #@! TF.GenerationSoftware,Altium Limited,Altium Designer,20.0.13 (296)*
G04*
G04 Layer_Color=65535*
%FSLAX25Y25*%
%MOIN*%
G70*
G01*
G75*
%ADD10C,0.00787*%
%ADD11C,0.00984*%
%ADD12C,0.00591*%
%ADD13R,0.01575X0.01575*%
G36*
X61417Y74409D02*
X56782D01*
Y74409D01*
X52756D01*
Y106693D01*
X56782D01*
Y106693D01*
X61417D01*
Y74409D01*
D02*
G37*
%LPC*%
G36*
X56733Y105847D02*
X53696D01*
X56375D01*
Y104355D01*
X56303Y104408D01*
X56270Y104434D01*
X56241Y104460D01*
X56215Y104483D01*
X56195Y104499D01*
X56182Y104513D01*
X56179Y104516D01*
X56159Y104535D01*
X56133Y104562D01*
X56107Y104591D01*
X56077Y104624D01*
X56011Y104693D01*
X55949Y104765D01*
X55890Y104834D01*
X55864Y104863D01*
X55841Y104893D01*
X55821Y104913D01*
X55808Y104932D01*
X55798Y104942D01*
X55795Y104945D01*
X55733Y105018D01*
X55674Y105087D01*
X55621Y105149D01*
X55569Y105204D01*
X55523Y105257D01*
X55477Y105303D01*
X55437Y105346D01*
X55401Y105385D01*
X55372Y105418D01*
X55342Y105444D01*
X55319Y105467D01*
X55300Y105487D01*
X55283Y105500D01*
X55273Y105513D01*
X55267Y105516D01*
X55264Y105519D01*
X55191Y105582D01*
X55126Y105631D01*
X55063Y105674D01*
X55008Y105710D01*
X54962Y105736D01*
X54926Y105756D01*
X54913Y105762D01*
X54903Y105765D01*
X54900Y105769D01*
X54896D01*
X54831Y105795D01*
X54765Y105811D01*
X54706Y105824D01*
X54650Y105834D01*
X54604Y105841D01*
X54568Y105844D01*
X54555D01*
X54545D01*
X54542D01*
X54539D01*
X54473Y105841D01*
X54411Y105834D01*
X54352Y105821D01*
X54293Y105805D01*
X54240Y105785D01*
X54191Y105762D01*
X54145Y105739D01*
X54106Y105716D01*
X54066Y105693D01*
X54034Y105670D01*
X54004Y105647D01*
X53981Y105628D01*
X53965Y105611D01*
X53948Y105598D01*
X53942Y105592D01*
X53939Y105588D01*
X53896Y105539D01*
X53860Y105487D01*
X53827Y105431D01*
X53797Y105372D01*
X53774Y105316D01*
X53755Y105257D01*
X53738Y105201D01*
X53725Y105146D01*
X53715Y105096D01*
X53709Y105047D01*
X53702Y105005D01*
X53699Y104968D01*
X53696Y104939D01*
Y104896D01*
X53699Y104817D01*
X53706Y104742D01*
X53715Y104673D01*
X53732Y104608D01*
X53748Y104545D01*
X53768Y104490D01*
X53788Y104437D01*
X53807Y104391D01*
X53830Y104349D01*
X53850Y104312D01*
X53870Y104280D01*
X53886Y104253D01*
X53902Y104234D01*
X53912Y104221D01*
X53919Y104211D01*
X53922Y104207D01*
X53965Y104162D01*
X54014Y104122D01*
X54063Y104086D01*
X54119Y104053D01*
X54171Y104027D01*
X54224Y104001D01*
X54280Y103981D01*
X54329Y103965D01*
X54378Y103948D01*
X54424Y103938D01*
X54466Y103929D01*
X54503Y103922D01*
X54532Y103919D01*
X54552Y103916D01*
X54565Y103912D01*
X54571D01*
X54611Y104293D01*
X54558Y104296D01*
X54509Y104299D01*
X54424Y104319D01*
X54345Y104345D01*
X54312Y104358D01*
X54283Y104375D01*
X54257Y104388D01*
X54234Y104404D01*
X54214Y104417D01*
X54198Y104427D01*
X54185Y104440D01*
X54175Y104447D01*
X54171Y104450D01*
X54168Y104453D01*
X54138Y104486D01*
X54112Y104519D01*
X54093Y104555D01*
X54073Y104591D01*
X54043Y104663D01*
X54024Y104732D01*
X54014Y104791D01*
X54007Y104817D01*
Y104841D01*
X54004Y104860D01*
Y104932D01*
X54011Y104978D01*
X54027Y105060D01*
X54053Y105129D01*
X54080Y105191D01*
X54109Y105237D01*
X54122Y105257D01*
X54135Y105273D01*
X54145Y105287D01*
X54152Y105296D01*
X54155Y105300D01*
X54158Y105303D01*
X54188Y105333D01*
X54217Y105355D01*
X54247Y105378D01*
X54280Y105395D01*
X54342Y105424D01*
X54401Y105444D01*
X54450Y105454D01*
X54473Y105460D01*
X54493D01*
X54506Y105464D01*
X54519D01*
X54526D01*
X54529D01*
X54568Y105460D01*
X54608Y105457D01*
X54686Y105437D01*
X54762Y105408D01*
X54831Y105375D01*
X54890Y105342D01*
X54913Y105329D01*
X54936Y105313D01*
X54952Y105303D01*
X54965Y105293D01*
X54972Y105290D01*
X54975Y105287D01*
X55021Y105251D01*
X55070Y105208D01*
X55123Y105159D01*
X55175Y105106D01*
X55283Y104998D01*
X55385Y104886D01*
X55434Y104834D01*
X55477Y104781D01*
X55516Y104736D01*
X55549Y104696D01*
X55578Y104663D01*
X55598Y104640D01*
X55615Y104624D01*
X55618Y104617D01*
X55667Y104558D01*
X55713Y104506D01*
X55756Y104453D01*
X55798Y104408D01*
X55838Y104362D01*
X55877Y104322D01*
X55910Y104286D01*
X55942Y104253D01*
X55972Y104224D01*
X55998Y104201D01*
X56021Y104178D01*
X56038Y104162D01*
X56054Y104145D01*
X56064Y104135D01*
X56071Y104132D01*
X56074Y104129D01*
X56146Y104070D01*
X56218Y104021D01*
X56287Y103978D01*
X56349Y103945D01*
X56402Y103919D01*
X56425Y103909D01*
X56441Y103899D01*
X56458Y103893D01*
X56467Y103889D01*
X56474Y103886D01*
X56477D01*
X56523Y103870D01*
X56569Y103860D01*
X56612Y103850D01*
X56651Y103847D01*
X56684Y103843D01*
X56733D01*
Y105847D01*
D02*
G37*
G36*
X60517Y105044D02*
X57430D01*
Y103073D01*
D01*
Y104057D01*
X57434Y103998D01*
X57437Y103938D01*
X57447Y103883D01*
X57457Y103830D01*
X57470Y103784D01*
X57486Y103738D01*
X57503Y103696D01*
X57519Y103660D01*
X57535Y103624D01*
X57552Y103594D01*
X57565Y103568D01*
X57581Y103548D01*
X57591Y103532D01*
X57601Y103519D01*
X57604Y103512D01*
X57608Y103509D01*
X57644Y103469D01*
X57680Y103433D01*
X57762Y103368D01*
X57844Y103309D01*
X57926Y103263D01*
X57965Y103243D01*
X57998Y103227D01*
X58031Y103214D01*
X58057Y103200D01*
X58080Y103194D01*
X58100Y103187D01*
X58109Y103181D01*
X58113D01*
X58175Y103161D01*
X58244Y103145D01*
X58385Y103119D01*
X58529Y103099D01*
X58598Y103092D01*
X58667Y103086D01*
X58729Y103082D01*
X58788Y103079D01*
X58841Y103076D01*
X58887D01*
X58923Y103073D01*
X60517D01*
X58975D01*
X59129Y103076D01*
X59274Y103086D01*
X59405Y103099D01*
X59526Y103119D01*
X59638Y103141D01*
X59740Y103168D01*
X59828Y103194D01*
X59910Y103223D01*
X59979Y103250D01*
X60041Y103276D01*
X60090Y103302D01*
X60133Y103325D01*
X60166Y103345D01*
X60189Y103358D01*
X60202Y103368D01*
X60205Y103371D01*
X60261Y103420D01*
X60307Y103473D01*
X60350Y103528D01*
X60386Y103584D01*
X60415Y103640D01*
X60441Y103699D01*
X60461Y103755D01*
X60478Y103807D01*
X60491Y103860D01*
X60500Y103906D01*
X60507Y103948D01*
X60510Y103984D01*
X60514Y104014D01*
X60517Y104037D01*
Y104057D01*
X60514Y104119D01*
X60510Y104175D01*
X60500Y104230D01*
X60491Y104283D01*
X60474Y104332D01*
X60461Y104375D01*
X60445Y104417D01*
X60428Y104453D01*
X60412Y104490D01*
X60395Y104519D01*
X60379Y104545D01*
X60366Y104565D01*
X60356Y104581D01*
X60346Y104595D01*
X60343Y104601D01*
X60340Y104604D01*
X60304Y104644D01*
X60268Y104683D01*
X60185Y104749D01*
X60103Y104804D01*
X60022Y104850D01*
X59982Y104870D01*
X59946Y104886D01*
X59917Y104900D01*
X59887Y104913D01*
X59867Y104922D01*
X59848Y104926D01*
X59838Y104932D01*
X59835D01*
X59772Y104952D01*
X59703Y104968D01*
X59562Y104998D01*
X59418Y105018D01*
X59349Y105024D01*
X59280Y105031D01*
X59218Y105034D01*
X59159Y105037D01*
X59110Y105041D01*
X59064Y105044D01*
X60517D01*
D02*
G37*
G36*
X56733Y103351D02*
X56310D01*
Y102928D01*
X56733D01*
Y103351D01*
D02*
G37*
G36*
X60468Y102672D02*
X57430D01*
Y100668D01*
Y101721D01*
X57434Y101643D01*
X57440Y101567D01*
X57450Y101498D01*
X57466Y101433D01*
X57483Y101370D01*
X57503Y101314D01*
X57522Y101262D01*
X57542Y101216D01*
X57565Y101173D01*
X57585Y101137D01*
X57604Y101104D01*
X57621Y101078D01*
X57637Y101059D01*
X57647Y101046D01*
X57653Y101036D01*
X57657Y101032D01*
X57699Y100987D01*
X57749Y100947D01*
X57798Y100911D01*
X57854Y100878D01*
X57906Y100852D01*
X57958Y100826D01*
X58014Y100806D01*
X58063Y100790D01*
X58113Y100773D01*
X58158Y100763D01*
X58201Y100754D01*
X58237Y100747D01*
X58267Y100744D01*
X58286Y100741D01*
X58299Y100737D01*
X58306D01*
X58346Y101118D01*
X58293Y101121D01*
X58244Y101124D01*
X58158Y101144D01*
X58080Y101170D01*
X58047Y101183D01*
X58017Y101200D01*
X57991Y101213D01*
X57968Y101229D01*
X57949Y101242D01*
X57932Y101252D01*
X57919Y101265D01*
X57909Y101272D01*
X57906Y101275D01*
X57903Y101278D01*
X57873Y101311D01*
X57847Y101344D01*
X57827Y101380D01*
X57807Y101416D01*
X57778Y101488D01*
X57758Y101557D01*
X57749Y101616D01*
X57742Y101643D01*
Y101665D01*
X57739Y101685D01*
Y101757D01*
X57745Y101803D01*
X57762Y101885D01*
X57788Y101954D01*
X57814Y102016D01*
X57844Y102062D01*
X57857Y102082D01*
X57870Y102098D01*
X57880Y102111D01*
X57886Y102121D01*
X57889Y102125D01*
X57893Y102128D01*
X57922Y102157D01*
X57952Y102180D01*
X57981Y102203D01*
X58014Y102220D01*
X58077Y102249D01*
X58135Y102269D01*
X58185Y102279D01*
X58208Y102285D01*
X58227D01*
X58240Y102289D01*
X58254D01*
X58260D01*
X58263D01*
X58303Y102285D01*
X58342Y102282D01*
X58421Y102262D01*
X58496Y102233D01*
X58565Y102200D01*
X58624Y102167D01*
X58647Y102154D01*
X58670Y102138D01*
X58687Y102128D01*
X58700Y102118D01*
X58706Y102115D01*
X58710Y102111D01*
X58755Y102075D01*
X58805Y102033D01*
X58857Y101984D01*
X58910Y101931D01*
X59018Y101823D01*
X59119Y101711D01*
X59169Y101659D01*
X59211Y101606D01*
X59251Y101560D01*
X59284Y101521D01*
X59313Y101488D01*
X59333Y101465D01*
X59349Y101449D01*
X59352Y101442D01*
X59402Y101383D01*
X59447Y101331D01*
X59490Y101278D01*
X59533Y101233D01*
X59572Y101187D01*
X59611Y101147D01*
X59644Y101111D01*
X59677Y101078D01*
X59707Y101049D01*
X59733Y101026D01*
X59756Y101003D01*
X59772Y100987D01*
X59789Y100970D01*
X59799Y100960D01*
X59805Y100957D01*
X59808Y100954D01*
X59881Y100895D01*
X59953Y100845D01*
X60022Y100803D01*
X60084Y100770D01*
X60136Y100744D01*
X60159Y100734D01*
X60176Y100724D01*
X60192Y100717D01*
X60202Y100714D01*
X60208Y100711D01*
X60212D01*
X60258Y100695D01*
X60304Y100685D01*
X60346Y100675D01*
X60386Y100672D01*
X60418Y100668D01*
X60468D01*
Y102672D01*
D02*
G37*
G36*
X56782Y102341D02*
X53696D01*
X55159D01*
X55080Y102338D01*
X55008Y102335D01*
X54939Y102331D01*
X54877Y102325D01*
X54817Y102318D01*
X54765Y102312D01*
X54716Y102308D01*
X54673Y102302D01*
X54637Y102295D01*
X54604Y102289D01*
X54578Y102282D01*
X54555Y102279D01*
X54542Y102276D01*
X54532Y102272D01*
X54529D01*
X54434Y102246D01*
X54345Y102213D01*
X54270Y102184D01*
X54204Y102154D01*
X54178Y102138D01*
X54152Y102128D01*
X54129Y102115D01*
X54112Y102105D01*
X54099Y102095D01*
X54089Y102092D01*
X54083Y102085D01*
X54080D01*
X54014Y102039D01*
X53955Y101987D01*
X53906Y101938D01*
X53866Y101889D01*
X53834Y101846D01*
X53814Y101813D01*
X53804Y101800D01*
X53797Y101790D01*
X53794Y101784D01*
Y101780D01*
X53761Y101708D01*
X53738Y101636D01*
X53719Y101564D01*
X53709Y101498D01*
X53702Y101439D01*
X53699Y101416D01*
X53696Y101393D01*
Y101354D01*
X53699Y101295D01*
X53702Y101236D01*
X53712Y101180D01*
X53722Y101128D01*
X53735Y101082D01*
X53751Y101036D01*
X53768Y100993D01*
X53784Y100957D01*
X53801Y100921D01*
X53817Y100891D01*
X53830Y100865D01*
X53847Y100845D01*
X53856Y100829D01*
X53866Y100816D01*
X53870Y100809D01*
X53873Y100806D01*
X53909Y100767D01*
X53945Y100731D01*
X54027Y100665D01*
X54109Y100606D01*
X54191Y100560D01*
X54230Y100540D01*
X54263Y100524D01*
X54296Y100511D01*
X54322Y100498D01*
X54345Y100491D01*
X54365Y100485D01*
X54375Y100478D01*
X54378D01*
X54440Y100458D01*
X54509Y100442D01*
X54650Y100416D01*
X54795Y100396D01*
X54863Y100390D01*
X54932Y100383D01*
X54995Y100380D01*
X55054Y100376D01*
X55106Y100373D01*
X55152D01*
X55188Y100370D01*
X56782D01*
X55241D01*
X55395Y100373D01*
X55539Y100383D01*
X55670Y100396D01*
X55792Y100416D01*
X55903Y100439D01*
X56005Y100465D01*
X56093Y100491D01*
X56175Y100521D01*
X56244Y100547D01*
X56307Y100573D01*
X56356Y100599D01*
X56398Y100622D01*
X56431Y100642D01*
X56454Y100655D01*
X56467Y100665D01*
X56471Y100668D01*
X56526Y100717D01*
X56572Y100770D01*
X56615Y100826D01*
X56651Y100882D01*
X56681Y100937D01*
X56707Y100996D01*
X56726Y101052D01*
X56743Y101104D01*
X56756Y101157D01*
X56766Y101203D01*
X56772Y101246D01*
X56776Y101282D01*
X56779Y101311D01*
X56782Y101334D01*
Y101354D01*
X56779Y101416D01*
X56776Y101472D01*
X56766Y101528D01*
X56756Y101580D01*
X56740Y101629D01*
X56726Y101672D01*
X56710Y101715D01*
X56694Y101751D01*
X56677Y101787D01*
X56661Y101816D01*
X56644Y101843D01*
X56631Y101862D01*
X56621Y101879D01*
X56612Y101892D01*
X56608Y101898D01*
X56605Y101902D01*
X56569Y101941D01*
X56533Y101980D01*
X56451Y102046D01*
X56369Y102102D01*
X56287Y102148D01*
X56248Y102167D01*
X56212Y102184D01*
X56182Y102197D01*
X56152Y102210D01*
X56133Y102220D01*
X56113Y102223D01*
X56103Y102230D01*
X56100D01*
X56038Y102249D01*
X55969Y102266D01*
X55828Y102295D01*
X55683Y102315D01*
X55615Y102321D01*
X55546Y102328D01*
X55483Y102331D01*
X55424Y102335D01*
X55375Y102338D01*
X55329Y102341D01*
X56782D01*
D02*
G37*
%LPD*%
G36*
X60520Y99668D02*
X57391Y100547D01*
X60520D01*
Y99668D01*
D02*
G37*
%LPC*%
G36*
Y100547D02*
X57391D01*
Y100249D01*
X60520Y99369D01*
D01*
Y100547D01*
D02*
G37*
G36*
X53706Y100157D02*
Y99750D01*
X55906Y98933D01*
X55998Y98900D01*
X56087Y98868D01*
X56172Y98838D01*
X56248Y98815D01*
X56280Y98805D01*
X56310Y98795D01*
X56336Y98789D01*
X56359Y98782D01*
X56375Y98776D01*
X56392Y98773D01*
X56398Y98769D01*
X56402D01*
X56313Y98743D01*
X56225Y98717D01*
X56143Y98690D01*
X56067Y98668D01*
X56031Y98654D01*
X56002Y98645D01*
X55975Y98635D01*
X55952Y98628D01*
X55933Y98622D01*
X55920Y98615D01*
X55910Y98612D01*
X55906D01*
X53706Y97825D01*
Y97388D01*
X56733Y98563D01*
Y97503D01*
Y99015D01*
Y98976D01*
X53706Y100157D01*
D02*
G37*
G36*
X60517Y99176D02*
X57430D01*
Y97175D01*
D01*
Y98264D01*
X57434Y98176D01*
X57447Y98093D01*
X57463Y98015D01*
X57486Y97943D01*
X57512Y97874D01*
X57542Y97811D01*
X57571Y97752D01*
X57604Y97700D01*
X57637Y97654D01*
X57666Y97615D01*
X57696Y97579D01*
X57722Y97552D01*
X57745Y97529D01*
X57762Y97513D01*
X57775Y97503D01*
X57778Y97500D01*
X57857Y97444D01*
X57945Y97392D01*
X58044Y97349D01*
X58145Y97313D01*
X58250Y97280D01*
X58355Y97254D01*
X58460Y97234D01*
X58565Y97215D01*
X58664Y97201D01*
X58755Y97192D01*
X58837Y97185D01*
X58910Y97182D01*
X58942Y97178D01*
X58969D01*
X58995Y97175D01*
X57430D01*
X59054D01*
X59195Y97178D01*
X59326Y97188D01*
X59447Y97201D01*
X59559Y97221D01*
X59661Y97244D01*
X59753Y97267D01*
X59835Y97293D01*
X59907Y97323D01*
X59972Y97349D01*
X60028Y97375D01*
X60074Y97398D01*
X60110Y97421D01*
X60140Y97441D01*
X60159Y97454D01*
X60172Y97464D01*
X60176Y97467D01*
X60235Y97523D01*
X60287Y97585D01*
X60333Y97644D01*
X60373Y97710D01*
X60405Y97772D01*
X60435Y97834D01*
X60454Y97897D01*
X60474Y97956D01*
X60487Y98011D01*
X60497Y98061D01*
X60507Y98107D01*
X60510Y98146D01*
X60514Y98179D01*
X60517Y98205D01*
Y98225D01*
X60510Y98323D01*
X60497Y98415D01*
X60478Y98500D01*
X60451Y98572D01*
X60441Y98602D01*
X60428Y98631D01*
X60418Y98654D01*
X60409Y98674D01*
X60402Y98690D01*
X60395Y98704D01*
X60389Y98710D01*
Y98713D01*
X60336Y98789D01*
X60274Y98858D01*
X60212Y98917D01*
X60153Y98963D01*
X60097Y99002D01*
X60074Y99015D01*
X60054Y99028D01*
X60038Y99038D01*
X60025Y99045D01*
X60018Y99051D01*
X60015D01*
X59920Y99094D01*
X59828Y99123D01*
X59740Y99146D01*
X59658Y99159D01*
X59621Y99166D01*
X59585Y99169D01*
X59556Y99173D01*
X59533D01*
X59510Y99176D01*
X60517D01*
D02*
G37*
G36*
Y96814D02*
X57430D01*
X58893D01*
X58815Y96811D01*
X58742Y96808D01*
X58674Y96804D01*
X58611Y96798D01*
X58552Y96791D01*
X58500Y96785D01*
X58450Y96781D01*
X58408Y96775D01*
X58372Y96768D01*
X58339Y96762D01*
X58313Y96755D01*
X58290Y96752D01*
X58277Y96749D01*
X58267Y96745D01*
X58263D01*
X58168Y96719D01*
X58080Y96686D01*
X58004Y96657D01*
X57939Y96627D01*
X57912Y96611D01*
X57886Y96601D01*
X57863Y96588D01*
X57847Y96578D01*
X57834Y96568D01*
X57824Y96565D01*
X57817Y96558D01*
X57814D01*
X57749Y96513D01*
X57689Y96460D01*
X57640Y96411D01*
X57601Y96362D01*
X57568Y96319D01*
X57548Y96286D01*
X57539Y96273D01*
X57532Y96263D01*
X57529Y96257D01*
Y96253D01*
X57496Y96181D01*
X57473Y96109D01*
X57453Y96037D01*
X57443Y95971D01*
X57437Y95912D01*
X57434Y95889D01*
X57430Y95866D01*
Y95827D01*
X57434Y95768D01*
X57437Y95709D01*
X57447Y95653D01*
X57457Y95601D01*
X57470Y95555D01*
X57486Y95509D01*
X57503Y95466D01*
X57519Y95430D01*
X57535Y95394D01*
X57552Y95364D01*
X57565Y95338D01*
X57581Y95319D01*
X57591Y95302D01*
X57601Y95289D01*
X57604Y95283D01*
X57608Y95279D01*
X57644Y95240D01*
X57680Y95204D01*
X57762Y95138D01*
X57844Y95079D01*
X57926Y95033D01*
X57965Y95014D01*
X57998Y94997D01*
X58031Y94984D01*
X58057Y94971D01*
X58080Y94964D01*
X58100Y94958D01*
X58109Y94951D01*
X58113D01*
X58175Y94932D01*
X58244Y94915D01*
X58385Y94889D01*
X58529Y94869D01*
X58598Y94863D01*
X58667Y94856D01*
X58729Y94853D01*
X58788Y94850D01*
X58841Y94846D01*
X58887D01*
X58923Y94843D01*
X58975D01*
X59129Y94846D01*
X59274Y94856D01*
X59405Y94869D01*
X59526Y94889D01*
X59638Y94912D01*
X59740Y94938D01*
X59828Y94964D01*
X59910Y94994D01*
X59979Y95020D01*
X60041Y95046D01*
X60090Y95073D01*
X60133Y95096D01*
X60166Y95115D01*
X60189Y95128D01*
X60202Y95138D01*
X60205Y95142D01*
X60261Y95191D01*
X60307Y95243D01*
X60350Y95299D01*
X60386Y95355D01*
X60415Y95411D01*
X60441Y95469D01*
X60461Y95525D01*
X60478Y95578D01*
X60491Y95630D01*
X60500Y95676D01*
X60507Y95719D01*
X60510Y95755D01*
X60514Y95784D01*
X60517Y95807D01*
Y95827D01*
X60514Y95889D01*
X60510Y95945D01*
X60500Y96001D01*
X60491Y96053D01*
X60474Y96102D01*
X60461Y96145D01*
X60445Y96188D01*
X60428Y96224D01*
X60412Y96260D01*
X60395Y96289D01*
X60379Y96316D01*
X60366Y96335D01*
X60356Y96352D01*
X60346Y96365D01*
X60343Y96372D01*
X60340Y96375D01*
X60304Y96414D01*
X60268Y96453D01*
X60185Y96519D01*
X60103Y96575D01*
X60022Y96621D01*
X59982Y96640D01*
X59946Y96657D01*
X59917Y96670D01*
X59887Y96683D01*
X59867Y96693D01*
X59848Y96696D01*
X59838Y96703D01*
X59835D01*
X59772Y96723D01*
X59703Y96739D01*
X59562Y96768D01*
X59418Y96788D01*
X59349Y96795D01*
X59280Y96801D01*
X59218Y96804D01*
X59159Y96808D01*
X59110Y96811D01*
X59064Y96814D01*
X60517D01*
D02*
G37*
G36*
X56733Y95906D02*
X55296D01*
X55254Y95903D01*
X55218D01*
X55185Y95899D01*
X55155D01*
X55106Y95896D01*
X55070Y95889D01*
X55044Y95886D01*
X55027Y95883D01*
X55024D01*
X54965Y95870D01*
X54913Y95850D01*
X54867Y95834D01*
X54827Y95814D01*
X54795Y95794D01*
X54768Y95781D01*
X54755Y95771D01*
X54749Y95768D01*
X54706Y95735D01*
X54670Y95696D01*
X54640Y95653D01*
X54611Y95614D01*
X54591Y95574D01*
X54575Y95545D01*
X54565Y95525D01*
X54562Y95522D01*
Y95519D01*
X54539Y95456D01*
X54519Y95394D01*
X54506Y95332D01*
X54499Y95276D01*
X54493Y95227D01*
Y95207D01*
X54489Y95187D01*
Y94125D01*
Y95155D01*
X54493Y95073D01*
X54506Y94994D01*
X54522Y94922D01*
X54545Y94853D01*
X54575Y94791D01*
X54604Y94735D01*
X54637Y94682D01*
X54670Y94636D01*
X54706Y94594D01*
X54739Y94558D01*
X54768Y94528D01*
X54798Y94505D01*
X54821Y94485D01*
X54837Y94469D01*
X54850Y94463D01*
X54854Y94459D01*
X54539D01*
Y94125D01*
X54489D01*
X56733D01*
Y95181D01*
Y94495D01*
X55536D01*
X55460Y94499D01*
X55388Y94502D01*
X55326Y94512D01*
X55267Y94522D01*
X55214Y94535D01*
X55168Y94548D01*
X55126Y94564D01*
X55090Y94581D01*
X55057Y94597D01*
X55031Y94613D01*
X55011Y94626D01*
X54991Y94640D01*
X54978Y94649D01*
X54968Y94659D01*
X54965Y94663D01*
X54962Y94666D01*
X54936Y94699D01*
X54913Y94735D01*
X54873Y94804D01*
X54847Y94873D01*
X54831Y94935D01*
X54817Y94991D01*
X54814Y95017D01*
Y95037D01*
X54811Y95053D01*
Y95076D01*
X54814Y95132D01*
X54821Y95181D01*
X54834Y95223D01*
X54844Y95263D01*
X54857Y95292D01*
X54870Y95315D01*
X54877Y95332D01*
X54880Y95335D01*
X54906Y95374D01*
X54936Y95407D01*
X54965Y95433D01*
X54995Y95453D01*
X55021Y95469D01*
X55041Y95479D01*
X55054Y95486D01*
X55060Y95489D01*
X55106Y95506D01*
X55159Y95515D01*
X55214Y95525D01*
X55270Y95529D01*
X55319Y95532D01*
X55342Y95535D01*
X55362D01*
X55375D01*
X55388D01*
X55395D01*
X55398D01*
X56733D01*
Y95906D01*
D02*
G37*
G36*
X60520Y94669D02*
X57391D01*
Y93492D01*
D01*
Y94371D01*
X60520Y93492D01*
D01*
Y93790D01*
X57391Y94669D01*
X60520D01*
D01*
D02*
G37*
G36*
X56733Y93561D02*
X54539D01*
Y93190D01*
X54129D01*
Y93561D01*
X53706D01*
Y93190D01*
X56733D01*
Y93561D01*
D02*
G37*
G36*
X56782Y92727D02*
Y91458D01*
X56779Y91540D01*
X56772Y91615D01*
X56759Y91684D01*
X56746Y91747D01*
X56733Y91796D01*
X56726Y91819D01*
X56720Y91835D01*
X56717Y91848D01*
X56713Y91858D01*
X56710Y91865D01*
Y91868D01*
X56677Y91940D01*
X56641Y92012D01*
X56599Y92078D01*
X56556Y92140D01*
X56520Y92193D01*
X56500Y92212D01*
X56487Y92232D01*
X56474Y92249D01*
X56464Y92258D01*
X56461Y92265D01*
X56458Y92268D01*
X56516Y92275D01*
X56569Y92285D01*
X56615Y92298D01*
X56654Y92311D01*
X56687Y92321D01*
X56713Y92331D01*
X56726Y92337D01*
X56733Y92340D01*
Y92727D01*
X56687Y92704D01*
X56638Y92685D01*
X56595Y92668D01*
X56556Y92655D01*
X56520Y92645D01*
X56494Y92639D01*
X56477Y92636D01*
X56471D01*
X56441Y92632D01*
X56402Y92629D01*
X56359Y92626D01*
X56310Y92623D01*
X56257Y92619D01*
X56202D01*
X56090Y92616D01*
X56038D01*
X55985Y92613D01*
X55939D01*
X55897D01*
X55864D01*
X55838D01*
X55821D01*
X55815D01*
X55319D01*
X55273D01*
X55234D01*
X55198Y92609D01*
X55162D01*
X55103Y92606D01*
X55057Y92603D01*
X55021Y92599D01*
X54998Y92596D01*
X54981Y92593D01*
X54978D01*
X54922Y92580D01*
X54873Y92560D01*
X54831Y92541D01*
X54795Y92521D01*
X54765Y92504D01*
X54742Y92488D01*
X54729Y92478D01*
X54726Y92475D01*
X54690Y92439D01*
X54657Y92399D01*
X54627Y92357D01*
X54604Y92314D01*
X54585Y92275D01*
X54571Y92245D01*
X54565Y92232D01*
X54562Y92222D01*
X54558Y92219D01*
Y92216D01*
X54535Y92147D01*
X54519Y92071D01*
X54506Y91996D01*
X54499Y91924D01*
X54493Y91861D01*
Y91832D01*
X54489Y91809D01*
Y91819D01*
Y91763D01*
X54493Y91661D01*
X54503Y91566D01*
X54516Y91481D01*
X54522Y91442D01*
X54529Y91409D01*
X54535Y91376D01*
X54542Y91347D01*
X54549Y91324D01*
X54555Y91304D01*
X54562Y91287D01*
X54565Y91274D01*
X54568Y91268D01*
Y91264D01*
X54601Y91189D01*
X54637Y91123D01*
X54673Y91068D01*
X54709Y91022D01*
X54742Y90986D01*
X54768Y90960D01*
X54785Y90943D01*
X54788Y90936D01*
X54791D01*
X54847Y90897D01*
X54909Y90864D01*
X54972Y90838D01*
X55031Y90815D01*
X55083Y90799D01*
X55106Y90792D01*
X55126Y90786D01*
X55142Y90782D01*
X55155Y90779D01*
X55162Y90776D01*
X55165D01*
X55214Y91140D01*
X55172Y91153D01*
X55132Y91166D01*
X55067Y91192D01*
X55008Y91225D01*
X54965Y91255D01*
X54932Y91281D01*
X54906Y91304D01*
X54893Y91317D01*
X54890Y91324D01*
X54860Y91376D01*
X54837Y91438D01*
X54821Y91501D01*
X54808Y91563D01*
X54801Y91622D01*
Y91645D01*
X54798Y91668D01*
Y91711D01*
X54804Y91809D01*
X54817Y91894D01*
X54837Y91966D01*
X54860Y92026D01*
X54886Y92071D01*
X54896Y92088D01*
X54906Y92104D01*
X54913Y92117D01*
X54919Y92124D01*
X54926Y92131D01*
X54965Y92167D01*
X55014Y92193D01*
X55067Y92212D01*
X55119Y92226D01*
X55168Y92232D01*
X55208Y92239D01*
X55221D01*
X55234D01*
X55241D01*
X55244D01*
X55254D01*
X55267D01*
X55300D01*
X55313Y92235D01*
X55326D01*
X55336D01*
X55339D01*
X55352Y92193D01*
X55365Y92147D01*
X55378Y92094D01*
X55392Y92042D01*
X55414Y91934D01*
X55434Y91825D01*
X55441Y91773D01*
X55447Y91727D01*
X55454Y91684D01*
X55460Y91645D01*
X55464Y91615D01*
X55467Y91593D01*
X55470Y91579D01*
Y91573D01*
X55480Y91494D01*
X55490Y91429D01*
X55500Y91369D01*
X55506Y91324D01*
X55516Y91287D01*
X55519Y91261D01*
X55526Y91248D01*
Y91242D01*
X55542Y91189D01*
X55562Y91137D01*
X55582Y91091D01*
X55601Y91051D01*
X55618Y91019D01*
X55634Y90996D01*
X55644Y90979D01*
X55647Y90973D01*
X55680Y90930D01*
X55713Y90894D01*
X55749Y90861D01*
X55782Y90835D01*
X55815Y90812D01*
X55838Y90795D01*
X55854Y90786D01*
X55861Y90782D01*
X55913Y90759D01*
X55962Y90740D01*
X56011Y90727D01*
X56057Y90720D01*
X56097Y90714D01*
X56129Y90710D01*
X54489D01*
X56782D01*
Y91376D01*
Y90710D01*
X56156D01*
X56205Y90714D01*
X56254Y90720D01*
X56300Y90727D01*
X56343Y90740D01*
X56421Y90773D01*
X56484Y90809D01*
X56513Y90825D01*
X56536Y90841D01*
X56559Y90858D01*
X56576Y90874D01*
X56589Y90887D01*
X56599Y90894D01*
X56605Y90900D01*
X56608Y90904D01*
X56638Y90943D01*
X56664Y90983D01*
X56690Y91028D01*
X56710Y91071D01*
X56740Y91163D01*
X56759Y91255D01*
X56769Y91294D01*
X56772Y91333D01*
X56776Y91369D01*
X56779Y91399D01*
X56782Y91422D01*
Y92727D01*
D02*
G37*
G36*
X60517Y93298D02*
X57430D01*
Y91297D01*
D01*
Y92386D01*
X57434Y92298D01*
X57447Y92216D01*
X57463Y92137D01*
X57486Y92065D01*
X57512Y91996D01*
X57542Y91934D01*
X57571Y91875D01*
X57604Y91822D01*
X57637Y91776D01*
X57666Y91737D01*
X57696Y91701D01*
X57722Y91675D01*
X57745Y91652D01*
X57762Y91635D01*
X57775Y91625D01*
X57778Y91622D01*
X57857Y91566D01*
X57945Y91514D01*
X58044Y91471D01*
X58145Y91435D01*
X58250Y91402D01*
X58355Y91376D01*
X58460Y91356D01*
X58565Y91337D01*
X58664Y91324D01*
X58755Y91314D01*
X58837Y91307D01*
X58910Y91304D01*
X58942Y91301D01*
X58969D01*
X58995Y91297D01*
X59054D01*
X59195Y91301D01*
X59326Y91311D01*
X59447Y91324D01*
X59559Y91343D01*
X59661Y91366D01*
X59753Y91389D01*
X59835Y91415D01*
X59907Y91445D01*
X59972Y91471D01*
X60028Y91497D01*
X60074Y91520D01*
X60110Y91543D01*
X60140Y91563D01*
X60159Y91576D01*
X60172Y91586D01*
X60176Y91589D01*
X60235Y91645D01*
X60287Y91707D01*
X60333Y91766D01*
X60373Y91832D01*
X60405Y91894D01*
X60435Y91957D01*
X60454Y92019D01*
X60474Y92078D01*
X60487Y92134D01*
X60497Y92183D01*
X60507Y92229D01*
X60510Y92268D01*
X60514Y92301D01*
X60517Y92327D01*
Y92347D01*
X60510Y92445D01*
X60497Y92537D01*
X60478Y92623D01*
X60451Y92695D01*
X60441Y92724D01*
X60428Y92754D01*
X60418Y92777D01*
X60409Y92796D01*
X60402Y92813D01*
X60395Y92826D01*
X60389Y92832D01*
Y92836D01*
X60336Y92911D01*
X60274Y92980D01*
X60212Y93039D01*
X60153Y93085D01*
X60097Y93124D01*
X60074Y93137D01*
X60054Y93151D01*
X60038Y93160D01*
X60025Y93167D01*
X60018Y93173D01*
X60015D01*
X59920Y93216D01*
X59828Y93246D01*
X59740Y93269D01*
X59658Y93282D01*
X59621Y93288D01*
X59585Y93292D01*
X59556Y93295D01*
X59533D01*
X59510Y93298D01*
X60517D01*
D02*
G37*
G36*
X56733Y90615D02*
X54489D01*
Y89425D01*
Y90231D01*
X54493Y90185D01*
X54503Y90140D01*
X54513Y90100D01*
X54526Y90064D01*
X54542Y90038D01*
X54552Y90015D01*
X54562Y90002D01*
X54565Y89995D01*
X54581Y89976D01*
X54601Y89952D01*
X54644Y89913D01*
X54696Y89874D01*
X54749Y89838D01*
X54795Y89805D01*
X54837Y89782D01*
X54850Y89772D01*
X54863Y89766D01*
X54870Y89759D01*
X54539D01*
Y89425D01*
X54489D01*
X56733D01*
Y89795D01*
X55585D01*
X55500Y89798D01*
X55418Y89805D01*
X55346Y89815D01*
X55280Y89825D01*
X55228Y89834D01*
X55204Y89841D01*
X55185Y89844D01*
X55172Y89848D01*
X55162Y89851D01*
X55155Y89854D01*
X55152D01*
X55106Y89874D01*
X55063Y89894D01*
X55031Y89916D01*
X55001Y89939D01*
X54978Y89959D01*
X54962Y89976D01*
X54952Y89989D01*
X54949Y89992D01*
X54922Y90031D01*
X54906Y90067D01*
X54893Y90103D01*
X54883Y90140D01*
X54877Y90169D01*
X54873Y90192D01*
Y90212D01*
X54877Y90264D01*
X54886Y90313D01*
X54900Y90359D01*
X54913Y90399D01*
X54929Y90435D01*
X54942Y90461D01*
X54952Y90477D01*
X54955Y90484D01*
X54611Y90615D01*
X54571Y90543D01*
X54542Y90471D01*
X54519Y90408D01*
X54506Y90349D01*
X54496Y90300D01*
X54493Y90281D01*
Y90264D01*
X54489Y90251D01*
Y90615D01*
X56733D01*
D02*
G37*
G36*
X60517Y90936D02*
X57430D01*
Y88965D01*
D01*
Y89949D01*
X57434Y89890D01*
X57437Y89831D01*
X57447Y89775D01*
X57457Y89723D01*
X57470Y89677D01*
X57486Y89631D01*
X57503Y89588D01*
X57519Y89552D01*
X57535Y89516D01*
X57552Y89487D01*
X57565Y89461D01*
X57581Y89441D01*
X57591Y89425D01*
X57601Y89411D01*
X57604Y89405D01*
X57608Y89402D01*
X57644Y89362D01*
X57680Y89326D01*
X57762Y89261D01*
X57844Y89201D01*
X57926Y89156D01*
X57965Y89136D01*
X57998Y89119D01*
X58031Y89106D01*
X58057Y89093D01*
X58080Y89087D01*
X58100Y89080D01*
X58109Y89073D01*
X58113D01*
X58175Y89054D01*
X58244Y89037D01*
X58385Y89011D01*
X58529Y88991D01*
X58598Y88985D01*
X58667Y88978D01*
X58729Y88975D01*
X58788Y88972D01*
X58841Y88969D01*
X58887D01*
X58923Y88965D01*
X58975D01*
X59129Y88969D01*
X59274Y88978D01*
X59405Y88991D01*
X59526Y89011D01*
X59638Y89034D01*
X59740Y89060D01*
X59828Y89087D01*
X59910Y89116D01*
X59979Y89142D01*
X60041Y89169D01*
X60090Y89195D01*
X60133Y89218D01*
X60166Y89237D01*
X60189Y89251D01*
X60202Y89261D01*
X60205Y89264D01*
X60261Y89313D01*
X60307Y89365D01*
X60350Y89421D01*
X60386Y89477D01*
X60415Y89533D01*
X60441Y89592D01*
X60461Y89648D01*
X60478Y89700D01*
X60491Y89753D01*
X60500Y89798D01*
X60507Y89841D01*
X60510Y89877D01*
X60514Y89907D01*
X60517Y89930D01*
Y89949D01*
X60514Y90012D01*
X60510Y90067D01*
X60500Y90123D01*
X60491Y90176D01*
X60474Y90225D01*
X60461Y90267D01*
X60445Y90310D01*
X60428Y90346D01*
X60412Y90382D01*
X60395Y90412D01*
X60379Y90438D01*
X60366Y90458D01*
X60356Y90474D01*
X60346Y90487D01*
X60343Y90494D01*
X60340Y90497D01*
X60304Y90536D01*
X60268Y90576D01*
X60185Y90641D01*
X60103Y90697D01*
X60022Y90743D01*
X59982Y90763D01*
X59946Y90779D01*
X59917Y90792D01*
X59887Y90805D01*
X59867Y90815D01*
X59848Y90819D01*
X59838Y90825D01*
X59835D01*
X59772Y90845D01*
X59703Y90861D01*
X59562Y90891D01*
X59418Y90910D01*
X59349Y90917D01*
X59280Y90923D01*
X59218Y90927D01*
X59159Y90930D01*
X59110Y90933D01*
X59064Y90936D01*
X60517D01*
D02*
G37*
G36*
X55893Y88923D02*
X55808D01*
X55762Y88916D01*
X55674Y88900D01*
X55595Y88873D01*
X55529Y88847D01*
X55500Y88834D01*
X55474Y88821D01*
X55450Y88808D01*
X55431Y88795D01*
X55418Y88785D01*
X55408Y88778D01*
X55401Y88775D01*
X55398Y88772D01*
X55329Y88713D01*
X55273Y88644D01*
X55224Y88575D01*
X55188Y88506D01*
X55159Y88447D01*
X55149Y88421D01*
X55139Y88398D01*
X55132Y88378D01*
X55126Y88365D01*
X55123Y88355D01*
Y88352D01*
X55080Y88427D01*
X55034Y88490D01*
X54988Y88545D01*
X54945Y88588D01*
X54906Y88624D01*
X54877Y88647D01*
X54863Y88657D01*
X54854Y88664D01*
X54850Y88667D01*
X54847D01*
X54781Y88703D01*
X54719Y88729D01*
X54657Y88749D01*
X54601Y88762D01*
X54552Y88769D01*
X54516Y88775D01*
X54503D01*
X54493D01*
X54486D01*
X54483D01*
X54404Y88769D01*
X54332Y88755D01*
X54263Y88736D01*
X54204Y88716D01*
X54155Y88693D01*
X54132Y88683D01*
X54116Y88673D01*
X54102Y88664D01*
X54093Y88660D01*
X54086Y88654D01*
X54083D01*
X54017Y88604D01*
X53958Y88552D01*
X53909Y88499D01*
X53870Y88447D01*
X53840Y88398D01*
X53817Y88362D01*
X53811Y88345D01*
X53804Y88336D01*
X53801Y88329D01*
Y88326D01*
X53768Y88240D01*
X53745Y88152D01*
X53728Y88057D01*
X53719Y87971D01*
X53712Y87929D01*
X53709Y87893D01*
Y87857D01*
X53706Y87827D01*
Y87837D01*
Y86637D01*
X56733D01*
Y87788D01*
X56730Y87893D01*
X56726Y87988D01*
X56717Y88070D01*
X56713Y88109D01*
X56707Y88142D01*
X56704Y88171D01*
X56700Y88198D01*
X56694Y88221D01*
X56690Y88240D01*
X56687Y88257D01*
Y88267D01*
X56684Y88273D01*
Y88276D01*
X56664Y88349D01*
X56641Y88414D01*
X56615Y88470D01*
X56592Y88516D01*
X56569Y88555D01*
X56553Y88585D01*
X56539Y88601D01*
X56536Y88608D01*
X56494Y88657D01*
X56448Y88700D01*
X56402Y88739D01*
X56356Y88769D01*
X56316Y88795D01*
X56284Y88814D01*
X56270Y88821D01*
X56261Y88828D01*
X56257Y88831D01*
X56254D01*
X56185Y88860D01*
X56113Y88883D01*
X56047Y88900D01*
X55985Y88913D01*
X55933Y88919D01*
X55913D01*
X55893Y88923D01*
D02*
G37*
G36*
X53706D02*
X53706D01*
Y87899D01*
Y88923D01*
X53706D01*
D02*
G37*
G36*
X60517Y87447D02*
X57388D01*
D01*
X59507D01*
X59405Y87046D01*
X59474Y87030D01*
X59539Y87007D01*
X59602Y86984D01*
X59658Y86961D01*
X59710Y86935D01*
X59756Y86909D01*
X59799Y86883D01*
X59838Y86856D01*
X59871Y86830D01*
X59900Y86807D01*
X59926Y86784D01*
X59946Y86768D01*
X59962Y86751D01*
X59972Y86738D01*
X59979Y86732D01*
X59982Y86728D01*
X60015Y86682D01*
X60044Y86637D01*
X60071Y86590D01*
X60094Y86541D01*
X60113Y86492D01*
X60130Y86446D01*
X60153Y86354D01*
X60159Y86315D01*
X60166Y86276D01*
X60169Y86243D01*
X60172Y86213D01*
X60176Y86190D01*
Y86158D01*
X60172Y86105D01*
X60169Y86056D01*
X60153Y85961D01*
X60130Y85872D01*
X60103Y85797D01*
X60090Y85764D01*
X60081Y85734D01*
X60067Y85708D01*
X60058Y85685D01*
X60048Y85666D01*
X60041Y85653D01*
X60035Y85646D01*
Y85643D01*
X60005Y85600D01*
X59976Y85561D01*
X59907Y85488D01*
X59838Y85429D01*
X59766Y85380D01*
X59703Y85344D01*
X59677Y85328D01*
X59651Y85315D01*
X59631Y85308D01*
X59618Y85302D01*
X59608Y85295D01*
X59605D01*
X59493Y85259D01*
X59379Y85229D01*
X59264Y85210D01*
X59211Y85203D01*
X59159Y85197D01*
X59110Y85193D01*
X59067Y85190D01*
X59028Y85187D01*
X58995D01*
X58965Y85183D01*
X58946D01*
X58933D01*
X58929D01*
X58818Y85187D01*
X58713Y85197D01*
X58614Y85213D01*
X58569Y85220D01*
X58526Y85229D01*
X58490Y85239D01*
X58454Y85246D01*
X58424Y85256D01*
X58398Y85262D01*
X58378Y85265D01*
X58362Y85272D01*
X58352Y85275D01*
X58349D01*
X58247Y85318D01*
X58158Y85367D01*
X58083Y85420D01*
X58050Y85449D01*
X58017Y85475D01*
X57991Y85502D01*
X57968Y85524D01*
X57945Y85548D01*
X57929Y85564D01*
X57916Y85580D01*
X57906Y85593D01*
X57903Y85600D01*
X57899Y85603D01*
X57870Y85649D01*
X57844Y85695D01*
X57821Y85744D01*
X57801Y85794D01*
X57771Y85892D01*
X57749Y85987D01*
X57742Y86026D01*
X57739Y86066D01*
X57735Y86102D01*
X57732Y86131D01*
X57729Y86158D01*
Y86246D01*
X57735Y86299D01*
X57752Y86397D01*
X57778Y86482D01*
X57791Y86518D01*
X57804Y86554D01*
X57817Y86587D01*
X57831Y86614D01*
X57844Y86637D01*
X57857Y86656D01*
X57867Y86673D01*
X57873Y86682D01*
X57876Y86689D01*
X57880Y86692D01*
X57909Y86728D01*
X57942Y86764D01*
X58017Y86823D01*
X58100Y86879D01*
X58178Y86922D01*
X58250Y86955D01*
X58280Y86971D01*
X58306Y86981D01*
X58329Y86991D01*
X58349Y86994D01*
X58359Y87001D01*
X58362D01*
X58270Y87394D01*
X58195Y87368D01*
X58122Y87338D01*
X58053Y87309D01*
X57991Y87273D01*
X57932Y87240D01*
X57880Y87204D01*
X57831Y87168D01*
X57788Y87132D01*
X57749Y87096D01*
X57716Y87066D01*
X57686Y87037D01*
X57663Y87010D01*
X57644Y86991D01*
X57630Y86974D01*
X57624Y86964D01*
X57621Y86961D01*
X57578Y86902D01*
X57545Y86840D01*
X57512Y86778D01*
X57486Y86712D01*
X57463Y86646D01*
X57443Y86584D01*
X57430Y86522D01*
X57417Y86463D01*
X57407Y86407D01*
X57401Y86358D01*
X57394Y86312D01*
X57391Y86272D01*
X57388Y86240D01*
Y86197D01*
X57391Y86121D01*
X57394Y86049D01*
X57417Y85915D01*
X57430Y85849D01*
X57447Y85790D01*
X57463Y85731D01*
X57480Y85679D01*
X57496Y85633D01*
X57512Y85590D01*
X57529Y85551D01*
X57542Y85521D01*
X57555Y85495D01*
X57565Y85479D01*
X57568Y85466D01*
X57571Y85462D01*
X57608Y85403D01*
X57647Y85344D01*
X57689Y85292D01*
X57732Y85242D01*
X57778Y85197D01*
X57821Y85154D01*
X57867Y85118D01*
X57906Y85082D01*
X57949Y85052D01*
X57985Y85026D01*
X58017Y85003D01*
X58047Y84983D01*
X58073Y84970D01*
X58090Y84960D01*
X58103Y84954D01*
X58106Y84951D01*
X58172Y84918D01*
X58244Y84891D01*
X58313Y84869D01*
X58381Y84846D01*
X58523Y84813D01*
X58588Y84803D01*
X58650Y84793D01*
X58710Y84786D01*
X58762Y84780D01*
X58811Y84777D01*
X58854Y84773D01*
X58887Y84770D01*
X58933D01*
X59011Y84773D01*
X59090Y84777D01*
X59241Y84796D01*
X59313Y84806D01*
X59379Y84819D01*
X59441Y84836D01*
X59500Y84849D01*
X59553Y84865D01*
X59602Y84878D01*
X59641Y84891D01*
X59677Y84905D01*
X59703Y84914D01*
X59726Y84921D01*
X59740Y84924D01*
X59743Y84928D01*
X59812Y84960D01*
X59877Y84993D01*
X59936Y85029D01*
X59992Y85069D01*
X60044Y85108D01*
X60090Y85144D01*
X60133Y85183D01*
X60172Y85220D01*
X60208Y85256D01*
X60238Y85288D01*
X60261Y85318D01*
X60284Y85344D01*
X60300Y85364D01*
X60310Y85380D01*
X60317Y85390D01*
X60320Y85393D01*
X60356Y85452D01*
X60386Y85515D01*
X60412Y85580D01*
X60435Y85649D01*
X60451Y85715D01*
X60468Y85780D01*
X60481Y85846D01*
X60491Y85908D01*
X60500Y85967D01*
X60507Y86020D01*
X60510Y86069D01*
X60514Y86108D01*
X60517Y86145D01*
Y84911D01*
Y86190D01*
X60514Y86279D01*
X60507Y86361D01*
X60494Y86440D01*
X60478Y86515D01*
X60458Y86587D01*
X60435Y86653D01*
X60412Y86712D01*
X60389Y86768D01*
X60366Y86820D01*
X60343Y86863D01*
X60320Y86902D01*
X60300Y86932D01*
X60284Y86958D01*
X60271Y86974D01*
X60264Y86987D01*
X60261Y86991D01*
X60208Y87050D01*
X60153Y87106D01*
X60094Y87155D01*
X60035Y87201D01*
X59972Y87243D01*
X59907Y87279D01*
X59848Y87312D01*
X59785Y87342D01*
X59730Y87368D01*
X59677Y87388D01*
X59628Y87407D01*
X59589Y87420D01*
X59553Y87433D01*
X59530Y87440D01*
X59513Y87447D01*
X60517D01*
D02*
G37*
G36*
X56782Y84977D02*
X54489D01*
Y82956D01*
Y83980D01*
X54493Y83898D01*
X54503Y83816D01*
X54519Y83744D01*
X54539Y83671D01*
X54562Y83606D01*
X54588Y83543D01*
X54614Y83488D01*
X54644Y83438D01*
X54673Y83393D01*
X54699Y83353D01*
X54726Y83317D01*
X54749Y83291D01*
X54768Y83268D01*
X54785Y83252D01*
X54795Y83242D01*
X54798Y83238D01*
X54857Y83189D01*
X54922Y83147D01*
X54991Y83107D01*
X55060Y83074D01*
X55132Y83048D01*
X55204Y83025D01*
X55273Y83005D01*
X55342Y82992D01*
X55405Y82979D01*
X55467Y82973D01*
X55519Y82966D01*
X55565Y82960D01*
X55605D01*
X55634Y82956D01*
X54489D01*
X55657D01*
X55756Y82960D01*
X55847Y82969D01*
X55933Y82983D01*
X56011Y82999D01*
X56087Y83022D01*
X56156Y83045D01*
X56218Y83071D01*
X56274Y83097D01*
X56323Y83120D01*
X56366Y83147D01*
X56402Y83170D01*
X56431Y83192D01*
X56458Y83209D01*
X56474Y83222D01*
X56484Y83232D01*
X56487Y83235D01*
X56539Y83291D01*
X56585Y83350D01*
X56625Y83409D01*
X56658Y83474D01*
X56687Y83537D01*
X56710Y83602D01*
X56730Y83665D01*
X56746Y83724D01*
X56756Y83780D01*
X56766Y83832D01*
X56772Y83878D01*
X56779Y83921D01*
Y83953D01*
X56782Y83980D01*
Y83999D01*
X56779Y84068D01*
X56776Y84137D01*
X56766Y84199D01*
X56753Y84259D01*
X56740Y84314D01*
X56723Y84363D01*
X56707Y84413D01*
X56690Y84455D01*
X56674Y84495D01*
X56658Y84527D01*
X56641Y84557D01*
X56628Y84583D01*
X56615Y84600D01*
X56605Y84616D01*
X56602Y84623D01*
X56599Y84626D01*
X56563Y84672D01*
X56523Y84711D01*
X56480Y84747D01*
X56438Y84783D01*
X56349Y84842D01*
X56267Y84888D01*
X56228Y84905D01*
X56192Y84921D01*
X56159Y84934D01*
X56129Y84944D01*
X56107Y84954D01*
X56090Y84960D01*
X56077Y84964D01*
X56074D01*
X56024Y84577D01*
X56107Y84544D01*
X56179Y84504D01*
X56241Y84465D01*
X56287Y84429D01*
X56326Y84396D01*
X56353Y84370D01*
X56366Y84354D01*
X56372Y84350D01*
Y84347D01*
X56408Y84291D01*
X56431Y84232D01*
X56451Y84173D01*
X56464Y84121D01*
X56471Y84071D01*
X56474Y84032D01*
X56477Y84019D01*
Y83999D01*
X56474Y83950D01*
X56467Y83901D01*
X56461Y83855D01*
X56448Y83812D01*
X56418Y83734D01*
X56382Y83668D01*
X56366Y83639D01*
X56346Y83612D01*
X56330Y83593D01*
X56316Y83573D01*
X56303Y83560D01*
X56293Y83550D01*
X56290Y83543D01*
X56287Y83540D01*
X56248Y83507D01*
X56208Y83478D01*
X56162Y83455D01*
X56120Y83432D01*
X56024Y83396D01*
X55936Y83370D01*
X55893Y83360D01*
X55854Y83353D01*
X55821Y83347D01*
X55788Y83343D01*
X55765Y83340D01*
X55746Y83337D01*
X55733D01*
X55729D01*
Y84974D01*
X55687Y84977D01*
X56782D01*
D02*
G37*
G36*
Y82628D02*
Y81677D01*
X56779Y81749D01*
X56769Y81818D01*
X56753Y81884D01*
X56733Y81946D01*
X56710Y82005D01*
X56687Y82061D01*
X56658Y82110D01*
X56628Y82159D01*
X56602Y82199D01*
X56572Y82238D01*
X56549Y82271D01*
X56523Y82297D01*
X56507Y82317D01*
X56490Y82333D01*
X56480Y82343D01*
X56477Y82346D01*
X56415Y82395D01*
X56353Y82438D01*
X56284Y82477D01*
X56212Y82510D01*
X56139Y82537D01*
X56064Y82559D01*
X55995Y82579D01*
X55926Y82592D01*
X55861Y82605D01*
X55798Y82612D01*
X55746Y82618D01*
X55696Y82625D01*
X55657D01*
X55631Y82628D01*
X56782D01*
X55605D01*
X55516Y82625D01*
X55434Y82618D01*
X55359Y82605D01*
X55293Y82595D01*
X55264Y82589D01*
X55237Y82582D01*
X55214Y82576D01*
X55195Y82569D01*
X55178Y82566D01*
X55168Y82563D01*
X55162Y82559D01*
X55159D01*
X55083Y82533D01*
X55014Y82504D01*
X54952Y82474D01*
X54900Y82445D01*
X54860Y82415D01*
X54827Y82395D01*
X54808Y82382D01*
X54801Y82376D01*
X54749Y82330D01*
X54703Y82281D01*
X54663Y82231D01*
X54631Y82186D01*
X54604Y82143D01*
X54588Y82110D01*
X54581Y82097D01*
X54575Y82087D01*
X54571Y82084D01*
Y82081D01*
X54545Y82012D01*
X54526Y81946D01*
X54509Y81880D01*
X54499Y81821D01*
X54493Y81772D01*
Y81749D01*
X54489Y81733D01*
Y81697D01*
X54493Y81631D01*
X54503Y81566D01*
X54516Y81507D01*
X54535Y81447D01*
X54558Y81395D01*
X54581Y81346D01*
X54611Y81300D01*
X54637Y81261D01*
X54663Y81221D01*
X54690Y81188D01*
X54716Y81162D01*
X54739Y81139D01*
X54759Y81120D01*
X54772Y81106D01*
X54781Y81100D01*
X54785Y81097D01*
X53706D01*
Y80726D01*
X56733D01*
Y81070D01*
X56461D01*
X56516Y81113D01*
X56566Y81159D01*
X56608Y81208D01*
X56648Y81257D01*
X56677Y81310D01*
X56704Y81359D01*
X56726Y81408D01*
X56743Y81457D01*
X56756Y81500D01*
X56766Y81543D01*
X56772Y81582D01*
X56776Y81615D01*
X56779Y81641D01*
X56782Y81661D01*
Y80726D01*
D01*
Y82628D01*
D02*
G37*
G36*
X60468Y84288D02*
X58224D01*
D01*
X58962D01*
X58893Y84285D01*
X58831Y84281D01*
X58772Y84272D01*
X58716Y84262D01*
X58667Y84249D01*
X58621Y84232D01*
X58582Y84216D01*
X58546Y84199D01*
X58513Y84183D01*
X58483Y84167D01*
X58460Y84153D01*
X58441Y84137D01*
X58428Y84127D01*
X58418Y84117D01*
X58411Y84114D01*
X58408Y84111D01*
X58375Y84078D01*
X58346Y84039D01*
X58323Y83999D01*
X58303Y83960D01*
X58270Y83875D01*
X58247Y83796D01*
X58240Y83757D01*
X58234Y83721D01*
X58231Y83691D01*
X58227Y83662D01*
X58224Y83642D01*
Y83609D01*
X58227Y83534D01*
X58240Y83461D01*
X58260Y83393D01*
X58283Y83327D01*
X58313Y83268D01*
X58346Y83212D01*
X58381Y83160D01*
X58414Y83114D01*
X58450Y83071D01*
X58486Y83035D01*
X58519Y83002D01*
X58549Y82979D01*
X58572Y82956D01*
X58592Y82943D01*
X58605Y82933D01*
X58608Y82930D01*
X58542Y82901D01*
X58486Y82868D01*
X58441Y82832D01*
X58398Y82796D01*
X58368Y82759D01*
X58346Y82733D01*
X58329Y82714D01*
X58326Y82710D01*
Y82707D01*
X58293Y82645D01*
X58267Y82579D01*
X58250Y82513D01*
X58237Y82451D01*
X58231Y82395D01*
X58227Y82372D01*
X58224Y82349D01*
Y81313D01*
Y82310D01*
X58227Y82231D01*
X58240Y82156D01*
X58254Y82090D01*
X58273Y82031D01*
X58290Y81985D01*
X58299Y81966D01*
X58306Y81949D01*
X58313Y81936D01*
X58319Y81926D01*
X58323Y81923D01*
Y81920D01*
X58362Y81858D01*
X58404Y81805D01*
X58447Y81759D01*
X58490Y81720D01*
X58526Y81687D01*
X58555Y81664D01*
X58575Y81651D01*
X58578Y81644D01*
X58273D01*
Y81313D01*
X60468D01*
Y81703D01*
Y81684D01*
X59329D01*
X59274D01*
X59224Y81687D01*
X59175Y81690D01*
X59133Y81694D01*
X59090Y81697D01*
X59054Y81703D01*
X59021Y81707D01*
X58988Y81713D01*
X58962Y81720D01*
X58939Y81723D01*
X58920Y81730D01*
X58903Y81733D01*
X58890Y81736D01*
X58880Y81739D01*
X58877Y81743D01*
X58873D01*
X58818Y81769D01*
X58769Y81798D01*
X58726Y81831D01*
X58693Y81864D01*
X58664Y81890D01*
X58647Y81913D01*
X58634Y81930D01*
X58631Y81936D01*
X58601Y81989D01*
X58582Y82038D01*
X58565Y82087D01*
X58555Y82133D01*
X58549Y82172D01*
X58546Y82202D01*
Y82228D01*
X58552Y82300D01*
X58565Y82363D01*
X58585Y82412D01*
X58608Y82455D01*
X58631Y82484D01*
X58650Y82507D01*
X58664Y82520D01*
X58670Y82523D01*
X58723Y82553D01*
X58782Y82576D01*
X58844Y82592D01*
X58903Y82605D01*
X58959Y82612D01*
X58982D01*
X59001Y82615D01*
X59021D01*
X59034D01*
X59041D01*
X59044D01*
X60468D01*
Y84288D01*
D02*
G37*
G36*
X60517Y80857D02*
X58224D01*
D01*
X60517D01*
D02*
G37*
G36*
X60468D02*
X60422Y80834D01*
X60373Y80814D01*
X60330Y80798D01*
X60290Y80785D01*
X60254Y80775D01*
X60228Y80769D01*
X60212Y80765D01*
X60205D01*
X60176Y80762D01*
X60136Y80759D01*
X60094Y80755D01*
X60044Y80752D01*
X59992Y80749D01*
X59936D01*
X59825Y80746D01*
X59772D01*
X59720Y80742D01*
X59674D01*
X59631D01*
X59598D01*
X59572D01*
X59556D01*
X59549D01*
X59054D01*
X59008D01*
X58969D01*
X58933Y80739D01*
X58896D01*
X58837Y80736D01*
X58792Y80733D01*
X58755Y80729D01*
X58732Y80726D01*
X58716Y80723D01*
X58713D01*
X58657Y80709D01*
X58608Y80690D01*
X58565Y80670D01*
X58529Y80651D01*
X58500Y80634D01*
X58477Y80618D01*
X58464Y80608D01*
X58460Y80604D01*
X58424Y80568D01*
X58391Y80529D01*
X58362Y80487D01*
X58339Y80444D01*
X58319Y80405D01*
X58306Y80375D01*
X58299Y80362D01*
X58296Y80352D01*
X58293Y80349D01*
Y80345D01*
X58270Y80277D01*
X58254Y80201D01*
X58240Y80126D01*
X58234Y80054D01*
X58227Y79991D01*
Y79962D01*
X58224Y79939D01*
Y79893D01*
X58227Y79791D01*
X58237Y79696D01*
X58250Y79611D01*
X58257Y79571D01*
X58263Y79539D01*
X58270Y79506D01*
X58277Y79476D01*
X58283Y79453D01*
X58290Y79434D01*
X58296Y79417D01*
X58299Y79404D01*
X58303Y79397D01*
Y79394D01*
X58336Y79319D01*
X58372Y79253D01*
X58408Y79197D01*
X58444Y79151D01*
X58477Y79115D01*
X58503Y79089D01*
X58519Y79073D01*
X58523Y79066D01*
X58526D01*
X58582Y79027D01*
X58644Y78994D01*
X58706Y78968D01*
X58765Y78945D01*
X58818Y78929D01*
X58841Y78922D01*
X58860Y78915D01*
X58877Y78912D01*
X58890Y78909D01*
X58896Y78905D01*
X58900D01*
X58949Y79270D01*
X58906Y79283D01*
X58867Y79296D01*
X58801Y79322D01*
X58742Y79355D01*
X58700Y79384D01*
X58667Y79411D01*
X58641Y79434D01*
X58627Y79447D01*
X58624Y79453D01*
X58595Y79506D01*
X58572Y79568D01*
X58555Y79630D01*
X58542Y79693D01*
X58536Y79752D01*
Y79775D01*
X58532Y79798D01*
Y79840D01*
X58539Y79939D01*
X58552Y80024D01*
X58572Y80096D01*
X58595Y80155D01*
X58621Y80201D01*
X58631Y80217D01*
X58641Y80234D01*
X58647Y80247D01*
X58654Y80254D01*
X58660Y80260D01*
X58700Y80296D01*
X58749Y80322D01*
X58801Y80342D01*
X58854Y80355D01*
X58903Y80362D01*
X58942Y80368D01*
X58956D01*
X58969D01*
X58975D01*
X58978D01*
X58988D01*
X59001D01*
X59034D01*
X59047Y80365D01*
X59061D01*
X59070D01*
X59074D01*
X59087Y80322D01*
X59100Y80277D01*
X59113Y80224D01*
X59126Y80172D01*
X59149Y80063D01*
X59169Y79955D01*
X59175Y79903D01*
X59182Y79857D01*
X59188Y79814D01*
X59195Y79775D01*
X59198Y79745D01*
X59202Y79722D01*
X59205Y79709D01*
Y79703D01*
X59215Y79624D01*
X59224Y79558D01*
X59234Y79499D01*
X59241Y79453D01*
X59251Y79417D01*
X59254Y79391D01*
X59261Y79378D01*
Y79371D01*
X59277Y79319D01*
X59297Y79266D01*
X59316Y79220D01*
X59336Y79181D01*
X59352Y79148D01*
X59369Y79125D01*
X59379Y79109D01*
X59382Y79102D01*
X59415Y79060D01*
X59447Y79024D01*
X59484Y78991D01*
X59516Y78965D01*
X59549Y78942D01*
X59572Y78925D01*
X59589Y78915D01*
X59595Y78912D01*
X59648Y78889D01*
X59697Y78869D01*
X59746Y78856D01*
X59792Y78850D01*
X59831Y78843D01*
X59864Y78840D01*
X59890D01*
X59939Y78843D01*
X59989Y78850D01*
X60035Y78856D01*
X60077Y78869D01*
X60156Y78902D01*
X60218Y78938D01*
X60248Y78955D01*
X60271Y78971D01*
X60294Y78987D01*
X60310Y79004D01*
X60323Y79017D01*
X60333Y79024D01*
X60340Y79030D01*
X60343Y79033D01*
X60373Y79073D01*
X60399Y79112D01*
X60425Y79158D01*
X60445Y79201D01*
X60474Y79293D01*
X60494Y79384D01*
X60504Y79424D01*
X60507Y79463D01*
X60510Y79499D01*
X60514Y79529D01*
X60517Y79552D01*
Y79588D01*
X60514Y79670D01*
X60507Y79745D01*
X60494Y79814D01*
X60481Y79876D01*
X60468Y79926D01*
X60461Y79949D01*
X60454Y79965D01*
X60451Y79978D01*
X60448Y79988D01*
X60445Y79994D01*
Y79998D01*
X60412Y80070D01*
X60376Y80142D01*
X60333Y80208D01*
X60290Y80270D01*
X60254Y80322D01*
X60235Y80342D01*
X60222Y80362D01*
X60208Y80378D01*
X60199Y80388D01*
X60195Y80395D01*
X60192Y80398D01*
X60251Y80405D01*
X60304Y80414D01*
X60350Y80427D01*
X60389Y80440D01*
X60422Y80450D01*
X60448Y80460D01*
X60461Y80467D01*
X60468Y80470D01*
Y80857D01*
D02*
G37*
G36*
X56782Y80145D02*
X54539D01*
Y79775D01*
X55716D01*
X55815Y79771D01*
X55900Y79765D01*
X55972Y79755D01*
X56034Y79745D01*
X56061Y79739D01*
X56080Y79732D01*
X56100Y79725D01*
X56116Y79722D01*
X56126Y79719D01*
X56136Y79716D01*
X56139Y79712D01*
X56143D01*
X56195Y79686D01*
X56241Y79653D01*
X56280Y79617D01*
X56313Y79584D01*
X56339Y79552D01*
X56359Y79525D01*
X56372Y79509D01*
X56375Y79506D01*
Y79502D01*
X56405Y79447D01*
X56425Y79394D01*
X56441Y79342D01*
X56451Y79293D01*
X56458Y79250D01*
X56461Y79220D01*
Y79191D01*
X56458Y79132D01*
X56448Y79076D01*
X56435Y79027D01*
X56418Y78987D01*
X56405Y78955D01*
X56392Y78929D01*
X56382Y78915D01*
X56379Y78909D01*
X56346Y78869D01*
X56307Y78837D01*
X56270Y78810D01*
X56235Y78791D01*
X56202Y78774D01*
X56172Y78764D01*
X56156Y78761D01*
X56149Y78758D01*
X56129Y78755D01*
X56103Y78751D01*
X56044Y78748D01*
X55979Y78742D01*
X55913D01*
X55854Y78738D01*
X55828D01*
X55801D01*
X55782D01*
X55769D01*
X55759D01*
X55756D01*
X54539D01*
Y78368D01*
X55982D01*
X56054Y78371D01*
X56113Y78374D01*
X56162Y78377D01*
X56198Y78381D01*
X56228Y78384D01*
X56241Y78387D01*
X56248D01*
X56307Y78404D01*
X56359Y78420D01*
X56405Y78440D01*
X56444Y78459D01*
X56477Y78476D01*
X56503Y78489D01*
X56516Y78499D01*
X56523Y78502D01*
X56563Y78535D01*
X56599Y78574D01*
X56631Y78617D01*
X56658Y78656D01*
X56681Y78696D01*
X56697Y78725D01*
X56707Y78745D01*
X56710Y78748D01*
Y78751D01*
X56733Y78817D01*
X56753Y78879D01*
X56766Y78942D01*
X56772Y78997D01*
X56779Y79047D01*
X56782Y79083D01*
Y79115D01*
X56779Y79197D01*
X56766Y79273D01*
X56749Y79342D01*
X56723Y79411D01*
X56697Y79473D01*
X56664Y79529D01*
X56631Y79581D01*
X56595Y79630D01*
X56563Y79673D01*
X56530Y79709D01*
X56497Y79742D01*
X56471Y79768D01*
X56444Y79788D01*
X56428Y79801D01*
X56415Y79811D01*
X56412Y79814D01*
X56733D01*
Y80145D01*
X56782D01*
D02*
G37*
G36*
X60517Y78466D02*
X57388D01*
Y76059D01*
D01*
Y77236D01*
X57391Y77125D01*
X57404Y77020D01*
X57420Y76928D01*
X57430Y76885D01*
X57440Y76846D01*
X57450Y76810D01*
X57460Y76777D01*
X57470Y76747D01*
X57476Y76724D01*
X57483Y76708D01*
X57489Y76692D01*
X57493Y76685D01*
Y76682D01*
X57535Y76593D01*
X57585Y76518D01*
X57634Y76452D01*
X57683Y76400D01*
X57729Y76357D01*
X57765Y76324D01*
X57778Y76314D01*
X57788Y76308D01*
X57794Y76301D01*
X57798D01*
X57873Y76259D01*
X57949Y76226D01*
X58017Y76206D01*
X58083Y76190D01*
X58142Y76180D01*
X58165Y76177D01*
X58185D01*
X58201Y76173D01*
X58214D01*
X58221D01*
X58224D01*
X58299Y76177D01*
X58372Y76190D01*
X58437Y76206D01*
X58493Y76226D01*
X58539Y76245D01*
X58575Y76262D01*
X58588Y76268D01*
X58598Y76275D01*
X58601Y76278D01*
X58605D01*
X58664Y76321D01*
X58719Y76373D01*
X58765Y76426D01*
X58808Y76482D01*
X58841Y76528D01*
X58864Y76567D01*
X58870Y76583D01*
X58877Y76593D01*
X58883Y76600D01*
Y76603D01*
X58900Y76636D01*
X58916Y76675D01*
X58933Y76718D01*
X58949Y76764D01*
X58982Y76859D01*
X59011Y76957D01*
X59024Y77003D01*
X59038Y77043D01*
X59047Y77082D01*
X59057Y77118D01*
X59064Y77144D01*
X59070Y77167D01*
X59074Y77180D01*
Y77184D01*
X59090Y77259D01*
X59110Y77328D01*
X59123Y77387D01*
X59139Y77443D01*
X59152Y77492D01*
X59162Y77538D01*
X59175Y77574D01*
X59185Y77610D01*
X59192Y77636D01*
X59202Y77662D01*
X59208Y77682D01*
X59211Y77695D01*
X59215Y77708D01*
X59218Y77715D01*
X59221Y77721D01*
X59251Y77787D01*
X59280Y77843D01*
X59310Y77892D01*
X59336Y77928D01*
X59362Y77958D01*
X59382Y77977D01*
X59395Y77990D01*
X59398Y77994D01*
X59438Y78023D01*
X59480Y78043D01*
X59523Y78059D01*
X59562Y78069D01*
X59595Y78076D01*
X59625Y78079D01*
X59641D01*
X59644D01*
X59648D01*
X59697Y78076D01*
X59746Y78066D01*
X59789Y78049D01*
X59828Y78036D01*
X59861Y78020D01*
X59887Y78004D01*
X59900Y77994D01*
X59907Y77990D01*
X59949Y77954D01*
X59986Y77915D01*
X60018Y77869D01*
X60044Y77826D01*
X60064Y77787D01*
X60081Y77758D01*
X60087Y77744D01*
X60090Y77735D01*
X60094Y77731D01*
Y77728D01*
X60117Y77662D01*
X60133Y77593D01*
X60143Y77525D01*
X60150Y77462D01*
X60156Y77410D01*
Y77387D01*
X60159Y77367D01*
Y77328D01*
X60156Y77233D01*
X60146Y77147D01*
X60130Y77065D01*
X60113Y76997D01*
X60107Y76967D01*
X60100Y76941D01*
X60090Y76918D01*
X60084Y76898D01*
X60077Y76882D01*
X60074Y76872D01*
X60071Y76865D01*
Y76862D01*
X60035Y76790D01*
X59995Y76728D01*
X59959Y76675D01*
X59920Y76632D01*
X59887Y76600D01*
X59861Y76577D01*
X59844Y76560D01*
X59838Y76557D01*
X59779Y76524D01*
X59716Y76498D01*
X59654Y76478D01*
X59595Y76462D01*
X59539Y76449D01*
X59520Y76446D01*
X59500Y76442D01*
X59484Y76439D01*
X59470Y76436D01*
X59464D01*
X59461D01*
X59493Y76059D01*
D01*
X59549Y76062D01*
X59605Y76068D01*
X59707Y76088D01*
X59802Y76114D01*
X59844Y76127D01*
X59881Y76144D01*
X59917Y76157D01*
X59949Y76173D01*
X59976Y76186D01*
X59999Y76200D01*
X60018Y76209D01*
X60031Y76216D01*
X60038Y76219D01*
X60041Y76222D01*
X60127Y76285D01*
X60199Y76357D01*
X60261Y76429D01*
X60310Y76498D01*
X60350Y76560D01*
X60363Y76587D01*
X60376Y76609D01*
X60386Y76629D01*
X60392Y76642D01*
X60399Y76652D01*
Y76655D01*
X60438Y76767D01*
X60468Y76882D01*
X60487Y76997D01*
X60500Y77105D01*
X60507Y77157D01*
X60510Y77203D01*
X60514Y77243D01*
Y77279D01*
X60517Y77308D01*
Y77347D01*
X60510Y77466D01*
X60497Y77574D01*
X60481Y77672D01*
X60468Y77718D01*
X60458Y77758D01*
X60448Y77797D01*
X60435Y77830D01*
X60425Y77859D01*
X60418Y77882D01*
X60409Y77902D01*
X60405Y77915D01*
X60399Y77925D01*
Y77928D01*
X60350Y78020D01*
X60297Y78099D01*
X60241Y78167D01*
X60189Y78223D01*
X60140Y78269D01*
X60103Y78299D01*
X60087Y78312D01*
X60077Y78318D01*
X60071Y78325D01*
X60067D01*
X60028Y78351D01*
X59986Y78371D01*
X59907Y78407D01*
X59831Y78433D01*
X59762Y78450D01*
X59700Y78459D01*
X59677Y78463D01*
X59654D01*
X59638Y78466D01*
X60517D01*
D02*
G37*
G36*
X56782Y77931D02*
X55772D01*
X55670Y77531D01*
X55739Y77515D01*
X55805Y77492D01*
X55867Y77469D01*
X55923Y77446D01*
X55975Y77420D01*
X56021Y77393D01*
X56064Y77367D01*
X56103Y77341D01*
X56136Y77315D01*
X56166Y77292D01*
X56192Y77269D01*
X56212Y77252D01*
X56228Y77236D01*
X56238Y77223D01*
X56244Y77216D01*
X56248Y77213D01*
X56280Y77167D01*
X56310Y77121D01*
X56336Y77075D01*
X56359Y77026D01*
X56379Y76977D01*
X56395Y76931D01*
X56418Y76839D01*
X56425Y76800D01*
X56431Y76760D01*
X56435Y76728D01*
X56438Y76698D01*
X56441Y76675D01*
Y76642D01*
X56438Y76590D01*
X56435Y76541D01*
X56418Y76446D01*
X56395Y76357D01*
X56369Y76281D01*
X56356Y76249D01*
X56346Y76219D01*
X56333Y76193D01*
X56323Y76170D01*
X56313Y76150D01*
X56307Y76137D01*
X56300Y76131D01*
Y76127D01*
X56270Y76085D01*
X56241Y76045D01*
X56172Y75973D01*
X56103Y75914D01*
X56031Y75865D01*
X55969Y75829D01*
X55942Y75813D01*
X55916Y75799D01*
X55897Y75793D01*
X55884Y75786D01*
X55874Y75780D01*
X55870D01*
X55759Y75744D01*
X55644Y75714D01*
X55529Y75694D01*
X55477Y75688D01*
X55424Y75681D01*
X55375Y75678D01*
X55332Y75675D01*
X55293Y75671D01*
X55260D01*
X55231Y75668D01*
X55211D01*
X55198D01*
X55195D01*
X55083Y75671D01*
X54978Y75681D01*
X54880Y75698D01*
X54834Y75704D01*
X54791Y75714D01*
X54755Y75724D01*
X54719Y75731D01*
X54690Y75740D01*
X54663Y75747D01*
X54644Y75750D01*
X54627Y75757D01*
X54617Y75760D01*
X54614D01*
X54513Y75803D01*
X54424Y75852D01*
X54348Y75904D01*
X54316Y75934D01*
X54283Y75960D01*
X54257Y75986D01*
X54234Y76009D01*
X54211Y76032D01*
X54194Y76049D01*
X54181Y76065D01*
X54171Y76078D01*
X54168Y76085D01*
X54165Y76088D01*
X54135Y76134D01*
X54109Y76180D01*
X54086Y76229D01*
X54066Y76278D01*
X54037Y76377D01*
X54014Y76472D01*
X54007Y76511D01*
X54004Y76551D01*
X54001Y76587D01*
X53997Y76616D01*
X53994Y76642D01*
Y76731D01*
X54001Y76783D01*
X54017Y76882D01*
X54043Y76967D01*
X54057Y77003D01*
X54070Y77039D01*
X54083Y77072D01*
X54096Y77098D01*
X54109Y77121D01*
X54122Y77141D01*
X54132Y77157D01*
X54138Y77167D01*
X54142Y77174D01*
X54145Y77177D01*
X54175Y77213D01*
X54207Y77249D01*
X54283Y77308D01*
X54365Y77364D01*
X54444Y77407D01*
X54516Y77439D01*
X54545Y77456D01*
X54571Y77466D01*
X54594Y77475D01*
X54614Y77479D01*
X54624Y77485D01*
X54627D01*
X54535Y77879D01*
X54460Y77853D01*
X54388Y77823D01*
X54319Y77794D01*
X54257Y77758D01*
X54198Y77725D01*
X54145Y77689D01*
X54096Y77653D01*
X54053Y77617D01*
X54014Y77580D01*
X53981Y77551D01*
X53952Y77521D01*
X53929Y77495D01*
X53909Y77475D01*
X53896Y77459D01*
X53889Y77449D01*
X53886Y77446D01*
X53843Y77387D01*
X53811Y77324D01*
X53778Y77262D01*
X53751Y77197D01*
X53728Y77131D01*
X53709Y77069D01*
X53696Y77006D01*
X53683Y76947D01*
X53673Y76892D01*
X53666Y76842D01*
X53660Y76797D01*
X53656Y76757D01*
X53653Y76724D01*
Y76682D01*
X53656Y76606D01*
X53660Y76534D01*
X53683Y76400D01*
X53696Y76334D01*
X53712Y76275D01*
X53728Y76216D01*
X53745Y76163D01*
X53761Y76117D01*
X53778Y76075D01*
X53794Y76035D01*
X53807Y76006D01*
X53820Y75980D01*
X53830Y75963D01*
X53834Y75950D01*
X53837Y75947D01*
X53873Y75888D01*
X53912Y75829D01*
X53955Y75776D01*
X53997Y75727D01*
X54043Y75681D01*
X54086Y75639D01*
X54132Y75603D01*
X54171Y75567D01*
X54214Y75537D01*
X54250Y75511D01*
X54283Y75488D01*
X54312Y75468D01*
X54339Y75455D01*
X54355Y75445D01*
X54368Y75438D01*
X54371Y75435D01*
X54437Y75402D01*
X54509Y75376D01*
X54578Y75353D01*
X54647Y75330D01*
X54788Y75297D01*
X54854Y75288D01*
X54916Y75278D01*
X54975Y75271D01*
X55027Y75265D01*
X55077Y75261D01*
X55119Y75258D01*
X55152Y75255D01*
X55198D01*
X55277Y75258D01*
X55355Y75261D01*
X55506Y75281D01*
X55578Y75291D01*
X55644Y75304D01*
X55706Y75321D01*
X55765Y75334D01*
X55818Y75350D01*
X55867Y75363D01*
X55906Y75376D01*
X55942Y75389D01*
X55969Y75399D01*
X55992Y75406D01*
X56005Y75409D01*
X56008Y75412D01*
X56077Y75445D01*
X56143Y75478D01*
X56202Y75514D01*
X56257Y75553D01*
X56310Y75593D01*
X56356Y75629D01*
X56398Y75668D01*
X56438Y75704D01*
X56474Y75740D01*
X56503Y75773D01*
X56526Y75803D01*
X56549Y75829D01*
X56566Y75849D01*
X56576Y75865D01*
X56582Y75875D01*
X56585Y75878D01*
X56621Y75937D01*
X56651Y75999D01*
X56677Y76065D01*
X56700Y76134D01*
X56717Y76200D01*
X56733Y76265D01*
X56746Y76331D01*
X56756Y76393D01*
X56766Y76452D01*
X56772Y76504D01*
X56776Y76554D01*
X56779Y76593D01*
X56782Y76629D01*
Y75389D01*
Y76675D01*
X56779Y76764D01*
X56772Y76846D01*
X56759Y76924D01*
X56743Y77000D01*
X56723Y77072D01*
X56700Y77138D01*
X56677Y77197D01*
X56654Y77252D01*
X56631Y77305D01*
X56608Y77347D01*
X56585Y77387D01*
X56566Y77416D01*
X56549Y77443D01*
X56536Y77459D01*
X56530Y77472D01*
X56526Y77475D01*
X56474Y77535D01*
X56418Y77590D01*
X56359Y77639D01*
X56300Y77685D01*
X56238Y77728D01*
X56172Y77764D01*
X56113Y77797D01*
X56051Y77826D01*
X55995Y77853D01*
X55942Y77872D01*
X55893Y77892D01*
X55854Y77905D01*
X55818Y77918D01*
X55795Y77925D01*
X55778Y77931D01*
X56782D01*
D02*
G37*
%LPD*%
G36*
X58815Y105041D02*
X58742Y105037D01*
X58674Y105034D01*
X58611Y105027D01*
X58552Y105021D01*
X58500Y105014D01*
X58450Y105011D01*
X58408Y105005D01*
X58372Y104998D01*
X58339Y104991D01*
X58313Y104985D01*
X58290Y104982D01*
X58277Y104978D01*
X58267Y104975D01*
X58263D01*
X58168Y104949D01*
X58080Y104916D01*
X58004Y104886D01*
X57939Y104857D01*
X57912Y104841D01*
X57886Y104831D01*
X57863Y104817D01*
X57847Y104808D01*
X57834Y104798D01*
X57824Y104795D01*
X57817Y104788D01*
X57814D01*
X57749Y104742D01*
X57689Y104690D01*
X57640Y104640D01*
X57601Y104591D01*
X57568Y104549D01*
X57548Y104516D01*
X57539Y104503D01*
X57532Y104493D01*
X57529Y104486D01*
Y104483D01*
X57496Y104411D01*
X57473Y104339D01*
X57453Y104267D01*
X57443Y104201D01*
X57437Y104142D01*
X57434Y104119D01*
X57430Y104096D01*
Y105044D01*
X58893D01*
X58815Y105041D01*
D02*
G37*
G36*
X59110Y104660D02*
X59231Y104657D01*
X59343Y104647D01*
X59444Y104637D01*
X59536Y104624D01*
X59615Y104608D01*
X59687Y104591D01*
X59749Y104575D01*
X59802Y104558D01*
X59848Y104542D01*
X59887Y104529D01*
X59917Y104513D01*
X59939Y104503D01*
X59953Y104493D01*
X59962Y104490D01*
X59966Y104486D01*
X60008Y104453D01*
X60048Y104417D01*
X60081Y104381D01*
X60107Y104345D01*
X60133Y104309D01*
X60153Y104273D01*
X60169Y104240D01*
X60182Y104207D01*
X60199Y104148D01*
X60205Y104122D01*
X60208Y104099D01*
Y104083D01*
X60212Y104066D01*
Y104057D01*
X60208Y104011D01*
X60202Y103965D01*
X60189Y103922D01*
X60172Y103883D01*
X60136Y103807D01*
X60090Y103745D01*
X60044Y103696D01*
X60025Y103676D01*
X60008Y103660D01*
X59992Y103643D01*
X59979Y103633D01*
X59972Y103630D01*
X59969Y103627D01*
X59917Y103597D01*
X59854Y103571D01*
X59785Y103545D01*
X59710Y103525D01*
X59628Y103509D01*
X59546Y103496D01*
X59379Y103476D01*
X59300Y103466D01*
X59224Y103463D01*
X59156Y103460D01*
X59097Y103456D01*
X59047Y103453D01*
X59024D01*
X59008D01*
X58995D01*
X58985D01*
X58978D01*
X58975D01*
X58841Y103456D01*
X58719Y103463D01*
X58605Y103469D01*
X58503Y103482D01*
X58411Y103496D01*
X58326Y103512D01*
X58254Y103532D01*
X58188Y103548D01*
X58129Y103565D01*
X58083Y103584D01*
X58044Y103601D01*
X58011Y103614D01*
X57985Y103627D01*
X57968Y103637D01*
X57958Y103640D01*
X57955Y103643D01*
X57916Y103673D01*
X57883Y103706D01*
X57854Y103738D01*
X57831Y103771D01*
X57807Y103807D01*
X57791Y103840D01*
X57765Y103906D01*
X57749Y103965D01*
X57745Y103991D01*
X57742Y104011D01*
X57739Y104030D01*
Y104053D01*
X57742Y104103D01*
X57749Y104145D01*
X57762Y104191D01*
X57778Y104230D01*
X57817Y104306D01*
X57860Y104368D01*
X57883Y104394D01*
X57906Y104417D01*
X57929Y104437D01*
X57945Y104457D01*
X57962Y104470D01*
X57975Y104480D01*
X57981Y104483D01*
X57985Y104486D01*
X58037Y104519D01*
X58096Y104545D01*
X58168Y104568D01*
X58244Y104588D01*
X58323Y104604D01*
X58404Y104621D01*
X58572Y104640D01*
X58650Y104650D01*
X58726Y104654D01*
X58795Y104657D01*
X58854Y104660D01*
X58906Y104663D01*
X58926D01*
X58942D01*
X58956D01*
X58965D01*
X58972D01*
X58975D01*
X59110Y104660D01*
D02*
G37*
G36*
X60110Y101180D02*
X60038Y101233D01*
X60005Y101259D01*
X59976Y101285D01*
X59949Y101308D01*
X59930Y101324D01*
X59917Y101337D01*
X59913Y101341D01*
X59894Y101360D01*
X59867Y101387D01*
X59841Y101416D01*
X59812Y101449D01*
X59746Y101518D01*
X59684Y101590D01*
X59625Y101659D01*
X59598Y101688D01*
X59575Y101718D01*
X59556Y101738D01*
X59543Y101757D01*
X59533Y101767D01*
X59530Y101770D01*
X59467Y101843D01*
X59408Y101911D01*
X59356Y101974D01*
X59303Y102030D01*
X59257Y102082D01*
X59211Y102128D01*
X59172Y102171D01*
X59136Y102210D01*
X59106Y102243D01*
X59077Y102269D01*
X59054Y102292D01*
X59034Y102312D01*
X59018Y102325D01*
X59008Y102338D01*
X59001Y102341D01*
X58998Y102344D01*
X58926Y102407D01*
X58860Y102456D01*
X58798Y102499D01*
X58742Y102535D01*
X58696Y102561D01*
X58660Y102580D01*
X58647Y102587D01*
X58637Y102590D01*
X58634Y102594D01*
X58631D01*
X58565Y102620D01*
X58500Y102636D01*
X58441Y102649D01*
X58385Y102659D01*
X58339Y102666D01*
X58303Y102669D01*
X58290D01*
X58280D01*
X58277D01*
X58273D01*
X58208Y102666D01*
X58145Y102659D01*
X58086Y102646D01*
X58027Y102630D01*
X57975Y102610D01*
X57926Y102587D01*
X57880Y102564D01*
X57840Y102541D01*
X57801Y102518D01*
X57768Y102495D01*
X57739Y102472D01*
X57716Y102453D01*
X57699Y102436D01*
X57683Y102423D01*
X57676Y102417D01*
X57673Y102413D01*
X57630Y102364D01*
X57594Y102312D01*
X57561Y102256D01*
X57532Y102197D01*
X57509Y102141D01*
X57489Y102082D01*
X57473Y102026D01*
X57460Y101971D01*
X57450Y101921D01*
X57443Y101872D01*
X57437Y101829D01*
X57434Y101793D01*
X57430Y101764D01*
Y102672D01*
X60110D01*
Y101180D01*
D02*
G37*
G36*
X55375Y101957D02*
X55497Y101954D01*
X55608Y101944D01*
X55710Y101934D01*
X55801Y101921D01*
X55880Y101905D01*
X55952Y101889D01*
X56015Y101872D01*
X56067Y101856D01*
X56113Y101839D01*
X56152Y101826D01*
X56182Y101810D01*
X56205Y101800D01*
X56218Y101790D01*
X56228Y101787D01*
X56231Y101784D01*
X56274Y101751D01*
X56313Y101715D01*
X56346Y101679D01*
X56372Y101643D01*
X56398Y101606D01*
X56418Y101570D01*
X56435Y101538D01*
X56448Y101505D01*
X56464Y101446D01*
X56471Y101419D01*
X56474Y101397D01*
Y101380D01*
X56477Y101364D01*
Y101354D01*
X56474Y101308D01*
X56467Y101262D01*
X56454Y101219D01*
X56438Y101180D01*
X56402Y101104D01*
X56356Y101042D01*
X56310Y100993D01*
X56290Y100973D01*
X56274Y100957D01*
X56257Y100941D01*
X56244Y100931D01*
X56238Y100927D01*
X56235Y100924D01*
X56182Y100895D01*
X56120Y100868D01*
X56051Y100842D01*
X55975Y100822D01*
X55893Y100806D01*
X55811Y100793D01*
X55644Y100773D01*
X55565Y100763D01*
X55490Y100760D01*
X55421Y100757D01*
X55362Y100754D01*
X55313Y100750D01*
X55290D01*
X55273D01*
X55260D01*
X55251D01*
X55244D01*
X55241D01*
X55106Y100754D01*
X54985Y100760D01*
X54870Y100767D01*
X54768Y100780D01*
X54676Y100793D01*
X54591Y100809D01*
X54519Y100829D01*
X54453Y100845D01*
X54394Y100862D01*
X54348Y100882D01*
X54309Y100898D01*
X54276Y100911D01*
X54250Y100924D01*
X54234Y100934D01*
X54224Y100937D01*
X54220Y100941D01*
X54181Y100970D01*
X54148Y101003D01*
X54119Y101036D01*
X54096Y101068D01*
X54073Y101104D01*
X54057Y101137D01*
X54030Y101203D01*
X54014Y101262D01*
X54011Y101288D01*
X54007Y101308D01*
X54004Y101328D01*
Y101350D01*
X54007Y101400D01*
X54014Y101442D01*
X54027Y101488D01*
X54043Y101528D01*
X54083Y101603D01*
X54125Y101665D01*
X54148Y101692D01*
X54171Y101715D01*
X54194Y101734D01*
X54211Y101754D01*
X54227Y101767D01*
X54240Y101777D01*
X54247Y101780D01*
X54250Y101784D01*
X54303Y101816D01*
X54362Y101843D01*
X54434Y101865D01*
X54509Y101885D01*
X54588Y101902D01*
X54670Y101918D01*
X54837Y101938D01*
X54916Y101947D01*
X54991Y101951D01*
X55060Y101954D01*
X55119Y101957D01*
X55172Y101961D01*
X55191D01*
X55208D01*
X55221D01*
X55231D01*
X55237D01*
X55241D01*
X55375Y101957D01*
D02*
G37*
G36*
X59566Y98792D02*
X59621Y98789D01*
X59677Y98779D01*
X59726Y98769D01*
X59772Y98756D01*
X59815Y98743D01*
X59854Y98726D01*
X59887Y98710D01*
X59920Y98694D01*
X59946Y98677D01*
X59969Y98664D01*
X59989Y98651D01*
X60005Y98641D01*
X60015Y98631D01*
X60022Y98628D01*
X60025Y98625D01*
X60058Y98592D01*
X60087Y98559D01*
X60110Y98527D01*
X60133Y98490D01*
X60150Y98458D01*
X60166Y98422D01*
X60189Y98359D01*
X60202Y98303D01*
X60205Y98281D01*
X60208Y98257D01*
X60212Y98241D01*
Y98218D01*
X60208Y98159D01*
X60199Y98100D01*
X60182Y98048D01*
X60166Y98002D01*
X60150Y97962D01*
X60133Y97933D01*
X60123Y97913D01*
X60120Y97910D01*
Y97907D01*
X60081Y97854D01*
X60038Y97811D01*
X59995Y97772D01*
X59953Y97739D01*
X59913Y97713D01*
X59884Y97697D01*
X59871Y97690D01*
X59861Y97684D01*
X59857Y97680D01*
X59854D01*
X59789Y97654D01*
X59723Y97634D01*
X59661Y97621D01*
X59605Y97611D01*
X59556Y97605D01*
X59536D01*
X59520Y97601D01*
X59507D01*
X59497D01*
X59490D01*
X59487D01*
X59434Y97605D01*
X59382Y97608D01*
X59290Y97628D01*
X59208Y97657D01*
X59172Y97674D01*
X59143Y97690D01*
X59113Y97703D01*
X59087Y97720D01*
X59064Y97736D01*
X59047Y97749D01*
X59034Y97759D01*
X59024Y97769D01*
X59018Y97772D01*
X59015Y97775D01*
X58982Y97808D01*
X58952Y97844D01*
X58929Y97880D01*
X58910Y97916D01*
X58877Y97988D01*
X58854Y98057D01*
X58841Y98116D01*
X58837Y98143D01*
X58834Y98162D01*
X58831Y98182D01*
Y98205D01*
X58834Y98251D01*
X58837Y98297D01*
X58860Y98379D01*
X58890Y98451D01*
X58923Y98513D01*
X58956Y98563D01*
X58972Y98582D01*
X58985Y98599D01*
X58998Y98612D01*
X59008Y98622D01*
X59011Y98625D01*
X59015Y98628D01*
X59051Y98658D01*
X59087Y98684D01*
X59126Y98707D01*
X59169Y98726D01*
X59251Y98756D01*
X59329Y98776D01*
X59365Y98782D01*
X59398Y98786D01*
X59428Y98789D01*
X59454Y98792D01*
X59477Y98795D01*
X59493D01*
X59503D01*
X59507D01*
X59566Y98792D01*
D02*
G37*
G36*
X59405Y99173D02*
X59329Y99166D01*
X59257Y99153D01*
X59192Y99137D01*
X59129Y99114D01*
X59070Y99094D01*
X59018Y99068D01*
X58969Y99045D01*
X58926Y99022D01*
X58887Y98996D01*
X58854Y98976D01*
X58828Y98956D01*
X58805Y98936D01*
X58792Y98923D01*
X58782Y98917D01*
X58778Y98914D01*
X58729Y98864D01*
X58687Y98812D01*
X58650Y98759D01*
X58618Y98704D01*
X58592Y98651D01*
X58569Y98599D01*
X58552Y98546D01*
X58536Y98500D01*
X58526Y98454D01*
X58516Y98412D01*
X58513Y98376D01*
X58506Y98343D01*
Y98317D01*
X58503Y98297D01*
Y98281D01*
X58506Y98202D01*
X58519Y98126D01*
X58536Y98057D01*
X58552Y97995D01*
X58572Y97943D01*
X58582Y97923D01*
X58588Y97903D01*
X58595Y97890D01*
X58601Y97880D01*
X58605Y97874D01*
Y97870D01*
X58647Y97802D01*
X58693Y97739D01*
X58742Y97684D01*
X58792Y97634D01*
X58837Y97598D01*
X58873Y97569D01*
X58887Y97559D01*
X58896Y97552D01*
X58903Y97546D01*
X58824Y97549D01*
X58746Y97552D01*
X58674Y97556D01*
X58608Y97562D01*
X58546Y97572D01*
X58486Y97582D01*
X58434Y97588D01*
X58388Y97598D01*
X58349Y97608D01*
X58313Y97618D01*
X58280Y97628D01*
X58257Y97634D01*
X58237Y97641D01*
X58221Y97647D01*
X58214Y97651D01*
X58211D01*
X58126Y97693D01*
X58050Y97736D01*
X57985Y97782D01*
X57932Y97828D01*
X57889Y97867D01*
X57860Y97897D01*
X57850Y97910D01*
X57844Y97920D01*
X57837Y97923D01*
Y97926D01*
X57804Y97979D01*
X57778Y98031D01*
X57762Y98084D01*
X57749Y98133D01*
X57742Y98176D01*
X57735Y98212D01*
Y98241D01*
X57739Y98281D01*
X57742Y98320D01*
X57762Y98392D01*
X57785Y98458D01*
X57814Y98510D01*
X57844Y98556D01*
X57870Y98589D01*
X57880Y98599D01*
X57889Y98608D01*
X57893Y98612D01*
X57896Y98615D01*
X57939Y98648D01*
X57988Y98674D01*
X58040Y98700D01*
X58093Y98720D01*
X58139Y98736D01*
X58178Y98746D01*
X58195Y98750D01*
X58204Y98753D01*
X58211Y98756D01*
X58214D01*
X58185Y99127D01*
X58119Y99117D01*
X58060Y99101D01*
X58004Y99084D01*
X57952Y99064D01*
X57903Y99041D01*
X57857Y99019D01*
X57814Y98996D01*
X57778Y98973D01*
X57745Y98950D01*
X57716Y98927D01*
X57689Y98907D01*
X57670Y98887D01*
X57653Y98874D01*
X57644Y98861D01*
X57637Y98855D01*
X57634Y98851D01*
X57598Y98805D01*
X57568Y98759D01*
X57539Y98713D01*
X57516Y98664D01*
X57496Y98612D01*
X57480Y98566D01*
X57457Y98471D01*
X57447Y98428D01*
X57440Y98389D01*
X57437Y98353D01*
X57434Y98323D01*
X57430Y98300D01*
Y99176D01*
X59484D01*
X59405Y99173D01*
D02*
G37*
G36*
X58906Y97546D02*
X58903D01*
X58903Y97546D01*
X58906Y97546D01*
D02*
G37*
G36*
X59110Y96431D02*
X59231Y96427D01*
X59343Y96417D01*
X59444Y96408D01*
X59536Y96394D01*
X59615Y96378D01*
X59687Y96362D01*
X59749Y96345D01*
X59802Y96329D01*
X59848Y96312D01*
X59887Y96299D01*
X59917Y96283D01*
X59939Y96273D01*
X59953Y96263D01*
X59962Y96260D01*
X59966Y96257D01*
X60008Y96224D01*
X60048Y96188D01*
X60081Y96152D01*
X60107Y96116D01*
X60133Y96080D01*
X60153Y96043D01*
X60169Y96011D01*
X60182Y95978D01*
X60199Y95919D01*
X60205Y95893D01*
X60208Y95870D01*
Y95853D01*
X60212Y95837D01*
Y95827D01*
X60208Y95781D01*
X60202Y95735D01*
X60189Y95693D01*
X60172Y95653D01*
X60136Y95578D01*
X60090Y95515D01*
X60044Y95466D01*
X60025Y95447D01*
X60008Y95430D01*
X59992Y95414D01*
X59979Y95404D01*
X59972Y95401D01*
X59969Y95397D01*
X59917Y95368D01*
X59854Y95342D01*
X59785Y95315D01*
X59710Y95296D01*
X59628Y95279D01*
X59546Y95266D01*
X59379Y95246D01*
X59300Y95237D01*
X59224Y95233D01*
X59156Y95230D01*
X59097Y95227D01*
X59047Y95223D01*
X59024D01*
X59008D01*
X58995D01*
X58985D01*
X58978D01*
X58975D01*
X58841Y95227D01*
X58719Y95233D01*
X58605Y95240D01*
X58503Y95253D01*
X58411Y95266D01*
X58326Y95283D01*
X58254Y95302D01*
X58188Y95319D01*
X58129Y95335D01*
X58083Y95355D01*
X58044Y95371D01*
X58011Y95384D01*
X57985Y95397D01*
X57968Y95407D01*
X57958Y95411D01*
X57955Y95414D01*
X57916Y95443D01*
X57883Y95476D01*
X57854Y95509D01*
X57831Y95542D01*
X57807Y95578D01*
X57791Y95611D01*
X57765Y95676D01*
X57749Y95735D01*
X57745Y95761D01*
X57742Y95781D01*
X57739Y95801D01*
Y95824D01*
X57742Y95873D01*
X57749Y95916D01*
X57762Y95961D01*
X57778Y96001D01*
X57817Y96076D01*
X57860Y96139D01*
X57883Y96165D01*
X57906Y96188D01*
X57929Y96207D01*
X57945Y96227D01*
X57962Y96240D01*
X57975Y96250D01*
X57981Y96253D01*
X57985Y96257D01*
X58037Y96289D01*
X58096Y96316D01*
X58168Y96339D01*
X58244Y96358D01*
X58323Y96375D01*
X58404Y96391D01*
X58572Y96411D01*
X58650Y96421D01*
X58726Y96424D01*
X58795Y96427D01*
X58854Y96431D01*
X58906Y96434D01*
X58926D01*
X58942D01*
X58956D01*
X58965D01*
X58972D01*
X58975D01*
X59110Y96431D01*
D02*
G37*
G36*
X55769Y92235D02*
X55854Y92232D01*
X55929Y92226D01*
X55995Y92216D01*
X56047Y92206D01*
X56087Y92196D01*
X56116Y92186D01*
X56133Y92180D01*
X56139Y92176D01*
X56198Y92144D01*
X56248Y92104D01*
X56293Y92065D01*
X56330Y92026D01*
X56359Y91986D01*
X56382Y91957D01*
X56395Y91937D01*
X56398Y91934D01*
Y91930D01*
X56428Y91865D01*
X56451Y91799D01*
X56467Y91737D01*
X56477Y91675D01*
X56484Y91625D01*
X56487Y91602D01*
X56490Y91583D01*
Y91547D01*
X56487Y91471D01*
X56474Y91406D01*
X56458Y91347D01*
X56441Y91301D01*
X56421Y91264D01*
X56408Y91238D01*
X56395Y91225D01*
X56392Y91219D01*
X56353Y91183D01*
X56313Y91153D01*
X56270Y91133D01*
X56231Y91120D01*
X56198Y91114D01*
X56169Y91110D01*
X56152Y91107D01*
X56146D01*
X56110Y91110D01*
X56077Y91114D01*
X56047Y91123D01*
X56021Y91133D01*
X55998Y91140D01*
X55982Y91150D01*
X55972Y91153D01*
X55969Y91156D01*
X55939Y91179D01*
X55916Y91202D01*
X55897Y91225D01*
X55877Y91251D01*
X55864Y91271D01*
X55854Y91287D01*
X55851Y91301D01*
X55847Y91304D01*
X55831Y91347D01*
X55818Y91396D01*
X55805Y91448D01*
X55795Y91501D01*
X55785Y91550D01*
X55778Y91593D01*
X55775Y91606D01*
X55772Y91619D01*
Y91629D01*
X55762Y91704D01*
X55749Y91773D01*
X55739Y91835D01*
X55726Y91894D01*
X55713Y91950D01*
X55703Y91999D01*
X55690Y92045D01*
X55680Y92088D01*
X55670Y92121D01*
X55660Y92153D01*
X55654Y92180D01*
X55644Y92199D01*
X55638Y92216D01*
X55634Y92229D01*
X55631Y92235D01*
Y92239D01*
X55769Y92235D01*
D02*
G37*
G36*
X59566Y92914D02*
X59621Y92911D01*
X59677Y92901D01*
X59726Y92891D01*
X59772Y92878D01*
X59815Y92865D01*
X59854Y92849D01*
X59887Y92832D01*
X59920Y92816D01*
X59946Y92800D01*
X59969Y92787D01*
X59989Y92773D01*
X60005Y92764D01*
X60015Y92754D01*
X60022Y92750D01*
X60025Y92747D01*
X60058Y92714D01*
X60087Y92681D01*
X60110Y92649D01*
X60133Y92613D01*
X60150Y92580D01*
X60166Y92544D01*
X60189Y92481D01*
X60202Y92426D01*
X60205Y92403D01*
X60208Y92380D01*
X60212Y92363D01*
Y92340D01*
X60208Y92281D01*
X60199Y92222D01*
X60182Y92170D01*
X60166Y92124D01*
X60150Y92085D01*
X60133Y92055D01*
X60123Y92035D01*
X60120Y92032D01*
Y92029D01*
X60081Y91976D01*
X60038Y91934D01*
X59995Y91894D01*
X59953Y91861D01*
X59913Y91835D01*
X59884Y91819D01*
X59871Y91812D01*
X59861Y91806D01*
X59857Y91803D01*
X59854D01*
X59789Y91776D01*
X59723Y91757D01*
X59661Y91743D01*
X59605Y91734D01*
X59556Y91727D01*
X59536D01*
X59520Y91724D01*
X59507D01*
X59497D01*
X59490D01*
X59487D01*
X59434Y91727D01*
X59382Y91730D01*
X59290Y91750D01*
X59208Y91780D01*
X59172Y91796D01*
X59143Y91812D01*
X59113Y91825D01*
X59087Y91842D01*
X59064Y91858D01*
X59047Y91871D01*
X59034Y91881D01*
X59024Y91891D01*
X59018Y91894D01*
X59015Y91898D01*
X58982Y91930D01*
X58952Y91966D01*
X58929Y92002D01*
X58910Y92039D01*
X58877Y92111D01*
X58854Y92180D01*
X58841Y92239D01*
X58837Y92265D01*
X58834Y92285D01*
X58831Y92304D01*
Y92327D01*
X58834Y92373D01*
X58837Y92419D01*
X58860Y92501D01*
X58890Y92573D01*
X58923Y92636D01*
X58956Y92685D01*
X58972Y92704D01*
X58985Y92721D01*
X58998Y92734D01*
X59008Y92744D01*
X59011Y92747D01*
X59015Y92750D01*
X59051Y92780D01*
X59087Y92806D01*
X59126Y92829D01*
X59169Y92849D01*
X59251Y92878D01*
X59329Y92898D01*
X59365Y92905D01*
X59398Y92908D01*
X59428Y92911D01*
X59454Y92914D01*
X59477Y92918D01*
X59493D01*
X59503D01*
X59507D01*
X59566Y92914D01*
D02*
G37*
G36*
X59405Y93295D02*
X59329Y93288D01*
X59257Y93275D01*
X59192Y93259D01*
X59129Y93236D01*
X59070Y93216D01*
X59018Y93190D01*
X58969Y93167D01*
X58926Y93144D01*
X58887Y93118D01*
X58854Y93098D01*
X58828Y93078D01*
X58805Y93059D01*
X58792Y93046D01*
X58782Y93039D01*
X58778Y93036D01*
X58729Y92987D01*
X58687Y92934D01*
X58650Y92882D01*
X58618Y92826D01*
X58592Y92773D01*
X58569Y92721D01*
X58552Y92668D01*
X58536Y92623D01*
X58526Y92576D01*
X58516Y92534D01*
X58513Y92498D01*
X58506Y92465D01*
Y92439D01*
X58503Y92419D01*
Y92403D01*
X58506Y92324D01*
X58519Y92249D01*
X58536Y92180D01*
X58552Y92117D01*
X58572Y92065D01*
X58582Y92045D01*
X58588Y92026D01*
X58595Y92012D01*
X58601Y92002D01*
X58605Y91996D01*
Y91993D01*
X58647Y91924D01*
X58693Y91861D01*
X58742Y91806D01*
X58792Y91757D01*
X58837Y91720D01*
X58873Y91691D01*
X58887Y91681D01*
X58896Y91675D01*
X58903Y91668D01*
X58824Y91671D01*
X58746Y91675D01*
X58674Y91678D01*
X58608Y91684D01*
X58546Y91694D01*
X58486Y91704D01*
X58434Y91711D01*
X58388Y91720D01*
X58349Y91730D01*
X58313Y91740D01*
X58280Y91750D01*
X58257Y91757D01*
X58237Y91763D01*
X58221Y91770D01*
X58214Y91773D01*
X58211D01*
X58126Y91816D01*
X58050Y91858D01*
X57985Y91904D01*
X57932Y91950D01*
X57889Y91989D01*
X57860Y92019D01*
X57850Y92032D01*
X57844Y92042D01*
X57837Y92045D01*
Y92049D01*
X57804Y92101D01*
X57778Y92153D01*
X57762Y92206D01*
X57749Y92255D01*
X57742Y92298D01*
X57735Y92334D01*
Y92363D01*
X57739Y92403D01*
X57742Y92442D01*
X57762Y92514D01*
X57785Y92580D01*
X57814Y92632D01*
X57844Y92678D01*
X57870Y92711D01*
X57880Y92721D01*
X57889Y92731D01*
X57893Y92734D01*
X57896Y92737D01*
X57939Y92770D01*
X57988Y92796D01*
X58040Y92823D01*
X58093Y92842D01*
X58139Y92859D01*
X58178Y92869D01*
X58195Y92872D01*
X58204Y92875D01*
X58211Y92878D01*
X58214D01*
X58185Y93249D01*
X58119Y93239D01*
X58060Y93223D01*
X58004Y93206D01*
X57952Y93187D01*
X57903Y93164D01*
X57857Y93141D01*
X57814Y93118D01*
X57778Y93095D01*
X57745Y93072D01*
X57716Y93049D01*
X57689Y93029D01*
X57670Y93010D01*
X57653Y92996D01*
X57644Y92983D01*
X57637Y92977D01*
X57634Y92973D01*
X57598Y92927D01*
X57568Y92882D01*
X57539Y92836D01*
X57516Y92787D01*
X57496Y92734D01*
X57480Y92688D01*
X57457Y92593D01*
X57447Y92550D01*
X57440Y92511D01*
X57437Y92475D01*
X57434Y92445D01*
X57430Y92422D01*
Y93298D01*
X59484D01*
X59405Y93295D01*
D02*
G37*
G36*
X58906Y91668D02*
X58903D01*
X58903Y91668D01*
X58906Y91668D01*
D02*
G37*
G36*
X58815Y90933D02*
X58742Y90930D01*
X58674Y90927D01*
X58611Y90920D01*
X58552Y90914D01*
X58500Y90907D01*
X58450Y90904D01*
X58408Y90897D01*
X58372Y90891D01*
X58339Y90884D01*
X58313Y90877D01*
X58290Y90874D01*
X58277Y90871D01*
X58267Y90868D01*
X58263D01*
X58168Y90841D01*
X58080Y90809D01*
X58004Y90779D01*
X57939Y90750D01*
X57912Y90733D01*
X57886Y90723D01*
X57863Y90710D01*
X57847Y90700D01*
X57834Y90690D01*
X57824Y90687D01*
X57817Y90681D01*
X57814D01*
X57749Y90635D01*
X57689Y90582D01*
X57640Y90533D01*
X57601Y90484D01*
X57568Y90441D01*
X57548Y90408D01*
X57539Y90395D01*
X57532Y90386D01*
X57529Y90379D01*
Y90376D01*
X57496Y90303D01*
X57473Y90231D01*
X57453Y90159D01*
X57443Y90094D01*
X57437Y90035D01*
X57434Y90012D01*
X57430Y89989D01*
Y90936D01*
X58893D01*
X58815Y90933D01*
D02*
G37*
G36*
X59110Y90553D02*
X59231Y90549D01*
X59343Y90540D01*
X59444Y90530D01*
X59536Y90517D01*
X59615Y90500D01*
X59687Y90484D01*
X59749Y90468D01*
X59802Y90451D01*
X59848Y90435D01*
X59887Y90422D01*
X59917Y90405D01*
X59939Y90395D01*
X59953Y90386D01*
X59962Y90382D01*
X59966Y90379D01*
X60008Y90346D01*
X60048Y90310D01*
X60081Y90274D01*
X60107Y90238D01*
X60133Y90202D01*
X60153Y90166D01*
X60169Y90133D01*
X60182Y90100D01*
X60199Y90041D01*
X60205Y90015D01*
X60208Y89992D01*
Y89976D01*
X60212Y89959D01*
Y89949D01*
X60208Y89903D01*
X60202Y89857D01*
X60189Y89815D01*
X60172Y89775D01*
X60136Y89700D01*
X60090Y89638D01*
X60044Y89588D01*
X60025Y89569D01*
X60008Y89552D01*
X59992Y89536D01*
X59979Y89526D01*
X59972Y89523D01*
X59969Y89520D01*
X59917Y89490D01*
X59854Y89464D01*
X59785Y89438D01*
X59710Y89418D01*
X59628Y89402D01*
X59546Y89388D01*
X59379Y89369D01*
X59300Y89359D01*
X59224Y89356D01*
X59156Y89352D01*
X59097Y89349D01*
X59047Y89346D01*
X59024D01*
X59008D01*
X58995D01*
X58985D01*
X58978D01*
X58975D01*
X58841Y89349D01*
X58719Y89356D01*
X58605Y89362D01*
X58503Y89375D01*
X58411Y89388D01*
X58326Y89405D01*
X58254Y89425D01*
X58188Y89441D01*
X58129Y89457D01*
X58083Y89477D01*
X58044Y89493D01*
X58011Y89507D01*
X57985Y89520D01*
X57968Y89529D01*
X57958Y89533D01*
X57955Y89536D01*
X57916Y89565D01*
X57883Y89598D01*
X57854Y89631D01*
X57831Y89664D01*
X57807Y89700D01*
X57791Y89733D01*
X57765Y89798D01*
X57749Y89857D01*
X57745Y89884D01*
X57742Y89903D01*
X57739Y89923D01*
Y89946D01*
X57742Y89995D01*
X57749Y90038D01*
X57762Y90084D01*
X57778Y90123D01*
X57817Y90199D01*
X57860Y90261D01*
X57883Y90287D01*
X57906Y90310D01*
X57929Y90330D01*
X57945Y90349D01*
X57962Y90363D01*
X57975Y90372D01*
X57981Y90376D01*
X57985Y90379D01*
X58037Y90412D01*
X58096Y90438D01*
X58168Y90461D01*
X58244Y90481D01*
X58323Y90497D01*
X58404Y90513D01*
X58572Y90533D01*
X58650Y90543D01*
X58726Y90546D01*
X58795Y90549D01*
X58854Y90553D01*
X58906Y90556D01*
X58926D01*
X58942D01*
X58956D01*
X58965D01*
X58972D01*
X58975D01*
X59110Y90553D01*
D02*
G37*
G36*
X55910Y88506D02*
X55959Y88499D01*
X56002Y88490D01*
X56038Y88480D01*
X56071Y88467D01*
X56093Y88457D01*
X56107Y88450D01*
X56113Y88447D01*
X56152Y88424D01*
X56185Y88398D01*
X56215Y88372D01*
X56238Y88349D01*
X56257Y88326D01*
X56270Y88309D01*
X56277Y88296D01*
X56280Y88293D01*
X56300Y88257D01*
X56316Y88217D01*
X56333Y88181D01*
X56343Y88145D01*
X56353Y88112D01*
X56359Y88086D01*
X56362Y88070D01*
Y88063D01*
X56366Y88030D01*
X56369Y87988D01*
X56372Y87942D01*
Y87899D01*
X56375Y87857D01*
Y87037D01*
X55336D01*
Y87735D01*
X55339Y87837D01*
X55342Y87925D01*
X55349Y87965D01*
X55352Y88001D01*
X55355Y88034D01*
X55362Y88067D01*
X55365Y88093D01*
X55372Y88116D01*
X55375Y88132D01*
X55378Y88149D01*
X55382Y88162D01*
X55385Y88171D01*
X55388Y88175D01*
Y88178D01*
X55411Y88234D01*
X55437Y88280D01*
X55464Y88322D01*
X55493Y88358D01*
X55519Y88385D01*
X55542Y88404D01*
X55555Y88418D01*
X55562Y88421D01*
X55611Y88450D01*
X55660Y88473D01*
X55710Y88486D01*
X55756Y88499D01*
X55798Y88506D01*
X55828Y88509D01*
X55841D01*
X55851D01*
X55854D01*
X55857D01*
X55910Y88506D01*
D02*
G37*
G36*
X54588Y88378D02*
X54637Y88368D01*
X54683Y88355D01*
X54722Y88342D01*
X54752Y88329D01*
X54775Y88316D01*
X54788Y88306D01*
X54795Y88303D01*
X54831Y88270D01*
X54863Y88234D01*
X54890Y88195D01*
X54909Y88158D01*
X54926Y88126D01*
X54936Y88099D01*
X54942Y88080D01*
X54945Y88076D01*
Y88073D01*
X54952Y88050D01*
X54955Y88024D01*
X54965Y87965D01*
X54972Y87899D01*
X54975Y87837D01*
Y87781D01*
X54978Y87755D01*
Y87037D01*
X54063D01*
Y87699D01*
X54066Y87755D01*
Y87804D01*
X54070Y87850D01*
X54073Y87893D01*
X54076Y87929D01*
X54080Y87965D01*
X54083Y87994D01*
X54089Y88017D01*
X54093Y88040D01*
X54096Y88060D01*
X54099Y88073D01*
X54102Y88086D01*
Y88093D01*
X54106Y88099D01*
X54125Y88149D01*
X54148Y88188D01*
X54175Y88224D01*
X54201Y88253D01*
X54224Y88276D01*
X54243Y88293D01*
X54257Y88303D01*
X54263Y88306D01*
X54306Y88332D01*
X54352Y88349D01*
X54398Y88362D01*
X54440Y88372D01*
X54476Y88378D01*
X54503Y88381D01*
X54522D01*
X54526D01*
X54529D01*
X54588Y88378D01*
D02*
G37*
G36*
X55532Y84974D02*
X55441Y84964D01*
X55352Y84951D01*
X55270Y84934D01*
X55195Y84911D01*
X55126Y84888D01*
X55063Y84862D01*
X55008Y84839D01*
X54958Y84813D01*
X54913Y84786D01*
X54877Y84764D01*
X54847Y84741D01*
X54821Y84724D01*
X54804Y84711D01*
X54795Y84701D01*
X54791Y84698D01*
X54739Y84645D01*
X54693Y84587D01*
X54650Y84527D01*
X54617Y84468D01*
X54588Y84409D01*
X54562Y84347D01*
X54542Y84291D01*
X54526Y84236D01*
X54516Y84183D01*
X54506Y84134D01*
X54499Y84091D01*
X54493Y84052D01*
Y84022D01*
X54489Y83999D01*
Y84977D01*
X55631D01*
X55532Y84974D01*
D02*
G37*
G36*
X55424Y83356D02*
X55372Y83363D01*
X55323Y83370D01*
X55234Y83393D01*
X55155Y83425D01*
X55119Y83442D01*
X55090Y83458D01*
X55060Y83474D01*
X55037Y83491D01*
X55018Y83507D01*
X54998Y83521D01*
X54985Y83530D01*
X54975Y83540D01*
X54972Y83543D01*
X54968Y83547D01*
X54939Y83579D01*
X54909Y83616D01*
X54886Y83652D01*
X54867Y83688D01*
X54837Y83763D01*
X54817Y83829D01*
X54804Y83891D01*
X54801Y83914D01*
X54798Y83937D01*
X54795Y83953D01*
Y83980D01*
X54798Y84032D01*
X54804Y84081D01*
X54814Y84127D01*
X54827Y84170D01*
X54863Y84249D01*
X54883Y84285D01*
X54903Y84317D01*
X54922Y84344D01*
X54942Y84370D01*
X54962Y84393D01*
X54978Y84409D01*
X54991Y84422D01*
X55001Y84436D01*
X55008Y84439D01*
X55011Y84442D01*
X55067Y84482D01*
X55132Y84514D01*
X55201Y84537D01*
X55270Y84557D01*
X55329Y84570D01*
X55355Y84573D01*
X55378Y84577D01*
X55398Y84580D01*
X55411Y84583D01*
X55421D01*
X55424D01*
Y83356D01*
D02*
G37*
G36*
X55710Y82245D02*
X55782Y82241D01*
X55847Y82231D01*
X55910Y82218D01*
X55966Y82205D01*
X56018Y82192D01*
X56067Y82176D01*
X56107Y82159D01*
X56146Y82140D01*
X56179Y82123D01*
X56205Y82110D01*
X56228Y82097D01*
X56244Y82084D01*
X56257Y82074D01*
X56264Y82071D01*
X56267Y82067D01*
X56303Y82035D01*
X56336Y81999D01*
X56366Y81963D01*
X56389Y81926D01*
X56408Y81890D01*
X56425Y81858D01*
X56451Y81792D01*
X56467Y81733D01*
X56471Y81710D01*
X56474Y81687D01*
X56477Y81671D01*
Y81648D01*
X56474Y81592D01*
X56464Y81543D01*
X56451Y81493D01*
X56431Y81447D01*
X56412Y81405D01*
X56385Y81366D01*
X56362Y81329D01*
X56333Y81297D01*
X56307Y81270D01*
X56280Y81244D01*
X56257Y81221D01*
X56238Y81205D01*
X56218Y81192D01*
X56205Y81182D01*
X56195Y81175D01*
X56192Y81172D01*
X56156Y81152D01*
X56116Y81136D01*
X56074Y81123D01*
X56028Y81113D01*
X55933Y81093D01*
X55841Y81080D01*
X55795Y81077D01*
X55756Y81074D01*
X55716Y81070D01*
X55687D01*
X55657Y81067D01*
X55638D01*
X55624D01*
X55621D01*
X55549Y81070D01*
X55480Y81074D01*
X55414Y81083D01*
X55355Y81093D01*
X55303Y81110D01*
X55251Y81123D01*
X55204Y81139D01*
X55165Y81156D01*
X55129Y81172D01*
X55096Y81188D01*
X55070Y81205D01*
X55047Y81218D01*
X55031Y81228D01*
X55018Y81238D01*
X55011Y81241D01*
X55008Y81244D01*
X54972Y81277D01*
X54939Y81313D01*
X54909Y81349D01*
X54883Y81385D01*
X54863Y81421D01*
X54847Y81454D01*
X54821Y81520D01*
X54804Y81579D01*
X54801Y81602D01*
X54798Y81625D01*
X54795Y81641D01*
Y81664D01*
X54798Y81710D01*
X54804Y81753D01*
X54814Y81792D01*
X54827Y81831D01*
X54860Y81900D01*
X54896Y81963D01*
X54936Y82012D01*
X54952Y82031D01*
X54968Y82048D01*
X54981Y82061D01*
X54991Y82071D01*
X54998Y82074D01*
X55001Y82077D01*
X55041Y82107D01*
X55086Y82133D01*
X55136Y82156D01*
X55185Y82176D01*
X55290Y82205D01*
X55395Y82228D01*
X55441Y82235D01*
X55487Y82238D01*
X55529Y82241D01*
X55565Y82245D01*
X55592Y82248D01*
X55615D01*
X55628D01*
X55634D01*
X55710Y82245D01*
D02*
G37*
G36*
X60468Y82986D02*
X59195D01*
X59133Y82989D01*
X59077Y82992D01*
X59021Y82999D01*
X58972Y83009D01*
X58929Y83022D01*
X58887Y83035D01*
X58851Y83048D01*
X58818Y83065D01*
X58792Y83078D01*
X58765Y83091D01*
X58746Y83104D01*
X58729Y83117D01*
X58716Y83127D01*
X58706Y83133D01*
X58703Y83140D01*
X58700D01*
X58674Y83170D01*
X58647Y83202D01*
X58611Y83265D01*
X58582Y83330D01*
X58565Y83393D01*
X58552Y83445D01*
X58549Y83468D01*
Y83488D01*
X58546Y83504D01*
Y83527D01*
X58549Y83573D01*
X58555Y83616D01*
X58565Y83655D01*
X58575Y83688D01*
X58588Y83714D01*
X58598Y83734D01*
X58605Y83747D01*
X58608Y83750D01*
X58631Y83783D01*
X58657Y83812D01*
X58683Y83832D01*
X58710Y83852D01*
X58732Y83865D01*
X58749Y83875D01*
X58762Y83881D01*
X58765D01*
X58808Y83894D01*
X58857Y83901D01*
X58910Y83908D01*
X58962Y83914D01*
X59011D01*
X59051Y83917D01*
X59064D01*
X59077D01*
X59083D01*
X59087D01*
X60468D01*
Y82986D01*
D02*
G37*
G36*
X59503Y80365D02*
X59589Y80362D01*
X59664Y80355D01*
X59730Y80345D01*
X59782Y80336D01*
X59821Y80326D01*
X59851Y80316D01*
X59867Y80309D01*
X59874Y80306D01*
X59933Y80273D01*
X59982Y80234D01*
X60028Y80195D01*
X60064Y80155D01*
X60094Y80116D01*
X60117Y80086D01*
X60130Y80067D01*
X60133Y80063D01*
Y80060D01*
X60163Y79994D01*
X60185Y79929D01*
X60202Y79866D01*
X60212Y79804D01*
X60218Y79755D01*
X60222Y79732D01*
X60225Y79712D01*
Y79676D01*
X60222Y79601D01*
X60208Y79535D01*
X60192Y79476D01*
X60176Y79430D01*
X60156Y79394D01*
X60143Y79368D01*
X60130Y79355D01*
X60127Y79348D01*
X60087Y79312D01*
X60048Y79283D01*
X60005Y79263D01*
X59966Y79250D01*
X59933Y79243D01*
X59904Y79240D01*
X59887Y79237D01*
X59881D01*
X59844Y79240D01*
X59812Y79243D01*
X59782Y79253D01*
X59756Y79263D01*
X59733Y79270D01*
X59716Y79279D01*
X59707Y79283D01*
X59703Y79286D01*
X59674Y79309D01*
X59651Y79332D01*
X59631Y79355D01*
X59611Y79381D01*
X59598Y79401D01*
X59589Y79417D01*
X59585Y79430D01*
X59582Y79434D01*
X59566Y79476D01*
X59553Y79525D01*
X59539Y79578D01*
X59530Y79630D01*
X59520Y79680D01*
X59513Y79722D01*
X59510Y79735D01*
X59507Y79748D01*
Y79758D01*
X59497Y79834D01*
X59484Y79903D01*
X59474Y79965D01*
X59461Y80024D01*
X59447Y80080D01*
X59438Y80129D01*
X59425Y80175D01*
X59415Y80217D01*
X59405Y80250D01*
X59395Y80283D01*
X59389Y80309D01*
X59379Y80329D01*
X59372Y80345D01*
X59369Y80359D01*
X59365Y80365D01*
Y80368D01*
X59503Y80365D01*
D02*
G37*
G36*
X59526Y78459D02*
X59444Y78446D01*
X59372Y78427D01*
X59310Y78404D01*
X59257Y78377D01*
X59234Y78368D01*
X59218Y78358D01*
X59205Y78351D01*
X59195Y78345D01*
X59188Y78338D01*
X59185D01*
X59152Y78312D01*
X59119Y78286D01*
X59057Y78223D01*
X59005Y78161D01*
X58962Y78095D01*
X58926Y78040D01*
X58910Y78013D01*
X58900Y77990D01*
X58890Y77974D01*
X58883Y77961D01*
X58877Y77951D01*
Y77948D01*
X58860Y77912D01*
X58844Y77866D01*
X58828Y77820D01*
X58811Y77767D01*
X58782Y77656D01*
X58752Y77544D01*
X58736Y77492D01*
X58726Y77443D01*
X58713Y77397D01*
X58706Y77357D01*
X58696Y77324D01*
X58690Y77302D01*
X58687Y77285D01*
Y77279D01*
X58667Y77190D01*
X58644Y77111D01*
X58624Y77043D01*
X58605Y76977D01*
X58585Y76921D01*
X58569Y76872D01*
X58552Y76829D01*
X58536Y76793D01*
X58519Y76764D01*
X58506Y76737D01*
X58496Y76718D01*
X58486Y76701D01*
X58477Y76688D01*
X58470Y76682D01*
X58467Y76675D01*
X58424Y76636D01*
X58381Y76609D01*
X58336Y76590D01*
X58293Y76573D01*
X58257Y76567D01*
X58227Y76564D01*
X58208Y76560D01*
X58204D01*
X58201D01*
X58165Y76564D01*
X58132Y76567D01*
X58073Y76587D01*
X58017Y76613D01*
X57972Y76642D01*
X57932Y76672D01*
X57903Y76698D01*
X57886Y76718D01*
X57880Y76721D01*
Y76724D01*
X57857Y76757D01*
X57834Y76797D01*
X57801Y76878D01*
X57778Y76964D01*
X57762Y77052D01*
X57755Y77092D01*
X57752Y77131D01*
X57749Y77164D01*
Y77193D01*
X57745Y77220D01*
Y77315D01*
X57752Y77374D01*
X57758Y77429D01*
X57768Y77482D01*
X57778Y77528D01*
X57791Y77571D01*
X57804Y77610D01*
X57817Y77646D01*
X57834Y77675D01*
X57847Y77702D01*
X57860Y77725D01*
X57870Y77744D01*
X57880Y77758D01*
X57886Y77771D01*
X57889Y77774D01*
X57893Y77777D01*
X57922Y77810D01*
X57952Y77839D01*
X58021Y77885D01*
X58093Y77925D01*
X58162Y77951D01*
X58224Y77971D01*
X58250Y77977D01*
X58277Y77984D01*
X58296Y77987D01*
X58309D01*
X58319Y77990D01*
X58323D01*
X58293Y78374D01*
X58195Y78364D01*
X58106Y78345D01*
X58024Y78322D01*
X57955Y78295D01*
X57926Y78279D01*
X57896Y78269D01*
X57873Y78256D01*
X57854Y78246D01*
X57837Y78236D01*
X57827Y78230D01*
X57821Y78227D01*
X57817Y78223D01*
X57742Y78167D01*
X57680Y78105D01*
X57624Y78040D01*
X57578Y77974D01*
X57545Y77918D01*
X57532Y77892D01*
X57519Y77872D01*
X57509Y77856D01*
X57506Y77839D01*
X57499Y77833D01*
Y77830D01*
X57463Y77731D01*
X57434Y77630D01*
X57414Y77528D01*
X57401Y77436D01*
X57398Y77393D01*
X57394Y77357D01*
X57391Y77321D01*
X57388Y77292D01*
Y78466D01*
X59615D01*
X59526Y78459D01*
D02*
G37*
D10*
X135827Y81102D02*
X135039D01*
X135827D01*
X43701Y122638D02*
X42913D01*
X43701D01*
X100460Y31117D02*
X100725Y30150D01*
X101087Y29216D01*
X101543Y28323D01*
X102086Y27481D01*
X102713Y26699D01*
X103416Y25985D01*
X104188Y25346D01*
X105021Y24789D01*
X105906Y24319D01*
X106834Y23941D01*
X107796Y23660D01*
X108782Y23479D01*
X109781Y23398D01*
X110783Y23420D01*
X111777Y23543D01*
X112754Y23767D01*
X113703Y24089D01*
X114615Y24505D01*
X115479Y25013D01*
X116287Y25605D01*
X117031Y26277D01*
X117703Y27021D01*
X118295Y27829D01*
X118802Y28693D01*
X119219Y29605D01*
X119541Y30554D01*
X119765Y31531D01*
X119888Y32525D01*
X119909Y33527D01*
X119829Y34526D01*
X119647Y35512D01*
X119366Y36474D01*
X118989Y37402D01*
X118519Y38287D01*
X117961Y39120D01*
X117322Y39892D01*
X116608Y40595D01*
X115826Y41221D01*
X114984Y41765D01*
X114091Y42221D01*
X113157Y42583D01*
X112190Y42848D01*
X135827Y61417D02*
X135039D01*
X135827D01*
X86910Y125295D02*
X86122D01*
X86910D01*
X24016Y59449D02*
X23228D01*
X24016D01*
X79528Y45774D02*
Y53150D01*
Y1969D02*
Y35931D01*
Y114567D02*
Y141339D01*
X51181Y1969D02*
Y141339D01*
X98425Y109772D02*
X115801D01*
X98425Y93236D02*
X115801D01*
Y109772D01*
X79528Y35931D02*
Y45774D01*
X71653D02*
X79528D01*
X71653Y35931D02*
Y45774D01*
Y35931D02*
X79528D01*
X46989Y73330D02*
Y84225D01*
X36219D02*
X46989D01*
X36219Y73330D02*
Y84225D01*
Y73330D02*
X46989D01*
X89764Y123819D02*
X93701D01*
Y122146D02*
Y123819D01*
X89764Y115551D02*
X93701D01*
Y117224D01*
X28445Y15650D02*
X30217D01*
X28445D02*
Y17421D01*
Y35335D02*
Y37106D01*
X30217D01*
X48130D02*
X49902D01*
Y35335D02*
Y37106D01*
X48130Y15650D02*
X49902D01*
Y17421D01*
X23041Y76484D02*
X24016Y75510D01*
X24990Y76484D01*
X42807Y94301D02*
X43781Y95276D01*
X42807Y96250D02*
X43781Y95276D01*
X24016Y115041D02*
X24990Y114067D01*
X23041Y114067D02*
X24016Y115041D01*
X4250Y95276D02*
X5224Y96250D01*
X4250Y95276D02*
X5224Y94301D01*
D11*
X99705Y62992D02*
X98966Y63418D01*
Y62566D01*
X99705Y62992D01*
X59941Y46457D02*
X59203Y46883D01*
Y46031D01*
X59941Y46457D01*
X29528Y13091D02*
X28789Y13517D01*
Y12664D01*
X29528Y13091D01*
X22736Y73819D02*
X21998Y74245D01*
Y73393D01*
X22736Y73819D01*
D12*
X33465Y43898D02*
X42126D01*
X33465D02*
Y48622D01*
X42126D01*
Y43898D02*
Y48622D01*
X133366Y80413D02*
Y81791D01*
X131988Y80413D02*
X133366D01*
X120965D02*
X122343D01*
X120965D02*
Y81791D01*
X131988Y92815D02*
X133366D01*
Y91437D02*
Y92815D01*
X120965Y91437D02*
Y92815D01*
X122343D01*
X17224Y16929D02*
X25886D01*
X17224D02*
Y21654D01*
X25886D01*
Y16929D02*
Y21654D01*
X44685Y122835D02*
X49803Y122835D01*
X49803Y115354D01*
X44685D02*
X49803D01*
X44685D02*
Y122835D01*
X29415Y119496D02*
X35540Y113372D01*
X32199Y110031D02*
X35540Y113372D01*
X26074Y116156D02*
X32199Y110031D01*
X26074Y116156D02*
X29415Y119496D01*
X109843Y87697D02*
X118504D01*
X109843D02*
Y92421D01*
X118504D01*
Y87697D02*
Y92421D01*
X109843Y78248D02*
X118504D01*
X109843D02*
Y82972D01*
X118504D01*
Y78248D02*
Y82972D01*
X109843Y61221D02*
X118504D01*
X109843D02*
Y65945D01*
X118504D01*
Y61221D02*
Y65945D01*
X133366Y60728D02*
Y62106D01*
X131988Y60728D02*
X133366D01*
X120965D02*
X122343D01*
X120965D02*
Y62106D01*
X131988Y73130D02*
X133366D01*
Y71752D02*
Y73130D01*
X120965Y71752D02*
Y73130D01*
X122343D01*
X109843Y65945D02*
X118504D01*
X109843D02*
Y70669D01*
X118504D01*
Y65945D02*
Y70669D01*
X109843Y82973D02*
X118504D01*
X109843D02*
Y87697D01*
X118504D01*
Y82973D02*
Y87697D01*
X98425Y78150D02*
X107087D01*
Y74213D02*
Y78150D01*
X98425Y74213D02*
X107087D01*
X98425D02*
Y78150D01*
Y82185D02*
X107087D01*
Y78248D02*
Y82185D01*
X98425Y78248D02*
X107087D01*
X98425D02*
Y82185D01*
X61417Y61221D02*
X70079D01*
Y57284D02*
Y61221D01*
X61417Y57284D02*
X70079D01*
X61417D02*
Y61221D01*
Y42717D02*
X70079D01*
X61417D02*
Y46654D01*
X70079D01*
Y42717D02*
Y46654D01*
X100787Y63583D02*
X106693D01*
X98819Y74213D02*
X106693D01*
X61811Y46654D02*
X69685D01*
X61811Y57284D02*
X69685D01*
X83563Y115945D02*
Y124606D01*
X79626Y115945D02*
X83563D01*
X79626D02*
Y124606D01*
X83563D01*
X35433Y60236D02*
X37205D01*
X25000D02*
X26772D01*
X25000Y50000D02*
X26772D01*
X35433D02*
X37205D01*
X24803Y48622D02*
X33465D01*
Y43898D02*
Y48622D01*
X24803Y43898D02*
X33465D01*
X24803D02*
Y48622D01*
X21063Y28346D02*
Y37008D01*
X25787D01*
Y28346D02*
Y37008D01*
X21063Y28346D02*
X25787D01*
X20866Y28346D02*
Y37008D01*
X16929Y28346D02*
X20866D01*
X16929D02*
Y37008D01*
X20866D01*
X8465Y28346D02*
Y37008D01*
X4528Y28346D02*
X8465D01*
X4528D02*
Y37008D01*
X8465D01*
X12598Y28346D02*
Y37008D01*
X8661Y28346D02*
X12598D01*
X8661D02*
Y37008D01*
X12598D01*
X16732Y28346D02*
Y37008D01*
X12795Y28346D02*
X16732D01*
X12795D02*
Y37008D01*
X16732D01*
X42421Y63878D02*
Y72539D01*
X38484Y63878D02*
X42421D01*
X38484D02*
Y72539D01*
X42421D01*
X50394Y132283D02*
Y136221D01*
X44094Y132283D02*
Y136221D01*
X32748Y122857D02*
X38872Y116732D01*
X35531Y113392D02*
X38872Y116732D01*
X29407Y119516D02*
X35531Y113392D01*
X29407Y119516D02*
X32748Y122857D01*
X21341Y118367D02*
X26909Y123934D01*
X15217Y124491D02*
X20785Y130059D01*
X47146Y63878D02*
Y72539D01*
X42421Y63878D02*
X47146D01*
X42421D02*
Y72539D01*
X47146D01*
X29907Y77469D02*
X36032Y71344D01*
X32691Y68004D02*
X36032Y71344D01*
X26567Y74128D02*
X32691Y68004D01*
X26567Y74128D02*
X29907Y77469D01*
X46555Y102953D02*
Y111614D01*
X51279D01*
Y102953D02*
Y111614D01*
X46555Y102953D02*
X51279D01*
X5399Y87016D02*
X11524Y80892D01*
X8183Y77551D02*
X11524Y80892D01*
X2059Y83675D02*
X8183Y77551D01*
X2059Y83675D02*
X5399Y87016D01*
X1567Y102151D02*
X7691Y108276D01*
X11032Y104935D01*
X4907Y98811D02*
X11032Y104935D01*
X1567Y102151D02*
X4907Y98811D01*
X2748Y113203D02*
X8872Y107078D01*
X2748Y113203D02*
X6088Y116544D01*
X12213Y110419D01*
X8872Y107078D02*
X12213Y110419D01*
X6094Y116549D02*
X12219Y110425D01*
X6094Y116549D02*
X9435Y119890D01*
X15559Y113766D01*
X12219Y110425D02*
X15559Y113766D01*
X26364Y74024D02*
X32489Y67899D01*
X29148Y64559D02*
X32489Y67899D01*
X23023Y70683D02*
X29148Y64559D01*
X23023Y70683D02*
X26364Y74024D01*
D13*
X47244Y124803D02*
D03*
M02*
