G04*
G04 #@! TF.GenerationSoftware,Altium Limited,Altium Designer,20.0.13 (296)*
G04*
G04 Layer_Physical_Order=3*
G04 Layer_Color=16440176*
%FSLAX25Y25*%
%MOIN*%
G70*
G01*
G75*
%ADD12C,0.00591*%
G04:AMPARAMS|DCode=69|XSize=78.74mil|YSize=47.24mil|CornerRadius=11.81mil|HoleSize=0mil|Usage=FLASHONLY|Rotation=225.000|XOffset=0mil|YOffset=0mil|HoleType=Round|Shape=RoundedRectangle|*
%AMROUNDEDRECTD69*
21,1,0.07874,0.02362,0,0,225.0*
21,1,0.05512,0.04724,0,0,225.0*
1,1,0.02362,-0.02784,-0.01114*
1,1,0.02362,0.01114,0.02784*
1,1,0.02362,0.02784,0.01114*
1,1,0.02362,-0.01114,-0.02784*
%
%ADD69ROUNDEDRECTD69*%
%ADD71C,0.01772*%
%ADD72C,0.02165*%
G36*
X108821Y141836D02*
X109003Y141467D01*
X109106Y141025D01*
X108845Y140635D01*
X108731Y140059D01*
X108845Y139483D01*
X109172Y138995D01*
X109660Y138668D01*
X110236Y138554D01*
X110812Y138668D01*
X111301Y138995D01*
X111627Y139483D01*
X111741Y140059D01*
X111641Y140563D01*
X111796Y140872D01*
X112173Y141235D01*
X113316Y140882D01*
X114593Y140378D01*
X115829Y139780D01*
X117017Y139092D01*
X119132Y137643D01*
X122129Y135379D01*
X125019Y132980D01*
X127794Y130450D01*
X130449Y127794D01*
X132980Y125019D01*
X135379Y122130D01*
X137642Y119133D01*
X138703Y117584D01*
X139091Y117017D01*
X139780Y115829D01*
X140378Y114594D01*
X140881Y113316D01*
X141287Y112004D01*
X141594Y110666D01*
X141799Y109309D01*
X141902Y107940D01*
Y107253D01*
Y95773D01*
X141428Y95539D01*
X141115Y95497D01*
X139910Y96702D01*
X139617Y96897D01*
X139272Y96966D01*
X138574D01*
X138466Y97127D01*
X137978Y97454D01*
X137402Y97568D01*
X136826Y97454D01*
X136337Y97127D01*
X136011Y96639D01*
X135896Y96063D01*
X136011Y95487D01*
X136337Y94999D01*
X136826Y94672D01*
X137270Y94584D01*
X137439Y94038D01*
X137455Y93805D01*
X137125Y93584D01*
X136798Y93096D01*
X136684Y92520D01*
X136798Y91944D01*
X137125Y91455D01*
X137613Y91129D01*
X138189Y91014D01*
X138469Y91070D01*
X139125Y90630D01*
X139182Y90551D01*
X139125Y90473D01*
X138469Y90032D01*
X138189Y90088D01*
X137613Y89973D01*
X137125Y89647D01*
X136798Y89159D01*
X136684Y88583D01*
X136798Y88007D01*
X137125Y87518D01*
X137613Y87192D01*
X138189Y87077D01*
X138469Y87133D01*
X139125Y86693D01*
X139182Y86614D01*
X139125Y86536D01*
X138469Y86095D01*
X138189Y86151D01*
X137613Y86036D01*
X137125Y85710D01*
X136798Y85222D01*
X136684Y84646D01*
X136798Y84070D01*
X137125Y83581D01*
X137613Y83255D01*
X138189Y83140D01*
X138469Y83196D01*
X139125Y82756D01*
X139182Y82677D01*
X139125Y82599D01*
X138469Y82158D01*
X138189Y82214D01*
X137613Y82099D01*
X137125Y81773D01*
X136798Y81285D01*
X136684Y80709D01*
X136798Y80133D01*
X137125Y79644D01*
X137613Y79318D01*
X138189Y79203D01*
X138765Y79318D01*
X138861Y79382D01*
X139648Y78961D01*
Y74582D01*
X138861Y74161D01*
X138765Y74225D01*
X138189Y74340D01*
X138116Y74400D01*
X137655Y75037D01*
X137726Y75394D01*
X137611Y75970D01*
X137285Y76458D01*
X136796Y76784D01*
X136221Y76899D01*
X135644Y76784D01*
X135156Y76458D01*
X134830Y75970D01*
X134715Y75394D01*
X134830Y74818D01*
X135156Y74329D01*
X135644Y74003D01*
X136221Y73888D01*
X136293Y73828D01*
X136755Y73192D01*
X136684Y72835D01*
X136798Y72259D01*
X137125Y71770D01*
X137613Y71444D01*
X138189Y71329D01*
X138469Y71385D01*
X139125Y70944D01*
X139182Y70866D01*
X139125Y70788D01*
X138469Y70347D01*
X138189Y70403D01*
X137613Y70288D01*
X137125Y69962D01*
X136798Y69474D01*
X136684Y68898D01*
X136798Y68322D01*
X137125Y67833D01*
X137613Y67507D01*
X138189Y67392D01*
X138469Y67448D01*
X139125Y67007D01*
X139182Y66929D01*
X139125Y66851D01*
X138469Y66410D01*
X138189Y66466D01*
X137613Y66351D01*
X137125Y66025D01*
X136798Y65537D01*
X136684Y64961D01*
X136798Y64385D01*
X137125Y63896D01*
X137613Y63570D01*
X138189Y63455D01*
X138469Y63511D01*
X139125Y63070D01*
X139182Y62992D01*
X139125Y62914D01*
X138469Y62473D01*
X138189Y62529D01*
X137613Y62414D01*
X137125Y62088D01*
X136798Y61600D01*
X136684Y61024D01*
X136798Y60448D01*
X137125Y59959D01*
X137613Y59633D01*
X138189Y59518D01*
X138765Y59633D01*
X138861Y59697D01*
X139648Y59276D01*
Y32658D01*
X136437Y29447D01*
X131881D01*
X131773Y29608D01*
X131285Y29934D01*
X130709Y30049D01*
X130133Y29934D01*
X129644Y29608D01*
X129318Y29119D01*
X129203Y28543D01*
X129318Y27967D01*
X129644Y27479D01*
X130133Y27153D01*
X130709Y27038D01*
X131285Y27153D01*
X131773Y27479D01*
X131881Y27640D01*
X136811D01*
X137157Y27709D01*
X137450Y27905D01*
X140290Y30745D01*
X140984Y30326D01*
X140881Y29992D01*
X140378Y28714D01*
X139780Y27479D01*
X139091Y26291D01*
X138703Y25724D01*
X138703Y25724D01*
X137642Y24175D01*
X135379Y21178D01*
X132980Y18289D01*
X130449Y15514D01*
X127794Y12858D01*
X125019Y10328D01*
X122129Y7929D01*
X119132Y5666D01*
X117583Y4604D01*
X117017Y4216D01*
X115829Y3528D01*
X114593Y2930D01*
X113316Y2427D01*
X112004Y2020D01*
X110666Y1714D01*
X109308Y1508D01*
X107939Y1405D01*
X89032D01*
X88706Y2193D01*
X91063Y4550D01*
X91339Y4495D01*
X91991Y4625D01*
X92545Y4995D01*
X92915Y5548D01*
X93045Y6201D01*
X92915Y6854D01*
X92545Y7407D01*
X91991Y7777D01*
X91339Y7907D01*
X90686Y7777D01*
X90132Y7407D01*
X89762Y6854D01*
X89633Y6201D01*
X89720Y5761D01*
X87421Y3462D01*
X56195D01*
X56021Y3730D01*
X56399Y4593D01*
X56558Y4625D01*
X57112Y4995D01*
X57482Y5548D01*
X57612Y6201D01*
X57482Y6854D01*
X57112Y7407D01*
X56558Y7777D01*
X55905Y7907D01*
X55253Y7777D01*
X54699Y7407D01*
X54672Y7401D01*
X53811Y7495D01*
X53788Y7528D01*
X53055Y8262D01*
X53080Y8461D01*
X53365Y9065D01*
X53803Y9152D01*
X54356Y9522D01*
X54726Y10075D01*
X54856Y10728D01*
X54726Y11381D01*
X54356Y11935D01*
X53803Y12304D01*
X53150Y12434D01*
X52497Y12304D01*
X51943Y11935D01*
X51887Y11851D01*
X51100Y12090D01*
Y15757D01*
X51261Y15865D01*
X51588Y16353D01*
X51702Y16929D01*
X51588Y17505D01*
X51261Y17993D01*
X50773Y18320D01*
X50197Y18434D01*
X49621Y18320D01*
X49132Y17993D01*
X48806Y17505D01*
X48692Y16929D01*
X48806Y16353D01*
X49132Y15865D01*
X49294Y15757D01*
Y12571D01*
X48506Y12160D01*
X48291Y12304D01*
X47638Y12434D01*
X46985Y12304D01*
X46431Y11935D01*
X46062Y11381D01*
X45932Y10728D01*
X46062Y10075D01*
X46431Y9522D01*
X46985Y9152D01*
X47638Y9022D01*
X48291Y9152D01*
X48589Y9351D01*
X48716Y9375D01*
X49436Y9258D01*
X49558Y9204D01*
X49570Y9192D01*
X50109Y8653D01*
X49850Y7799D01*
X49741Y7777D01*
X49187Y7407D01*
X48818Y6854D01*
X48688Y6201D01*
X48818Y5548D01*
X49187Y4995D01*
X49741Y4625D01*
X50394Y4495D01*
X51047Y4625D01*
X51459Y4900D01*
X51749Y4872D01*
X51931Y4809D01*
X52289Y4608D01*
X52315Y4477D01*
X52511Y4184D01*
X54502Y2193D01*
X54464Y1912D01*
X54176Y1405D01*
X35368D01*
X33999Y1508D01*
X32642Y1714D01*
X31303Y2020D01*
X29991Y2427D01*
X28714Y2930D01*
X27478Y3528D01*
X26290Y4216D01*
X24175Y5666D01*
X21178Y7929D01*
X18289Y10328D01*
X15513Y12858D01*
X12858Y15514D01*
X10328Y18289D01*
X7928Y21178D01*
X5665Y24175D01*
X4216Y26291D01*
X3527Y27479D01*
X2929Y28715D01*
X2426Y29992D01*
X2020Y31304D01*
X1713Y32642D01*
X1508Y33999D01*
X1405Y35369D01*
Y36055D01*
Y76391D01*
X1756Y76596D01*
X2192Y76718D01*
X2574Y76464D01*
X3150Y76349D01*
X3726Y76464D01*
X4214Y76790D01*
X4540Y77278D01*
X4655Y77854D01*
X4540Y78430D01*
X4214Y78919D01*
X3726Y79245D01*
X3150Y79360D01*
X2574Y79245D01*
X2192Y78990D01*
X1756Y79112D01*
X1405Y79318D01*
Y88300D01*
X1756Y88506D01*
X2192Y88628D01*
X2574Y88373D01*
X3150Y88258D01*
X3726Y88373D01*
X4214Y88699D01*
X4540Y89188D01*
X4655Y89764D01*
X4540Y90340D01*
X4214Y90828D01*
X3726Y91154D01*
X3150Y91269D01*
X2574Y91154D01*
X2192Y90900D01*
X1756Y91022D01*
X1405Y91227D01*
Y107253D01*
Y107940D01*
X1508Y109309D01*
X1713Y110666D01*
X2020Y112004D01*
X2426Y113316D01*
X2929Y114594D01*
X3527Y115830D01*
X4216Y117017D01*
X5665Y119133D01*
X7928Y122130D01*
X10328Y125019D01*
X12858Y127794D01*
X15513Y130450D01*
X18289Y132980D01*
X21178Y135379D01*
X24175Y137642D01*
X25724Y138704D01*
X26290Y139092D01*
X27478Y139780D01*
X28101Y140082D01*
X28888Y139588D01*
Y123228D01*
X29076Y122776D01*
X29528Y122589D01*
X64961D01*
X65413Y122776D01*
X65600Y123228D01*
Y141903D01*
X107939D01*
X108821Y141836D01*
D02*
G37*
%LPC*%
G36*
X98425Y138812D02*
X97772Y138682D01*
X97219Y138313D01*
X96863Y137780D01*
X96737Y137759D01*
X96176D01*
X96050Y137780D01*
X95695Y138313D01*
X95141Y138682D01*
X94488Y138812D01*
X93835Y138682D01*
X93282Y138313D01*
X92926Y137780D01*
X92800Y137759D01*
X92239D01*
X92113Y137780D01*
X91758Y138313D01*
X91204Y138682D01*
X90551Y138812D01*
X89898Y138682D01*
X89345Y138313D01*
X88975Y137759D01*
X88845Y137106D01*
X88975Y136453D01*
X89345Y135900D01*
X89898Y135530D01*
X90551Y135400D01*
X91204Y135530D01*
X91758Y135900D01*
X92113Y136433D01*
X92239Y136453D01*
X92800D01*
X92926Y136433D01*
X93282Y135900D01*
X93835Y135530D01*
X94488Y135400D01*
X95141Y135530D01*
X95695Y135900D01*
X96050Y136433D01*
X96176Y136453D01*
X96737D01*
X96863Y136433D01*
X97219Y135900D01*
X97772Y135530D01*
X98425Y135400D01*
X99078Y135530D01*
X99632Y135900D01*
X100001Y136453D01*
X100131Y137106D01*
X100001Y137759D01*
X99632Y138313D01*
X99078Y138682D01*
X98425Y138812D01*
D02*
G37*
G36*
X82677D02*
X82024Y138682D01*
X81471Y138313D01*
X81101Y137759D01*
X80971Y137106D01*
X81101Y136453D01*
X81471Y135900D01*
X82024Y135530D01*
X82677Y135400D01*
X83330Y135530D01*
X83884Y135900D01*
X84253Y136453D01*
X84383Y137106D01*
X84253Y137759D01*
X83884Y138313D01*
X83330Y138682D01*
X82677Y138812D01*
D02*
G37*
G36*
X119617Y134905D02*
X118926Y134768D01*
X118340Y134376D01*
X114443Y130479D01*
X114051Y129893D01*
X113914Y129201D01*
X114051Y128510D01*
X114443Y127924D01*
X116113Y126254D01*
X116699Y125862D01*
X117390Y125725D01*
X118082Y125862D01*
X118668Y126254D01*
X122565Y130151D01*
X122957Y130737D01*
X123094Y131429D01*
X122957Y132120D01*
X122565Y132706D01*
X120895Y134376D01*
X120309Y134768D01*
X119617Y134905D01*
D02*
G37*
G36*
X28864Y121490D02*
X28288Y121375D01*
X27799Y121049D01*
X27473Y120560D01*
X27359Y119984D01*
X27473Y119408D01*
X27799Y118920D01*
X28288Y118594D01*
X28864Y118479D01*
X29440Y118594D01*
X29928Y118920D01*
X30255Y119408D01*
X30369Y119984D01*
X30255Y120560D01*
X29928Y121049D01*
X29440Y121375D01*
X28864Y121490D01*
D02*
G37*
G36*
X78051Y119812D02*
X77475Y119698D01*
X76987Y119371D01*
X76661Y118883D01*
X76546Y118307D01*
X76661Y117731D01*
X76987Y117243D01*
X77475Y116916D01*
X78051Y116802D01*
X78627Y116916D01*
X79116Y117243D01*
X79442Y117731D01*
X79557Y118307D01*
X79442Y118883D01*
X79116Y119371D01*
X78627Y119698D01*
X78051Y119812D01*
D02*
G37*
G36*
X13878Y119222D02*
X13302Y119107D01*
X12814Y118781D01*
X12487Y118293D01*
X12373Y117717D01*
X12487Y117140D01*
X12814Y116652D01*
X13302Y116326D01*
X13878Y116211D01*
X14454Y116326D01*
X14942Y116652D01*
X15269Y117140D01*
X15383Y117717D01*
X15269Y118293D01*
X14942Y118781D01*
X14454Y119107D01*
X13878Y119222D01*
D02*
G37*
G36*
X98032Y121879D02*
X97455Y121765D01*
X96967Y121438D01*
X96641Y120950D01*
X96526Y120374D01*
X96641Y119798D01*
X96819Y119531D01*
X96912Y118996D01*
X96819Y118461D01*
X96641Y118194D01*
X96526Y117618D01*
X96641Y117042D01*
X96967Y116554D01*
X97455Y116227D01*
X98032Y116113D01*
X98608Y116227D01*
X99096Y116554D01*
X99422Y117042D01*
X99537Y117618D01*
X99422Y118194D01*
X99244Y118461D01*
X99151Y118996D01*
X99244Y119531D01*
X99422Y119798D01*
X99537Y120374D01*
X99422Y120950D01*
X99096Y121438D01*
X98608Y121765D01*
X98032Y121879D01*
D02*
G37*
G36*
X131429Y123094D02*
X130737Y122957D01*
X130151Y122565D01*
X126254Y118668D01*
X125862Y118082D01*
X125725Y117390D01*
X125862Y116699D01*
X126254Y116113D01*
X127924Y114443D01*
X128510Y114051D01*
X129201Y113914D01*
X129893Y114051D01*
X130479Y114443D01*
X134376Y118340D01*
X134768Y118926D01*
X134905Y119617D01*
X134768Y120309D01*
X134376Y120895D01*
X132706Y122565D01*
X132120Y122957D01*
X131429Y123094D01*
D02*
G37*
G36*
X4232Y108493D02*
X3656Y108379D01*
X3168Y108053D01*
X2842Y107564D01*
X2727Y106988D01*
X2842Y106412D01*
X3168Y105924D01*
X3656Y105597D01*
X4232Y105483D01*
X4808Y105597D01*
X5297Y105924D01*
X5623Y106412D01*
X5738Y106988D01*
X5623Y107564D01*
X5297Y108053D01*
X4808Y108379D01*
X4232Y108493D01*
D02*
G37*
G36*
X44980Y107017D02*
X44404Y106903D01*
X43916Y106576D01*
X43590Y106088D01*
X43475Y105512D01*
X43590Y104936D01*
X43916Y104447D01*
X44404Y104121D01*
X44980Y104007D01*
X45556Y104121D01*
X46045Y104447D01*
X46371Y104936D01*
X46486Y105512D01*
X46371Y106088D01*
X46045Y106576D01*
X45556Y106903D01*
X44980Y107017D01*
D02*
G37*
G36*
X133465Y103867D02*
X132888Y103753D01*
X132400Y103427D01*
X132074Y102938D01*
X131980Y102466D01*
X131923Y102337D01*
X131255Y101869D01*
X131102Y101899D01*
X130950Y101869D01*
X130282Y102337D01*
X130225Y102466D01*
X130131Y102938D01*
X129805Y103427D01*
X129316Y103753D01*
X128740Y103867D01*
X128164Y103753D01*
X127676Y103427D01*
X127349Y102938D01*
X127235Y102362D01*
X127349Y101786D01*
X127676Y101298D01*
X128164Y100971D01*
X128740Y100857D01*
X128892Y100887D01*
X129560Y100419D01*
X129618Y100290D01*
X129712Y99818D01*
X130038Y99329D01*
X130526Y99003D01*
X131102Y98888D01*
X131678Y99003D01*
X132167Y99329D01*
X132493Y99818D01*
X132587Y100290D01*
X132644Y100419D01*
X133312Y100887D01*
X133465Y100857D01*
X134041Y100971D01*
X134529Y101298D01*
X134855Y101786D01*
X134970Y102362D01*
X134855Y102938D01*
X134529Y103427D01*
X134041Y103753D01*
X133465Y103867D01*
D02*
G37*
G36*
X122047D02*
X121471Y103753D01*
X120983Y103427D01*
X120657Y102938D01*
X120563Y102466D01*
X120505Y102337D01*
X119837Y101869D01*
X119685Y101899D01*
X119533Y101869D01*
X118865Y102337D01*
X118807Y102466D01*
X118713Y102938D01*
X118387Y103427D01*
X117899Y103753D01*
X117323Y103867D01*
X116747Y103753D01*
X116258Y103427D01*
X115932Y102938D01*
X115817Y102362D01*
X115932Y101786D01*
X116258Y101298D01*
X116747Y100971D01*
X117323Y100857D01*
X117475Y100887D01*
X118143Y100419D01*
X118200Y100290D01*
X118294Y99818D01*
X118621Y99329D01*
X119109Y99003D01*
X119685Y98888D01*
X120261Y99003D01*
X120749Y99329D01*
X121076Y99818D01*
X121170Y100290D01*
X121227Y100419D01*
X121895Y100887D01*
X122047Y100857D01*
X122623Y100971D01*
X123112Y101298D01*
X123438Y101786D01*
X123553Y102362D01*
X123438Y102938D01*
X123112Y103427D01*
X122623Y103753D01*
X122047Y103867D01*
D02*
G37*
G36*
X48917Y103671D02*
X48341Y103556D01*
X47853Y103230D01*
X47527Y102742D01*
X47412Y102166D01*
X47527Y101590D01*
X47853Y101101D01*
X48341Y100775D01*
X48917Y100660D01*
X49493Y100775D01*
X49982Y101101D01*
X50308Y101590D01*
X50423Y102166D01*
X50308Y102742D01*
X49982Y103230D01*
X49493Y103556D01*
X48917Y103671D01*
D02*
G37*
G36*
X46063Y96295D02*
X45372Y96157D01*
X44786Y95766D01*
X44394Y95179D01*
X44257Y94488D01*
X44394Y93797D01*
X44786Y93211D01*
X45372Y92819D01*
X46063Y92682D01*
X46754Y92819D01*
X47340Y93211D01*
X47732Y93797D01*
X47869Y94488D01*
X47732Y95179D01*
X47340Y95766D01*
X46754Y96157D01*
X46063Y96295D01*
D02*
G37*
G36*
X57972Y97470D02*
X57396Y97355D01*
X56908Y97029D01*
X56582Y96541D01*
X56467Y95965D01*
X56582Y95389D01*
X56760Y95121D01*
X56853Y94587D01*
X56760Y94052D01*
X56582Y93785D01*
X56467Y93209D01*
X56582Y92633D01*
X56908Y92144D01*
X57396Y91818D01*
X57972Y91703D01*
X58548Y91818D01*
X59037Y92144D01*
X59363Y92633D01*
X59478Y93209D01*
X59363Y93785D01*
X59185Y94052D01*
X59092Y94587D01*
X59185Y95121D01*
X59363Y95389D01*
X59478Y95965D01*
X59363Y96541D01*
X59037Y97029D01*
X58548Y97355D01*
X57972Y97470D01*
D02*
G37*
G36*
X116634Y96879D02*
X116058Y96765D01*
X115569Y96438D01*
X115243Y95950D01*
X115129Y95374D01*
X115243Y94798D01*
X115517Y94193D01*
X115243Y93588D01*
X115129Y93012D01*
X115243Y92436D01*
X115569Y91947D01*
X116058Y91621D01*
X116634Y91506D01*
X117210Y91621D01*
X117698Y91947D01*
X118025Y92436D01*
X118139Y93012D01*
X118025Y93588D01*
X117751Y94193D01*
X118025Y94798D01*
X118139Y95374D01*
X118025Y95950D01*
X117698Y96438D01*
X117210Y96765D01*
X116634Y96879D01*
D02*
G37*
G36*
X7874Y87627D02*
X7298Y87513D01*
X6810Y87186D01*
X6483Y86698D01*
X6369Y86122D01*
X6483Y85546D01*
X6810Y85058D01*
X7298Y84731D01*
X7874Y84617D01*
X8450Y84731D01*
X8938Y85058D01*
X9265Y85546D01*
X9379Y86122D01*
X9265Y86698D01*
X8938Y87186D01*
X8450Y87513D01*
X7874Y87627D01*
D02*
G37*
G36*
X104724Y85167D02*
X104148Y85052D01*
X103660Y84726D01*
X103334Y84237D01*
X103219Y83661D01*
X103334Y83085D01*
X103660Y82597D01*
X104148Y82271D01*
X104724Y82156D01*
X105300Y82271D01*
X105789Y82597D01*
X106115Y83085D01*
X106230Y83661D01*
X106115Y84237D01*
X105789Y84726D01*
X105300Y85052D01*
X104724Y85167D01*
D02*
G37*
G36*
X100787D02*
X100211Y85052D01*
X99723Y84726D01*
X99397Y84237D01*
X99282Y83661D01*
X99397Y83085D01*
X99723Y82597D01*
X100211Y82271D01*
X100787Y82156D01*
X101364Y82271D01*
X101852Y82597D01*
X102178Y83085D01*
X102293Y83661D01*
X102178Y84237D01*
X101852Y84726D01*
X101364Y85052D01*
X100787Y85167D01*
D02*
G37*
G36*
X37697Y81736D02*
X37121Y81621D01*
X36632Y81295D01*
X36306Y80807D01*
X36192Y80230D01*
X36306Y79655D01*
X36632Y79166D01*
X37121Y78840D01*
X37697Y78725D01*
X38273Y78840D01*
X38761Y79166D01*
X39088Y79655D01*
X39202Y80230D01*
X39088Y80807D01*
X38761Y81295D01*
X38273Y81621D01*
X37697Y81736D01*
D02*
G37*
G36*
X122835Y78966D02*
X122259Y78851D01*
X121770Y78525D01*
X121444Y78037D01*
X120974Y77501D01*
X120604Y77542D01*
X120374Y77588D01*
X119798Y77473D01*
X119310Y77147D01*
X118983Y76659D01*
X118869Y76083D01*
X118983Y75507D01*
X119310Y75018D01*
X119798Y74692D01*
X120374Y74577D01*
X120950Y74692D01*
X121438Y75018D01*
X121765Y75507D01*
X122235Y76043D01*
X122605Y76001D01*
X122835Y75955D01*
X123411Y76070D01*
X124101Y75802D01*
X124428Y75314D01*
X124916Y74987D01*
X125492Y74873D01*
X126068Y74987D01*
X126557Y75314D01*
X127381D01*
X127869Y74987D01*
X128445Y74873D01*
X129021Y74987D01*
X129509Y75314D01*
X129836Y75802D01*
X129950Y76378D01*
X129836Y76954D01*
X129509Y77442D01*
X129021Y77769D01*
X128445Y77883D01*
X127869Y77769D01*
X127381Y77442D01*
X126557D01*
X126068Y77769D01*
X125492Y77883D01*
X124916Y77769D01*
X124225Y78037D01*
X123899Y78525D01*
X123411Y78851D01*
X122835Y78966D01*
D02*
G37*
G36*
X16732Y78375D02*
X16156Y78261D01*
X15668Y77934D01*
X15342Y77446D01*
X15227Y76870D01*
X15342Y76294D01*
X15668Y75806D01*
X16156Y75479D01*
X16732Y75365D01*
X17308Y75479D01*
X17797Y75806D01*
X18123Y76294D01*
X18238Y76870D01*
X18123Y77446D01*
X17797Y77934D01*
X17308Y78261D01*
X16732Y78375D01*
D02*
G37*
G36*
X32579Y81033D02*
X32003Y80918D01*
X31514Y80592D01*
X31188Y80104D01*
X31073Y79528D01*
X31188Y78952D01*
X31468Y78533D01*
X31473Y78269D01*
X31336Y77635D01*
X30994Y77407D01*
X30668Y76919D01*
X30553Y76343D01*
X30668Y75767D01*
X30994Y75278D01*
X31483Y74952D01*
X32059Y74837D01*
X32635Y74952D01*
X33123Y75278D01*
X33449Y75767D01*
X33564Y76343D01*
X33449Y76919D01*
X33170Y77337D01*
X33165Y77601D01*
X33301Y78235D01*
X33643Y78463D01*
X33970Y78952D01*
X34084Y79528D01*
X33970Y80104D01*
X33643Y80592D01*
X33155Y80918D01*
X32579Y81033D01*
D02*
G37*
G36*
X21752Y75029D02*
X21176Y74914D01*
X20688Y74588D01*
X20361Y74100D01*
X20247Y73524D01*
X20361Y72948D01*
X20688Y72459D01*
X21176Y72133D01*
X21752Y72018D01*
X22328Y72133D01*
X22816Y72459D01*
X23143Y72948D01*
X23257Y73524D01*
X23143Y74100D01*
X22816Y74588D01*
X22328Y74914D01*
X21752Y75029D01*
D02*
G37*
G36*
X116634Y75127D02*
X116058Y75013D01*
X115569Y74686D01*
X115243Y74198D01*
X115129Y73622D01*
X115243Y73046D01*
X115517Y72441D01*
X115243Y71836D01*
X115129Y71260D01*
X115243Y70684D01*
X115569Y70195D01*
X116058Y69869D01*
X116634Y69754D01*
X117210Y69869D01*
X117698Y70195D01*
X118025Y70684D01*
X118139Y71260D01*
X118025Y71836D01*
X117751Y72441D01*
X118025Y73046D01*
X118139Y73622D01*
X118025Y74198D01*
X117698Y74686D01*
X117210Y75013D01*
X116634Y75127D01*
D02*
G37*
G36*
X47835Y71683D02*
X47259Y71568D01*
X46770Y71242D01*
X46444Y70753D01*
X46329Y70177D01*
X46444Y69601D01*
X46770Y69113D01*
X47259Y68787D01*
X47835Y68672D01*
X48411Y68787D01*
X48899Y69113D01*
X49225Y69601D01*
X49340Y70177D01*
X49225Y70753D01*
X48899Y71242D01*
X48411Y71568D01*
X47835Y71683D01*
D02*
G37*
G36*
X24213Y69911D02*
X23637Y69796D01*
X23148Y69470D01*
X22822Y68982D01*
X22707Y68405D01*
X22822Y67830D01*
X23148Y67341D01*
X23637Y67015D01*
X24213Y66900D01*
X24789Y67015D01*
X25277Y67341D01*
X25603Y67830D01*
X25718Y68405D01*
X25603Y68982D01*
X25277Y69470D01*
X24789Y69796D01*
X24213Y69911D01*
D02*
G37*
G36*
X108268Y68198D02*
X107692Y68084D01*
X107203Y67757D01*
X106877Y67269D01*
X106762Y66693D01*
X106877Y66117D01*
X107203Y65628D01*
X107692Y65302D01*
X108268Y65188D01*
X108844Y65302D01*
X109332Y65628D01*
X109658Y66117D01*
X109773Y66693D01*
X109658Y67269D01*
X109332Y67757D01*
X108844Y68084D01*
X108268Y68198D01*
D02*
G37*
G36*
X92720Y114035D02*
X67329D01*
X67193Y114008D01*
X67055D01*
X66294Y113856D01*
X66166Y113803D01*
X66031Y113776D01*
X65314Y113480D01*
X65199Y113403D01*
X65071Y113350D01*
X64426Y112919D01*
X64328Y112821D01*
X64213Y112744D01*
X63665Y112196D01*
X63588Y112081D01*
X63490Y111983D01*
X63059Y111338D01*
X63007Y111210D01*
X62930Y111095D01*
X62633Y110379D01*
X62606Y110243D01*
X62553Y110115D01*
X62402Y109354D01*
Y109216D01*
X62375Y109080D01*
Y108693D01*
Y71654D01*
Y70953D01*
X62399Y70830D01*
X62397Y70705D01*
X62644Y69324D01*
X62690Y69208D01*
X62710Y69084D01*
X63198Y67769D01*
X63263Y67663D01*
X63305Y67544D01*
X64017Y66336D01*
X64101Y66243D01*
X64162Y66134D01*
X64511Y65729D01*
X64333Y64839D01*
X64278Y64792D01*
X63779Y64891D01*
X63204Y64776D01*
X62715Y64450D01*
X62389Y63962D01*
X62274Y63386D01*
X62389Y62810D01*
X62715Y62321D01*
X63204Y61995D01*
X63779Y61880D01*
X64356Y61995D01*
X64844Y62321D01*
X65170Y62810D01*
X65285Y63386D01*
X65173Y63950D01*
X65196Y63984D01*
X65774Y64475D01*
X66343Y64012D01*
X66454Y63954D01*
X66550Y63873D01*
X67777Y63194D01*
X67897Y63156D01*
X68005Y63094D01*
X69333Y62643D01*
X69457Y62626D01*
X69575Y62584D01*
X70241Y62483D01*
X70438Y62445D01*
X70847Y62315D01*
X71205Y62134D01*
X71553Y61882D01*
X71701Y61746D01*
X71934Y61512D01*
X71725Y60689D01*
X71679Y60654D01*
X71161Y60757D01*
X70585Y60643D01*
X70097Y60316D01*
X69771Y59828D01*
X69656Y59252D01*
X69771Y58676D01*
X70097Y58188D01*
X70585Y57861D01*
X71161Y57747D01*
X71737Y57861D01*
X72226Y58188D01*
X72552Y58676D01*
X72667Y59252D01*
X72564Y59769D01*
X72599Y59816D01*
X73422Y60025D01*
X81175Y52272D01*
X81385Y52034D01*
X81729Y51452D01*
X81905Y50846D01*
X81927Y50170D01*
X81877Y49857D01*
X81684Y48989D01*
X81682Y48893D01*
X81656Y48801D01*
X81499Y46941D01*
X81510Y46846D01*
X81496Y46752D01*
X81592Y44888D01*
X81615Y44795D01*
X81615Y44699D01*
X81961Y42865D01*
X81997Y42777D01*
X82008Y42682D01*
X82599Y40911D01*
X82646Y40828D01*
X82671Y40735D01*
X83495Y39061D01*
X83553Y38985D01*
X83590Y38896D01*
X84632Y37348D01*
X84699Y37280D01*
X84748Y37198D01*
X85989Y35804D01*
X86066Y35746D01*
X86125Y35671D01*
X87542Y34457D01*
X87626Y34410D01*
X87695Y34344D01*
X89263Y33332D01*
X89352Y33297D01*
X89429Y33240D01*
X91120Y32450D01*
X91213Y32427D01*
X91297Y32381D01*
X93079Y31825D01*
X93174Y31815D01*
X93263Y31781D01*
X95104Y31471D01*
X95199Y31474D01*
X95293Y31452D01*
X97158Y31393D01*
X97252Y31408D01*
X97348Y31399D01*
X99204Y31592D01*
X99296Y31620D01*
X99391Y31624D01*
X101205Y32065D01*
X101291Y32106D01*
X101386Y32123D01*
X102207Y32445D01*
X102284Y32469D01*
X102494Y32487D01*
X102649Y32454D01*
X102833Y32354D01*
X102895Y32301D01*
X106015Y29181D01*
X106419Y28778D01*
X106571Y28675D01*
X106710Y28554D01*
X107697Y27984D01*
X107871Y27925D01*
X108036Y27844D01*
X109137Y27549D01*
X109321Y27537D01*
X109501Y27501D01*
X110641D01*
X110821Y27537D01*
X111005Y27549D01*
X112106Y27844D01*
X112271Y27925D01*
X112445Y27984D01*
X113433Y28554D01*
X113571Y28675D01*
X113724Y28778D01*
X114530Y29584D01*
X114632Y29737D01*
X114753Y29875D01*
X115323Y30862D01*
X115383Y31036D01*
X115464Y31201D01*
X115759Y32303D01*
X115771Y32486D01*
X115807Y32666D01*
Y33807D01*
X115771Y33987D01*
X115759Y34170D01*
X115464Y35272D01*
X115383Y35436D01*
X115323Y35610D01*
X114753Y36598D01*
X114632Y36736D01*
X114530Y36889D01*
X114127Y37292D01*
X114127Y37292D01*
X111006Y40413D01*
X110953Y40474D01*
X110853Y40659D01*
X110821Y40814D01*
X110839Y41023D01*
X110863Y41101D01*
X111211Y41988D01*
X111229Y42089D01*
X111271Y42183D01*
X111726Y44139D01*
X111729Y44242D01*
X111758Y44341D01*
X111924Y46343D01*
X111912Y46445D01*
X111926Y46547D01*
X111800Y48551D01*
X111774Y48651D01*
X111773Y48754D01*
X111358Y50719D01*
X111317Y50813D01*
X111301Y50915D01*
X110606Y52799D01*
X110552Y52887D01*
X110521Y52985D01*
X109560Y54748D01*
X109494Y54827D01*
X109450Y54920D01*
X108243Y56525D01*
X108166Y56594D01*
X108109Y56679D01*
X106682Y58093D01*
X106596Y58150D01*
X106527Y58226D01*
X104910Y59417D01*
X104817Y59461D01*
X104737Y59526D01*
X102965Y60471D01*
X102866Y60501D01*
X102778Y60554D01*
X100888Y61232D01*
X100786Y61247D01*
X100691Y61286D01*
X99736Y61479D01*
X99525Y61531D01*
X99094Y61698D01*
X98723Y61921D01*
X98396Y62204D01*
X98121Y62539D01*
X97908Y62916D01*
X97763Y63324D01*
X97684Y63780D01*
X97674Y63997D01*
Y94987D01*
X97685Y95095D01*
X97792Y95354D01*
X97940Y95502D01*
X98199Y95609D01*
X98307Y95619D01*
X106506D01*
X106897Y95619D01*
X107140Y95668D01*
X107435Y95726D01*
X108158Y96026D01*
X108614Y96331D01*
X109168Y96884D01*
X109473Y97340D01*
X109772Y98064D01*
X109879Y98601D01*
Y104109D01*
X109772Y104647D01*
X109473Y105370D01*
X109168Y105826D01*
X108614Y106379D01*
X108158Y106684D01*
X107435Y106984D01*
X106897Y107091D01*
X98307D01*
X98199Y107101D01*
X97940Y107209D01*
X97792Y107357D01*
X97685Y107615D01*
X97674Y107723D01*
Y109080D01*
X97647Y109216D01*
Y109354D01*
X97496Y110115D01*
X97443Y110243D01*
X97416Y110379D01*
X97119Y111095D01*
X97043Y111210D01*
X96990Y111338D01*
X96559Y111983D01*
X96461Y112081D01*
X96384Y112196D01*
X95836Y112744D01*
X95720Y112821D01*
X95623Y112919D01*
X94978Y113350D01*
X94850Y113403D01*
X94735Y113480D01*
X94018Y113776D01*
X93883Y113803D01*
X93755Y113856D01*
X92994Y114008D01*
X92856D01*
X92720Y114035D01*
D02*
G37*
G36*
X15157Y67057D02*
X14581Y66942D01*
X14093Y66616D01*
X13767Y66127D01*
X13652Y65551D01*
X13767Y64975D01*
X14093Y64487D01*
X14581Y64161D01*
X15157Y64046D01*
X15733Y64161D01*
X16222Y64487D01*
X16548Y64975D01*
X16663Y65551D01*
X16548Y66127D01*
X16222Y66616D01*
X15733Y66942D01*
X15157Y67057D01*
D02*
G37*
G36*
X8465D02*
X7888Y66942D01*
X7400Y66616D01*
X7074Y66127D01*
X6959Y65551D01*
X7074Y64975D01*
X7400Y64487D01*
X7888Y64161D01*
X8465Y64046D01*
X9041Y64161D01*
X9529Y64487D01*
X9855Y64975D01*
X9970Y65551D01*
X9855Y66127D01*
X9529Y66616D01*
X9041Y66942D01*
X8465Y67057D01*
D02*
G37*
G36*
X40453Y64497D02*
X39877Y64383D01*
X39388Y64056D01*
X39062Y63568D01*
X38947Y62992D01*
X39062Y62416D01*
X39388Y61928D01*
X39877Y61601D01*
X40453Y61487D01*
X41029Y61601D01*
X41517Y61928D01*
X41844Y62416D01*
X41958Y62992D01*
X41844Y63568D01*
X41517Y64056D01*
X41029Y64383D01*
X40453Y64497D01*
D02*
G37*
G36*
X27657Y64202D02*
X27081Y64088D01*
X26593Y63761D01*
X26267Y63273D01*
X26152Y62697D01*
X26267Y62121D01*
X26593Y61632D01*
X27081Y61306D01*
X27657Y61192D01*
X28234Y61306D01*
X28722Y61632D01*
X29048Y62121D01*
X29163Y62697D01*
X29048Y63273D01*
X28722Y63761D01*
X28234Y64088D01*
X27657Y64202D01*
D02*
G37*
G36*
X34646Y63513D02*
X34070Y63399D01*
X33581Y63072D01*
X33255Y62584D01*
X33140Y62008D01*
X33255Y61432D01*
X33581Y60944D01*
X34070Y60617D01*
X34646Y60503D01*
X35222Y60617D01*
X35710Y60944D01*
X36036Y61432D01*
X36151Y62008D01*
X36036Y62584D01*
X35710Y63072D01*
X35222Y63399D01*
X34646Y63513D01*
D02*
G37*
G36*
X39272Y59675D02*
X38696Y59560D01*
X38207Y59234D01*
X37881Y58745D01*
X37766Y58169D01*
X37881Y57593D01*
X38207Y57105D01*
X38696Y56779D01*
X39272Y56664D01*
X39848Y56779D01*
X40336Y57105D01*
X40662Y57593D01*
X40777Y58169D01*
X40662Y58745D01*
X40336Y59234D01*
X39848Y59560D01*
X39272Y59675D01*
D02*
G37*
G36*
X135335Y59576D02*
X134759Y59462D01*
X134270Y59135D01*
X133944Y58647D01*
X133829Y58071D01*
X133944Y57495D01*
X134270Y57007D01*
X134759Y56680D01*
X135335Y56566D01*
X135911Y56680D01*
X136399Y57007D01*
X136725Y57495D01*
X136840Y58071D01*
X136725Y58647D01*
X136399Y59135D01*
X135911Y59462D01*
X135335Y59576D01*
D02*
G37*
G36*
X126181Y58986D02*
X125605Y58871D01*
X125117Y58545D01*
X124790Y58056D01*
X124712Y57660D01*
X124676Y57480D01*
X124213Y57017D01*
X124033Y56981D01*
X123637Y56902D01*
X123148Y56576D01*
X122822Y56088D01*
X122707Y55512D01*
X122822Y54936D01*
X123148Y54447D01*
X123637Y54121D01*
X124213Y54006D01*
X124789Y54121D01*
X125277Y54447D01*
X125603Y54936D01*
X125682Y55332D01*
X125718Y55512D01*
X126181Y55975D01*
X126360Y56011D01*
X126757Y56090D01*
X127245Y56416D01*
X127572Y56904D01*
X127686Y57480D01*
X127572Y58056D01*
X127245Y58545D01*
X126757Y58871D01*
X126181Y58986D01*
D02*
G37*
G36*
X75197Y55954D02*
X74621Y55840D01*
X74132Y55513D01*
X73806Y55025D01*
X73692Y54449D01*
X73806Y53873D01*
X74132Y53384D01*
X74621Y53058D01*
X75197Y52943D01*
X75773Y53058D01*
X76261Y53384D01*
X76588Y53873D01*
X76702Y54449D01*
X76588Y55025D01*
X76261Y55513D01*
X75773Y55840D01*
X75197Y55954D01*
D02*
G37*
G36*
X8422Y55474D02*
X7846Y55359D01*
X7357Y55033D01*
X7031Y54545D01*
X6916Y53969D01*
X7031Y53392D01*
X7357Y52904D01*
X7846Y52578D01*
X8422Y52463D01*
X8998Y52578D01*
X9486Y52904D01*
X9812Y53392D01*
X9927Y53969D01*
X9812Y54545D01*
X9486Y55033D01*
X8998Y55359D01*
X8422Y55474D01*
D02*
G37*
G36*
X15157Y55245D02*
X14581Y55131D01*
X14093Y54804D01*
X13767Y54316D01*
X13652Y53740D01*
X13767Y53164D01*
X14093Y52676D01*
X14581Y52349D01*
X15157Y52235D01*
X15733Y52349D01*
X16222Y52676D01*
X16548Y53164D01*
X16663Y53740D01*
X16548Y54316D01*
X16222Y54804D01*
X15733Y55131D01*
X15157Y55245D01*
D02*
G37*
G36*
X137106Y55643D02*
X136453Y55513D01*
X135900Y55143D01*
X135530Y54590D01*
X135400Y53937D01*
X135530Y53284D01*
X135900Y52731D01*
X136453Y52361D01*
X137106Y52231D01*
X137759Y52361D01*
X138313Y52731D01*
X138682Y53284D01*
X138812Y53937D01*
X138682Y54590D01*
X138313Y55143D01*
X137759Y55513D01*
X137106Y55643D01*
D02*
G37*
G36*
X43012Y47765D02*
X42436Y47651D01*
X41947Y47324D01*
X41621Y46836D01*
X41506Y46260D01*
X41621Y45684D01*
X41947Y45195D01*
X42436Y44869D01*
X43012Y44755D01*
X43588Y44869D01*
X44076Y45195D01*
X44403Y45684D01*
X44517Y46260D01*
X44403Y46836D01*
X44076Y47324D01*
X43588Y47651D01*
X43012Y47765D01*
D02*
G37*
G36*
X23031Y50915D02*
X22455Y50800D01*
X21967Y50474D01*
X21641Y49986D01*
X21526Y49409D01*
X21641Y48833D01*
X21967Y48345D01*
X22455Y48019D01*
X22470Y48016D01*
X22604Y47774D01*
X22742Y47159D01*
X22527Y46836D01*
X22412Y46260D01*
X22527Y45684D01*
X22853Y45195D01*
X23341Y44869D01*
X23917Y44755D01*
X24493Y44869D01*
X24982Y45195D01*
X25308Y45684D01*
X25423Y46260D01*
X25308Y46836D01*
X24982Y47324D01*
X24493Y47651D01*
X24478Y47654D01*
X24345Y47895D01*
X24206Y48511D01*
X24422Y48833D01*
X24537Y49409D01*
X24422Y49986D01*
X24096Y50474D01*
X23608Y50800D01*
X23031Y50915D01*
D02*
G37*
G36*
X60335Y46190D02*
X59759Y46076D01*
X59270Y45749D01*
X58944Y45261D01*
X58829Y44685D01*
X58944Y44109D01*
X59270Y43621D01*
X59759Y43294D01*
X60335Y43180D01*
X60911Y43294D01*
X61399Y43621D01*
X61725Y44109D01*
X61840Y44685D01*
X61725Y45261D01*
X61399Y45749D01*
X60911Y46076D01*
X60335Y46190D01*
D02*
G37*
G36*
X47343Y46092D02*
X46766Y45977D01*
X46278Y45651D01*
X45952Y45163D01*
X45837Y44587D01*
X45952Y44011D01*
X46278Y43522D01*
X46766Y43196D01*
X47343Y43081D01*
X47919Y43196D01*
X48407Y43522D01*
X48733Y44011D01*
X48848Y44587D01*
X48733Y45163D01*
X48407Y45651D01*
X47919Y45977D01*
X47343Y46092D01*
D02*
G37*
G36*
X55807Y43730D02*
X55231Y43615D01*
X54743Y43289D01*
X54416Y42801D01*
X54302Y42224D01*
X54416Y41648D01*
X54743Y41160D01*
X55231Y40834D01*
X55807Y40719D01*
X56383Y40834D01*
X56871Y41160D01*
X57198Y41648D01*
X57312Y42224D01*
X57198Y42801D01*
X56871Y43289D01*
X56383Y43615D01*
X55807Y43730D01*
D02*
G37*
G36*
X38681Y42057D02*
X38105Y41942D01*
X37617Y41616D01*
X37290Y41127D01*
X37176Y40551D01*
X37290Y39975D01*
X37617Y39487D01*
X38105Y39160D01*
X38681Y39046D01*
X39257Y39160D01*
X39746Y39487D01*
X40072Y39975D01*
X40186Y40551D01*
X40072Y41127D01*
X39746Y41616D01*
X39257Y41942D01*
X38681Y42057D01*
D02*
G37*
G36*
X34252Y40777D02*
X33676Y40662D01*
X33188Y40336D01*
X32861Y39848D01*
X32747Y39272D01*
X32861Y38696D01*
X33188Y38207D01*
X33676Y37881D01*
X34252Y37766D01*
X34828Y37881D01*
X35316Y38207D01*
X35643Y38696D01*
X35757Y39272D01*
X35643Y39848D01*
X35316Y40336D01*
X34828Y40662D01*
X34252Y40777D01*
D02*
G37*
G36*
X137106Y47769D02*
X136453Y47639D01*
X135900Y47269D01*
X135530Y46716D01*
X135400Y46063D01*
X135530Y45410D01*
X135900Y44857D01*
X136433Y44501D01*
X136453Y44375D01*
Y43814D01*
X136433Y43688D01*
X135900Y43332D01*
X135530Y42779D01*
X135400Y42126D01*
X135530Y41473D01*
X135900Y40920D01*
X136433Y40564D01*
X136453Y40438D01*
Y39877D01*
X136433Y39751D01*
X135900Y39395D01*
X135530Y38842D01*
X135400Y38189D01*
X135530Y37536D01*
X135900Y36983D01*
X136453Y36613D01*
X137106Y36483D01*
X137759Y36613D01*
X138313Y36983D01*
X138682Y37536D01*
X138812Y38189D01*
X138682Y38842D01*
X138313Y39395D01*
X137780Y39751D01*
X137759Y39877D01*
Y40438D01*
X137780Y40564D01*
X138313Y40920D01*
X138682Y41473D01*
X138812Y42126D01*
X138682Y42779D01*
X138313Y43332D01*
X137780Y43688D01*
X137759Y43814D01*
Y44375D01*
X137780Y44501D01*
X138313Y44857D01*
X138682Y45410D01*
X138812Y46063D01*
X138682Y46716D01*
X138313Y47269D01*
X137759Y47639D01*
X137106Y47769D01*
D02*
G37*
G36*
X71078Y35115D02*
X59661D01*
Y30784D01*
X71078D01*
Y35115D01*
D02*
G37*
G36*
X23425Y29261D02*
X22849Y29147D01*
X22361Y28820D01*
X22035Y28332D01*
X21920Y27756D01*
X22035Y27180D01*
X22361Y26691D01*
X22849Y26365D01*
X23425Y26251D01*
X24001Y26365D01*
X24490Y26691D01*
X24816Y27180D01*
X24930Y27756D01*
X24816Y28332D01*
X24490Y28820D01*
X24001Y29147D01*
X23425Y29261D01*
D02*
G37*
G36*
X18898D02*
X18322Y29147D01*
X17833Y28820D01*
X17507Y28332D01*
X17392Y27756D01*
X17507Y27180D01*
X17833Y26691D01*
X18322Y26365D01*
X18898Y26251D01*
X19474Y26365D01*
X19962Y26691D01*
X20288Y27180D01*
X20403Y27756D01*
X20288Y28332D01*
X19962Y28820D01*
X19474Y29147D01*
X18898Y29261D01*
D02*
G37*
G36*
X14764D02*
X14188Y29147D01*
X13699Y28820D01*
X13373Y28332D01*
X13259Y27756D01*
X13373Y27180D01*
X13699Y26691D01*
X14188Y26365D01*
X14764Y26251D01*
X15340Y26365D01*
X15828Y26691D01*
X16154Y27180D01*
X16269Y27756D01*
X16154Y28332D01*
X15828Y28820D01*
X15340Y29147D01*
X14764Y29261D01*
D02*
G37*
G36*
X10630D02*
X10054Y29147D01*
X9566Y28820D01*
X9239Y28332D01*
X9125Y27756D01*
X9239Y27180D01*
X9566Y26691D01*
X10054Y26365D01*
X10630Y26251D01*
X11206Y26365D01*
X11694Y26691D01*
X12021Y27180D01*
X12135Y27756D01*
X12021Y28332D01*
X11694Y28820D01*
X11206Y29147D01*
X10630Y29261D01*
D02*
G37*
G36*
X6496D02*
X5920Y29147D01*
X5432Y28820D01*
X5105Y28332D01*
X4991Y27756D01*
X5105Y27180D01*
X5432Y26691D01*
X5920Y26365D01*
X6496Y26251D01*
X7072Y26365D01*
X7560Y26691D01*
X7887Y27180D01*
X8001Y27756D01*
X7887Y28332D01*
X7560Y28820D01*
X7072Y29147D01*
X6496Y29261D01*
D02*
G37*
G36*
X23524Y17844D02*
X22948Y17729D01*
X22459Y17403D01*
X22133Y16915D01*
X22018Y16339D01*
X22133Y15763D01*
X22459Y15274D01*
X22948Y14948D01*
X23524Y14833D01*
X24100Y14948D01*
X24588Y15274D01*
X24914Y15763D01*
X25029Y16339D01*
X24914Y16915D01*
X24588Y17403D01*
X24100Y17729D01*
X23524Y17844D01*
D02*
G37*
G36*
X99606Y12434D02*
X98953Y12304D01*
X98400Y11935D01*
X98030Y11381D01*
X97900Y10728D01*
X98030Y10075D01*
X98400Y9522D01*
X98953Y9152D01*
X99606Y9022D01*
X100259Y9152D01*
X100813Y9522D01*
X101182Y10075D01*
X101312Y10728D01*
X101182Y11381D01*
X100813Y11935D01*
X100259Y12304D01*
X99606Y12434D01*
D02*
G37*
G36*
X88583D02*
X87930Y12304D01*
X87376Y11935D01*
X87006Y11381D01*
X86877Y10728D01*
X87006Y10075D01*
X87376Y9522D01*
X87930Y9152D01*
X88583Y9022D01*
X89236Y9152D01*
X89789Y9522D01*
X90159Y10075D01*
X90289Y10728D01*
X90159Y11381D01*
X89789Y11935D01*
X89236Y12304D01*
X88583Y12434D01*
D02*
G37*
G36*
X83071D02*
X82418Y12304D01*
X81865Y11935D01*
X81495Y11381D01*
X81365Y10728D01*
X81495Y10075D01*
X81865Y9522D01*
X82418Y9152D01*
X83071Y9022D01*
X83724Y9152D01*
X84277Y9522D01*
X84647Y10075D01*
X84777Y10728D01*
X84647Y11381D01*
X84277Y11935D01*
X83724Y12304D01*
X83071Y12434D01*
D02*
G37*
G36*
X77559D02*
X76906Y12304D01*
X76353Y11935D01*
X75983Y11381D01*
X75853Y10728D01*
X75983Y10075D01*
X76353Y9522D01*
X76906Y9152D01*
X77559Y9022D01*
X78212Y9152D01*
X78765Y9522D01*
X79135Y10075D01*
X79265Y10728D01*
X79135Y11381D01*
X78765Y11935D01*
X78212Y12304D01*
X77559Y12434D01*
D02*
G37*
G36*
X64173D02*
X63520Y12304D01*
X62967Y11935D01*
X62597Y11381D01*
X62467Y10728D01*
X62597Y10075D01*
X62967Y9522D01*
X63520Y9152D01*
X64173Y9022D01*
X64826Y9152D01*
X65380Y9522D01*
X65749Y10075D01*
X65879Y10728D01*
X65749Y11381D01*
X65380Y11935D01*
X64826Y12304D01*
X64173Y12434D01*
D02*
G37*
G36*
X42126D02*
X41473Y12304D01*
X40920Y11935D01*
X40550Y11381D01*
X40420Y10728D01*
X40550Y10075D01*
X40920Y9522D01*
X41473Y9152D01*
X42126Y9022D01*
X42779Y9152D01*
X43332Y9522D01*
X43702Y10075D01*
X43832Y10728D01*
X43702Y11381D01*
X43332Y11935D01*
X42779Y12304D01*
X42126Y12434D01*
D02*
G37*
G36*
X102362Y7907D02*
X101709Y7777D01*
X101156Y7407D01*
X100786Y6854D01*
X100656Y6201D01*
X100786Y5548D01*
X101156Y4995D01*
X101709Y4625D01*
X102362Y4495D01*
X103015Y4625D01*
X103568Y4995D01*
X103938Y5548D01*
X104068Y6201D01*
X103938Y6854D01*
X103568Y7407D01*
X103015Y7777D01*
X102362Y7907D01*
D02*
G37*
G36*
X85827D02*
X85174Y7777D01*
X84620Y7407D01*
X84251Y6854D01*
X84121Y6201D01*
X84251Y5548D01*
X84620Y4995D01*
X85174Y4625D01*
X85827Y4495D01*
X86480Y4625D01*
X87033Y4995D01*
X87403Y5548D01*
X87533Y6201D01*
X87403Y6854D01*
X87033Y7407D01*
X86480Y7777D01*
X85827Y7907D01*
D02*
G37*
G36*
X80315D02*
X79662Y7777D01*
X79109Y7407D01*
X78739Y6854D01*
X78609Y6201D01*
X78739Y5548D01*
X79109Y4995D01*
X79662Y4625D01*
X80315Y4495D01*
X80968Y4625D01*
X81521Y4995D01*
X81891Y5548D01*
X82021Y6201D01*
X81891Y6854D01*
X81521Y7407D01*
X80968Y7777D01*
X80315Y7907D01*
D02*
G37*
G36*
X74803D02*
X74150Y7777D01*
X73597Y7407D01*
X73227Y6854D01*
X73097Y6201D01*
X73227Y5548D01*
X73597Y4995D01*
X74150Y4625D01*
X74803Y4495D01*
X75456Y4625D01*
X76010Y4995D01*
X76379Y5548D01*
X76509Y6201D01*
X76379Y6854D01*
X76010Y7407D01*
X75456Y7777D01*
X74803Y7907D01*
D02*
G37*
G36*
X66929D02*
X66276Y7777D01*
X65723Y7407D01*
X65353Y6854D01*
X65223Y6201D01*
X65353Y5548D01*
X65723Y4995D01*
X66276Y4625D01*
X66929Y4495D01*
X67582Y4625D01*
X68135Y4995D01*
X68505Y5548D01*
X68635Y6201D01*
X68505Y6854D01*
X68135Y7407D01*
X67582Y7777D01*
X66929Y7907D01*
D02*
G37*
G36*
X44882D02*
X44229Y7777D01*
X43676Y7407D01*
X43306Y6854D01*
X43176Y6201D01*
X43306Y5548D01*
X43676Y4995D01*
X44229Y4625D01*
X44882Y4495D01*
X45535Y4625D01*
X46088Y4995D01*
X46458Y5548D01*
X46588Y6201D01*
X46458Y6854D01*
X46088Y7407D01*
X45535Y7777D01*
X44882Y7907D01*
D02*
G37*
G36*
X39370D02*
X38717Y7777D01*
X38164Y7407D01*
X37794Y6854D01*
X37664Y6201D01*
X37794Y5548D01*
X38164Y4995D01*
X38717Y4625D01*
X39370Y4495D01*
X40023Y4625D01*
X40576Y4995D01*
X40946Y5548D01*
X41076Y6201D01*
X40946Y6854D01*
X40576Y7407D01*
X40023Y7777D01*
X39370Y7907D01*
D02*
G37*
G36*
X34252Y5344D02*
X33676Y5229D01*
X33188Y4903D01*
X32861Y4415D01*
X32747Y3839D01*
X32861Y3263D01*
X33188Y2774D01*
X33676Y2448D01*
X34252Y2333D01*
X34828Y2448D01*
X35316Y2774D01*
X35643Y3263D01*
X35757Y3839D01*
X35643Y4415D01*
X35316Y4903D01*
X34828Y5229D01*
X34252Y5344D01*
D02*
G37*
%LPD*%
G36*
X64971Y33553D02*
X65033Y33542D01*
X65088Y33531D01*
X65137Y33515D01*
X65175Y33501D01*
X65192Y33493D01*
X65205Y33488D01*
X65216Y33482D01*
X65224Y33477D01*
X65227Y33474D01*
X65230D01*
X65282Y33441D01*
X65325Y33406D01*
X65364Y33370D01*
X65396Y33335D01*
X65424Y33305D01*
X65443Y33280D01*
X65454Y33264D01*
X65459Y33261D01*
Y33515D01*
X65735D01*
Y31688D01*
X65426D01*
Y32636D01*
Y32682D01*
X65424Y32723D01*
X65421Y32764D01*
X65418Y32800D01*
X65416Y32835D01*
X65410Y32865D01*
X65407Y32892D01*
X65402Y32920D01*
X65396Y32942D01*
X65394Y32961D01*
X65388Y32977D01*
X65386Y32991D01*
X65383Y33002D01*
X65380Y33010D01*
X65377Y33013D01*
Y33015D01*
X65356Y33062D01*
X65331Y33103D01*
X65304Y33138D01*
X65276Y33165D01*
X65254Y33190D01*
X65235Y33204D01*
X65222Y33215D01*
X65216Y33217D01*
X65173Y33242D01*
X65132Y33258D01*
X65091Y33272D01*
X65052Y33280D01*
X65020Y33286D01*
X64995Y33288D01*
X64973D01*
X64913Y33283D01*
X64861Y33272D01*
X64820Y33255D01*
X64785Y33236D01*
X64760Y33217D01*
X64741Y33201D01*
X64730Y33190D01*
X64728Y33184D01*
X64703Y33141D01*
X64684Y33092D01*
X64670Y33040D01*
X64659Y32991D01*
X64654Y32944D01*
Y32925D01*
X64651Y32909D01*
Y32892D01*
Y32882D01*
Y32876D01*
Y32873D01*
Y31688D01*
X64343D01*
Y32748D01*
X64340Y32800D01*
X64337Y32846D01*
X64332Y32892D01*
X64324Y32933D01*
X64313Y32969D01*
X64302Y33004D01*
X64291Y33034D01*
X64277Y33062D01*
X64266Y33084D01*
X64255Y33105D01*
X64244Y33122D01*
X64233Y33135D01*
X64225Y33146D01*
X64220Y33154D01*
X64214Y33157D01*
Y33160D01*
X64190Y33182D01*
X64162Y33204D01*
X64111Y33234D01*
X64056Y33258D01*
X64004Y33272D01*
X63960Y33283D01*
X63941Y33286D01*
X63925D01*
X63911Y33288D01*
X63892D01*
X63854Y33286D01*
X63819Y33280D01*
X63786Y33272D01*
X63758Y33264D01*
X63737Y33253D01*
X63720Y33245D01*
X63709Y33239D01*
X63707Y33236D01*
X63679Y33217D01*
X63655Y33195D01*
X63638Y33174D01*
X63622Y33152D01*
X63611Y33133D01*
X63603Y33119D01*
X63597Y33108D01*
Y33105D01*
X63586Y33070D01*
X63581Y33029D01*
X63576Y32985D01*
X63570Y32942D01*
Y32901D01*
X63567Y32868D01*
Y32857D01*
Y32846D01*
Y32841D01*
Y32838D01*
Y31688D01*
X63259D01*
Y32942D01*
X63262Y32999D01*
X63264Y33051D01*
X63273Y33100D01*
X63281Y33146D01*
X63292Y33187D01*
X63305Y33226D01*
X63319Y33258D01*
X63333Y33288D01*
X63346Y33316D01*
X63360Y33340D01*
X63371Y33359D01*
X63384Y33376D01*
X63393Y33387D01*
X63401Y33395D01*
X63404Y33400D01*
X63406Y33403D01*
X63434Y33430D01*
X63466Y33455D01*
X63499Y33474D01*
X63532Y33490D01*
X63603Y33518D01*
X63668Y33537D01*
X63701Y33542D01*
X63731Y33548D01*
X63756Y33550D01*
X63780Y33553D01*
X63797Y33556D01*
X63824D01*
X63887Y33553D01*
X63947Y33542D01*
X64004Y33526D01*
X64059Y33507D01*
X64108Y33482D01*
X64154Y33455D01*
X64198Y33425D01*
X64236Y33397D01*
X64272Y33367D01*
X64302Y33337D01*
X64329Y33310D01*
X64348Y33286D01*
X64367Y33266D01*
X64378Y33250D01*
X64386Y33239D01*
X64389Y33236D01*
X64414Y33291D01*
X64441Y33337D01*
X64471Y33376D01*
X64501Y33411D01*
X64531Y33436D01*
X64553Y33455D01*
X64569Y33468D01*
X64572Y33471D01*
X64575D01*
X64627Y33498D01*
X64681Y33520D01*
X64736Y33534D01*
X64788Y33545D01*
X64834Y33550D01*
X64853Y33553D01*
X64872Y33556D01*
X64905D01*
X64971Y33553D01*
D02*
G37*
G36*
X67002D02*
X67081Y33545D01*
X67152Y33534D01*
X67185Y33529D01*
X67212Y33523D01*
X67239Y33518D01*
X67264Y33512D01*
X67283Y33507D01*
X67299Y33501D01*
X67313Y33496D01*
X67324Y33493D01*
X67329Y33490D01*
X67332D01*
X67395Y33463D01*
X67449Y33433D01*
X67496Y33403D01*
X67534Y33373D01*
X67564Y33346D01*
X67586Y33324D01*
X67600Y33310D01*
X67605Y33307D01*
Y33305D01*
X67638Y33258D01*
X67665Y33206D01*
X67687Y33154D01*
X67706Y33105D01*
X67720Y33062D01*
X67725Y33043D01*
X67731Y33026D01*
X67733Y33013D01*
X67736Y33002D01*
X67739Y32996D01*
Y32993D01*
X67436Y32952D01*
X67425Y32988D01*
X67414Y33021D01*
X67392Y33075D01*
X67365Y33125D01*
X67340Y33160D01*
X67318Y33187D01*
X67299Y33209D01*
X67288Y33220D01*
X67283Y33223D01*
X67239Y33247D01*
X67187Y33266D01*
X67136Y33280D01*
X67084Y33291D01*
X67035Y33296D01*
X67015D01*
X66996Y33299D01*
X66961D01*
X66879Y33294D01*
X66808Y33283D01*
X66748Y33266D01*
X66699Y33247D01*
X66660Y33226D01*
X66647Y33217D01*
X66633Y33209D01*
X66622Y33204D01*
X66617Y33198D01*
X66611Y33193D01*
X66581Y33160D01*
X66559Y33119D01*
X66543Y33075D01*
X66532Y33032D01*
X66527Y32991D01*
X66521Y32958D01*
Y32947D01*
Y32936D01*
Y32931D01*
Y32928D01*
Y32920D01*
Y32909D01*
Y32882D01*
X66524Y32871D01*
Y32860D01*
Y32851D01*
Y32849D01*
X66559Y32838D01*
X66598Y32827D01*
X66641Y32816D01*
X66685Y32805D01*
X66775Y32786D01*
X66865Y32770D01*
X66909Y32764D01*
X66947Y32759D01*
X66983Y32753D01*
X67015Y32748D01*
X67040Y32745D01*
X67059Y32742D01*
X67070Y32740D01*
X67076D01*
X67141Y32731D01*
X67196Y32723D01*
X67245Y32715D01*
X67283Y32710D01*
X67313Y32701D01*
X67335Y32699D01*
X67346Y32693D01*
X67351D01*
X67395Y32680D01*
X67439Y32663D01*
X67477Y32647D01*
X67510Y32630D01*
X67537Y32617D01*
X67556Y32603D01*
X67570Y32595D01*
X67575Y32592D01*
X67611Y32565D01*
X67641Y32537D01*
X67668Y32508D01*
X67690Y32480D01*
X67709Y32453D01*
X67722Y32434D01*
X67731Y32420D01*
X67733Y32415D01*
X67752Y32371D01*
X67769Y32330D01*
X67780Y32289D01*
X67785Y32251D01*
X67791Y32218D01*
X67793Y32191D01*
Y32174D01*
Y32172D01*
Y32169D01*
X67791Y32128D01*
X67785Y32087D01*
X67780Y32049D01*
X67769Y32013D01*
X67742Y31948D01*
X67712Y31896D01*
X67698Y31871D01*
X67684Y31852D01*
X67671Y31833D01*
X67657Y31819D01*
X67646Y31809D01*
X67641Y31800D01*
X67635Y31795D01*
X67632Y31792D01*
X67600Y31768D01*
X67567Y31746D01*
X67529Y31724D01*
X67493Y31708D01*
X67417Y31683D01*
X67340Y31667D01*
X67308Y31659D01*
X67275Y31656D01*
X67245Y31653D01*
X67220Y31650D01*
X67201Y31648D01*
X67171D01*
X67103Y31650D01*
X67040Y31656D01*
X66983Y31667D01*
X66931Y31678D01*
X66890Y31688D01*
X66871Y31694D01*
X66857Y31699D01*
X66846Y31702D01*
X66838Y31705D01*
X66833Y31708D01*
X66830D01*
X66770Y31735D01*
X66710Y31765D01*
X66655Y31800D01*
X66603Y31836D01*
X66559Y31866D01*
X66543Y31882D01*
X66527Y31893D01*
X66513Y31904D01*
X66505Y31912D01*
X66499Y31915D01*
X66497Y31918D01*
X66491Y31869D01*
X66483Y31825D01*
X66472Y31787D01*
X66461Y31754D01*
X66453Y31727D01*
X66445Y31705D01*
X66439Y31694D01*
X66437Y31688D01*
X66114D01*
X66134Y31727D01*
X66150Y31768D01*
X66164Y31803D01*
X66175Y31836D01*
X66183Y31866D01*
X66188Y31888D01*
X66191Y31901D01*
Y31907D01*
X66194Y31931D01*
X66196Y31964D01*
X66199Y32000D01*
X66202Y32041D01*
X66205Y32084D01*
Y32131D01*
X66207Y32224D01*
Y32267D01*
X66210Y32311D01*
Y32349D01*
Y32385D01*
Y32412D01*
Y32434D01*
Y32447D01*
Y32453D01*
Y32865D01*
Y32903D01*
Y32936D01*
X66213Y32966D01*
Y32996D01*
X66215Y33045D01*
X66218Y33084D01*
X66221Y33114D01*
X66224Y33133D01*
X66226Y33146D01*
Y33149D01*
X66237Y33195D01*
X66254Y33236D01*
X66270Y33272D01*
X66286Y33302D01*
X66300Y33327D01*
X66314Y33346D01*
X66322Y33356D01*
X66325Y33359D01*
X66355Y33389D01*
X66387Y33417D01*
X66423Y33441D01*
X66458Y33460D01*
X66491Y33477D01*
X66516Y33488D01*
X66527Y33493D01*
X66535Y33496D01*
X66538Y33498D01*
X66540D01*
X66598Y33518D01*
X66660Y33531D01*
X66723Y33542D01*
X66783Y33548D01*
X66835Y33553D01*
X66860D01*
X66879Y33556D01*
X66917D01*
X67002Y33553D01*
D02*
G37*
G36*
X61733Y34249D02*
X61793Y34247D01*
X61905Y34227D01*
X61959Y34216D01*
X62009Y34203D01*
X62058Y34189D01*
X62101Y34176D01*
X62140Y34162D01*
X62175Y34148D01*
X62208Y34135D01*
X62232Y34124D01*
X62254Y34113D01*
X62268Y34105D01*
X62279Y34102D01*
X62282Y34099D01*
X62331Y34069D01*
X62380Y34036D01*
X62423Y34001D01*
X62464Y33965D01*
X62503Y33927D01*
X62538Y33892D01*
X62568Y33853D01*
X62598Y33821D01*
X62623Y33785D01*
X62645Y33755D01*
X62664Y33728D01*
X62680Y33703D01*
X62691Y33681D01*
X62699Y33668D01*
X62705Y33657D01*
X62707Y33654D01*
X62735Y33599D01*
X62757Y33539D01*
X62776Y33482D01*
X62795Y33425D01*
X62822Y33307D01*
X62830Y33253D01*
X62839Y33201D01*
X62844Y33152D01*
X62849Y33108D01*
X62852Y33067D01*
X62855Y33032D01*
X62858Y33004D01*
Y32983D01*
Y32972D01*
Y32966D01*
X62855Y32901D01*
X62852Y32835D01*
X62836Y32710D01*
X62828Y32649D01*
X62817Y32595D01*
X62803Y32543D01*
X62792Y32494D01*
X62778Y32450D01*
X62767Y32409D01*
X62757Y32377D01*
X62746Y32346D01*
X62738Y32325D01*
X62732Y32305D01*
X62729Y32295D01*
X62727Y32292D01*
X62699Y32234D01*
X62672Y32180D01*
X62642Y32131D01*
X62609Y32084D01*
X62576Y32041D01*
X62546Y32002D01*
X62514Y31967D01*
X62484Y31934D01*
X62454Y31904D01*
X62426Y31880D01*
X62402Y31861D01*
X62380Y31841D01*
X62363Y31828D01*
X62350Y31819D01*
X62342Y31814D01*
X62339Y31811D01*
X62290Y31781D01*
X62238Y31757D01*
X62183Y31735D01*
X62126Y31716D01*
X62071Y31702D01*
X62017Y31688D01*
X61962Y31678D01*
X61910Y31669D01*
X61861Y31661D01*
X61818Y31656D01*
X61777Y31653D01*
X61744Y31650D01*
X61714Y31648D01*
X61676D01*
X61602Y31650D01*
X61534Y31656D01*
X61468Y31667D01*
X61405Y31680D01*
X61345Y31697D01*
X61291Y31716D01*
X61241Y31735D01*
X61195Y31754D01*
X61151Y31773D01*
X61116Y31792D01*
X61083Y31811D01*
X61058Y31828D01*
X61037Y31841D01*
X61023Y31852D01*
X61012Y31858D01*
X61009Y31861D01*
X60960Y31904D01*
X60914Y31951D01*
X60873Y32000D01*
X60835Y32049D01*
X60799Y32101D01*
X60769Y32155D01*
X60742Y32204D01*
X60717Y32256D01*
X60695Y32303D01*
X60679Y32346D01*
X60663Y32387D01*
X60652Y32420D01*
X60641Y32450D01*
X60635Y32469D01*
X60630Y32483D01*
Y32488D01*
X60963Y32573D01*
X60977Y32516D01*
X60996Y32461D01*
X61015Y32409D01*
X61034Y32363D01*
X61056Y32319D01*
X61078Y32281D01*
X61099Y32245D01*
X61121Y32213D01*
X61143Y32185D01*
X61162Y32161D01*
X61181Y32139D01*
X61195Y32123D01*
X61209Y32109D01*
X61220Y32101D01*
X61225Y32095D01*
X61228Y32092D01*
X61266Y32065D01*
X61304Y32041D01*
X61342Y32019D01*
X61383Y32000D01*
X61424Y31983D01*
X61463Y31970D01*
X61539Y31951D01*
X61572Y31945D01*
X61604Y31940D01*
X61632Y31937D01*
X61656Y31934D01*
X61676Y31931D01*
X61703D01*
X61747Y31934D01*
X61787Y31937D01*
X61867Y31951D01*
X61940Y31970D01*
X62003Y31991D01*
X62030Y32002D01*
X62055Y32011D01*
X62077Y32022D01*
X62096Y32030D01*
X62112Y32038D01*
X62123Y32043D01*
X62129Y32049D01*
X62131D01*
X62167Y32073D01*
X62200Y32098D01*
X62260Y32155D01*
X62309Y32213D01*
X62350Y32273D01*
X62380Y32325D01*
X62393Y32346D01*
X62404Y32368D01*
X62410Y32385D01*
X62415Y32396D01*
X62421Y32404D01*
Y32406D01*
X62451Y32499D01*
X62475Y32595D01*
X62492Y32690D01*
X62497Y32734D01*
X62503Y32778D01*
X62505Y32819D01*
X62508Y32854D01*
X62511Y32887D01*
Y32914D01*
X62514Y32939D01*
Y32955D01*
Y32966D01*
Y32969D01*
X62511Y33062D01*
X62503Y33149D01*
X62489Y33231D01*
X62484Y33269D01*
X62475Y33305D01*
X62467Y33335D01*
X62462Y33365D01*
X62454Y33389D01*
X62448Y33411D01*
X62445Y33428D01*
X62440Y33441D01*
X62437Y33449D01*
Y33452D01*
X62402Y33537D01*
X62361Y33610D01*
X62317Y33673D01*
X62292Y33700D01*
X62271Y33728D01*
X62249Y33750D01*
X62230Y33769D01*
X62211Y33788D01*
X62197Y33801D01*
X62183Y33812D01*
X62172Y33821D01*
X62167Y33823D01*
X62164Y33826D01*
X62126Y33851D01*
X62088Y33873D01*
X62047Y33892D01*
X62006Y33908D01*
X61924Y33933D01*
X61845Y33952D01*
X61812Y33957D01*
X61779Y33960D01*
X61749Y33963D01*
X61725Y33965D01*
X61703Y33968D01*
X61629D01*
X61585Y33963D01*
X61503Y33949D01*
X61432Y33927D01*
X61402Y33916D01*
X61373Y33905D01*
X61345Y33894D01*
X61323Y33883D01*
X61304Y33873D01*
X61288Y33862D01*
X61274Y33853D01*
X61266Y33848D01*
X61261Y33845D01*
X61258Y33843D01*
X61228Y33818D01*
X61198Y33791D01*
X61149Y33728D01*
X61102Y33660D01*
X61067Y33594D01*
X61039Y33534D01*
X61026Y33509D01*
X61018Y33488D01*
X61009Y33468D01*
X61007Y33452D01*
X61001Y33444D01*
Y33441D01*
X60674Y33518D01*
X60695Y33580D01*
X60720Y33640D01*
X60745Y33698D01*
X60775Y33750D01*
X60802Y33799D01*
X60832Y33843D01*
X60862Y33883D01*
X60892Y33919D01*
X60922Y33952D01*
X60947Y33979D01*
X60971Y34003D01*
X60993Y34023D01*
X61009Y34039D01*
X61023Y34050D01*
X61031Y34055D01*
X61034Y34058D01*
X61083Y34094D01*
X61135Y34121D01*
X61187Y34148D01*
X61241Y34170D01*
X61296Y34189D01*
X61348Y34206D01*
X61400Y34216D01*
X61449Y34227D01*
X61495Y34236D01*
X61536Y34241D01*
X61575Y34247D01*
X61607Y34249D01*
X61635Y34252D01*
X61670D01*
X61733Y34249D01*
D02*
G37*
G36*
X69221D02*
X69309Y34238D01*
X69385Y34225D01*
X69420Y34216D01*
X69453Y34208D01*
X69483Y34200D01*
X69511Y34192D01*
X69535Y34184D01*
X69554Y34178D01*
X69568Y34173D01*
X69582Y34167D01*
X69587Y34165D01*
X69590D01*
X69664Y34129D01*
X69726Y34088D01*
X69781Y34047D01*
X69825Y34006D01*
X69860Y33968D01*
X69887Y33938D01*
X69895Y33927D01*
X69901Y33919D01*
X69907Y33913D01*
Y33911D01*
X69942Y33848D01*
X69969Y33785D01*
X69986Y33728D01*
X69999Y33673D01*
X70007Y33624D01*
X70010Y33605D01*
Y33589D01*
X70013Y33575D01*
Y33564D01*
Y33559D01*
Y33556D01*
X70010Y33493D01*
X69999Y33433D01*
X69986Y33378D01*
X69969Y33332D01*
X69953Y33294D01*
X69939Y33264D01*
X69934Y33253D01*
X69928Y33245D01*
X69926Y33242D01*
Y33239D01*
X69890Y33190D01*
X69846Y33144D01*
X69803Y33105D01*
X69756Y33070D01*
X69718Y33043D01*
X69685Y33024D01*
X69672Y33018D01*
X69664Y33013D01*
X69658Y33007D01*
X69655D01*
X69628Y32993D01*
X69595Y32980D01*
X69560Y32966D01*
X69521Y32952D01*
X69442Y32925D01*
X69361Y32901D01*
X69322Y32890D01*
X69289Y32879D01*
X69257Y32871D01*
X69227Y32862D01*
X69205Y32857D01*
X69186Y32851D01*
X69175Y32849D01*
X69172D01*
X69109Y32835D01*
X69052Y32819D01*
X69003Y32808D01*
X68956Y32794D01*
X68915Y32783D01*
X68877Y32775D01*
X68847Y32764D01*
X68817Y32756D01*
X68795Y32750D01*
X68774Y32742D01*
X68757Y32737D01*
X68746Y32734D01*
X68735Y32731D01*
X68730Y32729D01*
X68724Y32726D01*
X68670Y32701D01*
X68623Y32677D01*
X68582Y32652D01*
X68552Y32630D01*
X68528Y32609D01*
X68511Y32592D01*
X68501Y32581D01*
X68498Y32579D01*
X68473Y32546D01*
X68457Y32510D01*
X68443Y32475D01*
X68435Y32442D01*
X68429Y32415D01*
X68427Y32390D01*
Y32377D01*
Y32374D01*
Y32371D01*
X68429Y32330D01*
X68438Y32289D01*
X68451Y32254D01*
X68462Y32221D01*
X68476Y32193D01*
X68490Y32172D01*
X68498Y32161D01*
X68501Y32155D01*
X68530Y32120D01*
X68563Y32090D01*
X68602Y32063D01*
X68637Y32041D01*
X68670Y32024D01*
X68694Y32011D01*
X68705Y32005D01*
X68713Y32002D01*
X68716Y32000D01*
X68719D01*
X68774Y31981D01*
X68831Y31967D01*
X68888Y31959D01*
X68940Y31953D01*
X68984Y31948D01*
X69003D01*
X69019Y31945D01*
X69052D01*
X69131Y31948D01*
X69202Y31956D01*
X69270Y31970D01*
X69328Y31983D01*
X69352Y31989D01*
X69374Y31994D01*
X69393Y32002D01*
X69410Y32008D01*
X69423Y32013D01*
X69431Y32016D01*
X69437Y32019D01*
X69440D01*
X69500Y32049D01*
X69552Y32082D01*
X69595Y32112D01*
X69631Y32144D01*
X69658Y32172D01*
X69677Y32193D01*
X69691Y32207D01*
X69693Y32213D01*
X69721Y32262D01*
X69743Y32314D01*
X69759Y32366D01*
X69773Y32415D01*
X69784Y32461D01*
X69786Y32478D01*
X69789Y32494D01*
X69792Y32508D01*
X69794Y32518D01*
Y32524D01*
Y32527D01*
X70108Y32499D01*
X70106Y32453D01*
X70100Y32406D01*
X70084Y32322D01*
X70062Y32243D01*
X70051Y32207D01*
X70038Y32177D01*
X70027Y32147D01*
X70013Y32120D01*
X70002Y32098D01*
X69991Y32079D01*
X69983Y32063D01*
X69977Y32052D01*
X69975Y32046D01*
X69972Y32043D01*
X69920Y31972D01*
X69860Y31912D01*
X69800Y31861D01*
X69743Y31819D01*
X69691Y31787D01*
X69669Y31776D01*
X69650Y31765D01*
X69634Y31757D01*
X69622Y31751D01*
X69614Y31746D01*
X69612D01*
X69519Y31713D01*
X69423Y31688D01*
X69328Y31672D01*
X69238Y31661D01*
X69194Y31656D01*
X69156Y31653D01*
X69123Y31650D01*
X69093D01*
X69068Y31648D01*
X69036D01*
X68937Y31653D01*
X68847Y31664D01*
X68765Y31678D01*
X68727Y31688D01*
X68694Y31697D01*
X68662Y31705D01*
X68634Y31716D01*
X68610Y31724D01*
X68591Y31730D01*
X68574Y31738D01*
X68563Y31740D01*
X68555Y31746D01*
X68552D01*
X68476Y31787D01*
X68410Y31830D01*
X68353Y31877D01*
X68307Y31920D01*
X68269Y31962D01*
X68244Y31991D01*
X68233Y32005D01*
X68227Y32013D01*
X68222Y32019D01*
Y32022D01*
X68200Y32054D01*
X68184Y32090D01*
X68154Y32155D01*
X68132Y32218D01*
X68118Y32276D01*
X68110Y32327D01*
X68107Y32346D01*
Y32366D01*
X68105Y32379D01*
Y32390D01*
Y32396D01*
Y32398D01*
X68110Y32472D01*
X68121Y32540D01*
X68137Y32600D01*
X68156Y32652D01*
X68178Y32696D01*
X68187Y32715D01*
X68195Y32729D01*
X68200Y32740D01*
X68206Y32748D01*
X68211Y32753D01*
Y32756D01*
X68233Y32783D01*
X68255Y32811D01*
X68307Y32862D01*
X68359Y32906D01*
X68413Y32942D01*
X68460Y32972D01*
X68481Y32985D01*
X68501Y32993D01*
X68514Y33002D01*
X68525Y33007D01*
X68533Y33013D01*
X68536D01*
X68566Y33026D01*
X68604Y33040D01*
X68642Y33053D01*
X68686Y33067D01*
X68779Y33092D01*
X68872Y33116D01*
X68915Y33130D01*
X68956Y33138D01*
X68995Y33149D01*
X69027Y33154D01*
X69055Y33163D01*
X69074Y33168D01*
X69087Y33171D01*
X69093D01*
X69167Y33187D01*
X69232Y33206D01*
X69289Y33223D01*
X69344Y33239D01*
X69390Y33255D01*
X69431Y33269D01*
X69467Y33283D01*
X69497Y33296D01*
X69521Y33310D01*
X69543Y33321D01*
X69560Y33329D01*
X69573Y33337D01*
X69584Y33346D01*
X69590Y33351D01*
X69595Y33354D01*
X69628Y33389D01*
X69650Y33425D01*
X69666Y33463D01*
X69680Y33498D01*
X69685Y33529D01*
X69688Y33553D01*
X69691Y33569D01*
Y33572D01*
Y33575D01*
X69688Y33605D01*
X69685Y33632D01*
X69669Y33681D01*
X69647Y33728D01*
X69622Y33766D01*
X69598Y33799D01*
X69576Y33823D01*
X69560Y33837D01*
X69557Y33843D01*
X69554D01*
X69527Y33862D01*
X69494Y33881D01*
X69426Y33908D01*
X69355Y33927D01*
X69281Y33941D01*
X69248Y33946D01*
X69216Y33949D01*
X69188Y33952D01*
X69164D01*
X69142Y33954D01*
X69063D01*
X69014Y33949D01*
X68967Y33944D01*
X68924Y33935D01*
X68885Y33927D01*
X68850Y33916D01*
X68817Y33905D01*
X68787Y33894D01*
X68763Y33881D01*
X68741Y33870D01*
X68722Y33859D01*
X68705Y33851D01*
X68694Y33843D01*
X68683Y33837D01*
X68681Y33834D01*
X68678Y33832D01*
X68651Y33807D01*
X68626Y33782D01*
X68588Y33725D01*
X68555Y33665D01*
X68533Y33608D01*
X68517Y33556D01*
X68511Y33534D01*
X68506Y33512D01*
X68503Y33496D01*
Y33485D01*
X68501Y33477D01*
Y33474D01*
X68181Y33498D01*
X68189Y33580D01*
X68206Y33654D01*
X68225Y33722D01*
X68247Y33780D01*
X68260Y33804D01*
X68269Y33829D01*
X68279Y33848D01*
X68288Y33864D01*
X68296Y33878D01*
X68301Y33886D01*
X68304Y33892D01*
X68307Y33894D01*
X68353Y33957D01*
X68405Y34009D01*
X68460Y34055D01*
X68514Y34094D01*
X68561Y34121D01*
X68582Y34132D01*
X68599Y34143D01*
X68612Y34151D01*
X68626Y34154D01*
X68632Y34159D01*
X68634D01*
X68716Y34189D01*
X68801Y34214D01*
X68885Y34230D01*
X68962Y34241D01*
X68997Y34244D01*
X69027Y34247D01*
X69057Y34249D01*
X69082Y34252D01*
X69128D01*
X69221Y34249D01*
D02*
G37*
%LPC*%
G36*
X66524Y32606D02*
X66521D01*
X66524Y32491D01*
X66527Y32420D01*
X66532Y32357D01*
X66540Y32303D01*
X66549Y32259D01*
X66557Y32226D01*
X66565Y32202D01*
X66570Y32188D01*
X66573Y32183D01*
X66600Y32133D01*
X66633Y32092D01*
X66666Y32054D01*
X66699Y32024D01*
X66732Y32000D01*
X66756Y31981D01*
X66772Y31970D01*
X66775Y31967D01*
X66778D01*
X66833Y31942D01*
X66887Y31923D01*
X66939Y31910D01*
X66991Y31901D01*
X67032Y31896D01*
X67051Y31893D01*
X67067Y31890D01*
X67097D01*
X67160Y31893D01*
X67215Y31904D01*
X67264Y31918D01*
X67302Y31931D01*
X67332Y31948D01*
X67354Y31959D01*
X67365Y31970D01*
X67370Y31972D01*
X67400Y32005D01*
X67425Y32038D01*
X67441Y32073D01*
X67452Y32106D01*
X67458Y32133D01*
X67460Y32158D01*
X67463Y32172D01*
Y32177D01*
X67460Y32207D01*
X67458Y32234D01*
X67449Y32259D01*
X67441Y32281D01*
X67436Y32300D01*
X67428Y32314D01*
X67425Y32322D01*
X67422Y32325D01*
X67403Y32349D01*
X67384Y32368D01*
X67365Y32385D01*
X67343Y32401D01*
X67327Y32412D01*
X67313Y32420D01*
X67302Y32423D01*
X67299Y32426D01*
X67264Y32439D01*
X67223Y32450D01*
X67179Y32461D01*
X67136Y32469D01*
X67095Y32478D01*
X67059Y32483D01*
X67048Y32486D01*
X67037Y32488D01*
X67029D01*
X66966Y32497D01*
X66909Y32508D01*
X66857Y32516D01*
X66808Y32527D01*
X66761Y32537D01*
X66721Y32546D01*
X66682Y32557D01*
X66647Y32565D01*
X66619Y32573D01*
X66592Y32581D01*
X66570Y32587D01*
X66554Y32595D01*
X66540Y32600D01*
X66529Y32603D01*
X66524Y32606D01*
D02*
G37*
%LPD*%
D12*
X137402Y96063D02*
X139272D01*
X140551Y94784D01*
Y32283D02*
Y94784D01*
X136811Y28543D02*
X140551Y32283D01*
X130709Y28543D02*
X136811D01*
X91339Y6102D02*
Y6201D01*
X55413Y2559D02*
X87795D01*
X91339Y6102D01*
X50197Y9843D02*
Y16929D01*
Y9843D02*
X53150Y6890D01*
X55218Y2755D02*
X55413Y2559D01*
X53150Y4823D02*
X55218Y2755D01*
X53150Y4823D02*
Y6890D01*
D69*
X124409Y124409D02*
D03*
D71*
X89272Y119095D02*
D03*
X48917Y112303D02*
D03*
X137402Y96063D02*
D03*
X130709Y28543D02*
D03*
X51378Y121405D02*
D03*
X9547Y120768D02*
D03*
X114469Y7480D02*
D03*
X50197Y16929D02*
D03*
X24016Y107087D02*
D03*
X31890Y99213D02*
D03*
X27953D02*
D03*
X24016D02*
D03*
X20079D02*
D03*
X16142D02*
D03*
Y91339D02*
D03*
X20079D02*
D03*
X34906Y69193D02*
D03*
X31362Y65748D02*
D03*
X35827Y95276D02*
D03*
X12205D02*
D03*
X24016Y83465D02*
D03*
X27953Y87402D02*
D03*
X24016D02*
D03*
X20079D02*
D03*
X31890Y91339D02*
D03*
Y95276D02*
D03*
X16142D02*
D03*
X20079Y103150D02*
D03*
X24016D02*
D03*
X27953D02*
D03*
Y91339D02*
D03*
Y95276D02*
D03*
X24016Y91339D02*
D03*
X20079Y95276D02*
D03*
X24016D02*
D03*
X33465Y43209D02*
D03*
X37683Y118947D02*
D03*
X46998Y64089D02*
D03*
X10433Y78740D02*
D03*
X125197Y88583D02*
D03*
X129134D02*
D03*
X51378Y116783D02*
D03*
X43110Y119095D02*
D03*
X23425Y37598D02*
D03*
X39173Y26378D02*
D03*
X19587Y16339D02*
D03*
X35630Y26378D02*
D03*
Y22835D02*
D03*
Y29921D02*
D03*
X39173Y22835D02*
D03*
X42717Y26378D02*
D03*
Y22835D02*
D03*
X39173Y29921D02*
D03*
X42717D02*
D03*
X112205Y93701D02*
D03*
Y76968D02*
D03*
Y71949D02*
D03*
Y59941D02*
D03*
X125197Y68898D02*
D03*
X129134D02*
D03*
X125197Y64961D02*
D03*
X129134D02*
D03*
X127165Y66929D02*
D03*
Y86614D02*
D03*
X129134Y84646D02*
D03*
X125197D02*
D03*
X105217Y61910D02*
D03*
X59055Y49705D02*
D03*
D72*
X86614Y137106D02*
D03*
X137106Y50000D02*
D03*
X91339Y6201D02*
D03*
X96850D02*
D03*
X94095Y10728D02*
D03*
X58661D02*
D03*
X61417Y6201D02*
D03*
M02*
