G04*
G04 #@! TF.GenerationSoftware,Altium Limited,Altium Designer,20.0.13 (296)*
G04*
G04 Layer_Color=128*
%FSLAX25Y25*%
%MOIN*%
G70*
G01*
G75*
G04:AMPARAMS|DCode=73|XSize=23.62mil|YSize=47.24mil|CornerRadius=5.91mil|HoleSize=0mil|Usage=FLASHONLY|Rotation=0.000|XOffset=0mil|YOffset=0mil|HoleType=Round|Shape=RoundedRectangle|*
%AMROUNDEDRECTD73*
21,1,0.02362,0.03543,0,0,0.0*
21,1,0.01181,0.04724,0,0,0.0*
1,1,0.01181,0.00591,-0.01772*
1,1,0.01181,-0.00591,-0.01772*
1,1,0.01181,-0.00591,0.01772*
1,1,0.01181,0.00591,0.01772*
%
%ADD73ROUNDEDRECTD73*%
G04:AMPARAMS|DCode=74|XSize=23.62mil|YSize=47.24mil|CornerRadius=5.91mil|HoleSize=0mil|Usage=FLASHONLY|Rotation=90.000|XOffset=0mil|YOffset=0mil|HoleType=Round|Shape=RoundedRectangle|*
%AMROUNDEDRECTD74*
21,1,0.02362,0.03543,0,0,90.0*
21,1,0.01181,0.04724,0,0,90.0*
1,1,0.01181,0.01772,0.00591*
1,1,0.01181,0.01772,-0.00591*
1,1,0.01181,-0.01772,-0.00591*
1,1,0.01181,-0.01772,0.00591*
%
%ADD74ROUNDEDRECTD74*%
%ADD75C,0.03937*%
D73*
X66929Y3937D02*
D03*
X77559Y12992D02*
D03*
X85827Y3937D02*
D03*
X102362D02*
D03*
X55905D02*
D03*
X50394D02*
D03*
X47638Y12992D02*
D03*
X80315Y3937D02*
D03*
X96850D02*
D03*
X99606Y12992D02*
D03*
X61417Y3937D02*
D03*
X82677Y139370D02*
D03*
X90551D02*
D03*
X88583Y12992D02*
D03*
X98425Y139370D02*
D03*
X86614D02*
D03*
X53150Y12992D02*
D03*
X44882Y3937D02*
D03*
X42126Y12992D02*
D03*
X58661D02*
D03*
X74803Y3937D02*
D03*
X64173Y12992D02*
D03*
X94095D02*
D03*
X94488Y139370D02*
D03*
X91339Y3937D02*
D03*
X83071Y12992D02*
D03*
X39370Y3937D02*
D03*
D74*
X139370Y38189D02*
D03*
Y50000D02*
D03*
Y42126D02*
D03*
Y46063D02*
D03*
Y53937D02*
D03*
X139370Y80709D02*
D03*
Y84646D02*
D03*
Y92520D02*
D03*
Y88583D02*
D03*
Y61024D02*
D03*
Y64961D02*
D03*
Y72835D02*
D03*
Y68898D02*
D03*
D75*
X17717Y62992D02*
D03*
X5906Y51181D02*
D03*
X110236Y135827D02*
D03*
Y7480D02*
D03*
X5906Y62992D02*
D03*
X17717Y51181D02*
D03*
M02*
