G04*
G04 #@! TF.GenerationSoftware,Altium Limited,Altium Designer,20.0.13 (296)*
G04*
G04 Layer_Physical_Order=1*
G04 Layer_Color=255*
%FSLAX25Y25*%
%MOIN*%
G70*
G01*
G75*
%ADD10C,0.00787*%
%ADD11C,0.00984*%
%ADD12C,0.00591*%
G04:AMPARAMS|DCode=14|XSize=25.59mil|YSize=21.65mil|CornerRadius=5.41mil|HoleSize=0mil|Usage=FLASHONLY|Rotation=270.000|XOffset=0mil|YOffset=0mil|HoleType=Round|Shape=RoundedRectangle|*
%AMROUNDEDRECTD14*
21,1,0.02559,0.01083,0,0,270.0*
21,1,0.01476,0.02165,0,0,270.0*
1,1,0.01083,-0.00541,-0.00738*
1,1,0.01083,-0.00541,0.00738*
1,1,0.01083,0.00541,0.00738*
1,1,0.01083,0.00541,-0.00738*
%
%ADD14ROUNDEDRECTD14*%
%ADD15O,0.03347X0.00984*%
%ADD16O,0.00984X0.03347*%
%ADD17R,0.06693X0.06693*%
%ADD18R,0.00984X0.00984*%
G04:AMPARAMS|DCode=19|XSize=25.59mil|YSize=21.65mil|CornerRadius=5.41mil|HoleSize=0mil|Usage=FLASHONLY|Rotation=45.000|XOffset=0mil|YOffset=0mil|HoleType=Round|Shape=RoundedRectangle|*
%AMROUNDEDRECTD19*
21,1,0.02559,0.01083,0,0,45.0*
21,1,0.01476,0.02165,0,0,45.0*
1,1,0.01083,0.00905,0.00139*
1,1,0.01083,-0.00139,-0.00905*
1,1,0.01083,-0.00905,-0.00139*
1,1,0.01083,0.00139,0.00905*
%
%ADD19ROUNDEDRECTD19*%
G04:AMPARAMS|DCode=20|XSize=21.65mil|YSize=21.65mil|CornerRadius=5.41mil|HoleSize=0mil|Usage=FLASHONLY|Rotation=90.000|XOffset=0mil|YOffset=0mil|HoleType=Round|Shape=RoundedRectangle|*
%AMROUNDEDRECTD20*
21,1,0.02165,0.01083,0,0,90.0*
21,1,0.01083,0.02165,0,0,90.0*
1,1,0.01083,0.00541,0.00541*
1,1,0.01083,0.00541,-0.00541*
1,1,0.01083,-0.00541,-0.00541*
1,1,0.01083,-0.00541,0.00541*
%
%ADD20ROUNDEDRECTD20*%
%ADD21R,0.04528X0.03347*%
%ADD22R,0.03740X0.03347*%
%ADD23R,0.04528X0.03819*%
%ADD24R,0.03740X0.03819*%
%ADD25R,0.03347X0.01772*%
G04:AMPARAMS|DCode=26|XSize=21.65mil|YSize=21.65mil|CornerRadius=5.41mil|HoleSize=0mil|Usage=FLASHONLY|Rotation=0.000|XOffset=0mil|YOffset=0mil|HoleType=Round|Shape=RoundedRectangle|*
%AMROUNDEDRECTD26*
21,1,0.02165,0.01083,0,0,0.0*
21,1,0.01083,0.02165,0,0,0.0*
1,1,0.01083,0.00541,-0.00541*
1,1,0.01083,-0.00541,-0.00541*
1,1,0.01083,-0.00541,0.00541*
1,1,0.01083,0.00541,0.00541*
%
%ADD26ROUNDEDRECTD26*%
%ADD27O,0.01378X0.02362*%
%ADD28O,0.02362X0.01378*%
%ADD29O,0.00984X0.02756*%
%ADD30O,0.02756X0.00984*%
%ADD31R,0.12402X0.12402*%
G04:AMPARAMS|DCode=32|XSize=25.59mil|YSize=21.65mil|CornerRadius=5.41mil|HoleSize=0mil|Usage=FLASHONLY|Rotation=180.000|XOffset=0mil|YOffset=0mil|HoleType=Round|Shape=RoundedRectangle|*
%AMROUNDEDRECTD32*
21,1,0.02559,0.01083,0,0,180.0*
21,1,0.01476,0.02165,0,0,180.0*
1,1,0.01083,-0.00738,0.00541*
1,1,0.01083,0.00738,0.00541*
1,1,0.01083,0.00738,-0.00541*
1,1,0.01083,-0.00738,-0.00541*
%
%ADD32ROUNDEDRECTD32*%
%ADD33P,0.31180X4X180.0*%
G04:AMPARAMS|DCode=34|XSize=9.84mil|YSize=33.47mil|CornerRadius=0mil|HoleSize=0mil|Usage=FLASHONLY|Rotation=135.000|XOffset=0mil|YOffset=0mil|HoleType=Round|Shape=Round|*
%AMOVALD34*
21,1,0.02362,0.00984,0.00000,0.00000,225.0*
1,1,0.00984,0.00835,0.00835*
1,1,0.00984,-0.00835,-0.00835*
%
%ADD34OVALD34*%

G04:AMPARAMS|DCode=35|XSize=9.84mil|YSize=33.47mil|CornerRadius=0mil|HoleSize=0mil|Usage=FLASHONLY|Rotation=225.000|XOffset=0mil|YOffset=0mil|HoleType=Round|Shape=Round|*
%AMOVALD35*
21,1,0.02362,0.00984,0.00000,0.00000,315.0*
1,1,0.00984,-0.00835,0.00835*
1,1,0.00984,0.00835,-0.00835*
%
%ADD35OVALD35*%

G04:AMPARAMS|DCode=36|XSize=39.37mil|YSize=62.99mil|CornerRadius=9.84mil|HoleSize=0mil|Usage=FLASHONLY|Rotation=90.000|XOffset=0mil|YOffset=0mil|HoleType=Round|Shape=RoundedRectangle|*
%AMROUNDEDRECTD36*
21,1,0.03937,0.04331,0,0,90.0*
21,1,0.01968,0.06299,0,0,90.0*
1,1,0.01968,0.02165,0.00984*
1,1,0.01968,0.02165,-0.00984*
1,1,0.01968,-0.02165,-0.00984*
1,1,0.01968,-0.02165,0.00984*
%
%ADD36ROUNDEDRECTD36*%
G04:AMPARAMS|DCode=37|XSize=27.56mil|YSize=29.53mil|CornerRadius=6.89mil|HoleSize=0mil|Usage=FLASHONLY|Rotation=315.000|XOffset=0mil|YOffset=0mil|HoleType=Round|Shape=RoundedRectangle|*
%AMROUNDEDRECTD37*
21,1,0.02756,0.01575,0,0,315.0*
21,1,0.01378,0.02953,0,0,315.0*
1,1,0.01378,-0.00070,-0.01044*
1,1,0.01378,-0.01044,-0.00070*
1,1,0.01378,0.00070,0.01044*
1,1,0.01378,0.01044,0.00070*
%
%ADD37ROUNDEDRECTD37*%
G04:AMPARAMS|DCode=38|XSize=25.59mil|YSize=21.65mil|CornerRadius=5.41mil|HoleSize=0mil|Usage=FLASHONLY|Rotation=135.000|XOffset=0mil|YOffset=0mil|HoleType=Round|Shape=RoundedRectangle|*
%AMROUNDEDRECTD38*
21,1,0.02559,0.01083,0,0,135.0*
21,1,0.01476,0.02165,0,0,135.0*
1,1,0.01083,-0.00139,0.00905*
1,1,0.01083,0.00905,-0.00139*
1,1,0.01083,0.00139,-0.00905*
1,1,0.01083,-0.00905,0.00139*
%
%ADD38ROUNDEDRECTD38*%
%ADD66C,0.02165*%
%ADD67R,0.03150X0.12992*%
%ADD68R,0.03150X0.08268*%
G04:AMPARAMS|DCode=69|XSize=78.74mil|YSize=47.24mil|CornerRadius=11.81mil|HoleSize=0mil|Usage=FLASHONLY|Rotation=225.000|XOffset=0mil|YOffset=0mil|HoleType=Round|Shape=RoundedRectangle|*
%AMROUNDEDRECTD69*
21,1,0.07874,0.02362,0,0,225.0*
21,1,0.05512,0.04724,0,0,225.0*
1,1,0.02362,-0.02784,-0.01114*
1,1,0.02362,0.01114,0.02784*
1,1,0.02362,0.02784,0.01114*
1,1,0.02362,-0.01114,-0.02784*
%
%ADD69ROUNDEDRECTD69*%
%ADD70C,0.02362*%
%ADD71C,0.01772*%
%ADD72C,0.02165*%
G36*
X30413Y51968D02*
Y47244D01*
Y45866D01*
X36909D01*
Y47244D01*
X33760D01*
Y49114D01*
Y51968D01*
X30413D01*
D02*
G37*
D10*
X135264Y119617D02*
X135099Y120446D01*
X134630Y121149D01*
Y118086D02*
X135099Y118789D01*
X135264Y119617D01*
X132960Y122819D02*
X131989Y123379D01*
X130868D01*
X129897Y122819D01*
X127670Y114189D02*
X128641Y113628D01*
X129762D01*
X130733Y114189D01*
X137041Y91043D02*
X137822Y90686D01*
X138681Y90715D01*
Y90387D02*
X137800Y90412D01*
X137006Y90031D01*
X136474Y89328D01*
X133970Y110944D02*
X133065Y111319D01*
X134449Y89567D02*
X134045Y90541D01*
X133071Y90945D01*
X133970Y110944D02*
X133065Y111319D01*
X127165Y90238D02*
X128281Y89868D01*
X121149Y134630D02*
X120178Y135190D01*
X119057D01*
X118086Y134630D01*
X123453Y131429D02*
X123288Y132257D01*
X122819Y132960D01*
Y129897D02*
X123288Y130600D01*
X123453Y131429D01*
X126000Y118921D02*
X125440Y117951D01*
Y116830D01*
X126000Y115859D01*
X123879Y89900D02*
X125197Y90238D01*
X125197D02*
X126181Y89862D01*
X127165Y90238D01*
X114189Y130733D02*
X113628Y129762D01*
Y128641D01*
X114189Y127670D01*
X117333Y124035D02*
X116428Y124409D01*
X117333Y124035D02*
X116428Y124409D01*
X115859Y126000D02*
X116830Y125440D01*
X117951D01*
X118921Y126000D01*
X136474Y83900D02*
X137006Y83197D01*
X137800Y82816D01*
X138681Y82841D01*
Y82513D02*
X137822Y82543D01*
X137041Y82185D01*
Y71358D02*
X137822Y71001D01*
X138681Y71030D01*
Y70702D02*
X137822Y70731D01*
X137041Y70374D01*
X134358Y89075D02*
X134449Y89567D01*
X130537Y88189D02*
X130432Y87365D01*
X130789Y86614D01*
X128281Y89868D02*
X128550Y88706D01*
X129626Y88189D01*
X134449Y83661D02*
X134358Y84153D01*
X133071Y82284D02*
X134045Y82687D01*
X134449Y83661D01*
X130789Y86614D02*
X130432Y85864D01*
X130537Y85039D01*
X135925Y70374D02*
X134881Y69942D01*
Y63917D02*
X135925Y63484D01*
Y70374D02*
X134880Y69940D01*
Y63918D02*
X135925Y63484D01*
X137041D02*
X137822Y63127D01*
X138681Y63156D01*
Y62828D02*
X137822Y62857D01*
X137041Y62500D01*
X134449Y69882D02*
X134045Y70856D01*
X133071Y71260D01*
X134374Y69434D02*
X134449Y69882D01*
X130458Y68273D02*
X130789Y66929D01*
X134449Y63976D02*
X134374Y64424D01*
X133071Y62598D02*
X134045Y63002D01*
X134449Y63976D01*
X130789Y66929D02*
X130458Y65585D01*
X129528Y85039D02*
X128454Y84525D01*
X128182Y83366D01*
X125591Y85630D02*
X125158Y86674D01*
X124114Y87106D01*
Y84153D02*
X125158Y84586D01*
X125591Y85630D01*
X128182Y83366D02*
X127165Y82990D01*
X126181Y83366D01*
X125197Y82990D01*
X127165Y70553D02*
X128509Y70222D01*
X125197Y70553D02*
X126181Y70177D01*
X127165Y70553D01*
X125197Y82990D02*
X123879Y83328D01*
X123879Y70215D02*
X125197Y70553D01*
X123541Y88583D02*
X123917Y89567D01*
X123879Y89900D01*
X123833Y87106D02*
X123917Y87598D01*
X123541Y88583D01*
X119868Y86122D02*
X119873Y85123D01*
X123917Y83661D02*
X123833Y84153D01*
X119873Y85123D02*
X119193Y84842D01*
X123879Y83328D02*
X123917Y83661D01*
X123917Y69882D02*
X123879Y70215D01*
X119873Y85123D02*
X119193Y84842D01*
X119873Y85123D02*
X119193Y84842D01*
X126191Y67904D02*
X125787Y66948D01*
X126191Y67904D02*
X125787Y66948D01*
X125787D02*
X124705Y67421D01*
X128509Y63637D02*
X127165Y63305D01*
X126181Y63681D01*
X125197Y63305D01*
X124705Y64468D02*
X125749Y64901D01*
X126181Y65945D01*
X125197Y63305D02*
X123879Y63643D01*
X123917Y67913D02*
X123541Y68898D01*
X123917Y69882D01*
X123833Y67421D02*
X123917Y67913D01*
X119868Y66437D02*
Y65453D01*
X123917Y63976D02*
X123833Y64468D01*
X123879Y63643D02*
X123917Y63976D01*
X117706Y65453D02*
X117433Y65650D01*
X108863Y141328D02*
X108400Y140413D01*
X108489Y139392D01*
X109103Y138571D01*
X110058Y138198D01*
X111066Y138383D01*
X111825Y139073D01*
X112106Y140059D01*
X111965Y140773D01*
X100492Y137106D02*
X100266Y138046D01*
X99638Y138780D01*
X98744Y139148D01*
X97781Y139070D01*
X96958Y138563D01*
X96457Y137736D01*
X92520D02*
X91973Y138606D01*
X91075Y139106D01*
X90048Y139111D01*
X89145Y138621D01*
X88589Y137757D01*
X88518Y136732D01*
X88949Y135800D01*
X89776Y135190D01*
X90794Y135054D01*
X96457Y137736D02*
X95907Y138609D01*
X95004Y139108D01*
X93972D01*
X93069Y138609D01*
X92520Y137736D01*
X98195Y122237D02*
X97206Y122052D01*
X96457Y121383D01*
X90748Y119095D02*
X90280Y120173D01*
X89173Y120568D01*
X88535Y120374D01*
X88228Y120138D01*
X90316Y118051D02*
X90748Y119095D01*
X86516Y118602D02*
X85581Y118269D01*
X85069Y117419D01*
X85210Y116437D01*
X84744Y137106D02*
X84507Y138067D01*
X83851Y138807D01*
X82926Y139158D01*
X81944Y139039D01*
X81130Y138477D01*
X80670Y137601D01*
Y136612D01*
X81130Y135736D01*
X81944Y135174D01*
X82926Y135054D01*
X83851Y135405D01*
X84507Y136146D01*
X84744Y137106D01*
X82675Y120276D02*
X83471Y120965D01*
X69390Y132382D02*
X68485Y132007D01*
X69390Y132382D02*
X68485Y132007D01*
X83661Y118848D02*
X83391Y119716D01*
X82675Y120276D01*
X82885Y116437D02*
X83453Y116996D01*
X83661Y117766D01*
X51378Y115307D02*
X51869Y115391D01*
X50670Y114192D02*
X50295Y113287D01*
X50670Y114192D02*
X50295Y113287D01*
Y112833D02*
X49638Y113592D01*
X48648Y113755D01*
X47782Y113247D01*
X47441Y112303D01*
X47736Y115392D02*
X48228Y115307D01*
X47736Y115392D02*
X48228Y115307D01*
X47736Y115392D02*
X48228Y115307D01*
X47736Y115392D02*
X48228Y115307D01*
X44333Y114236D02*
X44783Y115307D01*
X46418Y112145D02*
X46975Y112823D01*
X47390Y113596D01*
X47647Y114434D01*
X47736Y115307D01*
X101279Y66693D02*
X100876Y67667D01*
X99902Y68071D01*
X98927Y67667D01*
X98524Y66693D01*
X59941Y65847D02*
X60344Y64872D01*
X59237Y94587D02*
X59684Y95212D01*
X59842Y95965D01*
X59941Y65847D02*
X60344Y64872D01*
X59842Y93209D02*
X59684Y93961D01*
X59237Y94587D01*
X106595Y61910D02*
X106191Y62884D01*
X105217Y63287D01*
X98524Y63386D02*
X98927Y62411D01*
X98524Y63386D02*
X98927Y62411D01*
X65650Y63386D02*
X65454Y64218D01*
X61911Y63305D02*
X62195Y62393D01*
X62891Y61740D01*
X63820Y61516D01*
X64738Y61780D01*
X65406Y62462D01*
X65650Y63386D01*
X58385Y98018D02*
X58760Y98923D01*
X58385Y98018D02*
X58760Y98923D01*
X59842Y95965D02*
X59627Y96836D01*
X59030Y97507D01*
X58189Y97822D01*
X56609Y91929D02*
X57564Y91384D01*
X58661Y91470D01*
X59519Y92157D01*
X59842Y93209D01*
X54119Y90447D02*
X55023Y90821D01*
X54119Y90447D02*
X55023Y90821D01*
X47441Y109252D02*
X47508Y108812D01*
X46615Y109705D02*
X45571Y110138D01*
X46616Y109704D02*
X45571Y110138D01*
X48478Y107843D02*
X49560Y107923D01*
X50295Y108722D01*
Y107241D02*
X49656Y107382D01*
X47235Y86221D02*
X48140Y86595D01*
X47235Y86221D02*
X48140Y86595D01*
X49705Y70177D02*
X49425Y71161D01*
X48671Y71850D01*
X47666Y72040D01*
X46712Y71673D01*
X48411Y64089D02*
X47979Y65133D01*
X46712Y68682D02*
X47666Y68315D01*
X48671Y68504D01*
X49425Y69194D01*
X49705Y70177D01*
X45891Y63045D02*
X46935Y62612D01*
X47979Y63045D01*
X48411Y64089D01*
X46712Y71673D02*
X46260Y72054D01*
Y78684D02*
X45826Y79729D01*
X46260Y78684D02*
X45827Y79728D01*
X45522Y68110D02*
X46712Y68682D01*
X138583Y50689D02*
X139487Y51064D01*
X138583Y50689D02*
X139487Y51064D01*
X139051Y46764D02*
X139783Y47127D01*
X139051Y46764D02*
X139783Y47127D01*
X139173Y46063D02*
X139051Y46764D01*
X121438Y52048D02*
X122343Y51673D01*
X121438Y52048D02*
X122343Y51673D01*
X135827Y49311D02*
X134922Y48936D01*
X135827Y49311D02*
X134922Y48936D01*
X126457Y31220D02*
X126083Y30315D01*
X126457Y31220D02*
X126083Y30315D01*
X110414Y55985D02*
X111319Y55610D01*
X110414Y55985D02*
X111319Y55610D01*
X105217Y60532D02*
X106191Y60935D01*
X106595Y61910D01*
X106988Y59941D02*
X107363Y59036D01*
X106988Y59941D02*
X107363Y59036D01*
X106318Y21771D02*
X105413Y22146D01*
X106318Y21771D02*
X105413Y22146D01*
X98542Y12500D02*
X97795Y11724D01*
X97540Y10678D01*
X97846Y9646D01*
X93274Y24330D02*
X92369Y24705D01*
X93274Y24330D02*
X92369Y24705D01*
X90103Y9328D02*
X90434Y8754D01*
X90103Y9328D02*
X90434Y8754D01*
X84950Y9824D02*
X85855Y9449D01*
X84950Y9824D02*
X85855Y9449D01*
X81448D02*
X82273Y8822D01*
X83300Y8674D01*
X84269Y9044D01*
X84936Y9838D01*
X100495Y7087D02*
X100300Y6058D01*
X100635Y5066D01*
X101412Y4365D01*
X102434Y4135D01*
X103437Y4435D01*
X104164Y5188D01*
X104429Y6201D01*
X104235Y7075D01*
X103689Y7785D01*
X93405Y6201D02*
X93206Y7087D01*
X90956Y8232D02*
X90024Y7796D01*
X89418Y6965D01*
X89288Y5945D01*
X89665Y4988D01*
X90457Y4332D01*
X91467Y4138D01*
X92445Y4455D01*
X93150Y5205D01*
X93405Y6201D01*
X86959Y9449D02*
X87645Y8886D01*
X88503Y8663D01*
X89376Y8820D01*
X90103Y9328D01*
X87894Y6201D02*
X87663Y7151D01*
X87021Y7888D01*
X86112Y8248D01*
X85139Y8150D01*
X84320Y7616D01*
X83838Y6765D01*
X83801Y5788D01*
X85767Y4135D02*
X86826Y4391D01*
X87607Y5150D01*
X87894Y6201D01*
X73032Y59252D02*
X72873Y60006D01*
X71916Y60963D02*
X70857Y61097D01*
X69897Y60630D01*
Y57874D02*
X70856Y57407D01*
X71914Y57540D01*
X72727Y58230D01*
X73032Y59252D01*
X77067Y54449D02*
X76763Y55471D01*
X75950Y56161D01*
X74891Y56294D01*
X73933Y55827D01*
X69534Y60630D02*
X68983Y61136D01*
X68258Y61319D01*
X67175D02*
X66308Y61048D01*
X65748Y60332D01*
X68258Y57185D02*
X68983Y57368D01*
X69534Y57874D01*
X65748Y58171D02*
X66308Y57456D01*
X67175Y57185D01*
X73933Y53071D02*
X74891Y52604D01*
X75950Y52737D01*
X76763Y53427D01*
X77067Y54449D01*
X69784Y45226D02*
X69600Y45951D01*
X69095Y46502D01*
X66339D02*
X65748Y45766D01*
X65158Y57435D02*
X65748Y58171D01*
X65748Y60332D02*
X65188Y61048D01*
X64321Y61319D01*
X63238D02*
X62159Y60872D01*
X61713Y59793D01*
Y58711D02*
X61896Y57986D01*
X62402Y57435D01*
X64213Y49705D02*
X63809Y50679D01*
X62835Y51083D01*
X46555Y57382D02*
X46180Y58287D01*
X46555Y57382D02*
X46180Y58287D01*
X62835Y48327D02*
X63809Y48730D01*
X64213Y49705D01*
X65748Y45766D02*
X65188Y46481D01*
X64321Y46752D01*
X63238D02*
X62513Y46569D01*
X61962Y46063D01*
X61599D02*
X60649Y46528D01*
X59599Y46404D01*
X58784Y45731D01*
X58465Y44723D01*
X59055Y51083D02*
X58081Y50679D01*
X57677Y49705D01*
X58081Y48730D01*
X59055Y48327D01*
X57696Y45491D02*
X56791Y45866D01*
X48706D02*
X47698Y46423D01*
X46555Y46283D01*
X57696Y45491D02*
X56791Y45866D01*
X79438Y9824D02*
X80343Y9449D01*
X79438Y9824D02*
X80343Y9449D01*
X68258Y42618D02*
X69337Y43065D01*
X69784Y44144D01*
X65158Y40846D02*
X66062Y41221D01*
X65158Y40846D02*
X66062Y41221D01*
X61614Y37697D02*
X61239Y38602D01*
X61614Y37697D02*
X61239Y38602D01*
X75936Y9449D02*
X76762Y8822D01*
X77788Y8674D01*
X78757Y9044D01*
X79424Y9838D01*
X82382Y6201D02*
X82162Y7129D01*
X81549Y7859D01*
X80673Y8236D01*
X79720Y8180D01*
X78895Y7703D01*
X78372Y6905D01*
X78262Y5958D01*
X80072Y4148D02*
X81205Y4335D01*
X82063Y5098D01*
X82382Y6201D01*
X76870D02*
X76551Y7304D01*
X75693Y8066D01*
X74560Y8253D01*
X76671Y5315D02*
X76870Y6201D01*
X62992Y5610D02*
X63367Y4705D01*
X62992Y5610D02*
X63367Y4705D01*
X60236Y9646D02*
X60611Y8741D01*
X60236Y9646D02*
X60611Y8741D01*
X54741Y9410D02*
X55001Y9036D01*
X54741Y9410D02*
X55001Y9036D01*
X46636Y32283D02*
X46260Y31299D01*
X46636Y30315D01*
X46275Y33480D02*
X46636Y32283D01*
Y30315D02*
X46260Y29331D01*
X46636Y28346D01*
X45079Y33841D02*
X46275Y33480D01*
X46636Y26378D02*
X46260Y25394D01*
X46636Y24409D01*
Y28346D02*
X46260Y27362D01*
X46636Y26378D01*
X52907Y8676D02*
X53917Y8809D01*
X54741Y9410D01*
X46636Y24409D02*
X46260Y23425D01*
X46636Y22441D01*
Y20472D02*
X46275Y19276D01*
X46636Y22441D02*
X46260Y21457D01*
X46636Y20472D01*
X46275Y19276D02*
X45079Y18915D01*
X59842Y7283D02*
X59468Y8188D01*
X59842Y7283D02*
X59468Y8188D01*
X57293Y4669D02*
X57658Y3918D01*
X57293Y4669D02*
X57658Y3918D01*
X55773Y8264D02*
X54842Y7973D01*
X54147Y7287D01*
X53845Y6359D01*
X54002Y5396D01*
X54583Y4612D01*
X55459Y4183D01*
X56435Y4203D01*
X57293Y4669D01*
X52461Y6201D02*
X52308Y6979D01*
X51874Y7643D01*
X50151Y4148D02*
X51284Y4335D01*
X52142Y5098D01*
X52461Y6201D01*
X47820Y1909D02*
X48149Y2146D01*
X47820Y1909D02*
X48149Y2146D01*
X43110Y120571D02*
X42243Y120289D01*
X41706Y119551D01*
Y118638D01*
X42243Y117900D01*
X43110Y117618D01*
X35178Y119655D02*
X34731Y120734D01*
X39159Y118884D02*
X38727Y119928D01*
X37683Y120360D01*
X36639Y119928D01*
X38727Y117840D02*
X39159Y118884D01*
X34731Y118577D02*
X35178Y119655D01*
X27051Y124769D02*
X26561Y125952D01*
X33966Y121500D02*
X32887Y121947D01*
X31808Y121500D01*
X30692Y120378D02*
X30233Y121258D01*
X29388Y121780D01*
X28395Y121795D01*
X27535Y121300D01*
X27049Y120434D01*
X27074Y119442D01*
X27604Y118602D01*
X28489Y118152D01*
X36014Y114929D02*
X36766Y115879D01*
X42285Y113386D02*
X43392Y113606D01*
X44330Y114233D01*
X42285Y110433D02*
X43199Y110505D01*
X44091Y110719D01*
X44938Y111070D01*
X45720Y111549D01*
X46418Y112145D01*
X36614Y113386D02*
X35761Y113343D01*
X34916Y113215D01*
X34088Y113003D01*
X34488Y117776D02*
X34143Y117235D01*
X32430Y117096D02*
X33687Y117533D01*
X27432Y117095D02*
X26985Y116016D01*
X27432Y114938D01*
X31399Y115216D02*
X31846Y116295D01*
X25587Y126927D02*
X24261Y127411D01*
X22803Y129711D02*
X22053Y130144D01*
X21187D01*
X20437Y129711D01*
X24267Y127553D02*
X23777Y128736D01*
X19323Y128597D02*
X18890Y127847D01*
Y126981D01*
X19323Y126231D01*
X19045Y125952D02*
X18295Y126386D01*
X17428D01*
X16678Y125952D01*
X26561Y123586D02*
X27051Y124769D01*
X27800Y114319D02*
X26897Y114768D01*
X25916Y114533D01*
X24016Y110587D02*
X24978Y110157D01*
X23054D02*
X24016Y110587D01*
X21623Y124773D02*
X22107Y123447D01*
X21828Y123169D02*
X20503Y123653D01*
X20297Y125257D02*
X21623Y124773D01*
X20509Y123795D02*
X20019Y124978D01*
X19825Y113383D02*
X18865Y112952D01*
X18435Y111992D01*
X39327Y95276D02*
X38897Y94314D01*
Y96237D02*
X39327Y95276D01*
X38960Y86595D02*
X39865Y86221D01*
X38897Y94314D02*
X37935Y93884D01*
X37505Y92922D01*
X38960Y86595D02*
X39865Y86221D01*
X36614Y110433D02*
X35706Y110359D01*
X34822Y110138D01*
X34721Y100413D02*
X35151Y99451D01*
X36113Y99021D01*
X33329Y101805D02*
X33759Y100843D01*
X34721Y100413D01*
X31937Y103197D02*
X32367Y102235D01*
X33329Y101805D01*
X37505Y97629D02*
X37935Y96667D01*
X38897Y96237D01*
X36113Y99021D02*
X36543Y98059D01*
X37505Y97629D01*
X37505Y92922D02*
X36543Y92492D01*
X36113Y91530D01*
X36113Y91530D02*
X35151Y91100D01*
X34721Y90138D01*
X33759Y89708D01*
X33329Y88746D01*
X33329Y88746D02*
X32367Y88316D01*
X31937Y87354D01*
X43307Y72054D02*
X42732Y71495D01*
X42520Y70722D01*
X42520D02*
X42307Y71495D01*
X41732Y72054D01*
X33252Y77783D02*
X33936Y78241D01*
X34357Y78949D01*
X33929Y76343D02*
X33751Y77138D01*
X33252Y77783D01*
X32365Y74498D02*
X33165Y74835D01*
X33727Y75498D01*
X33929Y76343D01*
X36319Y69193D02*
X35886Y70237D01*
X31891Y73189D02*
X32338Y74267D01*
X33735Y72388D02*
X32922Y72803D01*
X32021Y72660D01*
X31376Y72014D01*
X31233Y71113D01*
X31647Y70300D01*
X29153Y105981D02*
X29583Y105019D01*
X30545Y104589D01*
X30545Y104589D02*
X30975Y103627D01*
X31937Y103197D01*
X31937Y87354D02*
X30975Y86924D01*
X30545Y85962D01*
X29583Y85532D01*
X29153Y84570D01*
X27340Y109060D02*
X28056Y108344D01*
X24978Y110157D02*
X25398Y109205D01*
X26342Y108767D01*
X27340Y109060D01*
X28056Y108343D02*
X27763Y107345D01*
X28201Y106401D01*
X29153Y105981D01*
X27340Y109060D02*
X28056Y108344D01*
X21662Y108765D02*
X22624Y109195D01*
X23054Y110157D01*
X20270Y107373D02*
X21232Y107803D01*
X21662Y108765D01*
X18878Y105981D02*
X19840Y106411D01*
X20270Y107373D01*
X17486Y104589D02*
X18448Y105019D01*
X18878Y105981D01*
X18878Y84570D02*
X18448Y85532D01*
X17486Y85962D01*
X28689Y72145D02*
X29768Y71698D01*
X30847Y72145D01*
X28794Y70823D02*
X28348Y71901D01*
X29153Y84570D02*
X28192Y84140D01*
X27762Y83178D01*
X28348Y69744D02*
X28794Y70823D01*
X27761Y83178D02*
X26800Y82748D01*
X26370Y81786D01*
X20270Y83178D02*
X19840Y84140D01*
X18878Y84570D01*
X21662Y81786D02*
X21232Y82748D01*
X20270Y83178D01*
X26370Y81786D02*
X25408Y81356D01*
X24978Y80394D01*
X24016Y79964D02*
X23054Y80394D01*
X26091Y68259D02*
X27303Y68700D01*
X24978Y80394D02*
X24016Y79964D01*
X23054Y80394D02*
X22624Y81356D01*
X21662Y81786D01*
X15565Y124839D02*
X15132Y124089D01*
Y123223D01*
X15565Y122473D01*
X16246Y119709D02*
X16678Y118665D01*
X16246Y119709D02*
X16680Y118663D01*
X15748Y117717D02*
X15479Y118683D01*
X14749Y119371D01*
X13768Y119583D01*
X12819Y119258D01*
X12175Y118489D01*
X12021Y117497D01*
X12402Y116569D01*
X15354D02*
X15748Y117717D01*
X11037Y120754D02*
X10605Y121798D01*
X11037Y120754D02*
X10605Y121798D01*
X12402Y116195D02*
X11279Y115749D01*
X10605Y115631D02*
X11037Y116675D01*
X10603Y115630D02*
X11037Y116675D01*
X14922Y114381D02*
X15354Y115425D01*
X14920Y114379D02*
X15354Y115425D01*
X14202Y112826D02*
X14649Y113905D01*
X18435Y111992D02*
X17474Y111561D01*
X17043Y110600D01*
X17043Y110600D02*
X16082Y110169D01*
X15652Y109208D01*
X16094Y103197D02*
X17056Y103627D01*
X17486Y104589D01*
X15652Y109208D02*
X14690Y108777D01*
X14260Y107816D01*
X11888Y111347D02*
X13158Y111782D01*
X10235Y114705D02*
X9800Y113435D01*
X13108Y107659D02*
X12676Y108703D01*
X13108Y107659D02*
X12674Y108705D01*
X14260Y107816D02*
X13108Y107153D01*
X11243Y110136D02*
X11303Y110558D01*
X10591Y121812D02*
X9786Y122225D01*
X8892Y122091D01*
X8243Y121460D01*
X8084Y120569D01*
X9203Y112837D02*
X7933Y112403D01*
X5044Y114247D02*
X4630Y113434D01*
X4773Y112533D01*
X5418Y111888D01*
X6319Y111745D01*
X7132Y112159D01*
X7654Y108436D02*
X8352Y108037D01*
X9155Y108048D01*
X6889Y111359D02*
X6442Y110280D01*
X6889Y109201D01*
X7927Y106254D02*
X6883Y105821D01*
X7927Y106254D02*
X6881Y105820D01*
X6830Y105768D02*
X6410Y104915D01*
X6598Y103982D01*
X7316Y103358D01*
X8265Y103301D01*
X6102Y106988D02*
X5871Y107889D01*
X5234Y108568D01*
X4349Y108855D01*
X3435Y108680D01*
X2718Y108086D01*
X2377Y107220D01*
X4465Y105133D02*
X5298Y105452D01*
X5889Y106121D01*
X6102Y106988D01*
X5847Y104135D02*
X5199Y104520D01*
X4445Y104547D01*
X16831Y100295D02*
X16426Y101311D01*
X15434Y101769D01*
X15354Y98819D02*
X16398Y99251D01*
X16831Y100295D01*
X15256Y101947D02*
X15847Y102457D01*
X16094Y103197D01*
X13775Y99253D02*
X14820Y98819D01*
X13776Y99251D02*
X14820Y98819D01*
X17486Y85962D02*
X17056Y86924D01*
X16094Y87354D01*
X15664Y88316D01*
X14702Y88746D01*
X14702Y88746D02*
X14272Y89708D01*
X13310Y90138D01*
X12880Y91100D01*
X11918Y91530D01*
X12868Y84127D02*
X13298Y83166D01*
X14260Y82736D01*
X11918Y99021D02*
X12658Y99269D01*
X13169Y99859D01*
X10526Y97629D02*
X11488Y98059D01*
X11918Y99021D01*
X9134Y96237D02*
X10096Y96667D01*
X10526Y97629D01*
X9222Y103301D02*
X8692Y102248D01*
X10526Y92922D02*
X10096Y93884D01*
X9134Y94314D01*
X11918Y91530D02*
X11488Y92492D01*
X10526Y92922D01*
X9134Y94314D02*
X8704Y95276D01*
X9134Y96237D01*
X15652Y81344D02*
X15846Y80689D01*
X15827Y79866D02*
X15453Y78961D01*
X14260Y82736D02*
X14690Y81774D01*
X15652Y81344D01*
X15827Y79866D02*
X15453Y78961D01*
Y78234D02*
X14938Y77396D01*
X14919Y76412D01*
X15403Y75555D01*
X16254Y75062D01*
X17238Y75070D01*
X9277Y81936D02*
X8232Y82368D01*
X9278Y81934D02*
X8232Y82368D01*
X13976Y79921D02*
X13602Y80826D01*
X13976Y79921D02*
X13602Y80826D01*
X9340Y77696D02*
X10384Y77264D01*
X9338Y77698D02*
X10384Y77264D01*
X10433D02*
X11417Y77640D01*
X7338Y102012D02*
X6891Y103091D01*
X8692Y102248D02*
X7952Y102000D01*
X7442Y101410D01*
X7274Y101577D02*
X7338Y102012D01*
X3968Y100168D02*
X4952Y99724D01*
X5354Y99322D02*
X4686Y98683D01*
X4530Y97771D01*
X4946Y96946D01*
X8139Y84271D02*
X9196Y84800D01*
X9725Y85857D01*
X4946Y93605D02*
X4582Y93006D01*
X2480Y102196D02*
X2924Y101212D01*
X3209Y91633D02*
X1908Y91163D01*
Y88365D02*
X2680Y87954D01*
X7383Y82736D02*
X7830Y83815D01*
X8183Y82368D02*
X7298Y82073D01*
X6766Y81305D01*
X6801Y80372D01*
X7389Y79647D01*
X7579Y77756D02*
X7204Y78661D01*
X7579Y77756D02*
X7204Y78661D01*
X4182Y81692D02*
X5260Y81245D01*
X6339Y81692D01*
X4429Y76490D02*
X4938Y77308D01*
X2603Y79643D02*
X1908Y79253D01*
X42520Y69632D02*
X42968Y68556D01*
X44045Y68110D01*
X45827Y67284D02*
X45014Y67698D01*
X44113Y67556D01*
X43468Y66910D01*
X43325Y66009D01*
X43740Y65196D01*
X42520Y66782D02*
X42249Y67649D01*
X41533Y68209D01*
X42248Y68767D01*
X42520Y69632D01*
X41929Y64493D02*
X42520Y65699D01*
X43031Y61436D02*
X42126Y61811D01*
X41903D02*
X42323Y62992D01*
X41929Y64140D01*
X43031Y61436D02*
X42126Y61811D01*
X33799Y68149D02*
X34843Y67716D01*
X35886Y68149D01*
X36319Y69193D01*
X33563Y65748D02*
X32746Y65453D01*
X32776Y65748D02*
X32343Y66792D01*
X33563Y65748D02*
X32746Y65453D01*
X37713Y45298D02*
X37890Y44779D01*
X35827Y44783D02*
X36304Y44863D01*
X35827Y44783D02*
X36304Y44863D01*
X37890Y44779D02*
X37087Y44409D01*
X37890Y44779D02*
X37087Y44409D01*
X34770Y42520D02*
X34941Y43209D01*
X33528Y56560D02*
X33490Y55809D01*
X33785Y55118D01*
X32087Y56816D02*
X32778Y56522D01*
X33528Y56560D01*
X33785Y55118D02*
X33465Y54134D01*
X33785Y53150D01*
X32131Y52972D02*
X31857Y53381D01*
X32131Y52972D02*
X31857Y53381D01*
X32513Y39961D02*
X32403Y38990D01*
X32797Y38097D01*
X31988Y43209D02*
X32159Y42520D01*
X32797Y38097D02*
X31866Y38129D01*
X31101Y37597D01*
X30807Y36713D01*
X30255Y64704D02*
X31585Y64299D01*
X30192Y68943D02*
X29379Y69358D01*
X28478Y69215D01*
X27832Y68570D01*
X27690Y67668D01*
X28104Y66855D01*
X30118Y56816D02*
X31102Y56496D01*
X32087Y56816D01*
X30198Y62913D02*
X29858Y62306D01*
X30198Y62913D02*
X29858Y62306D01*
X27854Y57091D02*
X28528Y56610D01*
X29349Y56510D01*
X30118Y56816D01*
X30199Y55039D02*
X29294Y55413D01*
X29528Y62697D02*
X29274Y63638D01*
X28581Y64323D01*
X27638Y64567D01*
X26700Y64303D01*
X26022Y63603D01*
X25788Y62657D01*
X26062Y61722D01*
X26769Y61051D01*
X27717Y60828D01*
X27854Y60232D02*
X27461Y59153D01*
Y58994D02*
X26557Y59350D01*
X25664Y58969D01*
X25295Y58071D01*
X30199Y55039D02*
X29294Y55413D01*
X30626Y44863D02*
X31102Y44783D01*
X29232Y46998D02*
X28740Y48120D01*
X27707Y43996D02*
X28785Y44443D01*
X29232Y45522D01*
X25289Y44783D02*
X25849Y44208D01*
X26624Y43996D01*
X43110Y33841D02*
X44094Y33465D01*
X45079Y33841D01*
X41142D02*
X42126Y33465D01*
X43110Y33841D01*
X39173D02*
X40157Y33465D01*
X41142Y33841D01*
X37205D02*
X38189Y33465D01*
X39173Y33841D01*
X35236D02*
X36220Y33465D01*
X37205Y33841D01*
X33268D02*
X34252Y33465D01*
X35236Y33841D01*
X33268Y30020D02*
X34172Y30395D01*
X34547Y31299D01*
X34172Y32204D01*
X33268Y32579D01*
X31711Y28346D02*
X32087Y29331D01*
X31916Y30020D01*
X31711Y26378D02*
X32087Y27362D01*
X31711Y28346D01*
Y24409D02*
X32087Y25394D01*
X31711Y26378D01*
X32087Y23425D02*
X31711Y24409D01*
X43110Y18915D02*
X42126Y19291D01*
X41142Y18915D01*
X37205D02*
X36220Y19291D01*
X35236Y18915D01*
X45079D02*
X44094Y19291D01*
X43110Y18915D01*
X41142D02*
X40157Y19291D01*
X39173Y18915D01*
X38189Y19291D01*
X37205Y18915D01*
X37161Y2146D02*
X37489Y1909D01*
X37161Y2146D02*
X37489Y1909D01*
X35236Y18915D02*
X34252Y19291D01*
X33268Y18915D01*
X32071Y19276D01*
X31711Y20472D02*
X32087Y21457D01*
X34451Y1979D02*
X35435Y2390D01*
X36034Y3273D01*
X32383Y3898D02*
X32711Y2779D01*
X33638Y2072D01*
X34451Y1979D01*
X31030Y32579D02*
X31201Y33268D01*
X30807Y34941D02*
X31220Y33917D01*
X32229Y33466D01*
X33268Y33841D01*
X31201Y33268D02*
X30768Y34312D01*
X29724Y34744D01*
X32087Y21457D02*
X31711Y22441D01*
X32087Y23425D01*
Y19488D02*
X31711Y20472D01*
X27795Y32224D02*
X28555Y31819D01*
X28506Y35688D02*
X27461Y36122D01*
X28505Y35690D02*
X27461Y36122D01*
X27793Y32225D02*
X28555Y31819D01*
X28543Y30807D01*
X27227Y31751D02*
X26181Y32185D01*
X27225Y31753D02*
X26181Y32185D01*
X30807Y16043D02*
X31004Y15307D01*
Y5807D02*
X31379Y4902D01*
X31004Y5807D02*
X31379Y4902D01*
X28365Y14745D02*
X28740Y15650D01*
X28365Y14745D02*
X28740Y15650D01*
X25787Y12697D02*
X26692Y13072D01*
X25787Y12697D02*
X26692Y13072D01*
X23031Y66956D02*
X23949Y66554D01*
X24941Y66683D01*
X25725Y67306D01*
X26076Y68244D01*
X25295Y54035D02*
X25349Y53669D01*
X25295Y54035D02*
X25349Y53669D01*
X25005Y53445D01*
X17028Y65551D02*
X16767Y66503D01*
X16058Y67190D01*
X15098Y67420D01*
X13288Y65611D02*
X13514Y64660D01*
X14188Y63952D01*
X15128Y63681D01*
X16075Y63922D01*
X16772Y64608D01*
X17028Y65551D01*
X22090Y46659D02*
X22117Y45753D01*
X22567Y44967D01*
X23333Y44483D01*
X24237Y44417D01*
X25065Y44783D01*
X22287Y51125D02*
X21452Y50410D01*
X21162Y49350D01*
X24902Y37598D02*
X24620Y38466D01*
X23881Y39003D01*
X22969D01*
X22231Y38466D01*
X21949Y37598D01*
X20885Y42796D02*
X21260Y43701D01*
X20472Y53445D02*
X20847Y52540D01*
X20472Y53445D02*
X20847Y52540D01*
X20885Y42796D02*
X21260Y43701D01*
X19076Y47263D02*
X18701Y46358D01*
X19076Y47263D02*
X18701Y46358D01*
X11417Y68012D02*
X11792Y67107D01*
X11417Y68012D02*
X11792Y67107D01*
X10335Y65551D02*
X10074Y66503D01*
X9365Y67190D01*
X8405Y67420D01*
X6595Y65611D02*
X6821Y64660D01*
X7495Y63952D01*
X8435Y63681D01*
X9382Y63922D01*
X10079Y64608D01*
X10335Y65551D01*
X5020Y67716D02*
X5394Y66812D01*
X5020Y67716D02*
X5394Y66812D01*
X10260Y57087D02*
X9355Y56712D01*
X10260Y57087D02*
X9355Y56712D01*
X13461Y54528D02*
X13293Y53598D01*
X13601Y52704D01*
X14306Y52075D01*
X15229Y51871D01*
X16133Y52145D01*
X16789Y52826D01*
X17028Y53740D01*
X8481Y55838D02*
X7533Y55614D01*
X6826Y54943D01*
X6552Y54008D01*
X6786Y53062D01*
X7464Y52362D01*
X8402Y52099D01*
X9345Y52342D01*
X10038Y53028D01*
X10292Y53969D01*
X1908Y37682D02*
X2245Y37087D01*
X1908Y37682D02*
X2245Y37087D01*
X1870Y37992D02*
X1908Y37682D01*
X1870Y37992D02*
X1908Y37682D01*
X21949Y34646D02*
X22381Y33602D01*
X23425Y33169D01*
X21949Y34646D02*
X22381Y33602D01*
X23425Y33169D01*
X22238Y32708D02*
X21869Y33483D01*
X22238Y32708D02*
X21869Y33483D01*
X25369Y32185D02*
X24163Y32776D01*
X22687D02*
X22238Y32708D01*
X22233Y21358D02*
X21665Y20799D01*
X21457Y20030D01*
X20965Y35187D02*
X20518Y36266D01*
X19439Y36713D01*
X17717Y21457D02*
X18209Y21358D01*
X17717Y21457D02*
X18209Y21358D01*
X21063Y19291D02*
X20781Y20159D01*
X20043Y20695D01*
X19130D01*
X18392Y20159D01*
X18110Y19291D01*
X21457Y18553D02*
X21984Y17400D01*
X21654Y16325D01*
X21999Y15256D01*
X20590D02*
X21063Y16339D01*
X18110D02*
X18583Y15256D01*
X15157Y15453D02*
X15532Y14548D01*
X15157Y15453D02*
X15532Y14548D01*
X17009Y13072D02*
X17913Y12697D01*
X17009Y13072D02*
X17913Y12697D01*
X11792Y37322D02*
X11446Y36688D01*
X11792Y37322D02*
X11446Y36688D01*
X10089Y36713D02*
X9010Y36266D01*
X8563Y35187D01*
X8116Y36266D01*
X7037Y36713D01*
X4429Y34104D02*
X4700Y33237D01*
X5416Y32677D01*
X4429Y30167D02*
X5049Y28940D01*
X5416Y32677D02*
X4700Y32118D01*
X4429Y31250D01*
X9627Y22520D02*
X10531Y22146D01*
X9627Y22520D02*
X10531Y22146D01*
X5049Y28940D02*
X4646Y28031D01*
X4767Y27044D01*
X5377Y26258D01*
X6303Y25896D01*
X7283Y26060D01*
Y25394D02*
X7658Y24489D01*
X7283Y25394D02*
X7658Y24489D01*
X134984Y121817D02*
X137233Y118839D01*
X135214Y120083D02*
X136294D01*
X138288Y117299D02*
X138665Y116748D01*
X137233Y118839D02*
X138288Y117299D01*
X132600Y124688D02*
X134984Y121817D01*
X134658Y118114D02*
X137729D01*
X139335Y115593D02*
X139916Y114391D01*
X138665Y116748D02*
X139335Y115593D01*
X140406Y113149D02*
X140801Y111874D01*
X139916Y114391D02*
X140406Y113149D01*
X130721Y114178D02*
X140000D01*
X132690Y116146D02*
X139014D01*
X129159Y112209D02*
X140697D01*
X130085Y127447D02*
X132600Y124688D01*
X130578Y123279D02*
Y126907D01*
X132546Y123143D02*
Y124747D01*
X127446Y130086D02*
X130085Y127447D01*
X128609Y121531D02*
Y128923D01*
X126641Y119562D02*
Y130820D01*
X133727Y122052D02*
X134790D01*
X134515Y121264D02*
Y122382D01*
X130733Y114189D02*
X134630Y118086D01*
X132960Y122819D02*
X134630Y121149D01*
X127190Y114178D02*
X127682D01*
X128609Y112759D02*
Y113637D01*
X141099Y110572D02*
X141299Y109252D01*
X140801Y111874D02*
X141099Y110572D01*
X141399Y107253D02*
Y107921D01*
X141299Y109252D02*
X141399Y107921D01*
X136642Y108272D02*
X141372D01*
X134673Y110240D02*
X141149D01*
X133970Y110944D02*
X141399Y103515D01*
X140420Y104494D02*
Y113103D01*
X140579Y104335D02*
X141399D01*
X138610Y106304D02*
X141399D01*
Y103515D02*
Y107253D01*
X138681Y90387D02*
Y90715D01*
X134031Y90556D02*
X138681D01*
X134515Y110399D02*
Y117971D01*
X138452Y106462D02*
Y117060D01*
X136483Y108431D02*
Y119832D01*
X130049Y111319D02*
X133065D01*
X130578D02*
Y114048D01*
X132546Y111319D02*
Y116003D01*
X136483Y89349D02*
Y91043D01*
X134515Y89075D02*
Y91043D01*
X131565D02*
X137041D01*
X131541Y90945D02*
X133071D01*
X118838Y137234D02*
X121817Y134985D01*
X120735Y134953D02*
Y135801D01*
X121817Y134985D02*
X124688Y132600D01*
X121149Y134630D02*
X122819Y132960D01*
X101603Y135831D02*
X120696D01*
X117299Y138288D02*
X118838Y137234D01*
X118767Y135090D02*
Y137283D01*
X123403Y131894D02*
X125463D01*
X122847Y129926D02*
X127606D01*
X124688Y132600D02*
X127446Y130086D01*
X121916Y133862D02*
X123168D01*
X122704Y133075D02*
Y134248D01*
X115593Y139336D02*
X116748Y138666D01*
X114391Y139917D02*
X115593Y139336D01*
X116748Y138666D02*
X117299Y138288D01*
X114830Y131373D02*
Y139705D01*
X113149Y140406D02*
X114391Y139917D01*
X111965Y140773D02*
X113149Y140406D01*
X112083Y139768D02*
X114699D01*
X114189Y130733D02*
X118086Y134630D01*
X116798Y133342D02*
Y138631D01*
X109477Y127957D02*
X113948D01*
X107508Y129926D02*
X113679D01*
X100372Y137800D02*
X118012D01*
X103571Y133862D02*
X117319D01*
X105540Y131894D02*
X115350D01*
X120879Y127957D02*
X129575D01*
X119316Y122052D02*
X129130D01*
X126000Y118921D02*
X129897Y122819D01*
X121285Y120083D02*
X127161D01*
X117348Y124020D02*
X133155D01*
X118910Y125988D02*
X131415D01*
X117333Y124035D02*
X130049Y111319D01*
X125222Y116146D02*
X125759D01*
X126000Y115859D02*
X127670Y114189D01*
X126641Y114727D02*
Y115219D01*
X123253Y118114D02*
X125490D01*
X118921Y126000D02*
X122819Y129897D01*
X120735Y120633D02*
Y127813D01*
X124672Y116696D02*
Y132613D01*
X122704Y118664D02*
Y129782D01*
X114189Y127670D02*
X115859Y126000D01*
X114830Y124409D02*
Y127030D01*
X116798Y124355D02*
Y125448D01*
X118767Y122601D02*
Y125859D01*
X111445Y125988D02*
X115871D01*
X113024Y124409D02*
X116428D01*
X138681Y82513D02*
Y82841D01*
X136483Y82185D02*
Y83879D01*
X136220Y89075D02*
X136474Y89328D01*
X134358Y84153D02*
X136220D01*
X134040Y82682D02*
X138681D01*
X136220Y84153D02*
X136474Y83900D01*
X138681Y70702D02*
Y71030D01*
X135925Y70374D02*
X137041D01*
X131565Y71358D02*
X137041D01*
X131565Y82185D02*
X137041D01*
X134031Y70871D02*
X138681D01*
X134358Y89075D02*
X136220D01*
X130578Y86307D02*
Y86922D01*
X129626Y88189D02*
X130537D01*
X128609Y84689D02*
Y88637D01*
X131541Y82284D02*
X133071D01*
X134515Y82185D02*
Y84153D01*
X129528Y85039D02*
X130537D01*
X131541Y71260D02*
X133071D01*
X136483Y70374D02*
Y71358D01*
X134374Y64424D02*
X134880Y63918D01*
X134374Y69434D02*
X134880Y69940D01*
X138681Y62828D02*
Y63156D01*
X136483Y62500D02*
Y63484D01*
X134040Y62997D02*
X138681D01*
X135925Y63484D02*
X137041D01*
X131565Y62500D02*
X137041D01*
X134515Y69575D02*
Y71358D01*
X130578Y66622D02*
Y67237D01*
X130108Y67923D02*
X130458Y68273D01*
X129114Y66929D02*
X130108Y67923D01*
X131541Y62598D02*
X133071D01*
X134515Y62500D02*
Y64283D01*
X129119Y66934D02*
X130785D01*
X129114Y66929D02*
X130458Y65585D01*
X125211Y86619D02*
X130786D01*
X125218Y84650D02*
X128568D01*
X126641Y83293D02*
Y89935D01*
X123545Y88587D02*
X128657D01*
X124672Y83293D02*
Y84263D01*
X128159Y69872D02*
X128509Y70222D01*
X124672Y86997D02*
Y89935D01*
X119193Y86122D02*
X119868D01*
X119193Y84842D02*
Y86122D01*
X126191Y67904D02*
X128159Y69872D01*
X126641Y68353D02*
Y70250D01*
X123545Y68902D02*
X127190D01*
X123833Y67421D02*
X124705D01*
X126191Y65955D02*
X128509Y63637D01*
X125809Y64965D02*
X127181D01*
X126641Y63608D02*
Y65505D01*
X124672Y67421D02*
Y70250D01*
X119193Y66437D02*
X119868D01*
X119193Y65650D02*
Y66437D01*
X123833Y64468D02*
X124705D01*
X124672Y63608D02*
Y64468D01*
X117433Y65650D02*
X119193D01*
X117706Y65453D02*
X119868D01*
X107920Y141399D02*
X108863Y141328D01*
X106956Y130478D02*
Y141399D01*
X104987Y132447D02*
Y141399D01*
X99082Y139066D02*
Y141399D01*
X97113Y138703D02*
Y141399D01*
X103019Y134415D02*
Y141399D01*
X101050Y136383D02*
Y141399D01*
X108924Y128509D02*
Y138727D01*
X112861Y124573D02*
Y140495D01*
X110893Y126541D02*
Y138308D01*
X100486Y136948D02*
X113024Y124409D01*
X96514Y123917D02*
X98195Y122237D01*
X95145Y139066D02*
Y141399D01*
X91208Y139066D02*
Y141399D01*
X93176Y138703D02*
Y141399D01*
X89239Y138703D02*
Y141399D01*
X87271Y132382D02*
Y141399D01*
X85302Y132382D02*
Y141399D01*
X91208Y132382D02*
Y134640D01*
X90794Y135054D02*
X93466Y132382D01*
X89239D02*
Y135509D01*
X84304Y135831D02*
X88925D01*
X84624Y137800D02*
X88604D01*
X89173Y123917D02*
X96514D01*
X97113Y122003D02*
Y123319D01*
X95145Y121555D02*
Y123917D01*
X93176Y121555D02*
Y123917D01*
X89173Y122052D02*
X97205D01*
X91208Y121555D02*
Y123917D01*
X91142Y121555D02*
X96457D01*
X91142Y117815D02*
Y121555D01*
Y117815D02*
X92421D01*
X90376Y118114D02*
X91142D01*
X92421Y116437D02*
Y117815D01*
X91208Y116437D02*
Y117815D01*
X90368Y120083D02*
X91142D01*
X88702Y116437D02*
X92421D01*
X89239Y120571D02*
Y123917D01*
X89173Y120568D02*
Y123917D01*
X83858Y120374D02*
X88535D01*
X83858D02*
Y120965D01*
X85302Y117967D02*
Y120374D01*
X87271Y119181D02*
Y120374D01*
X88702Y116437D02*
X90316Y118051D01*
X89239Y116437D02*
Y116974D01*
X86692Y118602D02*
X88228Y120138D01*
X83661Y118114D02*
X85419D01*
X83334Y139066D02*
Y141399D01*
X81365Y138703D02*
Y141399D01*
X79397Y132382D02*
Y141399D01*
X65945Y139768D02*
X108389D01*
X65945Y141399D02*
X107920D01*
X65945Y137800D02*
X80730D01*
X77428Y132382D02*
Y141399D01*
X83334Y132382D02*
Y135146D01*
X81365Y132382D02*
Y135509D01*
X83471Y120965D02*
X83858D01*
X65945Y133862D02*
X91985D01*
X65945Y135831D02*
X81050D01*
X69390Y132382D02*
X93466D01*
X71523D02*
Y141399D01*
X69554Y132382D02*
Y141399D01*
X75460Y132382D02*
Y141399D01*
X73491Y132382D02*
Y141399D01*
X67586Y131108D02*
Y141399D01*
X65945Y129467D02*
Y141399D01*
Y131894D02*
X68372D01*
X65945Y129467D02*
X68485Y132007D01*
X65945Y129926D02*
X66403D01*
X44783Y121405D02*
Y122244D01*
X44783Y120571D02*
Y122244D01*
X43964Y120571D02*
Y122244D01*
X83032Y120083D02*
X88172D01*
X83334Y119793D02*
Y120758D01*
X83661Y117766D02*
Y118848D01*
X83334Y116437D02*
Y116821D01*
X82885Y116437D02*
X85210D01*
X50670Y114192D02*
X51869Y115391D01*
X48228Y115307D02*
X51378D01*
X47587Y114178D02*
X50656D01*
X44783Y115328D02*
Y116783D01*
X44783Y115322D02*
Y117618D01*
X43964Y113923D02*
Y117618D01*
X49869Y113432D02*
Y115307D01*
X47901Y113374D02*
Y115344D01*
X50295Y112833D02*
Y113287D01*
X47441Y109252D02*
Y112303D01*
X46481Y112209D02*
X47441D01*
X101050Y67454D02*
Y68721D01*
X99082Y67800D02*
Y68721D01*
X101969Y63799D02*
Y68721D01*
X101258Y66934D02*
X101969D01*
X98076Y68721D02*
X101969D01*
X98076Y66934D02*
X98545D01*
X98076Y64005D02*
Y68721D01*
X101279Y64965D02*
X101969D01*
X98076D02*
X98524D01*
X101969Y63799D02*
X106988D01*
X101279Y63957D02*
Y66693D01*
X65617Y63733D02*
Y64086D01*
X65454Y64218D02*
X66090Y63701D01*
X58760Y110240D02*
X59941D01*
X58760Y110311D02*
X59941Y111492D01*
Y65847D02*
Y111492D01*
X59712Y96652D02*
Y111263D01*
X58760Y106304D02*
X59941D01*
X58760Y108272D02*
X59941D01*
X58760Y104335D02*
X59941D01*
X59332Y94493D02*
X59941D01*
X59712Y93896D02*
Y95277D01*
X58760Y100398D02*
X59941D01*
X58760Y102366D02*
X59941D01*
X103019Y63287D02*
Y63799D01*
X101279Y63957D02*
X101949Y63287D01*
X104987D02*
Y63799D01*
X98524Y63386D02*
Y66693D01*
X106063Y62997D02*
X106988D01*
X101949Y63287D02*
X105217D01*
X98927Y62411D02*
X99284Y62055D01*
X98959Y62248D02*
X99271Y62060D01*
X98454Y62767D02*
X98684Y62485D01*
X98275Y63084D02*
X98454Y62767D01*
X98684Y62485D02*
X98959Y62248D01*
X98152Y63426D02*
X98275Y63084D01*
X98084Y63823D02*
X98152Y63426D01*
X66356Y63522D02*
X67583Y62843D01*
X65609Y62997D02*
X67306D01*
X60344Y64872D02*
X61911Y63305D01*
X70339Y62056D02*
X70695Y61942D01*
X69515Y62187D02*
X70173Y62088D01*
X70996Y61790D02*
X71298Y61571D01*
X70695Y61942D02*
X70996Y61790D01*
X67876Y62713D02*
X69204Y62262D01*
X67586Y61319D02*
Y62842D01*
X63238Y61319D02*
X64321D01*
X58661Y98430D02*
X59941D01*
X58760Y98923D02*
Y110311D01*
X56131Y91929D02*
X56609D01*
X55023Y90821D02*
X56131Y91929D01*
X54635Y90556D02*
X59941D01*
X51991Y90447D02*
X54119D01*
X48163Y86619D02*
X59941D01*
X50132Y88587D02*
X59941D01*
X48140Y86595D02*
X51991Y90447D01*
X46616Y109704D02*
X47508Y108812D01*
X45932Y110093D02*
Y111711D01*
X50295Y107241D02*
Y108722D01*
X43964Y110138D02*
Y110679D01*
X48938Y107382D02*
X49656D01*
X49869Y107367D02*
Y108123D01*
X48478Y107843D02*
X48938Y107382D01*
X46260Y72839D02*
X59941D01*
X46260Y74808D02*
X59941D01*
X49571Y70871D02*
X59941D01*
X46259Y78745D02*
X59941D01*
X44842Y80713D02*
X59941D01*
X46260Y76776D02*
X59941D01*
X48123Y64965D02*
X60260D01*
X49203Y68902D02*
X59941D01*
X47928Y62997D02*
X61950D01*
X46178Y66934D02*
X59941D01*
X46260Y72054D02*
Y78684D01*
X45932Y79611D02*
Y86221D01*
X47901Y72046D02*
Y86407D01*
X43964Y81591D02*
Y86221D01*
X45932Y67179D02*
Y68167D01*
X45827Y67284D02*
X47979Y65133D01*
X47901Y65211D02*
Y68308D01*
X44045Y68110D02*
X45522D01*
X43964Y67468D02*
Y68112D01*
X43740Y65196D02*
X45891Y63045D01*
X139862Y50825D02*
Y51438D01*
X139487Y51064D02*
X139862Y51438D01*
X139783Y47127D02*
X141399Y48743D01*
X136357Y50689D02*
X138583D01*
X138348Y49311D02*
X139862Y50825D01*
X138452Y49415D02*
Y50689D01*
X139699Y45280D02*
X141399D01*
X139904Y47249D02*
X141399D01*
X139159Y45820D02*
X141399Y43580D01*
X140420Y44559D02*
Y47764D01*
X127816Y51673D02*
X129429Y50060D01*
X122343Y51673D02*
X127816D01*
X136483Y49311D02*
Y50689D01*
X134350Y48683D02*
X136357Y50689D01*
X117876Y55610D02*
X121438Y52048D01*
X135827Y49311D02*
X138348D01*
X134885Y49217D02*
X135345D01*
X134515Y48529D02*
Y48847D01*
X134350Y48365D02*
Y48683D01*
Y48365D02*
X134922Y48936D01*
X141399Y43580D02*
Y48743D01*
X129429Y34191D02*
Y50060D01*
X128609Y33371D02*
Y50881D01*
X126641Y31403D02*
Y51673D01*
X114581Y37406D02*
X129429D01*
X112612Y39375D02*
X129429D01*
X126457Y31220D02*
X129429Y34191D01*
X115821Y35438D02*
X129429D01*
X140801Y31435D02*
X140970Y32172D01*
X140298Y31501D02*
X140816D01*
X140406Y30159D02*
X140801Y31435D01*
X140420Y30205D02*
Y31622D01*
X116208Y33469D02*
X128707D01*
X115960Y31501D02*
X126738D01*
X139075Y30277D02*
X140970Y32172D01*
X124672Y25879D02*
Y51673D01*
X122704Y23911D02*
Y51673D01*
X120735Y21942D02*
Y52751D01*
X118767Y19974D02*
Y54719D01*
X114830Y37149D02*
Y55610D01*
X112861Y39126D02*
Y55610D01*
X116798Y19681D02*
Y55610D01*
X116208Y32666D02*
Y33807D01*
X115851Y35375D02*
X116147Y34274D01*
X115101Y36799D02*
X115671Y35811D01*
X114411Y37576D02*
X114814Y37173D01*
X115851Y31097D02*
X116147Y32199D01*
X111319Y55610D02*
X117876D01*
X110893Y53117D02*
Y55683D01*
X107363Y59036D02*
X110414Y55985D01*
X108564Y56767D02*
X109771Y55161D01*
X109789Y55123D02*
X118363D01*
X109913Y54940D02*
X110874Y53177D01*
X112085Y49217D02*
X129429D01*
X111751Y50802D02*
X112166Y48836D01*
X112284Y47249D02*
X129429D01*
X112201Y48576D02*
X112327Y46572D01*
X111629Y51186D02*
X128304D01*
X110881Y53154D02*
X120332D01*
X110982Y52938D02*
X111678Y51054D01*
X106276Y61028D02*
X106988D01*
Y59941D02*
Y63799D01*
X106956Y58384D02*
Y63799D01*
X103705Y60532D02*
X105217D01*
X103705D02*
X104926Y59881D01*
X104987Y59831D02*
Y60532D01*
X108264Y57091D02*
X109308D01*
X108924Y56287D02*
Y57475D01*
X106072Y59060D02*
X107340D01*
X105148Y59741D02*
X106765Y58549D01*
X106964Y58378D02*
X108391Y56965D01*
X112239Y45280D02*
X129429D01*
X112158Y44308D02*
X112324Y46309D01*
X111946Y43312D02*
X129429D01*
X111662Y42092D02*
X112117Y44048D01*
X111389Y41343D02*
X129429D01*
X111242Y40968D02*
X111584Y41841D01*
X111300Y40687D02*
X114411Y37576D01*
X102621Y32007D02*
X105732Y28897D01*
X101532Y31749D02*
X102340Y32066D01*
X103019Y22146D02*
Y31610D01*
X101050Y22146D02*
Y31615D01*
X100580Y31501D02*
X103128D01*
X99486Y31234D02*
X101300Y31675D01*
X97389Y31000D02*
X99246Y31193D01*
X87477Y34007D02*
X89046Y32995D01*
X85864Y35366D02*
X87281Y34152D01*
X87271Y24705D02*
Y34162D01*
X85302Y24705D02*
Y35972D01*
X62826Y35438D02*
X85808D01*
X84448Y36931D02*
X85689Y35537D01*
X64794Y33469D02*
X88311D01*
X93196Y31385D02*
X95037Y31075D01*
X91177Y31998D02*
X92959Y31442D01*
X93176Y24418D02*
Y31393D01*
X91208Y24705D02*
Y31988D01*
X66763Y31501D02*
X92772D01*
X89259Y32877D02*
X90950Y32086D01*
X89239Y24705D02*
Y32892D01*
X139916Y28917D02*
X140406Y30159D01*
X139075Y29532D02*
X140159D01*
X139075Y27266D02*
Y30277D01*
X126083Y27290D02*
Y30315D01*
X114976Y29532D02*
X126083D01*
X115101Y29674D02*
X115671Y30662D01*
X114830Y19681D02*
Y29324D01*
X114007Y28494D02*
X114814Y29300D01*
X139335Y27715D02*
X139916Y28917D01*
X112431Y27564D02*
X126083D01*
X139075Y27266D02*
X139335Y27715D01*
X118473Y19681D02*
X126083Y27290D01*
X106431Y21658D02*
X120451D01*
X108399Y19690D02*
X118482D01*
X108408Y19681D02*
X118473D01*
X112646Y27637D02*
X113633Y28207D01*
X107932Y27456D02*
X109034Y27161D01*
X112861Y19681D02*
Y27761D01*
X106956Y21133D02*
Y27949D01*
X106509Y28207D02*
X107496Y27637D01*
X105732Y28897D02*
X106135Y28494D01*
X104987Y22146D02*
Y29641D01*
X111109Y27161D02*
X112210Y27456D01*
X109501Y27099D02*
X110641D01*
X110893Y19681D02*
Y27147D01*
X108924Y19681D02*
Y27190D01*
X106318Y21771D02*
X108408Y19681D01*
X130085Y15861D02*
X131324Y17220D01*
X127446Y13222D02*
X130085Y15861D01*
X126088Y11984D02*
X131324Y17220D01*
X126088Y11984D02*
X127446Y13222D01*
X121817Y8324D02*
X122456Y8854D01*
X104758Y8854D02*
X122428D01*
X118767Y6025D02*
Y8854D01*
X118838Y6074D02*
X121817Y8324D01*
X120735Y7507D02*
Y8854D01*
X117299Y5020D02*
X118838Y6074D01*
X116798Y4677D02*
Y8854D01*
X103782Y7879D02*
X121227D01*
X104409Y5910D02*
X118598D01*
X116748Y4642D02*
X117299Y5020D01*
X114830Y3604D02*
Y8854D01*
X112861Y2813D02*
Y8854D01*
X110893Y2282D02*
Y8854D01*
X108924Y1984D02*
Y8854D01*
X104987Y1909D02*
Y8854D01*
X103689Y7785D02*
X104758Y8854D01*
X106956Y1909D02*
Y8854D01*
X115593Y3973D02*
X116748Y4642D01*
X114391Y3391D02*
X115593Y3973D01*
X113149Y2902D02*
X114391Y3391D01*
X111873Y2507D02*
X113149Y2902D01*
X110572Y2209D02*
X111873Y2507D01*
X109251Y2009D02*
X110572Y2209D01*
X107920Y1909D02*
X109251Y2009D01*
X93977Y23627D02*
X122419D01*
X95280Y31051D02*
X97145Y30991D01*
X99082Y22146D02*
Y31176D01*
X97113Y22146D02*
Y30992D01*
X70700Y27564D02*
X107711D01*
X68731Y29532D02*
X105096D01*
X72668Y25595D02*
X124388D01*
X93274Y24330D02*
X95458Y22146D01*
X105413D01*
X93161Y9646D02*
X97846D01*
X97113D02*
Y12500D01*
X92618D02*
X98542D01*
X92618Y11816D02*
X97848D01*
X92960Y9847D02*
X97737D01*
X95145Y22459D02*
Y31078D01*
X92618Y10189D02*
Y12500D01*
X95145Y9646D02*
Y12500D01*
X93176Y9646D02*
Y12500D01*
X73559Y24705D02*
X92369D01*
X92618Y10189D02*
X93161Y9646D01*
X85855Y9449D02*
X86959D01*
X99082Y1909D02*
Y7087D01*
X95145Y1909D02*
Y7087D01*
X93206D02*
X100495D01*
X93385Y5910D02*
X100316D01*
X97113Y1909D02*
Y7087D01*
X103019Y1909D02*
Y4241D01*
X101050Y1909D02*
Y4604D01*
X85574Y3941D02*
X115529D01*
X83605Y1973D02*
X108774D01*
X83539Y1909D02*
X107920D01*
X90434Y8754D02*
X90956Y8232D01*
X87034Y7879D02*
X90131D01*
X89239Y1909D02*
Y8768D01*
X87271Y7680D02*
Y9131D01*
X85302Y8200D02*
Y9574D01*
X93176Y1909D02*
Y5254D01*
X87873Y5910D02*
X89292D01*
X91208Y1909D02*
Y4138D01*
X87271Y1909D02*
Y4722D01*
X83582Y1950D02*
X85767Y4135D01*
X85302Y1909D02*
Y3670D01*
X73022Y59060D02*
X73819D01*
X75460Y56300D02*
Y57419D01*
X73491Y55827D02*
Y59388D01*
X71423Y61456D02*
X71916Y60963D01*
X71523Y55827D02*
Y57417D01*
X76941Y55123D02*
X77756D01*
X71457Y55827D02*
Y57106D01*
X76546Y53154D02*
X79725D01*
X71457Y57091D02*
X75788D01*
X65748Y57106D02*
X71457D01*
Y55827D02*
X73933D01*
X69154Y61028D02*
X70576D01*
X67175Y61319D02*
X68258D01*
X69554Y60630D02*
Y62181D01*
X65217Y61028D02*
X66279D01*
X65617Y60598D02*
Y63039D01*
X69534Y57874D02*
X69897D01*
X69534Y60630D02*
X69897D01*
X69554Y57106D02*
Y57874D01*
X67175Y57185D02*
X68258D01*
X65617Y57106D02*
Y57906D01*
X81358Y51291D02*
X81506Y50782D01*
X81059Y51797D02*
X81358Y51291D01*
X81365Y49402D02*
Y51266D01*
X79397Y24705D02*
Y53482D01*
X72873Y60006D02*
X80882Y51997D01*
X77428Y24705D02*
Y55451D01*
X75460Y24705D02*
Y52597D01*
X81506Y50782D02*
X81524Y50195D01*
X81292Y49076D02*
X81483Y49932D01*
X81099Y46975D02*
X81256Y48835D01*
X81095Y46731D02*
X81191Y44867D01*
X71457Y51186D02*
X81388D01*
X71457Y49217D02*
X81324D01*
X71457Y47249D02*
X81122D01*
X71457Y53071D02*
X73933D01*
X71457Y52658D02*
Y53071D01*
X73491Y24772D02*
Y53071D01*
X71523Y26741D02*
Y53071D01*
X71457Y51791D02*
Y52658D01*
Y51791D02*
Y52658D01*
Y46870D02*
Y51791D01*
X69095Y46870D02*
X71457D01*
X69095Y46502D02*
Y46870D01*
X69554Y46031D02*
Y46870D01*
X66339Y46502D02*
Y46870D01*
X65617Y46031D02*
Y46870D01*
X65158Y57106D02*
X65748D01*
X65158D02*
Y57435D01*
X61713Y58711D02*
Y59793D01*
X62402Y57106D02*
Y57435D01*
X65158Y57106D02*
X65748D01*
X60039D02*
X62402D01*
X63649Y50817D02*
Y51791D01*
X46555Y51186D02*
X64961D01*
X60039Y51791D02*
X64961D01*
X59055Y51083D02*
X62835D01*
X61680Y57106D02*
Y63537D01*
X59712Y51083D02*
Y92521D01*
X57743Y50126D02*
Y91353D01*
X45408Y59060D02*
X61713D01*
X43964Y60503D02*
Y64972D01*
X45932Y58535D02*
Y63005D01*
X46555Y55123D02*
X60039D01*
X46555Y57091D02*
X60039D01*
X61680Y51083D02*
Y51791D01*
X60039D02*
Y57106D01*
X46555Y53154D02*
X60039D01*
X46555Y49217D02*
X57766D01*
X64123D02*
X64961D01*
Y46870D02*
Y51791D01*
X63649Y46752D02*
Y48593D01*
X59055Y48327D02*
X62835D01*
X59712Y46448D02*
Y48327D01*
X61680Y46063D02*
Y48327D01*
X64961Y46870D02*
X66339D01*
X63238Y46752D02*
X64321D01*
X46555Y47249D02*
X64961D01*
X61599Y46063D02*
X61962D01*
X55775Y45866D02*
Y91573D01*
X53806Y45866D02*
Y90447D01*
X51838Y45866D02*
Y90293D01*
X47901Y46371D02*
Y62972D01*
X46555Y46283D02*
Y57382D01*
X49869Y45866D02*
Y88324D01*
X57743Y45444D02*
Y49284D01*
X57907Y45280D02*
X58562D01*
X57696Y45491D02*
X58465Y44723D01*
X48706Y45866D02*
X56791D01*
X81628Y42555D02*
X82218Y40784D01*
X81220Y44625D02*
X81566Y42791D01*
X82311Y40558D02*
X83134Y38883D01*
X81365Y24705D02*
Y43856D01*
X69783Y45280D02*
X81170D01*
X69784Y44144D02*
Y45226D01*
X66184Y41343D02*
X82032D01*
X69537Y43312D02*
X81468D01*
X83257Y38672D02*
X84298Y37124D01*
X83334Y24705D02*
Y38558D01*
X61614Y37406D02*
X84109D01*
X60466Y39375D02*
X82893D01*
X61614Y36649D02*
X73559Y24705D01*
X67459Y42618D02*
X68258D01*
X69554Y28709D02*
Y43339D01*
X67586Y30678D02*
Y42618D01*
X66062Y41221D02*
X67459Y42618D01*
X61680Y36583D02*
Y40846D01*
X61614Y36649D02*
Y37697D01*
X65617Y32646D02*
Y40932D01*
X63649Y34615D02*
Y40846D01*
X60236Y9646D02*
Y13643D01*
X80343Y9449D02*
X81448D01*
X81365Y7981D02*
Y9449D01*
X81522Y7879D02*
X84619D01*
X83334Y5320D02*
Y8678D01*
X79397Y8053D02*
Y9782D01*
X82361Y5910D02*
X83780D01*
X82147Y4134D02*
X83801Y5788D01*
X80058Y4134D02*
X82147D01*
X76010Y7879D02*
X79108D01*
X76850Y5910D02*
X78215D01*
X77620Y5315D02*
X78262Y5958D01*
X75460Y8161D02*
Y9449D01*
X73444Y9369D02*
X74560Y8253D01*
X77428Y5315D02*
Y8666D01*
X73357Y9449D02*
X75936D01*
X60611Y8741D02*
X62992Y6360D01*
X61680Y4134D02*
Y7672D01*
X76671Y5315D02*
X77620D01*
X62992Y5610D02*
Y6360D01*
X63367Y4705D02*
X63938Y4134D01*
X61062D02*
X63938D01*
X59252Y40846D02*
X65158D01*
X59712Y40129D02*
Y40846D01*
X58961Y40880D02*
X61239Y38602D01*
X57743Y9913D02*
Y16136D01*
X57185Y13784D02*
X60095D01*
X57185Y15753D02*
X58127D01*
X57185Y16694D02*
X60236Y13643D01*
X57185Y10471D02*
Y16694D01*
X57809Y9847D02*
X60236D01*
X57185Y11816D02*
X60236D01*
X55001Y9036D02*
X55773Y8264D01*
X45932Y19286D02*
Y33470D01*
X44209Y33469D02*
X45948D01*
X43964Y19286D02*
Y33470D01*
X59696Y7879D02*
X61473D01*
X59712Y7847D02*
Y14168D01*
X59842Y5910D02*
X62992D01*
X59842Y5353D02*
Y7283D01*
X57185Y10471D02*
X59468Y8188D01*
X59842Y5353D02*
X61062Y4134D01*
X57658Y3918D02*
X59627Y1950D01*
X57743Y1909D02*
Y3833D01*
X47933Y1973D02*
X59603D01*
X47820Y1909D02*
X59670D01*
X52109Y7879D02*
X54698D01*
X52440Y5910D02*
X53859D01*
X53806Y1909D02*
Y8768D01*
X51874Y7643D02*
X52907Y8676D01*
X49944Y3941D02*
X57635D01*
X55775Y1909D02*
Y4138D01*
X51838Y1909D02*
Y4722D01*
X49869Y1909D02*
Y3867D01*
X48149Y2146D02*
X50151Y4148D01*
X43110Y120571D02*
X44783D01*
X38058Y120311D02*
Y122244D01*
X41995Y120062D02*
Y122244D01*
X28543D02*
X44783D01*
X36090Y119378D02*
Y122244D01*
X38544Y120083D02*
X42014D01*
X38943Y118114D02*
X42006D01*
X43110Y117618D02*
X44783D01*
X35117Y120083D02*
X36822D01*
X34488Y117776D02*
X36639Y119928D01*
X32153Y121758D02*
Y122244D01*
X28543D02*
Y139736D01*
X30184Y121309D02*
Y122244D01*
X28216Y121739D02*
Y139578D01*
X27714Y139336D02*
X28543Y139736D01*
X26874Y124020D02*
X28543D01*
X34121Y121344D02*
Y122244D01*
X34269Y118114D02*
X34826D01*
X33966Y121500D02*
X34731Y120734D01*
X30764Y120456D02*
X31808Y121500D01*
X28216Y117879D02*
Y118230D01*
X37033Y116146D02*
X44783D01*
X38058Y113386D02*
Y117171D01*
X41995Y113386D02*
Y118127D01*
X40027Y113386D02*
Y122244D01*
X36766Y115879D02*
X38727Y117840D01*
X33687Y117533D02*
X34731Y118577D01*
X36090Y113370D02*
Y114971D01*
X36614Y113386D02*
X42285D01*
X36614Y110433D02*
X42285D01*
X35262Y114178D02*
X44273D01*
X34088Y113003D02*
X36014Y114929D01*
X34121Y117212D02*
Y117967D01*
X31832Y116498D02*
X32430Y117096D01*
X27432Y117095D02*
X28476Y118139D01*
X30752Y113844D02*
X34143Y117235D01*
X31838Y116146D02*
X33055D01*
X32153Y115244D02*
Y116819D01*
X30752Y114570D02*
X31399Y115216D01*
X30752Y114178D02*
X31086D01*
X27432Y114938D02*
X27800Y114570D01*
X30752Y113844D02*
Y114570D01*
X26559Y138666D02*
X27714Y139336D01*
X26008Y138288D02*
X26559Y138666D01*
X25295Y137800D02*
X28543D01*
X26247Y126267D02*
Y138452D01*
X22611Y135831D02*
X28543D01*
X24469Y137234D02*
X26008Y138288D01*
X21490Y134985D02*
X24469Y137234D01*
X24279Y127412D02*
Y137090D01*
X24218Y127957D02*
X28543D01*
X26525Y125988D02*
X28543D01*
X25587Y126927D02*
X26561Y125952D01*
X17844Y131894D02*
X28543D01*
X20139Y133862D02*
X28543D01*
X22539Y129926D02*
X28543D01*
X22310Y130052D02*
Y135604D01*
X22803Y129711D02*
X23777Y128736D01*
X20342Y129616D02*
Y134031D01*
X18619Y132600D02*
X21490Y134985D01*
X15861Y130086D02*
X18619Y132600D01*
X15701Y129926D02*
X20700D01*
X19323Y128597D02*
X20437Y129711D01*
X19323Y126231D02*
X20297Y125257D01*
X19008Y125988D02*
X19566D01*
X13732Y127957D02*
X18924D01*
X25741Y122766D02*
X26561Y123586D01*
X26247Y114696D02*
Y123272D01*
X25741Y114708D02*
Y122766D01*
X22788Y122209D02*
Y122766D01*
X22107Y123447D02*
X22788Y122766D01*
X21829Y123169D02*
X22788Y122209D01*
X25741Y122052D02*
X44783D01*
X25741Y120083D02*
X26996D01*
X25741Y118114D02*
X28451D01*
X25741Y116146D02*
X26990D01*
X20494Y124020D02*
X21732D01*
X20342Y124525D02*
Y125214D01*
X19045Y125952D02*
X20019Y124978D01*
X22310Y122687D02*
Y123244D01*
X16680Y118663D02*
X19825Y115518D01*
Y113383D02*
Y115518D01*
X14719Y114178D02*
X19825D01*
X15354Y116146D02*
X19197D01*
X13585Y112209D02*
X18464D01*
X38524Y87031D02*
X38960Y86595D01*
X35160Y110240D02*
X47441D01*
X34822Y110138D02*
X45571D01*
X38524Y87031D02*
X45826Y79729D01*
X40905Y84650D02*
X59941D01*
X41995Y83560D02*
Y86221D01*
X42874Y82682D02*
X59941D01*
X41732Y78745D02*
X42635D01*
X39865Y86221D02*
X47235D01*
X40027Y85528D02*
Y86221D01*
X36090Y91528D02*
Y99023D01*
X34121Y89973D02*
Y100578D01*
X32153Y88043D02*
Y102508D01*
X38058Y93994D02*
Y96558D01*
X43307Y72054D02*
Y78072D01*
X41732Y79647D02*
X43307Y78072D01*
X41995Y71870D02*
Y79384D01*
X41732Y72054D02*
Y79647D01*
Y76776D02*
X43307D01*
X34357Y78949D02*
X36417Y76889D01*
X41732Y74808D02*
X43307D01*
X42520Y69636D02*
Y70718D01*
X42332Y68902D02*
X42708D01*
X42520Y69636D02*
Y70718D01*
X41732Y72839D02*
X43307D01*
X31541D02*
X36417D01*
X33878Y76776D02*
X36417D01*
X36090Y69983D02*
Y77216D01*
X34121Y72002D02*
Y78470D01*
X33127Y74808D02*
X36417D01*
X35253Y70871D02*
X36417D01*
X32153Y72719D02*
Y73539D01*
X33735Y72388D02*
X35886Y70237D01*
X30847Y72145D02*
X31891Y73189D01*
X17450Y104335D02*
X30582D01*
X30184Y85896D02*
Y104655D01*
X16827Y100398D02*
X34722D01*
X15781Y102366D02*
X32251D01*
X9837Y96461D02*
X38194D01*
X11758Y98430D02*
X36274D01*
X15291Y88587D02*
X32740D01*
X17290Y86619D02*
X30741D01*
X9114Y94493D02*
X38918D01*
X11455Y92524D02*
X36577D01*
X13226Y90556D02*
X34806D01*
X23468Y110240D02*
X24563D01*
X19720Y106304D02*
X28312D01*
X21548Y108272D02*
X28006D01*
X28216Y84163D02*
Y106388D01*
X18871Y84650D02*
X29160D01*
X27924Y72910D02*
X28689Y72145D01*
X28216Y72033D02*
Y72618D01*
X27840Y72408D02*
Y73001D01*
Y72408D02*
X28348Y71901D01*
X28793Y70871D02*
X31293D01*
X30233Y68902D02*
X33046D01*
X30184Y68951D02*
Y71756D01*
X28216Y69044D02*
Y69612D01*
X27506Y68902D02*
X28064D01*
X27303Y68700D02*
X28348Y69744D01*
X26247Y81774D02*
Y108777D01*
X24279Y80173D02*
Y110378D01*
X22310Y81595D02*
Y108956D01*
X20342Y83173D02*
Y107379D01*
X21294Y82682D02*
X26737D01*
X23001Y80713D02*
X25031D01*
X18373Y126363D02*
Y132376D01*
X16405Y125679D02*
Y130581D01*
X15565Y124839D02*
X16678Y125952D01*
X15565Y122473D02*
X16246Y121792D01*
X11892Y125988D02*
X16715D01*
X13222Y127447D02*
X15861Y130086D01*
X10276Y122052D02*
X15986D01*
X16246Y119709D02*
Y121792D01*
X15705Y118114D02*
X17229D01*
X11037Y120083D02*
X16246D01*
X10707Y124689D02*
X13222Y127447D01*
X14436Y119501D02*
Y128661D01*
X12468Y118945D02*
Y126620D01*
X10152Y124020D02*
X15115D01*
X10499Y121896D02*
Y124438D01*
X11037Y118114D02*
X12051D01*
X11037Y116675D02*
Y120754D01*
X12402Y116195D02*
Y116569D01*
X10939Y116146D02*
X11971D01*
X15354Y115425D02*
Y116569D01*
X18373Y111987D02*
Y116970D01*
X16405Y110414D02*
Y119043D01*
X14637Y114096D02*
X14920Y114379D01*
X14436Y108438D02*
Y113127D01*
X18373Y85602D02*
Y104949D01*
X11269Y110240D02*
X16158D01*
X12975Y108272D02*
X14359D01*
X13158Y111782D02*
X14202Y112826D01*
X12468Y108912D02*
Y111385D01*
X11291Y110749D02*
X11888Y111347D01*
X10235Y114705D02*
X11279Y115749D01*
X10499Y114969D02*
Y115526D01*
X13108Y107153D02*
Y107659D01*
X11243Y110136D02*
X12674Y108705D01*
X10155Y106268D02*
Y107048D01*
X8323Y121817D02*
X10707Y124689D01*
X8518Y122052D02*
X8818D01*
X8084Y117287D02*
Y120569D01*
X6074Y118839D02*
X8323Y121817D01*
X7013Y120083D02*
X8084D01*
X5044Y114247D02*
X8084Y117287D01*
X5578Y118114D02*
X8084D01*
X9151Y114178D02*
X9891D01*
X9203Y112837D02*
X9800Y113435D01*
X8531Y112772D02*
Y113557D01*
X7132Y112159D02*
X10477Y115504D01*
X7182Y112209D02*
X7739D01*
X6889Y111359D02*
X7933Y112403D01*
X5019Y117299D02*
X6074Y118839D01*
X4642Y116748D02*
X5019Y117299D01*
X4293Y116146D02*
X6944D01*
X6562Y115765D02*
Y119485D01*
X3972Y115593D02*
X4642Y116748D01*
X3391Y114391D02*
X3972Y115593D01*
X2901Y113149D02*
X3391Y114391D01*
X2610Y112209D02*
X4997D01*
X3306Y114178D02*
X4979D01*
X6562Y110873D02*
Y111805D01*
X2506Y111874D02*
X2901Y113149D01*
X2208Y110572D02*
X2506Y111874D01*
X2158Y110240D02*
X6442D01*
X6889Y109201D02*
X7654Y108436D01*
X9155Y108048D02*
X10155Y107048D01*
X8531Y106254D02*
Y108002D01*
X5592Y108272D02*
X7848D01*
X6562Y105402D02*
Y109686D01*
X7927Y106254D02*
X10155D01*
X6562Y103420D02*
Y104047D01*
X5973Y106304D02*
X10155D01*
X5847Y104135D02*
X6891Y103091D01*
X4594Y108823D02*
Y116665D01*
X2008Y109252D02*
X2208Y110572D01*
X2625Y107944D02*
Y112257D01*
X1935Y108272D02*
X2873D01*
X1908Y107921D02*
X2008Y109252D01*
X1908Y107253D02*
Y107921D01*
X4594Y104572D02*
Y105153D01*
X5600Y104335D02*
X6450D01*
X4445Y104547D02*
Y105113D01*
X1927Y106771D02*
X2377Y107220D01*
X1908Y106752D02*
Y107253D01*
X16405Y101333D02*
Y103248D01*
Y87303D02*
Y99258D01*
X13169Y99859D02*
X13775Y99253D01*
X14820Y98819D02*
X15354D01*
X14436Y89513D02*
Y98870D01*
X12468Y91390D02*
Y99161D01*
X8265Y103301D02*
X9222D01*
X8531Y102230D02*
Y103301D01*
X10499Y93134D02*
Y97417D01*
X9725Y85857D02*
X10226Y86357D01*
X9027Y84650D02*
X10244D01*
X15846Y79885D02*
Y80689D01*
X15453Y78234D02*
Y78961D01*
X13702Y80713D02*
X15833D01*
X13976Y78745D02*
X15453D01*
X13976Y76776D02*
X14865D01*
X13976Y74808D02*
X17238D01*
X13976Y70871D02*
X17238D01*
X13976Y72839D02*
X17238D01*
X13976Y68902D02*
X17238D01*
X12803Y82682D02*
X14264D01*
X12803Y81624D02*
Y84132D01*
X9278Y81934D02*
X10251Y80961D01*
X10244Y81094D02*
Y86319D01*
X8531Y82337D02*
Y84371D01*
X12803Y81624D02*
X13602Y80826D01*
X13976Y68542D02*
Y79921D01*
X7296Y102366D02*
X8703D01*
X4952Y99724D02*
X5354Y99322D01*
X4594Y98469D02*
Y99790D01*
X4946Y93605D02*
X6617Y95276D01*
X4946Y96946D02*
X6617Y95276D01*
X4594Y93040D02*
Y97511D01*
X1908Y94493D02*
X5833D01*
X1908Y96461D02*
X5431D01*
X1927Y102749D02*
X2480Y102196D01*
X2924Y101212D02*
X3968Y100168D01*
X2625Y91559D02*
Y101635D01*
X1908Y100398D02*
X3737D01*
X1908Y102366D02*
X2309D01*
X1908Y91163D02*
Y102768D01*
Y98430D02*
X4581D01*
X1908Y92524D02*
X4100D01*
X3209Y91633D02*
X4582Y93006D01*
X1908Y87182D02*
X2680Y87954D01*
X1908Y87182D02*
Y88365D01*
X7823Y83955D02*
X8139Y84271D01*
X7329Y82682D02*
X10244D01*
X7389Y79647D02*
X9338Y77698D01*
X6339Y81692D02*
X7383Y82736D01*
X7120Y78745D02*
X8292D01*
X7579Y72839D02*
X11417D01*
X7579Y74808D02*
X11417D01*
X7579Y68902D02*
X11417D01*
X7579Y70871D02*
X11417D01*
X7579Y76776D02*
X11417D01*
X3416Y82457D02*
X4182Y81692D01*
X5152Y80713D02*
X6718D01*
X6562Y79303D02*
Y81915D01*
X1908Y80337D02*
X2603Y79643D01*
X1908Y79253D02*
Y80337D01*
X3347Y82518D02*
X7204Y78661D01*
X4677Y76776D02*
X5020D01*
X4429Y68902D02*
X5020D01*
X4429Y74808D02*
X5020D01*
X4429Y72839D02*
X5020D01*
X4429Y70871D02*
X5020D01*
X42512Y66934D02*
X43480D01*
X42520Y65699D02*
Y66782D01*
X42332Y64965D02*
X43971D01*
X42323Y62997D02*
X45941D01*
X43439Y61028D02*
X62342D01*
X43031Y61436D02*
X46180Y58287D01*
X41995Y67933D02*
Y68485D01*
X36417Y65748D02*
Y76889D01*
X36090Y65748D02*
Y68403D01*
X34121Y65748D02*
Y67905D01*
X31647Y70300D02*
X33799Y68149D01*
X32153Y66983D02*
Y69795D01*
X33563Y65748D02*
X36417D01*
X41995Y64050D02*
Y64547D01*
X41929Y64140D02*
Y64493D01*
X32202Y66934D02*
X36417D01*
X37293Y44939D02*
X37619Y45156D01*
X36304Y44863D02*
X36909D01*
X37293Y44939D01*
X36090Y43411D02*
Y44807D01*
X34941Y43209D02*
Y44783D01*
X35827D01*
X35198Y42520D02*
X37087Y44409D01*
X34941Y43312D02*
X35990D01*
X34770Y42520D02*
X35198D01*
X32153Y52972D02*
Y56770D01*
X32037Y53154D02*
X33781D01*
X32131Y52972D02*
X33672D01*
X31988Y43209D02*
Y44783D01*
X32153Y38183D02*
Y39961D01*
X31102Y44783D02*
X31988D01*
X30192Y68943D02*
X32343Y66792D01*
X30198Y62913D02*
X31585Y64299D01*
X30184Y62899D02*
Y64775D01*
X23031Y64965D02*
X29994D01*
X29503Y62997D02*
X30281D01*
X28104Y66855D02*
X30255Y64704D01*
X30106Y55123D02*
X33781D01*
X30184Y55053D02*
Y56770D01*
X28216Y64482D02*
Y66744D01*
X26247Y63925D02*
Y68253D01*
X29527Y62637D02*
X29858Y62306D01*
X26247Y59308D02*
Y61469D01*
X25366Y66934D02*
X28031D01*
X23031Y61028D02*
X26814D01*
X27854Y60232D02*
Y60690D01*
X27854Y56102D02*
Y57091D01*
Y55413D02*
X29294D01*
X28216D02*
Y56770D01*
X27854Y55413D02*
Y56102D01*
X30199Y55039D02*
X31857Y53381D01*
X29704Y45156D02*
X30029Y44939D01*
X30413Y44863D01*
X30184Y42520D02*
Y44908D01*
X29213Y45280D02*
X29621D01*
X29486Y45482D02*
X29704Y45156D01*
X21199Y43312D02*
X31988D01*
X24902Y37406D02*
X30980D01*
X30184Y34671D02*
Y39961D01*
X20806D02*
X32513D01*
X20609Y42520D02*
X32159D01*
X20220Y39375D02*
X32385D01*
X29410Y45866D02*
Y47244D01*
Y49271D01*
Y45866D02*
X29486Y45482D01*
X29232Y45522D02*
Y46998D01*
X28740Y48601D02*
X29410Y49271D01*
X28740Y48120D02*
Y48601D01*
X26624Y43996D02*
X27707D01*
X28216Y35914D02*
Y39961D01*
Y42520D02*
Y44083D01*
X26247Y42520D02*
Y44043D01*
Y36122D02*
Y39961D01*
X42241Y33469D02*
X43980D01*
X38304D02*
X40043D01*
X34367D02*
X36106D01*
X40272D02*
X42011D01*
X36335D02*
X38074D01*
X32073Y29532D02*
X46274D01*
X34531Y31501D02*
X46274D01*
X32073Y25595D02*
X46274D01*
X32073Y27564D02*
X46274D01*
X32073Y23627D02*
X46274D01*
X34121Y32253D02*
Y33470D01*
X32398Y33469D02*
X34137D01*
X32153Y32579D02*
Y33470D01*
X31916Y30020D02*
X33268D01*
X41995Y19286D02*
Y33470D01*
X40027Y19286D02*
Y33470D01*
X38058Y19286D02*
Y33470D01*
X32073Y19690D02*
X46274D01*
X32073Y21658D02*
X46274D01*
X35387Y1909D02*
X37489D01*
X34533Y1973D02*
X37376D01*
X36090Y19286D02*
Y33470D01*
X34121Y19286D02*
Y30346D01*
X32153Y19286D02*
Y30020D01*
Y2342D02*
Y4128D01*
X36034Y3273D02*
X37161Y2146D01*
X36090Y1909D02*
Y3218D01*
X34451Y1979D02*
X35387Y1909D01*
X32735Y2209D02*
X33638Y2072D01*
X31187Y33469D02*
X32169D01*
X30807Y34941D02*
Y36713D01*
X31030Y32579D02*
X33268D01*
X28757Y35438D02*
X30807D01*
X28506Y35688D02*
X29450Y34744D01*
X29172Y18012D02*
X30610D01*
X28881Y17721D02*
X30807D01*
X28740Y17580D02*
X29172Y18012D01*
X26849Y33169D02*
X27793Y32225D01*
X24902Y36122D02*
X27461D01*
X23425Y33169D02*
X26849D01*
X26247Y32184D02*
Y33169D01*
X28171Y30807D02*
X28543D01*
X27477Y31501D02*
X28461D01*
X28216Y30807D02*
Y31929D01*
X27227Y31751D02*
X28171Y30807D01*
X28740Y15753D02*
X30836D01*
X31004Y5807D02*
Y15307D01*
X27405Y13784D02*
X31004D01*
X19656Y9847D02*
X31004D01*
X17404Y11816D02*
X31004D01*
X22080Y7879D02*
X31004D01*
X31434Y2507D02*
X32735Y2209D01*
X31379Y4902D02*
X32383Y3898D01*
X27778Y3941D02*
X32340D01*
X24709Y5910D02*
X31004D01*
X30158Y2902D02*
X31434Y2507D01*
X30807Y16043D02*
Y17815D01*
X28740Y15650D02*
Y17580D01*
X30184Y2894D02*
Y18012D01*
X26692Y13072D02*
X28365Y14745D01*
X28216Y3730D02*
Y14595D01*
X26559Y4642D02*
X27714Y3972D01*
X26247Y4856D02*
Y12782D01*
X28916Y3391D02*
X30158Y2902D01*
X27714Y3972D02*
X28916Y3391D01*
X26008Y5020D02*
X26559Y4642D01*
X25295Y54134D02*
Y56102D01*
Y58071D01*
X24279Y53445D02*
Y66537D01*
X23031Y53975D02*
Y66956D01*
Y62997D02*
X25812D01*
X23031Y59060D02*
X25763D01*
X23031Y57091D02*
X25295D01*
X23562Y53445D02*
X25005D01*
X23031Y55123D02*
X25295D01*
X23031Y53975D02*
X23562Y53445D01*
X16933Y53154D02*
X20506D01*
X16417Y66934D02*
X17238D01*
X16405Y66945D02*
Y75029D01*
X17238Y59303D02*
Y75070D01*
X13976Y68542D02*
X15098Y67420D01*
X14436Y68082D02*
Y82113D01*
X18349Y55123D02*
X20472D01*
X16933Y64965D02*
X17238D01*
X20472Y53445D02*
Y57246D01*
X17027Y53800D02*
X20472Y57246D01*
X15021Y57087D02*
X17238Y59303D01*
X16405Y58470D02*
Y64158D01*
X14436Y57087D02*
Y63826D01*
X21260Y45280D02*
X22324D01*
X21260Y45828D02*
X22090Y46659D01*
X22310Y42520D02*
Y45304D01*
X20847Y52540D02*
X22127Y51261D01*
X21260Y43701D02*
Y45828D01*
X24279Y38803D02*
Y39961D01*
Y42520D02*
Y44425D01*
X24902Y36122D02*
Y37598D01*
X22310Y38566D02*
Y39961D01*
X21949Y34646D02*
Y37598D01*
X19076Y47263D02*
X21162Y49350D01*
X20342Y48529D02*
Y57115D01*
X18373Y43903D02*
Y55146D01*
X16405Y41935D02*
Y52347D01*
X14436Y39966D02*
Y52015D01*
X20609Y42520D02*
X20885Y42796D01*
X20342Y36417D02*
Y39497D01*
X18701Y44231D02*
Y46358D01*
X18110Y37265D02*
X20806Y39961D01*
X11417Y68012D02*
Y77640D01*
X11792Y67107D02*
X13288Y65611D01*
X12468Y57087D02*
Y66432D01*
X9724Y66934D02*
X11966D01*
X10499Y57087D02*
Y77265D01*
X10240Y64965D02*
X13382D01*
X4429Y62997D02*
X17238D01*
X10260Y57087D02*
X15021D01*
X4429Y61028D02*
X17238D01*
X4429Y59060D02*
X16994D01*
X4429Y57091D02*
X15026D01*
X7579Y68247D02*
X8405Y67420D01*
X7579Y68247D02*
Y77756D01*
X8531Y67420D02*
Y78505D01*
X4429Y66934D02*
X5287D01*
X5020Y67716D02*
Y77226D01*
X8481Y55838D02*
X9355Y56712D01*
X8531Y55887D02*
Y63682D01*
X4429Y64965D02*
X6689D01*
X5394Y66812D02*
X6595Y65611D01*
X4429Y55123D02*
X6950D01*
X10790Y54528D02*
X13461D01*
X12468Y37998D02*
Y54528D01*
X10499Y36713D02*
Y54237D01*
X10105Y53154D02*
X13382D01*
X10291Y54028D02*
X10790Y54528D01*
X4429Y51186D02*
X22209D01*
X4429Y49217D02*
X21030D01*
X4429Y47249D02*
X19061D01*
X11792Y37322D02*
X18701Y44231D01*
X4429Y45280D02*
X18701D01*
X4429Y43312D02*
X17782D01*
X4429Y41343D02*
X15813D01*
X4429Y39375D02*
X13845D01*
X6562Y54168D02*
Y65644D01*
Y36713D02*
Y53769D01*
X4594Y38358D02*
Y76666D01*
X4429Y53154D02*
X6738D01*
X4429Y38522D02*
Y76490D01*
X1870Y37992D02*
Y76490D01*
X8531Y35500D02*
Y52102D01*
X4429Y38522D02*
X6239Y36713D01*
X1908Y36055D02*
Y37682D01*
X21884Y33469D02*
X22534D01*
X22310Y32728D02*
Y33678D01*
X20944Y35438D02*
X21949D01*
X18251Y37406D02*
X21949D01*
X24279Y32771D02*
Y33169D01*
X22687Y32776D02*
X24163D01*
X25369Y32185D02*
X26181D01*
X18209Y21358D02*
X22233D01*
X18373Y36713D02*
Y37528D01*
X20965Y34388D02*
X21869Y33483D01*
X20965Y34388D02*
Y35187D01*
X18356Y36713D02*
X19439D01*
X18110D02*
Y37265D01*
X20342Y20560D02*
Y21358D01*
X18373Y20132D02*
Y21358D01*
X21457Y18553D02*
Y20030D01*
X21008Y19690D02*
X21457D01*
X17717D02*
X18165D01*
X21063Y17721D02*
X21704D01*
X21063Y16339D02*
Y19291D01*
X20942Y15753D02*
X21748D01*
X20590Y15256D02*
X21999D01*
X24279Y6218D02*
Y12697D01*
X22310Y7705D02*
Y12697D01*
X24469Y6074D02*
X26008Y5020D01*
X21490Y8324D02*
X24469Y6074D01*
X17913Y12697D02*
X25787D01*
X20342Y9277D02*
Y12697D01*
X18619Y10708D02*
X21490Y8324D01*
X18110Y16339D02*
Y19291D01*
X17717Y17721D02*
X18110D01*
X17717Y15983D02*
Y21457D01*
Y15983D02*
X18443Y15256D01*
X16405Y12727D02*
Y13676D01*
X18373Y10932D02*
Y12697D01*
X15532Y14548D02*
X17009Y13072D01*
X15299Y13784D02*
X16296D01*
X15861Y13222D02*
X18619Y10708D01*
X10089Y36713D02*
X11171D01*
X8563Y34388D02*
Y35187D01*
X5545Y37406D02*
X11876D01*
X6239Y36713D02*
X7037D01*
X8563Y34388D02*
Y35187D01*
X4594Y31939D02*
Y33415D01*
X2097Y33469D02*
X4568D01*
X4060Y27564D02*
X4636D01*
X4429Y34104D02*
Y34903D01*
X2245Y37087D02*
X4429Y34903D01*
X2625Y31051D02*
Y36707D01*
X2008Y34056D02*
X2208Y32736D01*
X1908Y35438D02*
X3895D01*
X1908Y35388D02*
Y36055D01*
Y35388D02*
X2008Y34056D01*
X3148Y29532D02*
X4568D01*
X4429Y30167D02*
Y31250D01*
X3391Y28917D02*
X3972Y27715D01*
X2901Y30159D02*
X3391Y28917D01*
X2491Y31501D02*
X4450D01*
X2208Y32736D02*
X2506Y31435D01*
X2901Y30159D01*
X10531Y22146D02*
X15157D01*
X12468Y16689D02*
Y22146D01*
X15157Y15453D02*
Y22146D01*
X14436Y14647D02*
Y22146D01*
X10499Y18870D02*
Y22146D01*
X11526Y17721D02*
X15157D01*
X10707Y18620D02*
X13222Y15861D01*
X15861Y13222D01*
X13331Y15753D02*
X15157D01*
X9819Y19690D02*
X15157D01*
X8197Y21658D02*
X15157D01*
X8323Y21491D02*
X10707Y18620D01*
X7283Y25394D02*
Y26060D01*
X4642Y26559D02*
X5019Y26009D01*
X6562Y23823D02*
Y25887D01*
X5019Y26009D02*
X6074Y24469D01*
X3972Y27715D02*
X4642Y26559D01*
X4594Y26643D02*
Y29478D01*
X7658Y24489D02*
X9627Y22520D01*
X8531Y21241D02*
Y23617D01*
X6710Y23627D02*
X8521D01*
X5303Y25595D02*
X7283D01*
X6074Y24469D02*
X8323Y21491D01*
X67716Y44685D02*
Y49272D01*
X60335Y44685D02*
X63779D01*
X127165Y66929D02*
X130118Y63976D01*
X95374Y115059D02*
X102264Y108169D01*
X93799Y115059D02*
X95374D01*
X102264Y108169D02*
X109153D01*
X129626Y89567D02*
X133071D01*
X129528Y83661D02*
X133071D01*
X64665Y115059D02*
X93856D01*
X61319Y111713D02*
X64665Y115059D01*
X61319Y65847D02*
Y111713D01*
Y65847D02*
X63779Y63386D01*
X129134Y68898D02*
X130118Y69882D01*
X127165Y66929D02*
X129134Y68898D01*
X129994Y118183D02*
X130315Y118504D01*
X98721Y88287D02*
Y92913D01*
X100492Y86516D02*
X106102D01*
X98721Y88287D02*
X100492Y86516D01*
X100492Y94685D02*
X109153D01*
X98721Y92913D02*
X100492Y94685D01*
X110925Y96457D02*
Y106398D01*
X109153Y94685D02*
X110925Y96457D01*
X109153Y108169D02*
X110925Y106398D01*
X93799Y115059D02*
Y119685D01*
X108661Y74232D02*
Y83957D01*
X106102Y86516D02*
X108661Y83957D01*
X104724Y80216D02*
Y83661D01*
X68209Y54449D02*
X75197D01*
X107087Y72658D02*
Y72658D01*
X108661Y74232D01*
X105807Y71378D02*
X107087Y72658D01*
X100787Y80216D02*
Y83661D01*
X104724Y76181D02*
Y80216D01*
X67716Y59252D02*
X71161D01*
X130118Y69882D02*
X133071D01*
X130118Y63976D02*
X133071D01*
X129994Y115484D02*
Y118183D01*
X105217Y71378D02*
X105807D01*
X101378Y61910D02*
X105217D01*
X99902Y63386D02*
X101378Y61910D01*
X99902Y63386D02*
Y66693D01*
X100787Y72264D02*
Y76181D01*
X99902Y71378D02*
X100787Y72264D01*
X59055Y49705D02*
X62835D01*
X67716Y49272D02*
X68209Y49764D01*
X63779Y55335D02*
Y59252D01*
X62894Y54449D02*
X63779Y55335D01*
D11*
X45374Y113189D02*
X46030Y114170D01*
X46260Y115328D01*
X42285Y111909D02*
X43416Y112058D01*
X44469Y112495D01*
X45374Y113189D01*
X36614Y111909D02*
X35693Y111849D01*
X34787Y111669D01*
X33913Y111372D01*
X33084Y110964D01*
X32316Y110451D01*
X31622Y109842D01*
X86516Y117126D02*
X87303D01*
X89272Y119095D01*
X44783Y70177D02*
X44783Y70177D01*
X47835D01*
X48917Y109252D02*
Y112303D01*
X130118Y61024D02*
X138189D01*
X12219Y113766D02*
Y113766D01*
X13878Y115425D01*
Y117717D01*
X48228Y121405D02*
X48228D01*
Y116783D02*
X48228D01*
X48228Y119095D02*
X48228D01*
X48228Y121405D02*
X51378D01*
X9435Y116549D02*
X9561Y116675D01*
Y120754D01*
X9547Y120768D02*
X9561Y120754D01*
X6088Y113203D02*
X9435Y116549D01*
X7874Y104724D02*
X7927Y104777D01*
X10338D02*
X12393Y102723D01*
X7927Y104777D02*
X10338D01*
X2969Y103795D02*
X8217Y98547D01*
X12393Y102723D02*
X14820Y100295D01*
X2969Y105725D02*
X4232Y106988D01*
X2969Y103795D02*
Y105725D01*
X11632Y106268D02*
Y107659D01*
X12950Y104950D02*
X13785Y104114D01*
X12950Y104950D02*
Y104950D01*
X11632Y106268D02*
X12950Y104950D01*
X8760Y110531D02*
X8985D01*
X8872Y110419D02*
X11632Y107659D01*
X8985Y110531D02*
X12219Y113766D01*
X28679Y109682D02*
X35237Y116240D01*
X33465Y46260D02*
X35827D01*
X31102D02*
X33465D01*
X40453Y62992D02*
Y66240D01*
X24213Y68405D02*
Y68469D01*
X26364Y70620D01*
Y70683D01*
X32691Y71344D02*
X34843Y69193D01*
X29148Y67899D02*
X31299Y65748D01*
X29907Y74128D02*
X32059Y76279D01*
X29852Y74128D02*
X29907D01*
X31102Y51575D02*
X31102Y51575D01*
X35827Y46260D02*
Y46430D01*
X33465Y43209D02*
Y46260D01*
X39764D02*
X43012D01*
X23917D02*
X27165D01*
X39764D02*
Y50265D01*
X35630Y52165D02*
X35705Y52090D01*
X37939D01*
X39764Y50265D01*
X27165Y46260D02*
X27264Y46358D01*
Y49213D01*
X29005Y50954D01*
Y51446D01*
X29134Y51575D01*
X35531Y116732D02*
X37683Y118884D01*
X28927Y119984D02*
X31078Y117833D01*
X44783Y66240D02*
X46935Y64089D01*
X10384Y78740D02*
X10433D01*
X8183Y80892D02*
X8232D01*
X10384Y78740D01*
X5399Y83675D02*
X5456D01*
X11001Y89221D01*
X14820Y100295D02*
X15354D01*
X9609Y99939D02*
X11001Y101330D01*
X8217Y98547D02*
X9609Y99939D01*
X121260Y85630D02*
X124114D01*
X136832Y87598D02*
X137816Y88583D01*
X133071Y87598D02*
X136832D01*
X137816Y88583D02*
X138189D01*
X138189Y92520D02*
X138189Y92520D01*
X130118Y92520D02*
X138189D01*
X118209Y87598D02*
X121260D01*
X116142Y85532D02*
X118209Y87598D01*
X136832Y85630D02*
X137816Y84646D01*
X133071Y85630D02*
X136832D01*
X137816Y84646D02*
X138189D01*
X130118Y80709D02*
X138189D01*
X120079Y83661D02*
X121260D01*
X120079Y81988D02*
Y83661D01*
X118701Y80610D02*
X120079Y81988D01*
X116142Y80610D02*
X118701D01*
X116142Y85532D02*
Y89665D01*
X116634Y90158D01*
X44783Y70177D02*
Y78684D01*
X35638Y87829D02*
X44783Y78684D01*
X26364Y70683D02*
X26484Y70804D01*
Y71633D01*
X26364Y71754D02*
X26484Y71633D01*
X26364Y71754D02*
Y73858D01*
X22137Y78085D02*
X26364Y73858D01*
X25895Y78085D02*
X29852Y74128D01*
X48917Y102166D02*
Y105315D01*
X33226Y108661D02*
X45571D01*
X48747Y105315D02*
X48917D01*
X48160Y105902D02*
X48747Y105315D01*
X48160Y105902D02*
Y106072D01*
X45571Y108661D02*
X48160Y106072D01*
X31463Y106898D02*
X33226Y108661D01*
X35237Y116240D02*
X35335D01*
X28679Y109682D02*
Y109683D01*
X29415Y116156D02*
Y116170D01*
X32748Y119502D01*
Y119516D01*
X27287Y111074D02*
X29276Y113063D01*
Y116016D01*
X29415Y116156D01*
X24264Y114096D02*
X25895Y112466D01*
X24264Y114096D02*
Y124630D01*
X30071Y108290D02*
X31622Y109842D01*
X21302Y113301D02*
X22137Y112466D01*
X21302Y113301D02*
Y116130D01*
X17722Y119709D02*
X21302Y116130D01*
X17722Y119709D02*
Y123656D01*
X17792Y123725D01*
X46260Y115328D02*
Y116783D01*
X36614Y111909D02*
X42285D01*
X24264Y124630D02*
X24334Y124700D01*
X46260Y121405D02*
Y129035D01*
X46260Y129035D02*
X46260Y129035D01*
Y119095D02*
X48228D01*
X48228Y116783D02*
X51378D01*
X48228Y119095D02*
Y121405D01*
Y116783D02*
Y119095D01*
Y116783D02*
X48228Y116783D01*
X43110Y119095D02*
X46260D01*
X135925Y64961D02*
X138189D01*
X135925Y68898D02*
X138189D01*
X130118Y72835D02*
X138189D01*
X134941Y67913D02*
X135925Y68898D01*
X133071Y67913D02*
X134941D01*
X134941Y65945D02*
X135925Y64961D01*
X133071Y65945D02*
X134941D01*
X23524Y16339D02*
Y19291D01*
X23425Y34646D02*
X27461D01*
X28839Y33268D02*
X29724D01*
X27461Y34646D02*
X28839Y33268D01*
X27559Y29331D02*
X29724D01*
X26181Y30709D02*
X27559Y29331D01*
X26083Y19291D02*
X28248Y21457D01*
X29724D01*
X23524Y19291D02*
X26083D01*
X23622Y30709D02*
X26181D01*
X23622Y30709D02*
X23622Y30709D01*
X23425Y34646D02*
Y37598D01*
Y27756D02*
Y30709D01*
X19587Y16339D02*
Y19291D01*
X116535Y63976D02*
X121260D01*
X116142Y63583D02*
X116535Y63976D01*
X116535Y67913D02*
X121260D01*
X116142Y68307D02*
X116535Y67913D01*
X130118Y72835D02*
Y72835D01*
X121260Y65945D02*
X124705D01*
D12*
X44656Y95895D02*
X46063Y94488D01*
X42466Y95895D02*
X44656D01*
X92631Y8366D02*
X102461D01*
X104228Y10133D01*
X91993Y13780D02*
X102461D01*
X104926Y11315D02*
X121939D01*
X102461Y13780D02*
X104926Y11315D01*
X104228Y10133D02*
X122428D01*
X120374Y74213D02*
Y75984D01*
X121752Y72835D02*
X124213D01*
X120374Y74213D02*
X121752Y72835D01*
X128347Y76378D02*
X128445D01*
X126181Y78543D02*
Y80709D01*
Y78543D02*
X128347Y76378D01*
X126181Y80709D02*
X126181Y80709D01*
X126181Y72835D02*
Y73968D01*
X125492Y74657D02*
X126181Y73968D01*
X125492Y74657D02*
Y76378D01*
X122835Y77461D02*
X122835D01*
X124173Y80669D02*
X124213Y80709D01*
X122835Y77461D02*
X124173Y78799D01*
Y80669D01*
X108268Y59941D02*
Y66693D01*
Y59941D02*
X111319Y56890D01*
X118405D01*
X122343Y52953D01*
X128347D02*
X130709Y50590D01*
X122343Y52953D02*
X128347D01*
X124213Y55512D02*
X124213Y55512D01*
X124213Y55512D02*
Y61024D01*
X130709Y33661D02*
Y50590D01*
X127362Y30315D02*
X130709Y33661D01*
X127362Y26760D02*
Y30315D01*
X131890Y33071D02*
Y51772D01*
X128543Y26271D02*
Y29724D01*
X131890Y33071D01*
X93950Y18504D02*
X104435D01*
X103946Y17323D02*
X106411Y14858D01*
X93461Y17323D02*
X103946D01*
X104435Y18504D02*
X106900Y16039D01*
X92971Y16142D02*
X103456D01*
X106900Y16039D02*
X119982D01*
X105921Y13677D02*
X120960D01*
X107389Y17220D02*
X119493D01*
X103456Y16142D02*
X105921Y13677D01*
X94439Y19685D02*
X104924D01*
X107389Y17220D01*
X106411Y14858D02*
X120471D01*
X105413Y20866D02*
X107878Y18401D01*
X94928Y20866D02*
X105413D01*
X107878Y18401D02*
X119003D01*
X127362Y26760D01*
X92369Y23425D02*
X94928Y20866D01*
X60335Y36119D02*
X73029Y23425D01*
X92369D01*
X55807Y42224D02*
X60335Y37697D01*
Y36119D02*
Y37697D01*
X47343Y44587D02*
X56791D01*
X67716Y44685D02*
Y44783D01*
X67716Y44685D02*
X67716Y44685D01*
X65158Y42126D02*
X67716Y44685D01*
X59252Y42126D02*
X65158D01*
X56791Y44587D02*
X59252Y42126D01*
X36220Y38091D02*
X38681Y40551D01*
X34252Y35827D02*
Y39272D01*
X20276Y41240D02*
X35728D01*
X37992Y43504D01*
X16831Y37795D02*
X20276Y41240D01*
X36220Y35827D02*
Y38091D01*
X68720Y13976D02*
X82607D01*
X53962Y25394D02*
X68627Y10728D01*
X69699Y16339D02*
X89434D01*
X48622Y33268D02*
X52769D01*
X69209Y15157D02*
X88945D01*
X43819Y42323D02*
X52461D01*
X71561Y19882D02*
X90902D01*
X50993Y38780D02*
X71072Y18701D01*
X48622Y29331D02*
X53366D01*
X53664Y27362D02*
X68231Y12795D01*
X72050Y21063D02*
X91391D01*
X69221Y8465D02*
X72539D01*
X46063Y35827D02*
X51881D01*
X51971Y41142D02*
X72050Y21063D01*
X54260Y23425D02*
X69221Y8465D01*
X48720Y23425D02*
X54260D01*
X51482Y39961D02*
X71561Y19882D01*
X48622Y27362D02*
X53664D01*
X48622Y25394D02*
X53962D01*
X48622Y31299D02*
X53067D01*
X51881Y35827D02*
X70188Y17520D01*
X68231Y12795D02*
X78276D01*
X68627Y10728D02*
X77559D01*
X44587Y41142D02*
X51971D01*
X52461Y42323D02*
X72539Y22244D01*
X91880D01*
X53067Y31299D02*
X69209Y15157D01*
X71072Y18701D02*
X90412D01*
X46161Y38780D02*
X50993D01*
X70188Y17520D02*
X89923D01*
X52769Y33268D02*
X69699Y16339D01*
X45374Y39961D02*
X51482D01*
X53366Y29331D02*
X68720Y13976D01*
X43996Y36614D02*
X46161Y38780D01*
X40157Y36713D02*
X44587Y41142D01*
X42126Y36713D02*
X45374Y39961D01*
X38780Y37283D02*
X43819Y42323D01*
X37992Y43504D02*
X43307D01*
X45276Y45472D01*
Y57382D01*
X38189Y35827D02*
Y36665D01*
X38780Y37255D01*
Y37283D01*
X40157Y35827D02*
Y36713D01*
X42126Y35827D02*
Y36713D01*
X91880Y22244D02*
X94439Y19685D01*
X54232Y21457D02*
X61516Y14173D01*
Y9646D02*
Y14173D01*
X48622Y21457D02*
X54232D01*
X91391Y21063D02*
X93950Y18504D01*
X90412Y18701D02*
X92971Y16142D01*
X89923Y17520D02*
X92482Y14961D01*
X90902Y19882D02*
X93461Y17323D01*
X141142Y50295D02*
Y99800D01*
X88945Y15157D02*
X91339Y12764D01*
Y9659D02*
Y12764D01*
X141142Y99803D02*
Y101963D01*
X89434Y16339D02*
X91993Y13780D01*
X92482Y14961D02*
X102950D01*
X119982Y16039D02*
X130709Y26766D01*
X120471Y14858D02*
X133071Y27458D01*
Y49213D01*
X119493Y17220D02*
X128543Y26271D01*
X102950Y14961D02*
X105415Y12496D01*
X132283Y75394D02*
X136221D01*
X135335Y55216D02*
Y58071D01*
X131890Y51772D02*
X135335Y55216D01*
X128278Y79399D02*
X132283Y75394D01*
X128278Y79399D02*
Y80580D01*
X128150Y80709D02*
X128278Y80580D01*
X128150Y58729D02*
Y61024D01*
X128808Y58071D02*
X135335D01*
X128150Y58729D02*
X128808Y58071D01*
X132130Y107634D02*
X137402Y102362D01*
X128583Y107634D02*
X132130D01*
X137402Y96063D02*
Y102362D01*
X130709Y26766D02*
Y28543D01*
X100000Y132283D02*
X111516Y120768D01*
X95374Y132283D02*
X100000D01*
X111516Y120768D02*
X115450D01*
X90551Y137106D02*
X95374Y132283D01*
X115450Y120768D02*
X128583Y107634D01*
X132576Y108858D02*
X139961Y101473D01*
Y53347D02*
Y101473D01*
X129030Y108858D02*
X132576D01*
X135827Y51968D02*
X138583D01*
X139961Y53347D01*
X133071Y49213D02*
X135827Y51968D01*
X94488Y137106D02*
X98130Y133465D01*
X100489D01*
X112005Y121949D02*
X115939D01*
X129030Y108858D01*
X100489Y133465D02*
X112005Y121949D01*
X129519Y110039D02*
X133065D01*
X141142Y101963D01*
X138878Y48031D02*
X141142Y50295D01*
X135827Y48031D02*
X138878D01*
X134252Y46457D02*
X135827Y48031D01*
X134252Y26969D02*
Y46457D01*
X112494Y123130D02*
X116428D01*
X98425Y137106D02*
X98518D01*
X116428Y123130D02*
X129519Y110039D01*
X120960Y13677D02*
X134252Y26969D01*
X98518Y137106D02*
X112494Y123130D01*
X105415Y12496D02*
X121449D01*
X122428Y10133D02*
X137795Y25501D01*
X121939Y11315D02*
X136614Y25990D01*
X121449Y12496D02*
X135433Y26479D01*
X136614Y25990D02*
Y31296D01*
X137795Y25501D02*
Y30807D01*
X135433Y26479D02*
Y31786D01*
X129374Y106453D02*
X133465Y102362D01*
X128336Y105272D02*
X131102Y102506D01*
X128094Y106453D02*
X129374D01*
X114961Y119587D02*
X128094Y106453D01*
X127605Y105272D02*
X128336D01*
X114471Y118405D02*
X127605Y105272D01*
X99508Y131102D02*
X111024Y119587D01*
X114961D01*
X110517Y118405D02*
X114471D01*
X113389Y116043D02*
X126181Y103251D01*
X109049Y114862D02*
X112899D01*
X110028Y117224D02*
X113878D01*
X111921Y112500D02*
X119685Y104736D01*
X108068Y112500D02*
X111921D01*
X111432Y111319D02*
X117323Y105428D01*
X107579Y111319D02*
X111432D01*
X100194Y120374D02*
X108068Y112500D01*
X97044Y125197D02*
X108560Y113681D01*
X109538Y116043D02*
X113389D01*
X97534Y126378D02*
X109049Y114862D01*
X98512Y128740D02*
X110028Y117224D01*
X108560Y113681D02*
X112410D01*
X121958Y104134D01*
X113878Y117224D02*
X128740Y102362D01*
X112899Y114862D02*
X124213Y103549D01*
X101302Y117596D02*
X107579Y111319D01*
X98023Y127559D02*
X109538Y116043D01*
X99001Y129921D02*
X110517Y118405D01*
X69390Y131102D02*
X99508D01*
X77562Y126378D02*
X97534D01*
X98032Y120374D02*
X100194D01*
X78051Y125197D02*
X97044D01*
X98054Y117596D02*
X101302D01*
X70368Y128740D02*
X98512D01*
X69879Y129921D02*
X99001D01*
X70857Y127559D02*
X98023D01*
X131102Y100394D02*
Y102506D01*
X121958Y102452D02*
Y104134D01*
X124213Y92520D02*
Y103549D01*
X117323Y102362D02*
Y105428D01*
X119685Y100394D02*
Y104736D01*
X121958Y102452D02*
X122047Y102362D01*
X126181Y92520D02*
Y103251D01*
X98032Y117618D02*
X98054Y117596D01*
X51575Y113287D02*
X69390Y131102D01*
X32283Y5807D02*
Y16535D01*
Y5807D02*
X34252Y3839D01*
Y3839D02*
Y3839D01*
X17961Y108290D02*
Y108397D01*
X3150Y37992D02*
X6496Y34646D01*
X3150Y37992D02*
Y77854D01*
X6782Y93397D02*
X6825D01*
X3150Y89764D02*
X6782Y93397D01*
X6299Y67716D02*
Y77756D01*
X2067Y81988D02*
X6299Y77756D01*
X2067Y81988D02*
Y85532D01*
X6496Y34646D02*
X8563Y32579D01*
Y25394D02*
Y32579D01*
X8422Y53969D02*
X10260Y55807D01*
X15551D02*
X18518Y58773D01*
X10260Y55807D02*
X15551D01*
X18518Y58773D02*
Y80034D01*
X15157Y53740D02*
X19909Y58492D01*
Y78642D01*
X6299Y67716D02*
X8465Y65551D01*
X135433Y31786D02*
X137106Y33459D01*
Y38189D01*
X91339Y9659D02*
X92631Y8366D01*
X82607Y13976D02*
X85855Y10728D01*
X78276Y12795D02*
X80343Y10728D01*
X85855D02*
X88583D01*
X137795Y30807D02*
X141142Y34154D01*
Y42028D01*
X139961Y34643D02*
Y39272D01*
X136614Y31296D02*
X139961Y34643D01*
X137106Y42126D02*
X139961Y39272D01*
X137106Y46063D02*
X141142Y42028D01*
X80343Y10728D02*
X83071D01*
X72539Y8465D02*
X74803Y6201D01*
X53347Y19488D02*
X55905Y16929D01*
X48622Y19488D02*
X53347D01*
X55905Y9941D02*
Y16929D01*
X60532Y2854D02*
X82677D01*
X85827Y6004D02*
Y6201D01*
X82677Y2854D02*
X85827Y6004D01*
X65847Y4035D02*
X78150D01*
X80315Y6201D02*
X80315D01*
X78150Y4035D02*
X80315Y6201D01*
X61516Y9646D02*
X64272Y6890D01*
Y5610D02*
Y6890D01*
Y5610D02*
X65847Y4035D01*
X58563Y4823D02*
Y7283D01*
Y4823D02*
X60532Y2854D01*
X55905Y9941D02*
X58563Y7283D01*
X46063Y16929D02*
X46063Y16929D01*
X50197D01*
X41240Y8465D02*
X50886D01*
X40157Y9547D02*
Y16929D01*
Y9547D02*
X41240Y8465D01*
X50886D02*
X53150Y10728D01*
X44094Y11811D02*
X45177Y10728D01*
X44094Y11811D02*
Y16929D01*
X45177Y10728D02*
X47638D01*
X42126D02*
Y16929D01*
X35827Y5290D02*
Y10138D01*
X34252Y11713D02*
X35827Y10138D01*
Y5290D02*
X38065Y3051D01*
X34252Y11713D02*
Y16929D01*
X37008Y5779D02*
X38555Y4232D01*
X36220Y11414D02*
X37008Y10627D01*
X36220Y11414D02*
Y16929D01*
X37008Y5779D02*
Y10627D01*
X38189Y7382D02*
X39370Y6201D01*
X38189Y7382D02*
Y16929D01*
X39370Y6201D02*
Y6201D01*
X38555Y4232D02*
X42913D01*
X44882Y6201D01*
X47244Y3051D02*
X50394Y6201D01*
X38065Y3051D02*
X47244D01*
X17913Y13976D02*
X25787D01*
X27461Y15650D01*
X16437Y15453D02*
X17913Y13976D01*
X27461Y15650D02*
Y18110D01*
X19980Y43701D02*
Y46358D01*
X12697Y36417D02*
X19980Y43701D01*
Y46358D02*
X23031Y49409D01*
X12697Y34646D02*
Y36417D01*
Y26181D02*
Y34646D01*
X10630Y34646D02*
X12697D01*
X12697Y34646D01*
X14272Y24606D02*
X16240D01*
X12697Y26181D02*
X14272Y24606D01*
X39075Y60532D02*
X42126D01*
X37697Y61910D02*
Y64567D01*
Y61910D02*
X39075Y60532D01*
X37697Y64567D02*
Y77419D01*
X33563Y64468D02*
X37598D01*
X37697Y64567D01*
X20965Y26233D02*
Y32579D01*
X18898Y34646D02*
X20965Y32579D01*
Y26233D02*
X22198Y25000D01*
X42126Y60532D02*
X45276Y57382D01*
X39272Y55892D02*
Y58169D01*
X37514Y54134D02*
X39272Y55892D01*
X35630Y54134D02*
X37514D01*
X23031Y52165D02*
X26575D01*
X21752Y53445D02*
Y73524D01*
Y53445D02*
X23031Y52165D01*
X16732Y76870D02*
Y78961D01*
X17126Y79355D01*
Y81426D01*
X17961Y82261D01*
X19909Y78642D02*
X20745Y79477D01*
X28248Y78642D02*
X31693D01*
X32579Y79528D01*
X28051Y78839D02*
X28248Y78642D01*
X32855Y85045D02*
X32869D01*
X37683Y80230D01*
X37697D01*
X31463Y83653D02*
X37697Y77419D01*
X31102Y58661D02*
Y62008D01*
X33563Y64468D01*
X29134Y58661D02*
Y61221D01*
X27657Y62697D02*
X29134Y61221D01*
X33071Y60532D02*
X34547Y62008D01*
X34646D01*
X33071Y58661D02*
X33071Y58661D01*
Y60532D01*
X26575Y56102D02*
Y58071D01*
Y54134D02*
Y56102D01*
Y54035D02*
Y54134D01*
X29294D01*
X26575Y54035D02*
X26673Y53937D01*
X29294Y54134D02*
X30952Y52476D01*
Y52021D02*
Y52476D01*
Y52021D02*
X31201Y51772D01*
X12697Y68012D02*
X15157Y65551D01*
X12697Y68012D02*
Y79921D01*
X18518Y80034D02*
X19353Y80869D01*
X11524Y81094D02*
X12697Y79921D01*
X11524Y81094D02*
Y86960D01*
X12393Y87829D01*
X2067Y85532D02*
X5020Y88484D01*
X7481D02*
X9609Y90613D01*
X5020Y88484D02*
X7481D01*
X57653Y95965D02*
X57972D01*
X46943Y100394D02*
X49651D01*
X42387Y104950D02*
X46943Y100394D01*
X35263Y104950D02*
X42387D01*
X52756Y112798D02*
X69879Y129921D01*
X55118Y111820D02*
X70857Y127559D01*
X55118Y100850D02*
Y111820D01*
X51119Y96851D02*
X55118Y100850D01*
X45475Y96851D02*
X51119D01*
X41552Y100774D02*
X45475Y96851D01*
X39439Y100774D02*
X41552D01*
X38604Y99939D02*
X39439Y100774D01*
X38422Y99939D02*
X38604D01*
X53937Y112309D02*
X70368Y128740D01*
X53937Y101339D02*
Y112309D01*
X50630Y98032D02*
X53937Y101339D01*
X45964Y98032D02*
X50630D01*
X41830Y102166D02*
X45964Y98032D01*
X38047Y102166D02*
X41830D01*
X37212Y101330D02*
X38047Y102166D01*
X37030Y101330D02*
X37212D01*
X52756Y101829D02*
Y112798D01*
X50140Y99213D02*
X52756Y101829D01*
X46453Y99213D02*
X50140D01*
X42109Y103558D02*
X46453Y99213D01*
X36656Y103558D02*
X42109D01*
X35820Y102723D02*
X36656Y103558D01*
X35638Y102723D02*
X35820D01*
X51575Y102318D02*
Y113287D01*
X49651Y100394D02*
X51575Y102318D01*
X34428Y104114D02*
X35263Y104950D01*
X34247Y104114D02*
X34428D01*
X41335Y97026D02*
X42466Y95895D01*
X41335Y97026D02*
X41335D01*
X41206Y97155D02*
X41335Y97026D01*
X69294Y118110D02*
X77562Y126378D01*
X63568Y116929D02*
X69784D01*
X57480Y110841D02*
X63568Y116929D01*
X63079Y118110D02*
X69294D01*
X69784Y116929D02*
X78051Y125197D01*
X56299Y111330D02*
X63079Y118110D01*
X57480Y98923D02*
Y110841D01*
X52645Y94088D02*
X57480Y98923D01*
X50483Y94088D02*
X52645D01*
X46257Y89862D02*
X50483Y94088D01*
X39814Y92005D02*
X41957Y89862D01*
X46257D01*
X39814Y92005D02*
X39814D01*
X126181Y57480D02*
Y61024D01*
X56299Y99412D02*
Y111330D01*
X52156Y95269D02*
X56299Y99412D01*
X49994Y95269D02*
X52156D01*
X45768Y91043D02*
X49994Y95269D01*
X43559Y91043D02*
X45768D01*
X41206Y93397D02*
X43559Y91043D01*
X78051Y118307D02*
X78051Y118307D01*
X81595D01*
X56574Y94886D02*
X57653Y95965D01*
X55114Y94886D02*
X56574D01*
X53135Y92907D02*
X55114Y94886D01*
X50972Y92907D02*
X53135D01*
X46746Y88681D02*
X50972Y92907D01*
X40354Y88681D02*
X46746D01*
X38422Y90613D02*
X40354Y88681D01*
X55601Y93209D02*
X57972D01*
X54119Y91726D02*
X55601Y93209D01*
X51461Y91726D02*
X54119D01*
X37030Y89221D02*
X37941Y88310D01*
X39055D01*
X47235Y87500D02*
X51461Y91726D01*
X39865Y87500D02*
X47235D01*
X39055Y88310D02*
X39865Y87500D01*
X34247Y86437D02*
X40453Y80230D01*
Y70177D02*
Y80230D01*
X34435Y107087D02*
X43406D01*
X32855Y105506D02*
X34435Y107087D01*
X32855Y105506D02*
X32855D01*
X43406Y107087D02*
X44980Y105512D01*
X16831Y36713D02*
Y37795D01*
Y25787D02*
Y36713D01*
X14764Y34646D02*
X16831Y36713D01*
X10531Y23425D02*
X15751D01*
X8563Y25394D02*
X10531Y23425D01*
X10630Y27756D02*
Y30709D01*
X16240Y24606D02*
X18209Y22638D01*
X16437Y15453D02*
Y22739D01*
X15751Y23425D02*
X16437Y22739D01*
X28839Y19488D02*
X29724D01*
X27461Y18110D02*
X28839Y19488D01*
X25787Y22638D02*
X26575Y23425D01*
X18209Y22638D02*
X25787D01*
X26575Y23425D02*
X29724D01*
X27124Y27362D02*
X29724D01*
X22198Y25000D02*
X24761D01*
X27124Y27362D01*
X19587Y24803D02*
X20571Y23819D01*
X16831Y25787D02*
X17815Y24803D01*
X19587D01*
X29724Y31299D02*
X33268D01*
X29724Y25394D02*
X29724Y25394D01*
X26825Y25394D02*
X29724D01*
X25251Y23819D02*
X26825Y25394D01*
X20571Y23819D02*
X25251D01*
X18898Y27756D02*
Y30709D01*
X14764Y27756D02*
Y30709D01*
X6496Y27756D02*
Y30709D01*
X81595Y122244D02*
X86516D01*
X86516Y122244D01*
X62835Y49705D02*
X62894Y49764D01*
D14*
X39764Y46260D02*
D03*
X35827D02*
D03*
X23524Y19291D02*
D03*
X19587D02*
D03*
X116142Y90059D02*
D03*
X112205D02*
D03*
X116142Y80610D02*
D03*
X112205D02*
D03*
X116142Y63583D02*
D03*
X112205D02*
D03*
X116142Y68307D02*
D03*
X112205D02*
D03*
X116142Y85335D02*
D03*
X112205D02*
D03*
X27165Y46260D02*
D03*
X31102D02*
D03*
D15*
X133071Y83661D02*
D03*
Y85630D02*
D03*
Y87598D02*
D03*
Y89567D02*
D03*
X121260D02*
D03*
Y87598D02*
D03*
Y85630D02*
D03*
Y83661D02*
D03*
X133071Y63976D02*
D03*
Y65945D02*
D03*
Y67913D02*
D03*
Y69882D02*
D03*
X121260D02*
D03*
Y67913D02*
D03*
Y65945D02*
D03*
Y63976D02*
D03*
D16*
X130118Y92520D02*
D03*
X128150D02*
D03*
X126181D02*
D03*
X124213D02*
D03*
Y80709D02*
D03*
X126181D02*
D03*
X128150D02*
D03*
X130118D02*
D03*
X130118Y72835D02*
D03*
X128150D02*
D03*
X126181D02*
D03*
X124213D02*
D03*
Y61024D02*
D03*
X126181D02*
D03*
X128150D02*
D03*
X130118D02*
D03*
D17*
X127165Y86614D02*
D03*
X127165Y66929D02*
D03*
D18*
X48228Y121405D02*
D03*
X48228Y119095D02*
D03*
Y116783D02*
D03*
X46260D02*
D03*
Y119095D02*
D03*
Y121405D02*
D03*
D19*
X29415Y116156D02*
D03*
X32199Y113372D02*
D03*
X32748Y119516D02*
D03*
X35531Y116732D02*
D03*
X29907Y74128D02*
D03*
X32691Y71344D02*
D03*
X5399Y83675D02*
D03*
X8183Y80892D02*
D03*
X8872Y110419D02*
D03*
X6088Y113203D02*
D03*
X12219Y113766D02*
D03*
X9435Y116549D02*
D03*
X26364Y70683D02*
D03*
X29148Y67899D02*
D03*
D20*
X104724Y76181D02*
D03*
X100787D02*
D03*
X104724Y80216D02*
D03*
X100787D02*
D03*
X67716Y59252D02*
D03*
X63779D02*
D03*
X63779Y44685D02*
D03*
X67716D02*
D03*
D21*
X105217Y71378D02*
D03*
X68209Y54449D02*
D03*
D22*
X99902Y71378D02*
D03*
X62894Y54449D02*
D03*
D23*
X105217Y66693D02*
D03*
X68209Y49764D02*
D03*
D24*
X99902Y66693D02*
D03*
X62894Y49764D02*
D03*
D25*
X86516Y122244D02*
D03*
Y117126D02*
D03*
X93799Y119685D02*
D03*
D26*
X81595Y118307D02*
D03*
Y122244D02*
D03*
X18898Y30709D02*
D03*
Y34646D02*
D03*
X6496Y30709D02*
D03*
Y34646D02*
D03*
X10630Y30709D02*
D03*
Y34646D02*
D03*
X14764Y30709D02*
D03*
Y34646D02*
D03*
X40453Y66240D02*
D03*
Y70177D02*
D03*
D27*
X29134Y58661D02*
D03*
X31102D02*
D03*
X33071D02*
D03*
Y51575D02*
D03*
X31102D02*
D03*
X29134D02*
D03*
D28*
X35630Y58071D02*
D03*
Y56102D02*
D03*
Y54134D02*
D03*
Y52165D02*
D03*
X26575D02*
D03*
Y54134D02*
D03*
Y56102D02*
D03*
Y58071D02*
D03*
D29*
X32283Y16929D02*
D03*
X34252D02*
D03*
X36220D02*
D03*
X38189D02*
D03*
X40157D02*
D03*
X42126D02*
D03*
X44094D02*
D03*
X46063D02*
D03*
Y35827D02*
D03*
X44094D02*
D03*
X42126D02*
D03*
X40157D02*
D03*
X38189D02*
D03*
X36220D02*
D03*
X34252D02*
D03*
X32283D02*
D03*
D30*
X48622Y19488D02*
D03*
Y21457D02*
D03*
Y23425D02*
D03*
Y25394D02*
D03*
Y27362D02*
D03*
Y29331D02*
D03*
Y31299D02*
D03*
Y33268D02*
D03*
X29724D02*
D03*
Y31299D02*
D03*
Y29331D02*
D03*
Y27362D02*
D03*
Y25394D02*
D03*
Y23425D02*
D03*
Y21457D02*
D03*
Y19488D02*
D03*
D31*
X39173Y26378D02*
D03*
D32*
X23425Y30709D02*
D03*
Y34646D02*
D03*
X44783Y70177D02*
D03*
Y66240D02*
D03*
X48917Y105315D02*
D03*
Y109252D02*
D03*
D33*
X24016Y95276D02*
D03*
D34*
X22137Y78085D02*
D03*
X20745Y79477D02*
D03*
X19353Y80869D02*
D03*
X17961Y82261D02*
D03*
X16569Y83653D02*
D03*
X15177Y85045D02*
D03*
X13785Y86437D02*
D03*
X12393Y87829D02*
D03*
X11001Y89221D02*
D03*
X9609Y90613D02*
D03*
X8217Y92005D02*
D03*
X6825Y93397D02*
D03*
X25895Y112466D02*
D03*
X27287Y111074D02*
D03*
X28679Y109682D02*
D03*
X30071Y108290D02*
D03*
X31463Y106898D02*
D03*
X32855Y105506D02*
D03*
X34247Y104114D02*
D03*
X35638Y102723D02*
D03*
X37030Y101330D02*
D03*
X38422Y99939D02*
D03*
X39814Y98547D02*
D03*
X41206Y97155D02*
D03*
D35*
X6825Y97155D02*
D03*
X8217Y98547D02*
D03*
X9609Y99939D02*
D03*
X11001Y101330D02*
D03*
X12393Y102723D02*
D03*
X13785Y104114D02*
D03*
X15177Y105506D02*
D03*
X16569Y106898D02*
D03*
X17961Y108290D02*
D03*
X19353Y109682D02*
D03*
X20745Y111074D02*
D03*
X22137Y112466D02*
D03*
X41206Y93397D02*
D03*
X39814Y92005D02*
D03*
X38422Y90613D02*
D03*
X37030Y89221D02*
D03*
X35638Y87829D02*
D03*
X34247Y86437D02*
D03*
X32855Y85045D02*
D03*
X31463Y83653D02*
D03*
X30071Y82261D02*
D03*
X28679Y80869D02*
D03*
X27287Y79477D02*
D03*
X25895Y78085D02*
D03*
D36*
X47244Y139370D02*
D03*
Y129134D02*
D03*
D37*
X21550Y127484D02*
D03*
X17792Y123725D02*
D03*
X20576Y120942D02*
D03*
X24334Y124700D02*
D03*
D38*
X4907Y102151D02*
D03*
X7691Y104935D02*
D03*
D66*
X112205Y90059D02*
Y93701D01*
Y85335D02*
Y90059D01*
Y80610D02*
Y85335D01*
Y76968D02*
Y80610D01*
Y68307D02*
Y71949D01*
Y63583D02*
Y68307D01*
Y59941D02*
Y63583D01*
D67*
X116634Y90158D02*
D03*
D68*
Y70768D02*
D03*
D69*
X118504Y130315D02*
D03*
X130315Y118504D02*
D03*
X124409Y124409D02*
D03*
D70*
X46063Y94488D02*
D03*
D71*
X125492Y76378D02*
D03*
X128445D02*
D03*
X122835Y77461D02*
D03*
X120374Y76083D02*
D03*
X89272Y119095D02*
D03*
X47835Y70177D02*
D03*
X48917Y112303D02*
D03*
X124213Y55512D02*
D03*
X55807Y42224D02*
D03*
X47343Y44587D02*
D03*
X60335Y44685D02*
D03*
X38681Y40551D02*
D03*
X34252Y39272D02*
D03*
X136221Y75394D02*
D03*
X135335Y58071D02*
D03*
X137402Y96063D02*
D03*
X130709Y28543D02*
D03*
X133465Y102362D02*
D03*
X128740D02*
D03*
X13878Y117717D02*
D03*
X51378Y121405D02*
D03*
X9547Y120768D02*
D03*
X4232Y106988D02*
D03*
X3150Y89764D02*
D03*
Y77854D02*
D03*
X15157Y53740D02*
D03*
X8465Y65551D02*
D03*
X8422Y53969D02*
D03*
X114469Y7480D02*
D03*
X50197Y16929D02*
D03*
X34252Y3839D02*
D03*
X23031Y49409D02*
D03*
X40453Y62992D02*
D03*
X39272Y58169D02*
D03*
X16732Y76870D02*
D03*
X21752Y73524D02*
D03*
X24213Y68405D02*
D03*
X24016Y107087D02*
D03*
X31890Y99213D02*
D03*
X27953D02*
D03*
X24016D02*
D03*
X20079D02*
D03*
X16142D02*
D03*
Y91339D02*
D03*
X20079D02*
D03*
X32579Y79528D02*
D03*
X37697Y80230D02*
D03*
X34906Y69193D02*
D03*
X31362Y65748D02*
D03*
X32059Y76343D02*
D03*
X27657Y62697D02*
D03*
X110236Y140059D02*
D03*
X35827Y95276D02*
D03*
X12205D02*
D03*
X24016Y83465D02*
D03*
X27953Y87402D02*
D03*
X24016D02*
D03*
X20079D02*
D03*
X31890Y91339D02*
D03*
Y95276D02*
D03*
X16142D02*
D03*
X20079Y103150D02*
D03*
X24016D02*
D03*
X27953D02*
D03*
Y91339D02*
D03*
Y95276D02*
D03*
X24016Y91339D02*
D03*
X20079Y95276D02*
D03*
X24016D02*
D03*
X34646Y62008D02*
D03*
X33465Y43209D02*
D03*
X43012Y46260D02*
D03*
X23917D02*
D03*
X37683Y118947D02*
D03*
X28864Y119984D02*
D03*
X46998Y64089D02*
D03*
X10433Y78740D02*
D03*
X15157Y65551D02*
D03*
X7874Y86122D02*
D03*
X131102Y100394D02*
D03*
X119685D02*
D03*
X117323Y102362D02*
D03*
X122047D02*
D03*
X57972Y95965D02*
D03*
X125197Y88583D02*
D03*
X129134D02*
D03*
X98032Y117618D02*
D03*
Y120374D02*
D03*
X126181Y57480D02*
D03*
X78051Y118307D02*
D03*
X57972Y93209D02*
D03*
X48917Y102166D02*
D03*
X44980Y105512D02*
D03*
X51378Y116783D02*
D03*
X43110Y119095D02*
D03*
X138189Y61024D02*
D03*
Y64961D02*
D03*
Y68898D02*
D03*
Y72835D02*
D03*
Y88583D02*
D03*
Y92520D02*
D03*
Y84646D02*
D03*
Y80709D02*
D03*
X10630Y27756D02*
D03*
X23524Y16339D02*
D03*
X23425Y37598D02*
D03*
Y27756D02*
D03*
X39173Y26378D02*
D03*
X18898Y27756D02*
D03*
X14764D02*
D03*
X6496D02*
D03*
X19587Y16339D02*
D03*
X35630Y26378D02*
D03*
Y22835D02*
D03*
Y29921D02*
D03*
X39173Y22835D02*
D03*
X42717Y26378D02*
D03*
Y22835D02*
D03*
X39173Y29921D02*
D03*
X42717D02*
D03*
X112205Y93701D02*
D03*
Y76968D02*
D03*
Y71949D02*
D03*
Y59941D02*
D03*
X116634Y93012D02*
D03*
Y95374D02*
D03*
Y73622D02*
D03*
Y71260D02*
D03*
X104724Y83661D02*
D03*
X75197Y54449D02*
D03*
X63779Y63386D02*
D03*
X100787Y83661D02*
D03*
X108268Y66693D02*
D03*
X71161Y59252D02*
D03*
X125197Y68898D02*
D03*
X129134D02*
D03*
X125197Y64961D02*
D03*
X129134D02*
D03*
X127165Y66929D02*
D03*
Y86614D02*
D03*
X129134Y84646D02*
D03*
X125197D02*
D03*
X105217Y61910D02*
D03*
X59055Y49705D02*
D03*
D72*
X90551Y137106D02*
D03*
X94488D02*
D03*
X98425D02*
D03*
X86614D02*
D03*
X82677D02*
D03*
X137106Y53937D02*
D03*
Y50000D02*
D03*
Y46063D02*
D03*
Y42126D02*
D03*
Y38189D02*
D03*
X74803Y6201D02*
D03*
X80315D02*
D03*
X85827D02*
D03*
X91339D02*
D03*
X96850D02*
D03*
X102362D02*
D03*
X77559Y10728D02*
D03*
X83071D02*
D03*
X88583D02*
D03*
X94095D02*
D03*
X99606D02*
D03*
X64173D02*
D03*
X58661D02*
D03*
X53150D02*
D03*
X47638D02*
D03*
X42126D02*
D03*
X66929Y6201D02*
D03*
X61417D02*
D03*
X55905D02*
D03*
X50394D02*
D03*
X44882D02*
D03*
X39370D02*
D03*
M02*
