G04*
G04 #@! TF.GenerationSoftware,Altium Limited,Altium Designer,20.0.13 (296)*
G04*
G04 Layer_Color=65535*
%FSLAX25Y25*%
%MOIN*%
G70*
G01*
G75*
%ADD10C,0.00787*%
%ADD11C,0.00984*%
%ADD12C,0.00591*%
%ADD13R,0.01575X0.01575*%
G36*
X62008Y73622D02*
X56784D01*
X52165D01*
Y106693D01*
X62008D01*
Y73622D01*
D02*
G37*
%LPC*%
G36*
X56735Y105454D02*
X53697D01*
X56377D01*
Y103961D01*
X56305Y104014D01*
X56272Y104040D01*
X56243Y104066D01*
X56216Y104089D01*
X56197Y104106D01*
X56184Y104119D01*
X56180Y104122D01*
X56161Y104142D01*
X56134Y104168D01*
X56108Y104198D01*
X56079Y104230D01*
X56013Y104299D01*
X55951Y104371D01*
X55892Y104440D01*
X55866Y104470D01*
X55843Y104499D01*
X55823Y104519D01*
X55810Y104539D01*
X55800Y104549D01*
X55797Y104552D01*
X55734Y104624D01*
X55675Y104693D01*
X55623Y104755D01*
X55570Y104811D01*
X55524Y104863D01*
X55478Y104909D01*
X55439Y104952D01*
X55403Y104991D01*
X55374Y105024D01*
X55344Y105050D01*
X55321Y105073D01*
X55301Y105093D01*
X55285Y105106D01*
X55275Y105119D01*
X55269Y105122D01*
X55265Y105126D01*
X55193Y105188D01*
X55128Y105237D01*
X55065Y105280D01*
X55009Y105316D01*
X54963Y105342D01*
X54927Y105362D01*
X54914Y105368D01*
X54904Y105372D01*
X54901Y105375D01*
X54898D01*
X54832Y105401D01*
X54767Y105418D01*
X54708Y105431D01*
X54652Y105441D01*
X54606Y105447D01*
X54570Y105450D01*
X54557D01*
X54547D01*
X54544D01*
X54540D01*
X54475Y105447D01*
X54412Y105441D01*
X54353Y105428D01*
X54294Y105411D01*
X54242Y105392D01*
X54193Y105368D01*
X54147Y105345D01*
X54107Y105323D01*
X54068Y105300D01*
X54035Y105277D01*
X54006Y105254D01*
X53983Y105234D01*
X53966Y105218D01*
X53950Y105204D01*
X53943Y105198D01*
X53940Y105195D01*
X53898Y105146D01*
X53861Y105093D01*
X53829Y105037D01*
X53799Y104978D01*
X53776Y104922D01*
X53756Y104863D01*
X53740Y104808D01*
X53727Y104752D01*
X53717Y104703D01*
X53711Y104653D01*
X53704Y104611D01*
X53701Y104575D01*
X53697Y104545D01*
Y104503D01*
X53701Y104424D01*
X53707Y104348D01*
X53717Y104279D01*
X53733Y104214D01*
X53750Y104152D01*
X53770Y104096D01*
X53789Y104043D01*
X53809Y103998D01*
X53832Y103955D01*
X53851Y103919D01*
X53871Y103886D01*
X53888Y103860D01*
X53904Y103840D01*
X53914Y103827D01*
X53920Y103817D01*
X53924Y103814D01*
X53966Y103768D01*
X54015Y103728D01*
X54065Y103692D01*
X54120Y103660D01*
X54173Y103633D01*
X54225Y103607D01*
X54281Y103587D01*
X54330Y103571D01*
X54380Y103555D01*
X54426Y103545D01*
X54468Y103535D01*
X54504Y103528D01*
X54534Y103525D01*
X54554Y103522D01*
X54567Y103519D01*
X54573D01*
X54612Y103899D01*
X54560Y103902D01*
X54511Y103906D01*
X54426Y103925D01*
X54347Y103952D01*
X54314Y103965D01*
X54285Y103981D01*
X54258Y103994D01*
X54235Y104011D01*
X54216Y104024D01*
X54199Y104034D01*
X54186Y104047D01*
X54176Y104053D01*
X54173Y104057D01*
X54170Y104060D01*
X54140Y104093D01*
X54114Y104125D01*
X54094Y104161D01*
X54075Y104198D01*
X54045Y104270D01*
X54025Y104339D01*
X54015Y104398D01*
X54009Y104424D01*
Y104447D01*
X54006Y104466D01*
Y104539D01*
X54012Y104585D01*
X54029Y104667D01*
X54055Y104735D01*
X54081Y104798D01*
X54111Y104844D01*
X54124Y104863D01*
X54137Y104880D01*
X54147Y104893D01*
X54153Y104903D01*
X54157Y104906D01*
X54160Y104909D01*
X54189Y104939D01*
X54219Y104962D01*
X54248Y104985D01*
X54281Y105001D01*
X54344Y105031D01*
X54403Y105050D01*
X54452Y105060D01*
X54475Y105067D01*
X54494D01*
X54508Y105070D01*
X54521D01*
X54527D01*
X54531D01*
X54570Y105067D01*
X54609Y105063D01*
X54688Y105044D01*
X54763Y105014D01*
X54832Y104981D01*
X54891Y104949D01*
X54914Y104936D01*
X54937Y104919D01*
X54954Y104909D01*
X54967Y104900D01*
X54973Y104896D01*
X54977Y104893D01*
X55023Y104857D01*
X55072Y104814D01*
X55124Y104765D01*
X55177Y104712D01*
X55285Y104604D01*
X55387Y104493D01*
X55436Y104440D01*
X55478Y104388D01*
X55518Y104342D01*
X55551Y104303D01*
X55580Y104270D01*
X55600Y104247D01*
X55616Y104230D01*
X55620Y104224D01*
X55669Y104165D01*
X55715Y104112D01*
X55757Y104060D01*
X55800Y104014D01*
X55839Y103968D01*
X55879Y103929D01*
X55911Y103893D01*
X55944Y103860D01*
X55974Y103830D01*
X56000Y103807D01*
X56023Y103784D01*
X56039Y103768D01*
X56056Y103751D01*
X56065Y103742D01*
X56072Y103738D01*
X56075Y103735D01*
X56148Y103676D01*
X56220Y103627D01*
X56289Y103584D01*
X56351Y103551D01*
X56403Y103525D01*
X56426Y103515D01*
X56443Y103505D01*
X56459Y103499D01*
X56469Y103496D01*
X56476Y103492D01*
X56479D01*
X56525Y103476D01*
X56571Y103466D01*
X56613Y103456D01*
X56653Y103453D01*
X56686Y103450D01*
X56735D01*
Y105454D01*
D02*
G37*
G36*
X59062Y105626D02*
X58892D01*
X58813Y105623D01*
X58741Y105619D01*
X58672Y105616D01*
X58609Y105610D01*
X58551Y105603D01*
X58498Y105596D01*
X58449Y105593D01*
X58406Y105587D01*
X58370Y105580D01*
X58337Y105573D01*
X58311Y105567D01*
X58288Y105564D01*
X58275Y105560D01*
X58265Y105557D01*
X58262D01*
X58167Y105531D01*
X58078Y105498D01*
X58003Y105468D01*
X57937Y105439D01*
X57911Y105423D01*
X57885Y105413D01*
X57862Y105400D01*
X57845Y105390D01*
X57832Y105380D01*
X57822Y105377D01*
X57816Y105370D01*
X57812D01*
X57747Y105324D01*
X57688Y105272D01*
X57639Y105222D01*
X57599Y105173D01*
X57566Y105131D01*
X57547Y105098D01*
X57537Y105085D01*
X57530Y105075D01*
X57527Y105068D01*
Y105065D01*
X57494Y104993D01*
X57471Y104921D01*
X57452Y104849D01*
X57442Y104783D01*
X57435Y104724D01*
X57432Y104701D01*
X57429Y104678D01*
Y104639D01*
X57432Y104580D01*
X57435Y104521D01*
X57445Y104465D01*
X57455Y104412D01*
X57468Y104367D01*
X57485Y104321D01*
X57501Y104278D01*
X57517Y104242D01*
X57534Y104206D01*
X57550Y104176D01*
X57563Y104150D01*
X57580Y104130D01*
X57589Y104114D01*
X57599Y104101D01*
X57603Y104094D01*
X57606Y104091D01*
X57642Y104052D01*
X57678Y104016D01*
X57760Y103950D01*
X57842Y103891D01*
X57924Y103845D01*
X57963Y103825D01*
X57996Y103809D01*
X58029Y103796D01*
X58055Y103783D01*
X58078Y103776D01*
X58098Y103770D01*
X58108Y103763D01*
X58111D01*
X58173Y103743D01*
X58242Y103727D01*
X58383Y103701D01*
X58527Y103681D01*
X58596Y103674D01*
X58665Y103668D01*
X58728Y103665D01*
X58787Y103661D01*
X58839Y103658D01*
X58885D01*
X58921Y103655D01*
X57429D01*
D01*
X60515D01*
D01*
X58974D01*
X59128Y103658D01*
X59272Y103668D01*
X59403Y103681D01*
X59525Y103701D01*
X59636Y103724D01*
X59738Y103750D01*
X59826Y103776D01*
X59908Y103806D01*
X59977Y103832D01*
X60040Y103858D01*
X60089Y103884D01*
X60131Y103907D01*
X60164Y103927D01*
X60187Y103940D01*
X60200Y103950D01*
X60204Y103953D01*
X60259Y104002D01*
X60305Y104055D01*
X60348Y104111D01*
X60384Y104166D01*
X60413Y104222D01*
X60440Y104281D01*
X60459Y104337D01*
X60476Y104389D01*
X60489Y104442D01*
X60499Y104488D01*
X60505Y104530D01*
X60509Y104567D01*
X60512Y104596D01*
X60515Y104619D01*
Y104639D01*
X60512Y104701D01*
X60509Y104757D01*
X60499Y104813D01*
X60489Y104865D01*
X60473Y104914D01*
X60459Y104957D01*
X60443Y104999D01*
X60427Y105036D01*
X60410Y105072D01*
X60394Y105101D01*
X60377Y105127D01*
X60364Y105147D01*
X60355Y105164D01*
X60345Y105177D01*
X60341Y105183D01*
X60338Y105186D01*
X60302Y105226D01*
X60266Y105265D01*
X60184Y105331D01*
X60102Y105386D01*
X60020Y105432D01*
X59981Y105452D01*
X59944Y105468D01*
X59915Y105482D01*
X59885Y105495D01*
X59866Y105505D01*
X59846Y105508D01*
X59836Y105515D01*
X59833D01*
X59771Y105534D01*
X59702Y105551D01*
X59561Y105580D01*
X59416Y105600D01*
X59347Y105606D01*
X59279Y105613D01*
X59216Y105616D01*
X59157Y105619D01*
X59108Y105623D01*
X59062Y105626D01*
D02*
G37*
G36*
X56735Y102958D02*
X56312D01*
Y102535D01*
X56735D01*
Y102958D01*
D02*
G37*
G36*
X60466Y103254D02*
X60109D01*
Y101762D01*
X60036Y101815D01*
X60004Y101841D01*
X59974Y101867D01*
X59948Y101890D01*
X59928Y101906D01*
X59915Y101920D01*
X59912Y101923D01*
X59892Y101943D01*
X59866Y101969D01*
X59839Y101998D01*
X59810Y102031D01*
X59744Y102100D01*
X59682Y102172D01*
X59623Y102241D01*
X59597Y102270D01*
X59574Y102300D01*
X59554Y102320D01*
X59541Y102339D01*
X59531Y102349D01*
X59528Y102352D01*
X59466Y102425D01*
X59407Y102494D01*
X59354Y102556D01*
X59302Y102612D01*
X59256Y102664D01*
X59210Y102710D01*
X59170Y102753D01*
X59134Y102792D01*
X59105Y102825D01*
X59075Y102851D01*
X59052Y102874D01*
X59033Y102894D01*
X59016Y102907D01*
X59006Y102920D01*
X59000Y102923D01*
X58997Y102927D01*
X58924Y102989D01*
X58859Y103038D01*
X58797Y103081D01*
X58741Y103117D01*
X58695Y103143D01*
X58659Y103163D01*
X58646Y103169D01*
X58636Y103173D01*
X58632Y103176D01*
X58629D01*
X58564Y103202D01*
X58498Y103218D01*
X58439Y103232D01*
X58383Y103241D01*
X58337Y103248D01*
X58301Y103251D01*
X58288D01*
X58278D01*
X58275D01*
X58272D01*
X58206Y103248D01*
X58144Y103241D01*
X58085Y103228D01*
X58026Y103212D01*
X57973Y103192D01*
X57924Y103169D01*
X57878Y103146D01*
X57839Y103123D01*
X57799Y103100D01*
X57767Y103077D01*
X57737Y103054D01*
X57714Y103035D01*
X57698Y103018D01*
X57681Y103005D01*
X57675Y102999D01*
X57671Y102995D01*
X57629Y102946D01*
X57593Y102894D01*
X57560Y102838D01*
X57530Y102779D01*
X57507Y102723D01*
X57488Y102664D01*
X57471Y102608D01*
X57458Y102553D01*
X57448Y102503D01*
X57442Y102454D01*
X57435Y102412D01*
X57432Y102375D01*
X57429Y102346D01*
Y102303D01*
X57432Y102225D01*
X57439Y102149D01*
X57448Y102080D01*
X57465Y102015D01*
X57481Y101952D01*
X57501Y101897D01*
X57521Y101844D01*
X57540Y101798D01*
X57563Y101756D01*
X57583Y101719D01*
X57603Y101687D01*
X57619Y101661D01*
X57635Y101641D01*
X57645Y101628D01*
X57652Y101618D01*
X57655Y101614D01*
X57698Y101569D01*
X57747Y101529D01*
X57796Y101493D01*
X57852Y101460D01*
X57904Y101434D01*
X57957Y101408D01*
X58013Y101388D01*
X58062Y101372D01*
X58111Y101355D01*
X58157Y101346D01*
X58200Y101336D01*
X58236Y101329D01*
X58265Y101326D01*
X58285Y101323D01*
X58298Y101319D01*
X58305D01*
X58344Y101700D01*
X58291Y101703D01*
X58242Y101706D01*
X58157Y101726D01*
X58078Y101752D01*
X58045Y101765D01*
X58016Y101782D01*
X57990Y101795D01*
X57967Y101811D01*
X57947Y101824D01*
X57931Y101834D01*
X57917Y101847D01*
X57908Y101854D01*
X57904Y101857D01*
X57901Y101860D01*
X57872Y101893D01*
X57845Y101926D01*
X57826Y101962D01*
X57806Y101998D01*
X57776Y102070D01*
X57757Y102139D01*
X57747Y102198D01*
X57740Y102225D01*
Y102248D01*
X57737Y102267D01*
Y102339D01*
X57744Y102385D01*
X57760Y102467D01*
X57786Y102536D01*
X57812Y102599D01*
X57842Y102645D01*
X57855Y102664D01*
X57868Y102681D01*
X57878Y102694D01*
X57885Y102703D01*
X57888Y102707D01*
X57891Y102710D01*
X57921Y102740D01*
X57950Y102762D01*
X57980Y102786D01*
X58013Y102802D01*
X58075Y102831D01*
X58134Y102851D01*
X58183Y102861D01*
X58206Y102867D01*
X58226D01*
X58239Y102871D01*
X58252D01*
X58259D01*
X58262D01*
X58301Y102867D01*
X58341Y102864D01*
X58419Y102845D01*
X58495Y102815D01*
X58564Y102782D01*
X58623Y102749D01*
X58646Y102736D01*
X58669Y102720D01*
X58685Y102710D01*
X58698Y102700D01*
X58705Y102697D01*
X58708Y102694D01*
X58754Y102658D01*
X58803Y102615D01*
X58855Y102566D01*
X58908Y102513D01*
X59016Y102405D01*
X59118Y102294D01*
X59167Y102241D01*
X59210Y102189D01*
X59249Y102143D01*
X59282Y102103D01*
X59311Y102070D01*
X59331Y102048D01*
X59347Y102031D01*
X59351Y102024D01*
X59400Y101965D01*
X59446Y101913D01*
X59489Y101860D01*
X59531Y101815D01*
X59571Y101769D01*
X59610Y101729D01*
X59643Y101693D01*
X59676Y101661D01*
X59705Y101631D01*
X59731Y101608D01*
X59754Y101585D01*
X59771Y101569D01*
X59787Y101552D01*
X59797Y101542D01*
X59803Y101539D01*
X59807Y101536D01*
X59879Y101477D01*
X59951Y101428D01*
X60020Y101385D01*
X60082Y101352D01*
X60135Y101326D01*
X60158Y101316D01*
X60174Y101306D01*
X60190Y101300D01*
X60200Y101296D01*
X60207Y101293D01*
X60210D01*
X60256Y101277D01*
X60302Y101267D01*
X60345Y101257D01*
X60384Y101254D01*
X60417Y101251D01*
X57429D01*
D01*
X60466D01*
Y103254D01*
D02*
G37*
G36*
X56784Y101947D02*
X53697D01*
X55160D01*
X55082Y101944D01*
X55009Y101941D01*
X54940Y101938D01*
X54878Y101931D01*
X54819Y101925D01*
X54767Y101918D01*
X54717Y101915D01*
X54675Y101908D01*
X54639Y101901D01*
X54606Y101895D01*
X54580Y101888D01*
X54557Y101885D01*
X54544Y101882D01*
X54534Y101879D01*
X54531D01*
X54435Y101852D01*
X54347Y101820D01*
X54271Y101790D01*
X54206Y101760D01*
X54180Y101744D01*
X54153Y101734D01*
X54130Y101721D01*
X54114Y101711D01*
X54101Y101701D01*
X54091Y101698D01*
X54084Y101692D01*
X54081D01*
X54015Y101646D01*
X53957Y101593D01*
X53907Y101544D01*
X53868Y101495D01*
X53835Y101452D01*
X53816Y101419D01*
X53806Y101406D01*
X53799Y101396D01*
X53796Y101390D01*
Y101387D01*
X53763Y101314D01*
X53740Y101242D01*
X53720Y101170D01*
X53711Y101104D01*
X53704Y101046D01*
X53701Y101023D01*
X53697Y100999D01*
Y100960D01*
X53701Y100901D01*
X53704Y100842D01*
X53714Y100786D01*
X53724Y100734D01*
X53737Y100688D01*
X53753Y100642D01*
X53770Y100599D01*
X53786Y100563D01*
X53802Y100527D01*
X53819Y100498D01*
X53832Y100471D01*
X53848Y100452D01*
X53858Y100435D01*
X53868Y100422D01*
X53871Y100416D01*
X53874Y100412D01*
X53911Y100373D01*
X53947Y100337D01*
X54029Y100271D01*
X54111Y100212D01*
X54193Y100166D01*
X54232Y100147D01*
X54265Y100130D01*
X54298Y100117D01*
X54324Y100104D01*
X54347Y100098D01*
X54366Y100091D01*
X54376Y100084D01*
X54380D01*
X54442Y100065D01*
X54511Y100048D01*
X54652Y100022D01*
X54796Y100002D01*
X54865Y99996D01*
X54934Y99989D01*
X54996Y99986D01*
X55055Y99983D01*
X55108Y99979D01*
X55154D01*
X55190Y99976D01*
X56784D01*
X55242D01*
X55396Y99979D01*
X55541Y99989D01*
X55672Y100002D01*
X55793Y100022D01*
X55905Y100045D01*
X56006Y100071D01*
X56095Y100098D01*
X56177Y100127D01*
X56246Y100153D01*
X56308Y100180D01*
X56358Y100206D01*
X56400Y100229D01*
X56433Y100248D01*
X56456Y100261D01*
X56469Y100271D01*
X56472Y100275D01*
X56528Y100324D01*
X56574Y100376D01*
X56617Y100432D01*
X56653Y100488D01*
X56682Y100544D01*
X56708Y100603D01*
X56728Y100658D01*
X56744Y100711D01*
X56758Y100763D01*
X56767Y100809D01*
X56774Y100852D01*
X56777Y100888D01*
X56781Y100917D01*
X56784Y100941D01*
Y100960D01*
X56781Y101023D01*
X56777Y101078D01*
X56767Y101134D01*
X56758Y101187D01*
X56741Y101236D01*
X56728Y101278D01*
X56712Y101321D01*
X56695Y101357D01*
X56679Y101393D01*
X56662Y101423D01*
X56646Y101449D01*
X56633Y101469D01*
X56623Y101485D01*
X56613Y101498D01*
X56610Y101505D01*
X56607Y101508D01*
X56571Y101547D01*
X56535Y101587D01*
X56453Y101652D01*
X56371Y101708D01*
X56289Y101754D01*
X56249Y101774D01*
X56213Y101790D01*
X56184Y101803D01*
X56154Y101816D01*
X56134Y101826D01*
X56115Y101829D01*
X56105Y101836D01*
X56102D01*
X56039Y101856D01*
X55970Y101872D01*
X55829Y101901D01*
X55685Y101921D01*
X55616Y101928D01*
X55547Y101934D01*
X55485Y101938D01*
X55426Y101941D01*
X55377Y101944D01*
X55331Y101947D01*
X56784D01*
D02*
G37*
G36*
X60518Y101129D02*
X57389D01*
Y99952D01*
Y100831D01*
X60518Y99952D01*
Y100250D01*
X57389Y101129D01*
X60518D01*
D02*
G37*
G36*
X59508Y99758D02*
X59482D01*
X59403Y99755D01*
X59328Y99748D01*
X59256Y99735D01*
X59190Y99719D01*
X59128Y99696D01*
X59069Y99676D01*
X59016Y99650D01*
X58967Y99627D01*
X58924Y99604D01*
X58885Y99578D01*
X58852Y99558D01*
X58826Y99538D01*
X58803Y99519D01*
X58790Y99506D01*
X58780Y99499D01*
X58777Y99496D01*
X58728Y99446D01*
X58685Y99394D01*
X58649Y99341D01*
X58616Y99286D01*
X58590Y99233D01*
X58567Y99181D01*
X58551Y99128D01*
X58534Y99082D01*
X58524Y99037D01*
X58514Y98994D01*
X58511Y98958D01*
X58505Y98925D01*
Y98899D01*
X58501Y98879D01*
Y98863D01*
X58505Y98784D01*
X58518Y98708D01*
X58534Y98640D01*
X58551Y98577D01*
X58570Y98525D01*
X58580Y98505D01*
X58587Y98485D01*
X58593Y98472D01*
X58600Y98462D01*
X58603Y98456D01*
Y98453D01*
X58646Y98384D01*
X58692Y98321D01*
X58741Y98266D01*
X58790Y98216D01*
X58836Y98180D01*
X58872Y98151D01*
X58885Y98141D01*
X58895Y98134D01*
X58901Y98128D01*
X58823Y98131D01*
X58744Y98134D01*
X58672Y98138D01*
X58606Y98144D01*
X58544Y98154D01*
X58485Y98164D01*
X58432Y98171D01*
X58386Y98180D01*
X58347Y98190D01*
X58311Y98200D01*
X58278Y98210D01*
X58255Y98216D01*
X58236Y98223D01*
X58219Y98230D01*
X58213Y98233D01*
X58209D01*
X58124Y98276D01*
X58049Y98318D01*
X57983Y98364D01*
X57931Y98410D01*
X57888Y98449D01*
X57858Y98479D01*
X57849Y98492D01*
X57842Y98502D01*
X57835Y98505D01*
Y98508D01*
X57803Y98561D01*
X57776Y98613D01*
X57760Y98666D01*
X57747Y98715D01*
X57740Y98758D01*
X57734Y98794D01*
Y98823D01*
X57737Y98863D01*
X57740Y98902D01*
X57760Y98974D01*
X57783Y99040D01*
X57812Y99092D01*
X57842Y99138D01*
X57868Y99171D01*
X57878Y99181D01*
X57888Y99191D01*
X57891Y99194D01*
X57894Y99197D01*
X57937Y99230D01*
X57986Y99256D01*
X58039Y99282D01*
X58091Y99302D01*
X58137Y99318D01*
X58177Y99328D01*
X58193Y99332D01*
X58203Y99335D01*
X58209Y99338D01*
X58213D01*
X58183Y99709D01*
X58118Y99699D01*
X58059Y99683D01*
X58003Y99666D01*
X57950Y99647D01*
X57901Y99624D01*
X57855Y99601D01*
X57812Y99578D01*
X57776Y99555D01*
X57744Y99532D01*
X57714Y99509D01*
X57688Y99489D01*
X57668Y99469D01*
X57652Y99456D01*
X57642Y99443D01*
X57635Y99437D01*
X57632Y99433D01*
X57596Y99387D01*
X57566Y99341D01*
X57537Y99296D01*
X57514Y99246D01*
X57494Y99194D01*
X57478Y99148D01*
X57455Y99053D01*
X57445Y99010D01*
X57439Y98971D01*
X57435Y98935D01*
X57432Y98905D01*
X57429Y98882D01*
Y98846D01*
X57432Y98758D01*
X57445Y98676D01*
X57462Y98597D01*
X57485Y98525D01*
X57511Y98456D01*
X57540Y98394D01*
X57570Y98334D01*
X57603Y98282D01*
X57635Y98236D01*
X57665Y98197D01*
X57694Y98161D01*
X57721Y98134D01*
X57744Y98111D01*
X57760Y98095D01*
X57773Y98085D01*
X57776Y98082D01*
X57855Y98026D01*
X57944Y97974D01*
X58042Y97931D01*
X58144Y97895D01*
X58249Y97862D01*
X58354Y97836D01*
X58459Y97816D01*
X58564Y97797D01*
X58662Y97783D01*
X58754Y97774D01*
X58836Y97767D01*
X58908Y97764D01*
X58941Y97760D01*
X58967D01*
X58993Y97757D01*
X57429D01*
D01*
X60515D01*
D01*
X59052D01*
X59193Y97760D01*
X59325Y97770D01*
X59446Y97783D01*
X59557Y97803D01*
X59659Y97826D01*
X59751Y97849D01*
X59833Y97875D01*
X59905Y97905D01*
X59971Y97931D01*
X60027Y97957D01*
X60072Y97980D01*
X60109Y98003D01*
X60138Y98023D01*
X60158Y98036D01*
X60171Y98046D01*
X60174Y98049D01*
X60233Y98105D01*
X60286Y98167D01*
X60331Y98226D01*
X60371Y98292D01*
X60404Y98354D01*
X60433Y98417D01*
X60453Y98479D01*
X60473Y98538D01*
X60486Y98594D01*
X60496Y98643D01*
X60505Y98689D01*
X60509Y98728D01*
X60512Y98761D01*
X60515Y98787D01*
Y98807D01*
X60509Y98905D01*
X60496Y98997D01*
X60476Y99082D01*
X60450Y99155D01*
X60440Y99184D01*
X60427Y99214D01*
X60417Y99237D01*
X60407Y99256D01*
X60400Y99273D01*
X60394Y99286D01*
X60387Y99292D01*
Y99296D01*
X60335Y99371D01*
X60273Y99440D01*
X60210Y99499D01*
X60151Y99545D01*
X60095Y99584D01*
X60072Y99597D01*
X60053Y99611D01*
X60036Y99620D01*
X60023Y99627D01*
X60017Y99633D01*
X60013D01*
X59918Y99676D01*
X59826Y99706D01*
X59738Y99729D01*
X59656Y99742D01*
X59620Y99748D01*
X59584Y99752D01*
X59554Y99755D01*
X59531D01*
X59508Y99758D01*
D02*
G37*
G36*
X53707Y99763D02*
Y99356D01*
X55908Y98540D01*
X56000Y98507D01*
X56089Y98474D01*
X56174Y98444D01*
X56249Y98422D01*
X56282Y98412D01*
X56312Y98402D01*
X56338Y98395D01*
X56361Y98389D01*
X56377Y98382D01*
X56394Y98379D01*
X56400Y98375D01*
X56403D01*
X56315Y98349D01*
X56226Y98323D01*
X56144Y98297D01*
X56069Y98274D01*
X56033Y98261D01*
X56003Y98251D01*
X55977Y98241D01*
X55954Y98234D01*
X55934Y98228D01*
X55921Y98221D01*
X55911Y98218D01*
X55908D01*
X53707Y97431D01*
Y96995D01*
X56735Y98169D01*
Y97252D01*
Y98613D01*
Y98582D01*
X53707Y99763D01*
D02*
G37*
G36*
X59062Y97396D02*
X58892D01*
X58813Y97393D01*
X58741Y97390D01*
X58672Y97387D01*
X58609Y97380D01*
X58551Y97373D01*
X58498Y97367D01*
X58449Y97364D01*
X58406Y97357D01*
X58370Y97351D01*
X58337Y97344D01*
X58311Y97337D01*
X58288Y97334D01*
X58275Y97331D01*
X58265Y97328D01*
X58262D01*
X58167Y97301D01*
X58078Y97268D01*
X58003Y97239D01*
X57937Y97210D01*
X57911Y97193D01*
X57885Y97183D01*
X57862Y97170D01*
X57845Y97160D01*
X57832Y97150D01*
X57822Y97147D01*
X57816Y97141D01*
X57812D01*
X57747Y97095D01*
X57688Y97042D01*
X57639Y96993D01*
X57599Y96944D01*
X57566Y96901D01*
X57547Y96868D01*
X57537Y96855D01*
X57530Y96845D01*
X57527Y96839D01*
Y96836D01*
X57494Y96763D01*
X57471Y96691D01*
X57452Y96619D01*
X57442Y96553D01*
X57435Y96494D01*
X57432Y96472D01*
X57429Y96448D01*
Y97396D01*
D01*
Y95425D01*
X60515D01*
D01*
X58974D01*
X59128Y95428D01*
X59272Y95438D01*
X59403Y95451D01*
X59525Y95471D01*
X59636Y95494D01*
X59738Y95520D01*
X59826Y95547D01*
X59908Y95576D01*
X59977Y95602D01*
X60040Y95628D01*
X60089Y95655D01*
X60131Y95678D01*
X60164Y95697D01*
X60187Y95710D01*
X60200Y95720D01*
X60204Y95724D01*
X60259Y95773D01*
X60305Y95825D01*
X60348Y95881D01*
X60384Y95937D01*
X60413Y95993D01*
X60440Y96052D01*
X60459Y96107D01*
X60476Y96160D01*
X60489Y96212D01*
X60499Y96258D01*
X60505Y96301D01*
X60509Y96337D01*
X60512Y96367D01*
X60515Y96390D01*
Y96409D01*
X60512Y96472D01*
X60509Y96527D01*
X60499Y96583D01*
X60489Y96636D01*
X60473Y96685D01*
X60459Y96727D01*
X60443Y96770D01*
X60427Y96806D01*
X60410Y96842D01*
X60394Y96872D01*
X60377Y96898D01*
X60364Y96918D01*
X60355Y96934D01*
X60345Y96947D01*
X60341Y96954D01*
X60338Y96957D01*
X60302Y96996D01*
X60266Y97036D01*
X60184Y97101D01*
X60102Y97157D01*
X60020Y97203D01*
X59981Y97223D01*
X59944Y97239D01*
X59915Y97252D01*
X59885Y97265D01*
X59866Y97275D01*
X59846Y97278D01*
X59836Y97285D01*
X59833D01*
X59771Y97305D01*
X59702Y97321D01*
X59561Y97351D01*
X59416Y97370D01*
X59347Y97377D01*
X59279Y97383D01*
X59216Y97387D01*
X59157Y97390D01*
X59108Y97393D01*
X59062Y97396D01*
D02*
G37*
G36*
X56735Y95512D02*
X55298D01*
X55255Y95509D01*
X55219D01*
X55186Y95505D01*
X55157D01*
X55108Y95502D01*
X55072Y95496D01*
X55045Y95492D01*
X55029Y95489D01*
X55026D01*
X54967Y95476D01*
X54914Y95456D01*
X54868Y95440D01*
X54829Y95420D01*
X54796Y95401D01*
X54770Y95388D01*
X54757Y95378D01*
X54750Y95374D01*
X54708Y95341D01*
X54672Y95302D01*
X54642Y95259D01*
X54612Y95220D01*
X54593Y95181D01*
X54576Y95151D01*
X54567Y95132D01*
X54563Y95128D01*
Y95125D01*
X54540Y95063D01*
X54521Y95000D01*
X54508Y94938D01*
X54501Y94882D01*
X54494Y94833D01*
Y94814D01*
X54491Y94794D01*
Y94830D01*
Y93731D01*
Y94761D01*
X54494Y94679D01*
X54508Y94600D01*
X54524Y94528D01*
X54547Y94459D01*
X54576Y94397D01*
X54606Y94341D01*
X54639Y94289D01*
X54672Y94243D01*
X54708Y94200D01*
X54740Y94164D01*
X54770Y94134D01*
X54799Y94112D01*
X54822Y94092D01*
X54839Y94076D01*
X54852Y94069D01*
X54855Y94066D01*
X54540D01*
Y93731D01*
X54491D01*
X56735D01*
Y94787D01*
Y94102D01*
X55537D01*
X55462Y94105D01*
X55390Y94108D01*
X55327Y94118D01*
X55269Y94128D01*
X55216Y94141D01*
X55170Y94154D01*
X55128Y94171D01*
X55091Y94187D01*
X55059Y94203D01*
X55032Y94220D01*
X55013Y94233D01*
X54993Y94246D01*
X54980Y94256D01*
X54970Y94266D01*
X54967Y94269D01*
X54963Y94272D01*
X54937Y94305D01*
X54914Y94341D01*
X54875Y94410D01*
X54849Y94479D01*
X54832Y94541D01*
X54819Y94597D01*
X54816Y94623D01*
Y94643D01*
X54813Y94659D01*
Y94682D01*
X54816Y94738D01*
X54822Y94787D01*
X54836Y94830D01*
X54845Y94869D01*
X54858Y94899D01*
X54872Y94922D01*
X54878Y94938D01*
X54882Y94941D01*
X54908Y94981D01*
X54937Y95013D01*
X54967Y95040D01*
X54996Y95060D01*
X55023Y95076D01*
X55042Y95086D01*
X55055Y95092D01*
X55062Y95095D01*
X55108Y95112D01*
X55160Y95122D01*
X55216Y95132D01*
X55272Y95135D01*
X55321Y95138D01*
X55344Y95141D01*
X55364D01*
X55377D01*
X55390D01*
X55396D01*
X55400D01*
X56735D01*
Y95512D01*
D02*
G37*
G36*
X57389Y95251D02*
Y94953D01*
X60518Y94074D01*
Y94397D01*
Y94372D01*
X57389Y95251D01*
D02*
G37*
G36*
X56735Y93167D02*
X54540D01*
Y92796D01*
X54130D01*
Y93167D01*
X53707D01*
Y92796D01*
X56735D01*
Y93167D01*
D02*
G37*
G36*
X59508Y93880D02*
X59482D01*
X59403Y93877D01*
X59328Y93871D01*
X59256Y93857D01*
X59190Y93841D01*
X59128Y93818D01*
X59069Y93798D01*
X59016Y93772D01*
X58967Y93749D01*
X58924Y93726D01*
X58885Y93700D01*
X58852Y93680D01*
X58826Y93660D01*
X58803Y93641D01*
X58790Y93628D01*
X58780Y93621D01*
X58777Y93618D01*
X58728Y93569D01*
X58685Y93516D01*
X58649Y93464D01*
X58616Y93408D01*
X58590Y93356D01*
X58567Y93303D01*
X58551Y93251D01*
X58534Y93205D01*
X58524Y93159D01*
X58514Y93116D01*
X58511Y93080D01*
X58505Y93047D01*
Y93021D01*
X58501Y93001D01*
Y92985D01*
X58505Y92906D01*
X58518Y92831D01*
X58534Y92762D01*
X58551Y92699D01*
X58570Y92647D01*
X58580Y92627D01*
X58587Y92608D01*
X58593Y92594D01*
X58600Y92585D01*
X58603Y92578D01*
Y92575D01*
X58646Y92506D01*
X58692Y92444D01*
X58741Y92388D01*
X58790Y92339D01*
X58836Y92303D01*
X58872Y92273D01*
X58885Y92263D01*
X58895Y92257D01*
X58901Y92250D01*
X58823Y92253D01*
X58744Y92257D01*
X58672Y92260D01*
X58606Y92266D01*
X58544Y92276D01*
X58485Y92286D01*
X58432Y92293D01*
X58386Y92303D01*
X58347Y92313D01*
X58311Y92322D01*
X58278Y92332D01*
X58255Y92339D01*
X58236Y92345D01*
X58219Y92352D01*
X58213Y92355D01*
X58209D01*
X58124Y92398D01*
X58049Y92440D01*
X57983Y92486D01*
X57931Y92532D01*
X57888Y92572D01*
X57858Y92601D01*
X57849Y92614D01*
X57842Y92624D01*
X57835Y92627D01*
Y92631D01*
X57803Y92683D01*
X57776Y92736D01*
X57760Y92788D01*
X57747Y92837D01*
X57740Y92880D01*
X57734Y92916D01*
Y92945D01*
X57737Y92985D01*
X57740Y93024D01*
X57760Y93096D01*
X57783Y93162D01*
X57812Y93214D01*
X57842Y93260D01*
X57868Y93293D01*
X57878Y93303D01*
X57888Y93313D01*
X57891Y93316D01*
X57894Y93319D01*
X57937Y93352D01*
X57986Y93378D01*
X58039Y93405D01*
X58091Y93424D01*
X58137Y93441D01*
X58177Y93451D01*
X58193Y93454D01*
X58203Y93457D01*
X58209Y93461D01*
X58213D01*
X58183Y93831D01*
X58118Y93821D01*
X58059Y93805D01*
X58003Y93788D01*
X57950Y93769D01*
X57901Y93746D01*
X57855Y93723D01*
X57812Y93700D01*
X57776Y93677D01*
X57744Y93654D01*
X57714Y93631D01*
X57688Y93611D01*
X57668Y93592D01*
X57652Y93578D01*
X57642Y93565D01*
X57635Y93559D01*
X57632Y93556D01*
X57596Y93510D01*
X57566Y93464D01*
X57537Y93418D01*
X57514Y93369D01*
X57494Y93316D01*
X57478Y93270D01*
X57455Y93175D01*
X57445Y93132D01*
X57439Y93093D01*
X57435Y93057D01*
X57432Y93028D01*
X57429Y93005D01*
Y92968D01*
X57432Y92880D01*
X57445Y92798D01*
X57462Y92719D01*
X57485Y92647D01*
X57511Y92578D01*
X57540Y92516D01*
X57570Y92457D01*
X57603Y92404D01*
X57635Y92358D01*
X57665Y92319D01*
X57694Y92283D01*
X57721Y92257D01*
X57744Y92234D01*
X57760Y92217D01*
X57773Y92207D01*
X57776Y92204D01*
X57855Y92149D01*
X57944Y92096D01*
X58042Y92053D01*
X58144Y92017D01*
X58249Y91984D01*
X58354Y91958D01*
X58459Y91939D01*
X58564Y91919D01*
X58662Y91906D01*
X58754Y91896D01*
X58836Y91889D01*
X58908Y91886D01*
X58941Y91883D01*
X58967D01*
X58993Y91879D01*
X57429D01*
D01*
X60515D01*
D01*
X59052D01*
X59193Y91883D01*
X59325Y91893D01*
X59446Y91906D01*
X59557Y91925D01*
X59659Y91948D01*
X59751Y91971D01*
X59833Y91998D01*
X59905Y92027D01*
X59971Y92053D01*
X60027Y92080D01*
X60072Y92102D01*
X60109Y92125D01*
X60138Y92145D01*
X60158Y92158D01*
X60171Y92168D01*
X60174Y92171D01*
X60233Y92227D01*
X60286Y92290D01*
X60331Y92348D01*
X60371Y92414D01*
X60404Y92476D01*
X60433Y92539D01*
X60453Y92601D01*
X60473Y92660D01*
X60486Y92716D01*
X60496Y92765D01*
X60505Y92811D01*
X60509Y92850D01*
X60512Y92883D01*
X60515Y92909D01*
Y92929D01*
X60509Y93028D01*
X60496Y93119D01*
X60476Y93205D01*
X60450Y93277D01*
X60440Y93306D01*
X60427Y93336D01*
X60417Y93359D01*
X60407Y93378D01*
X60400Y93395D01*
X60394Y93408D01*
X60387Y93414D01*
Y93418D01*
X60335Y93493D01*
X60273Y93562D01*
X60210Y93621D01*
X60151Y93667D01*
X60095Y93706D01*
X60072Y93720D01*
X60053Y93733D01*
X60036Y93743D01*
X60023Y93749D01*
X60017Y93756D01*
X60013D01*
X59918Y93798D01*
X59826Y93828D01*
X59738Y93851D01*
X59656Y93864D01*
X59620Y93871D01*
X59584Y93874D01*
X59554Y93877D01*
X59531D01*
X59508Y93880D01*
D02*
G37*
G36*
X56735Y92334D02*
X56689Y92311D01*
X56639Y92291D01*
X56597Y92275D01*
X56558Y92262D01*
X56521Y92252D01*
X56495Y92245D01*
X56479Y92242D01*
X56472D01*
X56443Y92239D01*
X56403Y92235D01*
X56361Y92232D01*
X56312Y92229D01*
X56259Y92225D01*
X56203D01*
X56092Y92222D01*
X56039D01*
X55987Y92219D01*
X55941D01*
X55898D01*
X55866D01*
X55839D01*
X55823D01*
X55816D01*
X55321D01*
X55275D01*
X55236D01*
X55200Y92216D01*
X55164D01*
X55105Y92212D01*
X55059Y92209D01*
X55023Y92206D01*
X55000Y92203D01*
X54983Y92199D01*
X54980D01*
X54924Y92186D01*
X54875Y92167D01*
X54832Y92147D01*
X54796Y92127D01*
X54767Y92111D01*
X54744Y92094D01*
X54731Y92084D01*
X54727Y92081D01*
X54691Y92045D01*
X54658Y92006D01*
X54629Y91963D01*
X54606Y91921D01*
X54586Y91881D01*
X54573Y91852D01*
X54567Y91839D01*
X54563Y91829D01*
X54560Y91825D01*
Y91822D01*
X54537Y91753D01*
X54521Y91678D01*
X54508Y91602D01*
X54501Y91530D01*
X54494Y91468D01*
Y91438D01*
X54491Y91415D01*
Y91369D01*
X54494Y91268D01*
X54504Y91173D01*
X54517Y91087D01*
X54524Y91048D01*
X54531Y91015D01*
X54537Y90982D01*
X54544Y90953D01*
X54550Y90930D01*
X54557Y90910D01*
X54563Y90894D01*
X54567Y90881D01*
X54570Y90874D01*
Y90871D01*
X54603Y90795D01*
X54639Y90730D01*
X54675Y90674D01*
X54711Y90628D01*
X54744Y90592D01*
X54770Y90566D01*
X54786Y90549D01*
X54790Y90543D01*
X54793D01*
X54849Y90504D01*
X54911Y90471D01*
X54973Y90444D01*
X55032Y90421D01*
X55085Y90405D01*
X55108Y90399D01*
X55128Y90392D01*
X55144Y90389D01*
X55157Y90386D01*
X55164Y90382D01*
X55167D01*
X55216Y90746D01*
X55173Y90759D01*
X55134Y90772D01*
X55068Y90799D01*
X55009Y90832D01*
X54967Y90861D01*
X54934Y90887D01*
X54908Y90910D01*
X54895Y90923D01*
X54891Y90930D01*
X54862Y90982D01*
X54839Y91045D01*
X54822Y91107D01*
X54809Y91169D01*
X54803Y91228D01*
Y91251D01*
X54799Y91274D01*
Y91317D01*
X54806Y91415D01*
X54819Y91501D01*
X54839Y91573D01*
X54862Y91632D01*
X54888Y91678D01*
X54898Y91694D01*
X54908Y91711D01*
X54914Y91724D01*
X54921Y91730D01*
X54927Y91737D01*
X54967Y91773D01*
X55016Y91799D01*
X55068Y91819D01*
X55121Y91832D01*
X55170Y91839D01*
X55209Y91845D01*
X55223D01*
X55236D01*
X55242D01*
X55246D01*
X55255D01*
X55269D01*
X55301D01*
X55314Y91842D01*
X55327D01*
X55337D01*
X55341D01*
X55354Y91799D01*
X55367Y91753D01*
X55380Y91701D01*
X55393Y91648D01*
X55416Y91540D01*
X55436Y91432D01*
X55442Y91379D01*
X55449Y91333D01*
X55455Y91291D01*
X55462Y91251D01*
X55465Y91222D01*
X55469Y91199D01*
X55472Y91186D01*
Y91179D01*
X55482Y91101D01*
X55492Y91035D01*
X55501Y90976D01*
X55508Y90930D01*
X55518Y90894D01*
X55521Y90868D01*
X55528Y90855D01*
Y90848D01*
X55544Y90795D01*
X55564Y90743D01*
X55583Y90697D01*
X55603Y90658D01*
X55620Y90625D01*
X55636Y90602D01*
X55646Y90586D01*
X55649Y90579D01*
X55682Y90536D01*
X55715Y90500D01*
X55751Y90467D01*
X55783Y90441D01*
X55816Y90418D01*
X55839Y90402D01*
X55856Y90392D01*
X55862Y90389D01*
X55915Y90366D01*
X55964Y90346D01*
X56013Y90333D01*
X56059Y90326D01*
X56098Y90320D01*
X56131Y90317D01*
X54491D01*
X56784D01*
X56157D01*
X56207Y90320D01*
X56256Y90326D01*
X56302Y90333D01*
X56344Y90346D01*
X56423Y90379D01*
X56485Y90415D01*
X56515Y90431D01*
X56538Y90448D01*
X56561Y90464D01*
X56577Y90481D01*
X56590Y90494D01*
X56600Y90500D01*
X56607Y90507D01*
X56610Y90510D01*
X56639Y90549D01*
X56666Y90589D01*
X56692Y90635D01*
X56712Y90677D01*
X56741Y90769D01*
X56761Y90861D01*
X56771Y90900D01*
X56774Y90940D01*
X56777Y90976D01*
X56781Y91005D01*
X56784Y91028D01*
Y91064D01*
X56781Y91146D01*
X56774Y91222D01*
X56761Y91291D01*
X56748Y91353D01*
X56735Y91402D01*
X56728Y91425D01*
X56722Y91442D01*
X56718Y91455D01*
X56715Y91465D01*
X56712Y91471D01*
Y91474D01*
X56679Y91547D01*
X56643Y91619D01*
X56600Y91684D01*
X56558Y91747D01*
X56521Y91799D01*
X56502Y91819D01*
X56489Y91839D01*
X56476Y91855D01*
X56466Y91865D01*
X56462Y91871D01*
X56459Y91875D01*
X56518Y91881D01*
X56571Y91891D01*
X56617Y91904D01*
X56656Y91917D01*
X56689Y91927D01*
X56715Y91937D01*
X56728Y91943D01*
X56735Y91947D01*
Y92334D01*
D02*
G37*
G36*
X59062Y91519D02*
X58892D01*
X58813Y91515D01*
X58741Y91512D01*
X58672Y91509D01*
X58609Y91502D01*
X58551Y91496D01*
X58498Y91489D01*
X58449Y91486D01*
X58406Y91479D01*
X58370Y91473D01*
X58337Y91466D01*
X58311Y91460D01*
X58288Y91456D01*
X58275Y91453D01*
X58265Y91450D01*
X58262D01*
X58167Y91424D01*
X58078Y91391D01*
X58003Y91361D01*
X57937Y91332D01*
X57911Y91315D01*
X57885Y91306D01*
X57862Y91292D01*
X57845Y91282D01*
X57832Y91273D01*
X57822Y91269D01*
X57816Y91263D01*
X57812D01*
X57747Y91217D01*
X57688Y91164D01*
X57639Y91115D01*
X57599Y91066D01*
X57566Y91023D01*
X57547Y90991D01*
X57537Y90978D01*
X57530Y90968D01*
X57527Y90961D01*
Y90958D01*
X57494Y90886D01*
X57471Y90813D01*
X57452Y90741D01*
X57442Y90676D01*
X57435Y90617D01*
X57432Y90594D01*
X57429Y90571D01*
Y90531D01*
X57432Y90472D01*
X57435Y90413D01*
X57445Y90358D01*
X57455Y90305D01*
X57468Y90259D01*
X57485Y90213D01*
X57501Y90171D01*
X57517Y90135D01*
X57534Y90099D01*
X57550Y90069D01*
X57563Y90043D01*
X57580Y90023D01*
X57589Y90007D01*
X57599Y89994D01*
X57603Y89987D01*
X57606Y89984D01*
X57642Y89944D01*
X57678Y89908D01*
X57760Y89843D01*
X57842Y89784D01*
X57924Y89738D01*
X57963Y89718D01*
X57996Y89702D01*
X58029Y89688D01*
X58055Y89675D01*
X58078Y89669D01*
X58098Y89662D01*
X58108Y89656D01*
X58111D01*
X58173Y89636D01*
X58242Y89620D01*
X58383Y89593D01*
X58527Y89574D01*
X58596Y89567D01*
X58665Y89561D01*
X58728Y89557D01*
X58787Y89554D01*
X58839Y89551D01*
X58885D01*
X58921Y89547D01*
X57429D01*
D01*
X60515D01*
D01*
X58974D01*
X59128Y89551D01*
X59272Y89561D01*
X59403Y89574D01*
X59525Y89593D01*
X59636Y89616D01*
X59738Y89643D01*
X59826Y89669D01*
X59908Y89698D01*
X59977Y89724D01*
X60040Y89751D01*
X60089Y89777D01*
X60131Y89800D01*
X60164Y89820D01*
X60187Y89833D01*
X60200Y89843D01*
X60204Y89846D01*
X60259Y89895D01*
X60305Y89948D01*
X60348Y90003D01*
X60384Y90059D01*
X60413Y90115D01*
X60440Y90174D01*
X60459Y90230D01*
X60476Y90282D01*
X60489Y90335D01*
X60499Y90381D01*
X60505Y90423D01*
X60509Y90459D01*
X60512Y90489D01*
X60515Y90512D01*
Y90531D01*
X60512Y90594D01*
X60509Y90649D01*
X60499Y90705D01*
X60489Y90758D01*
X60473Y90807D01*
X60459Y90850D01*
X60443Y90892D01*
X60427Y90928D01*
X60410Y90964D01*
X60394Y90994D01*
X60377Y91020D01*
X60364Y91040D01*
X60355Y91056D01*
X60345Y91069D01*
X60341Y91076D01*
X60338Y91079D01*
X60302Y91119D01*
X60266Y91158D01*
X60184Y91224D01*
X60102Y91279D01*
X60020Y91325D01*
X59981Y91345D01*
X59944Y91361D01*
X59915Y91374D01*
X59885Y91387D01*
X59866Y91397D01*
X59846Y91401D01*
X59836Y91407D01*
X59833D01*
X59771Y91427D01*
X59702Y91443D01*
X59561Y91473D01*
X59416Y91492D01*
X59347Y91499D01*
X59279Y91506D01*
X59216Y91509D01*
X59157Y91512D01*
X59108Y91515D01*
X59062Y91519D01*
D02*
G37*
G36*
X56735Y90222D02*
X54491D01*
Y89031D01*
Y89838D01*
X54494Y89792D01*
X54504Y89746D01*
X54514Y89706D01*
X54527Y89670D01*
X54544Y89644D01*
X54554Y89621D01*
X54563Y89608D01*
X54567Y89601D01*
X54583Y89582D01*
X54603Y89559D01*
X54645Y89520D01*
X54698Y89480D01*
X54750Y89444D01*
X54796Y89411D01*
X54839Y89388D01*
X54852Y89378D01*
X54865Y89372D01*
X54872Y89365D01*
X54540D01*
Y89031D01*
X54491D01*
X56735D01*
Y89441D01*
Y89401D01*
X55587D01*
X55501Y89405D01*
X55419Y89411D01*
X55347Y89421D01*
X55282Y89431D01*
X55229Y89441D01*
X55206Y89447D01*
X55186Y89451D01*
X55173Y89454D01*
X55164Y89457D01*
X55157Y89460D01*
X55154D01*
X55108Y89480D01*
X55065Y89500D01*
X55032Y89523D01*
X55003Y89546D01*
X54980Y89565D01*
X54963Y89582D01*
X54954Y89595D01*
X54950Y89598D01*
X54924Y89638D01*
X54908Y89674D01*
X54895Y89710D01*
X54885Y89746D01*
X54878Y89775D01*
X54875Y89798D01*
Y89818D01*
X54878Y89871D01*
X54888Y89920D01*
X54901Y89966D01*
X54914Y90005D01*
X54931Y90041D01*
X54944Y90067D01*
X54954Y90084D01*
X54957Y90090D01*
X54612Y90222D01*
X54573Y90149D01*
X54544Y90077D01*
X54521Y90015D01*
X54508Y89956D01*
X54498Y89907D01*
X54494Y89887D01*
Y89871D01*
X54491Y89857D01*
Y90222D01*
X56735D01*
D02*
G37*
G36*
X55895Y88529D02*
X55810D01*
X55764Y88522D01*
X55675Y88506D01*
X55597Y88480D01*
X55531Y88454D01*
X55501Y88440D01*
X55475Y88427D01*
X55452Y88414D01*
X55432Y88401D01*
X55419Y88391D01*
X55410Y88385D01*
X55403Y88381D01*
X55400Y88378D01*
X55331Y88319D01*
X55275Y88250D01*
X55226Y88181D01*
X55190Y88112D01*
X55160Y88053D01*
X55150Y88027D01*
X55141Y88004D01*
X55134Y87985D01*
X55128Y87971D01*
X55124Y87962D01*
Y87958D01*
X55082Y88034D01*
X55036Y88096D01*
X54990Y88152D01*
X54947Y88194D01*
X54908Y88231D01*
X54878Y88253D01*
X54865Y88263D01*
X54855Y88270D01*
X54852Y88273D01*
X54849D01*
X54783Y88309D01*
X54721Y88336D01*
X54658Y88355D01*
X54603Y88368D01*
X54554Y88375D01*
X54517Y88381D01*
X54504D01*
X54494D01*
X54488D01*
X54485D01*
X54406Y88375D01*
X54334Y88362D01*
X54265Y88342D01*
X54206Y88322D01*
X54157Y88299D01*
X54134Y88289D01*
X54117Y88280D01*
X54104Y88270D01*
X54094Y88267D01*
X54088Y88260D01*
X54084D01*
X54019Y88211D01*
X53960Y88158D01*
X53911Y88106D01*
X53871Y88053D01*
X53842Y88004D01*
X53819Y87968D01*
X53812Y87952D01*
X53806Y87942D01*
X53802Y87935D01*
Y87932D01*
X53770Y87847D01*
X53747Y87758D01*
X53730Y87663D01*
X53720Y87578D01*
X53714Y87535D01*
X53711Y87499D01*
Y87463D01*
X53707Y87433D01*
Y87443D01*
Y86243D01*
X56735D01*
Y87394D01*
X56731Y87499D01*
X56728Y87594D01*
X56718Y87676D01*
X56715Y87716D01*
X56708Y87748D01*
X56705Y87778D01*
X56702Y87804D01*
X56695Y87827D01*
X56692Y87847D01*
X56689Y87863D01*
Y87873D01*
X56686Y87880D01*
Y87883D01*
X56666Y87955D01*
X56643Y88021D01*
X56617Y88076D01*
X56594Y88122D01*
X56571Y88162D01*
X56554Y88191D01*
X56541Y88208D01*
X56538Y88214D01*
X56495Y88263D01*
X56449Y88306D01*
X56403Y88345D01*
X56358Y88375D01*
X56318Y88401D01*
X56285Y88421D01*
X56272Y88427D01*
X56262Y88434D01*
X56259Y88437D01*
X56256D01*
X56187Y88467D01*
X56115Y88490D01*
X56049Y88506D01*
X55987Y88519D01*
X55934Y88526D01*
X55915D01*
X55895Y88529D01*
D02*
G37*
G36*
X53707D02*
X53707D01*
Y87524D01*
Y88529D01*
X53707D01*
D02*
G37*
G36*
X59420Y88019D02*
X59364D01*
X59266Y88016D01*
X59174Y88006D01*
X59085Y87993D01*
X59003Y87976D01*
X58928Y87953D01*
X58859Y87930D01*
X58797Y87904D01*
X58741Y87881D01*
X58692Y87855D01*
X58646Y87829D01*
X58609Y87806D01*
X58580Y87783D01*
X58554Y87766D01*
X58537Y87753D01*
X58527Y87743D01*
X58524Y87740D01*
X58472Y87688D01*
X58426Y87629D01*
X58383Y87570D01*
X58350Y87511D01*
X58321Y87451D01*
X58295Y87389D01*
X58275Y87333D01*
X58259Y87278D01*
X58249Y87225D01*
X58239Y87176D01*
X58232Y87133D01*
X58226Y87094D01*
Y87064D01*
X58223Y87041D01*
Y88019D01*
D01*
Y85998D01*
X60515D01*
D01*
X59390D01*
X59489Y86002D01*
X59580Y86012D01*
X59666Y86025D01*
X59744Y86041D01*
X59820Y86064D01*
X59889Y86087D01*
X59951Y86113D01*
X60007Y86140D01*
X60056Y86163D01*
X60099Y86189D01*
X60135Y86212D01*
X60164Y86235D01*
X60190Y86251D01*
X60207Y86264D01*
X60217Y86274D01*
X60220Y86277D01*
X60273Y86333D01*
X60318Y86392D01*
X60358Y86451D01*
X60391Y86517D01*
X60420Y86579D01*
X60443Y86645D01*
X60463Y86707D01*
X60479Y86766D01*
X60489Y86822D01*
X60499Y86874D01*
X60505Y86920D01*
X60512Y86963D01*
Y86996D01*
X60515Y87022D01*
Y87041D01*
X60512Y87110D01*
X60509Y87179D01*
X60499Y87242D01*
X60486Y87301D01*
X60473Y87356D01*
X60456Y87406D01*
X60440Y87455D01*
X60423Y87497D01*
X60407Y87537D01*
X60391Y87570D01*
X60374Y87599D01*
X60361Y87625D01*
X60348Y87642D01*
X60338Y87658D01*
X60335Y87665D01*
X60331Y87668D01*
X60295Y87714D01*
X60256Y87753D01*
X60213Y87789D01*
X60171Y87825D01*
X60082Y87884D01*
X60000Y87930D01*
X59961Y87947D01*
X59925Y87963D01*
X59892Y87976D01*
X59863Y87986D01*
X59839Y87996D01*
X59823Y88003D01*
X59810Y88006D01*
X59807D01*
X59758Y87619D01*
X59839Y87586D01*
X59912Y87547D01*
X59974Y87507D01*
X60020Y87471D01*
X60059Y87438D01*
X60085Y87412D01*
X60099Y87396D01*
X60105Y87392D01*
Y87389D01*
X60141Y87333D01*
X60164Y87274D01*
X60184Y87215D01*
X60197Y87163D01*
X60204Y87114D01*
X60207Y87074D01*
X60210Y87061D01*
Y87041D01*
X60207Y86992D01*
X60200Y86943D01*
X60194Y86897D01*
X60181Y86854D01*
X60151Y86776D01*
X60115Y86710D01*
X60099Y86681D01*
X60079Y86654D01*
X60063Y86635D01*
X60049Y86615D01*
X60036Y86602D01*
X60027Y86592D01*
X60023Y86586D01*
X60020Y86582D01*
X59981Y86550D01*
X59941Y86520D01*
X59895Y86497D01*
X59853Y86474D01*
X59758Y86438D01*
X59669Y86412D01*
X59626Y86402D01*
X59587Y86395D01*
X59554Y86389D01*
X59521Y86386D01*
X59498Y86382D01*
X59479Y86379D01*
X59466D01*
X59462D01*
Y88016D01*
X59420Y88019D01*
D02*
G37*
G36*
X59364Y85671D02*
X59338D01*
X59249Y85667D01*
X59167Y85661D01*
X59092Y85647D01*
X59026Y85638D01*
X58997Y85631D01*
X58970Y85624D01*
X58947Y85618D01*
X58928Y85611D01*
X58911Y85608D01*
X58901Y85605D01*
X58895Y85602D01*
X58892D01*
X58816Y85575D01*
X58747Y85546D01*
X58685Y85516D01*
X58632Y85487D01*
X58593Y85457D01*
X58560Y85438D01*
X58541Y85425D01*
X58534Y85418D01*
X58482Y85372D01*
X58436Y85323D01*
X58396Y85274D01*
X58363Y85228D01*
X58337Y85185D01*
X58321Y85152D01*
X58314Y85139D01*
X58308Y85129D01*
X58305Y85126D01*
Y85123D01*
X58278Y85054D01*
X58259Y84988D01*
X58242Y84923D01*
X58232Y84864D01*
X58226Y84814D01*
Y84791D01*
X58223Y84775D01*
Y84739D01*
X58226Y84673D01*
X58236Y84608D01*
X58249Y84549D01*
X58268Y84490D01*
X58291Y84437D01*
X58314Y84388D01*
X58344Y84342D01*
X58370Y84303D01*
X58396Y84263D01*
X58423Y84231D01*
X58449Y84204D01*
X58472Y84181D01*
X58491Y84162D01*
X58505Y84149D01*
X58514Y84142D01*
X58518Y84139D01*
X57439D01*
Y83768D01*
X60515D01*
Y84719D01*
X60512Y84791D01*
X60502Y84860D01*
X60486Y84926D01*
X60466Y84988D01*
X60443Y85047D01*
X60420Y85103D01*
X60391Y85152D01*
X60361Y85201D01*
X60335Y85241D01*
X60305Y85280D01*
X60282Y85313D01*
X60256Y85339D01*
X60240Y85359D01*
X60223Y85375D01*
X60213Y85385D01*
X60210Y85388D01*
X60148Y85438D01*
X60085Y85480D01*
X60017Y85520D01*
X59944Y85552D01*
X59872Y85579D01*
X59797Y85602D01*
X59728Y85621D01*
X59659Y85634D01*
X59593Y85647D01*
X59531Y85654D01*
X59479Y85661D01*
X59430Y85667D01*
X59390D01*
X59364Y85671D01*
D02*
G37*
G36*
X56784Y84583D02*
X54491D01*
Y82563D01*
Y83586D01*
X54494Y83504D01*
X54504Y83422D01*
X54521Y83350D01*
X54540Y83278D01*
X54563Y83212D01*
X54589Y83150D01*
X54616Y83094D01*
X54645Y83045D01*
X54675Y82999D01*
X54701Y82960D01*
X54727Y82924D01*
X54750Y82897D01*
X54770Y82874D01*
X54786Y82858D01*
X54796Y82848D01*
X54799Y82845D01*
X54858Y82796D01*
X54924Y82753D01*
X54993Y82714D01*
X55062Y82681D01*
X55134Y82655D01*
X55206Y82631D01*
X55275Y82612D01*
X55344Y82599D01*
X55406Y82586D01*
X55469Y82579D01*
X55521Y82573D01*
X55567Y82566D01*
X55606D01*
X55636Y82563D01*
X54491D01*
X55659D01*
X55757Y82566D01*
X55849Y82576D01*
X55934Y82589D01*
X56013Y82605D01*
X56089Y82628D01*
X56157Y82651D01*
X56220Y82677D01*
X56275Y82704D01*
X56325Y82727D01*
X56367Y82753D01*
X56403Y82776D01*
X56433Y82799D01*
X56459Y82815D01*
X56476Y82828D01*
X56485Y82838D01*
X56489Y82841D01*
X56541Y82897D01*
X56587Y82956D01*
X56626Y83015D01*
X56659Y83081D01*
X56689Y83143D01*
X56712Y83209D01*
X56731Y83271D01*
X56748Y83330D01*
X56758Y83386D01*
X56767Y83438D01*
X56774Y83484D01*
X56781Y83527D01*
Y83560D01*
X56784Y83586D01*
Y83606D01*
X56781Y83675D01*
X56777Y83743D01*
X56767Y83806D01*
X56754Y83865D01*
X56741Y83921D01*
X56725Y83970D01*
X56708Y84019D01*
X56692Y84062D01*
X56676Y84101D01*
X56659Y84134D01*
X56643Y84163D01*
X56630Y84189D01*
X56617Y84206D01*
X56607Y84222D01*
X56603Y84229D01*
X56600Y84232D01*
X56564Y84278D01*
X56525Y84317D01*
X56482Y84354D01*
X56440Y84390D01*
X56351Y84449D01*
X56269Y84495D01*
X56230Y84511D01*
X56194Y84527D01*
X56161Y84540D01*
X56131Y84550D01*
X56108Y84560D01*
X56092Y84567D01*
X56079Y84570D01*
X56075D01*
X56026Y84183D01*
X56108Y84150D01*
X56180Y84111D01*
X56243Y84071D01*
X56289Y84035D01*
X56328Y84003D01*
X56354Y83976D01*
X56367Y83960D01*
X56374Y83957D01*
Y83953D01*
X56410Y83898D01*
X56433Y83839D01*
X56453Y83780D01*
X56466Y83727D01*
X56472Y83678D01*
X56476Y83639D01*
X56479Y83625D01*
Y83606D01*
X56476Y83556D01*
X56469Y83507D01*
X56462Y83461D01*
X56449Y83419D01*
X56420Y83340D01*
X56384Y83274D01*
X56367Y83245D01*
X56348Y83219D01*
X56331Y83199D01*
X56318Y83179D01*
X56305Y83166D01*
X56295Y83156D01*
X56292Y83150D01*
X56289Y83147D01*
X56249Y83114D01*
X56210Y83084D01*
X56164Y83061D01*
X56121Y83038D01*
X56026Y83002D01*
X55938Y82976D01*
X55895Y82966D01*
X55856Y82960D01*
X55823Y82953D01*
X55790Y82950D01*
X55767Y82946D01*
X55747Y82943D01*
X55734D01*
X55731D01*
Y84580D01*
X55688Y84583D01*
X56784D01*
D02*
G37*
G36*
X60466Y83188D02*
X58272D01*
Y81410D01*
X60515D01*
D01*
X59715D01*
X59787Y81413D01*
X59846Y81416D01*
X59895Y81420D01*
X59931Y81423D01*
X59961Y81426D01*
X59974Y81429D01*
X59981D01*
X60040Y81446D01*
X60092Y81462D01*
X60138Y81482D01*
X60177Y81502D01*
X60210Y81518D01*
X60236Y81531D01*
X60250Y81541D01*
X60256Y81544D01*
X60295Y81577D01*
X60331Y81616D01*
X60364Y81659D01*
X60391Y81698D01*
X60413Y81738D01*
X60430Y81767D01*
X60440Y81787D01*
X60443Y81790D01*
Y81793D01*
X60466Y81859D01*
X60486Y81921D01*
X60499Y81984D01*
X60505Y82039D01*
X60512Y82089D01*
X60515Y82125D01*
Y82158D01*
X60512Y82240D01*
X60499Y82315D01*
X60482Y82384D01*
X60456Y82453D01*
X60430Y82515D01*
X60397Y82571D01*
X60364Y82623D01*
X60328Y82673D01*
X60295Y82715D01*
X60263Y82751D01*
X60230Y82784D01*
X60204Y82810D01*
X60177Y82830D01*
X60161Y82843D01*
X60148Y82853D01*
X60145Y82856D01*
X60466D01*
Y83188D01*
D02*
G37*
G36*
X56784Y82235D02*
X55606D01*
X55518Y82231D01*
X55436Y82225D01*
X55360Y82212D01*
X55295Y82202D01*
X55265Y82195D01*
X55239Y82189D01*
X55216Y82182D01*
X55196Y82176D01*
X55180Y82172D01*
X55170Y82169D01*
X55164Y82166D01*
X55160D01*
X55085Y82139D01*
X55016Y82110D01*
X54954Y82081D01*
X54901Y82051D01*
X54862Y82021D01*
X54829Y82002D01*
X54809Y81989D01*
X54803Y81982D01*
X54750Y81936D01*
X54704Y81887D01*
X54665Y81838D01*
X54632Y81792D01*
X54606Y81749D01*
X54589Y81716D01*
X54583Y81703D01*
X54576Y81693D01*
X54573Y81690D01*
Y81687D01*
X54547Y81618D01*
X54527Y81552D01*
X54511Y81487D01*
X54501Y81428D01*
X54494Y81379D01*
Y81356D01*
X54491Y81339D01*
Y81303D01*
X54494Y81238D01*
X54504Y81172D01*
X54517Y81113D01*
X54537Y81054D01*
X54560Y81001D01*
X54583Y80952D01*
X54612Y80906D01*
X54639Y80867D01*
X54665Y80827D01*
X54691Y80795D01*
X54717Y80769D01*
X54740Y80746D01*
X54760Y80726D01*
X54773Y80713D01*
X54783Y80706D01*
X54786Y80703D01*
X53707D01*
Y80332D01*
X56735D01*
Y80677D01*
X56462D01*
X56518Y80719D01*
X56567Y80765D01*
X56610Y80814D01*
X56649Y80864D01*
X56679Y80916D01*
X56705Y80965D01*
X56728Y81015D01*
X56744Y81064D01*
X56758Y81106D01*
X56767Y81149D01*
X56774Y81188D01*
X56777Y81221D01*
X56781Y81247D01*
X56784Y81267D01*
Y80691D01*
Y81283D01*
X56781Y81356D01*
X56771Y81424D01*
X56754Y81490D01*
X56735Y81552D01*
X56712Y81612D01*
X56689Y81667D01*
X56659Y81716D01*
X56630Y81766D01*
X56603Y81805D01*
X56574Y81844D01*
X56551Y81877D01*
X56525Y81903D01*
X56508Y81923D01*
X56492Y81939D01*
X56482Y81949D01*
X56479Y81953D01*
X56416Y82002D01*
X56354Y82044D01*
X56285Y82084D01*
X56213Y82117D01*
X56141Y82143D01*
X56065Y82166D01*
X55997Y82186D01*
X55928Y82199D01*
X55862Y82212D01*
X55800Y82218D01*
X55747Y82225D01*
X55698Y82231D01*
X55659D01*
X55633Y82235D01*
X56784D01*
D02*
G37*
G36*
X59715Y81101D02*
X59712D01*
X59662Y80737D01*
X59715Y80727D01*
X59761Y80718D01*
X59807Y80704D01*
X59846Y80691D01*
X59885Y80675D01*
X59918Y80662D01*
X59948Y80646D01*
X59977Y80629D01*
X60000Y80613D01*
X60020Y80600D01*
X60053Y80573D01*
X60072Y80557D01*
X60076Y80554D01*
X60079Y80550D01*
X60122Y80491D01*
X60154Y80432D01*
X60177Y80370D01*
X60194Y80314D01*
X60204Y80262D01*
X60207Y80242D01*
Y80222D01*
X60210Y80206D01*
Y80186D01*
X60207Y80137D01*
X60200Y80088D01*
X60190Y80045D01*
X60177Y80003D01*
X60148Y79927D01*
X60109Y79862D01*
X60092Y79835D01*
X60072Y79812D01*
X60056Y79793D01*
X60040Y79773D01*
X60030Y79760D01*
X60020Y79750D01*
X60013Y79747D01*
X60010Y79743D01*
X59971Y79714D01*
X59925Y79688D01*
X59876Y79665D01*
X59826Y79648D01*
X59718Y79616D01*
X59613Y79596D01*
X59564Y79589D01*
X59518Y79586D01*
X59475Y79583D01*
X59439Y79580D01*
X59410Y79576D01*
X59387D01*
X59370D01*
X59367D01*
X59289Y79580D01*
X59213Y79583D01*
X59147Y79593D01*
X59085Y79602D01*
X59026Y79616D01*
X58974Y79632D01*
X58928Y79648D01*
X58885Y79665D01*
X58849Y79678D01*
X58816Y79694D01*
X58790Y79711D01*
X58770Y79724D01*
X58751Y79734D01*
X58741Y79743D01*
X58734Y79747D01*
X58731Y79750D01*
X58695Y79783D01*
X58665Y79819D01*
X58636Y79858D01*
X58613Y79894D01*
X58593Y79934D01*
X58577Y79970D01*
X58554Y80042D01*
X58537Y80108D01*
X58534Y80134D01*
X58531Y80160D01*
X58527Y80180D01*
Y80206D01*
X58531Y80272D01*
X58544Y80334D01*
X58564Y80386D01*
X58583Y80432D01*
X58606Y80468D01*
X58623Y80498D01*
X58636Y80514D01*
X58642Y80521D01*
X58688Y80567D01*
X58741Y80606D01*
X58797Y80636D01*
X58849Y80662D01*
X58898Y80682D01*
X58938Y80695D01*
X58954Y80698D01*
X58964Y80701D01*
X58970Y80704D01*
X58974D01*
X58918Y81065D01*
X58859Y81052D01*
X58800Y81033D01*
X58747Y81013D01*
X58698Y80993D01*
X58652Y80970D01*
X58609Y80944D01*
X58573Y80921D01*
X58537Y80895D01*
X58508Y80872D01*
X58482Y80849D01*
X58459Y80829D01*
X58439Y80809D01*
X58426Y80796D01*
X58416Y80783D01*
X58409Y80777D01*
X58406Y80773D01*
X58373Y80731D01*
X58344Y80685D01*
X58321Y80636D01*
X58301Y80586D01*
X58268Y80488D01*
X58245Y80396D01*
X58239Y80354D01*
X58232Y80314D01*
X58229Y80278D01*
X58226Y80249D01*
X58223Y80226D01*
Y80242D01*
Y79196D01*
X60515D01*
Y79665D01*
Y79196D01*
X59380D01*
X59479Y79199D01*
X59574Y79209D01*
X59662Y79222D01*
X59744Y79238D01*
X59820Y79258D01*
X59889Y79281D01*
X59951Y79307D01*
X60007Y79334D01*
X60056Y79356D01*
X60102Y79383D01*
X60138Y79406D01*
X60167Y79425D01*
X60194Y79442D01*
X60210Y79455D01*
X60220Y79465D01*
X60223Y79468D01*
X60276Y79520D01*
X60318Y79576D01*
X60358Y79635D01*
X60391Y79694D01*
X60420Y79757D01*
X60443Y79816D01*
X60463Y79875D01*
X60479Y79930D01*
X60492Y79983D01*
X60499Y80032D01*
X60505Y80078D01*
X60512Y80114D01*
Y80147D01*
X60515Y80170D01*
Y79665D01*
Y80170D01*
Y80190D01*
X60512Y80255D01*
X60505Y80317D01*
X60496Y80376D01*
X60482Y80436D01*
X60466Y80488D01*
X60446Y80537D01*
X60430Y80583D01*
X60407Y80626D01*
X60387Y80662D01*
X60371Y80698D01*
X60351Y80724D01*
X60335Y80751D01*
X60322Y80767D01*
X60312Y80783D01*
X60305Y80790D01*
X60302Y80793D01*
X60259Y80836D01*
X60217Y80878D01*
X60167Y80914D01*
X60118Y80944D01*
X60069Y80974D01*
X60020Y81000D01*
X59928Y81039D01*
X59882Y81055D01*
X59843Y81069D01*
X59807Y81078D01*
X59774Y81088D01*
X59748Y81095D01*
X59728Y81098D01*
X59715Y81101D01*
D02*
G37*
G36*
X56784Y79752D02*
X54540D01*
Y77974D01*
X55984D01*
X56056Y77977D01*
X56115Y77981D01*
X56164Y77984D01*
X56200Y77987D01*
X56230Y77990D01*
X56243Y77994D01*
X56249D01*
X56308Y78010D01*
X56361Y78026D01*
X56407Y78046D01*
X56446Y78066D01*
X56479Y78082D01*
X56505Y78095D01*
X56518Y78105D01*
X56525Y78108D01*
X56564Y78141D01*
X56600Y78181D01*
X56633Y78223D01*
X56659Y78263D01*
X56682Y78302D01*
X56699Y78331D01*
X56708Y78351D01*
X56712Y78354D01*
Y78358D01*
X56735Y78423D01*
X56754Y78486D01*
X56767Y78548D01*
X56774Y78604D01*
X56781Y78653D01*
X56784Y78689D01*
Y78722D01*
X56781Y78804D01*
X56767Y78879D01*
X56751Y78948D01*
X56725Y79017D01*
X56699Y79079D01*
X56666Y79135D01*
X56633Y79188D01*
X56597Y79237D01*
X56564Y79279D01*
X56531Y79315D01*
X56498Y79348D01*
X56472Y79374D01*
X56446Y79394D01*
X56430Y79407D01*
X56416Y79417D01*
X56413Y79420D01*
X56735D01*
Y79752D01*
X56784D01*
D02*
G37*
G36*
X60466Y78802D02*
X60109D01*
Y77310D01*
X60036Y77362D01*
X60004Y77389D01*
X59974Y77415D01*
X59948Y77438D01*
X59928Y77454D01*
X59915Y77467D01*
X59912Y77470D01*
X59892Y77490D01*
X59866Y77516D01*
X59839Y77546D01*
X59810Y77579D01*
X59744Y77648D01*
X59682Y77720D01*
X59623Y77789D01*
X59597Y77818D01*
X59574Y77848D01*
X59554Y77867D01*
X59541Y77887D01*
X59531Y77897D01*
X59528Y77900D01*
X59466Y77972D01*
X59407Y78041D01*
X59354Y78104D01*
X59302Y78159D01*
X59256Y78212D01*
X59210Y78258D01*
X59170Y78300D01*
X59134Y78340D01*
X59105Y78373D01*
X59075Y78399D01*
X59052Y78422D01*
X59033Y78441D01*
X59016Y78454D01*
X59006Y78468D01*
X59000Y78471D01*
X58997Y78474D01*
X58924Y78536D01*
X58859Y78586D01*
X58797Y78628D01*
X58741Y78664D01*
X58695Y78691D01*
X58659Y78710D01*
X58646Y78717D01*
X58636Y78720D01*
X58632Y78723D01*
X58629D01*
X58564Y78750D01*
X58498Y78766D01*
X58439Y78779D01*
X58383Y78789D01*
X58337Y78796D01*
X58301Y78799D01*
X58288D01*
X58278D01*
X58275D01*
X58272D01*
X58206Y78796D01*
X58144Y78789D01*
X58085Y78776D01*
X58026Y78759D01*
X57973Y78740D01*
X57924Y78717D01*
X57878Y78694D01*
X57839Y78671D01*
X57799Y78648D01*
X57767Y78625D01*
X57737Y78602D01*
X57714Y78582D01*
X57698Y78566D01*
X57681Y78553D01*
X57675Y78546D01*
X57671Y78543D01*
X57629Y78494D01*
X57593Y78441D01*
X57560Y78386D01*
X57530Y78326D01*
X57507Y78271D01*
X57488Y78212D01*
X57471Y78156D01*
X57458Y78100D01*
X57448Y78051D01*
X57442Y78002D01*
X57435Y77959D01*
X57432Y77923D01*
X57429Y77894D01*
Y78802D01*
D01*
Y76798D01*
X60466D01*
Y78802D01*
D02*
G37*
G36*
X53655Y75542D02*
D01*
D01*
D01*
D02*
G37*
G36*
X56784Y77538D02*
X55774D01*
X55672Y77138D01*
X55741Y77121D01*
X55806Y77098D01*
X55869Y77075D01*
X55924Y77052D01*
X55977Y77026D01*
X56023Y77000D01*
X56065Y76973D01*
X56105Y76947D01*
X56138Y76921D01*
X56167Y76898D01*
X56194Y76875D01*
X56213Y76859D01*
X56230Y76842D01*
X56239Y76829D01*
X56246Y76823D01*
X56249Y76819D01*
X56282Y76774D01*
X56312Y76727D01*
X56338Y76682D01*
X56361Y76632D01*
X56380Y76583D01*
X56397Y76537D01*
X56420Y76446D01*
X56426Y76406D01*
X56433Y76367D01*
X56436Y76334D01*
X56440Y76304D01*
X56443Y76281D01*
Y76249D01*
X56440Y76196D01*
X56436Y76147D01*
X56420Y76052D01*
X56397Y75963D01*
X56371Y75888D01*
X56358Y75855D01*
X56348Y75826D01*
X56335Y75799D01*
X56325Y75776D01*
X56315Y75757D01*
X56308Y75744D01*
X56302Y75737D01*
Y75734D01*
X56272Y75691D01*
X56243Y75652D01*
X56174Y75580D01*
X56105Y75520D01*
X56033Y75471D01*
X55970Y75435D01*
X55944Y75419D01*
X55918Y75406D01*
X55898Y75399D01*
X55885Y75393D01*
X55875Y75386D01*
X55872D01*
X55761Y75350D01*
X55646Y75320D01*
X55531Y75301D01*
X55478Y75294D01*
X55426Y75288D01*
X55377Y75284D01*
X55334Y75281D01*
X55295Y75278D01*
X55262D01*
X55232Y75274D01*
X55213D01*
X55200D01*
X55196D01*
X55085Y75278D01*
X54980Y75288D01*
X54882Y75304D01*
X54836Y75311D01*
X54793Y75320D01*
X54757Y75330D01*
X54721Y75337D01*
X54691Y75347D01*
X54665Y75353D01*
X54645Y75357D01*
X54629Y75363D01*
X54619Y75366D01*
X54616D01*
X54514Y75409D01*
X54426Y75458D01*
X54350Y75511D01*
X54317Y75540D01*
X54285Y75566D01*
X54258Y75593D01*
X54235Y75616D01*
X54212Y75639D01*
X54196Y75655D01*
X54183Y75671D01*
X54173Y75684D01*
X54170Y75691D01*
X54166Y75694D01*
X54137Y75740D01*
X54111Y75786D01*
X54088Y75835D01*
X54068Y75885D01*
X54039Y75983D01*
X54015Y76078D01*
X54009Y76117D01*
X54006Y76157D01*
X54002Y76193D01*
X53999Y76222D01*
X53996Y76249D01*
Y76337D01*
X54002Y76390D01*
X54019Y76488D01*
X54045Y76573D01*
X54058Y76609D01*
X54071Y76645D01*
X54084Y76678D01*
X54098Y76705D01*
X54111Y76727D01*
X54124Y76747D01*
X54134Y76764D01*
X54140Y76774D01*
X54144Y76780D01*
X54147Y76783D01*
X54176Y76819D01*
X54209Y76855D01*
X54285Y76915D01*
X54366Y76970D01*
X54445Y77013D01*
X54517Y77046D01*
X54547Y77062D01*
X54573Y77072D01*
X54596Y77082D01*
X54616Y77085D01*
X54626Y77092D01*
X54629D01*
X54537Y77485D01*
X54462Y77459D01*
X54390Y77429D01*
X54321Y77400D01*
X54258Y77364D01*
X54199Y77331D01*
X54147Y77295D01*
X54098Y77259D01*
X54055Y77223D01*
X54015Y77187D01*
X53983Y77157D01*
X53953Y77128D01*
X53930Y77101D01*
X53911Y77082D01*
X53898Y77065D01*
X53891Y77056D01*
X53888Y77052D01*
X53845Y76993D01*
X53812Y76931D01*
X53779Y76869D01*
X53753Y76803D01*
X53730Y76737D01*
X53711Y76675D01*
X53697Y76613D01*
X53684Y76554D01*
X53674Y76498D01*
X53668Y76449D01*
X53661Y76403D01*
X53658Y76363D01*
X53655Y76331D01*
Y76288D01*
X53658Y76213D01*
X53661Y76140D01*
X53684Y76006D01*
X53697Y75940D01*
X53714Y75881D01*
X53730Y75822D01*
X53747Y75770D01*
X53763Y75724D01*
X53779Y75681D01*
X53796Y75642D01*
X53809Y75612D01*
X53822Y75586D01*
X53832Y75570D01*
X53835Y75557D01*
X53838Y75553D01*
X53874Y75494D01*
X53914Y75435D01*
X53957Y75383D01*
X53999Y75333D01*
X54045Y75288D01*
X54088Y75245D01*
X54134Y75209D01*
X54173Y75173D01*
X54216Y75143D01*
X54252Y75117D01*
X54285Y75094D01*
X54314Y75074D01*
X54340Y75061D01*
X54357Y75051D01*
X54370Y75045D01*
X54373Y75042D01*
X54439Y75009D01*
X54511Y74983D01*
X54580Y74960D01*
X54649Y74937D01*
X54790Y74904D01*
X54855Y74894D01*
X54918Y74884D01*
X54977Y74878D01*
X55029Y74871D01*
X55078Y74868D01*
X55121Y74865D01*
X55154Y74861D01*
X55200D01*
X55278Y74865D01*
X55357Y74868D01*
X55508Y74888D01*
X55580Y74897D01*
X55646Y74910D01*
X55708Y74927D01*
X55767Y74940D01*
X55820Y74956D01*
X55869Y74969D01*
X55908Y74983D01*
X55944Y74996D01*
X55970Y75006D01*
X55993Y75012D01*
X56006Y75015D01*
X56010Y75019D01*
X56079Y75051D01*
X56144Y75084D01*
X56203Y75120D01*
X56259Y75160D01*
X56312Y75199D01*
X56358Y75235D01*
X56400Y75274D01*
X56440Y75311D01*
X56476Y75347D01*
X56505Y75379D01*
X56528Y75409D01*
X56551Y75435D01*
X56567Y75455D01*
X56577Y75471D01*
X56584Y75481D01*
X56587Y75484D01*
X56623Y75543D01*
X56653Y75606D01*
X56679Y75671D01*
X56702Y75740D01*
X56718Y75806D01*
X56735Y75871D01*
X56748Y75937D01*
X56758Y75999D01*
X56767Y76058D01*
X56774Y76111D01*
X56777Y76160D01*
X56781Y76200D01*
X56784Y76236D01*
Y74927D01*
Y76281D01*
X56781Y76370D01*
X56774Y76452D01*
X56761Y76531D01*
X56744Y76606D01*
X56725Y76678D01*
X56702Y76744D01*
X56679Y76803D01*
X56656Y76859D01*
X56633Y76911D01*
X56610Y76954D01*
X56587Y76993D01*
X56567Y77023D01*
X56551Y77049D01*
X56538Y77065D01*
X56531Y77078D01*
X56528Y77082D01*
X56476Y77141D01*
X56420Y77197D01*
X56361Y77246D01*
X56302Y77292D01*
X56239Y77334D01*
X56174Y77370D01*
X56115Y77403D01*
X56052Y77433D01*
X55997Y77459D01*
X55944Y77479D01*
X55895Y77498D01*
X55856Y77512D01*
X55820Y77525D01*
X55797Y77531D01*
X55780Y77538D01*
X56784D01*
D02*
G37*
G36*
X59856Y76513D02*
X59823D01*
X59754Y76509D01*
X59692Y76500D01*
X59639Y76483D01*
X59593Y76467D01*
X59554Y76450D01*
X59528Y76434D01*
X59512Y76424D01*
X59505Y76421D01*
X59459Y76385D01*
X59420Y76345D01*
X59387Y76303D01*
X59361Y76263D01*
X59338Y76231D01*
X59325Y76201D01*
X59315Y76181D01*
X59311Y76178D01*
Y76175D01*
X59298Y76142D01*
X59285Y76106D01*
X59269Y76067D01*
X59256Y76024D01*
X59226Y75935D01*
X59200Y75844D01*
X59187Y75801D01*
X59174Y75758D01*
X59164Y75722D01*
X59154Y75693D01*
X59147Y75663D01*
X59141Y75643D01*
X59138Y75630D01*
Y75627D01*
X59124Y75578D01*
X59111Y75535D01*
X59101Y75496D01*
X59092Y75460D01*
X59082Y75430D01*
X59075Y75404D01*
X59069Y75381D01*
X59062Y75361D01*
X59052Y75332D01*
X59046Y75312D01*
X59043Y75302D01*
Y75299D01*
X59026Y75266D01*
X59010Y75237D01*
X58993Y75210D01*
X58977Y75191D01*
X58964Y75174D01*
X58954Y75165D01*
X58947Y75158D01*
X58944Y75155D01*
X58921Y75142D01*
X58898Y75132D01*
X58855Y75119D01*
X58839Y75115D01*
X58826Y75112D01*
X58816D01*
X58813D01*
X58770Y75115D01*
X58734Y75129D01*
X58698Y75145D01*
X58669Y75168D01*
X58646Y75188D01*
X58629Y75204D01*
X58616Y75217D01*
X58613Y75220D01*
X58596Y75243D01*
X58583Y75266D01*
X58564Y75322D01*
X58547Y75384D01*
X58537Y75443D01*
X58531Y75499D01*
Y75522D01*
X58527Y75542D01*
Y75585D01*
X58531Y75663D01*
X58544Y75729D01*
X58557Y75788D01*
X58577Y75837D01*
X58593Y75873D01*
X58609Y75899D01*
X58623Y75916D01*
X58626Y75922D01*
X58665Y75962D01*
X58708Y75994D01*
X58751Y76021D01*
X58793Y76040D01*
X58829Y76054D01*
X58862Y76060D01*
X58882Y76067D01*
X58885D01*
X58888D01*
X58839Y76431D01*
X58764Y76414D01*
X58698Y76395D01*
X58639Y76375D01*
X58590Y76352D01*
X58554Y76332D01*
X58524Y76316D01*
X58508Y76303D01*
X58501Y76300D01*
X58455Y76260D01*
X58416Y76214D01*
X58380Y76168D01*
X58350Y76122D01*
X58327Y76076D01*
X58311Y76044D01*
X58305Y76030D01*
X58301Y76021D01*
X58298Y76014D01*
Y76011D01*
X58272Y75935D01*
X58255Y75860D01*
X58242Y75781D01*
X58232Y75712D01*
X58226Y75650D01*
Y75624D01*
X58223Y75601D01*
Y76513D01*
Y74689D01*
X60515D01*
D01*
X59813D01*
X58223D01*
Y75558D01*
X58226Y75496D01*
X58229Y75437D01*
X58236Y75381D01*
X58245Y75335D01*
X58255Y75292D01*
X58262Y75263D01*
X58265Y75243D01*
X58268Y75240D01*
Y75237D01*
X58285Y75184D01*
X58305Y75135D01*
X58324Y75096D01*
X58341Y75063D01*
X58354Y75037D01*
X58367Y75017D01*
X58373Y75004D01*
X58377Y75001D01*
X58409Y74958D01*
X58442Y74922D01*
X58478Y74889D01*
X58511Y74866D01*
X58541Y74843D01*
X58564Y74830D01*
X58577Y74820D01*
X58583Y74817D01*
X58629Y74794D01*
X58678Y74778D01*
X58724Y74768D01*
X58767Y74761D01*
X58803Y74755D01*
X58829Y74751D01*
X58849D01*
X58852D01*
X58855D01*
X58915Y74755D01*
X58970Y74764D01*
X59020Y74778D01*
X59062Y74791D01*
X59098Y74804D01*
X59128Y74817D01*
X59144Y74827D01*
X59151Y74830D01*
X59197Y74863D01*
X59239Y74902D01*
X59272Y74942D01*
X59302Y74981D01*
X59328Y75017D01*
X59344Y75043D01*
X59354Y75063D01*
X59357Y75066D01*
Y75069D01*
X59370Y75102D01*
X59387Y75142D01*
X59403Y75181D01*
X59416Y75227D01*
X59446Y75322D01*
X59475Y75414D01*
X59489Y75460D01*
X59502Y75502D01*
X59512Y75542D01*
X59521Y75575D01*
X59528Y75601D01*
X59535Y75624D01*
X59538Y75637D01*
Y75640D01*
X59551Y75693D01*
X59564Y75742D01*
X59577Y75788D01*
X59590Y75827D01*
X59600Y75863D01*
X59610Y75893D01*
X59620Y75919D01*
X59630Y75945D01*
X59636Y75965D01*
X59643Y75981D01*
X59653Y76004D01*
X59659Y76017D01*
X59662Y76021D01*
X59692Y76057D01*
X59725Y76086D01*
X59758Y76106D01*
X59790Y76119D01*
X59817Y76126D01*
X59843Y76132D01*
X59856D01*
X59863D01*
X59915Y76126D01*
X59961Y76113D01*
X60004Y76093D01*
X60040Y76070D01*
X60069Y76047D01*
X60089Y76027D01*
X60105Y76014D01*
X60109Y76008D01*
X60141Y75955D01*
X60167Y75896D01*
X60184Y75830D01*
X60197Y75768D01*
X60204Y75712D01*
X60207Y75689D01*
Y75666D01*
X60210Y75650D01*
Y75624D01*
X60204Y75535D01*
X60190Y75457D01*
X60174Y75388D01*
X60151Y75332D01*
X60131Y75286D01*
X60112Y75253D01*
X60099Y75234D01*
X60095Y75230D01*
Y75227D01*
X60046Y75178D01*
X59994Y75142D01*
X59935Y75112D01*
X59879Y75089D01*
X59830Y75073D01*
X59810Y75066D01*
X59790Y75063D01*
X59774Y75060D01*
X59764D01*
X59758Y75056D01*
X59754D01*
X59813Y74689D01*
X59876Y74702D01*
X59938Y74718D01*
X59994Y74738D01*
X60043Y74758D01*
X60092Y74781D01*
X60135Y74804D01*
X60174Y74827D01*
X60210Y74853D01*
X60240Y74876D01*
X60266Y74899D01*
X60289Y74919D01*
X60309Y74935D01*
X60322Y74951D01*
X60331Y74961D01*
X60338Y74968D01*
X60341Y74971D01*
X60371Y75017D01*
X60397Y75063D01*
X60423Y75115D01*
X60443Y75168D01*
X60473Y75279D01*
X60492Y75384D01*
X60502Y75434D01*
X60505Y75480D01*
X60509Y75522D01*
X60512Y75555D01*
X60515Y75585D01*
Y75627D01*
X60512Y75722D01*
X60502Y75807D01*
X60486Y75886D01*
X60469Y75955D01*
X60463Y75985D01*
X60456Y76011D01*
X60446Y76034D01*
X60440Y76054D01*
X60433Y76070D01*
X60430Y76080D01*
X60427Y76086D01*
Y76090D01*
X60391Y76162D01*
X60351Y76224D01*
X60309Y76276D01*
X60266Y76323D01*
X60230Y76355D01*
X60200Y76381D01*
X60181Y76395D01*
X60177Y76401D01*
X60174D01*
X60112Y76437D01*
X60049Y76467D01*
X59990Y76486D01*
X59938Y76500D01*
X59892Y76506D01*
X59856Y76513D01*
D02*
G37*
%LPD*%
G36*
X59108Y105242D02*
X59229Y105239D01*
X59341Y105229D01*
X59443Y105219D01*
X59535Y105206D01*
X59613Y105190D01*
X59685Y105173D01*
X59748Y105157D01*
X59800Y105140D01*
X59846Y105124D01*
X59885Y105111D01*
X59915Y105095D01*
X59938Y105085D01*
X59951Y105075D01*
X59961Y105072D01*
X59964Y105068D01*
X60007Y105036D01*
X60046Y104999D01*
X60079Y104963D01*
X60105Y104927D01*
X60131Y104891D01*
X60151Y104855D01*
X60167Y104822D01*
X60181Y104790D01*
X60197Y104730D01*
X60204Y104704D01*
X60207Y104681D01*
Y104665D01*
X60210Y104648D01*
Y104639D01*
X60207Y104593D01*
X60200Y104547D01*
X60187Y104504D01*
X60171Y104465D01*
X60135Y104389D01*
X60089Y104327D01*
X60043Y104278D01*
X60023Y104258D01*
X60007Y104242D01*
X59990Y104225D01*
X59977Y104216D01*
X59971Y104212D01*
X59967Y104209D01*
X59915Y104180D01*
X59853Y104153D01*
X59784Y104127D01*
X59708Y104107D01*
X59626Y104091D01*
X59544Y104078D01*
X59377Y104058D01*
X59298Y104048D01*
X59223Y104045D01*
X59154Y104042D01*
X59095Y104038D01*
X59046Y104035D01*
X59023D01*
X59006D01*
X58993D01*
X58983D01*
X58977D01*
X58974D01*
X58839Y104038D01*
X58718Y104045D01*
X58603Y104052D01*
X58501Y104065D01*
X58409Y104078D01*
X58324Y104094D01*
X58252Y104114D01*
X58186Y104130D01*
X58127Y104147D01*
X58081Y104166D01*
X58042Y104183D01*
X58009Y104196D01*
X57983Y104209D01*
X57967Y104219D01*
X57957Y104222D01*
X57954Y104225D01*
X57914Y104255D01*
X57881Y104288D01*
X57852Y104321D01*
X57829Y104353D01*
X57806Y104389D01*
X57789Y104422D01*
X57763Y104488D01*
X57747Y104547D01*
X57744Y104573D01*
X57740Y104593D01*
X57737Y104612D01*
Y104635D01*
X57740Y104685D01*
X57747Y104727D01*
X57760Y104773D01*
X57776Y104813D01*
X57816Y104888D01*
X57858Y104950D01*
X57881Y104976D01*
X57904Y104999D01*
X57927Y105019D01*
X57944Y105039D01*
X57960Y105052D01*
X57973Y105062D01*
X57980Y105065D01*
X57983Y105068D01*
X58035Y105101D01*
X58095Y105127D01*
X58167Y105150D01*
X58242Y105170D01*
X58321Y105186D01*
X58403Y105203D01*
X58570Y105222D01*
X58649Y105232D01*
X58724Y105236D01*
X58793Y105239D01*
X58852Y105242D01*
X58905Y105245D01*
X58924D01*
X58941D01*
X58954D01*
X58964D01*
X58970D01*
X58974D01*
X59108Y105242D01*
D02*
G37*
G36*
X55377Y101564D02*
X55498Y101560D01*
X55610Y101551D01*
X55711Y101541D01*
X55803Y101528D01*
X55882Y101511D01*
X55954Y101495D01*
X56016Y101478D01*
X56069Y101462D01*
X56115Y101446D01*
X56154Y101433D01*
X56184Y101416D01*
X56207Y101406D01*
X56220Y101396D01*
X56230Y101393D01*
X56233Y101390D01*
X56275Y101357D01*
X56315Y101321D01*
X56348Y101285D01*
X56374Y101249D01*
X56400Y101213D01*
X56420Y101177D01*
X56436Y101144D01*
X56449Y101111D01*
X56466Y101052D01*
X56472Y101026D01*
X56476Y101003D01*
Y100986D01*
X56479Y100970D01*
Y100960D01*
X56476Y100914D01*
X56469Y100868D01*
X56456Y100826D01*
X56440Y100786D01*
X56403Y100711D01*
X56358Y100649D01*
X56312Y100599D01*
X56292Y100580D01*
X56275Y100563D01*
X56259Y100547D01*
X56246Y100537D01*
X56239Y100534D01*
X56236Y100531D01*
X56184Y100501D01*
X56121Y100475D01*
X56052Y100449D01*
X55977Y100429D01*
X55895Y100412D01*
X55813Y100399D01*
X55646Y100380D01*
X55567Y100370D01*
X55492Y100366D01*
X55423Y100363D01*
X55364Y100360D01*
X55314Y100357D01*
X55291D01*
X55275D01*
X55262D01*
X55252D01*
X55246D01*
X55242D01*
X55108Y100360D01*
X54986Y100366D01*
X54872Y100373D01*
X54770Y100386D01*
X54678Y100399D01*
X54593Y100416D01*
X54521Y100435D01*
X54455Y100452D01*
X54396Y100468D01*
X54350Y100488D01*
X54311Y100504D01*
X54278Y100517D01*
X54252Y100531D01*
X54235Y100540D01*
X54225Y100544D01*
X54222Y100547D01*
X54183Y100576D01*
X54150Y100609D01*
X54120Y100642D01*
X54098Y100675D01*
X54075Y100711D01*
X54058Y100744D01*
X54032Y100809D01*
X54015Y100868D01*
X54012Y100895D01*
X54009Y100914D01*
X54006Y100934D01*
Y100957D01*
X54009Y101006D01*
X54015Y101049D01*
X54029Y101095D01*
X54045Y101134D01*
X54084Y101209D01*
X54127Y101272D01*
X54150Y101298D01*
X54173Y101321D01*
X54196Y101341D01*
X54212Y101360D01*
X54229Y101374D01*
X54242Y101383D01*
X54248Y101387D01*
X54252Y101390D01*
X54304Y101423D01*
X54363Y101449D01*
X54435Y101472D01*
X54511Y101491D01*
X54589Y101508D01*
X54672Y101524D01*
X54839Y101544D01*
X54918Y101554D01*
X54993Y101557D01*
X55062Y101560D01*
X55121Y101564D01*
X55173Y101567D01*
X55193D01*
X55209D01*
X55223D01*
X55232D01*
X55239D01*
X55242D01*
X55377Y101564D01*
D02*
G37*
G36*
X59564Y99374D02*
X59620Y99371D01*
X59676Y99361D01*
X59725Y99351D01*
X59771Y99338D01*
X59813Y99325D01*
X59853Y99309D01*
X59885Y99292D01*
X59918Y99276D01*
X59944Y99260D01*
X59967Y99246D01*
X59987Y99233D01*
X60004Y99223D01*
X60013Y99214D01*
X60020Y99210D01*
X60023Y99207D01*
X60056Y99174D01*
X60085Y99141D01*
X60109Y99109D01*
X60131Y99072D01*
X60148Y99040D01*
X60164Y99004D01*
X60187Y98941D01*
X60200Y98886D01*
X60204Y98863D01*
X60207Y98840D01*
X60210Y98823D01*
Y98800D01*
X60207Y98741D01*
X60197Y98682D01*
X60181Y98630D01*
X60164Y98584D01*
X60148Y98544D01*
X60131Y98515D01*
X60122Y98495D01*
X60118Y98492D01*
Y98489D01*
X60079Y98436D01*
X60036Y98394D01*
X59994Y98354D01*
X59951Y98321D01*
X59912Y98295D01*
X59882Y98279D01*
X59869Y98272D01*
X59859Y98266D01*
X59856Y98262D01*
X59853D01*
X59787Y98236D01*
X59721Y98216D01*
X59659Y98203D01*
X59603Y98194D01*
X59554Y98187D01*
X59535D01*
X59518Y98184D01*
X59505D01*
X59495D01*
X59489D01*
X59485D01*
X59433Y98187D01*
X59380Y98190D01*
X59289Y98210D01*
X59206Y98239D01*
X59170Y98256D01*
X59141Y98272D01*
X59111Y98285D01*
X59085Y98302D01*
X59062Y98318D01*
X59046Y98331D01*
X59033Y98341D01*
X59023Y98351D01*
X59016Y98354D01*
X59013Y98357D01*
X58980Y98390D01*
X58951Y98426D01*
X58928Y98462D01*
X58908Y98498D01*
X58875Y98571D01*
X58852Y98640D01*
X58839Y98699D01*
X58836Y98725D01*
X58833Y98744D01*
X58829Y98764D01*
Y98787D01*
X58833Y98833D01*
X58836Y98879D01*
X58859Y98961D01*
X58888Y99033D01*
X58921Y99095D01*
X58954Y99145D01*
X58970Y99164D01*
X58983Y99181D01*
X58997Y99194D01*
X59006Y99204D01*
X59010Y99207D01*
X59013Y99210D01*
X59049Y99240D01*
X59085Y99266D01*
X59124Y99289D01*
X59167Y99309D01*
X59249Y99338D01*
X59328Y99358D01*
X59364Y99364D01*
X59397Y99368D01*
X59426Y99371D01*
X59452Y99374D01*
X59475Y99378D01*
X59492D01*
X59502D01*
X59505D01*
X59564Y99374D01*
D02*
G37*
G36*
X58905Y98128D02*
X58901D01*
X58901Y98128D01*
X58905Y98128D01*
D02*
G37*
G36*
X59108Y97013D02*
X59229Y97009D01*
X59341Y97000D01*
X59443Y96990D01*
X59535Y96977D01*
X59613Y96960D01*
X59685Y96944D01*
X59748Y96927D01*
X59800Y96911D01*
X59846Y96895D01*
X59885Y96882D01*
X59915Y96865D01*
X59938Y96855D01*
X59951Y96845D01*
X59961Y96842D01*
X59964Y96839D01*
X60007Y96806D01*
X60046Y96770D01*
X60079Y96734D01*
X60105Y96698D01*
X60131Y96662D01*
X60151Y96626D01*
X60167Y96593D01*
X60181Y96560D01*
X60197Y96501D01*
X60204Y96475D01*
X60207Y96452D01*
Y96435D01*
X60210Y96419D01*
Y96409D01*
X60207Y96363D01*
X60200Y96317D01*
X60187Y96275D01*
X60171Y96235D01*
X60135Y96160D01*
X60089Y96098D01*
X60043Y96048D01*
X60023Y96029D01*
X60007Y96012D01*
X59990Y95996D01*
X59977Y95986D01*
X59971Y95983D01*
X59967Y95979D01*
X59915Y95950D01*
X59853Y95924D01*
X59784Y95898D01*
X59708Y95878D01*
X59626Y95861D01*
X59544Y95848D01*
X59377Y95829D01*
X59298Y95819D01*
X59223Y95815D01*
X59154Y95812D01*
X59095Y95809D01*
X59046Y95806D01*
X59023D01*
X59006D01*
X58993D01*
X58983D01*
X58977D01*
X58974D01*
X58839Y95809D01*
X58718Y95815D01*
X58603Y95822D01*
X58501Y95835D01*
X58409Y95848D01*
X58324Y95865D01*
X58252Y95884D01*
X58186Y95901D01*
X58127Y95917D01*
X58081Y95937D01*
X58042Y95953D01*
X58009Y95966D01*
X57983Y95979D01*
X57967Y95989D01*
X57957Y95993D01*
X57954Y95996D01*
X57914Y96025D01*
X57881Y96058D01*
X57852Y96091D01*
X57829Y96124D01*
X57806Y96160D01*
X57789Y96193D01*
X57763Y96258D01*
X57747Y96317D01*
X57744Y96344D01*
X57740Y96363D01*
X57737Y96383D01*
Y96406D01*
X57740Y96455D01*
X57747Y96498D01*
X57760Y96544D01*
X57776Y96583D01*
X57816Y96658D01*
X57858Y96721D01*
X57881Y96747D01*
X57904Y96770D01*
X57927Y96790D01*
X57944Y96809D01*
X57960Y96823D01*
X57973Y96832D01*
X57980Y96836D01*
X57983Y96839D01*
X58035Y96872D01*
X58095Y96898D01*
X58167Y96921D01*
X58242Y96940D01*
X58321Y96957D01*
X58403Y96973D01*
X58570Y96993D01*
X58649Y97003D01*
X58724Y97006D01*
X58793Y97009D01*
X58852Y97013D01*
X58905Y97016D01*
X58924D01*
X58941D01*
X58954D01*
X58964D01*
X58970D01*
X58974D01*
X59108Y97013D01*
D02*
G37*
G36*
X57432Y96350D02*
X57435Y96291D01*
X57445Y96235D01*
X57455Y96183D01*
X57468Y96137D01*
X57485Y96091D01*
X57501Y96048D01*
X57517Y96012D01*
X57534Y95976D01*
X57550Y95947D01*
X57563Y95920D01*
X57580Y95901D01*
X57589Y95884D01*
X57599Y95871D01*
X57603Y95865D01*
X57606Y95861D01*
X57642Y95822D01*
X57678Y95786D01*
X57760Y95720D01*
X57842Y95661D01*
X57924Y95615D01*
X57963Y95596D01*
X57996Y95579D01*
X58029Y95566D01*
X58055Y95553D01*
X58078Y95547D01*
X58098Y95540D01*
X58108Y95533D01*
X58111D01*
X58173Y95514D01*
X58242Y95497D01*
X58383Y95471D01*
X58527Y95451D01*
X58596Y95445D01*
X58665Y95438D01*
X58728Y95435D01*
X58787Y95432D01*
X58839Y95428D01*
X58885D01*
X58921Y95425D01*
X57429D01*
Y96409D01*
X57432Y96350D01*
D02*
G37*
G36*
X59564Y93497D02*
X59620Y93493D01*
X59676Y93483D01*
X59725Y93474D01*
X59771Y93461D01*
X59813Y93447D01*
X59853Y93431D01*
X59885Y93414D01*
X59918Y93398D01*
X59944Y93382D01*
X59967Y93369D01*
X59987Y93356D01*
X60004Y93346D01*
X60013Y93336D01*
X60020Y93332D01*
X60023Y93329D01*
X60056Y93296D01*
X60085Y93264D01*
X60109Y93231D01*
X60131Y93195D01*
X60148Y93162D01*
X60164Y93126D01*
X60187Y93064D01*
X60200Y93008D01*
X60204Y92985D01*
X60207Y92962D01*
X60210Y92945D01*
Y92923D01*
X60207Y92864D01*
X60197Y92804D01*
X60181Y92752D01*
X60164Y92706D01*
X60148Y92667D01*
X60131Y92637D01*
X60122Y92617D01*
X60118Y92614D01*
Y92611D01*
X60079Y92558D01*
X60036Y92516D01*
X59994Y92476D01*
X59951Y92444D01*
X59912Y92417D01*
X59882Y92401D01*
X59869Y92394D01*
X59859Y92388D01*
X59856Y92385D01*
X59853D01*
X59787Y92358D01*
X59721Y92339D01*
X59659Y92326D01*
X59603Y92316D01*
X59554Y92309D01*
X59535D01*
X59518Y92306D01*
X59505D01*
X59495D01*
X59489D01*
X59485D01*
X59433Y92309D01*
X59380Y92313D01*
X59289Y92332D01*
X59206Y92362D01*
X59170Y92378D01*
X59141Y92394D01*
X59111Y92408D01*
X59085Y92424D01*
X59062Y92440D01*
X59046Y92453D01*
X59033Y92463D01*
X59023Y92473D01*
X59016Y92476D01*
X59013Y92480D01*
X58980Y92513D01*
X58951Y92549D01*
X58928Y92585D01*
X58908Y92621D01*
X58875Y92693D01*
X58852Y92762D01*
X58839Y92821D01*
X58836Y92847D01*
X58833Y92867D01*
X58829Y92887D01*
Y92909D01*
X58833Y92955D01*
X58836Y93001D01*
X58859Y93083D01*
X58888Y93155D01*
X58921Y93218D01*
X58954Y93267D01*
X58970Y93287D01*
X58983Y93303D01*
X58997Y93316D01*
X59006Y93326D01*
X59010Y93329D01*
X59013Y93332D01*
X59049Y93362D01*
X59085Y93388D01*
X59124Y93411D01*
X59167Y93431D01*
X59249Y93461D01*
X59328Y93480D01*
X59364Y93487D01*
X59397Y93490D01*
X59426Y93493D01*
X59452Y93497D01*
X59475Y93500D01*
X59492D01*
X59502D01*
X59505D01*
X59564Y93497D01*
D02*
G37*
G36*
X58905Y92250D02*
X58901D01*
X58901Y92250D01*
X58905Y92250D01*
D02*
G37*
G36*
X55770Y91842D02*
X55856Y91839D01*
X55931Y91832D01*
X55997Y91822D01*
X56049Y91812D01*
X56089Y91802D01*
X56118Y91793D01*
X56134Y91786D01*
X56141Y91783D01*
X56200Y91750D01*
X56249Y91711D01*
X56295Y91671D01*
X56331Y91632D01*
X56361Y91593D01*
X56384Y91563D01*
X56397Y91543D01*
X56400Y91540D01*
Y91537D01*
X56430Y91471D01*
X56453Y91405D01*
X56469Y91343D01*
X56479Y91281D01*
X56485Y91232D01*
X56489Y91209D01*
X56492Y91189D01*
Y91153D01*
X56489Y91078D01*
X56476Y91012D01*
X56459Y90953D01*
X56443Y90907D01*
X56423Y90871D01*
X56410Y90845D01*
X56397Y90832D01*
X56394Y90825D01*
X56354Y90789D01*
X56315Y90759D01*
X56272Y90740D01*
X56233Y90727D01*
X56200Y90720D01*
X56170Y90717D01*
X56154Y90714D01*
X56148D01*
X56112Y90717D01*
X56079Y90720D01*
X56049Y90730D01*
X56023Y90740D01*
X56000Y90746D01*
X55984Y90756D01*
X55974Y90759D01*
X55970Y90763D01*
X55941Y90786D01*
X55918Y90809D01*
X55898Y90832D01*
X55879Y90858D01*
X55866Y90877D01*
X55856Y90894D01*
X55852Y90907D01*
X55849Y90910D01*
X55833Y90953D01*
X55820Y91002D01*
X55806Y91055D01*
X55797Y91107D01*
X55787Y91156D01*
X55780Y91199D01*
X55777Y91212D01*
X55774Y91225D01*
Y91235D01*
X55764Y91310D01*
X55751Y91379D01*
X55741Y91442D01*
X55728Y91501D01*
X55715Y91556D01*
X55705Y91606D01*
X55692Y91651D01*
X55682Y91694D01*
X55672Y91727D01*
X55662Y91760D01*
X55656Y91786D01*
X55646Y91806D01*
X55639Y91822D01*
X55636Y91835D01*
X55633Y91842D01*
Y91845D01*
X55770Y91842D01*
D02*
G37*
G36*
X59108Y91135D02*
X59229Y91132D01*
X59341Y91122D01*
X59443Y91112D01*
X59535Y91099D01*
X59613Y91082D01*
X59685Y91066D01*
X59748Y91050D01*
X59800Y91033D01*
X59846Y91017D01*
X59885Y91004D01*
X59915Y90987D01*
X59938Y90978D01*
X59951Y90968D01*
X59961Y90964D01*
X59964Y90961D01*
X60007Y90928D01*
X60046Y90892D01*
X60079Y90856D01*
X60105Y90820D01*
X60131Y90784D01*
X60151Y90748D01*
X60167Y90715D01*
X60181Y90682D01*
X60197Y90623D01*
X60204Y90597D01*
X60207Y90574D01*
Y90558D01*
X60210Y90541D01*
Y90531D01*
X60207Y90486D01*
X60200Y90440D01*
X60187Y90397D01*
X60171Y90358D01*
X60135Y90282D01*
X60089Y90220D01*
X60043Y90171D01*
X60023Y90151D01*
X60007Y90135D01*
X59990Y90118D01*
X59977Y90108D01*
X59971Y90105D01*
X59967Y90102D01*
X59915Y90072D01*
X59853Y90046D01*
X59784Y90020D01*
X59708Y90000D01*
X59626Y89984D01*
X59544Y89970D01*
X59377Y89951D01*
X59298Y89941D01*
X59223Y89938D01*
X59154Y89934D01*
X59095Y89931D01*
X59046Y89928D01*
X59023D01*
X59006D01*
X58993D01*
X58983D01*
X58977D01*
X58974D01*
X58839Y89931D01*
X58718Y89938D01*
X58603Y89944D01*
X58501Y89957D01*
X58409Y89970D01*
X58324Y89987D01*
X58252Y90007D01*
X58186Y90023D01*
X58127Y90039D01*
X58081Y90059D01*
X58042Y90075D01*
X58009Y90089D01*
X57983Y90102D01*
X57967Y90112D01*
X57957Y90115D01*
X57954Y90118D01*
X57914Y90148D01*
X57881Y90180D01*
X57852Y90213D01*
X57829Y90246D01*
X57806Y90282D01*
X57789Y90315D01*
X57763Y90381D01*
X57747Y90440D01*
X57744Y90466D01*
X57740Y90486D01*
X57737Y90505D01*
Y90528D01*
X57740Y90577D01*
X57747Y90620D01*
X57760Y90666D01*
X57776Y90705D01*
X57816Y90781D01*
X57858Y90843D01*
X57881Y90869D01*
X57904Y90892D01*
X57927Y90912D01*
X57944Y90932D01*
X57960Y90945D01*
X57973Y90955D01*
X57980Y90958D01*
X57983Y90961D01*
X58035Y90994D01*
X58095Y91020D01*
X58167Y91043D01*
X58242Y91063D01*
X58321Y91079D01*
X58403Y91096D01*
X58570Y91115D01*
X58649Y91125D01*
X58724Y91128D01*
X58793Y91132D01*
X58852Y91135D01*
X58905Y91138D01*
X58924D01*
X58941D01*
X58954D01*
X58964D01*
X58970D01*
X58974D01*
X59108Y91135D01*
D02*
G37*
G36*
X55911Y88112D02*
X55961Y88106D01*
X56003Y88096D01*
X56039Y88086D01*
X56072Y88073D01*
X56095Y88063D01*
X56108Y88057D01*
X56115Y88053D01*
X56154Y88030D01*
X56187Y88004D01*
X56216Y87978D01*
X56239Y87955D01*
X56259Y87932D01*
X56272Y87916D01*
X56279Y87902D01*
X56282Y87899D01*
X56302Y87863D01*
X56318Y87824D01*
X56335Y87788D01*
X56344Y87752D01*
X56354Y87719D01*
X56361Y87693D01*
X56364Y87676D01*
Y87670D01*
X56367Y87637D01*
X56371Y87594D01*
X56374Y87548D01*
Y87506D01*
X56377Y87463D01*
Y86643D01*
X55337D01*
Y87342D01*
X55341Y87443D01*
X55344Y87532D01*
X55351Y87571D01*
X55354Y87607D01*
X55357Y87640D01*
X55364Y87673D01*
X55367Y87699D01*
X55374Y87722D01*
X55377Y87739D01*
X55380Y87755D01*
X55383Y87768D01*
X55387Y87778D01*
X55390Y87781D01*
Y87784D01*
X55413Y87840D01*
X55439Y87886D01*
X55465Y87929D01*
X55495Y87965D01*
X55521Y87991D01*
X55544Y88011D01*
X55557Y88024D01*
X55564Y88027D01*
X55613Y88057D01*
X55662Y88080D01*
X55711Y88093D01*
X55757Y88106D01*
X55800Y88112D01*
X55829Y88116D01*
X55843D01*
X55852D01*
X55856D01*
X55859D01*
X55911Y88112D01*
D02*
G37*
G36*
X54589Y87985D02*
X54639Y87975D01*
X54685Y87962D01*
X54724Y87948D01*
X54754Y87935D01*
X54777Y87922D01*
X54790Y87912D01*
X54796Y87909D01*
X54832Y87876D01*
X54865Y87840D01*
X54891Y87801D01*
X54911Y87765D01*
X54927Y87732D01*
X54937Y87706D01*
X54944Y87686D01*
X54947Y87683D01*
Y87679D01*
X54954Y87656D01*
X54957Y87630D01*
X54967Y87571D01*
X54973Y87506D01*
X54977Y87443D01*
Y87388D01*
X54980Y87361D01*
Y86643D01*
X54065D01*
Y87305D01*
X54068Y87361D01*
Y87410D01*
X54071Y87456D01*
X54075Y87499D01*
X54078Y87535D01*
X54081Y87571D01*
X54084Y87601D01*
X54091Y87624D01*
X54094Y87647D01*
X54098Y87666D01*
X54101Y87679D01*
X54104Y87693D01*
Y87699D01*
X54107Y87706D01*
X54127Y87755D01*
X54150Y87794D01*
X54176Y87830D01*
X54203Y87860D01*
X54225Y87883D01*
X54245Y87899D01*
X54258Y87909D01*
X54265Y87912D01*
X54308Y87939D01*
X54353Y87955D01*
X54399Y87968D01*
X54442Y87978D01*
X54478Y87985D01*
X54504Y87988D01*
X54524D01*
X54527D01*
X54531D01*
X54589Y87985D01*
D02*
G37*
G36*
X59157Y86399D02*
X59105Y86405D01*
X59056Y86412D01*
X58967Y86435D01*
X58888Y86467D01*
X58852Y86484D01*
X58823Y86500D01*
X58793Y86517D01*
X58770Y86533D01*
X58751Y86550D01*
X58731Y86563D01*
X58718Y86572D01*
X58708Y86582D01*
X58705Y86586D01*
X58701Y86589D01*
X58672Y86622D01*
X58642Y86658D01*
X58619Y86694D01*
X58600Y86730D01*
X58570Y86805D01*
X58551Y86871D01*
X58537Y86933D01*
X58534Y86956D01*
X58531Y86979D01*
X58527Y86996D01*
Y87022D01*
X58531Y87074D01*
X58537Y87124D01*
X58547Y87169D01*
X58560Y87212D01*
X58596Y87291D01*
X58616Y87327D01*
X58636Y87360D01*
X58655Y87386D01*
X58675Y87412D01*
X58695Y87435D01*
X58711Y87451D01*
X58724Y87465D01*
X58734Y87478D01*
X58741Y87481D01*
X58744Y87484D01*
X58800Y87524D01*
X58865Y87556D01*
X58934Y87579D01*
X59003Y87599D01*
X59062Y87612D01*
X59088Y87616D01*
X59111Y87619D01*
X59131Y87622D01*
X59144Y87625D01*
X59154D01*
X59157D01*
Y86399D01*
D02*
G37*
G36*
X58226Y86940D02*
X58236Y86858D01*
X58252Y86786D01*
X58272Y86713D01*
X58295Y86648D01*
X58321Y86586D01*
X58347Y86530D01*
X58377Y86481D01*
X58406Y86435D01*
X58432Y86395D01*
X58459Y86359D01*
X58482Y86333D01*
X58501Y86310D01*
X58518Y86294D01*
X58527Y86284D01*
X58531Y86281D01*
X58590Y86231D01*
X58655Y86189D01*
X58724Y86149D01*
X58793Y86116D01*
X58865Y86090D01*
X58938Y86067D01*
X59006Y86048D01*
X59075Y86035D01*
X59138Y86021D01*
X59200Y86015D01*
X59252Y86008D01*
X59298Y86002D01*
X59338D01*
X59367Y85998D01*
X58223D01*
Y87022D01*
X58226Y86940D01*
D02*
G37*
G36*
X59443Y85287D02*
X59515Y85283D01*
X59580Y85274D01*
X59643Y85260D01*
X59698Y85247D01*
X59751Y85234D01*
X59800Y85218D01*
X59839Y85201D01*
X59879Y85182D01*
X59912Y85165D01*
X59938Y85152D01*
X59961Y85139D01*
X59977Y85126D01*
X59990Y85116D01*
X59997Y85113D01*
X60000Y85110D01*
X60036Y85077D01*
X60069Y85041D01*
X60099Y85005D01*
X60122Y84969D01*
X60141Y84932D01*
X60158Y84900D01*
X60184Y84834D01*
X60200Y84775D01*
X60204Y84752D01*
X60207Y84729D01*
X60210Y84713D01*
Y84690D01*
X60207Y84634D01*
X60197Y84585D01*
X60184Y84536D01*
X60164Y84490D01*
X60145Y84447D01*
X60118Y84408D01*
X60095Y84372D01*
X60066Y84339D01*
X60040Y84312D01*
X60013Y84286D01*
X59990Y84263D01*
X59971Y84247D01*
X59951Y84234D01*
X59938Y84224D01*
X59928Y84217D01*
X59925Y84214D01*
X59889Y84194D01*
X59849Y84178D01*
X59807Y84165D01*
X59761Y84155D01*
X59666Y84135D01*
X59574Y84122D01*
X59528Y84119D01*
X59489Y84116D01*
X59449Y84113D01*
X59420D01*
X59390Y84109D01*
X59370D01*
X59357D01*
X59354D01*
X59282Y84113D01*
X59213Y84116D01*
X59147Y84126D01*
X59088Y84135D01*
X59036Y84152D01*
X58983Y84165D01*
X58938Y84181D01*
X58898Y84198D01*
X58862Y84214D01*
X58829Y84231D01*
X58803Y84247D01*
X58780Y84260D01*
X58764Y84270D01*
X58751Y84280D01*
X58744Y84283D01*
X58741Y84286D01*
X58705Y84319D01*
X58672Y84355D01*
X58642Y84391D01*
X58616Y84427D01*
X58596Y84463D01*
X58580Y84496D01*
X58554Y84562D01*
X58537Y84621D01*
X58534Y84644D01*
X58531Y84667D01*
X58527Y84683D01*
Y84706D01*
X58531Y84752D01*
X58537Y84795D01*
X58547Y84834D01*
X58560Y84873D01*
X58593Y84942D01*
X58629Y85005D01*
X58669Y85054D01*
X58685Y85074D01*
X58701Y85090D01*
X58714Y85103D01*
X58724Y85113D01*
X58731Y85116D01*
X58734Y85119D01*
X58773Y85149D01*
X58819Y85175D01*
X58869Y85198D01*
X58918Y85218D01*
X59023Y85247D01*
X59128Y85270D01*
X59174Y85277D01*
X59220Y85280D01*
X59262Y85283D01*
X59298Y85287D01*
X59325Y85290D01*
X59347D01*
X59361D01*
X59367D01*
X59443Y85287D01*
D02*
G37*
G36*
X60515Y83768D02*
X60466D01*
Y84113D01*
X60194D01*
X60250Y84155D01*
X60299Y84201D01*
X60341Y84250D01*
X60381Y84299D01*
X60410Y84352D01*
X60436Y84401D01*
X60459Y84450D01*
X60476Y84500D01*
X60489Y84542D01*
X60499Y84585D01*
X60505Y84624D01*
X60509Y84657D01*
X60512Y84683D01*
X60515Y84703D01*
Y83768D01*
D02*
G37*
G36*
X55534Y84580D02*
X55442Y84570D01*
X55354Y84557D01*
X55272Y84540D01*
X55196Y84518D01*
X55128Y84495D01*
X55065Y84468D01*
X55009Y84445D01*
X54960Y84419D01*
X54914Y84393D01*
X54878Y84370D01*
X54849Y84347D01*
X54822Y84331D01*
X54806Y84317D01*
X54796Y84308D01*
X54793Y84304D01*
X54740Y84252D01*
X54694Y84193D01*
X54652Y84134D01*
X54619Y84075D01*
X54589Y84016D01*
X54563Y83953D01*
X54544Y83898D01*
X54527Y83842D01*
X54517Y83789D01*
X54508Y83740D01*
X54501Y83697D01*
X54494Y83658D01*
Y83629D01*
X54491Y83606D01*
Y84583D01*
X55633D01*
X55534Y84580D01*
D02*
G37*
G36*
X55426Y82963D02*
X55374Y82969D01*
X55324Y82976D01*
X55236Y82999D01*
X55157Y83032D01*
X55121Y83048D01*
X55091Y83065D01*
X55062Y83081D01*
X55039Y83097D01*
X55019Y83114D01*
X55000Y83127D01*
X54986Y83137D01*
X54977Y83147D01*
X54973Y83150D01*
X54970Y83153D01*
X54940Y83186D01*
X54911Y83222D01*
X54888Y83258D01*
X54868Y83294D01*
X54839Y83369D01*
X54819Y83435D01*
X54806Y83498D01*
X54803Y83520D01*
X54799Y83543D01*
X54796Y83560D01*
Y83586D01*
X54799Y83639D01*
X54806Y83688D01*
X54816Y83734D01*
X54829Y83776D01*
X54865Y83855D01*
X54885Y83891D01*
X54904Y83924D01*
X54924Y83950D01*
X54944Y83976D01*
X54963Y83999D01*
X54980Y84016D01*
X54993Y84029D01*
X55003Y84042D01*
X55009Y84045D01*
X55013Y84048D01*
X55068Y84088D01*
X55134Y84121D01*
X55203Y84144D01*
X55272Y84163D01*
X55331Y84176D01*
X55357Y84180D01*
X55380Y84183D01*
X55400Y84186D01*
X55413Y84189D01*
X55423D01*
X55426D01*
Y82963D01*
D02*
G37*
G36*
X59548Y82814D02*
X59633Y82807D01*
X59705Y82797D01*
X59767Y82787D01*
X59794Y82781D01*
X59813Y82774D01*
X59833Y82768D01*
X59849Y82764D01*
X59859Y82761D01*
X59869Y82758D01*
X59872Y82754D01*
X59876D01*
X59928Y82728D01*
X59974Y82696D01*
X60013Y82659D01*
X60046Y82627D01*
X60072Y82594D01*
X60092Y82568D01*
X60105Y82551D01*
X60109Y82548D01*
Y82545D01*
X60138Y82489D01*
X60158Y82436D01*
X60174Y82384D01*
X60184Y82335D01*
X60190Y82292D01*
X60194Y82262D01*
Y82233D01*
X60190Y82174D01*
X60181Y82118D01*
X60167Y82069D01*
X60151Y82030D01*
X60138Y81997D01*
X60125Y81971D01*
X60115Y81958D01*
X60112Y81951D01*
X60079Y81912D01*
X60040Y81879D01*
X60004Y81853D01*
X59967Y81833D01*
X59935Y81816D01*
X59905Y81807D01*
X59889Y81803D01*
X59882Y81800D01*
X59863Y81797D01*
X59836Y81793D01*
X59777Y81790D01*
X59712Y81784D01*
X59646D01*
X59587Y81780D01*
X59561D01*
X59535D01*
X59515D01*
X59502D01*
X59492D01*
X59489D01*
X58272D01*
Y82817D01*
X59449D01*
X59548Y82814D01*
D02*
G37*
G36*
X55711Y81851D02*
X55783Y81848D01*
X55849Y81838D01*
X55911Y81825D01*
X55967Y81811D01*
X56020Y81798D01*
X56069Y81782D01*
X56108Y81766D01*
X56148Y81746D01*
X56180Y81730D01*
X56207Y81716D01*
X56230Y81703D01*
X56246Y81690D01*
X56259Y81680D01*
X56266Y81677D01*
X56269Y81674D01*
X56305Y81641D01*
X56338Y81605D01*
X56367Y81569D01*
X56390Y81533D01*
X56410Y81497D01*
X56426Y81464D01*
X56453Y81398D01*
X56469Y81339D01*
X56472Y81316D01*
X56476Y81293D01*
X56479Y81277D01*
Y81254D01*
X56476Y81198D01*
X56466Y81149D01*
X56453Y81100D01*
X56433Y81054D01*
X56413Y81011D01*
X56387Y80972D01*
X56364Y80936D01*
X56335Y80903D01*
X56308Y80877D01*
X56282Y80850D01*
X56259Y80827D01*
X56239Y80811D01*
X56220Y80798D01*
X56207Y80788D01*
X56197Y80782D01*
X56194Y80778D01*
X56157Y80759D01*
X56118Y80742D01*
X56075Y80729D01*
X56029Y80719D01*
X55934Y80700D01*
X55843Y80686D01*
X55797Y80683D01*
X55757Y80680D01*
X55718Y80677D01*
X55688D01*
X55659Y80673D01*
X55639D01*
X55626D01*
X55623D01*
X55551Y80677D01*
X55482Y80680D01*
X55416Y80690D01*
X55357Y80700D01*
X55305Y80716D01*
X55252Y80729D01*
X55206Y80746D01*
X55167Y80762D01*
X55131Y80778D01*
X55098Y80795D01*
X55072Y80811D01*
X55049Y80824D01*
X55032Y80834D01*
X55019Y80844D01*
X55013Y80847D01*
X55009Y80850D01*
X54973Y80883D01*
X54940Y80919D01*
X54911Y80955D01*
X54885Y80992D01*
X54865Y81028D01*
X54849Y81060D01*
X54822Y81126D01*
X54806Y81185D01*
X54803Y81208D01*
X54799Y81231D01*
X54796Y81247D01*
Y81270D01*
X54799Y81316D01*
X54806Y81359D01*
X54816Y81398D01*
X54829Y81438D01*
X54862Y81507D01*
X54898Y81569D01*
X54937Y81618D01*
X54954Y81638D01*
X54970Y81654D01*
X54983Y81667D01*
X54993Y81677D01*
X55000Y81680D01*
X55003Y81684D01*
X55042Y81713D01*
X55088Y81739D01*
X55137Y81762D01*
X55186Y81782D01*
X55291Y81811D01*
X55396Y81835D01*
X55442Y81841D01*
X55488Y81844D01*
X55531Y81848D01*
X55567Y81851D01*
X55593Y81854D01*
X55616D01*
X55629D01*
X55636D01*
X55711Y81851D01*
D02*
G37*
G36*
X58229Y80088D02*
X58242Y79989D01*
X58265Y79901D01*
X58278Y79862D01*
X58288Y79822D01*
X58301Y79789D01*
X58314Y79760D01*
X58324Y79734D01*
X58337Y79711D01*
X58344Y79691D01*
X58350Y79678D01*
X58357Y79671D01*
Y79668D01*
X58413Y79583D01*
X58475Y79511D01*
X58544Y79448D01*
X58606Y79399D01*
X58665Y79360D01*
X58692Y79347D01*
X58714Y79334D01*
X58731Y79324D01*
X58744Y79317D01*
X58754Y79311D01*
X58757D01*
X58859Y79271D01*
X58967Y79245D01*
X59072Y79225D01*
X59167Y79209D01*
X59213Y79206D01*
X59252Y79202D01*
X59289Y79199D01*
X59321D01*
X59344Y79196D01*
X58223D01*
Y80190D01*
X58229Y80088D01*
D02*
G37*
G36*
X55816Y79378D02*
X55901Y79371D01*
X55974Y79361D01*
X56036Y79352D01*
X56062Y79345D01*
X56082Y79338D01*
X56102Y79332D01*
X56118Y79329D01*
X56128Y79325D01*
X56138Y79322D01*
X56141Y79319D01*
X56144D01*
X56197Y79293D01*
X56243Y79260D01*
X56282Y79224D01*
X56315Y79191D01*
X56341Y79158D01*
X56361Y79132D01*
X56374Y79115D01*
X56377Y79112D01*
Y79109D01*
X56407Y79053D01*
X56426Y79001D01*
X56443Y78948D01*
X56453Y78899D01*
X56459Y78856D01*
X56462Y78827D01*
Y78797D01*
X56459Y78738D01*
X56449Y78682D01*
X56436Y78633D01*
X56420Y78594D01*
X56407Y78561D01*
X56394Y78535D01*
X56384Y78522D01*
X56380Y78515D01*
X56348Y78476D01*
X56308Y78443D01*
X56272Y78417D01*
X56236Y78397D01*
X56203Y78381D01*
X56174Y78371D01*
X56157Y78368D01*
X56151Y78364D01*
X56131Y78361D01*
X56105Y78358D01*
X56046Y78354D01*
X55980Y78348D01*
X55915D01*
X55856Y78345D01*
X55829D01*
X55803D01*
X55783D01*
X55770D01*
X55761D01*
X55757D01*
X54540D01*
Y79381D01*
X55718D01*
X55816Y79378D01*
D02*
G37*
G36*
X58301Y78415D02*
X58341Y78412D01*
X58419Y78392D01*
X58495Y78363D01*
X58564Y78330D01*
X58623Y78297D01*
X58646Y78284D01*
X58669Y78268D01*
X58685Y78258D01*
X58698Y78248D01*
X58705Y78245D01*
X58708Y78241D01*
X58754Y78205D01*
X58803Y78162D01*
X58855Y78113D01*
X58908Y78061D01*
X59016Y77953D01*
X59118Y77841D01*
X59167Y77789D01*
X59210Y77736D01*
X59249Y77690D01*
X59282Y77651D01*
X59311Y77618D01*
X59331Y77595D01*
X59347Y77579D01*
X59351Y77572D01*
X59400Y77513D01*
X59446Y77461D01*
X59489Y77408D01*
X59531Y77362D01*
X59571Y77316D01*
X59610Y77277D01*
X59643Y77241D01*
X59676Y77208D01*
X59705Y77179D01*
X59731Y77156D01*
X59754Y77133D01*
X59771Y77116D01*
X59787Y77100D01*
X59797Y77090D01*
X59803Y77087D01*
X59807Y77083D01*
X59879Y77024D01*
X59951Y76975D01*
X60020Y76933D01*
X60082Y76900D01*
X60135Y76873D01*
X60158Y76864D01*
X60174Y76854D01*
X60190Y76847D01*
X60200Y76844D01*
X60207Y76841D01*
X60210D01*
X60256Y76824D01*
X60302Y76814D01*
X60345Y76805D01*
X60384Y76801D01*
X60417Y76798D01*
X57429D01*
Y77851D01*
X57432Y77772D01*
X57439Y77697D01*
X57448Y77628D01*
X57465Y77562D01*
X57481Y77500D01*
X57501Y77444D01*
X57521Y77392D01*
X57540Y77346D01*
X57563Y77303D01*
X57583Y77267D01*
X57603Y77234D01*
X57619Y77208D01*
X57635Y77188D01*
X57645Y77175D01*
X57652Y77165D01*
X57655Y77162D01*
X57698Y77116D01*
X57747Y77077D01*
X57796Y77041D01*
X57852Y77008D01*
X57904Y76982D01*
X57957Y76955D01*
X58013Y76936D01*
X58062Y76919D01*
X58111Y76903D01*
X58157Y76893D01*
X58200Y76883D01*
X58236Y76877D01*
X58265Y76873D01*
X58285Y76870D01*
X58298Y76867D01*
X58305D01*
X58344Y77247D01*
X58291Y77251D01*
X58242Y77254D01*
X58157Y77274D01*
X58078Y77300D01*
X58045Y77313D01*
X58016Y77329D01*
X57990Y77342D01*
X57967Y77359D01*
X57947Y77372D01*
X57931Y77382D01*
X57917Y77395D01*
X57908Y77402D01*
X57904Y77405D01*
X57901Y77408D01*
X57872Y77441D01*
X57845Y77474D01*
X57826Y77510D01*
X57806Y77546D01*
X57776Y77618D01*
X57757Y77687D01*
X57747Y77746D01*
X57740Y77772D01*
Y77795D01*
X57737Y77815D01*
Y77887D01*
X57744Y77933D01*
X57760Y78015D01*
X57786Y78084D01*
X57812Y78146D01*
X57842Y78192D01*
X57855Y78212D01*
X57868Y78228D01*
X57878Y78241D01*
X57885Y78251D01*
X57888Y78254D01*
X57891Y78258D01*
X57921Y78287D01*
X57950Y78310D01*
X57980Y78333D01*
X58013Y78350D01*
X58075Y78379D01*
X58134Y78399D01*
X58183Y78408D01*
X58206Y78415D01*
X58226D01*
X58239Y78418D01*
X58252D01*
X58259D01*
X58262D01*
X58301Y78415D01*
D02*
G37*
D10*
X135827Y81102D02*
X135039D01*
X135827D01*
X43701Y122638D02*
X42913D01*
X43701D01*
X100460Y31117D02*
X100725Y30150D01*
X101087Y29216D01*
X101543Y28323D01*
X102086Y27481D01*
X102713Y26699D01*
X103416Y25985D01*
X104188Y25346D01*
X105021Y24789D01*
X105906Y24319D01*
X106834Y23941D01*
X107796Y23660D01*
X108782Y23479D01*
X109781Y23398D01*
X110783Y23420D01*
X111777Y23543D01*
X112754Y23767D01*
X113703Y24089D01*
X114615Y24505D01*
X115479Y25013D01*
X116287Y25605D01*
X117031Y26277D01*
X117703Y27021D01*
X118295Y27829D01*
X118802Y28693D01*
X119219Y29605D01*
X119541Y30554D01*
X119765Y31531D01*
X119888Y32525D01*
X119909Y33527D01*
X119829Y34526D01*
X119647Y35512D01*
X119366Y36474D01*
X118989Y37402D01*
X118519Y38287D01*
X117961Y39120D01*
X117322Y39892D01*
X116608Y40595D01*
X115826Y41221D01*
X114984Y41765D01*
X114091Y42221D01*
X113157Y42583D01*
X112190Y42848D01*
X135827Y61417D02*
X135039D01*
X135827D01*
X86910Y125295D02*
X86122D01*
X86910D01*
X24016Y59449D02*
X23228D01*
X24016D01*
X79528Y45774D02*
Y53150D01*
Y1969D02*
Y35931D01*
Y114567D02*
Y141339D01*
X51181Y1969D02*
Y141339D01*
X98425Y109772D02*
X115801D01*
X98425Y93236D02*
X115801D01*
Y109772D01*
X79528Y35931D02*
Y45774D01*
X71653D02*
X79528D01*
X71653Y35931D02*
Y45774D01*
Y35931D02*
X79528D01*
X46989Y73330D02*
Y84225D01*
X36219D02*
X46989D01*
X36219Y73330D02*
Y84225D01*
Y73330D02*
X46989D01*
X89764Y123819D02*
X93701D01*
Y122146D02*
Y123819D01*
X89764Y115551D02*
X93701D01*
Y117224D01*
X28445Y15650D02*
X30217D01*
X28445D02*
Y17421D01*
Y35335D02*
Y37106D01*
X30217D01*
X48130D02*
X49902D01*
Y35335D02*
Y37106D01*
X48130Y15650D02*
X49902D01*
Y17421D01*
X23041Y76484D02*
X24016Y75510D01*
X24990Y76484D01*
X42807Y94301D02*
X43781Y95276D01*
X42807Y96250D02*
X43781Y95276D01*
X24016Y115041D02*
X24990Y114067D01*
X23041Y114067D02*
X24016Y115041D01*
X4250Y95276D02*
X5224Y96250D01*
X4250Y95276D02*
X5224Y94301D01*
D11*
X99705Y62992D02*
X98966Y63418D01*
Y62566D01*
X99705Y62992D01*
X59941Y46457D02*
X59203Y46883D01*
Y46031D01*
X59941Y46457D01*
X29528Y13091D02*
X28789Y13517D01*
Y12664D01*
X29528Y13091D01*
X22736Y73819D02*
X21998Y74245D01*
Y73393D01*
X22736Y73819D01*
D12*
X33465Y43898D02*
X42126D01*
X33465D02*
Y48622D01*
X42126D01*
Y43898D02*
Y48622D01*
X133366Y80413D02*
Y81791D01*
X131988Y80413D02*
X133366D01*
X120965D02*
X122343D01*
X120965D02*
Y81791D01*
X131988Y92815D02*
X133366D01*
Y91437D02*
Y92815D01*
X120965Y91437D02*
Y92815D01*
X122343D01*
X17224Y16929D02*
X25886D01*
X17224D02*
Y21654D01*
X25886D01*
Y16929D02*
Y21654D01*
X44685Y122835D02*
X49803Y122835D01*
X49803Y115354D01*
X44685D02*
X49803D01*
X44685D02*
Y122835D01*
X29415Y119496D02*
X35540Y113372D01*
X32199Y110031D02*
X35540Y113372D01*
X26074Y116156D02*
X32199Y110031D01*
X26074Y116156D02*
X29415Y119496D01*
X109843Y87697D02*
X118504D01*
X109843D02*
Y92421D01*
X118504D01*
Y87697D02*
Y92421D01*
X109843Y78248D02*
X118504D01*
X109843D02*
Y82972D01*
X118504D01*
Y78248D02*
Y82972D01*
X109843Y61221D02*
X118504D01*
X109843D02*
Y65945D01*
X118504D01*
Y61221D02*
Y65945D01*
X133366Y60728D02*
Y62106D01*
X131988Y60728D02*
X133366D01*
X120965D02*
X122343D01*
X120965D02*
Y62106D01*
X131988Y73130D02*
X133366D01*
Y71752D02*
Y73130D01*
X120965Y71752D02*
Y73130D01*
X122343D01*
X109843Y65945D02*
X118504D01*
X109843D02*
Y70669D01*
X118504D01*
Y65945D02*
Y70669D01*
X109843Y82973D02*
X118504D01*
X109843D02*
Y87697D01*
X118504D01*
Y82973D02*
Y87697D01*
X98425Y78150D02*
X107087D01*
Y74213D02*
Y78150D01*
X98425Y74213D02*
X107087D01*
X98425D02*
Y78150D01*
Y82185D02*
X107087D01*
Y78248D02*
Y82185D01*
X98425Y78248D02*
X107087D01*
X98425D02*
Y82185D01*
X61417Y61221D02*
X70079D01*
Y57284D02*
Y61221D01*
X61417Y57284D02*
X70079D01*
X61417D02*
Y61221D01*
Y42717D02*
X70079D01*
X61417D02*
Y46654D01*
X70079D01*
Y42717D02*
Y46654D01*
X100787Y63583D02*
X106693D01*
X98819Y74213D02*
X106693D01*
X61811Y46654D02*
X69685D01*
X61811Y57284D02*
X69685D01*
X83563Y115945D02*
Y124606D01*
X79626Y115945D02*
X83563D01*
X79626D02*
Y124606D01*
X83563D01*
X35433Y60236D02*
X37205D01*
X25000D02*
X26772D01*
X25000Y50000D02*
X26772D01*
X35433D02*
X37205D01*
X24803Y48622D02*
X33465D01*
Y43898D02*
Y48622D01*
X24803Y43898D02*
X33465D01*
X24803D02*
Y48622D01*
X21063Y28346D02*
Y37008D01*
X25787D01*
Y28346D02*
Y37008D01*
X21063Y28346D02*
X25787D01*
X20866Y28346D02*
Y37008D01*
X16929Y28346D02*
X20866D01*
X16929D02*
Y37008D01*
X20866D01*
X8465Y28346D02*
Y37008D01*
X4528Y28346D02*
X8465D01*
X4528D02*
Y37008D01*
X8465D01*
X12598Y28346D02*
Y37008D01*
X8661Y28346D02*
X12598D01*
X8661D02*
Y37008D01*
X12598D01*
X16732Y28346D02*
Y37008D01*
X12795Y28346D02*
X16732D01*
X12795D02*
Y37008D01*
X16732D01*
X42421Y63878D02*
Y72539D01*
X38484Y63878D02*
X42421D01*
X38484D02*
Y72539D01*
X42421D01*
X50394Y132283D02*
Y136221D01*
X44094Y132283D02*
Y136221D01*
X32748Y122857D02*
X38872Y116732D01*
X35531Y113392D02*
X38872Y116732D01*
X29407Y119516D02*
X35531Y113392D01*
X29407Y119516D02*
X32748Y122857D01*
X21341Y118367D02*
X26909Y123934D01*
X15217Y124491D02*
X20785Y130059D01*
X47146Y63878D02*
Y72539D01*
X42421Y63878D02*
X47146D01*
X42421D02*
Y72539D01*
X47146D01*
X29907Y77469D02*
X36032Y71344D01*
X32691Y68004D02*
X36032Y71344D01*
X26567Y74128D02*
X32691Y68004D01*
X26567Y74128D02*
X29907Y77469D01*
X46555Y102953D02*
Y111614D01*
X51279D01*
Y102953D02*
Y111614D01*
X46555Y102953D02*
X51279D01*
X5399Y87016D02*
X11524Y80892D01*
X8183Y77551D02*
X11524Y80892D01*
X2059Y83675D02*
X8183Y77551D01*
X2059Y83675D02*
X5399Y87016D01*
X1567Y102151D02*
X7691Y108276D01*
X11032Y104935D01*
X4907Y98811D02*
X11032Y104935D01*
X1567Y102151D02*
X4907Y98811D01*
X2748Y113203D02*
X8872Y107078D01*
X2748Y113203D02*
X6088Y116544D01*
X12213Y110419D01*
X8872Y107078D02*
X12213Y110419D01*
X6094Y116549D02*
X12219Y110425D01*
X6094Y116549D02*
X9435Y119890D01*
X15559Y113766D01*
X12219Y110425D02*
X15559Y113766D01*
X26364Y74024D02*
X32489Y67899D01*
X29148Y64559D02*
X32489Y67899D01*
X23023Y70683D02*
X29148Y64559D01*
X23023Y70683D02*
X26364Y74024D01*
D13*
X47244Y124803D02*
D03*
M02*
