G04*
G04 #@! TF.GenerationSoftware,Altium Limited,Altium Designer,20.0.13 (296)*
G04*
G04 Layer_Color=16711935*
%FSLAX25Y25*%
%MOIN*%
G70*
G01*
G75*
G04:AMPARAMS|DCode=64|XSize=82.68mil|YSize=51.18mil|CornerRadius=13.78mil|HoleSize=0mil|Usage=FLASHONLY|Rotation=225.000|XOffset=0mil|YOffset=0mil|HoleType=Round|Shape=RoundedRectangle|*
%AMROUNDEDRECTD64*
21,1,0.08268,0.02362,0,0,225.0*
21,1,0.05512,0.05118,0,0,225.0*
1,1,0.02756,-0.02784,-0.01114*
1,1,0.02756,0.01114,0.02784*
1,1,0.02756,0.02784,0.01114*
1,1,0.02756,-0.01114,-0.02784*
%
%ADD64ROUNDEDRECTD64*%
%ADD65C,0.02756*%
G04:AMPARAMS|DCode=76|XSize=27.56mil|YSize=51.18mil|CornerRadius=7.87mil|HoleSize=0mil|Usage=FLASHONLY|Rotation=0.000|XOffset=0mil|YOffset=0mil|HoleType=Round|Shape=RoundedRectangle|*
%AMROUNDEDRECTD76*
21,1,0.02756,0.03543,0,0,0.0*
21,1,0.01181,0.05118,0,0,0.0*
1,1,0.01575,0.00591,-0.01772*
1,1,0.01575,-0.00591,-0.01772*
1,1,0.01575,-0.00591,0.01772*
1,1,0.01575,0.00591,0.01772*
%
%ADD76ROUNDEDRECTD76*%
G04:AMPARAMS|DCode=77|XSize=27.56mil|YSize=51.18mil|CornerRadius=7.87mil|HoleSize=0mil|Usage=FLASHONLY|Rotation=90.000|XOffset=0mil|YOffset=0mil|HoleType=Round|Shape=RoundedRectangle|*
%AMROUNDEDRECTD77*
21,1,0.02756,0.03543,0,0,90.0*
21,1,0.01181,0.05118,0,0,90.0*
1,1,0.01575,0.01772,0.00591*
1,1,0.01575,0.01772,-0.00591*
1,1,0.01575,-0.01772,-0.00591*
1,1,0.01575,-0.01772,0.00591*
%
%ADD77ROUNDEDRECTD77*%
%ADD78C,0.04331*%
D64*
X118504Y130315D02*
D03*
X130315Y118504D02*
D03*
X124409Y124409D02*
D03*
D65*
X46063Y94488D02*
D03*
D76*
X66929Y3937D02*
D03*
X77559Y12992D02*
D03*
X85827Y3937D02*
D03*
X102362D02*
D03*
X55905D02*
D03*
X50394D02*
D03*
X47638Y12992D02*
D03*
X80315Y3937D02*
D03*
X96850D02*
D03*
X99606Y12992D02*
D03*
X61417Y3937D02*
D03*
X82677Y139370D02*
D03*
X90551D02*
D03*
X88583Y12992D02*
D03*
X98425Y139370D02*
D03*
X86614D02*
D03*
X53150Y12992D02*
D03*
X44882Y3937D02*
D03*
X42126Y12992D02*
D03*
X58661D02*
D03*
X74803Y3937D02*
D03*
X64173Y12992D02*
D03*
X94095D02*
D03*
X94488Y139370D02*
D03*
X91339Y3937D02*
D03*
X83071Y12992D02*
D03*
X39370Y3937D02*
D03*
D77*
X139370Y38189D02*
D03*
Y50000D02*
D03*
Y42126D02*
D03*
Y46063D02*
D03*
Y53937D02*
D03*
X139370Y80709D02*
D03*
Y84646D02*
D03*
Y92520D02*
D03*
Y88583D02*
D03*
Y61024D02*
D03*
Y64961D02*
D03*
Y72835D02*
D03*
Y68898D02*
D03*
D78*
X17717Y62992D02*
D03*
X5906Y51181D02*
D03*
X110236Y135827D02*
D03*
Y7480D02*
D03*
X5906Y62992D02*
D03*
X17717Y51181D02*
D03*
M02*
