G04*
G04 #@! TF.GenerationSoftware,Altium Limited,Altium Designer,20.0.13 (296)*
G04*
G04 Layer_Physical_Order=1*
G04 Layer_Color=255*
%FSLAX25Y25*%
%MOIN*%
G70*
G01*
G75*
%ADD12C,0.00591*%
%ADD13C,0.00787*%
G04:AMPARAMS|DCode=14|XSize=21.65mil|YSize=21.65mil|CornerRadius=5.41mil|HoleSize=0mil|Usage=FLASHONLY|Rotation=180.000|XOffset=0mil|YOffset=0mil|HoleType=Round|Shape=RoundedRectangle|*
%AMROUNDEDRECTD14*
21,1,0.02165,0.01083,0,0,180.0*
21,1,0.01083,0.02165,0,0,180.0*
1,1,0.01083,-0.00541,0.00541*
1,1,0.01083,0.00541,0.00541*
1,1,0.01083,0.00541,-0.00541*
1,1,0.01083,-0.00541,-0.00541*
%
%ADD14ROUNDEDRECTD14*%
G04:AMPARAMS|DCode=15|XSize=25.59mil|YSize=21.65mil|CornerRadius=5.41mil|HoleSize=0mil|Usage=FLASHONLY|Rotation=270.000|XOffset=0mil|YOffset=0mil|HoleType=Round|Shape=RoundedRectangle|*
%AMROUNDEDRECTD15*
21,1,0.02559,0.01083,0,0,270.0*
21,1,0.01476,0.02165,0,0,270.0*
1,1,0.01083,-0.00541,-0.00738*
1,1,0.01083,-0.00541,0.00738*
1,1,0.01083,0.00541,0.00738*
1,1,0.01083,0.00541,-0.00738*
%
%ADD15ROUNDEDRECTD15*%
G04:AMPARAMS|DCode=16|XSize=21.65mil|YSize=21.65mil|CornerRadius=5.41mil|HoleSize=0mil|Usage=FLASHONLY|Rotation=270.000|XOffset=0mil|YOffset=0mil|HoleType=Round|Shape=RoundedRectangle|*
%AMROUNDEDRECTD16*
21,1,0.02165,0.01083,0,0,270.0*
21,1,0.01083,0.02165,0,0,270.0*
1,1,0.01083,-0.00541,-0.00541*
1,1,0.01083,-0.00541,0.00541*
1,1,0.01083,0.00541,0.00541*
1,1,0.01083,0.00541,-0.00541*
%
%ADD16ROUNDEDRECTD16*%
G04:AMPARAMS|DCode=17|XSize=25.59mil|YSize=37.4mil|CornerRadius=6.4mil|HoleSize=0mil|Usage=FLASHONLY|Rotation=0.000|XOffset=0mil|YOffset=0mil|HoleType=Round|Shape=RoundedRectangle|*
%AMROUNDEDRECTD17*
21,1,0.02559,0.02461,0,0,0.0*
21,1,0.01280,0.03740,0,0,0.0*
1,1,0.01280,0.00640,-0.01230*
1,1,0.01280,-0.00640,-0.01230*
1,1,0.01280,-0.00640,0.01230*
1,1,0.01280,0.00640,0.01230*
%
%ADD17ROUNDEDRECTD17*%
G04:AMPARAMS|DCode=18|XSize=23.62mil|YSize=41.34mil|CornerRadius=5.91mil|HoleSize=0mil|Usage=FLASHONLY|Rotation=180.000|XOffset=0mil|YOffset=0mil|HoleType=Round|Shape=RoundedRectangle|*
%AMROUNDEDRECTD18*
21,1,0.02362,0.02953,0,0,180.0*
21,1,0.01181,0.04134,0,0,180.0*
1,1,0.01181,-0.00591,0.01476*
1,1,0.01181,0.00591,0.01476*
1,1,0.01181,0.00591,-0.01476*
1,1,0.01181,-0.00591,-0.01476*
%
%ADD18ROUNDEDRECTD18*%
G04:AMPARAMS|DCode=19|XSize=35.43mil|YSize=39.37mil|CornerRadius=8.86mil|HoleSize=0mil|Usage=FLASHONLY|Rotation=180.000|XOffset=0mil|YOffset=0mil|HoleType=Round|Shape=RoundedRectangle|*
%AMROUNDEDRECTD19*
21,1,0.03543,0.02165,0,0,180.0*
21,1,0.01772,0.03937,0,0,180.0*
1,1,0.01772,-0.00886,0.01083*
1,1,0.01772,0.00886,0.01083*
1,1,0.01772,0.00886,-0.01083*
1,1,0.01772,-0.00886,-0.01083*
%
%ADD19ROUNDEDRECTD19*%
G04:AMPARAMS|DCode=20|XSize=25.59mil|YSize=21.65mil|CornerRadius=5.41mil|HoleSize=0mil|Usage=FLASHONLY|Rotation=180.000|XOffset=0mil|YOffset=0mil|HoleType=Round|Shape=RoundedRectangle|*
%AMROUNDEDRECTD20*
21,1,0.02559,0.01083,0,0,180.0*
21,1,0.01476,0.02165,0,0,180.0*
1,1,0.01083,-0.00738,0.00541*
1,1,0.01083,0.00738,0.00541*
1,1,0.01083,0.00738,-0.00541*
1,1,0.01083,-0.00738,-0.00541*
%
%ADD20ROUNDEDRECTD20*%
%ADD21O,0.01575X0.05512*%
G04:AMPARAMS|DCode=22|XSize=25.59mil|YSize=39.37mil|CornerRadius=6.4mil|HoleSize=0mil|Usage=FLASHONLY|Rotation=0.000|XOffset=0mil|YOffset=0mil|HoleType=Round|Shape=RoundedRectangle|*
%AMROUNDEDRECTD22*
21,1,0.02559,0.02657,0,0,0.0*
21,1,0.01280,0.03937,0,0,0.0*
1,1,0.01280,0.00640,-0.01329*
1,1,0.01280,-0.00640,-0.01329*
1,1,0.01280,-0.00640,0.01329*
1,1,0.01280,0.00640,0.01329*
%
%ADD22ROUNDEDRECTD22*%
%ADD34C,0.01575*%
%ADD35C,0.02559*%
%ADD36C,0.01968*%
%ADD37R,0.04134X0.13583*%
%ADD38R,0.04134X0.15748*%
G04:AMPARAMS|DCode=39|XSize=78.74mil|YSize=47.24mil|CornerRadius=11.81mil|HoleSize=0mil|Usage=FLASHONLY|Rotation=180.000|XOffset=0mil|YOffset=0mil|HoleType=Round|Shape=RoundedRectangle|*
%AMROUNDEDRECTD39*
21,1,0.07874,0.02362,0,0,180.0*
21,1,0.05512,0.04724,0,0,180.0*
1,1,0.02362,-0.02756,0.01181*
1,1,0.02362,0.02756,0.01181*
1,1,0.02362,0.02756,-0.01181*
1,1,0.02362,-0.02756,-0.01181*
%
%ADD39ROUNDEDRECTD39*%
G04:AMPARAMS|DCode=40|XSize=78.74mil|YSize=47.24mil|CornerRadius=11.81mil|HoleSize=0mil|Usage=FLASHONLY|Rotation=90.000|XOffset=0mil|YOffset=0mil|HoleType=Round|Shape=RoundedRectangle|*
%AMROUNDEDRECTD40*
21,1,0.07874,0.02362,0,0,90.0*
21,1,0.05512,0.04724,0,0,90.0*
1,1,0.02362,0.01181,0.02756*
1,1,0.02362,0.01181,-0.02756*
1,1,0.02362,-0.01181,-0.02756*
1,1,0.02362,-0.01181,0.02756*
%
%ADD40ROUNDEDRECTD40*%
%ADD41C,0.02165*%
%ADD42C,0.02756*%
%ADD43C,0.02362*%
G36*
X25742Y63605D02*
X25735Y63548D01*
X25256Y63228D01*
X24897Y62691D01*
X24771Y62057D01*
Y59400D01*
X24897Y58766D01*
X25256Y58229D01*
X25793Y57870D01*
X26427Y57744D01*
X26808D01*
X28939Y55612D01*
X29525Y55221D01*
X30217Y55083D01*
X30596D01*
X30839Y54631D01*
Y54299D01*
X30502Y53794D01*
X30384Y53199D01*
Y53150D01*
X32677D01*
Y52658D01*
X33169D01*
Y50561D01*
X33415D01*
X34011Y50679D01*
X34133Y50761D01*
X34856Y51096D01*
X35572Y50618D01*
X35925Y50548D01*
Y52658D01*
X36417D01*
Y53150D01*
X38527D01*
X38457Y53502D01*
X38334Y53686D01*
X38323Y53736D01*
X38682Y54584D01*
X38778Y54601D01*
X39177Y54335D01*
X39868Y54198D01*
X43057D01*
X53115Y44140D01*
Y28937D01*
X53252Y28246D01*
X53644Y27660D01*
X57495Y23808D01*
X57409Y23679D01*
X57241Y22835D01*
Y20472D01*
X57409Y19628D01*
X57545Y19424D01*
X57124Y18637D01*
X46752D01*
X46061Y18500D01*
X45475Y18108D01*
X42227Y14860D01*
X41835Y14274D01*
X41698Y13583D01*
Y7817D01*
X41693Y7815D01*
X41334Y7277D01*
X41208Y6644D01*
Y4183D01*
X41334Y3549D01*
X41693Y3012D01*
X41745Y2978D01*
X41506Y2190D01*
X39331D01*
X39160Y2447D01*
X38443Y2926D01*
X37598Y3094D01*
X36754Y2926D01*
X36037Y2447D01*
X35559Y1731D01*
X35391Y886D01*
X35481Y432D01*
X34949Y-355D01*
X33146D01*
X33142Y-336D01*
X32664Y380D01*
X32119Y744D01*
X32059Y1011D01*
Y1351D01*
X32119Y1619D01*
X32664Y1982D01*
X33142Y2698D01*
X33310Y3543D01*
Y4232D01*
X28346D01*
X23383D01*
Y3543D01*
X23551Y2698D01*
X24029Y1982D01*
X24574Y1619D01*
X24634Y1351D01*
Y1011D01*
X24574Y744D01*
X24029Y380D01*
X23637Y-208D01*
X23075Y-169D01*
X22842Y-87D01*
X22707Y2600D01*
X22687Y2679D01*
X22688Y2761D01*
X22154Y5619D01*
X22123Y5695D01*
X22113Y5776D01*
X21201Y8537D01*
X21161Y8608D01*
X21140Y8687D01*
X19866Y11301D01*
X19816Y11366D01*
X19785Y11441D01*
X18172Y13861D01*
X18115Y13919D01*
X18074Y13989D01*
X16151Y16171D01*
X16086Y16220D01*
X16036Y16285D01*
X13838Y18189D01*
X13768Y18230D01*
X13710Y18287D01*
X11276Y19880D01*
X11201Y19910D01*
X11135Y19959D01*
X8511Y21211D01*
X8432Y21231D01*
X8360Y21271D01*
X5592Y22161D01*
X5511Y22170D01*
X5435Y22200D01*
X2572Y22710D01*
X2490Y22708D01*
X2411Y22728D01*
X-494Y22850D01*
X-575Y22837D01*
X-656Y22846D01*
X-1701Y22749D01*
X-1871Y22884D01*
X-2271Y23487D01*
X-2245Y23622D01*
Y24709D01*
X-1476Y25359D01*
X-785Y25497D01*
X-199Y25888D01*
X192Y26474D01*
X330Y27165D01*
Y31102D01*
X192Y31794D01*
X-172Y32339D01*
Y32531D01*
X5062Y37764D01*
X6004D01*
X6618Y37887D01*
X6733Y37963D01*
X7004Y37819D01*
X7016Y37806D01*
X7225Y36841D01*
X7175Y36766D01*
X7057Y36171D01*
Y35089D01*
X7175Y34493D01*
X7512Y33989D01*
X8017Y33652D01*
X8612Y33533D01*
X9695D01*
X10290Y33652D01*
X10554Y33828D01*
X11165Y33624D01*
X11371Y33018D01*
X11051Y32538D01*
X10981Y32185D01*
X15200D01*
X15130Y32538D01*
X14652Y33254D01*
X14677Y33488D01*
X14797Y34087D01*
X15069Y34493D01*
X15187Y35089D01*
Y35138D01*
X13091D01*
Y36122D01*
X15187D01*
Y36171D01*
X15069Y36766D01*
X14732Y37271D01*
X14663Y37317D01*
X14620Y38235D01*
X14968Y38756D01*
X15090Y39370D01*
Y42323D01*
X14968Y42937D01*
X14620Y43458D01*
X14198Y43740D01*
Y43799D01*
X14099Y44298D01*
X13816Y44722D01*
X12733Y45804D01*
X12310Y46087D01*
X11811Y46187D01*
X639D01*
X-172Y46997D01*
Y49157D01*
X192Y49702D01*
X330Y50394D01*
Y54331D01*
X192Y55022D01*
X146Y55091D01*
X567Y55879D01*
X3384D01*
X3674Y55445D01*
X3959Y55255D01*
Y54466D01*
X3687Y54285D01*
X3339Y53764D01*
X3217Y53150D01*
Y50197D01*
X3339Y49582D01*
X3687Y49062D01*
X4208Y48713D01*
X4823Y48591D01*
X6004D01*
X6618Y48713D01*
X7139Y49062D01*
X7428D01*
X7948Y48713D01*
X8563Y48591D01*
X9744D01*
X10358Y48713D01*
X10879Y49062D01*
X11168D01*
X11689Y48713D01*
X12303Y48591D01*
X13484D01*
X14099Y48713D01*
X14620Y49062D01*
X14968Y49582D01*
X15090Y50197D01*
Y52336D01*
X15293Y52521D01*
X15877Y52844D01*
X16043Y52811D01*
Y54921D01*
X16535D01*
Y55413D01*
X18645D01*
X18575Y55766D01*
X18097Y56482D01*
X17380Y56961D01*
X16535Y57129D01*
X16260Y57877D01*
X16152Y58420D01*
X15814Y58925D01*
Y59093D01*
X16504Y59816D01*
X17291D01*
Y59400D01*
X17417Y58766D01*
X17776Y58229D01*
X18313Y57870D01*
X18947Y57744D01*
X20226D01*
X20860Y57870D01*
X21397Y58229D01*
X21756Y58766D01*
X21882Y59400D01*
Y62057D01*
X21756Y62691D01*
X21397Y63228D01*
X21393Y63231D01*
Y64335D01*
X25261D01*
X25742Y63605D01*
D02*
G37*
G36*
X58857Y14237D02*
X58590Y13837D01*
X58422Y12992D01*
Y12303D01*
X63386D01*
Y11811D01*
X63878D01*
Y8422D01*
X66142D01*
X66599Y8513D01*
X67387Y7982D01*
Y-2500D01*
X63290Y-6597D01*
X62898Y-7183D01*
X62761Y-7874D01*
Y-10669D01*
X57384Y-16046D01*
X56993Y-16632D01*
X56855Y-17323D01*
Y-21145D01*
X56635Y-21189D01*
X55919Y-21667D01*
X55441Y-22384D01*
X55273Y-23228D01*
Y-28740D01*
X55441Y-29585D01*
X55919Y-30301D01*
X56635Y-30780D01*
X56855Y-30824D01*
Y-36462D01*
X51085Y-42232D01*
X50693Y-42818D01*
X50556Y-43510D01*
Y-45709D01*
X39016Y-57249D01*
X34848D01*
X34157Y-57386D01*
X33571Y-57778D01*
X28588Y-62761D01*
X-3582D01*
X-6068Y-60275D01*
Y-51690D01*
X-5848Y-51646D01*
X-5132Y-51167D01*
X-4653Y-50451D01*
X-4485Y-49606D01*
Y-44094D01*
X-4653Y-43250D01*
X-5132Y-42533D01*
X-5848Y-42055D01*
X-6693Y-41887D01*
X-9055D01*
X-9900Y-42055D01*
X-10616Y-42533D01*
X-10980Y-43077D01*
X-11247Y-43138D01*
X-11588D01*
X-11855Y-43077D01*
X-12218Y-42533D01*
X-12935Y-42055D01*
X-13780Y-41887D01*
X-16142D01*
X-16987Y-42055D01*
X-17703Y-42533D01*
X-18181Y-43250D01*
X-18350Y-44094D01*
Y-49606D01*
X-18181Y-50451D01*
X-17703Y-51167D01*
X-16987Y-51646D01*
X-16767Y-51690D01*
Y-62992D01*
X-16630Y-63683D01*
X-16238Y-64269D01*
X-12301Y-68206D01*
X-11715Y-68598D01*
X-11024Y-68735D01*
X28462D01*
X28625Y-69523D01*
X27669Y-69937D01*
X23220Y-71537D01*
X18679Y-72854D01*
X14065Y-73884D01*
X9395Y-74622D01*
X4688Y-75065D01*
X4132Y-75082D01*
X3566Y-74534D01*
Y-74016D01*
X3555Y-73957D01*
X3561Y-73898D01*
X3515Y-73437D01*
X3464Y-73268D01*
X3429Y-73094D01*
X3077Y-72243D01*
X2816Y-71852D01*
X2164Y-71200D01*
X1773Y-70939D01*
X922Y-70586D01*
X461Y-70495D01*
X-461D01*
X-922Y-70586D01*
X-1773Y-70939D01*
X-2164Y-71200D01*
X-2816Y-71852D01*
X-3077Y-72243D01*
X-3429Y-73094D01*
X-3464Y-73268D01*
X-3515Y-73437D01*
X-3561Y-73898D01*
X-3555Y-73957D01*
X-3566Y-74016D01*
Y-74534D01*
X-4132Y-75082D01*
X-4735Y-75063D01*
X-9536Y-74606D01*
X-14297Y-73841D01*
X-19000Y-72773D01*
X-20449Y-72344D01*
X-20449Y-40735D01*
X8661D01*
X9122Y-40643D01*
X9513Y-40382D01*
X9774Y-39992D01*
X9866Y-39531D01*
Y-20606D01*
X10493Y-20306D01*
X10542Y-20270D01*
X10600Y-20249D01*
X13085Y-18739D01*
X13145Y-18684D01*
X13217Y-18646D01*
X15478Y-16816D01*
X15530Y-16754D01*
X15597Y-16706D01*
X17592Y-14591D01*
X17635Y-14522D01*
X17695Y-14466D01*
X19388Y-12102D01*
X19422Y-12027D01*
X19473Y-11964D01*
X20835Y-9395D01*
X20858Y-9317D01*
X20901Y-9247D01*
X21906Y-6518D01*
X21919Y-6437D01*
X21952Y-6363D01*
X22582Y-3524D01*
X22595Y-3523D01*
X23383Y-3543D01*
X23551Y-4388D01*
X24029Y-5104D01*
X24746Y-5583D01*
X25367Y-5706D01*
Y-6469D01*
X25130Y-6627D01*
X24793Y-7131D01*
X24675Y-7726D01*
Y-8809D01*
X24793Y-9404D01*
X25130Y-9909D01*
Y-10706D01*
X25107Y-10769D01*
X24396Y-11037D01*
X23679Y-10559D01*
X23327Y-10488D01*
Y-12598D01*
Y-14708D01*
X23679Y-14638D01*
X24396Y-14160D01*
X25121Y-14433D01*
X25149Y-14449D01*
X25635Y-14774D01*
X26230Y-14892D01*
X26438D01*
X26515Y-15679D01*
X26292Y-15724D01*
X25869Y-16007D01*
X16597Y-25278D01*
X16314Y-25702D01*
X16215Y-26201D01*
Y-41192D01*
X13536Y-43871D01*
X13484Y-43861D01*
X11713D01*
X10983Y-44006D01*
X10364Y-44420D01*
X9951Y-45038D01*
X9806Y-45768D01*
Y-47933D01*
X9951Y-48663D01*
X10364Y-49281D01*
X10785Y-49562D01*
X10832Y-49738D01*
Y-50262D01*
X10785Y-50437D01*
X10364Y-50719D01*
X9951Y-51337D01*
X9806Y-52067D01*
Y-54232D01*
X9951Y-54962D01*
X10364Y-55581D01*
X10983Y-55994D01*
X11713Y-56139D01*
X13484D01*
X14214Y-55994D01*
X14832Y-55581D01*
X15246Y-54962D01*
X15347Y-54454D01*
X16149D01*
X16250Y-54962D01*
X16664Y-55581D01*
X17282Y-55994D01*
X18012Y-56139D01*
X19783D01*
X20513Y-55994D01*
X21132Y-55581D01*
X21545Y-54962D01*
X21646Y-54454D01*
X37795D01*
X38295Y-54355D01*
X38718Y-54072D01*
X49348Y-43442D01*
X49630Y-43019D01*
X49730Y-42520D01*
Y-40304D01*
X50135Y-39899D01*
X50418Y-39476D01*
X50517Y-38976D01*
Y-25591D01*
X50418Y-25091D01*
X50135Y-24668D01*
X46777Y-21310D01*
Y-19525D01*
X46857Y-19493D01*
X47564Y-19395D01*
X47947Y-19967D01*
X48663Y-20445D01*
X49016Y-20515D01*
Y-18406D01*
X49508D01*
Y-17913D01*
X51618D01*
X51548Y-17561D01*
X51069Y-16844D01*
X51291Y-16046D01*
X51388Y-15900D01*
X51506Y-15305D01*
Y-14472D01*
X52294Y-14233D01*
X52376Y-14356D01*
X53092Y-14835D01*
X53937Y-15003D01*
X54782Y-14835D01*
X55498Y-14356D01*
X55977Y-13640D01*
X56145Y-12795D01*
X55977Y-11950D01*
X55498Y-11234D01*
X55242Y-11063D01*
Y-3937D01*
X55142Y-3438D01*
X54860Y-3015D01*
X53383Y-1538D01*
X52960Y-1255D01*
X52461Y-1156D01*
X49606D01*
X49107Y-1255D01*
X48684Y-1538D01*
X47695Y-2527D01*
X46604D01*
X45971Y-2653D01*
X45434Y-3012D01*
X45315D01*
X44777Y-2653D01*
X44144Y-2527D01*
X44047D01*
X42726Y-1206D01*
X43052Y-419D01*
X47047D01*
X47546Y-319D01*
X47970Y-37D01*
X50534Y2527D01*
X51624D01*
X52258Y2653D01*
X52795Y3012D01*
X53154Y3549D01*
X53280Y4183D01*
Y6644D01*
X53154Y7277D01*
X52795Y7815D01*
X52258Y8174D01*
X51624Y8299D01*
X50345D01*
X50340Y8299D01*
X49552Y8942D01*
Y10421D01*
X49555Y10433D01*
X47244D01*
Y10925D01*
X46752D01*
Y13425D01*
X46455Y13980D01*
X47500Y15024D01*
X58464D01*
X58857Y14237D01*
D02*
G37*
%LPC*%
G36*
X23819Y57523D02*
Y55905D01*
X25437D01*
X25367Y56258D01*
X24888Y56975D01*
X24172Y57453D01*
X23819Y57523D01*
D02*
G37*
G36*
X22835D02*
X22482Y57453D01*
X21766Y56975D01*
X21287Y56258D01*
X21217Y55905D01*
X22835D01*
Y57523D01*
D02*
G37*
G36*
X18645Y54429D02*
X17028D01*
Y52811D01*
X17380Y52882D01*
X18097Y53360D01*
X18575Y54076D01*
X18645Y54429D01*
D02*
G37*
G36*
X25437Y54921D02*
X21217D01*
X21287Y54568D01*
X21722Y53917D01*
X21516Y53779D01*
X21157Y53242D01*
X21031Y52608D01*
Y51772D01*
X25622D01*
Y52608D01*
X25496Y53242D01*
X25137Y53779D01*
X24931Y53917D01*
X25367Y54568D01*
X25437Y54921D01*
D02*
G37*
G36*
X32185Y52165D02*
X30384D01*
Y52116D01*
X30502Y51521D01*
X30839Y51016D01*
X31344Y50679D01*
X31939Y50561D01*
X32185D01*
Y52165D01*
D02*
G37*
G36*
X38527Y52165D02*
X36909D01*
Y50548D01*
X37262Y50618D01*
X37978Y51096D01*
X38457Y51813D01*
X38527Y52165D01*
D02*
G37*
G36*
X25622Y50787D02*
X23819D01*
Y48295D01*
X23967D01*
X24600Y48421D01*
X25137Y48780D01*
X25496Y49317D01*
X25622Y49951D01*
Y50787D01*
D02*
G37*
G36*
X22835D02*
X21031D01*
Y49951D01*
X21157Y49317D01*
X21516Y48780D01*
X22053Y48421D01*
X22687Y48295D01*
X22835D01*
Y50787D01*
D02*
G37*
G36*
X34524Y47684D02*
X32846D01*
X32768Y47669D01*
X32689Y47674D01*
X31026Y47455D01*
X30951Y47430D01*
X30872Y47425D01*
X29252Y46990D01*
X29180Y46955D01*
X29102Y46940D01*
X27553Y46298D01*
X27487Y46254D01*
X27411Y46228D01*
X25959Y45390D01*
X25899Y45337D01*
X25828Y45302D01*
X24497Y44281D01*
X24445Y44221D01*
X24379Y44177D01*
X23193Y42991D01*
X23149Y42925D01*
X23089Y42873D01*
X22068Y41542D01*
X22033Y41471D01*
X21980Y41411D01*
X21142Y39959D01*
X21116Y39883D01*
X21072Y39817D01*
X20430Y38268D01*
X20415Y38190D01*
X20380Y38118D01*
X19945Y36498D01*
X19940Y36419D01*
X19915Y36344D01*
X19696Y34681D01*
X19701Y34602D01*
X19685Y34524D01*
Y32846D01*
X19701Y32768D01*
X19696Y32689D01*
X19915Y31026D01*
X19940Y30951D01*
X19945Y30872D01*
X20380Y29252D01*
X20415Y29180D01*
X20430Y29102D01*
X21072Y27553D01*
X21116Y27487D01*
X21142Y27411D01*
X21980Y25959D01*
X22033Y25899D01*
X22068Y25828D01*
X23089Y24497D01*
X23149Y24445D01*
X23193Y24379D01*
X24379Y23193D01*
X24445Y23149D01*
X24497Y23089D01*
X25828Y22068D01*
X25899Y22033D01*
X25959Y21980D01*
X27411Y21142D01*
X27487Y21116D01*
X27553Y21072D01*
X29102Y20430D01*
X29180Y20415D01*
X29252Y20380D01*
X30872Y19945D01*
X30951Y19940D01*
X31026Y19915D01*
X32689Y19696D01*
X32768Y19701D01*
X32846Y19685D01*
X34524D01*
X34602Y19701D01*
X34681Y19696D01*
X36344Y19915D01*
X36419Y19940D01*
X36498Y19945D01*
X38118Y20380D01*
X38190Y20415D01*
X38268Y20430D01*
X39817Y21072D01*
X39883Y21116D01*
X39959Y21142D01*
X41411Y21980D01*
X41471Y22033D01*
X41542Y22068D01*
X42873Y23089D01*
X42925Y23149D01*
X42991Y23193D01*
X44177Y24379D01*
X44221Y24445D01*
X44281Y24497D01*
X45302Y25828D01*
X45337Y25899D01*
X45390Y25959D01*
X46228Y27411D01*
X46254Y27487D01*
X46298Y27553D01*
X46940Y29102D01*
X46955Y29180D01*
X46990Y29252D01*
X47425Y30872D01*
X47430Y30951D01*
X47455Y31026D01*
X47674Y32689D01*
X47669Y32768D01*
X47684Y32846D01*
Y34524D01*
X47669Y34602D01*
X47674Y34681D01*
X47455Y36344D01*
X47430Y36419D01*
X47425Y36498D01*
X46990Y38118D01*
X46955Y38190D01*
X46940Y38268D01*
X46298Y39817D01*
X46254Y39883D01*
X46228Y39959D01*
X45390Y41411D01*
X45337Y41471D01*
X45302Y41542D01*
X44281Y42873D01*
X44221Y42925D01*
X44177Y42991D01*
X42991Y44177D01*
X42925Y44221D01*
X42873Y44281D01*
X41542Y45302D01*
X41471Y45337D01*
X41411Y45390D01*
X39959Y46228D01*
X39883Y46254D01*
X39817Y46298D01*
X38268Y46940D01*
X38190Y46955D01*
X38118Y46990D01*
X36498Y47425D01*
X36419Y47430D01*
X36344Y47455D01*
X34681Y47674D01*
X34602Y47669D01*
X34524Y47684D01*
D02*
G37*
G36*
X15200Y31201D02*
X13583D01*
Y29583D01*
X13935Y29653D01*
X14652Y30132D01*
X15130Y30848D01*
X15200Y31201D01*
D02*
G37*
G36*
X12598D02*
X10981D01*
X11051Y30848D01*
X11529Y30132D01*
X12246Y29653D01*
X12598Y29583D01*
Y31201D01*
D02*
G37*
G36*
X31102Y8113D02*
X28839D01*
Y5217D01*
X33310D01*
Y5906D01*
X33142Y6750D01*
X32664Y7467D01*
X31947Y7945D01*
X31102Y8113D01*
D02*
G37*
G36*
X27854D02*
X25591D01*
X24746Y7945D01*
X24029Y7467D01*
X23551Y6750D01*
X23383Y5906D01*
Y5217D01*
X27854D01*
Y8113D01*
D02*
G37*
G36*
X47736Y13236D02*
Y11417D01*
X49555D01*
X49469Y11847D01*
X48947Y12628D01*
X48166Y13150D01*
X47736Y13236D01*
D02*
G37*
G36*
X62894Y11319D02*
X58422D01*
Y10630D01*
X58590Y9785D01*
X59069Y9069D01*
X59785Y8590D01*
X60630Y8422D01*
X62894D01*
Y11319D01*
D02*
G37*
G36*
X22343Y-10488D02*
X21990Y-10559D01*
X21273Y-11037D01*
X20795Y-11754D01*
X20725Y-12106D01*
X22343D01*
Y-10488D01*
D02*
G37*
G36*
Y-13091D02*
X20725D01*
X20795Y-13443D01*
X21273Y-14160D01*
X21990Y-14638D01*
X22343Y-14708D01*
Y-13091D01*
D02*
G37*
G36*
X51618Y-18898D02*
X50000D01*
Y-20515D01*
X50353Y-20445D01*
X51069Y-19967D01*
X51548Y-19250D01*
X51618Y-18898D01*
D02*
G37*
%LPD*%
D12*
X50984Y4823D02*
Y5413D01*
X47047Y886D02*
X50984Y4823D01*
X37598Y886D02*
X47047D01*
X37598Y-13996D02*
Y-5610D01*
X34666Y-16929D02*
X37598Y-13996D01*
X40945Y-16339D02*
Y-12795D01*
X38780Y-18504D02*
X40945Y-16339D01*
X27165Y-18504D02*
X38780D01*
X53937Y-12795D02*
Y-3937D01*
X52461Y-2461D02*
X53937Y-3937D01*
X49606Y-2461D02*
X52461D01*
X47244Y-4823D02*
X49606Y-2461D01*
X47244Y-5413D02*
Y-4823D01*
X26791Y-16929D02*
X34666D01*
X17520Y-26201D02*
X26791Y-16929D01*
X18898Y-26772D02*
X27165Y-18504D01*
X18898Y-46850D02*
Y-26772D01*
X12598Y-46850D02*
Y-46654D01*
X17520Y-41732D01*
Y-26201D01*
X18898Y-53150D02*
X37795D01*
X12598D02*
X18898D01*
X48425Y-42520D02*
Y-39764D01*
X37795Y-53150D02*
X48425Y-42520D01*
Y-39764D02*
X49213Y-38976D01*
Y-25591D01*
X45472Y-21850D02*
Y-14764D01*
Y-21850D02*
X49213Y-25591D01*
X49409Y-14764D02*
X49459Y-14813D01*
Y-18356D02*
Y-14813D01*
Y-18356D02*
X49508Y-18406D01*
X43504Y-8858D02*
Y-5413D01*
Y-8858D02*
X45472Y-10827D01*
X50984Y-9252D02*
Y-5413D01*
X49409Y-10827D02*
X50984Y-9252D01*
X-11319Y64173D02*
X-7382D01*
X-5413Y66142D01*
X13091Y31693D02*
Y35630D01*
X9154D02*
Y40846D01*
X-1476Y46457D02*
Y52362D01*
X98Y44882D02*
X11811D01*
X-1476Y46457D02*
X98Y44882D01*
X11811D02*
X12894Y43799D01*
Y40846D02*
Y43799D01*
X5413Y39961D02*
Y40846D01*
X-1476Y33071D02*
X5413Y39961D01*
X-1476Y29134D02*
Y33071D01*
D13*
X22835Y-12598D02*
X26772D01*
X30709D02*
Y-8268D01*
X26772D02*
Y-3937D01*
X28346Y-2362D01*
X64567Y-24803D02*
X65748Y-25984D01*
X23327Y51279D02*
Y55413D01*
X32677Y52658D02*
X36417D01*
X32677Y52658D02*
X32677Y52658D01*
X13976Y57284D02*
X14173D01*
X16535Y54921D01*
X16535D01*
X-5118Y53347D02*
Y53839D01*
X-1673Y57284D02*
X5315D01*
X-5118Y53839D02*
X-1673Y57284D01*
X5315Y61614D02*
Y66142D01*
X13976Y61221D02*
X19094D01*
X19587Y60728D01*
X9252Y57284D02*
Y61614D01*
X-15316Y68110D02*
X-11319D01*
X-17224Y66202D02*
X-15316Y68110D01*
X-17224Y66142D02*
Y66202D01*
X5315Y57284D02*
Y57382D01*
Y57284D02*
X5364Y57234D01*
Y51722D02*
Y57234D01*
X9203D02*
X9252Y57284D01*
X9203Y51722D02*
Y57234D01*
X9154Y51673D02*
X9203Y51722D01*
X5364Y51722D02*
X5413Y51673D01*
D14*
X45472Y-10827D02*
D03*
Y-14764D02*
D03*
X49409Y-14764D02*
D03*
Y-10827D02*
D03*
D15*
X30709Y-12598D02*
D03*
X26772D02*
D03*
X9252Y57284D02*
D03*
X5315D02*
D03*
X-9449Y-53937D02*
D03*
X-13386D02*
D03*
X60236Y-18898D02*
D03*
X64173Y-18898D02*
D03*
D16*
X26772Y-8268D02*
D03*
X30709D02*
D03*
X5315Y61614D02*
D03*
X9252D02*
D03*
X9154Y35630D02*
D03*
X13091D02*
D03*
D17*
X50984Y5413D02*
D03*
X47244D02*
D03*
X43504D02*
D03*
Y-5413D02*
D03*
X47244D02*
D03*
X50984D02*
D03*
D18*
X5413Y40846D02*
D03*
X9154D02*
D03*
X12894D02*
D03*
Y51673D02*
D03*
X9154D02*
D03*
X5413D02*
D03*
D19*
X12598Y-46850D02*
D03*
Y-53150D02*
D03*
X18898Y-46850D02*
D03*
Y-53150D02*
D03*
D20*
X-11319Y64173D02*
D03*
Y68110D02*
D03*
X32677Y56595D02*
D03*
Y52658D02*
D03*
X13976Y61221D02*
D03*
Y57284D02*
D03*
D21*
X-1476Y52362D02*
D03*
X-4035D02*
D03*
X-6594D02*
D03*
X-9154D02*
D03*
X-1476Y29134D02*
D03*
X-4035D02*
D03*
X-6594D02*
D03*
X-9154D02*
D03*
D22*
X23327Y51279D02*
D03*
X19587Y60728D02*
D03*
X27067D02*
D03*
D34*
X43504Y5413D02*
Y13583D01*
X46752Y16831D02*
X69193D01*
X43504Y13583D02*
X46752Y16831D01*
X69193D02*
Y24902D01*
Y-3248D02*
Y16831D01*
X-4331Y-64567D02*
X29337D01*
X-7874Y-61024D02*
Y-46850D01*
Y-61024D02*
X-4331Y-64567D01*
X58661Y-25984D02*
Y-17323D01*
X30315Y-66929D02*
X35827Y-61417D01*
X-11024Y-66929D02*
X30315D01*
X-14961Y-62992D02*
X-11024Y-66929D01*
X29337Y-64567D02*
X34848Y-59055D01*
X40945Y-61417D02*
X54724Y-47638D01*
X35827Y-61417D02*
X40945D01*
X39764Y-59055D02*
X52362Y-46457D01*
X34848Y-59055D02*
X39764D01*
X52362Y-46457D02*
Y-43510D01*
X54724Y-44488D02*
X65748Y-33465D01*
X54724Y-47638D02*
Y-44488D01*
X65748Y-33465D02*
Y-25984D01*
X58661Y-37211D02*
Y-25984D01*
X52362Y-43510D02*
X58661Y-37211D01*
X65748Y-25984D02*
Y-14567D01*
X-14961Y-62992D02*
Y-46850D01*
X65748Y-14567D02*
X69291Y-11024D01*
X64567Y-11417D02*
Y-7874D01*
X58661Y-17323D02*
X64567Y-11417D01*
Y-7874D02*
X69193Y-3248D01*
X54921Y28937D02*
X62205Y21654D01*
X43805Y56004D02*
X54921Y44888D01*
X39868Y56004D02*
X43805D01*
X54921Y28937D02*
Y44888D01*
X58071Y39961D02*
Y45079D01*
X44783Y58366D02*
X58071Y45079D01*
Y39961D02*
X61024Y37008D01*
Y31496D02*
X62598D01*
X69193Y24902D01*
X61024Y31496D02*
Y37008D01*
X32972Y56890D02*
X38982D01*
X39868Y56004D01*
X19685Y66142D02*
X33071D01*
X40846Y58366D02*
X44783D01*
X33071Y66142D02*
X40846Y58366D01*
X32677Y56595D02*
X32972Y56890D01*
X27067Y60039D02*
Y60728D01*
Y60039D02*
X30217Y56890D01*
X32382D01*
X32677Y56595D01*
X5315Y66142D02*
X19685D01*
X-5413D02*
X5315D01*
X19587Y60728D02*
Y66043D01*
X19685Y66142D01*
X-13780Y42913D02*
X-5217D01*
X-17224Y46358D02*
X-13780Y42913D01*
X-17224Y46358D02*
Y66142D01*
D35*
X47244Y5413D02*
Y10925D01*
D36*
X28346Y-2362D02*
X41043D01*
X43504Y-4823D01*
Y-5413D02*
Y-4823D01*
D37*
X-5315Y48917D02*
D03*
D38*
Y31496D02*
D03*
D39*
X28346Y4724D02*
D03*
Y-2362D02*
D03*
X61024Y31496D02*
D03*
X62205Y21654D02*
D03*
X63386Y11811D02*
D03*
D40*
X58661Y-25984D02*
D03*
X-7874Y-46850D02*
D03*
X-17224Y66142D02*
D03*
X-14961Y-46850D02*
D03*
X65748Y-25984D02*
D03*
X-5413Y66142D02*
D03*
D41*
X65772Y5315D02*
D03*
X64197Y2166D02*
D03*
X65772Y-984D02*
D03*
X62622Y5315D02*
D03*
X61048Y2166D02*
D03*
X62622Y-984D02*
D03*
X61048Y-4134D02*
D03*
Y-10433D02*
D03*
X59473Y5315D02*
D03*
X57898Y2166D02*
D03*
X59473Y-984D02*
D03*
X57898Y-4134D02*
D03*
X59473Y-7283D02*
D03*
X57898Y-10433D02*
D03*
X54748Y21063D02*
D03*
X56323Y11614D02*
D03*
X54748Y8465D02*
D03*
X56323Y5315D02*
D03*
X54748Y2166D02*
D03*
X56323Y-984D02*
D03*
X54748Y-16732D02*
D03*
Y-35630D02*
D03*
X51599Y27363D02*
D03*
X53174Y24213D02*
D03*
X51599Y21063D02*
D03*
X53174Y11614D02*
D03*
X51599Y-23031D02*
D03*
X53174Y-26181D02*
D03*
Y-32480D02*
D03*
X48449Y46260D02*
D03*
X50024Y43111D02*
D03*
X48449Y39961D02*
D03*
X50024Y36811D02*
D03*
Y30512D02*
D03*
X48449Y27363D02*
D03*
X50024Y24213D02*
D03*
X48449Y21063D02*
D03*
X45300Y46260D02*
D03*
X46874Y43111D02*
D03*
Y24213D02*
D03*
X45300Y21063D02*
D03*
X42150Y52559D02*
D03*
X43725Y49410D02*
D03*
X42150Y46260D02*
D03*
Y21063D02*
D03*
X40575Y49410D02*
D03*
Y17914D02*
D03*
X39000Y14764D02*
D03*
X40575Y11614D02*
D03*
X39000Y8465D02*
D03*
X37426Y17914D02*
D03*
X35851Y14764D02*
D03*
X37426Y11614D02*
D03*
X35851Y8465D02*
D03*
X37426Y5315D02*
D03*
X34276Y17914D02*
D03*
X32701Y14764D02*
D03*
X34276Y11614D02*
D03*
X31126Y17914D02*
D03*
X29552Y14764D02*
D03*
X31126Y11614D02*
D03*
Y-57677D02*
D03*
X27977Y49410D02*
D03*
Y17914D02*
D03*
X26402Y14764D02*
D03*
X27977Y11614D02*
D03*
Y-57677D02*
D03*
X26402Y-60826D02*
D03*
X23252Y21063D02*
D03*
X24827Y17914D02*
D03*
X23252Y14764D02*
D03*
X24827Y11614D02*
D03*
Y-57677D02*
D03*
X23252Y-60826D02*
D03*
X20103Y46260D02*
D03*
X21678Y43111D02*
D03*
Y24213D02*
D03*
X20103Y21063D02*
D03*
X21678Y17914D02*
D03*
X20103Y14764D02*
D03*
X21678Y11614D02*
D03*
X20103Y-16732D02*
D03*
X21678Y-57677D02*
D03*
X20103Y-60826D02*
D03*
X21678Y-70275D02*
D03*
X18528Y49410D02*
D03*
X16953Y46260D02*
D03*
X18528Y43111D02*
D03*
X16953Y39961D02*
D03*
X18528Y36811D02*
D03*
X16953Y33662D02*
D03*
X18528Y30512D02*
D03*
X16953Y27363D02*
D03*
X18528Y24213D02*
D03*
X16953Y21063D02*
D03*
X18528Y17914D02*
D03*
Y-19882D02*
D03*
X16953Y-23031D02*
D03*
X18528Y-57677D02*
D03*
X16953Y-60826D02*
D03*
X18528Y-70275D02*
D03*
X13804Y27363D02*
D03*
X15378Y24213D02*
D03*
X13804Y21063D02*
D03*
X15378Y-19882D02*
D03*
X13804Y-23031D02*
D03*
Y-29330D02*
D03*
Y-35630D02*
D03*
Y-41929D02*
D03*
X15378Y-57677D02*
D03*
X13804Y-60826D02*
D03*
X15378Y-70275D02*
D03*
X10654Y27363D02*
D03*
X12229Y24213D02*
D03*
Y-26181D02*
D03*
Y-32480D02*
D03*
Y-38779D02*
D03*
X10654Y-41929D02*
D03*
X12229Y-57677D02*
D03*
X10654Y-60826D02*
D03*
X12229Y-70275D02*
D03*
X7504Y27363D02*
D03*
X9079Y24213D02*
D03*
X7504Y-41929D02*
D03*
Y-48228D02*
D03*
Y-54527D02*
D03*
X9079Y-57677D02*
D03*
X7504Y-60826D02*
D03*
X9079Y-70275D02*
D03*
X7504Y-73425D02*
D03*
X4355Y33662D02*
D03*
X5930Y30512D02*
D03*
X4355Y27363D02*
D03*
X5930Y24213D02*
D03*
X4355Y-41929D02*
D03*
X5930Y-45079D02*
D03*
X4355Y-48228D02*
D03*
X5930Y-51378D02*
D03*
X4355Y-54527D02*
D03*
X5930Y-57677D02*
D03*
X4355Y-60826D02*
D03*
X5930Y-70275D02*
D03*
X2780Y30512D02*
D03*
Y24213D02*
D03*
X1205Y-41929D02*
D03*
X2780Y-45079D02*
D03*
X1205Y-48228D02*
D03*
X2780Y-51378D02*
D03*
X1205Y-54527D02*
D03*
X2780Y-57677D02*
D03*
X1205Y-60826D02*
D03*
X2780Y-70275D02*
D03*
X-370Y24213D02*
D03*
X-1945Y-41929D02*
D03*
X-370Y-45079D02*
D03*
X-1945Y-48228D02*
D03*
X-370Y-51378D02*
D03*
X-1945Y-54527D02*
D03*
X-370Y-57677D02*
D03*
X-1945Y-60826D02*
D03*
X-3519Y-51378D02*
D03*
Y-57677D02*
D03*
Y-70275D02*
D03*
X-5094Y-73425D02*
D03*
X-6669Y-70275D02*
D03*
X-8244Y-73425D02*
D03*
X-9819Y-70275D02*
D03*
X-12968D02*
D03*
X-17693Y-67126D02*
D03*
X-16118Y-70275D02*
D03*
D42*
X47244Y10925D02*
D03*
D43*
X37598Y886D02*
D03*
Y-5610D02*
D03*
X40945Y-12795D02*
D03*
X53937D02*
D03*
X22835Y-12598D02*
D03*
X49508Y-18406D02*
D03*
X69193Y-11024D02*
D03*
X23327Y55413D02*
D03*
X36417Y52658D02*
D03*
X16535Y54921D02*
D03*
X-5315Y25197D02*
D03*
Y34646D02*
D03*
Y37795D02*
D03*
X13091Y31693D02*
D03*
M02*
