M48
;Layer_Color=9474304
;FILE_FORMAT=2:5
INCH,TZ
;TYPE=PLATED
T1F00S00C0.00787
T2F00S00C0.03150
%
T01
X130709Y28543
X137106Y38189
Y42126
Y46063
Y50000
Y53937
X135335Y58071
X138189Y61024
Y64961
Y68898
Y72835
X136221Y75394
X138189Y80709
Y84646
Y88583
Y92520
X137402Y96063
X133465Y102362
X131102Y100394
X128740Y102362
X122047
X119685Y100394
X117323Y102362
X116634Y95374
Y93012
X125197Y88583
X129134
Y84646
X127165Y86614
X125197Y84646
X125492Y76378
X128445
X122835Y77461
X120374Y76083
X116634Y73622
Y71260
X125197Y68898
X129134
Y64961
X125197
X127165Y66929
X126181Y57480
X124213Y55512
X112205Y59941
X105217Y61910
X108268Y66693
X112205Y71949
Y76968
X104724Y83661
X100787
X112205Y93701
X57972Y93209
Y95965
X46063Y94488
X48917Y102166
X44980Y105512
X48917Y112303
X27953Y103150
Y99213
X31890
Y95276
X27953
Y91339
X31890
X27953Y87402
X24016
Y83465
X20079Y87402
Y91339
X16142
Y95276
Y99213
X20079
X24016
Y103150
Y107087
X20079Y103150
Y95276
X24016
Y91339
X35827Y95276
X37697Y80230
X32579Y79528
X32059Y76343
X34906Y69193
X31362Y65748
X27657Y62697
X34646Y62008
X40453Y62992
X39272Y58169
X46998Y64089
X47835Y70177
X63779Y63386
X71161Y59252
X75197Y54449
X59055Y49705
X60335Y44685
X55807Y42224
X47343Y44587
X43012Y46260
X38681Y40551
X34252Y39272
X33465Y43209
X23917Y46260
X23031Y49409
X15157Y53740
X8422Y53969
X8465Y65551
X15157
X24213Y68405
X21752Y73524
X16732Y76870
X10433Y78740
X3150Y77854
Y89764
X7874Y86122
X12205Y95276
X4232Y106988
X6496Y27756
X10630
X14764
X18898
X23425
Y37598
X35630Y29921
Y26378
Y22835
X39173
Y26378
X42717
Y22835
Y29921
X39173
X42126Y10728
X47638
X53150
X58661
X64173
X66929Y6201
X61417
X55905
X50394
X44882
X39370
X34252Y3839
X23524Y16339
X19587
X50197Y16929
X77559Y10728
X83071
X88583
X94095
X99606
X102362Y6201
X96850
X91339
X85827
X80315
X74803
X114469Y7480
X98032Y117618
Y120374
X89272Y119095
X78051Y118307
X82677Y137106
X86614
X90551
X94488
X98425
X110236Y140059
X51378Y121405
X51378Y116783
X43110Y119095
X37683Y118947
X28864Y119984
X13878Y117717
X9547Y120768
T02
X118504Y130315
X124409Y124409
X130315Y118504
M30
